<svg width="68" height="255" viewBox="0 0 68 255" fill="none" xmlns="http://www.w3.org/2000/svg">
<path d="M56.3243 243.309C56.6973 243.694 57.1633 243.824 57.7043 243.869C57.9773 243.892 58.2583 243.894 58.5543 243.898C58.8453 243.901 59.1483 243.908 59.4443 243.947L59.6623 244.195C59.6563 247.545 59.5183 250.921 59.4393 254.245L59.2323 254.486C57.7683 254.75 56.2193 254.773 54.8443 253.96C54.0763 253.922 53.3293 254.102 52.5443 254.305C51.7533 254.509 50.9173 254.736 50.0453 254.715L49.8663 254.296C50.0243 254.124 50.1123 253.917 50.1703 253.689C50.2323 253.443 50.2513 253.227 50.2993 252.971C50.3423 252.743 50.4103 252.48 50.5973 252.291C50.7913 252.095 51.0653 252.022 51.4143 252.046C52.6113 251.833 53.9063 251.866 55.0873 252.038L55.5893 252.122L55.7613 252.242C55.8323 252.366 56.0153 252.496 56.2873 252.594C56.5503 252.688 56.8483 252.735 57.0823 252.731C57.1873 252.729 57.2693 252.714 57.3243 252.697C57.2753 252.636 57.1793 252.548 57.0113 252.435L56.9393 252.361C56.3213 251.382 55.0323 251.102 53.8853 251.021L53.7493 250.969C53.5063 250.781 53.2723 250.558 53.0833 250.327C52.8983 250.1 52.7413 249.846 52.6833 249.593C52.6213 249.326 52.6693 249.043 52.9123 248.835C53.1243 248.654 53.4523 248.562 53.8763 248.539C54.0823 248.438 54.3593 248.356 54.6173 248.281C54.9153 248.195 55.2063 248.111 55.4383 248.01C55.5523 247.96 55.6413 247.909 55.7033 247.859C55.7643 247.811 55.7873 247.773 55.7953 247.749C55.8033 247.723 55.8173 247.62 55.6063 247.4C55.0293 247.39 54.4073 247.521 53.7463 247.65C53.0673 247.782 52.3453 247.911 51.6703 247.82L51.5843 247.794C51.4273 247.709 51.3023 247.598 51.2193 247.463C51.1353 247.327 51.1023 247.179 51.1073 247.031C51.1193 246.747 51.2713 246.467 51.4543 246.236C51.6413 246 51.8863 245.781 52.1323 245.609C52.3643 245.448 52.6153 245.317 52.8383 245.257L53.0533 245.169C54.1173 244.713 55.0363 244.004 55.9933 243.281L56.3243 243.309ZM28.3613 0.257499C28.5213 0.275499 28.7163 0.324488 28.9493 0.402488C31.0163 0.674488 33.3003 2.0095 33.7353 4.2925C34.1903 4.6935 34.7343 5.03049 35.2963 5.39049C35.8003 5.71349 36.3173 6.0555 36.7483 6.4725L36.9283 6.65551L36.9673 6.7145C37.0873 6.9575 37.1643 7.23549 37.2313 7.49349C37.2993 7.76149 37.3573 8.00951 37.4393 8.22951C37.5223 8.44651 37.6183 8.60951 37.7463 8.71651C37.8653 8.81651 38.0333 8.88552 38.2973 8.88052C38.7133 8.79152 39.0433 8.84151 39.2823 9.05151C39.5113 9.25251 39.6013 9.5545 39.6523 9.8175C39.6793 9.9525 39.6993 10.0955 39.7183 10.2285C39.7373 10.3635 39.7563 10.4905 39.7813 10.6075C39.8293 10.8245 39.8933 10.9635 39.9813 11.0475C41.3613 11.4145 42.9183 11.4395 44.2893 11.1085C44.5143 10.9075 44.7303 10.7275 44.9403 10.5885C45.1673 10.4385 45.4023 10.3265 45.6513 10.2895C46.1723 10.2135 46.6473 10.4765 47.1483 11.0505C47.2493 11.1355 47.3393 11.1755 47.4163 11.1925C47.4963 11.2085 47.5793 11.2045 47.6703 11.1795C47.8673 11.1245 48.0683 10.9885 48.3203 10.8215C48.5523 10.6695 48.8353 10.4855 49.1433 10.4305C49.4703 10.3715 49.7973 10.4605 50.1123 10.7585C50.6663 11.0515 51.1893 11.3955 51.7003 11.7355C52.2233 12.0845 52.7343 12.4285 53.2693 12.7265L53.3833 13.0255C53.0993 13.8535 52.6623 14.6175 52.2063 15.3545C51.8423 15.9415 51.4703 16.5075 51.1403 17.0865C51.5373 17.0405 51.9173 17.0785 52.2653 17.2175C52.7513 17.4115 53.1473 17.7915 53.4393 18.3415C53.6903 18.5055 53.8963 18.7285 54.0423 18.9645C54.1983 19.2165 54.2983 19.5025 54.3013 19.7655C54.3043 20.0325 54.2023 20.3125 53.9193 20.4535C53.6583 20.5835 53.3113 20.5565 52.9103 20.4115V20.4125C52.2923 20.1965 51.6433 19.9855 51.0333 19.9625C50.4383 19.9405 49.8983 20.0975 49.4673 20.6105L49.4493 20.6295C48.8543 21.2065 48.1253 21.1765 47.5073 21.1445C46.8573 21.1095 46.3253 21.0765 45.8693 21.4335L45.8003 21.4725C44.1113 22.0775 42.5123 22.8495 40.9853 23.7785C40.5503 24.2285 40.2973 24.8515 40.0333 25.5485C39.7733 26.2365 39.5033 26.9975 39.0103 27.6035L39.0073 27.6065C38.8703 27.7695 38.8453 27.9565 38.8933 28.1965C38.9443 28.4515 39.0663 28.7175 39.1893 29.0215C39.3043 29.3005 39.4283 29.6325 39.3983 29.9455C39.3833 30.1125 39.3243 30.2745 39.2063 30.4195C39.0973 30.5535 38.9463 30.6605 38.7563 30.7475C38.4713 30.9965 38.1503 31.2055 37.8323 31.3975C37.4973 31.5985 37.1753 31.7785 36.8733 31.9835C36.2793 32.3855 35.8303 32.8425 35.7133 33.5835L35.7123 33.5865C35.5763 34.3695 35.8823 35.0605 36.3483 35.7745C36.5823 36.1335 36.8423 36.4765 37.1013 36.8455C37.3503 37.2005 37.5903 37.5705 37.7703 37.9595C38.1633 38.5685 38.5323 39.1975 38.9023 39.8115C39.2773 40.4305 39.6553 41.0395 40.0753 41.6135L40.0993 41.8695C39.9693 42.1385 39.8043 42.4095 39.6723 42.6405C39.5323 42.8845 39.4353 43.0725 39.4023 43.2105C39.3873 43.2745 39.3923 43.3025 39.3943 43.3095L39.3953 43.3115C39.3963 43.3125 39.4033 43.3185 39.4173 43.3255C39.4533 43.3435 39.5253 43.3645 39.6563 43.3705C39.7863 43.3765 39.9583 43.3675 40.1823 43.3385L40.2233 43.3365C40.8373 43.3575 41.6323 43.4075 42.2843 43.6705C42.6143 43.8035 42.9213 43.9965 43.1493 44.2775C43.3813 44.5625 43.5203 44.9255 43.5353 45.3725L43.5343 45.4065C43.5003 45.7295 43.5833 45.8525 43.6633 45.9125C43.7683 45.9915 43.9523 46.0315 44.2353 46.0305C44.5153 46.0305 44.8173 45.9925 45.1453 45.9695C45.4463 45.9475 45.7753 45.9385 46.0503 46.0135H46.0513C46.9363 46.1985 47.6383 45.8155 48.3773 45.2645C48.7323 44.9995 49.1243 44.6725 49.5073 44.4045C49.9003 44.1295 50.3263 43.8835 50.8033 43.7515L51.1193 43.9935C51.1143 44.9645 51.0533 45.9395 50.9893 46.9035C50.9263 47.8615 50.8613 48.8095 50.8463 49.7455C50.9893 50.7365 52.1103 51.1985 52.9963 50.6875L53.0443 50.6655C53.3813 50.5565 53.7623 50.4145 54.1283 50.3125C54.5033 50.2075 54.8993 50.1315 55.3113 50.1545L55.5133 50.2785C57.0013 52.8285 58.6973 55.3535 59.9273 58.0775L59.9003 58.3275C58.5193 60.2265 58.0993 62.7555 58.8723 64.9725L58.9503 65.1865L58.9663 65.2555C59.0063 65.7305 58.8593 66.1355 58.6403 66.4895C58.4243 66.8385 58.1283 67.1545 57.8603 67.4455C57.3113 68.0445 56.8943 68.5415 56.9893 69.2025C57.3413 69.7455 57.5203 70.2865 57.5013 70.8345C57.4823 71.3805 57.2673 71.9035 56.8883 72.4155C56.8253 72.7855 56.9003 73.1495 57.0543 73.5275C57.2173 73.9295 57.4533 74.3165 57.6843 74.7365C57.9083 75.1445 58.1243 75.5825 58.2003 76.0395C58.2783 76.5105 58.2063 76.9955 57.8743 77.4875C57.6973 77.7995 57.4383 78.0575 57.1773 78.2845C56.8943 78.5315 56.6393 78.7215 56.3963 78.9505C56.1623 79.1705 55.9913 79.3825 55.9063 79.6145C55.8273 79.8315 55.8153 80.0885 55.9413 80.4235C56.2163 80.7735 56.3463 81.1075 56.1863 81.4095C56.1833 81.4145 56.1793 81.4185 56.1763 81.4235C56.3313 81.5155 56.4623 81.6595 56.5553 81.8555C57.7213 83.1715 58.5283 84.7685 58.6853 86.5425L58.7083 86.9025V86.9055C58.7253 87.5615 59.0593 88.0675 59.5103 88.5665C59.7413 88.8215 59.9763 89.0485 60.2233 89.3085C60.4013 89.4965 60.5773 89.6935 60.7303 89.9045L60.8733 90.1215L60.9093 90.2495C60.9123 90.7545 60.8033 91.2525 60.6643 91.7315C60.5943 91.9705 60.5163 92.2105 60.4393 92.4445C60.3623 92.6805 60.2863 92.9105 60.2193 93.1405C59.9503 94.0605 59.8433 94.9015 60.3493 95.7205H60.3503C60.5823 96.0935 60.8313 96.4615 61.0813 96.8365C61.3303 97.2095 61.5813 97.5895 61.8123 97.9805C62.2693 98.7565 62.6533 99.5895 62.8023 100.54C63.1153 101.45 63.2623 102.43 63.4133 103.367C63.5623 104.293 63.7153 105.178 64.0213 105.971C64.2223 106.091 64.4573 106.145 64.7273 106.165C65.0333 106.188 65.3443 106.166 65.6933 106.161C66.3653 106.152 67.1263 106.213 67.6243 106.997L67.6623 107.155C67.5023 108.762 66.8673 110.356 66.1623 111.717L66.0843 111.807C65.2673 112.382 64.3163 112.73 63.4073 113.066C62.4963 113.402 61.6253 113.727 60.8913 114.252C60.7463 114.408 60.7103 114.572 60.7283 114.763C60.7483 114.979 60.8343 115.209 60.9313 115.487C61.0213 115.748 61.1203 116.055 61.1063 116.362C61.0923 116.68 60.9583 116.978 60.6433 117.234C59.9703 118.173 60.2133 119.579 60.9853 120.474L61.1483 120.647L61.2223 120.795C61.2593 121.114 61.1683 121.403 61.0483 121.657C60.9323 121.901 60.7653 122.16 60.6453 122.371C60.5153 122.598 60.4213 122.801 60.3933 123.002C60.3673 123.185 60.3943 123.381 60.5283 123.605C60.8613 123.885 61.3533 124.372 61.5893 124.862C61.7113 125.116 61.7883 125.419 61.6763 125.705C61.5593 126.001 61.2753 126.193 60.8723 126.297L60.8053 126.304C60.1873 126.29 59.6433 126.328 59.2423 126.518C59.0483 126.61 58.8913 126.736 58.7743 126.911C58.6573 127.088 58.5713 127.328 58.5423 127.658L58.5293 127.716C58.1363 128.874 57.3853 129.8 56.6793 130.689C55.9633 131.588 55.2893 132.454 54.9603 133.528L54.9523 133.551C54.8163 133.88 54.6543 134.206 54.5043 134.52C54.3523 134.837 54.2093 135.146 54.0993 135.456C53.8793 136.073 53.7913 136.679 54.0153 137.327L54.0283 137.411C54.0263 137.681 54.0593 137.968 54.1063 138.271C54.1503 138.565 54.2113 138.892 54.2513 139.2C54.3333 139.824 54.3543 140.493 54.0323 141.088L53.8833 141.208C53.1913 141.412 52.7503 141.864 52.4333 142.442C52.1103 143.029 51.9243 143.732 51.7353 144.424C51.4113 145.613 51.1303 146.756 51.7113 147.731L51.8393 147.924L51.8733 147.986C52.7793 150.514 53.5693 153.109 54.1683 155.729L54.4123 156.854L54.4133 156.859C54.6253 157.995 54.2283 158.971 53.7093 159.859C53.4513 160.301 53.1523 160.738 52.8803 161.158C52.6043 161.584 52.3503 161.999 52.1603 162.424L52.1263 162.481C51.4863 163.265 51.3593 164.114 51.6453 165.059L51.7073 165.249L51.7113 165.26C51.8743 165.8 51.9993 166.429 51.9133 167.002C51.8253 167.584 51.5183 168.106 50.8543 168.414C50.5783 168.658 50.2703 168.894 49.9793 169.124C49.6723 169.366 49.3773 169.608 49.1253 169.867C48.6253 170.381 48.3073 170.949 48.3893 171.715L48.3873 171.779C47.9993 174.332 48.4143 176.991 49.6903 179.236L49.6443 179.544C49.3823 179.787 49.0573 179.972 48.7403 180.132C48.4113 180.298 48.1043 180.433 47.8133 180.598C47.5283 180.759 47.2963 180.931 47.1393 181.14C46.9873 181.342 46.8943 181.594 46.9073 181.939L46.8983 182.013C46.6223 183.042 46.4843 184.095 46.2593 185.179C46.0413 186.229 45.7433 187.275 45.1613 188.223C45.0283 188.955 45.0363 189.719 45.1003 190.499C45.1653 191.302 45.2813 192.063 45.3603 192.862C45.4083 193.085 45.4893 193.342 45.5743 193.633C45.6573 193.915 45.7393 194.225 45.7673 194.52C45.7943 194.813 45.7723 195.125 45.6123 195.391C45.4513 195.659 45.1763 195.837 44.7873 195.924C44.4493 196.054 44.2553 196.243 44.1403 196.46C44.0203 196.687 43.9733 196.968 43.9733 197.296C43.9733 197.625 44.0193 197.977 44.0653 198.34C44.1033 198.634 44.1403 198.941 44.1473 199.228C44.3393 199.306 44.5373 199.382 44.7143 199.465C44.9413 199.571 45.1643 199.697 45.3463 199.864C45.5323 200.036 45.6743 200.251 45.7433 200.528C45.8103 200.797 45.8023 201.111 45.7243 201.478C45.6943 201.853 45.6233 202.257 45.5593 202.65C45.4923 203.054 45.4323 203.452 45.4203 203.83C45.3973 204.568 45.5603 205.185 46.1873 205.609C46.3293 205.651 46.5643 205.688 46.8593 205.732C47.1593 205.776 47.5063 205.829 47.8033 205.911C47.9513 205.953 48.0973 206.004 48.2233 206.07C48.3463 206.136 48.4703 206.225 48.5503 206.354C48.6363 206.492 48.6583 206.655 48.6113 206.822C48.5683 206.979 48.4673 207.131 48.3283 207.281L48.2923 207.314C47.6573 207.775 46.9153 207.859 46.2213 207.9C45.6603 207.932 45.1343 207.94 44.6453 208.054C44.7503 208.132 44.8683 208.204 44.9973 208.275C45.2733 208.428 45.5543 208.551 45.8593 208.705C46.4323 208.994 47.0523 209.374 47.1783 210.132L47.1233 210.333C46.9353 210.56 46.7143 210.769 46.5053 210.966C46.2923 211.167 46.0913 211.357 45.9213 211.557C45.5883 211.948 45.4003 212.348 45.5173 212.885L45.5203 212.976C45.4003 213.77 45.5523 214.555 45.6503 215.406C45.7463 216.232 45.7843 217.101 45.3843 217.969C45.1243 219.129 44.2803 220.076 43.0183 220.166C42.6953 220.395 42.3883 220.813 42.2433 221.26C42.0923 221.728 42.1343 222.157 42.4173 222.439C42.7013 222.705 42.8423 223.007 42.8853 223.327C42.9263 223.639 42.8723 223.955 42.7923 224.252C42.7133 224.544 42.5973 224.858 42.5093 225.132C42.4173 225.418 42.3483 225.681 42.3353 225.926L42.3183 226.003C42.0433 226.711 41.4423 227.136 40.8353 227.471C40.5353 227.636 40.2033 227.794 39.9133 227.945C39.6143 228.101 39.3403 228.258 39.1073 228.44L39.0563 228.471C38.5453 228.699 38.0233 229.008 37.6883 229.398C37.4043 229.727 37.2563 230.108 37.3583 230.568L37.4183 230.771L37.4313 230.82C37.6573 232.404 38.1783 233.895 38.9073 235.323C39.4473 235.348 39.9893 235.2 40.5743 235.016C41.1923 234.821 41.8653 234.588 42.5633 234.564L42.7723 234.663C43.2323 235.281 43.3433 236.021 43.3883 236.731C43.4343 237.465 43.4123 238.144 43.5593 238.775L43.5613 238.877C43.4613 239.429 43.6533 239.85 43.9983 240.2C44.3423 240.549 44.8303 240.816 45.3103 241.041C46.6873 241.08 48.0643 241.058 49.4533 241.057C50.8523 241.056 52.2583 241.077 53.6663 241.205C54.8873 241.166 56.0593 241.441 57.1933 241.752C58.3443 242.068 59.4483 242.417 60.5773 242.551L60.6273 243.036C59.3783 243.449 57.9283 243.188 56.8453 242.463C56.3103 242.431 55.9103 242.761 55.4073 243.19C54.9233 243.603 54.3393 244.107 53.5083 244.036C53.1553 244.066 52.7283 244.082 52.3463 244.109C51.9393 244.139 51.5403 244.184 51.1813 244.279C50.8213 244.375 50.5143 244.517 50.2793 244.728C50.0493 244.935 49.8753 245.22 49.7993 245.632L49.7673 245.718C49.4743 246.198 49.4893 246.731 49.5013 247.359C49.5133 247.962 49.5203 248.653 49.0813 249.275L48.9393 249.372C48.5583 249.472 48.0283 249.643 47.5043 249.719C46.9923 249.793 46.4293 249.785 45.9433 249.512C45.5073 249.434 45.1823 249.324 44.9803 249.156C44.8693 249.066 44.7883 248.952 44.7523 248.817C44.7173 248.682 44.7343 248.55 44.7753 248.432C44.8543 248.207 45.0373 247.989 45.2363 247.792C45.4223 247.609 45.6483 247.422 45.8773 247.237C45.9473 246.944 46.1503 246.707 46.3623 246.52C46.6023 246.308 46.9013 246.116 47.1393 245.953C47.2623 245.869 47.3703 245.792 47.4583 245.718C47.5473 245.643 47.6043 245.582 47.6343 245.533C47.6613 245.49 47.6583 245.471 47.6563 245.465C47.6543 245.454 47.6393 245.413 47.5583 245.343C47.3073 245.138 47.0623 245.054 46.8183 245.042C46.5683 245.03 46.3043 245.091 46.0183 245.197C45.7293 245.305 45.4403 245.451 45.1303 245.596C44.8273 245.738 44.5063 245.878 44.1813 245.958L44.1743 245.96C43.5723 246.09 42.9333 246.046 42.3673 246.046C41.7843 246.046 41.2493 246.087 40.7573 246.343L40.4603 246.292C40.1523 245.964 39.9903 245.635 40.0743 245.314C40.1563 245.005 40.4383 244.822 40.6963 244.705C40.9683 244.583 41.3003 244.497 41.5993 244.426C41.9103 244.352 42.1793 244.294 42.3693 244.229L42.4813 244.218C42.9703 244.279 43.4573 244.18 43.9733 244.031C44.1883 243.969 44.4143 243.896 44.6453 243.825C44.3023 243.768 43.9513 243.745 43.5923 243.739C43.2553 243.734 42.9163 243.742 42.5693 243.75C42.2253 243.758 41.8743 243.765 41.5233 243.752L41.2993 243.591C41.1763 243.269 41.2443 242.945 41.3413 242.68C41.3903 242.545 41.4513 242.415 41.5073 242.299C41.5653 242.179 41.6153 242.078 41.6553 241.984C41.6963 241.888 41.7163 241.822 41.7213 241.778C41.7223 241.766 41.7203 241.759 41.7203 241.755C41.7103 241.748 41.6783 241.728 41.6023 241.713C41.5003 241.693 41.3473 241.683 41.1233 241.693L40.8753 241.525C40.7323 241.106 40.5903 240.989 40.5023 240.955C40.4113 240.92 40.2823 240.936 40.0593 241.036C39.9523 241.084 39.8433 241.142 39.7173 241.205C39.5953 241.266 39.4613 241.331 39.3213 241.383C39.0593 241.481 38.7533 241.54 38.4303 241.44C38.1943 241.467 37.9943 241.462 37.8373 241.406C37.7483 241.375 37.6673 241.325 37.6043 241.252C37.5403 241.178 37.5063 241.094 37.4923 241.01C37.4663 240.853 37.5113 240.689 37.5593 240.56C37.6093 240.424 37.6803 240.282 37.7453 240.156C37.8133 240.025 37.8743 239.912 37.9173 239.812C37.9283 239.787 37.9343 239.763 37.9403 239.745C37.8833 239.752 37.8013 239.768 37.6883 239.799C37.4543 240.035 37.1423 240.083 36.8563 240.038C36.5503 239.99 36.2433 239.834 35.9993 239.65C35.7603 239.47 35.5433 239.233 35.4563 238.99C35.4123 238.866 35.3933 238.712 35.4603 238.564C35.5233 238.426 35.6413 238.338 35.7773 238.286C36.0873 238.108 36.1943 237.955 36.2233 237.859C36.2463 237.781 36.2303 237.694 36.1343 237.588C36.0343 237.477 35.8663 237.371 35.6573 237.294C35.4513 237.218 35.2243 237.177 35.0213 237.182L34.9263 237.164C34.4903 236.999 34.1723 236.85 33.9743 236.708C33.8773 236.639 33.7843 236.555 33.7313 236.45C33.6683 236.327 33.6663 236.184 33.7433 236.06C33.8073 235.957 33.9113 235.891 34.0023 235.846C34.0993 235.798 34.2163 235.757 34.3453 235.723C34.5833 235.658 34.8923 235.604 35.2483 235.555C35.5183 235.274 35.9043 234.907 36.2193 234.528C36.3863 234.327 36.5173 234.139 36.5883 233.984C36.6123 233.93 36.6253 233.887 36.6333 233.853C36.4883 233.86 36.3233 233.888 36.1373 233.929C35.8833 233.985 35.5813 234.068 35.3123 234.103C35.0413 234.138 34.7373 234.136 34.4813 233.984C34.2263 233.831 34.0733 233.563 34.0093 233.189C33.8953 233.036 33.8243 232.879 33.8083 232.718C33.7893 232.534 33.8403 232.372 33.9203 232.236C34.0673 231.987 34.3423 231.786 34.5133 231.65C34.6093 231.573 34.6773 231.514 34.7183 231.465C34.7233 231.459 34.7263 231.452 34.7303 231.447C34.7183 231.436 34.7003 231.416 34.6683 231.395C34.5763 231.334 34.4183 231.26 34.1653 231.174L34.0983 231.138C33.6993 230.842 33.4713 230.529 33.5203 230.18C33.5433 230.015 33.6273 229.877 33.7223 229.766C33.8173 229.655 33.9363 229.558 34.0543 229.471C34.1713 229.384 34.3023 229.297 34.4183 229.218C34.5383 229.137 34.6463 229.061 34.7363 228.984C34.9283 228.822 34.9683 228.717 34.9563 228.637C34.9353 228.533 34.9093 228.506 34.9043 228.502C34.8983 228.5 34.8773 228.496 34.8273 228.508C34.7563 228.525 34.6653 228.566 34.5543 228.627C34.4413 228.689 34.3343 228.756 34.2123 228.827C34.1003 228.892 33.9733 228.961 33.8543 229C33.7443 229.036 33.5623 229.075 33.4023 228.963C33.2453 228.852 33.2053 228.66 33.1993 228.494C33.1933 228.324 33.2213 228.104 33.2793 227.825C33.2423 227.302 33.1543 226.697 33.1943 226.145C33.2363 225.578 33.4143 225.023 33.9153 224.557C33.9293 224.517 33.9423 224.46 33.9403 224.38C33.9393 224.282 33.9213 224.166 33.8933 224.034C33.8643 223.903 33.8253 223.764 33.7853 223.62C33.7463 223.479 33.7053 223.329 33.6733 223.189C33.6413 223.049 33.6163 222.903 33.6143 222.768C33.6123 222.634 33.6323 222.484 33.7153 222.354C33.9013 222.06 34.2683 222.038 34.6723 222.127C34.9343 222.15 35.1943 222.229 35.4383 222.32C35.5653 222.368 35.6933 222.422 35.8173 222.473C35.9433 222.524 36.0653 222.574 36.1863 222.619C36.6633 222.798 37.0523 222.871 37.4003 222.692C37.4603 222.615 37.4863 222.554 37.4943 222.51C37.5033 222.462 37.4953 222.417 37.4713 222.367C37.4143 222.253 37.2663 222.122 37.0243 221.995C36.5773 221.761 35.9603 221.617 35.6223 221.583C34.9913 221.853 34.4263 221.754 33.9243 221.648C33.3933 221.535 32.9473 221.423 32.4453 221.572L32.1303 221.278C32.2253 220.84 32.4173 220.432 32.6053 220.054C32.7973 219.666 32.9813 219.317 33.0953 218.965L33.4593 218.825C33.8443 219.05 34.3063 218.85 34.5473 218.487C34.6633 218.312 34.6933 218.144 34.6593 218.026C34.6303 217.926 34.5343 217.796 34.2393 217.726L34.1373 217.676C33.6613 217.281 33.1213 217.122 32.5353 217.064C31.9333 217.003 31.3293 217.049 30.6793 217.044L30.4843 216.95C30.3983 216.841 30.3203 216.735 30.2483 216.637C30.1763 216.538 30.1113 216.449 30.0483 216.367C29.9203 216.204 29.8123 216.091 29.6933 216.02C29.4803 215.892 29.1473 215.849 28.3833 216.158L28.1443 216.13C28.0153 216.039 27.9033 215.918 27.8683 215.76C27.8313 215.592 27.8953 215.445 27.9773 215.34C28.0563 215.238 28.1683 215.151 28.2823 215.077C28.3993 215.002 28.5363 214.929 28.6773 214.861C28.9543 214.728 29.2843 214.597 29.5563 214.479C29.8453 214.353 30.0573 214.247 30.1613 214.159L30.2593 214.109C30.6663 214.004 30.9643 213.699 31.2723 213.315C31.4173 213.133 31.5773 212.917 31.7333 212.734C31.8943 212.546 32.0753 212.362 32.2893 212.229L32.3043 212.221C32.5783 212.076 32.9253 212.03 33.2533 212.047C33.5853 212.064 33.9273 212.144 34.2083 212.275C34.4773 212.401 34.7453 212.602 34.8323 212.89C34.9303 213.213 34.7713 213.521 34.4593 213.775L34.3093 213.83C33.8293 213.845 33.3303 214.112 33.0803 214.452C32.9583 214.618 32.9073 214.785 32.9243 214.937C32.9363 215.043 32.9843 215.164 33.0973 215.291C33.2023 215.184 33.3253 215.058 33.4543 214.937C33.6603 214.743 33.8983 214.54 34.1223 214.408C34.2333 214.343 34.3573 214.285 34.4823 214.263C34.6123 214.24 34.7643 214.252 34.8953 214.354C35.0203 214.451 35.0823 214.599 35.1113 214.752C35.1403 214.905 35.1403 215.093 35.1183 215.317L35.1193 215.318C35.1013 215.563 35.1053 215.729 35.1203 215.835C35.1543 215.808 35.1953 215.773 35.2423 215.726C35.4123 215.553 35.6103 215.302 35.8193 215.041C36.0113 214.801 36.2203 214.546 36.4053 214.382C36.6193 214.146 36.7363 213.841 36.8073 213.478C36.8793 213.106 36.8993 212.716 36.9433 212.299C36.9863 211.897 37.0533 211.475 37.2333 211.111C37.4203 210.736 37.7253 210.429 38.2143 210.253L38.2423 210.244C38.3273 210.225 38.4023 210.206 38.4703 210.189C38.2783 210.118 38.0513 210.018 37.8843 209.875C37.7683 209.776 37.6643 209.642 37.6253 209.466C37.5863 209.287 37.6233 209.101 37.7223 208.916L37.7793 208.844C38.1893 208.49 38.7543 208.269 39.2563 208.052C39.7783 207.826 40.2553 207.594 40.5983 207.223L40.6353 207.19C40.9113 206.99 41.0623 206.796 41.1323 206.627C41.1993 206.463 41.1963 206.308 41.1403 206.166C41.0223 205.87 40.6463 205.576 40.0643 205.447L40.0573 205.445C39.6713 205.348 39.3863 205.18 39.1973 204.945C39.0083 204.711 38.9373 204.434 38.9323 204.158C38.9213 203.641 39.1413 203.058 39.3113 202.601C39.3303 202.379 39.3193 202.137 39.3023 201.875C39.2853 201.611 39.2643 201.323 39.2843 201.052C39.3053 200.778 39.3703 200.497 39.5393 200.252C39.7113 200.003 39.9753 199.815 40.3473 199.697L40.3913 199.689C40.8563 199.631 41.0613 199.542 41.1423 199.473C41.1713 199.447 41.1783 199.428 41.1813 199.413C41.1843 199.391 41.1843 199.35 41.1613 199.281C41.1133 199.134 41.0063 198.957 40.8653 198.715C40.7383 198.495 40.5943 198.234 40.5063 197.947C40.3183 197.542 40.2673 197.195 40.3453 196.893C40.4233 196.589 40.6203 196.374 40.8303 196.21C41.0333 196.052 41.2853 195.913 41.4793 195.794C41.6743 195.674 41.8243 195.563 41.9223 195.439C41.9553 195.336 41.9543 195.263 41.9413 195.21C41.9273 195.151 41.8923 195.091 41.8293 195.029C41.6903 194.894 41.4743 194.795 41.2223 194.669C41.1053 194.611 40.9793 194.546 40.8733 194.471C40.7703 194.397 40.6563 194.292 40.6013 194.145C40.5403 193.984 40.5663 193.818 40.6493 193.663C40.7233 193.527 40.8463 193.389 41.0103 193.245C41.1113 193.05 41.0793 192.936 41.0283 192.862C40.9593 192.764 40.8073 192.671 40.5823 192.627C40.3633 192.584 40.1143 192.595 39.9003 192.666C39.6883 192.737 39.5323 192.859 39.4553 193.018L39.4283 193.062C39.0123 193.601 38.2603 193.843 37.6083 193.771C37.2783 193.734 36.9533 193.614 36.7003 193.39C36.4563 193.172 36.2943 192.869 36.2543 192.486C35.8973 191.81 35.4973 191.066 35.2683 190.292C35.0353 189.507 34.9723 188.672 35.3023 187.815C35.3573 186.804 35.9053 186.087 36.4923 185.455C37.1043 184.797 37.7333 184.248 38.0943 183.512L38.1083 183.486C38.4123 183.015 38.3453 182.485 38.1383 181.865C38.0333 181.553 37.9053 181.25 37.7813 180.921C37.6673 180.616 37.5613 180.297 37.5123 179.981C37.0443 179.055 37.2023 178.03 37.2763 177.148C37.3553 176.222 37.3523 175.422 36.7173 174.744H36.7163C36.1913 174.286 35.9983 173.577 36.1653 173.049C36.2533 172.773 36.4463 172.533 36.7513 172.435C37.0283 172.346 37.3543 172.389 37.7113 172.554C38.0343 172.481 38.2603 172.324 38.4333 172.111C38.6243 171.876 38.7563 171.563 38.8683 171.197C38.9843 170.82 39.0613 170.448 39.1743 170.038C39.2813 169.651 39.4133 169.257 39.6263 168.927L39.7963 168.619C40.1643 167.888 40.3483 167.067 40.6013 166.223C40.8823 165.284 41.2473 164.334 42.0803 163.614C42.8573 162.706 43.2043 161.577 43.5303 160.382C43.8533 159.201 44.1583 157.944 44.8863 156.9L44.9673 156.825C45.4573 156.545 45.6303 156.136 45.6313 155.676C45.6313 155.198 45.4433 154.664 45.1913 154.192L45.1783 154.161C45.0413 153.795 45.0993 153.476 45.2553 153.2C45.4013 152.941 45.6353 152.716 45.8473 152.521C46.0703 152.314 46.2743 152.134 46.4213 151.932C46.5593 151.742 46.6323 151.551 46.6163 151.333C45.8953 148.473 45.5333 145.456 45.2993 142.518L45.2983 142.507C45.2643 141.617 45.7603 140.94 46.2313 140.34C46.7203 139.716 47.1823 139.171 47.2963 138.482L47.3073 138.439C47.6633 137.431 47.3493 136.431 46.7183 135.567L46.6773 135.479C46.4843 134.711 46.6813 133.971 46.9103 133.286C47.1473 132.58 47.4123 131.943 47.4583 131.283L47.4603 131.268C47.6073 130.14 47.9903 129.1 48.8213 128.263C48.9453 127.53 49.1053 126.801 49.2693 126.077C49.4383 125.325 49.6113 124.58 49.7543 123.833C50.0403 122.339 50.2023 120.854 49.9733 119.35L50.0093 119.178C50.3753 118.601 50.7873 118.056 51.0333 117.471C51.2723 116.904 51.3343 116.345 51.0203 115.754L50.9963 115.691C50.8843 115.18 50.7723 114.614 50.7503 114.057C50.7293 113.527 50.7923 112.989 51.0233 112.497C50.9243 111.932 50.9683 111.382 51.0613 110.863C51.1093 110.591 51.1713 110.323 51.2323 110.067C51.2813 109.864 51.3253 109.669 51.3663 109.478C51.0043 109.215 50.6953 108.867 50.5463 108.448C50.3733 107.962 50.4263 107.413 50.7983 106.859L50.9313 106.759C51.3983 106.611 51.7193 106.326 51.9053 105.967C52.0933 105.604 52.1523 105.147 52.0633 104.651L52.0593 104.609C52.0503 103.545 52.2653 102.5 52.4393 101.494C52.6163 100.478 52.7533 99.4905 52.6223 98.4845L52.6203 98.4445C52.6653 96.7245 52.5503 95.0065 52.4203 93.2775C52.2903 91.5535 52.1463 89.8155 52.1343 88.0725L52.1383 88.0265C52.1673 87.8585 52.1303 87.6335 52.0453 87.3545C51.9583 87.0675 51.8493 86.8045 51.7473 86.5005C51.6543 86.2245 51.5703 85.9195 51.5973 85.6525C51.6023 85.5985 51.6153 85.5445 51.6313 85.4915C51.6223 85.4865 51.6113 85.4825 51.6033 85.4765C51.4813 85.3925 51.3933 85.2755 51.3243 85.1595C51.2553 85.0435 51.1963 84.9115 51.1433 84.7845C51.0303 84.5185 50.9383 84.2715 50.8033 84.0775C50.6773 83.8965 50.5333 83.7915 50.3273 83.7765L50.2213 83.7455C49.9143 83.5715 49.5533 83.4295 49.1673 83.2835C48.7873 83.1405 48.3803 82.9915 48.0073 82.8085C47.2623 82.4415 46.5963 81.9055 46.4613 80.8995C46.2483 80.2435 45.7453 79.8865 45.1003 79.5805C44.7653 79.4225 44.4343 79.2955 44.0723 79.1355C43.7323 78.9845 43.3903 78.8115 43.0863 78.5855C40.1883 77.1095 37.3913 75.5085 34.3823 74.3595L34.3303 74.3335C30.6803 71.8425 26.5603 69.3845 24.2513 65.3635L24.2183 65.2325C24.2433 64.4095 24.3023 63.5895 24.2063 62.8115C24.1113 62.0425 23.8663 61.3415 23.3003 60.7615L23.2903 60.7505C22.2953 59.6055 21.6103 58.2675 20.9723 56.9385C20.3373 55.6155 19.7513 54.3065 18.9523 53.1445C18.7393 53.0205 18.5143 52.8965 18.3153 52.7695C18.0993 52.6305 17.8913 52.4745 17.7283 52.2845C17.5613 52.0915 17.4423 51.8605 17.4053 51.5795C17.3713 51.3185 17.4113 51.0305 17.5253 50.7075C17.4313 49.7855 17.0373 48.9455 16.5513 48.1005C16.0683 47.2615 15.4783 46.3915 15.0763 45.4855C13.1443 41.8545 11.5223 38.1075 8.95431 34.9315V34.9305C8.57731 34.5005 8.25232 34.0265 7.94732 33.5485C7.63732 33.0605 7.35429 32.5845 7.04329 32.1195C6.42629 31.1995 5.74632 30.4065 4.72332 29.9685L4.69131 29.9525C4.10731 29.6015 3.46932 29.3575 2.80932 29.0845C2.15632 28.8145 1.4863 28.5185 0.888296 28.0645L0.807302 27.7725C0.954302 27.4015 1.23932 27.2175 1.53432 27.1185C1.81232 27.0265 2.1393 26.9985 2.3753 26.9645C2.6433 26.9255 2.79731 26.8785 2.87731 26.7985C2.93231 26.7435 3.00231 26.6185 2.92431 26.2645C2.57231 25.4085 1.93332 24.6885 1.33532 23.8635C0.747317 23.0525 0.220302 22.1575 0.251302 21.0285L0.269308 20.9445C0.651308 19.9585 1.31032 19.1615 2.05132 18.4635C2.78632 17.7705 3.6293 17.1515 4.3633 16.5515L4.3893 16.5335C4.7043 16.3365 4.98431 16.1725 5.22231 16.0705C5.44431 15.9755 5.6963 15.9025 5.9143 15.9785C6.1733 16.0675 6.27132 16.3125 6.29732 16.5605C6.32232 16.8095 6.28731 17.1435 6.20531 17.5625C6.17531 17.8205 6.0943 18.0865 6.0143 18.3335C5.9293 18.5965 5.84632 18.8395 5.79732 19.0745C5.74932 19.3075 5.74131 19.5075 5.79131 19.6805C5.83831 19.8415 5.94232 20.0005 6.15832 20.1505C6.37432 20.2495 6.63232 20.2855 6.93032 20.2935C7.08132 20.2975 7.23532 20.2945 7.39632 20.2905C7.55432 20.2875 7.71832 20.2835 7.87932 20.2875C8.19732 20.2955 8.53332 20.3345 8.82732 20.4875C9.09432 20.6275 9.30831 20.8525 9.45031 21.1865L9.50731 21.3365L9.51131 21.3495L9.5693 21.5325C9.7273 21.9655 10.0273 22.4265 10.3893 22.7095C10.5933 22.8695 10.8053 22.9645 11.0103 22.9795C11.2013 22.9935 11.4093 22.9395 11.6313 22.7705C12.3293 21.7715 12.7503 20.6075 13.1833 19.4005C13.6163 18.1945 14.0633 16.9455 14.8223 15.8635L14.8243 15.8605C15.7603 14.5795 17.0503 13.8015 18.4273 13.2305C19.7793 12.6695 21.2713 12.2875 22.5803 11.8445C25.0423 10.2515 26.9843 7.9535 28.0253 5.2105L28.0833 5.12151C28.4673 4.74051 28.7653 4.3435 28.8803 3.9425C28.9903 3.5615 28.9413 3.15251 28.5803 2.70351L28.5353 2.61651C28.4773 2.41651 28.3463 2.16449 28.1953 1.88949C28.0523 1.62749 27.8863 1.33949 27.7923 1.10049C27.7463 0.981486 27.7063 0.849503 27.7053 0.723503C27.7043 0.586503 27.7523 0.428497 27.9073 0.330497C28.0403 0.247497 28.2053 0.240499 28.3613 0.257499ZM39.5663 241.799C39.7043 241.8 39.8463 241.825 39.9813 241.893C40.0823 241.944 40.1723 242.017 40.2493 242.109L40.3223 242.208L40.3493 242.265C40.5803 242.948 40.4913 243.521 40.2733 244.047C40.1673 244.305 40.0293 244.553 39.8883 244.792C39.6852 245.08 39.54 245.404 39.3773 245.697C39.3733 245.709 39.3673 245.721 39.3613 245.734C39.3583 245.742 39.3473 245.767 39.3303 245.791C39.3253 245.798 39.3163 245.811 39.3053 245.822C39.2943 245.833 39.2733 245.852 39.2413 245.869C39.2083 245.887 39.1483 245.909 39.0733 245.895C39.0693 245.894 39.0653 245.892 39.0613 245.891C38.8463 245.905 38.6593 245.886 38.5023 245.823C38.3173 245.749 38.1893 245.624 38.1103 245.468C38.0363 245.319 38.0123 245.154 38.0073 245.002C38.0023 244.849 38.0173 244.688 38.0343 244.542C38.0523 244.389 38.0713 244.259 38.0823 244.132C38.0933 244.006 38.0913 243.916 38.0783 243.856C38.0723 243.828 38.0653 243.814 38.0623 243.809C38.0593 243.805 38.0583 243.805 38.0573 243.804C38.0493 243.8 38.0073 243.783 37.8923 243.802C37.5183 244.017 37.1653 244.062 36.8673 243.948C36.5613 243.831 36.3673 243.567 36.2873 243.289C36.2083 243.012 36.2323 242.691 36.3913 242.429C36.5563 242.156 36.8523 241.974 37.2563 241.96L37.4073 242.003C37.5853 242.126 37.7843 242.16 38.0133 242.14C38.2503 242.118 38.4973 242.041 38.7653 241.96C39.0163 241.884 39.3033 241.797 39.5663 241.799ZM36.5073 194.117L36.5843 194.135C36.9513 194.288 37.2193 194.5 37.3783 194.758C37.5393 195.019 37.5783 195.309 37.5133 195.585C37.3873 196.115 36.8973 196.559 36.2483 196.752C36.1163 196.834 36.0473 196.905 36.0123 196.961C35.9793 197.015 35.9703 197.064 35.9763 197.119C35.9903 197.255 36.0903 197.425 36.2683 197.663C36.4273 197.877 36.6453 198.143 36.7763 198.416C36.9093 198.692 36.9733 199.017 36.8113 199.356C36.7673 199.526 36.7373 199.706 36.7093 199.895C36.6813 200.084 36.6543 200.288 36.6173 200.486C36.5423 200.887 36.4173 201.307 36.1083 201.667L35.8293 201.737C35.6503 201.668 35.4053 201.624 35.1133 201.575C34.8343 201.529 34.5183 201.48 34.2393 201.395C33.9653 201.311 33.6803 201.179 33.5023 200.939C33.3123 200.681 33.2813 200.351 33.4013 199.965L33.4283 199.906C33.7763 199.349 33.8853 198.751 33.9003 198.114C33.9083 197.795 33.8923 197.469 33.8733 197.135C33.8543 196.804 33.8313 196.46 33.8273 196.12L33.8363 196.055C34.0083 195.394 34.3103 194.872 34.7693 194.533C35.1713 194.236 35.6713 194.099 36.2533 194.106L36.5073 194.117Z" fill="#718FD5" stroke="white" stroke-width="0.5" stroke-linejoin="round"/>
</svg>
