<svg width="425" height="143" viewBox="0 0 425 143" fill="none" xmlns="http://www.w3.org/2000/svg">
<path d="M12.3289 135.757C12.5953 135.793 12.9048 135.892 13.1814 136.005C13.4361 136.109 13.6788 136.233 13.8542 136.345C14.5098 136.477 14.9296 136.881 15.2527 137.261C15.3352 137.358 15.414 137.455 15.4871 137.546C15.5612 137.638 15.6295 137.724 15.698 137.802C15.8022 137.92 15.8966 138.011 15.989 138.075L16.0818 138.13L16.1531 138.183C16.3716 138.415 16.5524 138.63 16.6746 138.833C16.7969 139.037 16.875 139.252 16.8533 139.479C16.831 139.709 16.7099 139.906 16.53 140.08C16.3527 140.251 16.1029 140.415 15.7888 140.584L15.7166 140.609C14.5511 140.829 13.5635 141.156 13.0867 142.192L12.7966 142.33C12.4093 142.229 12.1152 142.062 11.8982 141.837C11.682 141.613 11.5564 141.345 11.4792 141.066C11.4029 140.791 11.3715 140.495 11.3513 140.208C11.3324 139.938 11.3214 139.685 11.2966 139.43C11.0409 139.135 10.9103 138.857 10.9021 138.58C10.8935 138.283 11.0262 138.04 11.1667 137.846C11.2371 137.748 11.3166 137.654 11.3884 137.567C11.4624 137.479 11.5302 137.396 11.5896 137.313C11.6927 137.167 11.7543 137.035 11.7703 136.896C11.6702 136.736 11.5986 136.592 11.5603 136.462C11.5166 136.314 11.5058 136.15 11.5837 136.006C11.6645 135.857 11.8069 135.789 11.9333 135.762C12.0581 135.735 12.1968 135.739 12.3289 135.757ZM8.69208 132.051C8.86678 132.186 9.08398 132.288 9.33278 132.379C9.58858 132.473 9.84338 132.543 10.1228 132.635C10.6488 132.807 11.2297 133.044 11.5212 133.612L11.5388 133.795C11.4024 134.271 10.9748 134.452 10.6023 134.535C10.4107 134.578 10.2089 134.6 10.0281 134.618C9.84077 134.637 9.68107 134.649 9.54757 134.673L9.25558 134.452C9.24458 134.345 9.15748 134.204 8.97238 134.015C8.88508 133.925 8.78588 133.836 8.68138 133.742C8.57908 133.651 8.46988 133.554 8.37078 133.459C8.27178 133.364 8.17387 133.262 8.09637 133.156C8.01997 133.052 7.95148 132.927 7.92848 132.787C7.90388 132.637 7.93477 132.487 8.02807 132.352C8.11627 132.223 8.25288 132.118 8.42068 132.027L8.69208 132.051ZM1.03687 129.413C1.29897 129.313 1.61157 129.263 1.88257 129.328C2.02127 129.361 2.15858 129.428 2.26638 129.542C2.37418 129.657 2.43778 129.805 2.45578 129.976L2.47048 130.046C2.51348 130.202 2.62788 130.291 2.83178 130.416C3.04938 130.55 3.38697 130.731 3.54857 131.131L3.38938 131.464C2.92458 131.603 2.35028 131.672 1.81128 131.579C1.27728 131.487 0.758877 131.231 0.437277 130.709C0.331277 130.595 0.263076 130.463 0.251676 130.315C0.239876 130.159 0.292076 130.018 0.367876 129.903C0.514676 129.681 0.776375 129.513 1.03687 129.413ZM295.188 0.274098L295.361 0.304097L295.457 0.34409C296.139 0.81809 296.726 1.37309 297.281 1.94509C297.839 2.52209 298.339 3.0871 298.898 3.6471C299.853 4.3091 300.785 4.6391 301.877 4.4321L301.987 4.4361C302.201 4.4921 302.453 4.52509 302.729 4.55309C302.997 4.58009 303.295 4.6031 303.57 4.6401C303.846 4.6761 304.124 4.7301 304.365 4.8261C304.588 4.9151 304.795 5.04909 304.936 5.25609C305.191 5.42409 305.354 5.5391 305.513 5.6411C305.67 5.7411 305.779 5.7951 305.885 5.8241C306.098 5.8821 306.355 5.8541 307.041 5.6861L307.259 5.7351C307.981 6.3321 308.752 6.6141 309.619 6.9551C310.181 7.0131 310.719 6.8521 311.296 6.6321C311.866 6.4151 312.492 6.13409 313.145 6.04509L313.428 6.30309C313.415 6.61709 313.503 6.7251 313.579 6.7741C313.681 6.8411 313.857 6.86709 314.128 6.84809C314.398 6.82809 314.678 6.77409 314.989 6.73209C315.273 6.69509 315.588 6.66809 315.852 6.73609C316.116 6.79409 316.361 6.87409 316.591 6.95409C316.826 7.03609 317.037 7.1151 317.255 7.1821C317.682 7.3111 318.1 7.3791 318.597 7.2681H318.707C319.558 7.4601 320.345 7.18909 321.19 6.81409C322.007 6.45209 322.897 5.97909 323.863 5.89209L324.031 5.86809C324.871 5.77309 325.676 6.0001 326.436 6.2961C326.841 6.4531 327.245 6.63609 327.634 6.80309C327.929 6.92909 328.218 7.04809 328.503 7.14809L328.788 7.2421L328.808 7.24909C332.68 8.78609 336.621 10.2331 340.347 12.1631L341.09 12.5561L341.22 12.7541C341.262 13.2521 341.508 13.7441 341.869 14.0641C342.224 14.3781 342.68 14.5201 343.174 14.3591L343.391 14.3901C344.219 14.9451 344.813 15.5561 345.808 15.5941H346.013L346.097 15.6051C346.466 15.7181 346.674 15.9421 346.793 16.2091C346.9 16.4511 346.936 16.7391 346.974 16.9511C347.016 17.1861 347.064 17.3571 347.166 17.4821C347.246 17.5821 347.382 17.6781 347.652 17.7231L347.776 17.7381L347.849 17.7561L352.438 19.6621L352.586 19.8371C352.886 21.1491 353.313 22.4331 353.698 23.7531C354.078 25.0571 354.414 26.3861 354.521 27.7591L354.545 27.9171C354.642 28.6991 354.376 29.3551 354.035 29.9481C353.855 30.2601 353.645 30.5701 353.457 30.8651C353.265 31.1661 353.09 31.4611 352.958 31.7671L352.957 31.7661C352.67 32.5371 351.975 32.9711 351.387 33.3481C350.775 33.7401 350.277 34.0731 350.094 34.6151C350.084 35.3571 350.559 35.8501 351.259 36.1251C351.97 36.4041 352.859 36.4291 353.514 36.2491C354.115 36.0031 354.708 35.7031 355.308 35.3891C355.909 35.0741 356.521 34.7421 357.142 34.4471C358.38 33.8591 359.692 33.3981 361.154 33.4551C363.597 33.2001 366.004 32.4841 368.187 31.3561C368.162 31.1551 368.108 30.9311 368.041 30.6861C367.958 30.3851 367.857 30.0491 367.8 29.7291C367.744 29.4071 367.726 29.0661 367.829 28.7501C367.935 28.4231 368.163 28.1481 368.544 27.9501L368.577 27.9371C369.867 27.4811 371.215 27.4031 372.55 27.4511C373.218 27.4751 373.888 27.5311 374.547 27.5881C375.201 27.6441 375.844 27.7001 376.476 27.7311C376.801 27.6771 377.196 27.6291 377.541 27.5741C377.915 27.5151 378.278 27.4401 378.598 27.3231C378.918 27.2061 379.183 27.0511 379.374 26.8381C379.561 26.6291 379.69 26.3481 379.718 25.9531C379.724 25.5821 379.832 25.2951 380.027 25.0761C380.218 24.8621 380.473 24.7351 380.722 24.6431C380.961 24.5551 381.251 24.4811 381.478 24.4091C381.723 24.3321 381.935 24.2471 382.104 24.1241L382.16 24.0931C383.207 23.6801 384.214 23.1511 385.224 22.6081C386.23 22.0681 387.244 21.5131 388.287 21.0621L388.387 21.0411C393.005 21.0571 397.65 20.9861 402.273 21.2041L402.367 21.2281C402.664 21.3671 402.832 21.3451 402.942 21.2911C403.071 21.2281 403.186 21.0921 403.32 20.8731C403.438 20.6791 403.587 20.3881 403.748 20.1631C403.918 19.9241 404.145 19.6921 404.475 19.5861C405.058 19.3991 405.689 19.5051 406.229 19.5921C406.774 19.6791 407.223 19.7421 407.596 19.6221C408.999 17.9841 410.215 16.2341 411.118 14.2891L411.295 13.8941C411.993 12.2171 413.144 10.7791 414.623 9.72609L414.819 9.68509C415.128 9.74909 415.413 9.8991 415.669 10.0561C415.946 10.2241 416.158 10.3791 416.408 10.5211C416.645 10.6551 416.859 10.7411 417.065 10.7561C417.262 10.7701 417.474 10.7211 417.716 10.5411L417.802 10.5001C418.513 10.3151 419.409 10.3701 420.124 10.7001C420.844 11.0331 421.407 11.6651 421.358 12.6211C421.408 13.5191 421.558 14.4231 421.678 15.3531C421.793 16.2371 421.879 17.1361 421.813 18.0241C421.918 18.1191 422.062 18.1931 422.243 18.2581C422.351 18.2971 422.464 18.3301 422.581 18.3641C422.695 18.3981 422.816 18.4341 422.926 18.4751C423.133 18.5511 423.392 18.6761 423.493 18.9441C423.594 19.2151 423.496 19.5231 423.289 19.8591L423.21 19.9381C423.158 19.9711 423.119 20.0021 423.09 20.0261C423.107 20.0351 423.125 20.0471 423.146 20.0581C423.231 20.0981 423.33 20.1361 423.45 20.1871C423.564 20.2341 423.691 20.2911 423.808 20.3591C423.924 20.4271 424.045 20.5141 424.136 20.6321C424.231 20.7551 424.291 20.9091 424.282 21.0891C424.274 21.2371 424.217 21.3861 424.127 21.5381C424.155 21.5581 424.188 21.5801 424.234 21.6101C424.285 21.6441 424.354 21.6911 424.412 21.7481C424.47 21.8051 424.542 21.8971 424.555 22.0251C424.569 22.1591 424.514 22.2761 424.439 22.3681C424.301 22.5381 424.024 22.7101 423.589 22.9111L423.456 22.9331C422.805 22.8571 422.457 23.0041 422.139 23.1351C421.978 23.2011 421.796 23.2761 421.59 23.3001C421.392 23.3231 421.183 23.2961 420.943 23.2041C420.83 23.2111 420.699 23.2761 420.539 23.4141C420.455 23.4861 420.373 23.5681 420.288 23.6551C420.205 23.7401 420.116 23.8341 420.031 23.9141C419.947 23.9931 419.851 24.0751 419.748 24.1301C419.642 24.1861 419.505 24.2291 419.354 24.1911C419.204 24.1541 419.091 24.0491 419.006 23.9241C418.956 23.8501 418.911 23.7611 418.869 23.6571C418.311 23.8251 417.901 23.9521 417.614 24.0891C417.294 24.2421 417.204 24.3711 417.188 24.5161L416.972 24.7361C416.73 24.7681 416.52 24.7511 416.346 24.6811C416.167 24.6081 416.043 24.4861 415.962 24.3441C415.863 24.1671 415.834 23.9611 415.829 23.7821C415.783 23.8411 415.733 23.9071 415.677 23.9811L415.659 24.0041C415.539 24.1301 415.417 24.3281 415.281 24.5741C415.15 24.8091 415.006 25.0891 414.853 25.3311C414.701 25.5711 414.519 25.8121 414.293 25.9611C414.049 26.1221 413.759 26.1721 413.442 26.0361L413.383 25.9951C413.352 26.0001 413.297 26.0211 413.214 26.0681C413.04 26.1691 412.869 26.3101 412.668 26.4481C412.579 26.5101 412.477 26.5731 412.38 26.6111C412.3 26.6431 412.116 26.6981 411.964 26.5641C411.938 26.5411 411.917 26.5141 411.9 26.4861C411.806 26.6381 411.707 26.7971 411.607 26.9251C411.535 27.0161 411.453 27.1071 411.36 27.1741C411.267 27.2401 411.137 27.3001 410.986 27.2771C410.833 27.2541 410.718 27.1571 410.635 27.0431C410.574 26.9581 410.519 26.8511 410.47 26.7241C410.338 26.7011 410.247 26.7251 410.174 26.7671C410.068 26.8281 409.968 26.9441 409.857 27.1141C409.802 27.1981 409.749 27.2861 409.692 27.3811C409.636 27.4741 409.575 27.5731 409.509 27.6661C409.393 27.8311 409.243 28.0001 409.039 28.1051C408.751 28.5231 408.362 28.8451 408.056 29.1501C407.725 29.4811 407.444 29.8311 407.307 30.3591L407.187 30.5161C406.95 30.6471 406.829 30.8081 406.779 30.9571C406.728 31.1071 406.741 31.2651 406.803 31.4001C406.926 31.6681 407.237 31.8491 407.623 31.6911L407.858 32.1291C407.397 32.4431 406.956 32.5931 406.636 32.7501C406.388 32.8721 406.164 33.0151 405.95 33.2761C406.271 33.3901 406.629 33.5741 406.968 33.8111C407.442 34.1421 407.903 34.5911 408.186 35.1271L408.214 35.2651C408.187 35.5881 408.26 35.7611 408.347 35.8561C408.438 35.9551 408.587 36.0171 408.803 36.0291C409.186 36.0521 409.676 35.9111 410.072 35.7301C410.044 35.6851 410.005 35.6301 409.952 35.5701C409.813 35.4141 409.634 35.2561 409.478 35.1111C409.406 35.0441 409.331 34.9731 409.28 34.9111C409.256 34.8831 409.222 34.8381 409.201 34.7851C409.182 34.7381 409.139 34.5921 409.258 34.4741C409.306 34.4271 409.361 34.4071 409.396 34.3981C409.432 34.3901 409.467 34.3891 409.493 34.3901C409.544 34.3911 409.601 34.4001 409.656 34.4121C409.712 34.4251 409.778 34.4431 409.856 34.4671L410.125 34.5561L410.196 34.5951C410.808 35.0731 411.064 35.7361 410.872 36.2881C410.677 36.8431 410.086 37.1421 409.297 37.0391C408.645 37.3371 408.106 37.3511 407.675 37.2021C407.357 37.0921 407.116 36.9011 406.943 36.7081C406.866 36.7731 406.782 36.8421 406.693 36.9171C406.533 37.0511 406.355 37.1931 406.165 37.3101C405.784 37.5441 405.313 37.7041 404.798 37.4801L404.673 37.1411C404.833 36.8141 404.867 36.6131 404.857 36.5041C404.852 36.4541 404.839 36.4301 404.83 36.4181C404.821 36.4061 404.806 36.3931 404.777 36.3821C404.711 36.3571 404.596 36.3521 404.443 36.3861C404.342 36.4081 404.238 36.4451 404.141 36.4901C404.178 37.2001 403.986 37.7101 403.546 38.0161C403.106 38.3221 402.481 38.3731 401.804 38.3241C398.853 38.5651 395.891 38.7081 393.306 40.1191C393.117 40.3461 392.906 40.5391 392.702 40.6771C392.496 40.8161 392.259 40.9281 392.053 40.9271C391.987 40.9261 391.913 40.9101 391.843 40.8741C391.785 41.0211 391.739 41.1411 391.717 41.2111L391.435 41.3821C391.123 41.3261 391 41.4011 390.96 41.4451C390.918 41.4921 390.89 41.5881 390.942 41.7331C391.044 42.0181 391.409 42.3261 391.955 42.1841L392.259 42.4911C392.173 42.8041 392.094 43.1421 392.006 43.4981C391.92 43.8521 391.826 44.2211 391.712 44.5871C391.487 45.3171 391.179 46.0531 390.678 46.6491L390.371 46.7101C390.312 46.6801 390.287 46.6821 390.283 46.6831C390.279 46.6831 390.263 46.6871 390.234 46.7171C390.159 46.7931 390.087 46.9381 389.98 47.1671C389.798 47.5561 389.532 48.1561 388.94 48.3961C388.728 48.6781 388.524 48.9021 388.335 49.0571C388.143 49.2121 387.921 49.3371 387.699 49.3181C387.576 49.3081 387.465 49.2541 387.381 49.1621C387.302 49.0751 387.256 48.9651 387.231 48.8531C387.196 48.6971 387.194 48.5061 387.217 48.2851C386.579 48.2521 385.96 47.9531 385.464 47.5281C385.472 47.5441 385.482 47.5591 385.49 47.5751C385.624 47.8491 385.714 48.1641 385.645 48.5021C385.807 48.9601 386.15 49.1881 386.528 49.5001C386.715 49.6551 386.914 49.8371 387.044 50.0831C387.174 50.3261 387.225 50.6121 387.178 50.9661C387.252 51.3121 387.224 51.6071 387.115 51.8651C387.004 52.1281 386.82 52.3351 386.633 52.5131C386.54 52.6021 386.441 52.6881 386.347 52.7711C386.252 52.8541 386.16 52.9341 386.074 53.0191C385.902 53.1871 385.761 53.3601 385.671 53.5651L385.609 53.6511C385.485 53.7631 385.371 53.9411 385.26 54.1701C385.15 54.3981 385.055 54.6501 384.955 54.9011C384.858 55.1441 384.753 55.3941 384.629 55.5841C384.511 55.7651 384.327 55.9651 384.049 55.9661C384.044 55.9691 384.033 55.9771 384.018 55.9931C383.977 56.0381 383.929 56.1141 383.874 56.2241C383.758 56.4551 383.669 56.7181 383.545 56.9991C383.489 57.1291 383.424 57.2601 383.353 57.3671C383.287 57.4671 383.187 57.5891 383.042 57.6411C382.865 57.7041 382.7 57.6411 382.576 57.5291C382.462 57.4271 382.361 57.2681 382.264 57.0681L382.256 56.8671C382.343 56.6491 382.419 56.4011 382.504 56.1311C382.588 55.8651 382.681 55.5821 382.797 55.3131C383.009 54.8241 383.317 54.3461 383.845 54.0861C383.836 54.0101 383.813 53.9911 383.808 53.9871C383.775 53.9611 383.719 53.9481 383.585 53.9291C383.534 53.9211 383.453 53.9101 383.382 53.8841C383.307 53.8561 383.2 53.7961 383.147 53.6681C383.102 53.5591 383.117 53.4481 383.144 53.3551C383.104 53.3471 383.065 53.3361 383.029 53.3201C382.952 53.2871 382.882 53.2371 382.831 53.1671C382.779 53.0981 382.754 53.0211 382.745 52.9481C382.728 52.8121 382.766 52.6751 382.805 52.5701C382.83 52.5031 382.86 52.4351 382.891 52.3721C382.855 52.3911 382.816 52.4121 382.774 52.4351L382.773 52.4331C382.52 52.5861 382.202 52.5501 381.949 52.4661C381.679 52.3761 381.408 52.2111 381.211 52.0151C381.029 51.8321 380.845 51.5531 380.92 51.2511C381 50.9331 381.319 50.7581 381.734 50.6771L381.771 50.6721C381.83 50.6691 381.883 50.6621 381.93 50.6581C381.923 50.6551 381.916 50.6511 381.909 50.6471C381.694 50.5511 381.427 50.4641 381.229 50.4201C381.126 50.3971 381.062 50.3901 381.039 50.3911C381.041 50.3901 381.046 50.3891 381.053 50.3881C381.063 50.3851 381.099 50.3761 381.136 50.3441L380.765 50.3341C380.746 50.3061 380.717 50.2521 380.714 50.1801C380.712 50.0931 380.75 50.0181 380.807 49.9681C380.829 49.9481 380.852 49.9341 380.874 49.9241C381.021 49.7651 381.184 49.6631 381.327 49.5951C381.339 49.5891 381.352 49.5851 381.364 49.5791C381.248 49.5131 381.091 49.4281 380.883 49.3171V48.8771C381.12 48.7501 381.308 48.6581 381.475 48.5661C381.573 48.5121 381.642 48.4671 381.689 48.4341C381.626 48.3981 381.524 48.3501 381.364 48.2931L381.237 47.9231C381.414 47.6461 381.608 47.4541 381.802 47.3191C381.716 47.3471 381.622 47.3531 381.529 47.3211C381.527 47.3251 381.526 47.3301 381.524 47.3331C381.424 47.4861 381.273 47.5361 381.179 47.5641C381.076 47.5961 381.002 47.6121 380.912 47.6621C380.827 47.7091 380.721 47.7911 380.601 47.9531L380.385 48.0281C380.433 48.1111 380.506 48.2301 380.566 48.3371C380.701 48.5771 380.857 48.8981 380.864 49.2271C380.867 49.3981 380.83 49.5741 380.729 49.7391C380.649 49.8711 380.532 49.9841 380.383 50.0821C380.384 50.1211 380.39 50.1671 380.4 50.2221C380.419 50.3271 380.454 50.4461 380.501 50.5741C380.546 50.7021 380.601 50.8331 380.655 50.9611C380.708 51.0871 380.762 51.2151 380.805 51.3261C380.846 51.4331 380.887 51.5491 380.899 51.6501C380.905 51.7001 380.908 51.7741 380.88 51.8501C380.85 51.9301 380.788 51.9951 380.703 52.0291C380.711 52.0361 380.718 52.0431 380.726 52.0491C380.769 52.0811 380.806 52.1061 380.835 52.1241L380.905 52.1591L381.045 52.2911C381.145 52.5121 381.21 52.6931 381.235 52.8351C381.359 53.5953 381.123 52.7431 381.703 54.3921C381.655 54.6901 381.446 54.9431 381.201 55.1031C381.112 55.1601 381.012 55.2081 380.907 55.2431C380.928 55.2541 380.949 55.2631 380.969 55.2741C381.092 55.3421 381.2 55.4151 381.295 55.5281C381.341 55.5831 381.381 55.6431 381.418 55.7111L381.525 55.9371L381.537 55.9691C381.572 56.1031 381.59 56.2271 381.579 56.3381C381.566 56.4561 381.519 56.5691 381.419 56.6481C381.329 56.7211 381.224 56.7431 381.148 56.7501C381.072 56.7571 380.99 56.7531 380.929 56.7501C380.861 56.7461 380.809 56.7441 380.761 56.7461C380.715 56.7481 380.691 56.7551 380.68 56.7601C380.676 56.7621 380.674 56.7631 380.669 56.7711C380.666 56.7771 380.66 56.7911 380.656 56.8131C380.864 56.9291 381.063 57.0741 381.213 57.2341C381.38 57.4121 381.55 57.6731 381.48 57.9581C381.445 58.0991 381.359 58.2091 381.242 58.2961C381.479 58.2651 381.73 58.2571 381.969 58.2871C382.256 58.3231 382.545 58.4161 382.779 58.6081C383.011 58.8001 383.168 59.0751 383.22 59.4371C383.68 60.8971 384.135 62.3151 384.966 63.5621C384.966 63.5621 384.02 64.3942 383.751 64.6961C383.587 64.8471 383.389 64.9351 383.227 65.0091C383.056 65.0871 382.902 65.1581 382.759 65.2731C382.62 65.3861 382.482 65.5501 382.363 65.8181L382.271 65.9261C381.701 66.2971 381.11 66.1641 380.629 65.9411C380.395 65.8331 380.173 65.6961 379.978 65.5731C379.972 65.5861 379.968 65.6011 379.96 65.6141C379.949 65.6331 379.934 65.6501 379.92 65.6651C379.947 65.6791 379.974 65.6911 380 65.7061C380.226 65.8401 380.425 66.0381 380.479 66.3381L380.224 66.6321C380 66.6241 379.953 66.6831 379.935 66.7081C379.918 66.7321 379.9 66.7681 379.881 66.8281C379.872 66.8581 379.865 66.8901 379.855 66.9271C379.846 66.9621 379.835 67.0031 379.823 67.0441C379.796 67.1351 379.757 67.2421 379.686 67.3431C379.709 67.3341 379.732 67.3251 379.754 67.3171C379.959 67.2451 380.165 67.1831 380.354 67.1631C380.542 67.1431 380.749 67.1601 380.922 67.2851C381.098 67.4121 381.191 67.6151 381.23 67.8551L381.17 68.0621C380.359 68.9681 379.359 69.1701 378.216 69.2411H377.987C376.97 69.2651 376.178 69.7001 375.592 70.5671L375.538 70.6251C375.304 70.8051 375.098 71.0431 374.891 71.3121C374.692 71.5701 374.477 71.8761 374.257 72.1371C373.81 72.6681 373.246 73.1301 372.363 73.0481C371.295 73.1671 370.117 73.4601 369.16 74.0101C368.201 74.5601 367.479 75.3571 367.28 76.4861L367.202 76.6281C365.65 78.0401 363.754 79.5061 361.466 79.5321C360.902 80.5041 360.169 81.3951 359.543 82.2761C358.879 83.2091 358.315 84.1571 358.085 85.2781L358.075 85.3161C357.839 85.9461 357.578 86.5181 357.428 87.1141C357.282 87.6971 357.256 88.2681 357.482 88.8581L357.498 88.9221C357.666 90.5111 358.29 91.9571 359.061 93.3711C359.447 94.0791 359.867 94.7731 360.283 95.4741C360.594 95.9981 360.903 96.5251 361.19 97.0591L361.469 97.5951L361.492 97.6641C361.83 99.5821 362.21 101.458 363.013 103.198L363.18 103.545L363.191 103.57C363.248 103.726 363.338 103.914 363.444 104.139C363.548 104.359 363.665 104.61 363.768 104.875C363.972 105.402 364.132 106.021 364.011 106.644C363.831 108.027 363.605 109.515 363.149 110.855L363.07 110.968C362.682 111.284 362.717 111.691 362.752 112.278C362.769 112.553 362.782 112.869 362.696 113.173C362.606 113.49 362.414 113.78 362.051 114.016L361.693 113.69C361.669 113.737 361.677 113.765 361.675 113.737C361.674 113.722 361.67 113.696 361.659 113.663C361.636 113.597 361.593 113.524 361.526 113.469C361.415 113.377 361.143 113.263 360.541 113.574L360.443 113.602C359.78 113.646 359.241 113.636 358.855 113.356C358.466 113.074 358.299 112.572 358.203 111.855C357.974 111.308 357.741 110.826 357.418 110.493C357.105 110.17 356.7 109.978 356.089 110.037L355.942 110.006C355.589 109.805 355.411 109.496 355.314 109.174C355.221 108.865 355.194 108.514 355.16 108.224C355.123 107.915 355.077 107.667 354.971 107.481C354.876 107.315 354.723 107.182 354.413 107.128L354.206 106.876C354.214 106.497 354.165 106.274 354.097 106.135C354.034 106.003 353.944 105.924 353.82 105.851C353.583 105.712 353.092 105.571 352.742 105.073L352.702 104.981C352.667 104.816 352.55 104.594 352.375 104.329C352.202 104.069 351.997 103.8 351.803 103.535C351.617 103.281 351.434 103.021 351.339 102.803C351.293 102.696 351.251 102.564 351.267 102.432C351.276 102.36 351.301 102.287 351.352 102.222C351.403 102.157 351.469 102.114 351.537 102.086L351.662 102.069C351.786 102.085 351.93 102.019 352.079 101.838C352.224 101.66 352.336 101.413 352.386 101.189C352.411 101.077 352.419 100.981 352.414 100.91C352.412 100.887 352.406 100.87 352.403 100.857C352.355 100.874 352.273 100.915 352.154 101.014C352 101.173 351.855 101.293 351.714 101.368C351.568 101.446 351.41 101.487 351.252 101.451C351.092 101.415 350.976 101.31 350.901 101.193C350.827 101.079 350.783 100.942 350.755 100.805C350.701 100.529 350.706 100.195 350.749 99.8831C350.789 99.5921 350.867 99.2981 350.976 99.0691C351.032 98.4901 351.212 97.8531 351.321 97.2981C351.437 96.7021 351.481 96.1671 351.313 95.7001L351.309 95.6891C351.153 95.1751 350.76 95.0041 350.224 94.8171C349.731 94.6451 349.081 94.4551 348.762 93.8031C348.472 93.4851 348.185 93.1431 347.9 92.8111C347.604 92.4671 347.306 92.1291 346.992 91.8201C346.369 91.2101 345.696 90.7281 344.878 90.5351C344.121 90.5661 343.519 90.9691 342.848 91.4261C342.202 91.8651 341.489 92.3551 340.574 92.3971C340.226 92.5931 339.905 92.6721 339.611 92.6321C339.297 92.5881 339.054 92.4161 338.871 92.1951C338.53 91.7861 338.35 91.1611 338.232 90.6641C337.862 90.2191 337.333 90.1401 336.675 90.0681C336.033 89.9981 335.255 89.9351 334.686 89.3231L334.669 89.3031C334.532 89.1191 334.374 89.0421 334.189 89.0201C333.99 88.9951 333.755 89.0331 333.476 89.1041C333.221 89.1681 332.887 89.2731 332.599 89.3371C332.297 89.4041 331.97 89.4451 331.653 89.3821V89.3811C330.952 89.2661 330.551 89.2261 330.211 89.2751C329.88 89.3231 329.586 89.4611 329.106 89.7591L329.08 89.7721C328.713 89.9441 328.385 89.9691 328.093 89.8561C327.812 89.7481 327.606 89.5271 327.445 89.2951C327.284 89.0641 327.145 88.7881 327.017 88.5461C326.983 88.4821 326.947 88.4221 326.915 88.3631C326.894 88.4331 326.872 88.5021 326.848 88.5681C326.763 88.8031 326.65 89.0301 326.484 89.2041C326.311 89.3851 326.086 89.5011 325.804 89.5161C325.549 89.5291 325.264 89.4571 324.943 89.3101C324.266 89.3701 323.553 89.2921 322.901 89.2511C322.226 89.2091 321.603 89.2081 321.045 89.3991C320.502 89.8821 319.794 90.2301 319.075 90.2031C319.227 90.2621 319.387 90.3321 319.543 90.4101C319.823 90.5511 320.107 90.7261 320.306 90.9171C320.405 91.0121 320.497 91.1231 320.55 91.2491C320.606 91.3811 320.623 91.5361 320.553 91.6891C320.488 91.8351 320.362 91.9421 320.212 92.0221C320.073 92.0961 319.893 92.1561 319.675 92.2051C319.432 92.3681 319.401 92.5001 319.408 92.5801C319.417 92.6921 319.505 92.8461 319.706 93.0191C319.898 93.1841 320.157 93.3371 320.421 93.4541C320.621 93.5421 320.814 93.6061 320.973 93.6411L321.12 93.6661L321.212 93.6951C321.585 93.9021 321.851 94.1191 322.003 94.3391C322.159 94.5631 322.216 94.8291 322.072 95.0641C321.941 95.2771 321.69 95.3851 321.428 95.4271C321.157 95.4701 320.823 95.4541 320.451 95.3721L320.407 95.3581C320.148 95.2481 319.92 95.0911 319.711 94.9291C319.607 94.8471 319.506 94.7631 319.407 94.6801C319.307 94.5961 319.21 94.5141 319.111 94.4361C318.717 94.1231 318.317 93.8791 317.77 93.8551L317.557 93.7171C317.421 93.4451 317.261 93.3621 317.142 93.3461C317.012 93.3281 316.874 93.3801 316.775 93.4771C316.674 93.5751 316.647 93.6831 316.668 93.7591C316.684 93.8201 316.752 93.9321 316.989 94.0221L317.101 94.0591L317.282 94.2931C317.286 94.4901 317.272 94.6621 317.217 94.7931C317.188 94.8621 317.143 94.9331 317.072 94.9851C316.999 95.0391 316.916 95.0601 316.838 95.0611C316.701 95.0611 316.572 94.9971 316.479 94.9421C316.378 94.8831 316.268 94.8041 316.166 94.7301C315.946 94.5701 315.742 94.4221 315.55 94.3551C315.459 94.3231 315.387 94.3161 315.33 94.3251C315.278 94.3341 315.219 94.3581 315.156 94.4251C314.922 94.7341 314.664 94.9291 314.377 95.0181C314.085 95.1071 313.793 95.0801 313.519 95.0041C313.248 94.9281 312.976 94.7991 312.718 94.6681C312.453 94.5331 312.203 94.3981 311.948 94.2871L311.844 94.2041C311.058 93.1151 309.823 92.5691 308.57 91.8831C308.339 91.8711 308.165 91.8701 308.036 91.8751C308.105 91.9371 308.19 92.0131 308.263 92.0911C308.344 92.1771 308.434 92.2881 308.482 92.4181C308.535 92.5631 308.535 92.7331 308.426 92.8911C308.33 93.0301 308.168 93.1311 307.969 93.2101L307.89 93.2281C306.758 93.2911 305.675 93.0711 304.627 92.8211C303.577 92.5711 302.569 92.2941 301.531 92.2051C301.161 92.2591 300.787 92.2931 300.42 92.3251C300.04 92.3581 299.668 92.3901 299.304 92.4441C298.579 92.5521 297.906 92.7431 297.318 93.1791L297.25 93.2151C296.838 93.3531 296.494 93.3631 296.196 93.2811C295.901 93.2001 295.675 93.0361 295.491 92.8691C295.399 92.7871 295.314 92.6991 295.236 92.6211C295.156 92.5411 295.083 92.4701 295.01 92.4081C294.893 92.3081 294.787 92.2451 294.675 92.2181C294.626 92.2581 294.607 92.2921 294.6 92.3131C294.59 92.3431 294.587 92.3921 294.615 92.4731C294.643 92.5561 294.695 92.6521 294.769 92.7661C294.844 92.8801 294.926 92.9911 295.015 93.1171C295.1 93.2381 295.188 93.3681 295.253 93.5001C295.318 93.6301 295.372 93.7841 295.364 93.9471C295.355 94.1241 295.274 94.2821 295.126 94.4061C294.996 94.5151 294.816 94.5951 294.595 94.6581C293.668 95.3631 292.645 96.1681 291.539 96.7191C290.411 97.2801 289.173 97.5931 287.829 97.2741L287.799 97.2661C287.389 97.1141 287.119 97.0771 286.959 97.0941C286.882 97.1021 286.841 97.1221 286.822 97.1361C286.805 97.1481 286.794 97.1621 286.788 97.1851C286.77 97.2431 286.776 97.3661 286.864 97.5531C286.948 97.7321 287.091 97.9371 287.284 98.1371L287.336 98.4021C286.98 99.2971 286.227 99.5921 285.488 99.7651C285.303 99.8081 285.114 99.8451 284.93 99.8811C284.745 99.9171 284.564 99.9531 284.387 99.9941C284.033 100.078 283.714 100.183 283.445 100.352L283.377 100.381C283.207 100.426 283.098 100.467 283.033 100.5C283.044 100.51 283.056 100.522 283.072 100.534C283.152 100.595 283.259 100.661 283.383 100.738C283.503 100.812 283.638 100.896 283.758 100.985C283.876 101.072 283.999 101.179 284.082 101.307C284.169 101.442 284.219 101.617 284.152 101.808C284.093 101.974 283.956 102.11 283.781 102.229L283.621 102.367C282.89 103.023 282.4 103.815 282.503 104.746L282.535 104.948L282.54 104.988C282.604 106.799 283.469 108.473 284.261 110.161L283.973 110.509C283.622 110.42 283.282 110.273 282.961 110.122C282.633 109.968 282.33 109.814 282.02 109.692C281.412 109.453 280.849 109.364 280.245 109.695L280.045 109.714C279.229 109.443 278.471 109.025 277.734 108.646C276.988 108.262 276.256 107.913 275.456 107.742L275.352 107.693C274.536 107.044 274.036 106.168 273.671 105.256C273.321 104.379 273.079 103.421 272.818 102.603C270.49 100.765 268.853 98.2901 267.41 95.7821L267.403 95.7701V95.7691C266.58 94.1391 265.263 92.8311 263.495 92.3701L263.468 92.3611C261.917 91.7671 260.096 92.1131 259.111 93.4681L259.065 93.5161C258.833 93.7021 258.617 93.9391 258.392 94.1971C258.172 94.4501 257.939 94.7281 257.69 94.9671C257.184 95.4511 256.562 95.8201 255.682 95.6271V95.6281C253.525 95.3151 251.587 94.0211 249.876 92.8701L249.846 92.8481C249.402 92.4411 249.101 91.9431 248.864 91.4261C248.629 90.9151 248.446 90.3591 248.256 89.8531C247.869 88.8191 247.433 87.9391 246.411 87.5011L246.381 87.4861C244.525 86.3751 242.73 85.1021 241.297 83.4231C240.62 83.1921 239.881 83.1471 239.101 83.1491C238.318 83.1521 237.474 83.2001 236.677 83.1251C235.594 83.1231 234.511 83.1221 233.427 83.1201C233.422 83.3231 233.414 83.5361 233.392 83.7431C233.361 84.0351 233.303 84.3331 233.186 84.5881C233.068 84.8471 232.881 85.0751 232.59 85.1941C232.312 85.3081 231.975 85.3061 231.58 85.1951C227.578 85.1981 223.567 85.1201 219.574 84.9961L219.511 84.9861C214.078 83.3941 208.683 81.5931 203.334 79.7571L203.227 79.6861C202.486 78.8421 201.547 78.8121 200.355 78.9661L200.328 78.9681C197.492 79.0241 194.561 79.2721 191.785 79.4311L191.544 79.2871C191.425 79.0321 191.304 78.8461 191.191 78.6881C191.084 78.5371 190.959 78.3811 190.868 78.2261C190.667 77.8841 190.594 77.5101 190.704 76.8301C190.034 75.1131 188.273 73.7731 186.497 73.3671C186.424 73.4311 186.349 73.4841 186.273 73.5191C186.151 73.5731 186.014 73.5851 185.884 73.5251C185.767 73.4711 185.691 73.3741 185.641 73.2921C185.59 73.2071 185.548 73.1081 185.512 73.0151C185.435 72.8101 185.381 72.6241 185.294 72.4391C185.226 72.2931 185.153 72.1941 185.076 72.1331C183.944 72.2611 182.922 72.0261 181.875 71.5321L181.772 71.4421C181.223 70.5931 180.317 70.2561 179.334 70.3771L179.211 70.3621C178.754 70.1831 178.227 70.1671 177.668 70.1701C177.13 70.1731 176.54 70.1951 176.048 70.0491L176.016 70.0361C175.434 69.7691 175.219 69.2801 175.152 68.7671C175.119 68.5141 175.12 68.2481 175.128 67.9911C175.138 67.7241 175.154 67.4851 175.159 67.2361L175.169 67.1661C175.193 67.0891 175.187 67.0501 175.181 67.0311C175.175 67.0121 175.158 66.9851 175.115 66.9511C175.069 66.9161 175.005 66.8801 174.918 66.8411C174.826 66.7991 174.744 66.7691 174.634 66.7221C174.449 66.6431 174.191 66.5231 174.058 66.2891C173.939 66.0801 173.947 65.8391 174.053 65.5721C173.26 65.0481 172.388 64.4871 171.764 63.7321L171.749 63.7121C171.187 62.8701 170.554 62.1821 169.662 61.7241L169.566 61.6361C169.368 61.3281 169.252 61.0601 169.209 60.8121C169.165 60.5571 169.2 60.3391 169.279 60.1401C169.354 59.9491 169.471 59.7751 169.579 59.6151C169.681 59.4641 169.781 59.3161 169.871 59.1461C169.869 58.8911 169.791 58.7851 169.709 58.7251C169.594 58.6411 169.416 58.6001 169.155 58.5651C168.917 58.5341 168.605 58.5071 168.334 58.4201C168.062 58.3321 167.8 58.1751 167.628 57.8731C167.139 57.4871 166.965 57.0071 166.861 56.5361C166.75 56.0341 166.719 55.6011 166.515 55.1631L166.503 54.9821C166.562 54.7931 166.62 54.6441 166.68 54.5361C166.69 54.5181 166.702 54.4991 166.715 54.4791L166.62 54.5191C166.423 54.4101 166.205 54.3121 165.968 54.2001C165.736 54.0911 165.49 53.9721 165.262 53.8251C164.811 53.5361 164.413 53.1311 164.286 52.4761C163.903 51.8171 163.334 51.3341 162.708 50.8431C162.082 50.3521 161.392 49.8461 160.872 49.1601L160.839 48.9161C160.891 48.7891 160.891 48.6301 160.845 48.4211C160.798 48.2081 160.715 47.9861 160.628 47.7251C160.477 47.2681 160.316 46.6921 160.599 46.1501C160.364 45.5271 159.953 45.0121 159.489 44.4911C159.009 43.9541 158.464 43.3981 158.095 42.7381L158.068 42.6631C157.882 41.6761 158.248 40.7861 158.587 39.9721C158.937 39.1341 159.26 38.3711 159.151 37.5351L159.149 37.5111C159.109 36.2841 158.518 35.1711 157.949 33.9771C157.39 32.8051 156.857 31.5611 157.08 30.1601L157.098 30.0991C157.354 29.5161 157.889 29.2031 158.283 28.9241C158.694 28.6321 159.003 28.3541 159.07 27.8361L159.084 27.7821C159.138 27.6331 159.119 27.4721 159.035 27.2701C158.947 27.0571 158.811 26.8491 158.663 26.5921C158.523 26.3491 158.379 26.0691 158.332 25.7651C158.284 25.4591 158.338 25.1431 158.552 24.8241C159.241 22.5511 159.736 20.2531 159.894 17.8921C159.727 17.6841 159.645 17.4771 159.622 17.2661C159.596 17.0361 159.644 16.8221 159.689 16.6431C159.781 16.2731 159.869 15.9891 159.668 15.6091L159.804 15.4041C159.728 15.3951 159.647 15.3831 159.562 15.3751L159.342 15.1771C159.278 14.8641 159.188 14.3051 159.15 13.7391C159.131 13.4561 159.125 13.1661 159.143 12.9021C159.161 12.6431 159.202 12.3871 159.291 12.1861L159.504 12.0361C159.719 12.0231 159.874 11.9981 159.984 11.9731C159.935 11.9521 159.88 11.9321 159.823 11.9181C159.738 11.8971 159.656 11.8871 159.587 11.8891C159.515 11.8901 159.478 11.9041 159.467 11.9111C159.465 11.9131 159.469 11.9111 159.472 11.9051C159.473 11.9031 159.475 11.9021 159.475 11.9001L159.168 12.1261C158.851 12.0501 158.714 11.7801 158.648 11.5381C158.581 11.2961 158.559 10.9901 158.534 10.7121C158.507 10.4201 158.476 10.1391 158.403 9.8971C158.33 9.6581 158.223 9.48309 158.062 9.37409L157.975 9.2721C157.862 9.0281 157.694 8.77709 157.502 8.50809C157.315 8.24609 157.103 7.96209 156.925 7.67609C156.57 7.10309 156.302 6.43209 156.631 5.69509L156.788 5.55809C157.458 5.35709 158.14 5.5631 158.753 5.7721C159.315 5.9651 159.826 6.1621 160.328 6.1941L160.542 6.19809L160.603 6.2031C161 6.2871 161.415 6.30609 161.847 6.30509C162.264 6.30309 162.734 6.2801 163.165 6.2871C164.051 6.3021 164.958 6.43809 165.738 7.15009L165.804 7.24909C165.932 7.60109 165.93 7.9211 165.83 8.2101C165.732 8.4921 165.547 8.7281 165.342 8.9311C165.139 9.1321 164.9 9.3161 164.681 9.4851C164.619 9.5341 164.559 9.5821 164.501 9.6281C164.611 9.6681 164.716 9.7211 164.812 9.7761C165.071 9.9271 165.325 10.1401 165.506 10.2731C165.604 10.3461 165.682 10.3961 165.746 10.4261C165.786 10.4451 165.809 10.4481 165.819 10.4491C165.825 10.4441 165.836 10.4321 165.85 10.4061C165.884 10.3441 165.923 10.2321 165.956 10.0421L166.064 9.8751C166.924 9.3051 167.34 8.38109 167.493 7.30809C167.517 6.05709 166.942 4.72309 166.26 3.63909C165.906 3.42109 165.646 3.23809 165.486 3.08309C165.404 3.00409 165.327 2.9131 165.287 2.8131C165.24 2.6961 165.238 2.55009 165.34 2.43009C165.422 2.33409 165.54 2.29209 165.63 2.27109C165.729 2.24709 165.845 2.2351 165.971 2.2311C166.22 2.2221 166.545 2.2411 166.926 2.2761C179.604 2.3161 192.283 2.2771 204.962 2.2781L207.804 2.26209C210.646 2.25309 213.488 2.2631 216.329 2.2721C220.116 2.2851 223.903 2.29509 227.688 2.25609H227.69C246.454 2.26609 265.213 2.35709 283.975 2.33309H283.981C287.612 2.41709 291.232 2.3291 294.874 2.3261C294.808 2.2321 294.739 2.1331 294.671 2.0311C294.501 1.7771 294.327 1.4951 294.228 1.2381C294.179 1.1101 294.142 0.972102 294.142 0.837102C294.143 0.696102 294.186 0.546096 294.307 0.431096C294.424 0.320096 294.581 0.270101 294.749 0.255101C294.875 0.244101 295.022 0.251098 295.188 0.274098ZM317.847 89.7321C317.42 89.3761 317.022 89.2961 316.71 89.3861C316.419 89.4701 316.143 89.7191 315.96 90.1661C316.085 90.3351 316.221 90.4101 316.361 90.4421C316.54 90.4831 316.756 90.4601 317.014 90.3961C317.141 90.3641 317.273 90.3241 317.41 90.2821C317.544 90.2411 317.686 90.1961 317.826 90.1591C318.012 90.1091 318.212 90.0701 318.411 90.0631C318.221 89.9871 318.033 89.8811 317.851 89.7351L317.847 89.7321ZM167.124 53.6991C167.1 53.8561 167.065 54.0541 167.005 54.2761C167.179 54.2541 167.297 54.3711 167.347 54.4291C167.408 54.4991 167.462 54.5901 167.508 54.6721C167.611 54.8521 167.705 55.0361 167.829 55.1871C167.937 55.3171 168.04 55.3821 168.149 55.3971C167.996 55.1981 167.812 54.9621 167.667 54.7411C167.58 54.6101 167.5 54.4741 167.445 54.3461C167.407 54.2571 167.371 54.1501 167.366 54.0411C167.268 53.9001 167.189 53.7881 167.124 53.6991Z" fill="#718FD5" stroke="white" stroke-width="0.5" stroke-linejoin="round"/>
</svg>
