<svg width="577" height="595" viewBox="0 0 577 595" fill="none" xmlns="http://www.w3.org/2000/svg">
<path d="M153.5 540.5L146 593.5L566 515L550 433L533.5 373L504 327.5L417.5 325L413.5 273.5L446 222.5L450 179L477 148.5L453.5 115L503 81L575 44.5L314 25L249.5 1.5H160L28 28L5 106L71.5 128.5L111 157L71.5 203.5L1.5 215.5V276L44 291L67.5 306.5L81.5 323L100.5 322.5L104.5 327.5L121 335L142 340L202 380.5L259.5 402L253 438L230 493L153.5 540.5Z" fill="#72CFF4" fill-opacity="0.5" stroke="#40ADF6" stroke-opacity="0.89" stroke-width="3" stroke-linecap="round" stroke-linejoin="round"/>
</svg>
