<svg width="284" height="166" viewBox="0 0 284 166" fill="none" xmlns="http://www.w3.org/2000/svg">
<path d="M171.78 155.48C171.96 155.651 172.18 155.849 172.37 156.054C172.56 156.256 172.74 156.484 172.85 156.722C172.97 156.964 173.01 157.247 172.87 157.523C172.74 157.777 172.48 157.971 172.1 158.125C171.26 158.84 170.58 159.94 170.5 160.963C170.65 161.295 170.65 161.598 170.51 161.86C170.36 162.119 170.09 162.288 169.83 162.408C169.56 162.531 169.25 162.624 168.98 162.708C168.7 162.795 168.46 162.87 168.29 162.957L168.21 162.983C167.76 163.038 167.46 163.264 167.18 163.584C167.04 163.746 166.91 163.929 166.77 164.125C166.64 164.317 166.49 164.523 166.34 164.716L166.03 164.782C164.83 164.207 163.6 163.644 162.42 162.988L162.29 162.766C162.29 162.485 162.23 162.162 162.15 161.805C162.07 161.458 161.97 161.073 161.92 160.707C161.86 160.339 161.85 159.956 161.96 159.602C162.08 159.238 162.32 158.925 162.73 158.692L162.77 158.673C163.03 158.586 163.26 158.424 163.5 158.22C163.62 158.118 163.74 158.009 163.86 157.896C163.98 157.785 164.1 157.67 164.23 157.561C164.48 157.346 164.76 157.142 165.08 157.035C165.33 156.953 165.6 156.931 165.89 156.992C165.94 156.688 166.06 156.453 166.23 156.285C166.46 156.061 166.75 156 167.03 156.003C167.3 156.006 167.59 156.072 167.85 156.136C168.06 156.189 168.25 156.238 168.42 156.267C168.84 155.805 169.42 155.719 169.94 155.682C170.24 155.662 170.5 155.658 170.78 155.627C171.04 155.597 171.28 155.544 171.5 155.438L171.78 155.48ZM220.7 132.27C221.14 131.967 221.71 131.639 222.32 131.973C222.75 132.123 223.05 132.292 223.22 132.514C223.41 132.76 223.4 133.026 223.34 133.265C223.27 133.486 223.14 133.725 223.04 133.935C222.93 134.149 222.83 134.362 222.78 134.588C222.95 135.762 222.37 136.705 221.86 137.572C221.85 139.809 220.9 141.85 219.66 143.605L219.65 143.607C219.35 144.034 219.18 144.498 219.05 144.996C218.99 145.246 218.94 145.502 218.89 145.766C218.84 146.029 218.79 146.301 218.72 146.574L218.61 146.727C218.45 146.832 218.29 146.925 218.15 147.022L217.8 146.947C217.25 146.079 216.63 145.092 215.92 144.264L215.91 144.25C214.77 142.688 214.19 140.361 215.21 138.531L215.23 138.506C215.89 137.612 216.5 136.674 217.14 135.739C217.78 134.809 218.45 133.89 219.21 133.061L219.37 132.981C219.58 132.963 219.78 132.874 220.01 132.739C220.24 132.6 220.45 132.438 220.7 132.27Z" fill="#FD9C9C"/>
<path d="M226.77 0.483575C229.3 0.174575 232.08 -0.0354224 234.47 1.25758L234.7 1.38757L234.71 1.39057C235.58 1.94557 236.53 2.01557 237.55 1.96057C238.06 1.93257 238.56 1.87556 239.1 1.83756C239.49 1.80956 239.89 1.79156 240.29 1.80956L240.69 1.84158L240.77 1.86157C242.84 2.79857 244.04 4.79656 244.87 6.75556L245.03 7.14657C245.68 8.77657 246.54 10.3006 247.42 11.8376L247.439 11.8707C248.313 13.3909 249.195 14.9255 249.88 16.5636C250.28 17.4826 251.05 17.9676 251.99 18.2936C252.46 18.4566 252.97 18.5766 253.48 18.6916L253.621 18.7233C254.074 18.8253 254.524 18.9268 254.95 19.0546C257.17 19.3116 259.31 19.9556 261.4 20.6646L263.48 21.3866L263.6 21.4706C264.06 22.0696 264.33 22.8006 264.55 23.5226C264.78 24.2596 264.96 24.9766 265.25 25.6236L265.27 25.6866C265.36 26.2796 265.61 26.6456 265.93 26.8366C266.27 27.0296 266.73 27.0706 267.29 26.9126L267.34 26.9046C267.89 26.8666 268.44 26.8596 268.99 26.8556L269.109 26.8549C269.618 26.8523 270.118 26.8497 270.61 26.8256C271.68 26.7736 272.71 26.6206 273.67 26.1576L273.7 26.1436C276.5 25.2746 279.43 24.5536 282.4 24.5116L282.49 24.5256C283.1 24.7466 283.34 25.2996 283.44 25.8346C283.5 26.1046 283.52 26.3896 283.53 26.6526C283.55 26.9226 283.56 27.1626 283.58 27.3746L283.51 27.5776C283.24 27.8416 282.93 28.0496 282.62 28.2336C282.497 28.3089 282.368 28.3828 282.243 28.4543L282.16 28.5016C282.016 28.58 281.888 28.656 281.754 28.7355L281.71 28.7616C281.14 29.1146 280.71 29.4966 280.6 30.1416L280.59 30.1706C279.54 33.5886 277.79 36.8546 275.36 39.4996C275.05 39.8436 274.71 40.0266 274.33 40.0946C273.96 40.1606 273.59 40.1106 273.23 40.0176C272.87 39.9256 272.5 39.7836 272.17 39.6526L272.161 39.6491C271.814 39.5174 271.497 39.397 271.2 39.3296L271.14 39.3046C270.21 38.7786 269.22 38.9176 268.42 39.6246V39.6276C268.19 39.8236 267.9 39.9756 267.63 40.1106C267.35 40.2506 267.09 40.3696 266.85 40.5116C266.62 40.6516 266.44 40.7966 266.33 40.9656C266.23 41.1246 266.18 41.3236 266.23 41.6046C266.3 41.9366 266.4 42.2696 266.51 42.6106C266.61 42.9516 266.72 43.3026 266.82 43.6576C267 44.3686 267.13 45.1176 267.02 45.9066V45.9086C266.95 46.4336 266.96 46.8976 266.95 47.3916C266.93 47.8776 266.88 48.3726 266.65 48.8886L266.61 48.9526C266.07 49.5836 265.38 49.9366 264.68 50.2116C264.33 50.3476 264.06 50.4695 263.72 50.5925C263.46 50.6825 263.72 50.4244 262.649 50.8263C261.919 50.776 260.426 49.5824 260.149 49.8263C259.712 50.2116 259.484 52.0428 258.149 52.3263C256.458 52.7458 254.41 54.1764 252.649 53.3263C251.388 53.1505 251.131 54.0197 252.149 54.8263C253.46 55.9028 251.72 56.8881 250.649 56.8263C249.203 57.0267 246.862 56.7171 246.149 55.3263C244.967 55.1412 244.598 55.762 244.149 56.8263C242.47 59.6717 239.308 60.3181 236.649 61.8263C235.684 62.1863 235.554 63.4207 234.2 63.8906C233.22 64.2306 232.14 64.3266 231.12 64.4606C230.06 64.5986 229.04 64.7806 228.14 65.2886L228.11 65.3036C225.93 66.1786 223.73 66.9596 222.03 68.5156L222.02 68.5266C221.74 68.7496 221.42 68.8956 221.13 68.9736C220.85 69.0506 220.56 69.0696 220.34 69.0036C220.23 68.9696 220.11 68.9036 220.04 68.7776C219.96 68.6416 219.97 68.4916 220.02 68.3636C220.07 68.2416 220.17 68.1246 220.29 68.0126C220.41 67.9026 220.57 67.7856 220.76 67.6636C220.9 67.5196 221.14 67.3426 221.37 67.1736C221.63 66.9816 221.91 66.7836 222.11 66.5976C222.22 66.5056 222.3 66.4236 222.35 66.3546C222.37 66.3306 222.38 66.3096 222.39 66.2956C222.34 66.2766 222.26 66.2546 222.13 66.2406C221.76 66.3636 221.43 66.3706 221.17 66.2636C220.88 66.1466 220.7 65.9106 220.65 65.6366C220.54 65.1016 220.9 64.4926 221.61 64.2066C222.14 63.8376 222.57 63.3686 223.02 62.8776C223.45 62.4016 223.91 61.9066 224.5 61.5186C224.6 61.3366 224.6 61.1926 224.56 61.0656C224.5 60.9126 224.37 60.7516 224.17 60.5856C223.97 60.4206 223.72 60.2686 223.47 60.1246C223.23 59.9896 222.98 59.8546 222.8 59.7336L222.54 59.6066C221.22 59.0206 219.6 59.1606 218.73 60.3126L218.7 60.3446C218.41 60.6106 218.14 60.9146 217.85 61.2296C217.57 61.5416 217.28 61.8636 216.96 62.1476C216.32 62.7116 215.57 63.1436 214.58 63.0876C213.08 63.4136 211.64 64.2966 211.34 65.7986L211.33 65.8336C211.11 66.4626 210.63 66.8256 210.08 67.0106C209.6 67.1756 209.05 67.1996 208.56 67.1506C208.34 67.4356 208.11 67.6256 207.86 67.7216C207.58 67.8326 207.3 67.8046 207.05 67.7016C206.81 67.6016 206.59 67.4306 206.39 67.2496C206.21 67.0896 206.04 66.9066 205.87 66.7406C205.54 66.7026 205.27 66.7726 205.05 66.9076C204.81 67.0576 204.61 67.2976 204.42 67.6006C204.24 67.9046 204.08 68.2556 203.93 68.6156C203.8 68.9396 203.66 69.2756 203.51 69.5666C203.62 70.3246 204.09 70.7976 204.75 71.1376C205.44 71.4886 206.27 71.6726 207.01 71.8646C207.22 71.8896 207.47 71.8726 207.76 71.8436C208.04 71.8146 208.36 71.7736 208.65 71.7686C208.95 71.7646 209.26 71.7936 209.53 71.9256C209.78 72.0456 209.98 72.2446 210.1 72.5366L210.14 72.6676L210.15 72.7176C210.19 73.0716 210.14 73.4406 210.08 73.7916C210.02 74.1546 209.95 74.4866 209.91 74.8216C209.84 75.4576 209.9 75.9726 210.39 76.3676C211.92 76.7056 213.46 76.2426 214.62 75.1796C215.57 74.0786 217.12 73.1336 218.68 73.4156L218.83 73.4466L218.92 73.4896C219.58 73.9816 220.24 74.4876 220.95 74.8106C221.66 75.1306 222.39 75.2646 223.18 75.0306V75.0286C223.76 74.8756 224.3 74.9706 224.79 75.0836C225.3 75.1996 225.74 75.3286 226.2 75.3146L226.38 75.7486C226.27 75.8516 226.18 76.0436 226.13 76.3276C226.07 76.6086 226.05 76.9136 226.01 77.2236L226.01 77.2259C225.99 77.3751 225.97 77.5243 225.94 77.6596L225.939 77.6643C225.899 77.7968 225.859 77.9309 225.78 78.0446C225.71 78.1636 225.59 78.2676 225.43 78.3076C225.27 78.3476 225.11 78.3186 224.95 78.2536L224.93 78.2446C224.01 77.7786 223.08 77.8556 222.11 78.1296C221.62 78.2666 221.14 78.4496 220.64 78.6346C220.16 78.8136 219.66 78.9926 219.17 79.1186C218.64 79.3396 218.24 79.6116 217.99 79.9546C217.74 80.2916 217.62 80.7206 217.71 81.2986L217.62 81.5306C217.25 81.8206 216.93 81.9566 216.64 81.9126C216.34 81.8676 216.16 81.6536 216.03 81.4906C216 81.4476 215.97 81.4036 215.94 81.3626C215.91 81.3216 215.88 81.2826 215.85 81.2466C215.79 81.1726 215.74 81.1176 215.69 81.0786C215.64 81.0416 215.6 81.0196 215.55 81.0126C215.49 81.0046 215.42 81.0086 215.31 81.0486L215.29 81.0546C215.24 81.0696 215.21 81.0926 215.19 81.1186C215.17 81.1496 215.14 81.2016 215.13 81.2846C215.09 81.4656 215.1 81.6856 215.09 81.9806C215.08 82.2546 215.05 82.5746 214.92 82.8636C214.79 83.1506 214.56 83.3906 214.19 83.5396C213.65 84.1346 212.97 84.6046 212.35 85.0636C211.72 85.5356 211.14 86.0026 210.74 86.6096C210.66 86.9236 210.69 87.1126 210.75 87.2376C210.82 87.3726 210.95 87.4816 211.16 87.5876C211.37 87.6976 211.61 87.7756 211.88 87.8936C212.14 88.0026 212.42 88.1386 212.64 88.3456C213.35 88.8366 214.22 89.3336 214.92 89.9296C215.6 90.5036 216.17 91.2046 216.39 92.1646L216.42 92.3596V92.3606C216.59 93.3636 217.16 94.1246 217.92 94.8056L218.25 95.0946L218.27 95.1066C218.56 95.3836 218.65 95.7156 218.66 96.0376C218.66 96.3446 218.6 96.6686 218.55 96.9276C218.5 97.2086 218.49 97.4116 218.54 97.5646C218.57 97.6836 218.66 97.8046 218.94 97.8896C219.68 97.9476 220.08 98.4086 220.4 98.8356C220.75 99.2856 220.99 99.6626 221.41 99.8286C221.71 99.8766 221.99 100.03 222.23 100.224C222.48 100.429 222.69 100.695 222.82 100.975C222.95 101.252 223 101.577 222.88 101.872C222.74 102.175 222.45 102.371 222.03 102.455C221.79 102.51 221.63 102.564 221.53 102.611C221.5 102.627 221.48 102.643 221.46 102.653C221.49 102.693 221.54 102.748 221.62 102.821C221.77 102.963 222.04 103.175 222.25 103.401C222.44 103.617 222.63 103.893 222.65 104.232C223.03 104.769 223.07 105.396 222.81 105.866C222.54 106.353 221.98 106.61 221.28 106.454C220.43 106.651 219.68 107.091 218.88 107.53C218.08 107.966 217.22 108.394 216.22 108.482C215.81 108.597 215.58 108.7 215.46 108.775C215.54 108.82 215.68 108.875 215.87 108.93C216.12 108.997 216.43 109.055 216.76 109.1C217.02 109.132 217.3 109.069 217.61 108.95C217.92 108.828 218.22 108.666 218.57 108.508C219.17 108.226 219.89 107.967 220.6 108.365L220.74 108.454L220.8 108.516C221.42 109.397 222.26 110.044 223.29 109.914L223.57 110.126C223.63 110.491 223.51 110.784 223.32 111.015C223.13 111.236 222.87 111.405 222.64 111.546C222.39 111.695 222.18 111.812 222.02 111.944C221.98 111.973 221.95 112.001 221.92 112.028C222.12 112.049 222.28 112.089 222.42 112.16C222.53 112.219 222.62 112.299 222.69 112.403C222.75 112.507 222.78 112.622 222.79 112.736C222.8 112.955 222.73 113.195 222.64 113.428C222.54 113.664 222.4 113.925 222.26 114.198C221.78 115.143 221.67 116.207 221.5 117.25V117.263C221.4 117.735 221.22 118.063 220.89 118.149C220.74 118.19 220.6 118.164 220.48 118.126C220.36 118.088 220.24 118.03 220.14 117.979L220.102 117.96C220.009 117.914 219.929 117.875 219.85 117.847C219.77 117.814 219.71 117.805 219.67 117.808C219.64 117.811 219.6 117.822 219.56 117.866C219.51 117.917 219.45 118.016 219.39 118.198L219.35 118.282C218.28 119.549 217.48 120.978 216.99 122.553L216.84 122.71C216.36 122.903 216.04 123.245 215.71 123.648C215.4 124.04 215.07 124.515 214.61 124.861L214.42 124.909C213.95 124.843 213.36 124.931 213.03 125.147C212.87 125.251 212.8 125.363 212.79 125.476C212.78 125.597 212.83 125.791 213.07 126.068L213.12 126.21C213.17 126.75 213.03 127.296 212.92 127.797C212.8 128.313 212.71 128.801 212.79 129.3L212.78 129.4C212.61 130.119 211.98 130.367 211.54 130.574C211.3 130.685 211.11 130.785 210.96 130.923C210.82 131.051 210.72 131.218 210.69 131.48L210.68 131.54C210.28 132.623 209.77 133.756 208.51 134.197C208.37 134.5 208.2 134.728 207.99 134.886C207.76 135.062 207.5 135.137 207.23 135.152C206.97 135.167 206.7 135.126 206.44 135.069C206.2 135.017 205.92 134.943 205.68 134.885C205.43 134.91 205.34 134.999 205.29 135.086C205.23 135.203 205.21 135.383 205.23 135.637C205.24 135.759 205.26 135.887 205.27 136.021C205.29 136.153 205.31 136.292 205.32 136.426C205.34 136.679 205.35 136.978 205.21 137.214L205.15 137.285C204.6 137.728 204.03 138.234 203.43 138.638C202.83 139.035 202.16 139.347 201.37 139.436C201.17 139.568 200.97 139.706 200.77 139.847C200.55 139.998 200.33 140.153 200.1 140.3C199.7 140.559 199.28 140.801 198.82 140.981C198.84 141.256 198.81 141.499 198.73 141.713C198.63 141.981 198.46 142.184 198.23 142.332C197.81 142.613 197.23 142.692 196.65 142.694C196.43 142.747 196.25 142.854 196.06 142.988C195.96 143.057 195.87 143.131 195.77 143.207C195.68 143.281 195.58 143.359 195.48 143.428C195.27 143.565 195.02 143.681 194.73 143.675C194.44 143.668 194.13 143.544 193.8 143.292C193.56 143.151 193.37 143.143 193.21 143.188C193.03 143.239 192.85 143.362 192.64 143.535C192.44 143.697 192.21 143.916 191.97 144.08C191.73 144.24 191.46 144.37 191.13 144.388C190.73 144.597 190.4 144.658 190.13 144.531C189.862 144.407 189.732 144.136 189.651 143.969L189.65 143.966C189.6 143.868 189.57 143.789 189.52 143.722C189.48 143.658 189.44 143.62 189.4 143.597C189.34 143.563 189.2 143.521 188.83 143.696L188.72 143.721C188.52 143.716 188.31 143.775 188.08 143.875C187.84 143.977 187.62 144.102 187.37 144.229C186.9 144.464 186.32 144.7 185.74 144.302L185.66 144.204C185.53 143.922 185.37 143.709 185.22 143.57C185.06 143.427 184.94 143.383 184.87 143.381C184.85 143.38 184.83 143.386 184.82 143.392C184.82 143.399 184.79 143.418 184.78 143.469C184.74 143.577 184.72 143.79 184.79 144.14L184.8 144.192C184.8 144.694 184.78 145.338 184.57 145.859C184.47 146.125 184.3 146.371 184.06 146.55C183.82 146.73 183.51 146.826 183.13 146.821L182.98 146.768C182.79 146.623 182.65 146.544 182.55 146.506C182.46 146.469 182.41 146.477 182.4 146.482C182.38 146.488 182.35 146.504 182.31 146.558C182.27 146.615 182.23 146.695 182.19 146.803C182.11 146.996 182.01 147.299 181.84 147.523C181.75 147.643 181.64 147.753 181.48 147.826C181.34 147.895 181.17 147.921 180.98 147.906C180.69 147.931 180.4 147.99 180.08 148.056L180.032 148.066C179.736 148.13 179.423 148.198 179.11 148.239C178.5 148.319 177.86 148.295 177.26 147.905C177.1 148.001 176.94 148.125 176.79 148.267C176.6 148.438 176.39 148.65 176.17 148.821C175.96 148.997 175.71 149.158 175.41 149.233C175.12 149.308 174.8 149.295 174.45 149.166C173.91 149.088 173.38 149.211 172.86 149.431C172.33 149.656 171.83 149.966 171.35 150.243L171.14 150.262C170.81 150.142 170.59 150.105 170.44 150.114C170.3 150.122 170.21 150.168 170.14 150.246C170.05 150.336 169.97 150.471 169.87 150.675C169.77 150.865 169.66 151.108 169.51 151.367L169.47 151.497C169.44 151.622 169.45 151.736 169.51 151.85C169.58 152.018 169.73 152.189 169.93 152.375C170.03 152.466 170.13 152.557 170.23 152.65C170.34 152.742 170.45 152.837 170.55 152.932C170.74 153.118 170.94 153.337 171.02 153.59L170.97 153.832C170.67 154.182 170.09 154.546 169.52 154.711C169.23 154.794 168.92 154.832 168.64 154.777C168.36 154.722 168.1 154.57 167.94 154.291C167.44 153.651 166.99 152.853 166.81 152.022C166.63 151.18 166.73 150.294 167.37 149.528L167.38 149.517C167.47 149.422 167.5 149.342 167.51 149.281C167.52 149.222 167.52 149.163 167.49 149.102C167.42 148.971 167.26 148.832 167.03 148.741C166.8 148.651 166.55 148.625 166.36 148.673C166.18 148.717 166.05 148.822 166 149.013L165.9 149.154C165.36 149.527 164.65 149.551 164.02 149.368C163.4 149.184 162.8 148.777 162.49 148.214V148.212C162.38 147.992 162.28 147.847 162.2 147.756C162.16 147.711 162.13 147.682 162.11 147.666C162.1 147.659 162.09 147.656 162.09 147.653V147.655C162.09 147.568 162.02 147.726 161.96 147.815C161.91 147.902 161.85 148.006 161.79 148.127C161.73 148.244 161.66 148.373 161.58 148.498C161.42 148.74 161.21 149.007 160.9 149.123L160.79 149.138C160.53 149.119 160.27 149.114 160.02 149.11C159.76 149.107 159.51 149.104 159.26 149.094C158.77 149.072 158.27 149.015 157.74 148.831C155.77 148.75 153.78 147.83 152.6 146.205L152.59 146.187C152.37 145.82 152.32 145.474 152.38 145.145C152.44 144.83 152.6 144.546 152.76 144.296C152.92 144.033 153.07 143.812 153.17 143.576C153.27 143.355 153.31 143.147 153.27 142.928C153.19 142.678 153.07 142.565 152.93 142.504C152.78 142.435 152.56 142.421 152.29 142.438C152.16 142.447 152.02 142.462 151.88 142.479C151.73 142.496 151.58 142.514 151.43 142.526C151.15 142.548 150.85 142.549 150.57 142.463C149.18 142.408 147.9 141.81 146.99 140.761C146.16 141.027 145.5 141.621 144.73 142.2C143.95 142.794 143.08 143.353 141.93 143.289C141.46 143.364 140.97 143.381 140.49 143.385C140 143.389 139.52 143.382 139.05 143.412C138.12 143.472 137.29 143.676 136.62 144.367L136.51 144.434C136.16 144.536 135.84 144.464 135.55 144.335C135.27 144.21 135.01 144.018 134.77 143.861C134.27 143.527 133.88 143.328 133.41 143.574L133.32 143.6C133.05 143.64 132.77 143.736 132.49 143.854C132.36 143.914 132.22 143.977 132.08 144.041C131.94 144.104 131.8 144.168 131.66 144.225L131.65 144.229C131.14 144.411 130.56 144.657 130.18 145.001C130 145.17 129.87 145.351 129.82 145.549C129.77 145.742 129.78 145.977 129.91 146.267L129.93 146.332C129.97 146.57 130.07 146.824 130.2 147.105C130.32 147.374 130.48 147.682 130.59 147.975C130.71 148.274 130.8 148.597 130.79 148.927C130.78 149.265 130.66 149.595 130.38 149.903L130.35 149.935C129.86 150.302 129.21 150.362 128.62 150.238C128.02 150.114 127.44 149.796 127.07 149.343L127.04 149.291C126.9 148.984 126.78 148.74 126.67 148.556C126.55 148.369 126.46 148.284 126.39 148.251C126.34 148.226 126.26 148.214 126.11 148.287C125.95 148.364 125.74 148.523 125.46 148.8L125.4 148.845C124.83 149.13 124.15 149.213 123.54 149.056C122.94 148.899 122.41 148.498 122.17 147.82L121.86 147.102C121.75 146.869 121.62 146.649 121.48 146.471C121.34 146.298 121.19 146.185 121.03 146.136C120.87 146.087 120.67 146.089 120.41 146.202L120.39 146.209C119.71 146.447 119.01 146.248 118.63 145.803C118.43 145.578 118.32 145.291 118.32 144.974C118.33 144.672 118.46 144.363 118.7 144.074C118.78 143.818 118.9 143.571 119.02 143.337C119.16 143.072 119.29 142.856 119.41 142.604C119.63 142.167 119.78 141.763 119.75 141.347C119.6 141.288 119.41 141.268 119.2 141.272C119.07 141.275 118.94 141.286 118.79 141.299L118.779 141.3C118.651 141.311 118.506 141.325 118.37 141.332C118.1 141.345 117.79 141.332 117.53 141.179C117.27 141.017 117.11 140.736 117.05 140.332L116.96 139.869C116.88 139.4 116.83 138.915 116.77 138.46C116.7 137.884 116.61 137.347 116.42 136.876C115.58 136.665 114.47 136.852 113.59 137.147C113.43 137.227 113.21 137.361 112.94 137.514C112.67 137.666 112.36 137.829 112.07 137.935C111.79 138.036 111.46 138.111 111.19 138C110.87 137.869 110.74 137.543 110.76 137.136L110.8 137C111.15 136.495 111.18 135.969 111.09 135.388C111.04 135.094 110.97 134.797 110.9 134.481C110.83 134.17 110.76 133.844 110.73 133.514L110.77 133.347C111.53 132.258 112.31 130.992 113.69 130.404C115.11 129.391 115.98 127.649 116.32 125.95C116.27 124.337 116.19 122.637 115.79 121.15C115.65 121.117 115.48 121.102 115.29 121.091C115.05 121.076 114.76 121.068 114.5 121.022C114.24 120.976 113.97 120.886 113.75 120.683C113.53 120.477 113.41 120.182 113.38 119.788L113.35 119.545C113.14 118.352 112.32 117.267 111.17 117.042C110.99 117.104 110.85 117.203 110.71 117.323C110.64 117.39 110.57 117.462 110.49 117.538C110.42 117.612 110.34 117.691 110.26 117.764C110.1 117.91 109.89 118.048 109.62 118.085C109.36 118.12 109.07 118.055 108.73 117.882C108.16 117.675 107.55 117.589 106.92 117.502L106.865 117.494C106.252 117.41 105.612 117.323 105.01 117.113L104.86 116.772C104.97 116.532 105.14 116.289 105.3 116.066C105.46 115.834 105.62 115.62 105.72 115.41C105.82 115.201 105.87 115.027 105.84 114.877C105.82 114.735 105.73 114.569 105.48 114.387V114.386C105.25 114.24 105.04 114.018 104.85 113.798C104.64 113.561 104.45 113.329 104.25 113.122C104.05 112.916 103.87 112.772 103.71 112.708C103.56 112.651 103.41 112.653 103.24 112.766L103.22 112.781C102.92 112.931 102.61 113.135 102.29 113.353L102.28 113.359C101.963 113.572 101.626 113.798 101.28 113.978C100.59 114.34 99.8001 114.531 98.9501 114.057C98.6801 113.991 98.4201 113.888 98.1801 113.788C97.9301 113.68 97.6901 113.579 97.4601 113.51C97.2401 113.442 97.0301 113.411 96.8301 113.438C96.6401 113.465 96.44 113.548 96.23 113.734L96.1801 113.767C95.4101 114.177 94.7201 114.685 93.9401 115.163C93.2001 115.623 92.4 116.03 91.47 116.191C90.96 116.474 90.5001 116.855 90.0601 117.278C89.8301 117.494 89.6 117.719 89.38 117.946C89.15 118.173 88.9201 118.402 88.6901 118.623C87.7601 119.501 86.71 120.28 85.24 120.312C84.58 120.45 84.0301 120.514 83.5701 120.332C83.1101 120.148 82.79 119.742 82.52 119.107C81.7617 118.667 80.8616 118.691 79.8565 118.717L79.77 118.72C78.75 118.746 77.6301 118.757 76.7001 118.054L76.66 118.011C76.44 117.74 76.22 117.639 76.02 117.623C75.8 117.606 75.55 117.678 75.28 117.825C74.74 118.123 74.22 118.65 73.77 119.034C73.21 119.558 72.72 120.153 72.23 120.77C71.75 121.383 71.27 122.027 70.75 122.626L70.34 122.588C70 122.011 69.94 121.392 69.92 120.811C69.91 120.239 69.94 119.737 69.87 119.253C69.72 119.097 69.55 119.045 69.37 119.043C69.15 119.041 68.91 119.111 68.62 119.206C68.35 119.296 68.0301 119.408 67.7101 119.447C67.4201 119.483 67.1101 119.456 66.8101 119.289C65.8601 119.523 65.03 119.636 63.87 119.59C63.2154 119.693 62.7422 119.285 62.3571 118.953L62.3301 118.93C61.9001 118.564 61.5501 118.272 61.0601 118.296C60.8901 118.32 60.73 118.403 60.55 118.522C60.46 118.584 60.38 118.646 60.28 118.715C60.19 118.781 60.09 118.85 59.99 118.908C59.78 119.027 59.52 119.11 59.22 119.045C58.99 118.995 58.76 118.864 58.52 118.645C58.49 118.681 58.4601 118.72 58.4301 118.756C58.3401 118.865 58.2 119.013 58.03 119.081C57.94 119.118 57.8301 119.136 57.7101 119.103C57.6001 119.072 57.5101 119.001 57.4301 118.911C57.2901 118.745 57.1801 118.476 57.0701 118.096C56.9301 117.849 56.77 117.698 56.6 117.601C56.43 117.501 56.23 117.45 56.01 117.428C55.7925 117.406 55.566 117.411 55.3136 117.417L55.27 117.418C55.01 117.423 54.7401 117.425 54.4601 117.394C54.2301 117.451 54.04 117.468 53.87 117.428C53.68 117.38 53.54 117.261 53.47 117.101C53.4 116.957 53.39 116.794 53.4 116.656C53.4 116.515 53.4301 116.367 53.4501 116.24C53.4701 116.105 53.49 115.997 53.49 115.909V115.897C53.41 115.926 53.28 115.985 53.1 116.1C52.79 116.292 52.4801 116.309 52.1801 116.227C51.9001 116.149 51.62 115.981 51.37 115.803C51.24 115.712 51.12 115.614 50.99 115.519C50.87 115.424 50.75 115.332 50.63 115.245C50.39 115.069 50.1701 114.935 49.9601 114.871L49.9401 114.862C49.6401 114.733 49.5 114.462 49.41 114.215C49.37 114.088 49.3401 113.953 49.3101 113.827C49.2801 113.697 49.25 113.576 49.22 113.46C49.15 113.22 49.08 113.062 48.97 112.972C48.88 112.896 48.73 112.833 48.4 112.902L48.3616 112.913C48.0761 113 47.8094 113.081 47.5701 113.132C47.3201 113.185 47.08 113.211 46.84 113.168C46.34 113.078 45.98 112.709 45.62 112.03C45.47 111.767 45.31 111.621 45.15 111.532C44.99 111.441 44.82 111.399 44.61 111.371C44.22 111.318 43.67 111.325 43.15 110.982L43.11 110.949C42.21 110.049 41.16 109.456 39.92 109.227L39.72 108.952C39.76 108.608 39.71 108.383 39.62 108.231C39.54 108.081 39.4001 107.971 39.2101 107.887C39.0101 107.8 38.77 107.746 38.5 107.703C38.36 107.681 38.2201 107.663 38.0801 107.644C37.9401 107.626 37.8 107.608 37.66 107.586C37.38 107.574 37.19 107.616 37.05 107.684C36.91 107.753 36.8001 107.859 36.6901 108.008C36.5801 108.162 36.48 108.346 36.36 108.574C36.24 108.797 36.1 109.048 35.91 109.306L35.77 109.401C35.42 109.491 35.13 109.408 34.89 109.238C34.66 109.079 34.4801 108.841 34.3201 108.622L34.3087 108.606C34.1429 108.382 33.986 108.17 33.8101 107.995C33.6401 107.82 33.45 107.7 33.23 107.656L33.09 107.572C33 107.472 32.83 107.394 32.54 107.334C32.4 107.305 32.25 107.283 32.1 107.261C31.94 107.239 31.78 107.216 31.63 107.187C31.48 107.159 31.3301 107.123 31.1901 107.069C31.0601 107.016 30.9201 106.94 30.8201 106.823C30.6401 106.611 30.62 106.342 30.72 106.044C30.5601 105.954 30.4003 105.85 30.2404 105.745L30.2101 105.726C29.9701 105.564 29.73 105.402 29.49 105.27C29.01 105.005 28.58 104.901 28.17 105.129L27.87 105.086C27.67 104.884 27.48 104.671 27.29 104.461C27.11 104.249 26.93 104.042 26.74 103.843C26.42 103.499 26.0901 103.192 25.7101 102.961C25.5101 103.208 25.27 103.359 25.01 103.417C24.7 103.487 24.4 103.412 24.17 103.243C23.95 103.074 23.79 102.805 23.8 102.494C23.81 102.255 23.91 102.019 24.11 101.804C23.72 101.359 23.75 100.827 23.74 100.438C23.73 100.2 23.71 100.012 23.63 99.8496C23.55 99.6996 23.41 99.5476 23.12 99.4166L23.03 99.3556C22.62 98.9036 22.3501 98.2686 22.4301 97.7346C22.4601 97.4566 22.6 97.1986 22.86 97.0316C23.12 96.8696 23.46 96.8146 23.87 96.8636C24 96.8666 24.1101 96.9206 24.1901 96.9836C24.2801 97.0536 24.36 97.1456 24.42 97.2336C24.49 97.3236 24.56 97.4266 24.62 97.5216C24.68 97.6196 24.7501 97.7136 24.8201 97.7996C24.9601 97.9766 25.0801 98.0796 25.2101 98.1116C25.3201 98.1396 25.49 98.1266 25.76 97.9166C25.96 97.7196 26.23 97.5556 26.47 97.4116C26.73 97.2566 26.97 97.1236 27.14 96.9806C27.32 96.8366 27.38 96.7236 27.39 96.6256C27.39 96.5256 27.3401 96.3516 27.0601 96.0746L26.98 95.8636C27.03 95.5106 27.0001 95.2956 26.9501 95.1566C26.9001 95.0266 26.8201 94.9396 26.6901 94.8596C26.5501 94.7696 26.4001 94.7076 26.1801 94.5996C25.9801 94.5026 25.76 94.3796 25.55 94.1876C25.42 94.1026 25.2201 94.0486 24.9601 94.0036C24.7201 93.9616 24.41 93.9256 24.15 93.8656C23.88 93.8046 23.59 93.7056 23.39 93.4996C23.17 93.2866 23.07 92.9926 23.1 92.6156C23.07 92.3686 23.03 92.0806 23 91.8186C22.97 91.5426 22.96 91.2566 23 90.9856C23.04 90.7116 23.1401 90.4446 23.3301 90.2146C23.4601 90.0576 23.63 89.9266 23.84 89.8236C23.2 89.0386 22.41 88.5376 21.4 88.6016L21.23 88.5496C20.8 88.2106 20.56 87.6626 20.36 87.1446C20.16 86.6006 20.01 86.0826 19.76 85.6736L19.73 85.5526C19.72 85.1466 19.68 84.8956 19.63 84.7366C19.58 84.5916 19.5201 84.5366 19.4501 84.5016C19.3601 84.4556 19.23 84.4306 19.01 84.4006L18.9746 84.3961C18.7613 84.369 18.5031 84.3363 18.2001 84.2606L18.17 84.2506C17.85 84.1246 17.5 84.0676 17.13 84.0376C16.94 84.0226 16.7501 84.0146 16.5601 84.0066L16.5274 84.0052C16.3472 83.9976 16.1586 83.9897 15.97 83.9756C15.19 83.9186 14.38 83.7556 13.79 82.9946L13.77 82.9786C13.63 82.7626 13.4801 82.6376 13.3301 82.5656C13.1801 82.4926 13.0201 82.4656 12.8301 82.4666C12.6501 82.4676 12.45 82.4976 12.23 82.5366C12.02 82.5746 11.7901 82.6216 11.5601 82.6406L11.3201 82.5256C11.1901 82.3166 11.0101 82.1546 10.8201 82.0086C10.7301 81.9336 10.63 81.8686 10.54 81.7986C10.44 81.7306 10.35 81.6586 10.27 81.5816C10.1 81.4246 9.96001 81.2066 10.01 80.9096C10.06 80.6666 10.23 80.4216 10.51 80.1486C10.6 79.6596 10.41 79.1476 10.05 78.7726C9.67005 78.3896 9.16003 78.1846 8.66003 78.2866C8.30003 78.4676 8 78.5436 7.75 78.4226C7.62 78.3596 7.53999 78.2576 7.48999 78.1626C7.42999 78.0706 7.39999 77.9666 7.35999 77.8826C7.29999 77.6936 7.24002 77.5656 7.15002 77.4796C7.07002 77.4096 6.91006 77.3356 6.56006 77.3866L6.55005 77.3876C6.02005 77.4396 5.58002 77.4906 5.15002 77.4476C4.71002 77.4036 4.29003 77.2606 3.78003 76.9496L3.69006 76.8596C3.61006 76.7186 3.55006 76.5696 3.56006 76.4216C3.57006 76.2486 3.67005 76.1276 3.80005 76.0566C3.91005 75.9946 4.04002 75.9666 4.15002 75.9516C4.28002 75.9356 4.41005 75.9286 4.55005 75.9246C4.82005 75.9146 5.09998 75.9086 5.34998 75.8576C5.58998 75.8076 5.74997 75.7216 5.83997 75.5926C6.06997 75.1686 6.21999 74.7896 6.23999 74.4336C6.24999 74.0876 6.14997 73.7416 5.83997 73.3786L5.81006 73.1066C5.93006 72.8666 5.96007 72.6796 5.95007 72.5186C5.95007 72.3556 5.90008 72.2006 5.83008 72.0246C5.69008 71.6926 5.43002 71.2656 5.40002 70.6716C5.32002 70.3896 5.19003 70.2136 5.03003 70.0956C4.86003 69.9706 4.65001 69.8966 4.39001 69.8476C4.14001 69.7996 3.86006 69.7816 3.56006 69.7576C3.32006 69.7376 3.07008 69.7096 2.83008 69.6546C2.34008 70.0936 1.72998 70.1446 1.22998 69.9206C0.69998 69.6826 0.29 69.1436 0.25 68.4676L0.310059 68.2816C0.650059 67.9076 0.680024 67.4046 0.650024 66.7636C0.620024 66.1716 0.53002 65.4496 0.77002 64.8126C0.82002 63.7546 1.50002 63.1796 2.27002 62.7756C2.65002 62.5726 3.07997 62.4026 3.46997 62.2366C3.85997 62.0676 4.23002 61.9006 4.52002 61.6996L4.58008 61.6726C5.35008 61.3896 6.06999 61.0066 6.85999 60.6536C7.63999 60.3066 8.45007 59.9996 9.32007 59.9116L9.58997 60.1206C9.67997 60.6986 9.92998 61.0676 10.23 61.2316C10.53 61.3916 10.95 61.3956 11.5 61.0856L11.6 61.0546C12.16 60.9966 12.7201 60.9556 13.1901 60.7836C13.6501 60.6176 14 60.3396 14.17 59.8076L14.1901 59.7606L14.2145 59.7175C14.4915 59.2295 14.8542 58.5904 15.3301 58.1456C15.5701 57.9136 15.8601 57.7216 16.2001 57.6366C16.5301 57.5506 16.89 57.5756 17.27 57.7396C19.27 58.3736 21.67 58.1246 22.91 56.3936L22.92 56.3886C23.69 55.3616 24.78 54.8746 25.91 54.5576C26.48 54.3996 27.06 54.2826 27.63 54.1636C28.2 54.0436 28.75 53.9236 29.27 53.7596L29.34 53.7476C29.83 53.7306 30.3001 53.5656 30.5701 53.3016C30.7101 53.1726 30.7901 53.0246 30.8201 52.8576C30.8401 52.6906 30.8201 52.4826 30.6901 52.2266L30.67 52.1816C30.51 51.5966 30.41 50.9376 30.52 50.3276C30.62 49.7126 30.9301 49.1466 31.5701 48.7696C32.0101 48.4576 32.49 48.1346 32.8 47.7486C32.94 47.5606 33.0401 47.3736 33.0601 47.1816C33.0801 46.9966 33.05 46.7816 32.9 46.5296C32.16 45.4386 31.23 44.1886 31.5 42.6416L31.51 42.6106C31.69 42.0436 31.54 41.6856 31.29 41.4956C31.01 41.2916 30.56 41.2236 30.03 41.4056L29.8301 41.3896C29.4801 41.2026 29.29 40.9286 29.29 40.6026C29.29 40.3036 29.45 40.0226 29.65 39.7996C29.86 39.5706 30.13 39.3706 30.4 39.2296C30.67 39.0956 30.96 39.0046 31.23 39.0126C32.2806 38.9124 33.3312 38.727 34.4003 38.5384L34.49 38.5226C35.58 38.3296 36.68 38.1366 37.77 38.0426L37.85 38.0506C38.19 38.1426 38.55 38.2606 38.89 38.3726C39.24 38.4856 39.5901 38.5926 39.9401 38.6726C40.6301 38.8306 41.29 38.8696 41.89 38.6266C42.19 38.4866 42.2801 38.3456 42.3101 38.2416C42.3301 38.1306 42.3101 37.9836 42.1901 37.7986C41.9601 37.4236 41.48 37.0426 41.11 36.8106L41 36.6606C40.86 36.1166 41.0801 35.5396 41.3301 35.0346C41.4601 34.7766 41.61 34.5166 41.75 34.2756C41.89 34.0306 42.01 33.8026 42.1 33.5926L42.12 33.5536C42.57 32.8566 42.87 32.0766 43.23 31.2766C43.58 30.4896 44.0001 29.6986 44.6801 29.0626L44.9 29.0026C48.29 29.7486 51.7101 30.7946 55.0701 29.9496C55.5401 29.6706 55.87 29.2796 56.01 28.8486C56.16 28.4146 56.1201 27.9256 55.8301 27.4406L55.8101 27.3876C55.4501 26.2576 55.41 24.8926 56.48 24.0106C57.18 23.3866 58.09 23.3806 58.88 23.3576C59.67 23.3346 60.34 23.2956 60.86 22.8436C60.84 22.3496 60.8801 21.7876 61.0801 21.3256C61.1901 21.0706 61.35 20.8376 61.59 20.6676C61.83 20.5016 62.12 20.4056 62.47 20.3896C63.1026 20.2057 63.7451 20.2026 64.3587 20.1997L64.38 20.1996C65.02 20.1966 65.61 20.1936 66.17 20.0256L66.25 20.0656V20.0546C66.42 19.8016 66.71 19.6556 67.11 19.5876C67.95 18.9796 68.89 18.7366 69.84 18.6126C70.3045 18.5516 70.7691 18.5187 71.2336 18.4859L71.28 18.4826C71.76 18.4496 72.22 18.4146 72.67 18.3516C74.02 18.0576 75.1301 17.2726 76.3201 16.4656C77.4801 15.6696 78.7001 14.8546 80.2101 14.6156C80.8501 14.4476 81.5 14.2346 82.15 14.0156L82.2666 13.9769C82.8889 13.7702 83.5194 13.5609 84.15 13.3896C85.5 13.0286 86.9 12.8336 88.34 13.1946C89.53 13.4396 90.74 13.5396 91.97 13.6176C93.19 13.6956 94.43 13.7516 95.66 13.9136L95.79 13.9706C96.08 14.2136 96.3401 14.5086 96.5801 14.8016C96.8201 15.0986 97.05 15.3896 97.3 15.6536C97.75 16.1436 98.22 16.4886 98.86 16.5106H99L99.1701 16.5144C101.045 16.5571 102.937 16.6002 104.82 16.7196C106.48 16.5876 108.06 17.0266 109.56 17.4766C111.28 17.4886 113.01 16.5046 114.14 15.2496C114.34 14.9766 114.37 14.7896 114.35 14.6506C114.32 14.4986 114.22 14.3486 114.05 14.1696C113.97 14.0816 113.88 13.9936 113.77 13.8986C113.68 13.8056 113.57 13.7066 113.47 13.6006C113.29 13.4046 113.1 13.1696 113.02 12.8796C112.52 12.3086 112.45 11.7016 112.66 11.1476C112.86 10.6086 113.33 10.1496 113.84 9.81457C114.9 8.77757 116.17 7.95657 117.29 7.07357L117.5 7.02757C118.78 7.35157 120.09 7.52758 121.41 7.70358L121.504 7.71608C122.783 7.88695 124.081 8.06023 125.36 8.37457C126.59 8.51557 127.74 8.89357 128.87 9.26557L128.94 9.28863C130.065 9.65753 131.154 10.0145 132.3 10.1556L132.47 10.2616C132.65 10.5166 132.74 10.8036 132.79 11.0826C132.84 11.3546 132.86 11.6526 132.9 11.9076C132.95 12.3746 133.04 12.7616 133.34 13.0526L133.48 13.1706L133.53 13.2236C134.09 13.9796 134.88 14.4066 135.77 14.7196C136.22 14.8756 136.68 15.0016 137.15 15.1266C137.62 15.2486 138.09 15.3706 138.54 15.5196C139.45 15.6996 140.36 15.5596 141.3 15.3326C142.22 15.1096 143.21 14.7936 144.18 14.6716L144.67 14.5916C145.8 14.4256 146.95 14.4046 148.08 14.4326C148.708 14.449 149.337 14.4794 149.956 14.5095L150.02 14.5126L150.152 14.5186C150.436 14.5315 150.713 14.5442 150.99 14.5546L151.94 14.5826L151.99 14.5886C153.38 14.9046 154.59 15.6346 155.76 16.3086C156.95 16.9906 158.11 17.6186 159.44 17.8056L159.51 17.8246C160.94 18.4456 162.35 18.9946 163.89 19.1476L163.94 19.1596C167.235 20.231 170.725 19.9543 174.189 19.6798L174.33 19.6686C176.77 19.3526 179.2 19.2956 181.51 18.6276C182.373 18.3335 183.091 17.781 183.844 17.2017L183.89 17.1666C184.65 16.5876 185.46 15.9916 186.47 15.7176C187.93 14.9776 189.71 14.9356 191.23 15.4256L191.54 15.5306L191.61 15.5726C193.08 16.7996 195.11 17.4226 196.89 16.7136L196.92 16.7046C197.43 16.5636 198.01 16.4396 198.58 16.4266C199.15 16.4136 199.74 16.5116 200.24 16.8306L200.25 16.9096C200.31 16.9046 200.37 16.9026 200.43 16.9066C200.72 16.9256 201.01 17.0476 201.27 17.1856C201.54 17.3246 201.81 17.5026 202.05 17.6436C202.24 17.7556 202.41 17.8476 202.56 17.9066L202.71 17.9546L202.78 17.9886C203.5 18.4646 204.28 18.4156 205.13 18.1786C205.56 18.0596 205.99 17.8976 206.43 17.7406C206.86 17.5886 207.3 17.4406 207.73 17.3566C208.07 17.2366 208.43 17.1296 208.79 17.0246L208.796 17.0227C209.164 16.9164 209.522 16.8129 209.87 16.6976C210.57 16.4686 211.22 16.1986 211.76 15.7996C211.82 15.7066 211.85 15.6316 211.86 15.5686C211.87 15.5006 211.85 15.4306 211.82 15.3506C211.75 15.1776 211.59 15.0076 211.4 14.7926C211.23 14.6016 211.02 14.3566 210.95 14.0776C210.91 13.9266 210.91 13.7656 210.97 13.5996C211.03 13.4426 211.15 13.2966 211.3 13.1586L211.64 12.8056C211.961 12.4639 212.264 12.0973 212.574 11.7218L212.63 11.6546C213.06 11.1256 213.49 10.5756 213.95 10.0606C214.86 9.02857 215.91 8.10557 217.36 7.69557L217.4 7.68757C217.92 7.62657 218.26 7.32257 218.46 6.90957C218.65 6.50057 218.68 5.98957 218.56 5.53057C218.19 5.00757 217.64 4.83057 216.99 4.80457C216.65 4.79257 216.3 4.82057 215.94 4.85757C215.59 4.89457 215.22 4.94258 214.89 4.96458L214.65 4.59657C215.04 3.87157 215.68 3.38957 216.34 2.98057C217.01 2.56057 217.68 2.22757 218.23 1.77157L218.3 1.73057C219.67 1.19857 221.11 1.02557 222.54 0.915567C223.97 0.804567 225.38 0.757566 226.75 0.486566L226.77 0.483575Z" fill="#FD9C9C"/>
<path d="M247.42 11.8376C246.54 10.3006 245.68 8.77657 245.03 7.14657L244.87 6.75556C244.04 4.79656 242.84 2.79857 240.77 1.86157L240.69 1.84158L240.29 1.80956C239.89 1.79156 239.49 1.80956 239.1 1.83756C238.56 1.87556 238.06 1.93257 237.55 1.96057C236.53 2.01557 235.58 1.94557 234.71 1.39057L234.7 1.38757L234.47 1.25758C232.08 -0.0354224 229.3 0.174575 226.77 0.483575L226.75 0.486566C225.38 0.757566 223.97 0.804567 222.54 0.915567C221.11 1.02557 219.67 1.19857 218.3 1.73057L218.23 1.77157C217.68 2.22757 217.01 2.56057 216.34 2.98057C215.68 3.38957 215.04 3.87157 214.65 4.59657L214.89 4.96458C215.22 4.94258 215.59 4.89457 215.94 4.85757C216.3 4.82057 216.65 4.79257 216.99 4.80457C217.64 4.83057 218.19 5.00757 218.56 5.53057C218.68 5.98957 218.65 6.50057 218.46 6.90957C218.26 7.32257 217.92 7.62657 217.4 7.68757L217.36 7.69557C215.91 8.10557 214.86 9.02857 213.95 10.0606C213.49 10.5756 213.06 11.1256 212.63 11.6546M247.42 11.8376L247.439 11.8707M247.42 11.8376C247.426 11.8486 247.433 11.8597 247.439 11.8707M253.48 18.6916C252.97 18.5766 252.46 18.4566 251.99 18.2936C251.05 17.9676 250.28 17.4826 249.88 16.5636C249.195 14.9255 248.313 13.3909 247.439 11.8707M253.48 18.6916L253.621 18.7233M253.48 18.6916C253.527 18.7022 253.574 18.7127 253.621 18.7233M268.99 26.8556C268.44 26.8596 267.89 26.8666 267.34 26.9046L267.29 26.9126C266.73 27.0706 266.27 27.0296 265.93 26.8366C265.61 26.6456 265.36 26.2796 265.27 25.6866L265.25 25.6236C264.96 24.9766 264.78 24.2596 264.55 23.5226C264.33 22.8006 264.06 22.0696 263.6 21.4706L263.48 21.3866L261.4 20.6646C259.31 19.9556 257.17 19.3116 254.95 19.0546C254.524 18.9268 254.074 18.8253 253.621 18.7233M268.99 26.8556L269.109 26.8549M268.99 26.8556C269.03 26.8554 269.069 26.8551 269.109 26.8549M282.16 28.5016L282.243 28.4543M282.16 28.5016C282.016 28.58 281.888 28.656 281.754 28.7355M282.16 28.5016C282.187 28.4859 282.215 28.4702 282.243 28.4543M281.71 28.7616C281.14 29.1146 280.71 29.4966 280.6 30.1416L280.59 30.1706C279.54 33.5886 277.79 36.8546 275.36 39.4996C275.05 39.8436 274.71 40.0266 274.33 40.0946C273.96 40.1606 273.59 40.1106 273.23 40.0176C272.87 39.9256 272.5 39.7836 272.17 39.6526M281.71 28.7616L281.754 28.7355M281.71 28.7616C281.725 28.7528 281.739 28.7441 281.754 28.7355M272.17 39.6526L272.161 39.6491M272.17 39.6526C272.167 39.6514 272.164 39.6502 272.161 39.6491M220.14 117.979C220.24 118.03 220.36 118.088 220.48 118.126C220.6 118.164 220.74 118.19 220.89 118.149C221.22 118.063 221.4 117.735 221.5 117.263V117.25C221.67 116.207 221.78 115.143 222.26 114.198C222.4 113.925 222.54 113.664 222.64 113.428C222.73 113.195 222.8 112.955 222.79 112.736C222.78 112.622 222.75 112.507 222.69 112.403C222.62 112.299 222.53 112.219 222.42 112.16C222.28 112.089 222.12 112.049 221.92 112.028C221.95 112.001 221.98 111.973 222.02 111.944C222.18 111.812 222.39 111.695 222.64 111.546C222.87 111.405 223.13 111.236 223.32 111.015C223.51 110.784 223.63 110.491 223.57 110.126L223.29 109.914C222.26 110.044 221.42 109.397 220.8 108.516L220.74 108.454L220.6 108.365C219.89 107.967 219.17 108.226 218.57 108.508C218.22 108.666 217.92 108.828 217.61 108.95C217.3 109.069 217.02 109.132 216.76 109.1C216.43 109.055 216.12 108.997 215.87 108.93C215.68 108.875 215.54 108.82 215.46 108.775C215.58 108.7 215.81 108.597 216.22 108.482C217.22 108.394 218.08 107.966 218.88 107.53C219.68 107.091 220.43 106.651 221.28 106.454C221.98 106.61 222.54 106.353 222.81 105.866C223.07 105.396 223.03 104.769 222.65 104.232C222.63 103.893 222.44 103.617 222.25 103.401C222.04 103.175 221.77 102.963 221.62 102.821C221.54 102.748 221.49 102.693 221.46 102.653C221.48 102.643 221.5 102.627 221.53 102.611C221.63 102.564 221.79 102.51 222.03 102.455C222.45 102.371 222.74 102.175 222.88 101.872C223 101.577 222.95 101.252 222.82 100.975C222.69 100.695 222.48 100.429 222.23 100.224C221.99 100.03 221.71 99.8766 221.41 99.8286C220.99 99.6626 220.75 99.2856 220.4 98.8356C220.08 98.4086 219.68 97.9476 218.94 97.8896C218.66 97.8046 218.57 97.6836 218.54 97.5646C218.49 97.4116 218.5 97.2086 218.55 96.9276C218.6 96.6686 218.66 96.3446 218.66 96.0376C218.65 95.7156 218.56 95.3836 218.27 95.1066L218.25 95.0946L217.92 94.8056C217.16 94.1246 216.59 93.3636 216.42 92.3606V92.3596L216.39 92.1646C216.17 91.2046 215.6 90.5036 214.92 89.9296C214.22 89.3336 213.35 88.8366 212.64 88.3456C212.42 88.1386 212.14 88.0026 211.88 87.8936C211.61 87.7756 211.37 87.6976 211.16 87.5876C210.95 87.4816 210.82 87.3726 210.75 87.2376C210.69 87.1126 210.66 86.9236 210.74 86.6096C211.14 86.0026 211.72 85.5356 212.35 85.0636C212.97 84.6046 213.65 84.1346 214.19 83.5396C214.56 83.3906 214.79 83.1506 214.92 82.8636C215.05 82.5746 215.08 82.2546 215.09 81.9806C215.1 81.6856 215.09 81.4656 215.13 81.2846C215.14 81.2016 215.17 81.1496 215.19 81.1186C215.21 81.0926 215.24 81.0696 215.29 81.0546L215.31 81.0486C215.42 81.0086 215.49 81.0046 215.55 81.0126C215.6 81.0196 215.64 81.0416 215.69 81.0786C215.74 81.1176 215.79 81.1726 215.85 81.2466C215.88 81.2826 215.91 81.3216 215.94 81.3626C215.97 81.4036 216 81.4476 216.03 81.4906C216.16 81.6536 216.34 81.8676 216.64 81.9126C216.93 81.9566 217.25 81.8206 217.62 81.5306L217.71 81.2986C217.62 80.7206 217.74 80.2916 217.99 79.9546C218.24 79.6116 218.64 79.3396 219.17 79.1186C219.66 78.9926 220.16 78.8136 220.64 78.6346C221.14 78.4496 221.62 78.2666 222.11 78.1296C223.08 77.8556 224.01 77.7786 224.93 78.2446L224.95 78.2536C225.11 78.3186 225.27 78.3476 225.43 78.3076C225.59 78.2676 225.71 78.1636 225.78 78.0446C225.859 77.9309 225.899 77.7968 225.939 77.6643L225.94 77.6596C225.97 77.5243 225.99 77.3751 226.01 77.2259L226.01 77.2236C226.05 76.9136 226.07 76.6086 226.13 76.3276C226.18 76.0436 226.27 75.8516 226.38 75.7486L226.2 75.3146C225.74 75.3286 225.3 75.1996 224.79 75.0836C224.3 74.9706 223.76 74.8756 223.18 75.0286V75.0306C222.39 75.2646 221.66 75.1306 220.95 74.8106C220.24 74.4876 219.58 73.9816 218.92 73.4896L218.83 73.4466L218.68 73.4156C217.12 73.1336 215.57 74.0786 214.62 75.1796C213.46 76.2426 211.92 76.7056 210.39 76.3676C209.9 75.9726 209.84 75.4576 209.91 74.8216C209.95 74.4866 210.02 74.1546 210.08 73.7916C210.14 73.4406 210.19 73.0716 210.15 72.7176L210.14 72.6676L210.1 72.5366C209.98 72.2446 209.78 72.0456 209.53 71.9256C209.26 71.7936 208.95 71.7646 208.65 71.7686C208.36 71.7736 208.04 71.8146 207.76 71.8436C207.47 71.8726 207.22 71.8896 207.01 71.8646C206.27 71.6726 205.44 71.4886 204.75 71.1376C204.09 70.7976 203.62 70.3246 203.51 69.5666C203.66 69.2756 203.8 68.9396 203.93 68.6156C204.08 68.2556 204.24 67.9046 204.42 67.6006C204.61 67.2976 204.81 67.0576 205.05 66.9076C205.27 66.7726 205.54 66.7026 205.87 66.7406C206.04 66.9066 206.21 67.0896 206.39 67.2496C206.59 67.4306 206.81 67.6016 207.05 67.7016C207.3 67.8046 207.58 67.8326 207.86 67.7216C208.11 67.6256 208.34 67.4356 208.56 67.1506C209.05 67.1996 209.6 67.1756 210.08 67.0106C210.63 66.8256 211.11 66.4626 211.33 65.8336L211.34 65.7986C211.64 64.2966 213.08 63.4136 214.58 63.0876C215.57 63.1436 216.32 62.7116 216.96 62.1476C217.28 61.8636 217.57 61.5416 217.85 61.2296C218.14 60.9146 218.41 60.6106 218.7 60.3446L218.73 60.3126C219.6 59.1606 221.22 59.0206 222.54 59.6066L222.8 59.7336C222.98 59.8546 223.23 59.9896 223.47 60.1246C223.72 60.2686 223.97 60.4206 224.17 60.5856C224.37 60.7516 224.5 60.9126 224.56 61.0656C224.6 61.1926 224.6 61.3366 224.5 61.5186C223.91 61.9066 223.45 62.4016 223.02 62.8776C222.57 63.3686 222.14 63.8376 221.61 64.2066C220.9 64.4926 220.54 65.1016 220.65 65.6366C220.7 65.9106 220.88 66.1466 221.17 66.2636C221.43 66.3706 221.76 66.3636 222.13 66.2406C222.26 66.2546 222.34 66.2766 222.39 66.2956C222.38 66.3096 222.37 66.3306 222.35 66.3546C222.3 66.4236 222.22 66.5056 222.11 66.5976C221.91 66.7836 221.63 66.9816 221.37 67.1736C221.14 67.3426 220.9 67.5196 220.76 67.6636C220.57 67.7856 220.41 67.9026 220.29 68.0126C220.17 68.1246 220.07 68.2416 220.02 68.3636C219.97 68.4916 219.96 68.6416 220.04 68.7776C220.11 68.9036 220.23 68.9696 220.34 69.0036C220.56 69.0696 220.85 69.0506 221.13 68.9736C221.42 68.8956 221.74 68.7496 222.02 68.5266L222.03 68.5156C223.73 66.9596 225.93 66.1786 228.11 65.3036L228.14 65.2886C229.04 64.7806 230.06 64.5986 231.12 64.4606C232.14 64.3266 233.22 64.2306 234.2 63.8906C235.554 63.4207 235.684 62.1863 236.649 61.8263C239.308 60.3181 242.47 59.6717 244.149 56.8263C244.598 55.762 244.967 55.1412 246.149 55.3263C246.862 56.7171 249.203 57.0267 250.649 56.8263C251.72 56.8881 253.46 55.9028 252.149 54.8263C251.131 54.0197 251.388 53.1505 252.649 53.3263C254.41 54.1764 256.458 52.7458 258.149 52.3263C259.484 52.0428 259.712 50.2116 260.149 49.8263C260.426 49.5824 261.919 50.776 262.649 50.8263C263.72 50.4244 263.46 50.6825 263.72 50.5925C264.06 50.4695 264.33 50.3476 264.68 50.2116C265.38 49.9366 266.07 49.5836 266.61 48.9526L266.65 48.8886C266.88 48.3726 266.93 47.8776 266.95 47.3916C266.96 46.8976 266.95 46.4336 267.02 45.9086V45.9066C267.13 45.1176 267 44.3686 266.82 43.6576C266.72 43.3026 266.61 42.9516 266.51 42.6106C266.4 42.2696 266.3 41.9366 266.23 41.6046C266.18 41.3236 266.23 41.1246 266.33 40.9656C266.44 40.7966 266.62 40.6516 266.85 40.5116C267.09 40.3696 267.35 40.2506 267.63 40.1106C267.9 39.9756 268.19 39.8236 268.42 39.6276V39.6246C269.22 38.9176 270.21 38.7786 271.14 39.3046L271.2 39.3296C271.497 39.397 271.814 39.5174 272.161 39.6491M220.14 117.979L220.102 117.96M220.14 117.979C220.127 117.972 220.115 117.966 220.102 117.96M180.08 148.056C180.4 147.99 180.69 147.931 180.98 147.906C181.17 147.921 181.34 147.895 181.48 147.826C181.64 147.753 181.75 147.643 181.84 147.523C182.01 147.299 182.11 146.996 182.19 146.803C182.23 146.695 182.27 146.615 182.31 146.558C182.35 146.504 182.38 146.488 182.4 146.482C182.41 146.477 182.46 146.469 182.55 146.506C182.65 146.544 182.79 146.623 182.98 146.768L183.13 146.821C183.51 146.826 183.82 146.73 184.06 146.55C184.3 146.371 184.47 146.125 184.57 145.859C184.78 145.338 184.8 144.694 184.8 144.192L184.79 144.14C184.72 143.79 184.74 143.577 184.78 143.469C184.79 143.418 184.82 143.399 184.82 143.392C184.83 143.386 184.85 143.38 184.87 143.381C184.94 143.383 185.06 143.427 185.22 143.57C185.37 143.709 185.53 143.922 185.66 144.204L185.74 144.302C186.32 144.7 186.9 144.464 187.37 144.229C187.62 144.102 187.84 143.977 188.08 143.875C188.31 143.775 188.52 143.716 188.72 143.721L188.83 143.696C189.2 143.521 189.34 143.563 189.4 143.597C189.44 143.62 189.48 143.658 189.52 143.722C189.57 143.789 189.6 143.868 189.65 143.966L189.651 143.969C189.732 144.136 189.862 144.407 190.13 144.531C190.4 144.658 190.73 144.597 191.13 144.388C191.46 144.37 191.73 144.24 191.97 144.08C192.21 143.916 192.44 143.697 192.64 143.535C192.85 143.362 193.03 143.239 193.21 143.188C193.37 143.143 193.56 143.151 193.8 143.292C194.13 143.544 194.44 143.668 194.73 143.675C195.02 143.681 195.27 143.565 195.48 143.428C195.58 143.359 195.68 143.281 195.77 143.207C195.87 143.131 195.96 143.057 196.06 142.988C196.25 142.854 196.43 142.747 196.65 142.694C197.23 142.692 197.81 142.613 198.23 142.332C198.46 142.184 198.63 141.981 198.73 141.713C198.81 141.499 198.84 141.256 198.82 140.981C199.28 140.801 199.7 140.559 200.1 140.3C200.33 140.153 200.55 139.998 200.77 139.847C200.97 139.706 201.17 139.568 201.37 139.436C202.16 139.347 202.83 139.035 203.43 138.638C204.03 138.234 204.6 137.728 205.15 137.285L205.21 137.214C205.35 136.978 205.34 136.679 205.32 136.426C205.31 136.292 205.29 136.153 205.27 136.021C205.26 135.887 205.24 135.759 205.23 135.637C205.21 135.383 205.23 135.203 205.29 135.086C205.34 134.999 205.43 134.91 205.68 134.885C205.92 134.943 206.2 135.017 206.44 135.069C206.7 135.126 206.97 135.167 207.23 135.152C207.5 135.137 207.76 135.062 207.99 134.886C208.2 134.728 208.37 134.5 208.51 134.197C209.77 133.756 210.28 132.623 210.68 131.54L210.69 131.48C210.72 131.218 210.82 131.051 210.96 130.923C211.11 130.785 211.3 130.685 211.54 130.574C211.98 130.367 212.61 130.119 212.78 129.4L212.79 129.3C212.71 128.801 212.8 128.313 212.92 127.797C213.03 127.296 213.17 126.75 213.12 126.21L213.07 126.068C212.83 125.791 212.78 125.597 212.79 125.476C212.8 125.363 212.87 125.251 213.03 125.147C213.36 124.931 213.95 124.843 214.42 124.909L214.61 124.861C215.07 124.515 215.4 124.04 215.71 123.648C216.04 123.245 216.36 122.903 216.84 122.71L216.99 122.553C217.48 120.978 218.28 119.549 219.35 118.282L219.39 118.198C219.45 118.016 219.51 117.917 219.56 117.866C219.6 117.822 219.64 117.811 219.67 117.808C219.71 117.805 219.77 117.814 219.85 117.847C219.929 117.875 220.009 117.914 220.102 117.96M180.08 148.056L180.032 148.066M180.08 148.056C180.064 148.059 180.048 148.063 180.032 148.066M118.79 141.299C118.94 141.286 119.07 141.275 119.2 141.272C119.41 141.268 119.6 141.288 119.75 141.347C119.78 141.763 119.63 142.167 119.41 142.604C119.29 142.856 119.16 143.072 119.02 143.337C118.9 143.571 118.78 143.818 118.7 144.074C118.46 144.363 118.33 144.672 118.32 144.974C118.32 145.291 118.43 145.578 118.63 145.803C119.01 146.248 119.71 146.447 120.39 146.209L120.41 146.202C120.67 146.089 120.87 146.087 121.03 146.136C121.19 146.185 121.34 146.298 121.48 146.471C121.62 146.649 121.75 146.869 121.86 147.102L122.17 147.82C122.41 148.498 122.94 148.899 123.54 149.056C124.15 149.213 124.83 149.13 125.4 148.845L125.46 148.8C125.74 148.523 125.95 148.364 126.11 148.287C126.26 148.214 126.34 148.226 126.39 148.251C126.46 148.284 126.55 148.369 126.67 148.556C126.78 148.74 126.9 148.984 127.04 149.291L127.07 149.343C127.44 149.796 128.02 150.114 128.62 150.238C129.21 150.362 129.86 150.302 130.35 149.935L130.38 149.903C130.66 149.595 130.78 149.265 130.79 148.927C130.8 148.597 130.71 148.274 130.59 147.975C130.48 147.682 130.32 147.374 130.2 147.105C130.07 146.824 129.97 146.57 129.93 146.332L129.91 146.267C129.78 145.977 129.77 145.742 129.82 145.549C129.87 145.351 130 145.17 130.18 145.001C130.56 144.657 131.14 144.411 131.65 144.229L131.66 144.225C131.8 144.168 131.94 144.104 132.08 144.041C132.22 143.977 132.36 143.914 132.49 143.854C132.77 143.736 133.05 143.64 133.32 143.6L133.41 143.574C133.88 143.328 134.27 143.527 134.77 143.861C135.01 144.018 135.27 144.21 135.55 144.335C135.84 144.464 136.16 144.536 136.51 144.434L136.62 144.367C137.29 143.676 138.12 143.472 139.05 143.412C139.52 143.382 140 143.389 140.49 143.385C140.97 143.381 141.46 143.364 141.93 143.289C143.08 143.353 143.95 142.794 144.73 142.2C145.5 141.621 146.16 141.027 146.99 140.761C147.9 141.81 149.18 142.408 150.57 142.463C150.85 142.549 151.15 142.548 151.43 142.526C151.58 142.514 151.73 142.496 151.88 142.479C152.02 142.462 152.16 142.447 152.29 142.438C152.56 142.421 152.78 142.435 152.93 142.504C153.07 142.565 153.19 142.678 153.27 142.928C153.31 143.147 153.27 143.355 153.17 143.576C153.07 143.812 152.92 144.033 152.76 144.296C152.6 144.546 152.44 144.83 152.38 145.145C152.32 145.474 152.37 145.82 152.59 146.187L152.6 146.205C153.78 147.83 155.77 148.75 157.74 148.831C158.27 149.015 158.77 149.072 159.26 149.094C159.51 149.104 159.76 149.107 160.02 149.11C160.27 149.114 160.53 149.119 160.79 149.138L160.9 149.123C161.21 149.007 161.42 148.74 161.58 148.498C161.66 148.373 161.73 148.244 161.79 148.127C161.85 148.006 161.91 147.902 161.96 147.815C162.02 147.726 162.09 147.568 162.09 147.655V147.653C162.09 147.656 162.1 147.659 162.11 147.666C162.13 147.682 162.16 147.711 162.2 147.756C162.28 147.847 162.38 147.992 162.49 148.212V148.214C162.8 148.777 163.4 149.184 164.02 149.368C164.65 149.551 165.36 149.527 165.9 149.154L166 149.013C166.05 148.822 166.18 148.717 166.36 148.673C166.55 148.625 166.8 148.651 167.03 148.741C167.26 148.832 167.42 148.971 167.49 149.102C167.52 149.163 167.52 149.222 167.51 149.281C167.5 149.342 167.47 149.422 167.38 149.517L167.37 149.528C166.73 150.294 166.63 151.18 166.81 152.022C166.99 152.853 167.44 153.651 167.94 154.291C168.1 154.57 168.36 154.722 168.64 154.777C168.92 154.832 169.23 154.794 169.52 154.711C170.09 154.546 170.67 154.182 170.97 153.832L171.02 153.59C170.94 153.337 170.74 153.118 170.55 152.932C170.45 152.837 170.34 152.742 170.23 152.65C170.13 152.557 170.03 152.466 169.93 152.375C169.73 152.189 169.58 152.018 169.51 151.85C169.45 151.736 169.44 151.622 169.47 151.497L169.51 151.367C169.66 151.108 169.77 150.865 169.87 150.675C169.97 150.471 170.05 150.336 170.14 150.246C170.21 150.168 170.3 150.122 170.44 150.114C170.59 150.105 170.81 150.142 171.14 150.262L171.35 150.243C171.83 149.966 172.33 149.656 172.86 149.431C173.38 149.211 173.91 149.088 174.45 149.166C174.8 149.295 175.12 149.308 175.41 149.233C175.71 149.158 175.96 148.997 176.17 148.821C176.39 148.65 176.6 148.438 176.79 148.267C176.94 148.125 177.1 148.001 177.26 147.905C177.86 148.295 178.5 148.319 179.11 148.239C179.423 148.198 179.736 148.13 180.032 148.066M118.79 141.299L118.779 141.3M118.79 141.299C118.786 141.299 118.783 141.299 118.779 141.3M106.92 117.502C107.55 117.589 108.16 117.675 108.73 117.882C109.07 118.055 109.36 118.12 109.62 118.085C109.89 118.048 110.1 117.91 110.26 117.764C110.34 117.691 110.42 117.612 110.49 117.538C110.57 117.462 110.64 117.39 110.71 117.323C110.85 117.203 110.99 117.104 111.17 117.042C112.32 117.267 113.14 118.352 113.35 119.545L113.38 119.788C113.41 120.182 113.53 120.477 113.75 120.683C113.97 120.886 114.24 120.976 114.5 121.022C114.76 121.068 115.05 121.076 115.29 121.091C115.48 121.102 115.65 121.117 115.79 121.15C116.19 122.637 116.27 124.337 116.32 125.95C115.98 127.649 115.11 129.391 113.69 130.404C112.31 130.992 111.53 132.258 110.77 133.347L110.73 133.514C110.76 133.844 110.83 134.17 110.9 134.481C110.97 134.797 111.04 135.094 111.09 135.388C111.18 135.969 111.15 136.495 110.8 137L110.76 137.136C110.74 137.543 110.87 137.869 111.19 138C111.46 138.111 111.79 138.036 112.07 137.935C112.36 137.829 112.67 137.666 112.94 137.514C113.21 137.361 113.43 137.227 113.59 137.147C114.47 136.852 115.58 136.665 116.42 136.876C116.61 137.347 116.7 137.884 116.77 138.46C116.83 138.915 116.88 139.4 116.96 139.869L117.05 140.332C117.11 140.736 117.27 141.017 117.53 141.179C117.79 141.332 118.1 141.345 118.37 141.332C118.506 141.325 118.651 141.311 118.779 141.3M106.92 117.502L106.865 117.494M106.92 117.502C106.902 117.499 106.883 117.497 106.865 117.494M102.29 113.353C102.61 113.135 102.92 112.931 103.22 112.781L103.24 112.766C103.41 112.653 103.56 112.651 103.71 112.708C103.87 112.772 104.05 112.916 104.25 113.122C104.45 113.329 104.64 113.561 104.85 113.798C105.04 114.018 105.25 114.24 105.48 114.386V114.387C105.73 114.569 105.82 114.735 105.84 114.877C105.87 115.027 105.82 115.201 105.72 115.41C105.62 115.62 105.46 115.834 105.3 116.066C105.14 116.289 104.97 116.532 104.86 116.772L105.01 117.113C105.612 117.323 106.252 117.41 106.865 117.494M102.29 113.353L102.28 113.359M102.29 113.353C102.287 113.355 102.284 113.357 102.28 113.359M79.77 118.72C78.75 118.746 77.6301 118.757 76.7001 118.054L76.66 118.011C76.44 117.74 76.22 117.639 76.02 117.623C75.8 117.606 75.55 117.678 75.28 117.825C74.74 118.123 74.22 118.65 73.77 119.034C73.21 119.558 72.72 120.153 72.23 120.77C71.75 121.383 71.27 122.027 70.75 122.626L70.34 122.588C70 122.011 69.94 121.392 69.92 120.811C69.91 120.239 69.94 119.737 69.87 119.253C69.72 119.097 69.55 119.045 69.37 119.043C69.15 119.041 68.91 119.111 68.62 119.206C68.35 119.296 68.0301 119.408 67.7101 119.447C67.4201 119.483 67.1101 119.456 66.8101 119.289C65.8601 119.523 65.03 119.636 63.87 119.59C63.2154 119.693 62.7422 119.285 62.3571 118.953M79.77 118.72L79.8565 118.717M79.77 118.72C79.7989 118.719 79.8278 118.718 79.8565 118.717M62.3301 118.93C61.9001 118.564 61.5501 118.272 61.0601 118.296C60.8901 118.32 60.73 118.403 60.55 118.522C60.46 118.584 60.38 118.646 60.28 118.715C60.19 118.781 60.09 118.85 59.99 118.908C59.78 119.027 59.52 119.11 59.22 119.045C58.99 118.995 58.76 118.864 58.52 118.645C58.49 118.681 58.4601 118.72 58.4301 118.756C58.3401 118.865 58.2 119.013 58.03 119.081C57.94 119.118 57.8301 119.136 57.7101 119.103C57.6001 119.072 57.5101 119.001 57.4301 118.911C57.2901 118.745 57.1801 118.476 57.0701 118.096C56.9301 117.849 56.77 117.698 56.6 117.601C56.43 117.501 56.23 117.45 56.01 117.428C55.7925 117.406 55.566 117.411 55.3136 117.417M62.3301 118.93L62.3571 118.953M62.3301 118.93C62.339 118.937 62.348 118.945 62.3571 118.953M55.27 117.418C55.01 117.423 54.7401 117.425 54.4601 117.394C54.2301 117.451 54.04 117.468 53.87 117.428C53.68 117.38 53.54 117.261 53.47 117.101C53.4 116.957 53.39 116.794 53.4 116.656C53.4 116.515 53.4301 116.367 53.4501 116.24C53.4701 116.105 53.49 115.997 53.49 115.909V115.897C53.41 115.926 53.28 115.985 53.1 116.1C52.79 116.292 52.4801 116.309 52.1801 116.227C51.9001 116.149 51.62 115.981 51.37 115.803C51.24 115.712 51.12 115.614 50.99 115.519C50.87 115.424 50.75 115.332 50.63 115.245C50.39 115.069 50.1701 114.935 49.9601 114.871L49.9401 114.862C49.6401 114.733 49.5 114.462 49.41 114.215C49.37 114.088 49.3401 113.953 49.3101 113.827C49.2801 113.697 49.25 113.576 49.22 113.46C49.15 113.22 49.08 113.062 48.97 112.972C48.88 112.896 48.73 112.833 48.4 112.902M55.27 117.418L55.3136 117.417M55.27 117.418C55.2846 117.417 55.2992 117.417 55.3136 117.417M48.4 112.902L48.3616 112.913M48.4 112.902C48.3872 112.905 48.3743 112.909 48.3616 112.913M34.3201 108.622C34.4801 108.841 34.66 109.079 34.89 109.238C35.13 109.408 35.42 109.491 35.77 109.401L35.91 109.306C36.1 109.048 36.24 108.797 36.36 108.574C36.48 108.346 36.5801 108.162 36.6901 108.008C36.8001 107.859 36.91 107.753 37.05 107.684C37.19 107.616 37.38 107.574 37.66 107.586C37.8 107.608 37.9401 107.626 38.0801 107.644C38.2201 107.663 38.36 107.681 38.5 107.703C38.77 107.746 39.0101 107.8 39.2101 107.887C39.4001 107.971 39.54 108.081 39.62 108.231C39.71 108.383 39.76 108.608 39.72 108.952L39.92 109.227C41.16 109.456 42.21 110.049 43.11 110.949L43.15 110.982C43.67 111.325 44.22 111.318 44.61 111.371C44.82 111.399 44.99 111.441 45.15 111.532C45.31 111.621 45.47 111.767 45.62 112.03C45.98 112.709 46.34 113.078 46.84 113.168C47.08 113.211 47.3201 113.185 47.5701 113.132C47.8094 113.081 48.0761 113 48.3616 112.913M34.3201 108.622L34.3087 108.606M34.3201 108.622C34.3163 108.616 34.3125 108.611 34.3087 108.606M30.2101 105.726C29.9701 105.564 29.73 105.402 29.49 105.27C29.01 105.005 28.58 104.901 28.17 105.129L27.87 105.086C27.67 104.884 27.48 104.671 27.29 104.461C27.11 104.249 26.93 104.042 26.74 103.843C26.42 103.499 26.0901 103.192 25.7101 102.961C25.5101 103.208 25.27 103.359 25.01 103.417C24.7 103.487 24.4 103.412 24.17 103.243C23.95 103.074 23.79 102.805 23.8 102.494C23.81 102.255 23.91 102.019 24.11 101.804C23.72 101.359 23.75 100.827 23.74 100.438C23.73 100.2 23.71 100.012 23.63 99.8496C23.55 99.6996 23.41 99.5476 23.12 99.4166L23.03 99.3556C22.62 98.9036 22.3501 98.2686 22.4301 97.7346C22.4601 97.4566 22.6 97.1986 22.86 97.0316C23.12 96.8696 23.46 96.8146 23.87 96.8636C24 96.8666 24.1101 96.9206 24.1901 96.9836C24.2801 97.0536 24.36 97.1456 24.42 97.2336C24.49 97.3236 24.56 97.4266 24.62 97.5216C24.68 97.6196 24.7501 97.7136 24.8201 97.7996C24.9601 97.9766 25.0801 98.0796 25.2101 98.1116C25.3201 98.1396 25.49 98.1266 25.76 97.9166C25.96 97.7196 26.23 97.5556 26.47 97.4116C26.73 97.2566 26.97 97.1236 27.14 96.9806C27.32 96.8366 27.38 96.7236 27.39 96.6256C27.39 96.5256 27.3401 96.3516 27.0601 96.0746L26.98 95.8636C27.03 95.5106 27.0001 95.2956 26.9501 95.1566C26.9001 95.0266 26.8201 94.9396 26.6901 94.8596C26.5501 94.7696 26.4001 94.7076 26.1801 94.5996C25.9801 94.5026 25.76 94.3796 25.55 94.1876C25.42 94.1026 25.2201 94.0486 24.9601 94.0036C24.7201 93.9616 24.41 93.9256 24.15 93.8656C23.88 93.8046 23.59 93.7056 23.39 93.4996C23.17 93.2866 23.07 92.9926 23.1 92.6156C23.07 92.3686 23.03 92.0806 23 91.8186C22.97 91.5426 22.96 91.2566 23 90.9856C23.04 90.7116 23.1401 90.4446 23.3301 90.2146C23.4601 90.0576 23.63 89.9266 23.84 89.8236C23.2 89.0386 22.41 88.5376 21.4 88.6016L21.23 88.5496C20.8 88.2106 20.56 87.6626 20.36 87.1446C20.16 86.6006 20.01 86.0826 19.76 85.6736L19.73 85.5526C19.72 85.1466 19.68 84.8956 19.63 84.7366C19.58 84.5916 19.5201 84.5366 19.4501 84.5016C19.3601 84.4556 19.23 84.4306 19.01 84.4006M30.2101 105.726L30.2404 105.745M30.2101 105.726C30.2202 105.732 30.2303 105.739 30.2404 105.745M19.01 84.4006L18.9746 84.3961M19.01 84.4006C18.9984 84.3991 18.9866 84.3976 18.9746 84.3961M16.5601 84.0066C16.7501 84.0146 16.94 84.0226 17.13 84.0376C17.5 84.0676 17.85 84.1246 18.17 84.2506L18.2001 84.2606C18.5031 84.3363 18.7613 84.369 18.9746 84.3961M16.5601 84.0066L16.5274 84.0052M16.5601 84.0066C16.5492 84.0061 16.5383 84.0057 16.5274 84.0052M14.1901 59.7606L14.17 59.8076C14 60.3396 13.6501 60.6176 13.1901 60.7836C12.7201 60.9556 12.16 60.9966 11.6 61.0546L11.5 61.0856C10.95 61.3956 10.53 61.3916 10.23 61.2316C9.92998 61.0676 9.67997 60.6986 9.58997 60.1206L9.32007 59.9116C8.45007 59.9996 7.63999 60.3066 6.85999 60.6536C6.06999 61.0066 5.35008 61.3896 4.58008 61.6726L4.52002 61.6996C4.23002 61.9006 3.85997 62.0676 3.46997 62.2366C3.07997 62.4026 2.65002 62.5726 2.27002 62.7756C1.50002 63.1796 0.82002 63.7546 0.77002 64.8126C0.53002 65.4496 0.620024 66.1716 0.650024 66.7636C0.680024 67.4046 0.650059 67.9076 0.310059 68.2816L0.25 68.4676C0.29 69.1436 0.69998 69.6826 1.22998 69.9206C1.72998 70.1446 2.34008 70.0936 2.83008 69.6546C3.07008 69.7096 3.32006 69.7376 3.56006 69.7576C3.86006 69.7816 4.14001 69.7996 4.39001 69.8476C4.65001 69.8966 4.86003 69.9706 5.03003 70.0956C5.19003 70.2136 5.32002 70.3896 5.40002 70.6716C5.43002 71.2656 5.69008 71.6926 5.83008 72.0246C5.90008 72.2006 5.95007 72.3556 5.95007 72.5186C5.96007 72.6796 5.93006 72.8666 5.81006 73.1066L5.83997 73.3786C6.14997 73.7416 6.24999 74.0876 6.23999 74.4336C6.21999 74.7896 6.06997 75.1686 5.83997 75.5926C5.74997 75.7216 5.58998 75.8076 5.34998 75.8576C5.09998 75.9086 4.82005 75.9146 4.55005 75.9246C4.41005 75.9286 4.28002 75.9356 4.15002 75.9516C4.04002 75.9666 3.91005 75.9946 3.80005 76.0566C3.67005 76.1276 3.57006 76.2486 3.56006 76.4216C3.55006 76.5696 3.61006 76.7186 3.69006 76.8596L3.78003 76.9496C4.29003 77.2606 4.71002 77.4036 5.15002 77.4476C5.58002 77.4906 6.02005 77.4396 6.55005 77.3876L6.56006 77.3866C6.91006 77.3356 7.07002 77.4096 7.15002 77.4796C7.24002 77.5656 7.29999 77.6936 7.35999 77.8826C7.39999 77.9666 7.42999 78.0706 7.48999 78.1626C7.53999 78.2576 7.62 78.3596 7.75 78.4226C8 78.5436 8.30003 78.4676 8.66003 78.2866C9.16003 78.1846 9.67005 78.3896 10.05 78.7726C10.41 79.1476 10.6 79.6596 10.51 80.1486C10.23 80.4216 10.06 80.6666 10.01 80.9096C9.96001 81.2066 10.1 81.4246 10.27 81.5816C10.35 81.6586 10.44 81.7306 10.54 81.7986C10.63 81.8686 10.7301 81.9336 10.8201 82.0086C11.0101 82.1546 11.1901 82.3166 11.3201 82.5256L11.5601 82.6406C11.7901 82.6216 12.02 82.5746 12.23 82.5366C12.45 82.4976 12.6501 82.4676 12.8301 82.4666C13.0201 82.4656 13.1801 82.4926 13.3301 82.5656C13.4801 82.6376 13.63 82.7626 13.77 82.9786L13.79 82.9946C14.38 83.7556 15.19 83.9186 15.97 83.9756C16.1586 83.9897 16.3472 83.9976 16.5274 84.0052M14.1901 59.7606L14.2145 59.7175M14.1901 59.7606C14.1981 59.7464 14.2063 59.732 14.2145 59.7175M34.49 38.5226C35.58 38.3296 36.68 38.1366 37.77 38.0426L37.85 38.0506C38.19 38.1426 38.55 38.2606 38.89 38.3726C39.24 38.4856 39.5901 38.5926 39.9401 38.6726C40.6301 38.8306 41.29 38.8696 41.89 38.6266C42.19 38.4866 42.2801 38.3456 42.3101 38.2416C42.3301 38.1306 42.3101 37.9836 42.1901 37.7986C41.9601 37.4236 41.48 37.0426 41.11 36.8106L41 36.6606C40.86 36.1166 41.0801 35.5396 41.3301 35.0346C41.4601 34.7766 41.61 34.5166 41.75 34.2756C41.89 34.0306 42.01 33.8026 42.1 33.5926L42.12 33.5536C42.57 32.8566 42.87 32.0766 43.23 31.2766C43.58 30.4896 44.0001 29.6986 44.6801 29.0626L44.9 29.0026C48.29 29.7486 51.7101 30.7946 55.0701 29.9496C55.5401 29.6706 55.87 29.2796 56.01 28.8486C56.16 28.4146 56.1201 27.9256 55.8301 27.4406L55.8101 27.3876C55.4501 26.2576 55.41 24.8926 56.48 24.0106C57.18 23.3866 58.09 23.3806 58.88 23.3576C59.67 23.3346 60.34 23.2956 60.86 22.8436C60.84 22.3496 60.8801 21.7876 61.0801 21.3256C61.1901 21.0706 61.35 20.8376 61.59 20.6676C61.83 20.5016 62.12 20.4056 62.47 20.3896C63.1026 20.2057 63.7451 20.2026 64.3587 20.1997M34.49 38.5226L34.4003 38.5384M34.49 38.5226C34.4601 38.5279 34.4302 38.5331 34.4003 38.5384M64.38 20.1996C65.02 20.1966 65.61 20.1936 66.17 20.0256L66.25 20.0656V20.0546C66.42 19.8016 66.71 19.6556 67.11 19.5876C67.95 18.9796 68.89 18.7366 69.84 18.6126C70.3045 18.5516 70.7691 18.5187 71.2336 18.4859M64.38 20.1996L64.3587 20.1997M64.38 20.1996C64.3729 20.1996 64.3658 20.1996 64.3587 20.1997M71.28 18.4826C71.76 18.4496 72.22 18.4146 72.67 18.3516C74.02 18.0576 75.1301 17.2726 76.3201 16.4656C77.4801 15.6696 78.7001 14.8546 80.2101 14.6156C80.8501 14.4476 81.5 14.2346 82.15 14.0156M71.28 18.4826L71.2336 18.4859M71.28 18.4826C71.2646 18.4837 71.2491 18.4848 71.2336 18.4859M82.15 14.0156L82.2666 13.9769M82.15 14.0156C82.1889 14.0027 82.2277 13.9898 82.2666 13.9769M99 16.5106H98.86C98.22 16.4886 97.75 16.1436 97.3 15.6536C97.05 15.3896 96.8201 15.0986 96.5801 14.8016C96.3401 14.5086 96.08 14.2136 95.79 13.9706L95.66 13.9136C94.43 13.7516 93.19 13.6956 91.97 13.6176C90.74 13.5396 89.53 13.4396 88.34 13.1946C86.9 12.8336 85.5 13.0286 84.15 13.3896C83.5194 13.5609 82.8889 13.7702 82.2666 13.9769M99 16.5106L99.1701 16.5144M99 16.5106C99.0567 16.5119 99.1134 16.5132 99.1701 16.5144M121.41 7.70358C120.09 7.52758 118.78 7.35157 117.5 7.02757L117.29 7.07357C116.17 7.95657 114.9 8.77757 113.84 9.81457C113.33 10.1496 112.86 10.6086 112.66 11.1476C112.45 11.7016 112.52 12.3086 113.02 12.8796C113.1 13.1696 113.29 13.4046 113.47 13.6006C113.57 13.7066 113.68 13.8056 113.77 13.8986C113.88 13.9936 113.97 14.0816 114.05 14.1696C114.22 14.3486 114.32 14.4986 114.35 14.6506C114.37 14.7896 114.34 14.9766 114.14 15.2496C113.01 16.5046 111.28 17.4886 109.56 17.4766C108.06 17.0266 106.48 16.5876 104.82 16.7196C102.937 16.6002 101.045 16.5571 99.1701 16.5144M121.41 7.70358L121.504 7.71608M121.41 7.70358C121.441 7.70774 121.472 7.71191 121.504 7.71608M128.87 9.26557C127.74 8.89357 126.59 8.51557 125.36 8.37457C124.081 8.06023 122.783 7.88695 121.504 7.71608M128.87 9.26557L128.94 9.28863M128.87 9.26557C128.893 9.27326 128.917 9.28095 128.94 9.28863M150.02 14.5126L149.956 14.5095M150.02 14.5126L150.152 14.5186M150.02 14.5126C150.064 14.5146 150.108 14.5166 150.152 14.5186M150.02 14.5126C149.999 14.5115 149.977 14.5105 149.956 14.5095M174.33 19.6686C176.77 19.3526 179.2 19.2956 181.51 18.6276C182.373 18.3335 183.091 17.781 183.844 17.2017M174.33 19.6686L174.189 19.6798M174.33 19.6686C174.283 19.6723 174.236 19.676 174.189 19.6798M183.89 17.1666C184.65 16.5876 185.46 15.9916 186.47 15.7176C187.93 14.9776 189.71 14.9356 191.23 15.4256L191.54 15.5306L191.61 15.5726C193.08 16.7996 195.11 17.4226 196.89 16.7136L196.92 16.7046C197.43 16.5636 198.01 16.4396 198.58 16.4266C199.15 16.4136 199.74 16.5116 200.24 16.8306L200.25 16.9096C200.31 16.9046 200.37 16.9026 200.43 16.9066C200.72 16.9256 201.01 17.0476 201.27 17.1856C201.54 17.3246 201.81 17.5026 202.05 17.6436C202.24 17.7556 202.41 17.8476 202.56 17.9066L202.71 17.9546L202.78 17.9886C203.5 18.4646 204.28 18.4156 205.13 18.1786C205.56 18.0596 205.99 17.8976 206.43 17.7406C206.86 17.5886 207.3 17.4406 207.73 17.3566C208.07 17.2366 208.43 17.1296 208.79 17.0246M183.89 17.1666L183.844 17.2017M183.89 17.1666C183.875 17.1783 183.86 17.19 183.844 17.2017M208.79 17.0246L208.796 17.0227M208.79 17.0246C208.792 17.024 208.794 17.0234 208.796 17.0227M212.63 11.6546L212.574 11.7218M212.63 11.6546C212.611 11.677 212.593 11.6994 212.574 11.7218M269.109 26.8549C269.618 26.8523 270.118 26.8497 270.61 26.8256C271.68 26.7736 272.71 26.6206 273.67 26.1576L273.7 26.1436C276.5 25.2746 279.43 24.5536 282.4 24.5116L282.49 24.5256C283.1 24.7466 283.34 25.2996 283.44 25.8346C283.5 26.1046 283.52 26.3896 283.53 26.6526C283.55 26.9226 283.56 27.1626 283.58 27.3746L283.51 27.5776C283.24 27.8416 282.93 28.0496 282.62 28.2336C282.497 28.3089 282.368 28.3828 282.243 28.4543M102.28 113.359C101.963 113.572 101.626 113.798 101.28 113.978C100.59 114.34 99.8001 114.531 98.9501 114.057C98.6801 113.991 98.4201 113.888 98.1801 113.788C97.9301 113.68 97.6901 113.579 97.4601 113.51C97.2401 113.442 97.0301 113.411 96.8301 113.438C96.6401 113.465 96.44 113.548 96.23 113.734L96.1801 113.767C95.4101 114.177 94.7201 114.685 93.9401 115.163C93.2001 115.623 92.4 116.03 91.47 116.191C90.96 116.474 90.5001 116.855 90.0601 117.278C89.8301 117.494 89.6 117.719 89.38 117.946C89.15 118.173 88.9201 118.402 88.6901 118.623C87.7601 119.501 86.71 120.28 85.24 120.312C84.58 120.45 84.0301 120.514 83.5701 120.332C83.1101 120.148 82.79 119.742 82.52 119.107C81.7617 118.667 80.8616 118.691 79.8565 118.717M34.3087 108.606C34.1429 108.382 33.986 108.17 33.8101 107.995C33.6401 107.82 33.45 107.7 33.23 107.656L33.09 107.572C33 107.472 32.83 107.394 32.54 107.334C32.4 107.305 32.25 107.283 32.1 107.261C31.94 107.239 31.78 107.216 31.63 107.187C31.48 107.159 31.3301 107.123 31.1901 107.069C31.0601 107.016 30.9201 106.94 30.8201 106.823C30.6401 106.611 30.62 106.342 30.72 106.044C30.5601 105.954 30.4003 105.85 30.2404 105.745M14.2145 59.7175C14.4915 59.2295 14.8542 58.5904 15.3301 58.1456C15.5701 57.9136 15.8601 57.7216 16.2001 57.6366C16.5301 57.5506 16.89 57.5756 17.27 57.7396C19.27 58.3736 21.67 58.1246 22.91 56.3936L22.92 56.3886C23.69 55.3616 24.78 54.8746 25.91 54.5576C26.48 54.3996 27.06 54.2826 27.63 54.1636C28.2 54.0436 28.75 53.9236 29.27 53.7596L29.34 53.7476C29.83 53.7306 30.3001 53.5656 30.5701 53.3016C30.7101 53.1726 30.7901 53.0246 30.8201 52.8576C30.8401 52.6906 30.8201 52.4826 30.6901 52.2266L30.67 52.1816C30.51 51.5966 30.41 50.9376 30.52 50.3276C30.62 49.7126 30.9301 49.1466 31.5701 48.7696C32.0101 48.4576 32.49 48.1346 32.8 47.7486C32.94 47.5606 33.0401 47.3736 33.0601 47.1816C33.0801 46.9966 33.05 46.7816 32.9 46.5296C32.16 45.4386 31.23 44.1886 31.5 42.6416L31.51 42.6106C31.69 42.0436 31.54 41.6856 31.29 41.4956C31.01 41.2916 30.56 41.2236 30.03 41.4056L29.8301 41.3896C29.4801 41.2026 29.29 40.9286 29.29 40.6026C29.29 40.3036 29.45 40.0226 29.65 39.7996C29.86 39.5706 30.13 39.3706 30.4 39.2296C30.67 39.0956 30.96 39.0046 31.23 39.0126C32.2806 38.9124 33.3312 38.727 34.4003 38.5384M128.94 9.28863C130.065 9.65753 131.154 10.0145 132.3 10.1556L132.47 10.2616C132.65 10.5166 132.74 10.8036 132.79 11.0826C132.84 11.3546 132.86 11.6526 132.9 11.9076C132.95 12.3746 133.04 12.7616 133.34 13.0526L133.48 13.1706L133.53 13.2236C134.09 13.9796 134.88 14.4066 135.77 14.7196C136.22 14.8756 136.68 15.0016 137.15 15.1266C137.62 15.2486 138.09 15.3706 138.54 15.5196C139.45 15.6996 140.36 15.5596 141.3 15.3326C142.22 15.1096 143.21 14.7936 144.18 14.6716L144.67 14.5916C145.8 14.4256 146.95 14.4046 148.08 14.4326C148.708 14.449 149.337 14.4794 149.956 14.5095M150.152 14.5186C150.436 14.5315 150.713 14.5442 150.99 14.5546L151.94 14.5826L151.99 14.5886C153.38 14.9046 154.59 15.6346 155.76 16.3086C156.95 16.9906 158.11 17.6186 159.44 17.8056L159.51 17.8246C160.94 18.4456 162.35 18.9946 163.89 19.1476L163.94 19.1596C167.235 20.231 170.725 19.9543 174.189 19.6798M208.796 17.0227C209.164 16.9164 209.522 16.8129 209.87 16.6976C210.57 16.4686 211.22 16.1986 211.76 15.7996C211.82 15.7066 211.85 15.6316 211.86 15.5686C211.87 15.5006 211.85 15.4306 211.82 15.3506C211.75 15.1776 211.59 15.0076 211.4 14.7926C211.23 14.6016 211.02 14.3566 210.95 14.0776C210.91 13.9266 210.91 13.7656 210.97 13.5996C211.03 13.4426 211.15 13.2966 211.3 13.1586L211.64 12.8056C211.961 12.4639 212.264 12.0973 212.574 11.7218M171.78 155.48C171.96 155.651 172.18 155.849 172.37 156.054C172.56 156.256 172.74 156.484 172.85 156.722C172.97 156.964 173.01 157.247 172.87 157.523C172.74 157.777 172.48 157.971 172.1 158.125C171.26 158.84 170.58 159.94 170.5 160.963C170.65 161.295 170.65 161.598 170.51 161.86C170.36 162.119 170.09 162.288 169.83 162.408C169.56 162.531 169.25 162.624 168.98 162.708C168.7 162.795 168.46 162.87 168.29 162.957L168.21 162.983C167.76 163.038 167.46 163.264 167.18 163.584C167.04 163.746 166.91 163.929 166.77 164.125C166.64 164.317 166.49 164.523 166.34 164.716L166.03 164.782C164.83 164.207 163.6 163.644 162.42 162.988L162.29 162.766C162.29 162.485 162.23 162.162 162.15 161.805C162.07 161.458 161.97 161.073 161.92 160.707C161.86 160.339 161.85 159.956 161.96 159.602C162.08 159.238 162.32 158.925 162.73 158.692L162.77 158.673C163.03 158.586 163.26 158.424 163.5 158.22C163.62 158.118 163.74 158.009 163.86 157.896C163.98 157.785 164.1 157.67 164.23 157.561C164.48 157.346 164.76 157.142 165.08 157.035C165.33 156.953 165.6 156.931 165.89 156.992C165.94 156.688 166.06 156.453 166.23 156.285C166.46 156.061 166.75 156 167.03 156.003C167.3 156.006 167.59 156.072 167.85 156.136C168.06 156.189 168.25 156.238 168.42 156.267C168.84 155.805 169.42 155.719 169.94 155.682C170.24 155.662 170.5 155.658 170.78 155.627C171.04 155.597 171.28 155.544 171.5 155.438L171.78 155.48ZM220.7 132.27C221.14 131.967 221.71 131.639 222.32 131.973C222.75 132.123 223.05 132.292 223.22 132.514C223.41 132.76 223.4 133.026 223.34 133.265C223.27 133.486 223.14 133.725 223.04 133.935C222.93 134.149 222.83 134.362 222.78 134.588C222.95 135.762 222.37 136.705 221.86 137.572C221.85 139.809 220.9 141.85 219.66 143.605L219.65 143.607C219.35 144.034 219.18 144.498 219.05 144.996C218.99 145.246 218.94 145.502 218.89 145.766C218.84 146.029 218.79 146.301 218.72 146.574L218.61 146.727C218.45 146.832 218.29 146.925 218.15 147.022L217.8 146.947C217.25 146.079 216.63 145.092 215.92 144.264L215.91 144.25C214.77 142.688 214.19 140.361 215.21 138.531L215.23 138.506C215.89 137.612 216.5 136.674 217.14 135.739C217.78 134.809 218.45 133.89 219.21 133.061L219.37 132.981C219.58 132.963 219.78 132.874 220.01 132.739C220.24 132.6 220.45 132.438 220.7 132.27Z" stroke="white" stroke-width="0.5" stroke-linejoin="round"/>
</svg>
