<svg width="136" height="86" viewBox="0 0 136 86" fill="none" xmlns="http://www.w3.org/2000/svg">
<path d="M121.686 0.86481C122.39 0.45881 123.173 0.130812 124.119 0.291812C124.674 0.306812 125.3 0.416803 125.813 0.695803C126.339 0.981803 126.755 1.44982 126.834 2.15882L126.853 2.26781C126.906 2.50481 127.002 2.64081 127.101 2.71681C127.217 2.80481 127.377 2.84281 127.578 2.82381C127.939 2.78981 128.362 2.57481 128.67 2.30181L128.794 2.18181C129.027 1.90081 129.294 1.6998 129.557 1.5838C129.818 1.4688 130.099 1.42582 130.337 1.50582C130.459 1.54682 130.57 1.62081 130.65 1.73181C130.73 1.84381 130.768 1.97681 130.77 2.11881C130.775 2.39081 130.651 2.70881 130.412 3.06081C130.27 3.38881 130.04 3.65781 129.795 3.89081C129.553 4.11981 129.249 4.35681 129.019 4.56081C128.534 4.98981 128.214 5.39681 128.307 6.01781C128.608 6.88881 129.308 7.62881 130.167 7.93381L130.343 7.98781L130.505 8.13082C130.717 8.62482 130.978 9.19782 131.036 9.75382C131.066 10.0388 131.043 10.3288 130.933 10.6118C130.826 10.8838 130.643 11.1328 130.37 11.3578C130 12.0198 129.412 12.4268 128.85 12.7878C128.262 13.1668 127.709 13.4948 127.315 14.0118L127.267 14.0598C126.859 14.3688 126.444 14.7308 126.253 15.0998C126.161 15.2768 126.131 15.4378 126.162 15.5888C126.185 15.7018 126.248 15.8298 126.38 15.9698L126.537 16.1128L126.548 16.1218C126.996 16.5258 127.429 16.9918 127.926 17.3558C128.393 17.6988 128.861 17.9038 129.353 17.8528C129.665 17.5788 129.964 17.4418 130.26 17.4768C130.574 17.5138 130.794 17.7348 130.953 17.9498C131.111 18.1638 131.257 18.4428 131.385 18.6568C131.519 18.8818 131.638 19.0448 131.761 19.1348C132.038 19.2488 132.324 19.3648 132.603 19.4818L132.754 19.7518C132.579 20.8558 132.589 21.9908 132.636 23.0998L132.612 23.2148C132.084 24.3515 129.467 24.7242 126.446 27.7358C126.24 28.1848 126.399 28.6478 126.598 29.2458C126.786 29.8138 127.007 30.5058 126.586 31.1928C126.345 31.8218 125.853 32.2278 125.349 32.5568C125.095 32.7218 124.818 32.8798 124.571 33.0308C124.318 33.1858 124.083 33.3398 123.882 33.5118L123.849 33.5028L123.832 33.5468C123.529 33.6958 123.363 33.8618 123.277 34.0218C123.192 34.1798 123.17 34.3588 123.202 34.5628C123.269 34.9878 123.562 35.4658 123.889 35.9268C125.369 37.9798 125.392 40.6008 125.114 42.9288C125.358 43.6398 125.274 44.3328 125.126 44.9768C125.051 45.3028 124.953 45.6388 124.874 45.9458C124.798 46.2398 124.736 46.5208 124.706 46.7948C124.941 47.3858 125.296 48.1218 125.466 48.8328C125.645 49.5818 125.639 50.3798 125.071 51.0708L125.072 51.0718C124.904 51.2798 124.647 51.4458 124.403 51.5868C124.14 51.7388 123.898 51.8598 123.668 52.0048C123.441 52.1478 123.29 52.2768 123.218 52.4048C123.161 52.5068 123.142 52.6268 123.241 52.8138C123.518 53.2128 123.822 53.6008 124.132 53.9948C124.443 54.3918 124.76 54.7958 125.049 55.2158C125.614 56.0368 126.082 56.9348 126.215 58.0058C126.377 58.2058 126.524 58.4588 126.66 58.7008C126.817 58.9808 126.965 59.2528 127.13 59.4778C127.296 59.7038 127.456 59.8468 127.616 59.9028C127.759 59.9538 127.948 59.9488 128.219 59.7788L128.293 59.7478C129.038 59.5698 129.777 59.7358 130.466 59.9668C130.81 60.0818 131.157 60.2188 131.486 60.3418C131.737 60.4348 131.981 60.5218 132.22 60.5908L132.457 60.6528L132.573 60.7178C133.125 61.2568 133.489 61.9398 133.827 62.5878C134.172 63.2478 134.489 63.8698 134.95 64.3618L134.891 64.7508C133.219 65.7008 131.523 66.6148 129.832 67.5298C128.139 68.4468 126.45 69.3658 124.79 70.3288L124.789 70.3298C120.799 72.6068 116.784 74.8618 113.124 77.6038C111.937 78.5408 110.791 79.5508 109.631 80.5538C108.473 81.5548 107.302 82.5478 106.077 83.4388L105.979 83.4818C102.106 84.2708 98.221 85.0008 94.338 85.7258L94.075 85.6058C93.647 84.8658 93.822 84.0718 93.933 83.4168C94.051 82.7288 94.109 82.1708 93.694 81.6678L93.675 81.6398C93.344 81.1028 92.784 81.0668 92.034 81.0388C91.337 81.0128 90.465 80.9918 89.941 80.1888L89.92 80.1478C89.76 79.7628 89.617 79.6808 89.534 79.6618C89.428 79.6378 89.288 79.6778 89.061 79.7878C88.866 79.8828 88.594 80.0358 88.324 80.0878C88.18 80.1148 88.024 80.1178 87.864 80.0688C87.705 80.0208 87.558 79.9278 87.423 79.7868L87.068 79.4428C86.232 78.6458 85.334 77.8838 84.49 77.1288L84.418 76.8688C84.571 76.3758 84.469 75.9858 84.22 75.6648C83.96 75.3308 83.529 75.0578 83.016 74.8518L82.986 74.8368C74.483 69.9768 66.616 64.0648 58.421 58.7868V58.7858C53.491 55.6408 48.477 52.6038 43.344 49.7988V49.7998C42.109 49.1338 40.832 48.4698 39.601 47.7948C39.616 49.4568 39.59 51.1248 39.467 52.7698L39.454 52.8298C39.341 53.1658 39.102 53.3538 38.814 53.4408C38.545 53.5228 38.23 53.5178 37.933 53.4938C37.782 53.4818 37.627 53.4638 37.477 53.4458C37.326 53.4288 37.18 53.4108 37.038 53.3988C36.749 53.3748 36.509 53.3778 36.328 53.4298L36.264 53.4388C32.344 53.5028 28.475 53.2538 24.603 53.5138C24.52 53.6168 24.459 53.7548 24.419 53.9358C24.371 54.1538 24.357 54.4128 24.358 54.6998C24.36 54.9998 24.376 55.2708 24.381 55.5848C24.385 55.8708 24.377 56.1608 24.331 56.4238C24.256 59.1208 24.144 61.8178 24.043 64.5108L23.924 64.7138C23.48 64.9888 22.988 65.2028 22.494 65.3978C21.993 65.5968 21.502 65.7728 21.023 65.9808C20.09 66.3878 19.289 66.8878 18.821 67.7778C18.776 68.9078 18.883 70.0328 19.004 71.1768C19.126 72.3328 19.261 73.5088 19.251 74.6958L19.001 74.9438C12.842 74.9548 6.65998 74.8848 0.495981 74.7808L0.250009 74.5318C0.246009 72.4798 1.524 70.8348 2.852 69.5238C3.539 68.6338 4.03901 67.6178 4.50501 66.5558C4.96601 65.5018 5.399 64.3908 5.943 63.3588C6.404 62.2138 7.38798 61.4768 8.29298 60.7868C9.21198 60.0868 10.051 59.4318 10.438 58.4508C10.432 56.0068 11.294 53.4918 13.022 51.7278L13.052 51.7018C13.424 51.4248 13.836 51.1858 14.242 50.9568C14.652 50.7258 15.054 50.5048 15.428 50.2578C16.171 49.7658 16.765 49.1918 17.004 48.2998L17.034 48.2308C17.155 48.0378 17.26 47.7968 17.366 47.5258C17.469 47.2638 17.576 46.9638 17.693 46.6908C17.853 46.3178 18.057 45.9268 18.368 45.6628L18.298 45.5668C18.65 44.5578 19.415 44.1038 20.249 43.8488C20.662 43.7218 21.101 43.6418 21.52 43.5658C21.946 43.4898 22.35 43.4188 22.72 43.3138L22.735 43.3098C24.393 42.9448 25.832 42.1238 27.21 41.1408C27.899 40.6488 28.569 40.1188 29.244 39.5868C29.909 39.0628 30.578 38.5358 31.266 38.0488C31.628 37.6318 32.049 37.2138 32.457 36.7958C32.875 36.3668 33.284 35.9328 33.631 35.4778C34.313 34.5798 34.731 33.6248 34.507 32.4928C33.38 30.9488 32.923 28.6568 34.36 27.0468C34.583 26.7318 34.846 26.4178 35.099 26.1108C35.357 25.7968 35.607 25.4858 35.814 25.1638C36.227 24.5238 36.45 23.8728 36.237 23.1258L36.229 23.0318C36.307 22.2608 36.792 21.7318 37.301 21.2918C37.547 21.0788 37.84 20.8558 38.078 20.6568C38.329 20.4478 38.553 20.2408 38.728 20.0158L38.751 19.9898C40.12 18.6558 41.972 18.1078 43.682 17.5098C45.414 16.9038 47.017 16.2438 48.064 14.7298L48.075 14.7148C48.898 13.6878 49.51 12.5298 50.058 11.3188C50.331 10.7138 50.587 10.0978 50.846 9.47881C51.104 8.86081 51.364 8.23982 51.644 7.63082L51.742 7.52082C52.223 7.22982 52.81 6.97281 53.364 6.97481C53.647 6.97581 53.928 7.04381 54.178 7.21581C54.421 7.38381 54.617 7.63781 54.759 7.98181C55.108 8.60481 55.649 9.03282 56.282 9.36582C56.91 9.69682 57.61 9.92282 58.29 10.1568C58.886 10.1468 59.5 10.1738 60.105 10.1948C60.73 10.2178 61.348 10.2348 61.952 10.2028C63.159 10.1388 64.285 9.88181 65.244 9.10581L65.63 9.20081C66.06 10.1868 66.953 10.6148 68.041 10.5638L68.1 10.5668C68.265 10.5998 68.436 10.6088 68.62 10.6098L69.195 10.6108L69.308 10.7118C69.358 10.6788 69.412 10.6498 69.469 10.6278L69.548 10.6098C70.977 10.5408 72.449 10.0808 72.962 8.75782L73.016 8.67182C73.552 8.12882 74.228 7.91681 74.87 7.75081C75.447 7.60181 75.989 7.49081 76.475 7.24681L76.681 7.13481C76.971 6.95381 77.274 6.96582 77.543 7.03182C77.798 7.09582 78.072 7.22381 78.286 7.30881C78.521 7.40181 78.708 7.45282 78.869 7.43682C79.009 7.42182 79.166 7.35081 79.332 7.10381L79.337 7.0968C80.97 4.8498 83.817 3.90682 86.458 3.86782C86.96 3.81382 87.472 3.80081 87.975 3.79381C88.489 3.78681 88.994 3.78482 89.491 3.75382C90.483 3.69182 91.413 3.51381 92.234 2.96381L92.506 2.95981C93.622 3.65481 94.889 3.2248 96.023 2.5428L96.105 2.51181C97.38 2.26881 98.738 2.30082 100.024 2.43482L100.571 2.49681L100.627 2.51081C102.43 3.17681 104.371 3.33482 106.174 2.66082L106.298 2.64781C106.759 2.71681 107.117 2.42481 107.546 2.03081C107.745 1.84881 107.965 1.6398 108.197 1.4998C108.409 1.3728 108.653 1.28782 108.927 1.32682L109.046 1.35181L109.086 1.36582C109.372 1.49882 109.68 1.67681 109.973 1.83681C110.272 1.99981 110.565 2.14881 110.85 2.24481C111.134 2.34081 111.394 2.37681 111.632 2.33281C111.864 2.28981 112.1 2.16382 112.332 1.89182L112.336 1.88681L112.428 1.79181C112.901 1.34081 113.573 1.23982 114.172 1.36782C114.775 1.49682 115.355 1.86981 115.642 2.42881C116.108 2.62981 116.623 2.59182 117.206 2.47782C117.792 2.36182 118.476 2.15981 119.116 2.16481L119.237 2.19681C119.283 2.22281 119.325 2.25381 119.365 2.28781C119.422 2.22481 119.474 2.16282 119.52 2.10082L119.638 2.01381C119.983 1.88981 120.315 1.70881 120.654 1.50281C120.982 1.30381 121.341 1.06481 121.686 0.86481Z" fill="#F8CA6A" stroke="white" stroke-width="0.5" stroke-linejoin="round"/>
</svg>
