<svg width="196" height="85" viewBox="0 0 196 85" fill="none" xmlns="http://www.w3.org/2000/svg">
<path d="M17.5334 82.6946C18.021 82.5986 18.5353 82.6836 19.0109 82.9526L19.2121 83.0796L19.2863 83.1596C19.4348 83.4176 19.5828 83.6806 19.7277 83.9296L19.4758 84.3025C19.2592 84.2715 19.0041 84.3075 18.7102 84.3765C18.5647 84.4095 18.4172 84.4495 18.2639 84.4905C18.1128 84.5305 17.9562 84.5706 17.802 84.6016C17.4981 84.6626 17.1698 84.6976 16.8654 84.6106C16.5452 84.5186 16.2808 84.3015 16.0969 83.9255L16.1145 83.6755C16.4745 83.1455 16.9769 82.8046 17.5334 82.6946ZM24.5285 80.6936C24.8592 80.7026 25.221 80.7555 25.5344 80.8485C25.8338 80.9375 26.1432 81.0796 26.3098 81.3016C26.4007 81.4236 26.453 81.5756 26.426 81.7456C26.4001 81.9076 26.3072 82.0525 26.1789 82.1805L26.09 82.2385C25.6907 82.3885 25.5186 82.6445 25.2404 82.9605C25.1046 83.1145 24.9453 83.2765 24.7268 83.4085C24.5063 83.5415 24.2371 83.6366 23.8879 83.6766L23.6135 83.3825C23.6443 83.2155 23.5829 82.9975 23.4436 82.7255C23.3011 82.4485 23.1328 82.2096 22.9768 81.9396C22.9051 81.8156 22.8364 81.6845 22.7961 81.5595C22.7573 81.4395 22.7303 81.2816 22.7961 81.1296C22.8673 80.9656 23.0157 80.8775 23.174 80.8355C23.3166 80.7965 23.495 80.7856 23.7072 80.7956C23.9329 80.7126 24.2334 80.6856 24.5285 80.6936ZM38.3078 75.8576C38.8964 75.7246 39.5112 75.8876 40.0344 76.1796C40.5591 76.4726 41.0204 76.9106 41.3117 77.3706L41.2131 77.7275C40.5018 78.0835 39.7621 78.1776 39.0402 78.1946C38.6802 78.2026 38.3176 78.1926 37.966 78.1836C37.6166 78.1756 37.2756 78.1685 36.9406 78.1825C36.7368 78.2155 36.5492 78.3256 36.3527 78.4896C36.1404 78.6666 35.9706 78.8566 35.7424 79.0696C35.5322 79.2656 35.2863 79.4636 34.9895 79.5546C34.6931 79.6456 34.3733 79.6196 34.0227 79.4446C33.5672 79.4266 33.2195 79.3365 32.9953 79.1625C32.8734 79.0675 32.7866 78.9456 32.7473 78.8036C32.7085 78.6636 32.7202 78.5215 32.7609 78.3915C32.8403 78.1385 33.0371 77.8985 33.2756 77.6995C33.514 77.5005 33.8156 77.3245 34.1457 77.2015C34.8037 76.8035 35.5524 76.6656 36.2492 76.5326C36.9707 76.3946 37.6431 76.2595 38.2297 75.8895L38.3078 75.8576ZM178.713 70.2846C179.365 70.1026 179.879 70.4046 180.308 70.6986C180.762 71.0096 181.125 71.3035 181.579 71.3625C181.973 71.3995 182.28 71.4935 182.512 71.6455C182.751 71.8035 182.894 72.0135 182.97 72.2465C183.044 72.4725 183.053 72.7146 183.043 72.9426C183.033 73.1496 183.005 73.3706 182.984 73.5646C183.043 73.7596 183.176 73.8976 183.371 74.0136C183.59 74.1436 183.852 74.2285 184.142 74.3375C184.41 74.4375 184.717 74.5635 184.926 74.7815C185.035 74.8965 185.118 75.0375 185.157 75.2105C185.193 75.3705 185.187 75.5446 185.145 75.7346C185.149 76.1586 185.149 76.5835 185.156 76.9945L184.766 77.2056C183.911 76.6216 183.014 76.1375 182.109 75.5725C181.219 75.0155 180.351 74.3966 179.634 73.5756L179.589 73.3216C179.762 72.8646 179.576 72.4746 179.266 72.0216C179.12 71.8096 178.933 71.5655 178.795 71.3345C178.653 71.0965 178.534 70.8265 178.53 70.5275L178.713 70.2846ZM70.844 0.277448C72.1258 0.190448 73.7631 0.257747 74.7981 1.28925L74.6867 1.70715C74.4715 1.76465 74.3229 1.82665 74.2258 1.88395C74.1276 1.94195 74.0985 1.98495 74.092 1.99915C74.0902 2.00305 74.0871 2.00655 74.0959 2.02555C74.1087 2.05315 74.1433 2.09915 74.215 2.15445C74.3581 2.26455 74.5928 2.36955 74.8645 2.43275C75.135 2.49565 75.4171 2.51105 75.6477 2.46595L75.7756 2.47475C76.7627 2.80825 77.6276 2.24145 78.5188 1.58215L78.7131 1.53725C80.3496 1.84115 82.0118 1.93325 83.6897 1.99335C85.1533 2.04565 86.634 2.07305 88.1027 2.19935L88.7316 2.25995L88.7668 2.26675C89.2601 2.39185 89.7249 2.61375 90.1672 2.85655C90.3885 2.97815 90.6084 3.10665 90.8234 3.23255C91.0397 3.35915 91.2526 3.48345 91.466 3.59875C92.322 4.06135 93.1447 4.35825 94.0813 4.08805L94.177 4.08025C98.0141 4.48715 101.9 4.25105 105.778 4.04215H105.805C107.504 4.12875 109.178 4.43605 110.83 4.70035C112.489 4.96575 114.132 5.18975 115.802 5.12415L115.816 5.12315C118.689 5.17935 121.596 5.33075 124.42 5.98065C127.445 6.00385 130.446 5.73665 133.484 5.64955L133.53 5.65245C135.306 5.93495 137.008 6.51645 138.685 7.07535C140.369 7.63665 142.031 8.17645 143.762 8.39955L143.977 8.60565C144.219 10.0468 144.234 11.5061 144.211 12.9522C144.188 14.4047 144.128 15.8373 144.215 17.2599L144.216 17.2755C144.215 19.8406 144.303 22.4048 144.398 24.9727C144.47 26.8977 144.547 28.8254 144.592 30.754L144.626 32.6828V33.8488C144.602 39.6655 144.291 45.4535 144.735 51.2305C144.954 51.6135 145.343 51.7475 145.872 51.7745C146.144 51.7885 146.433 51.7745 146.729 51.7585C147.015 51.7445 147.313 51.7285 147.583 51.7475C148.523 51.7225 149.445 51.6425 150.401 51.5955C151.352 51.5495 152.315 51.5395 153.279 51.6655L153.428 51.7406C153.653 51.9756 153.841 52.2335 154.012 52.4875C154.188 52.7505 154.336 52.9885 154.506 53.2305C154.795 53.6415 155.103 53.9865 155.547 54.2045L155.746 54.2895L155.79 54.3106C157.675 55.4716 159.631 56.5815 161.431 57.9235C161.809 57.3905 162.402 57.2195 162.942 57.0965C163.264 57.0235 163.563 56.9675 163.85 56.8745C164.13 56.7825 164.374 56.6605 164.572 56.4705L164.652 56.4195C165.068 56.2525 165.469 56.0115 165.877 55.7445C166.278 55.4815 166.698 55.1835 167.119 54.9315C167.963 54.4265 168.898 54.0485 170.02 54.3345C170.979 54.3415 171.549 54.9786 172.032 55.5736C172.544 56.2036 172.965 56.7805 173.648 56.9705L173.703 56.9935C176.268 58.4105 178.931 59.8705 180.887 62.1965C182.032 63.2015 183.012 64.3725 183.99 65.5035C184.966 66.6315 185.945 67.7215 187.103 68.6145C189.229 69.1785 191.345 69.9235 193.358 70.8225L194.223 71.2196L194.262 71.2436C194.555 71.4556 194.647 71.7465 194.652 72.0375C194.657 72.3075 194.585 72.6066 194.533 72.8606C194.478 73.1316 194.44 73.3696 194.469 73.5816C194.492 73.7526 194.558 73.9105 194.719 74.0525L194.794 74.1135L194.869 74.2015C194.978 74.4155 195.081 74.6246 195.189 74.8346L195.218 74.9546C195.21 75.3746 195.067 75.6716 194.816 75.8726C194.584 76.0586 194.283 76.1396 194.017 76.1986C193.73 76.2616 193.474 76.3025 193.237 76.3915C193.011 76.4765 192.832 76.5966 192.711 76.7956L192.491 76.9166C192.108 76.9066 191.805 76.8016 191.589 76.5996C191.374 76.3996 191.276 76.1325 191.242 75.8635C191.179 75.3645 191.326 74.7756 191.459 74.3256C191.264 73.5096 190.561 72.7085 189.76 72.2815L189.656 72.1766C189.544 71.9606 189.394 71.8476 189.217 71.7886C189.029 71.7246 188.796 71.7175 188.521 71.7405C188.237 71.7635 187.963 71.8125 187.65 71.8505C187.357 71.8865 187.046 71.9076 186.757 71.8576C186.639 71.8416 186.458 71.8915 186.208 72.0075C186.089 72.0635 185.966 72.1276 185.84 72.1946C185.715 72.2606 185.585 72.3286 185.461 72.3876C185.337 72.4466 185.208 72.4996 185.084 72.5326C184.962 72.5646 184.82 72.5825 184.683 72.5465C184.533 72.5075 184.413 72.4116 184.335 72.2676C184.266 72.1396 184.233 71.9795 184.224 71.7985C184.146 71.4495 184.228 71.1396 184.345 70.8796C184.404 70.7476 184.474 70.6236 184.539 70.5126C184.606 70.3976 184.665 70.3016 184.714 70.2076C184.814 70.0126 184.823 69.9136 184.793 69.8406C184.758 69.7566 184.632 69.6145 184.208 69.4445L184.188 69.4356C183.394 69.0376 182.79 68.3866 182.21 67.8326C181.622 67.2706 181.047 66.7906 180.275 66.6046C179.856 66.5936 179.556 66.4995 179.36 66.2935C179.166 66.0875 179.124 65.8185 179.098 65.6125C179.068 65.3845 179.053 65.1996 178.976 65.0246C178.905 64.8656 178.776 64.7036 178.489 64.5686L178.45 64.5455C178.285 64.4255 178.165 64.2936 178.095 64.1436C178.024 63.9916 178.013 63.8396 178.035 63.7006C178.057 63.5656 178.11 63.4425 178.162 63.3405C178.212 63.2445 178.276 63.1385 178.316 63.0685C178.364 62.9855 178.387 62.9345 178.395 62.9005C178.38 62.8885 178.342 62.8625 178.258 62.8355C178.143 62.7975 177.97 62.7635 177.715 62.7365L177.707 62.7355C176.941 62.6295 176.38 62.1545 175.878 61.7245C175.358 61.2795 174.896 60.8795 174.283 60.7485L174.261 60.7425C173.157 60.3965 172.04 59.9135 171.58 58.6385C171.439 58.4015 171.319 58.1126 171.206 57.8376C171.086 57.5466 170.969 57.2635 170.829 57.0205C170.689 56.7775 170.537 56.5975 170.362 56.4935C170.224 56.4115 170.056 56.3666 169.833 56.3946C169.587 57.4166 169.741 58.3595 170.348 59.2335L170.442 59.3725C170.649 59.6925 170.757 59.9765 170.734 60.2205C170.72 60.3725 170.657 60.5035 170.55 60.6005C170.448 60.6935 170.321 60.7445 170.197 60.7725C169.953 60.8275 169.653 60.8065 169.367 60.7535C169.075 60.6985 168.771 60.6075 168.505 60.5025L168.502 60.5005C167.969 60.2805 167.568 59.8035 167.228 59.3975C167.05 59.1865 166.887 58.9905 166.717 58.8275C166.575 58.6905 166.437 58.5866 166.298 58.5186C165.696 58.7516 165.096 58.7155 164.529 58.6115C164.481 58.6025 164.432 58.5905 164.384 58.5815C164.404 58.5915 164.426 58.6005 164.446 58.6105C164.97 58.8695 165.523 59.2025 165.747 59.7925L165.572 60.1235C164.556 60.3685 163.121 60.5175 161.97 60.5095L161.93 60.5065C160.687 60.2985 159.644 59.7125 158.665 59.0695C157.688 58.4275 156.791 57.7445 155.779 57.2505C153.555 57.2655 151.482 56.4495 149.533 55.5785L149.574 55.1075C149.678 55.0815 149.807 55.0525 149.942 55.0225C150.079 54.9925 150.228 54.9586 150.378 54.9216C150.682 54.8476 150.979 54.7605 151.201 54.6555C151.312 54.6035 151.391 54.5516 151.441 54.5046C151.491 54.4596 151.496 54.4325 151.497 54.4255C151.497 54.4215 151.5 54.3895 151.447 54.3205C151.394 54.2515 151.296 54.1615 151.132 54.0525C150.481 53.7885 149.811 53.9315 149.049 54.1455C148.313 54.3525 147.478 54.6305 146.63 54.4805C145.107 54.4685 143.616 54.2416 142.153 53.8376L141.976 53.5455C142.032 53.2675 141.967 53.0985 141.867 52.9885C141.757 52.8675 141.568 52.7805 141.315 52.7425C141.066 52.7055 140.779 52.7205 140.509 52.7815C140.237 52.8425 140 52.9455 139.842 53.0655L139.727 53.1145C138.321 53.3175 136.912 53.2335 135.528 53.1395C134.137 53.0455 132.771 52.9416 131.41 53.0896L131.407 53.0905C129.325 53.2965 126.818 52.9595 125.493 51.0135C125.414 51.0065 125.301 51.0215 125.144 51.0675C124.937 51.1275 124.713 51.2225 124.447 51.3225C123.965 51.5035 123.345 51.7045 122.775 51.4695C122.077 51.4315 121.601 51.0935 121.188 50.7665C120.756 50.4235 120.41 50.1155 119.915 50.0035L119.886 49.9945C118.583 49.5265 117.196 49.3726 115.782 49.1306C114.443 48.9026 113.094 48.5945 111.871 47.8445C111.658 48.0115 111.396 48.0985 111.146 48.1495C110.834 48.2135 110.473 48.2366 110.204 48.2696C110.062 48.2876 109.939 48.3075 109.838 48.3365C109.736 48.3645 109.671 48.3975 109.632 48.4305C109.599 48.4585 109.579 48.4905 109.571 48.5395C109.562 48.5965 109.568 48.6915 109.619 48.8405L109.572 49.0835C109.518 49.1475 109.431 49.2155 109.349 49.2765C109.261 49.3425 109.152 49.4185 109.04 49.4975C108.811 49.6585 108.557 49.8375 108.354 50.0145C108.254 50.1025 108.173 50.1855 108.115 50.2585C108.06 50.3295 108.04 50.3745 108.035 50.3955C108.055 50.4145 108.119 50.4546 108.27 50.4906C108.495 50.5386 108.793 50.5945 109.078 50.6655C109.368 50.7375 109.675 50.8335 109.934 50.9745C110.192 51.1155 110.43 51.3175 110.538 51.6145C110.648 51.9145 110.605 52.2575 110.419 52.6385C110.133 53.2715 109.637 53.6355 109.066 53.7675C108.509 53.8965 107.894 53.8035 107.339 53.5595C105.785 52.9795 104.079 53.2685 102.825 54.3485L102.778 54.3806C102.088 54.7446 101.313 54.8885 100.602 55.0495C99.8759 55.2145 99.2003 55.3985 98.6193 55.8195L98.5881 55.8386C97.0374 56.6496 95.3914 57.2615 93.5803 57.2435L93.3342 56.9715C93.3974 56.2265 94.0262 55.8815 94.4787 55.6355C94.7261 55.5015 94.9279 55.3946 95.0715 55.2686C95.2033 55.1536 95.2573 55.0475 95.2502 54.9115V54.8905C95.2539 54.7665 95.1747 54.6215 94.9777 54.4385C94.7787 54.2535 94.5499 54.1035 94.3137 53.9165C94.2046 53.8295 94.0944 53.7345 94.01 53.6315C93.927 53.5315 93.8469 53.3975 93.841 53.2365C93.8348 53.0645 93.914 52.9176 94.0363 52.7976C94.1509 52.6866 94.3147 52.5865 94.5217 52.4935C95.5102 51.8715 96.4223 51.0935 96.6848 50.0015L96.8078 49.8396C99.3189 48.4685 102.208 48.4435 104.913 48.8765C104.929 48.8655 104.944 48.8575 104.955 48.8485C104.93 48.8335 104.897 48.8145 104.853 48.7945C104.755 48.7495 104.629 48.7046 104.483 48.6586C104.176 48.5616 103.86 48.4835 103.524 48.3825C103.366 48.3355 103.213 48.2855 103.079 48.2305C102.964 48.1835 102.848 48.1265 102.756 48.0565C101.564 47.4675 100.372 47.1155 99.091 47.3545C98.6501 47.5975 98.1359 47.7705 97.6897 47.9555C97.2141 48.1525 96.7779 48.3785 96.427 48.7465L96.3859 48.7815C95.5025 49.3795 94.467 49.6405 93.5227 49.9275C92.5617 50.2195 91.679 50.5405 90.9865 51.2345L90.9123 51.2855C90.6211 51.4165 90.3343 51.5225 90.1027 51.6175C89.8617 51.7155 89.6745 51.8036 89.5354 51.9086C89.4033 52.0076 89.3195 52.1185 89.2775 52.2665C89.2336 52.4215 89.2289 52.6435 89.3039 52.9725L89.3 53.0985C89.0402 53.9775 88.3399 54.3435 87.6106 54.5365C87.2474 54.6325 86.86 54.6895 86.4992 54.7445C86.1321 54.7995 85.7932 54.8526 85.4992 54.9366L85.4914 54.9395C84.3886 55.2175 83.2996 55.9555 82.6848 56.8545C82.6918 57.0125 82.7532 57.0985 82.8469 57.1635C82.9744 57.2505 83.1755 57.3075 83.4455 57.3415C83.7151 57.3765 83.9993 57.3856 84.2981 57.4086C84.5611 57.4286 84.8389 57.4625 85.0676 57.5455C85.4642 57.5665 85.781 57.6615 86.0031 57.8265C86.241 58.0025 86.3588 58.2525 86.3391 58.5235C86.3201 58.7825 86.1792 59.0275 85.9729 59.2255C85.7644 59.4255 85.4762 59.5926 85.1291 59.7006L85.0988 59.7085C83.595 59.9715 82.515 60.9905 81.2814 61.9605L81.2404 61.9865C80.6092 62.3085 79.9048 62.4365 79.2238 62.5395C78.5301 62.6435 77.865 62.7205 77.2482 62.9265L77.216 62.9356C76.5488 63.0626 75.9501 63.3805 75.3049 63.7165C74.6802 64.0425 74.0124 64.3826 73.2473 64.5056C72.9802 64.5976 72.6996 64.6975 72.4514 64.8095C72.1949 64.9255 71.996 65.0436 71.8811 65.1586C71.8256 65.2136 71.8007 65.2576 71.7912 65.2886C71.7835 65.3136 71.783 65.3395 71.7981 65.3765C71.8364 65.4695 71.9779 65.6306 72.3703 65.8386L72.4982 66.0096C72.5302 66.1656 72.5189 66.3156 72.4631 66.4526C72.4082 66.5866 72.3169 66.6935 72.2131 66.7785C72.0116 66.9435 71.7314 67.0526 71.4621 67.1366C71.2011 67.2186 70.8741 67.2986 70.632 67.3696C70.365 67.4476 70.1595 67.5256 70.0324 67.6156L69.9191 67.6596C68.0414 67.8946 66.2376 68.3326 64.5637 69.1716L64.5275 69.1866C63.4488 69.5276 62.4611 69.8836 62.0373 70.8736L61.9572 70.9745C60.96 71.7195 59.8201 72.0626 58.6652 72.2766C58.0882 72.3836 57.5001 72.4586 56.924 72.5346C56.3455 72.6106 55.7769 72.6875 55.2248 72.7965L55.0764 72.7806C54.901 72.7036 54.6407 72.6295 54.3391 72.5375C54.0505 72.4495 53.7287 72.3466 53.4748 72.2156C53.3476 72.1506 53.2232 72.0715 53.1262 71.9735C53.0276 71.8745 52.9451 71.7426 52.9318 71.5796C52.9186 71.4156 52.9784 71.2616 53.0783 71.1236C53.177 70.9866 53.3241 70.8516 53.5158 70.7146L53.5344 70.7036C54.0557 70.3956 54.6664 70.1735 55.1906 69.9345C55.7314 69.6885 56.2197 69.4086 56.5979 68.9676L56.6711 68.9096C57.908 68.2566 59.3398 67.6226 60.8537 67.8286L61.1574 67.8806L61.1897 67.8895C61.4287 67.9745 61.5994 68.0165 61.719 68.0295C61.8372 68.0425 61.88 68.0246 61.8879 68.0206C61.889 68.0196 61.8892 68.0196 61.8898 68.0186C61.8915 68.0166 61.8963 68.0075 61.9016 67.9865C61.9133 67.9395 61.9173 67.8686 61.9133 67.7596C61.9062 67.5676 61.8701 67.2546 61.9191 66.9706C61.9728 66.6616 62.1293 66.3536 62.5061 66.1506C63.1798 65.7166 63.9435 65.4345 64.6506 65.1425C65.3375 64.8595 65.979 64.5615 66.5207 64.1085C66.4851 63.4115 66.5161 62.6315 66.7356 61.9325C66.9689 61.1895 67.4204 60.5245 68.2336 60.1675C68.4114 60.0705 68.5834 59.8835 68.715 59.6515C68.8461 59.4205 68.9225 59.1705 68.9328 58.9735C68.9438 58.7625 68.8813 58.6995 68.8508 58.6845C68.8011 58.6605 68.6309 58.6365 68.2463 58.8535L68.1477 58.8845C67.8026 58.9185 67.4437 58.9796 67.0725 59.0466C66.7045 59.1136 66.322 59.1875 65.9426 59.2395C65.185 59.3435 64.3983 59.3735 63.6691 59.0995L63.5275 58.9646C63.2769 58.3856 62.939 58.1796 62.5744 58.1446C62.1829 58.1076 61.7076 58.2606 61.1897 58.5336C61.1181 58.5816 61.0773 58.6685 61.1174 58.8885C61.1588 59.1155 61.2637 59.3585 61.3566 59.6265C61.3995 59.7495 61.4405 59.8836 61.4563 60.0056C61.4711 60.1216 61.4711 60.2895 61.3586 60.4235C61.241 60.5645 61.0648 60.5966 60.9064 60.5896C60.7453 60.5836 60.5452 60.5365 60.3029 60.4555C59.8291 60.3075 59.4052 60.0635 59.0119 59.7955C58.6317 59.5355 58.2336 59.2195 57.8791 58.9655C57.1385 58.4365 56.4221 58.0535 55.51 58.1835L55.4191 58.1795C54.3824 57.9445 53.333 58.0165 52.2541 58.1625C52.0506 58.6545 51.5296 58.9225 51.0275 59.0765C50.4535 59.2525 49.7949 59.3156 49.3313 59.3526L49.3303 59.3516C48.8435 59.4176 48.1118 59.5135 47.507 59.3955C47.1984 59.3355 46.8936 59.2145 46.6721 58.9795C46.4563 58.7505 46.3458 58.4415 46.3557 58.0535C46.039 57.3855 46.1844 56.7875 46.3537 56.2745C46.4438 56.0015 46.5335 55.7715 46.592 55.5315C46.646 55.3095 46.6635 55.1055 46.6252 54.9035C46.4079 54.4845 46.0948 54.0235 45.7434 53.6125C45.4122 53.2255 45.0578 52.8965 44.7316 52.6885C43.3017 53.1655 41.8329 53.5745 40.3352 53.7575C39.3545 54.3055 38.0914 54.2825 37.1203 54.2105L37.0031 54.1705C36.3151 53.7275 35.6515 53.1855 35.009 52.7285C34.3524 52.2615 33.6829 51.8555 32.9152 51.6205L32.9133 51.6195C32.5093 51.4925 32.2178 51.2975 32.1311 50.9955C32.0461 50.6985 32.1943 50.4165 32.3527 50.2095C32.5193 49.9915 32.7516 49.7835 32.968 49.6095C33.1822 49.4365 33.4081 49.2755 33.5402 49.1745L33.719 49.1255C34.6704 49.2285 35.6505 49.5445 36.5647 49.7705C37.4698 49.9945 38.3304 50.1335 39.1555 49.9725C39.1887 49.9285 39.2068 49.8865 39.215 49.8475C39.2267 49.7915 39.2229 49.7255 39.1965 49.6465C39.1414 49.4815 38.9969 49.2885 38.7805 49.1035C38.5679 48.9215 38.3058 48.7635 38.0481 48.6595C37.7939 48.5565 37.5686 48.5185 37.4094 48.5375C36.3859 48.9075 35.1173 49.2996 33.9592 48.6166C32.3208 47.9206 30.6966 47.3325 28.9592 47.4935L28.8205 47.4655C28.6598 47.3825 28.4547 47.1935 28.2609 46.9845C28.0592 46.7675 27.844 46.4985 27.6643 46.2295C27.4876 45.9645 27.3311 45.6795 27.2658 45.4285C27.2334 45.3045 27.2165 45.1635 27.2522 45.0295C27.2919 44.8805 27.3923 44.7606 27.5451 44.6986L27.677 44.6835C28.0379 44.7385 28.2338 44.6805 28.3557 44.5995C28.4861 44.5135 28.577 44.3735 28.6799 44.1705C28.8619 43.8125 29.0693 43.2436 29.758 43.0714C30.2203 42.2461 30.8339 41.2657 31.9816 40.92C32.6514 40.5006 33.2191 39.9187 33.844 39.3293C34.4649 38.7436 35.1369 38.1605 35.9836 37.8283L36.0861 37.8106C36.6658 37.8358 37.2441 37.9616 37.8068 38.1085C38.3804 38.2582 38.9189 38.4238 39.4709 38.5499C40.5579 38.7982 41.5706 38.8572 42.5363 38.2501C43.6435 37.4694 44.8315 36.799 46.2678 36.6983C47.1386 36.4466 48.0674 36.4796 48.9191 36.4708C49.7738 36.462 50.5635 36.4107 51.2707 36.0559C51.5722 35.5735 51.5597 35.0431 51.342 34.5392C51.1142 34.012 50.6705 33.533 50.1779 33.2315L50.1701 33.2276C49.9522 33.0836 49.7873 32.9569 49.674 32.8438C49.5718 32.7418 49.4653 32.6054 49.4602 32.4425C49.4537 32.2372 49.601 32.1225 49.7082 32.0704C49.8148 32.0188 49.9478 31.9921 50.0725 31.9748C50.3236 31.9401 50.6603 31.9313 50.9465 31.9143C51.2476 31.8964 51.4895 31.8683 51.633 31.8137C51.9015 31.6798 51.928 31.5651 51.927 31.5089C51.9252 31.4189 51.8561 31.2775 51.6721 31.1056C51.4973 30.9424 51.2567 30.7876 51.009 30.6681C50.7614 30.5486 50.5262 30.4737 50.3615 30.4543C49.6535 30.4269 48.9288 30.5491 48.1877 30.7179C47.465 30.8825 46.6932 31.0999 45.9621 31.2434C45.5689 31.3789 45.1787 31.568 44.7775 31.7717C44.3776 31.9747 43.9619 32.195 43.5412 32.3741C42.6979 32.7332 41.7842 32.9514 40.7756 32.5831C37.8409 31.9381 34.8104 31.8076 31.8518 32.2931L31.8029 32.296C29.6948 32.2272 27.3929 32.2916 25.343 31.4259L25.2111 31.296C25.0885 31.0164 24.9895 30.7148 24.9367 30.4239C24.8846 30.1364 24.8741 29.841 24.9475 29.5822C25.0237 29.3141 25.1923 29.0824 25.4807 28.9611C25.7479 28.8489 26.0859 28.8457 26.4885 28.9387C26.7626 28.9184 27.0382 28.9207 27.3049 28.9269C27.5882 28.9334 27.8587 28.9438 28.1272 28.9387C28.3796 28.9338 28.6214 28.913 28.8527 28.8663C25.272 28.0961 21.6432 27.6348 18.0119 26.9797L17.9416 26.5108C19.2046 25.8623 20.5694 25.6239 21.9123 25.4317C23.267 25.2379 24.5929 25.0916 25.8449 24.6447L25.8791 24.6349C27.3202 24.3439 28.7223 23.9039 30.1486 23.4816C31.5649 23.0624 33.0026 22.662 34.4963 22.4572C35.1743 22.2895 35.855 22.3195 36.51 22.3878C37.1828 22.4579 37.8079 22.5643 38.4406 22.5714L38.6535 22.9483C38.3229 23.508 38.3179 23.9212 38.4563 24.1534C38.5888 24.3757 38.9292 24.5538 39.5881 24.4659H39.6506C43.0441 24.8713 46.6654 25.1801 49.6193 23.38L49.7111 23.3458C50.6345 23.2007 51.5632 23.3382 52.4475 23.4562C53.3356 23.5748 54.1852 23.6741 55.0266 23.5118C55.3524 23.3639 55.4744 23.23 55.509 23.1524C55.5298 23.1055 55.5311 23.0554 55.4533 22.9787C55.3664 22.8932 55.2025 22.8071 54.9787 22.7599C54.7591 22.7136 54.5022 22.7088 54.2482 22.7647L54.1555 22.7678C51.9768 22.4243 49.8291 22.0619 47.6477 22.0909L47.3986 21.8849C47.2894 21.2698 47.0653 20.8568 46.7492 20.6114C46.4353 20.3678 45.989 20.2579 45.3664 20.3332H45.3068C44.2064 20.2021 43.0978 20.1462 41.9807 20.0988C40.8662 20.0516 39.74 20.0122 38.6184 19.9133L38.3938 19.7072C38.2573 18.933 37.7371 18.4782 37.0354 18.1213C36.683 17.9421 36.2967 17.7938 35.9025 17.6428C35.5237 17.4976 35.1351 17.3481 34.7883 17.171C31.2828 16.2247 27.6887 15.4183 24.1818 14.4073L24.0891 13.9777C24.3072 13.7905 24.5766 13.658 24.8391 13.5489C24.9713 13.494 25.1081 13.4433 25.2385 13.3937C25.3703 13.3437 25.4975 13.2948 25.6184 13.2434C26.1156 13.0317 26.4127 12.8099 26.4543 12.4083L26.4631 12.3634C26.564 12.0176 26.804 11.8213 27.094 11.7238C27.3674 11.632 27.6916 11.625 28.0002 11.6389C28.1573 11.6459 28.3192 11.6582 28.4758 11.671C28.6339 11.6839 28.7875 11.6967 28.9357 11.7043C29.2375 11.7197 29.4882 11.7119 29.676 11.6554L29.7434 11.6447C32.3786 11.5909 35.059 11.3817 37.5539 10.6437L37.5764 10.6389C38.2247 10.5106 38.6259 10.0829 39.0529 9.55285C39.459 9.04885 39.8989 8.43155 40.6037 8.09975C42.3921 6.48935 44.6098 5.13935 47.1447 5.08315C48.179 4.95405 49.1686 4.74265 50.2219 4.58215C51.2533 4.42505 52.3069 4.32505 53.3879 4.43955C53.6661 4.40315 53.9589 4.41495 54.2424 4.44155C54.3914 4.45555 54.542 4.47445 54.6887 4.49235C54.8366 4.51035 54.9815 4.52745 55.1232 4.54115C55.6501 4.59205 56.0703 4.57605 56.3781 4.38195C56.3743 4.37425 56.3715 4.36475 56.3654 4.35565C56.3309 4.30395 56.2653 4.24075 56.1613 4.17005C55.9512 4.02735 55.6632 3.90055 55.3762 3.76675C55.2384 3.70245 55.0995 3.63555 54.9836 3.56755C54.8754 3.50405 54.7522 3.42005 54.677 3.30975C54.6359 3.24945 54.6007 3.16905 54.6018 3.07335C54.603 2.97575 54.6417 2.89195 54.6936 2.82635C54.7871 2.70815 54.9444 2.62215 55.1232 2.54995L55.1955 2.53235C57.0771 2.36835 58.9825 2.41315 60.8518 2.39665C62.7275 2.38005 64.5779 2.30105 66.3898 1.89955C67.1212 1.71305 67.8111 1.36715 68.5412 1.02845C69.2613 0.694448 70.0174 0.370848 70.8332 0.278448L70.844 0.277448ZM41.1848 74.9376C41.456 74.8006 41.8138 74.8215 42.2229 74.9865C42.5444 75.0475 42.8165 75.1555 43.0197 75.2965C43.2238 75.4395 43.3853 75.6356 43.4162 75.8706C43.4494 76.1226 43.3223 76.3435 43.1096 76.4945C42.9041 76.6395 42.6065 76.7335 42.2316 76.7725L42.2102 76.7736C41.3446 76.7876 40.8147 76.2146 40.7873 75.6556C40.7735 75.3736 40.8956 75.0836 41.1848 74.9376ZM49.4426 72.0126H49.4416C51.1177 72.0486 52.8203 72.4356 54.3938 73.0046L54.5422 73.3296C54.4076 73.6786 54.1702 73.8816 53.8752 73.9726C53.5995 74.0586 53.2889 74.0425 53.0022 74.0055C52.856 73.9875 52.706 73.9625 52.5627 73.9385C52.4175 73.9145 52.2773 73.8905 52.1418 73.8745C51.8659 73.8405 51.6378 73.8396 51.4592 73.8946L51.4172 73.9036C50.7623 73.9886 50.1347 74.0266 49.5217 74.1536C48.9204 74.2786 48.3772 74.4846 47.9299 74.8816L47.8693 74.9215C47.1734 75.2495 46.4724 75.5716 45.7883 75.8986L45.7873 75.8975C45.1341 76.2135 44.3712 75.9505 43.9768 75.5525C43.7777 75.3515 43.6252 75.0676 43.6926 74.7606C43.7616 74.4476 44.0351 74.2225 44.4328 74.0875L44.4748 74.0785C45.3231 73.9495 46.0054 73.4386 46.7795 72.9246C47.5344 72.4236 48.3674 71.9316 49.4426 72.0126ZM170.056 64.8246C170.352 64.7626 170.687 64.7985 170.997 64.8925C171.309 64.9875 171.616 65.1476 171.859 65.3546C172.09 65.5506 172.279 65.8056 172.338 66.1056C172.507 66.4896 172.68 66.8775 172.849 67.2635C173.072 67.4945 173.114 67.8296 173.085 68.1216C173.053 68.4426 172.934 68.7816 172.776 69.0506C172.697 69.1856 172.604 69.3116 172.5 69.4106C172.399 69.5066 172.27 69.5946 172.12 69.6226C171.955 69.6526 171.793 69.6036 171.664 69.4816C171.552 69.3766 171.474 69.2235 171.416 69.0435C171.091 68.4855 170.678 67.9735 170.277 67.4035C169.881 66.8395 169.507 66.2335 169.327 65.5415L169.339 65.3806C169.475 65.0586 169.753 64.8876 170.056 64.8246ZM86.5432 63.0455C87.3121 62.9925 88.1884 62.9505 89.0188 63.0785C89.7995 63.1985 90.5595 63.4705 91.1594 64.0425L91.2775 64.1605L91.3449 64.3156C91.3552 64.4746 91.3072 64.6186 91.1994 64.7306C91.1005 64.8336 90.9702 64.8896 90.8479 64.9216C90.6065 64.9866 90.2884 64.9915 89.9856 64.9875C89.6673 64.9835 89.3489 64.9705 89.0559 64.9865C88.7578 65.0025 88.5369 65.0475 88.4025 65.1285L88.3645 65.1466C88.2731 65.1826 88.1783 65.2096 88.093 65.2326C88.0038 65.2566 87.9263 65.2776 87.8508 65.3016C87.7113 65.3466 87.6193 65.3956 87.5578 65.4626C87.1165 66.4806 86.2438 67.1125 85.2619 67.3755C84.2851 67.6355 83.1886 67.5355 82.2648 67.0865C81.5884 67.0375 80.9562 66.6676 80.7102 66.1876C80.5775 65.9286 80.5543 65.6236 80.7268 65.3446C80.883 65.0926 81.1753 64.9035 81.5822 64.7775C82.0284 64.3355 82.4803 64.0626 82.9807 64.0326C83.4881 64.0016 83.9844 64.2246 84.5061 64.6346C84.8587 64.7956 85.3087 64.7046 85.6916 64.4246C86.0794 64.1416 86.3302 63.7125 86.3107 63.3065L86.5432 63.0455ZM165.443 61.4626C166.618 60.8126 167.809 61.3925 168.745 61.9205C169.253 61.8495 169.768 61.7785 170.268 61.7085L170.533 61.8585C170.595 62.0045 170.729 62.2405 170.887 62.5305C171.038 62.8085 171.206 63.1255 171.313 63.4055C171.367 63.5445 171.411 63.6875 171.426 63.8195C171.44 63.9435 171.434 64.1095 171.329 64.2425C171.214 64.3875 171.039 64.4226 170.881 64.4116C170.73 64.4006 170.552 64.3476 170.348 64.2616C170.15 64.2256 169.876 64.1355 169.611 64.0485C169.317 63.9525 169.013 63.8565 168.752 63.8055C168.622 63.7805 168.512 63.7695 168.427 63.7725C168.339 63.7755 168.301 63.7925 168.289 63.8005C168.286 63.8035 168.284 63.8045 168.283 63.8065C168.282 63.8095 168.276 63.8205 168.274 63.8445C168.271 63.8855 168.278 63.9515 168.308 64.0505L168.346 64.1615L168.362 64.2395C168.37 64.4295 168.354 64.6015 168.29 64.7375C168.217 64.8935 168.084 64.9926 167.916 65.0076C167.774 65.0206 167.635 64.9725 167.521 64.9195C167.403 64.8625 167.278 64.7836 167.156 64.6986C166.922 64.5346 166.638 64.3035 166.412 64.1355C166.293 64.0475 166.182 63.9695 166.083 63.9115C165.981 63.8515 165.906 63.8205 165.855 63.8095L165.853 63.8085C165.475 63.7225 165.153 63.6015 164.91 63.4465C164.669 63.2935 164.48 63.0905 164.416 62.8365C164.35 62.5725 164.434 62.3125 164.614 62.0855C164.747 61.9175 164.938 61.7585 165.182 61.6085L165.443 61.4626ZM1.0344 35.5354C1.92693 35.5348 2.83308 35.7363 3.67795 35.8604C4.53914 35.9869 5.36754 36.04 6.19065 35.7863L6.24241 35.7765C7.13872 35.7006 7.97472 35.9379 8.76682 36.1935C9.56977 36.4526 10.3218 36.7271 11.1174 36.7863C11.3036 36.793 11.5966 36.8455 11.9045 36.919C12.2182 36.994 12.568 37.0956 12.8713 37.2081C13.0228 37.2643 13.1668 37.3253 13.2902 37.3878C13.41 37.4485 13.5257 37.5187 13.6106 37.5988C13.6843 37.6686 13.8071 37.8168 13.7502 38.0108C13.6992 38.1841 13.5355 38.2683 13.4182 38.3126L13.3117 38.3283C12.087 38.24 11.0562 38.1913 10.2512 39.0382L9.9719 39.0958C7.34755 37.9842 4.68565 36.8082 1.87229 37.3272L1.8596 37.3302C1.55245 37.3703 1.22468 37.3015 0.942599 37.1866C0.660483 37.0716 0.395839 36.8988 0.220919 36.7022C0.0592903 36.5206 -0.0988972 36.2233 0.0773641 35.9356C0.157547 35.8051 0.289239 35.7148 0.440646 35.6544C0.592913 35.5937 0.784379 35.5553 1.01389 35.5363L1.0344 35.5354Z" fill="#718FD5" stroke="white" stroke-width="0.5" stroke-linejoin="round"/>
</svg>
