<svg width="305" height="205" viewBox="0 0 305 205" fill="none" xmlns="http://www.w3.org/2000/svg">
<path d="M275.625 176.231C275.915 176.131 276.225 176.157 276.505 176.245C276.795 176.333 277.065 176.489 277.275 176.678C277.425 176.817 277.565 176.986 277.645 177.173C278.005 177.22 278.265 177.384 278.445 177.625C278.645 177.885 278.735 178.221 278.815 178.518C278.895 178.834 278.965 179.116 279.085 179.353C279.175 179.542 279.295 179.686 279.475 179.776C279.715 179.623 279.955 179.451 280.205 179.271C280.495 179.068 280.805 178.861 281.125 178.701C281.735 178.397 282.415 178.25 283.155 178.595L283.305 178.671L283.365 178.713C283.645 178.997 283.765 179.297 283.785 179.597C283.805 179.879 283.735 180.157 283.685 180.379C283.635 180.618 283.605 180.8 283.635 180.966C283.665 181.114 283.755 181.277 284.005 181.453L284.095 181.571C284.225 181.912 284.185 182.217 284.055 182.488C283.935 182.746 283.725 182.966 283.525 183.159C283.315 183.364 283.105 183.531 282.925 183.727C282.745 183.917 282.615 184.098 282.555 184.291L282.485 184.407C280.985 185.719 279.415 187.176 277.575 188.1C277.385 188.281 277.125 188.443 276.895 188.584C276.635 188.742 276.415 188.879 276.255 189.018C276.085 189.164 276.075 189.241 276.085 189.278C276.095 189.342 276.195 189.485 276.555 189.694C276.835 189.7 277.125 189.766 277.385 189.864C277.675 189.97 277.945 190.12 278.115 190.287C278.205 190.369 278.285 190.475 278.325 190.602C278.365 190.75 278.335 190.904 278.215 191.022C278.115 191.124 277.975 191.183 277.815 191.219C277.655 191.256 277.455 191.276 277.205 191.278L277.175 191.277C276.895 191.253 276.625 191.177 276.365 191.098C276.105 191.017 275.875 190.938 275.645 190.885C275.415 190.833 275.195 190.813 274.985 190.848C274.825 190.877 274.645 190.944 274.465 191.07C274.455 191.082 274.455 191.094 274.445 191.099C274.445 191.107 274.425 191.12 274.425 191.125C274.415 191.133 274.405 191.139 274.405 191.14C274.395 191.143 274.395 191.145 274.395 191.146C274.385 191.149 274.385 191.15 274.385 191.151C274.375 191.156 274.365 191.16 274.355 191.163C274.345 191.171 274.315 191.184 274.275 191.204V191.201C274.265 191.204 274.255 191.208 274.255 191.212C274.195 191.237 274.135 191.266 274.095 191.286C274.085 191.29 274.075 191.293 274.065 191.297C273.685 191.592 273.225 191.822 272.775 192.033C272.325 192.24 271.885 192.431 271.495 192.659C271.435 192.811 271.355 192.935 271.225 193.022C271.075 193.127 270.905 193.159 270.745 193.16C270.435 193.162 270.075 193.046 269.805 192.956C269.665 192.91 269.545 192.87 269.445 192.844C269.455 192.87 269.475 192.901 269.495 192.935C269.785 193.083 269.995 193.294 270.125 193.543C270.255 193.811 270.305 194.11 270.295 194.394C270.275 194.958 270.045 195.523 269.855 195.855L269.595 195.976C269.415 195.942 269.095 195.884 268.765 195.831C268.905 195.908 269.015 196.002 269.095 196.121C269.265 196.385 269.215 196.681 269.125 196.926C269.035 197.171 268.885 197.433 268.745 197.67C268.595 197.918 268.465 198.148 268.385 198.361L268.375 198.392C268.235 198.678 268.105 198.981 267.975 199.296C267.845 199.606 267.705 199.927 267.545 200.226C267.205 200.828 266.745 201.361 265.945 201.608C265.475 201.78 265.145 202.105 264.735 202.456C264.345 202.79 263.905 203.133 263.275 203.244C263.055 203.346 262.845 203.48 262.615 203.623C262.395 203.768 262.145 203.925 261.895 204.051C261.385 204.304 260.815 204.442 260.145 204.141C259.085 203.87 258.115 203.607 257.135 203.957L256.865 203.888C256.425 203.398 255.885 203.129 255.275 202.953C254.655 202.774 253.995 202.7 253.315 202.579L253.115 202.402C253.035 202.118 252.915 201.969 252.785 201.891C252.665 201.813 252.495 201.787 252.305 201.811C251.915 201.862 251.485 202.119 251.215 202.361L251.115 202.419C249.975 202.711 248.725 202.278 247.945 201.651L247.975 201.24C248.105 201.168 248.165 201.082 248.215 200.981C248.235 200.926 248.255 200.869 248.285 200.8C248.305 200.734 248.335 200.654 248.375 200.577C248.455 200.41 248.595 200.254 248.835 200.157C248.915 200.123 249.015 200.099 249.125 200.082C249.105 200.067 249.085 200.053 249.075 200.039C248.955 199.921 248.865 199.812 248.805 199.714C248.785 199.666 248.755 199.588 248.765 199.498C248.775 199.386 248.845 199.305 248.925 199.263C248.995 199.227 249.055 199.22 249.105 199.219C249.155 199.217 249.205 199.22 249.255 199.226C249.365 199.241 249.515 199.276 249.665 199.313C249.615 199.249 249.585 199.184 249.555 199.121C249.435 198.857 249.445 198.578 249.645 198.376C249.825 198.196 250.105 198.132 250.385 198.136C250.655 198.139 250.985 198.21 251.325 198.349C251.415 198.36 251.485 198.365 251.545 198.365C251.535 198.361 251.535 198.355 251.535 198.35C251.475 198.266 251.405 198.169 251.325 198.052C251.165 197.836 250.955 197.541 250.885 197.247C250.855 197.089 250.855 196.913 250.945 196.745C251.035 196.58 251.195 196.455 251.395 196.364C252.365 195.889 253.135 195.204 254.015 194.479C254.755 193.733 255.435 192.862 256.635 192.41L256.645 192.408L257.325 192.185C257.555 192.115 257.785 192.047 258.015 191.979C258.475 191.843 258.925 191.708 259.365 191.554C260.255 191.245 261.085 190.862 261.805 190.257L261.915 190.205C262.365 190.1 262.855 189.876 263.255 189.563C263.665 189.25 263.965 188.863 264.075 188.438L264.135 188.322C264.625 187.83 265.225 187.671 265.785 187.549C266.355 187.422 266.875 187.333 267.325 187.028L267.395 186.995C267.925 186.843 268.335 186.544 268.695 186.187C269.065 185.817 269.335 185.428 269.675 185.046L269.805 184.967C270.145 184.888 270.305 184.771 270.385 184.663C270.465 184.55 270.495 184.402 270.495 184.186C270.495 184.079 270.485 183.967 270.485 183.841C270.475 183.717 270.475 183.583 270.475 183.446C270.485 183.171 270.535 182.869 270.705 182.579C270.945 182.086 271.395 181.871 271.825 181.703C272.275 181.525 272.725 181.392 273.125 181.084L273.195 181.046C273.615 180.903 273.835 180.669 273.965 180.385C274.105 180.085 274.155 179.716 274.185 179.293C274.225 178.885 274.235 178.418 274.335 177.995C274.435 177.582 274.605 177.181 274.975 176.867C275.115 176.539 275.345 176.329 275.625 176.231ZM274.075 190.895L274.175 191.045C274.175 191.082 274.165 191.122 274.165 191.155C274.155 191.151 274.135 191.148 274.125 191.142C274.065 191.084 274.015 190.934 274.025 190.86V190.857C274.045 190.867 274.065 190.881 274.075 190.895ZM147.465 176.61C147.605 176.598 147.755 176.616 147.895 176.645C148.175 176.704 148.495 176.821 148.775 176.926C148.995 177.008 149.195 177.08 149.345 177.124L149.495 177.158C151.425 177.571 153.315 178.149 155.165 178.701C156.045 178.77 156.875 178.523 157.775 178.286C158.625 178.062 159.525 177.852 160.485 178.019C160.845 177.656 161.355 177.281 161.885 177.103C162.185 177.006 162.505 176.963 162.805 177.031C163.085 177.092 163.335 177.238 163.535 177.481L163.625 177.592L163.635 177.599L163.745 177.79C163.985 178.247 164.095 178.79 164.135 179.327C164.195 179.94 164.175 180.588 164.175 181.129L164.155 181.214C163.865 182.039 163.395 182.835 163.035 183.595C162.655 184.37 162.365 185.137 162.345 185.982L162.315 186.097C161.925 186.841 161.185 187.044 160.545 187.205C159.875 187.374 159.285 187.502 158.905 187.973L158.845 188.026C158.655 188.147 158.495 188.325 158.345 188.545C158.185 188.769 158.055 189.009 157.895 189.265C157.595 189.751 157.205 190.284 156.515 190.391L156.355 190.365C155.895 190.117 155.395 189.911 154.875 189.708C154.365 189.506 153.825 189.305 153.325 189.068C152.305 188.593 151.355 187.957 150.795 186.811V186.81C150.735 186.679 150.585 186.499 150.385 186.274C150.195 186.062 149.955 185.813 149.765 185.581C149.575 185.353 149.385 185.098 149.315 184.854C149.275 184.727 149.265 184.581 149.315 184.436C149.375 184.289 149.485 184.181 149.635 184.109L149.855 184.108C150.035 184.198 150.265 184.291 150.495 184.36C150.715 184.431 150.915 184.468 151.045 184.462C151.075 184.461 151.085 184.455 151.105 184.452C151.095 184.425 151.085 184.378 151.055 184.31C151.005 184.213 150.925 184.086 150.805 183.926C149.945 183.104 149.025 182.217 148.285 181.219C147.545 180.215 146.985 179.084 146.895 177.768C146.795 177.351 146.815 176.989 147.055 176.772C147.175 176.665 147.325 176.622 147.465 176.61ZM278.125 147.362C278.265 147.35 278.415 147.373 278.535 147.48C278.645 147.583 278.675 147.72 278.685 147.822C278.695 147.926 278.685 148.042 278.685 148.144C278.665 148.368 278.645 148.569 278.685 148.754C278.715 148.898 278.775 149.021 278.915 149.115L278.985 149.154L279.075 149.236C279.245 149.485 279.385 149.589 279.495 149.636C279.615 149.684 279.735 149.687 279.905 149.676C280.065 149.665 280.285 149.638 280.515 149.667C280.745 149.697 280.995 149.783 281.255 149.976C281.465 150.064 281.685 150.138 281.925 150.215C282.175 150.292 282.435 150.374 282.665 150.476C283.025 150.632 283.375 150.853 283.555 151.222C283.725 151.115 283.895 151.062 284.065 151.095C284.205 151.121 284.315 151.2 284.395 151.284C284.465 151.366 284.535 151.467 284.585 151.562C284.705 151.774 284.775 151.959 284.915 152.157C285.005 152.294 285.105 152.409 285.225 152.491L285.365 152.561L285.415 152.593C285.845 152.913 285.875 153.466 285.685 153.845C285.595 154.016 285.455 154.166 285.275 154.252C285.305 154.277 285.335 154.304 285.375 154.329C285.605 154.506 285.875 154.697 286.115 154.9C286.605 155.31 287.035 155.834 286.995 156.603L286.695 156.836C286.695 156.835 286.695 156.834 286.685 156.834C286.765 156.923 286.855 157.023 286.955 157.127C287.065 157.236 287.175 157.351 287.265 157.458C287.355 157.558 287.445 157.677 287.495 157.79C287.515 157.845 287.545 157.939 287.515 158.042C287.485 158.165 287.395 158.237 287.305 158.269C287.225 158.298 287.135 158.301 287.055 158.296C286.985 158.291 286.895 158.277 286.795 158.256C286.765 158.254 286.745 158.252 286.715 158.25C286.825 158.321 286.935 158.4 287.035 158.484C287.135 158.572 287.235 158.681 287.295 158.807C287.325 158.872 287.345 158.943 287.355 159.017C287.445 159.045 287.575 159.066 287.725 159.08C287.935 159.1 288.215 159.111 288.435 159.152C288.645 159.193 288.925 159.281 289.045 159.54C289.145 159.733 289.125 159.961 289.035 160.212C289.045 160.213 289.045 160.214 289.045 160.215C289.065 160.219 289.085 160.226 289.105 160.237C289.115 160.243 289.125 160.252 289.145 160.264C289.155 160.272 289.175 160.286 289.185 160.304C289.475 160.446 289.705 160.52 289.885 160.541C290.085 160.564 290.175 160.518 290.195 160.489C290.225 160.466 290.265 160.396 290.225 160.215C290.175 160.034 290.055 159.786 289.835 159.475L289.785 159.304C289.805 159.102 289.855 158.926 289.945 158.788C290.045 158.644 290.185 158.553 290.335 158.514C290.625 158.443 290.945 158.569 291.195 158.73C291.465 158.899 291.725 159.144 291.915 159.409C292.085 159.646 292.225 159.925 292.255 160.199C292.415 160.45 292.505 160.739 292.575 161.015C292.615 161.166 292.645 161.32 292.685 161.465C292.715 161.611 292.745 161.75 292.785 161.882C292.855 162.148 292.945 162.355 293.075 162.5C293.185 162.618 293.335 162.71 293.565 162.744L293.675 162.755L293.725 162.764C294.205 162.895 294.685 163.087 295.145 163.29C295.615 163.496 296.055 163.708 296.515 163.896C297.405 164.263 298.275 164.503 299.175 164.339C299.775 163.929 300.465 163.428 301.195 163.083C301.905 162.749 302.675 162.545 303.475 162.715L303.635 162.754L303.665 162.763C304.035 162.909 304.265 163.153 304.385 163.456C304.495 163.749 304.505 164.076 304.465 164.39C304.385 164.988 304.115 165.655 303.975 166.077C303.975 166.458 303.875 166.767 303.705 167.01C303.525 167.261 303.275 167.418 303.005 167.517C302.555 167.683 301.995 167.7 301.505 167.709C301.465 168.129 301.395 168.635 301.175 169.017C301.035 169.254 300.835 169.456 300.545 169.558C300.265 169.657 299.925 169.65 299.535 169.536C299.035 169.464 298.335 169.561 297.835 169.833C297.585 169.968 297.395 170.138 297.295 170.332C297.195 170.511 297.165 170.731 297.245 171.011C297.695 171.543 297.835 172.138 297.685 172.688C297.535 173.235 297.105 173.691 296.505 173.978C295.355 175.03 294.465 176.375 293.435 177.659C292.405 178.935 291.235 180.123 289.575 180.721L289.505 180.734C288.975 180.772 288.435 180.538 287.985 180.217C287.535 179.892 287.135 179.457 286.865 179.04L286.825 178.872C286.905 178.276 287.205 177.784 287.495 177.338C287.795 176.878 288.065 176.466 288.185 175.984L288.285 175.845C288.765 175.488 288.955 175.074 288.935 174.746C288.915 174.435 288.685 174.107 288.115 173.921L288.005 173.856C287.205 173.027 286.105 172.674 284.945 172.268C283.805 171.872 282.615 171.423 281.815 170.355L281.865 170.011C282.355 169.616 282.955 169.332 283.545 169.071C284.145 168.806 284.735 168.565 285.255 168.251L285.305 168.227C285.575 168.141 285.745 168 285.855 167.83C285.975 167.655 286.035 167.432 286.065 167.171C286.095 166.91 286.095 166.626 286.075 166.335C286.055 166.053 286.035 165.751 286.025 165.491L286.045 165.41C286.135 165.138 286.295 164.884 286.455 164.655C286.615 164.416 286.775 164.207 286.885 163.992C287.005 163.78 287.065 163.595 287.055 163.42C287.055 163.253 286.975 163.059 286.755 162.831V162.83C286.155 162.312 286.145 161.669 286.155 161.127C286.165 160.556 286.185 160.116 285.845 159.739L285.825 159.714C285.195 158.802 284.485 157.95 283.755 157.105L283.725 156.822C283.895 156.519 283.785 156.177 283.455 155.81C283.305 155.65 283.135 155.5 282.945 155.369C283.115 155.547 283.285 155.733 283.375 155.897C283.415 155.957 283.445 156.026 283.465 156.098C283.485 156.169 283.485 156.265 283.445 156.361C283.355 156.571 283.125 156.605 282.975 156.606L282.775 156.513C281.505 154.921 280.275 153.313 278.885 151.848C278.485 151.433 278.395 150.928 278.325 150.486C278.255 150.028 278.185 149.62 277.905 149.243V149.239C277.765 149.049 277.565 148.847 277.345 148.648C277.145 148.46 276.925 148.263 276.785 148.11C276.725 148.039 276.645 147.943 276.605 147.839C276.585 147.781 276.575 147.692 276.615 147.599C276.655 147.504 276.735 147.451 276.795 147.424C276.905 147.377 277.055 147.379 277.195 147.39C277.325 147.402 277.495 147.43 277.705 147.473C277.865 147.412 278.005 147.373 278.125 147.362ZM136.295 37.889C137.445 38.344 138.515 39.299 138.415 40.736C138.455 41.273 138.475 41.907 138.645 42.384C138.735 42.617 138.855 42.783 139.005 42.88C139.145 42.973 139.355 43.024 139.675 42.96L139.845 42.985C140.025 43.085 140.165 43.219 140.235 43.39C140.305 43.559 140.295 43.733 140.255 43.889C140.185 44.186 139.985 44.501 139.825 44.757C139.745 44.893 139.665 45.017 139.605 45.134C139.545 45.251 139.505 45.344 139.495 45.414C139.485 45.478 139.495 45.503 139.505 45.517C139.525 45.538 139.575 45.583 139.715 45.623C140.255 45.764 140.645 46.042 140.925 46.408C141.205 46.771 141.365 47.211 141.455 47.664C141.555 48.117 141.585 48.601 141.605 49.06C141.625 49.41 141.635 49.742 141.655 50.049L141.685 50.348C141.845 51.859 142.365 53.43 143.185 54.666C143.385 54.878 143.555 54.936 143.685 54.938C143.845 54.941 144.015 54.877 144.215 54.75C144.425 54.62 144.625 54.46 144.865 54.289C145.085 54.128 145.345 53.964 145.625 53.885L145.935 54.079C146.045 54.639 146.315 54.981 146.675 55.264C146.855 55.408 147.065 55.537 147.295 55.673C147.515 55.802 147.745 55.938 147.985 56.093C148.545 56.311 149.045 56.597 149.375 57.019C149.705 57.456 149.825 58.009 149.695 58.701C149.645 59.439 149.885 60.123 150.105 60.876C150.325 61.608 150.525 62.397 150.325 63.26C150.265 63.701 150.495 64.051 150.865 64.464C151.035 64.657 151.255 64.882 151.445 65.102C151.625 65.318 151.795 65.558 151.905 65.834C153.415 67.539 153.875 69.949 153.105 72.086C153.595 72.669 153.845 73.374 154.075 74.026C154.325 74.728 154.545 75.362 154.985 75.856C155.375 76.057 155.755 76.287 156.125 76.515C156.515 76.755 156.895 76.992 157.285 77.204C157.965 77.575 158.645 77.858 159.395 77.925L159.715 77.94L159.945 78.087C160.605 79.55 162.135 80.529 163.725 80.784C163.825 80.789 163.935 80.791 164.065 80.793C164.205 80.795 164.355 80.798 164.515 80.804C164.815 80.815 165.145 80.839 165.425 80.911C165.675 80.978 165.985 81.112 166.085 81.417C166.185 81.722 166.035 82.056 165.755 82.396L165.735 82.414C165.515 82.635 165.435 82.837 165.415 83.013C165.405 83.19 165.455 83.372 165.575 83.555C165.815 83.927 166.295 84.252 166.765 84.428L166.925 84.486C167.665 84.799 168.005 85.444 168.235 86.103C168.355 86.452 168.455 86.829 168.545 87.17C168.645 87.519 168.755 87.84 168.895 88.115L168.905 88.119C169.095 88.51 169.225 88.952 169.325 89.386C169.435 89.828 169.525 90.254 169.645 90.658C169.885 91.405 170.215 91.984 170.935 92.237L171.095 92.284L171.185 92.331C171.315 92.436 171.415 92.502 171.485 92.543C171.475 92.534 171.485 92.526 171.475 92.516C171.465 92.407 171.435 92.271 171.405 92.12C171.365 91.975 171.325 91.812 171.295 91.668C171.275 91.528 171.245 91.374 171.255 91.246C171.255 91.182 171.275 91.097 171.315 91.019C171.375 90.929 171.465 90.867 171.585 90.856C171.675 90.847 171.775 90.876 171.845 90.909C171.885 90.926 171.915 90.948 171.965 90.973L172.085 91.057L172.095 91.061L172.255 91.177C172.625 91.432 173.045 91.606 173.495 91.77C173.995 91.955 174.545 92.134 175.045 92.415L175.145 92.517C175.525 93.244 175.545 94.069 175.555 94.829C175.565 95.591 175.565 96.282 175.785 96.881C176.905 97.9 178.035 98.908 179.465 99.191L179.755 99.239L179.855 99.276C180.205 99.496 180.425 99.812 180.595 100.139C180.765 100.457 180.895 100.822 181.015 101.123C181.155 101.438 181.285 101.701 181.465 101.891C181.625 102.05 181.815 102.165 182.085 102.206L182.215 102.22L182.295 102.238C182.655 102.392 182.845 102.686 182.965 102.995C183.075 103.293 183.125 103.645 183.185 103.935C183.245 104.245 183.305 104.495 183.425 104.673C183.525 104.811 183.655 104.917 183.895 104.953L183.995 104.965L184.025 104.968C184.475 105.043 184.795 105.25 185.035 105.54C185.275 105.823 185.415 106.174 185.515 106.528C185.615 106.88 185.685 107.265 185.755 107.608C185.815 107.873 185.875 108.117 185.945 108.329L186.035 108.531L186.055 108.603C186.245 110.1 186.405 111.762 186.085 113.286L186.025 113.402C185.815 113.63 185.735 113.832 185.725 114.013C185.705 114.198 185.755 114.392 185.855 114.606C185.955 114.822 186.105 115.041 186.265 115.278C186.425 115.503 186.595 115.746 186.725 115.995L186.915 116.3C187.855 117.848 188.345 119.798 187.995 121.579L187.975 121.629C187.505 122.735 187.255 123.912 186.995 125.119C186.735 126.317 186.465 127.545 185.955 128.705L185.935 128.732C185.585 129.313 185.615 129.92 185.705 130.609C185.795 131.271 185.945 132.032 185.755 132.789C185.655 133.893 185.085 134.786 184.535 135.619C183.975 136.474 183.435 137.266 183.285 138.22L183.245 138.32C182.905 138.813 182.545 139.381 182.105 139.824C181.655 140.267 181.105 140.599 180.365 140.64C179.885 140.807 179.495 141.181 179.145 141.657C178.795 142.133 178.515 142.665 178.225 143.152C178.135 143.516 178.065 143.888 177.995 144.269C177.915 144.659 177.835 145.056 177.735 145.442C177.515 146.217 177.175 146.968 176.515 147.578L176.505 147.592C176.065 147.93 175.965 148.355 175.925 148.875C175.915 149.122 175.905 149.429 175.875 149.706C175.835 149.989 175.775 150.284 175.635 150.57C175.475 150.999 175.195 151.314 174.885 151.571C174.575 151.826 174.205 152.04 173.885 152.242C173.235 152.661 172.735 153.06 172.715 153.844L172.705 153.914C171.985 156.106 171.865 158.479 171.805 160.783L171.795 160.842C171.315 162.602 169.685 163.847 167.845 163.765C167.295 163.845 166.725 163.872 166.165 163.891C165.595 163.911 165.045 163.923 164.495 163.971C163.405 164.065 162.395 164.302 161.525 165.002L161.505 165.021C160.225 165.794 158.885 166.725 157.495 167.282C157.345 167.559 157.115 167.726 156.855 167.824C156.565 167.931 156.235 167.965 155.945 167.979C155.795 167.986 155.645 167.989 155.505 167.991C155.375 167.994 155.255 167.997 155.145 168.005C155.125 168.006 155.105 168.008 155.095 168.01C155.285 168.225 155.425 168.397 155.505 168.528C155.535 168.575 155.555 168.623 155.575 168.67C155.595 168.714 155.615 168.775 155.615 168.843C155.605 168.918 155.575 169.005 155.505 169.069C155.435 169.126 155.355 169.14 155.305 169.143C155.205 169.149 155.105 169.121 155.015 169.091C154.915 169.058 154.805 169.011 154.685 168.954C154.445 168.839 154.155 168.676 153.825 168.484L153.805 168.471C153.405 168.18 152.865 167.998 152.305 167.791C151.775 167.593 151.195 167.366 150.835 166.966L150.765 166.753C150.885 166.113 150.565 165.66 150.035 165.253C149.775 165.048 149.465 164.866 149.145 164.685C148.855 164.517 148.545 164.347 148.295 164.17C148.165 164.137 147.935 164.134 147.645 164.176C147.355 164.219 147.025 164.304 146.765 164.412C146.635 164.466 146.515 164.523 146.425 164.581C146.335 164.641 146.295 164.691 146.275 164.723C146.275 164.728 146.265 164.732 146.265 164.735C146.275 164.746 146.295 164.786 146.395 164.844C146.625 164.935 146.805 165.02 146.945 165.101C147.085 165.183 147.205 165.274 147.285 165.382C147.325 165.438 147.355 165.508 147.365 165.588C147.375 165.67 147.355 165.748 147.315 165.813C147.255 165.933 147.135 166.009 147.045 166.057C146.845 166.159 146.555 166.235 146.275 166.301C145.975 166.37 145.695 166.424 145.415 166.491C144.695 166.777 144.005 167.143 143.275 167.495C142.555 167.846 141.805 168.18 141.005 168.368L140.865 168.357C139.815 167.953 138.775 167.464 137.765 167.035C136.735 166.602 135.705 166.22 134.615 166.004L134.535 165.97C134.285 165.816 134.075 165.769 133.875 165.773C133.665 165.778 133.465 165.838 133.245 165.92C133.035 165.997 132.795 166.106 132.555 166.168C132.305 166.231 132.035 166.256 131.755 166.168C129.545 165.694 127.765 164.262 126.215 162.785C125.625 162.543 125.225 162.102 124.945 161.606C124.655 161.1 124.465 160.522 124.315 160.021L124.305 159.9C124.645 158.171 124.425 156.295 123.035 155.191C122.715 155.022 122.555 154.743 122.465 154.456C122.375 154.168 122.345 153.842 122.325 153.576C122.295 153.288 122.265 153.081 122.195 152.948C122.165 152.89 122.135 152.859 122.095 152.84C122.065 152.82 122.005 152.802 121.895 152.809H121.865C121.325 152.786 120.845 153.029 120.285 153.314C119.765 153.584 119.165 153.887 118.455 153.862C118.035 153.97 117.695 153.988 117.445 153.896C117.305 153.847 117.195 153.764 117.115 153.647C117.035 153.531 117.005 153.4 117.005 153.271C117.015 153.023 117.135 152.763 117.315 152.536C117.475 152.323 117.695 152.119 117.955 151.95C118.165 151.418 118.395 150.812 118.445 150.24C118.505 149.652 118.375 149.141 117.915 148.775C117.675 148.6 117.465 148.328 117.275 148.078C117.075 147.81 116.915 147.565 116.745 147.389C116.665 147.302 116.605 147.249 116.555 147.222C116.535 147.209 116.515 147.204 116.505 147.203C116.495 147.202 116.495 147.202 116.495 147.203C116.485 147.205 116.445 147.22 116.385 147.306C116.325 147.394 116.255 147.536 116.185 147.752L116.135 147.835C115.725 148.313 115.565 148.96 115.395 149.672C115.225 150.354 115.025 151.107 114.485 151.631L114.285 151.699C113.765 151.65 113.285 151.725 112.795 151.836C112.315 151.944 111.795 152.093 111.245 152.163L110.985 151.808C111.105 151.565 111.195 151.303 111.285 151.032C111.385 150.771 111.495 150.498 111.635 150.274C111.785 150.045 111.995 149.85 112.295 149.772C112.575 149.703 112.885 149.738 113.255 149.871C113.545 149.753 113.665 149.59 113.725 149.409C113.795 149.186 113.775 148.904 113.725 148.556C113.685 148.227 113.605 147.834 113.615 147.472C113.615 147.11 113.695 146.739 113.975 146.429C114.125 146.117 114.305 145.824 114.485 145.543C114.675 145.248 114.855 144.971 115.025 144.684C115.345 144.118 115.545 143.556 115.445 142.892L115.635 142.61C116.115 142.509 116.465 142.211 116.585 141.876C116.705 141.558 116.635 141.149 116.195 140.758L116.135 140.685C115.925 140.29 115.775 140.047 115.665 139.917C115.665 139.909 115.655 139.902 115.645 139.895C115.625 139.945 115.595 140.012 115.575 140.099C115.505 140.307 115.445 140.588 115.365 140.938L115.275 141.076C115.045 141.261 114.805 141.429 114.575 141.589C114.345 141.751 114.125 141.906 113.915 142.073C113.505 142.403 113.175 142.769 112.995 143.286C112.715 144.682 111.545 145.386 110.305 145.606C108.765 146.54 107.305 147.58 106.705 149.242C106.595 149.589 106.425 149.899 106.235 150.142C106.045 150.385 105.805 150.578 105.545 150.657C105.275 150.741 104.985 150.688 104.745 150.475C104.525 150.274 104.355 149.945 104.245 149.503V149.496C103.785 147.358 102.915 145.332 101.305 143.861L101.235 143.764C101.135 143.496 101.055 143.25 100.945 142.973C100.845 142.71 100.735 142.473 100.595 142.288C100.465 142.105 100.325 141.989 100.165 141.942C100.005 141.896 99.7853 141.904 99.4853 142.044L99.4352 142.06C98.7152 142.223 98.1653 141.736 97.9753 141.193C97.8753 140.917 97.8653 140.604 97.9653 140.317C98.0553 140.079 98.2253 139.874 98.4753 139.732C98.3853 139.316 98.1352 138.951 97.7852 138.607C97.3952 138.225 96.9453 137.909 96.5253 137.572C96.2853 137.515 96.0353 137.514 95.7553 137.545C95.4553 137.578 95.1753 137.639 94.8353 137.689C94.2053 137.784 93.4953 137.821 92.8653 137.3C92.4153 137.003 91.9653 136.705 91.5053 136.562C91.0653 136.423 90.6252 136.437 90.1852 136.763L90.0552 136.81C89.0152 136.888 88.2153 136.389 87.4953 135.863C86.7553 135.323 86.1152 134.772 85.3052 134.564L85.2653 134.548C84.7653 134.31 84.2553 134.42 83.6353 134.606C83.0653 134.78 82.3853 135.029 81.6953 134.912C80.8353 134.983 79.9553 135 79.0853 135.013C78.2053 135.025 77.3353 135.032 76.4653 135.086C74.7353 135.193 73.0752 135.483 71.5452 136.343L71.5153 136.357C69.5853 137.12 67.5153 137.683 65.4453 137.889V137.888C64.8653 137.946 64.2853 137.965 63.7153 137.974C63.1353 137.984 62.5653 137.987 61.9953 138.014C60.8753 138.07 59.7853 138.226 58.7753 138.728L58.7653 138.732C58.3053 138.942 57.8453 139.169 57.3753 139.398C56.9153 139.627 56.4553 139.859 55.9853 140.074C55.0553 140.498 54.0852 140.863 53.0452 141.034C52.2852 141.454 51.7252 142.14 51.1652 142.895C50.6152 143.645 50.0552 144.474 49.2952 145.054L49.2753 145.069C48.4353 145.573 47.5053 145.572 46.6353 145.535C45.7453 145.497 44.9153 145.424 44.1453 145.689C43.5153 146.051 42.9652 146.074 42.4252 145.925C41.9252 145.785 41.4252 145.488 40.9352 145.235C39.7152 145.112 38.4953 145.24 37.2453 145.414C35.9953 145.588 34.7052 145.809 33.4352 145.839L33.3853 145.836C32.0953 145.622 30.7953 146.063 30.2553 147.265C30.0753 147.694 29.7953 147.959 29.4653 148.101C29.1453 148.239 28.7852 148.25 28.4452 148.226C28.2752 148.214 28.1052 148.192 27.9352 148.17C27.7652 148.147 27.6052 148.124 27.4452 148.107C27.1552 148.077 26.9052 148.074 26.6852 148.121C25.7752 149.428 24.5653 150.647 22.8253 150.856C20.6853 151.353 18.4353 150.998 16.3653 150.746L16.3553 150.745C15.0153 150.571 14.0153 149.715 13.0853 148.954C12.1253 148.176 11.2352 147.489 10.0352 147.442L9.86529 147.364C9.47529 146.953 9.29528 146.331 9.22528 145.721C9.14528 145.102 9.16526 144.449 9.20526 143.932L9.54523 143.723C10.0352 143.931 10.5553 143.966 10.9853 143.826C11.4153 143.688 11.7652 143.379 11.9352 142.87V142.857C13.1252 139.822 13.2553 136.159 11.3453 133.432V133.425C9.96527 131.277 8.55526 128.84 8.83526 126.085C8.88526 124.445 8.33531 122.945 7.50531 121.541C6.66531 120.132 5.56533 118.836 4.52533 117.6L4.47528 117.382C4.75528 116.192 4.81521 115.037 4.03521 114.136L4.00531 114.088C3.60531 113.313 3.06529 112.63 2.48529 111.967C1.92529 111.319 1.27526 110.651 0.705259 109.981V109.975C0.425259 109.62 0.285308 109.289 0.255308 109.01C0.225308 108.741 0.315244 108.46 0.565244 108.345C0.825244 108.226 1.08532 108.358 1.26532 108.565C1.43532 108.768 1.55529 109.081 1.61529 109.504C1.82529 109.804 2.27525 110.302 2.69525 110.61C2.92525 110.777 3.10526 110.855 3.20526 110.86C3.24526 110.862 3.25531 110.854 3.25531 110.849C3.26531 110.842 3.28523 110.817 3.30523 110.753C3.22523 110.506 3.15527 110.253 3.09527 110.014C3.01527 109.745 2.93527 109.488 2.84527 109.249C2.64527 108.774 2.37522 108.38 1.91522 108.117L1.83526 108.043C1.68526 107.837 1.57531 107.659 1.50531 107.507C1.43531 107.358 1.3853 107.217 1.3753 107.093C1.3653 106.968 1.39521 106.809 1.53521 106.708C1.65521 106.616 1.80521 106.626 1.90521 106.649C2.11521 106.697 2.35525 106.85 2.57525 107.049C2.78525 107.243 2.99521 107.502 3.15521 107.806C3.41521 108.024 3.58528 108.313 3.72528 108.598C3.79528 108.748 3.86523 108.904 3.92523 109.053C3.98523 109.203 4.04529 109.347 4.11529 109.482C4.23529 109.756 4.36521 109.966 4.53521 110.099C4.63521 110.177 4.74521 110.235 4.90521 110.257C4.86521 110.072 4.87522 109.906 4.91522 109.752C4.97522 109.519 5.11527 109.341 5.21527 109.2C5.33527 109.05 5.42528 108.931 5.47528 108.779C5.52528 108.641 5.54529 108.458 5.48529 108.186C5.16529 107.604 4.77528 107.045 4.35528 106.484C3.92528 105.918 3.47524 105.342 3.06524 104.751C2.25524 103.563 1.60526 102.259 1.70526 100.656C1.67526 99.829 2.11533 99.15 2.52533 98.54C2.95533 97.899 3.35523 97.328 3.42523 96.65V96.628C3.66523 95.358 3.25527 94.029 2.84527 92.769L2.83526 92.684C2.85526 92.035 3.1853 91.507 3.4953 91.041C3.8053 90.555 4.09522 90.132 4.16522 89.628L4.58526 89.48C4.83526 89.718 4.95533 90.037 5.02533 90.344C5.09533 90.643 5.11521 90.982 5.15521 91.247C5.19521 91.534 5.24526 91.744 5.33526 91.882C5.40526 91.99 5.5153 92.071 5.7453 92.076C5.9653 92.026 6.09525 91.903 6.19525 91.715C6.30525 91.504 6.36524 91.231 6.43524 90.911C6.50524 90.608 6.57529 90.259 6.73529 89.967C6.88529 89.671 7.13532 89.422 7.51532 89.309C8.53532 88.691 9.65523 88.148 10.6752 87.573C11.7052 86.983 12.6853 86.336 13.5153 85.47V85.469C15.0153 83.906 17.1653 83.471 19.2053 83.581C20.6353 83.666 22.0653 83.602 22.8753 82.44L22.9252 82.39C23.2752 82.098 23.7153 81.977 24.1353 81.917C24.5553 81.859 25.0152 81.853 25.4052 81.824C25.8052 81.793 26.1552 81.736 26.4252 81.59C26.6852 81.451 26.8953 81.224 27.0053 80.806L27.0253 80.76C27.2053 80.413 27.4653 80.211 27.7653 80.124C28.0653 80.041 28.3852 80.068 28.6852 80.128C28.9852 80.188 29.3053 80.289 29.5753 80.375C29.8653 80.462 30.1052 80.532 30.3152 80.553L30.7153 80.565C31.6453 80.561 32.5653 80.327 33.4653 79.981C34.5053 79.588 35.4953 79.061 36.4753 78.575C37.9853 77.447 39.1153 75.905 39.7453 74.126L39.7952 74.053C40.2352 73.495 40.8652 73.122 41.4152 72.773C41.9652 72.43 42.4453 72.107 42.7653 71.653C42.7553 71.362 42.6753 71.044 42.5753 70.698C42.4553 70.336 42.3153 69.928 42.2153 69.546C42.1153 69.158 42.0553 68.751 42.1353 68.36C42.2053 67.967 42.4152 67.609 42.8152 67.31C43.7452 66.374 44.6353 65.47 45.1353 64.291L45.4753 64.164C46.4953 64.646 46.9553 65.57 47.3353 66.46C47.6753 67.256 47.9452 68.012 48.4452 68.575C48.4752 68.462 48.5053 68.332 48.5253 68.187C48.5453 68.045 48.5653 67.901 48.5753 67.756C48.5953 67.614 48.6153 67.469 48.6353 67.339C48.6553 67.211 48.6953 67.077 48.7453 66.966C48.8053 66.851 48.9153 66.732 49.0753 66.691C49.2353 66.653 49.3952 66.701 49.5352 66.775C49.6652 66.847 49.8153 66.959 49.9853 67.11C50.0653 67.147 50.1252 67.153 50.1652 67.146C50.2152 67.139 50.2552 67.117 50.3052 67.071C50.4052 66.972 50.4853 66.782 50.4953 66.554C50.5153 66.327 50.4553 66.112 50.3553 65.973C50.2653 65.848 50.1153 65.762 49.8653 65.795L49.7852 65.792C49.4452 65.725 49.2052 65.474 49.0552 65.2C48.9052 64.923 48.8253 64.587 48.8253 64.277C48.8253 63.975 48.9053 63.646 49.1153 63.43C49.3453 63.202 49.6653 63.153 50.0253 63.279C50.7453 63.211 51.3953 63.447 51.9853 63.633C52.6053 63.829 53.1653 63.975 53.7753 63.808L53.8653 63.802C54.0053 63.819 54.1353 63.831 54.2353 63.841C54.2153 63.827 54.1852 63.811 54.1652 63.797C53.9552 63.677 53.6752 63.526 53.4252 63.38C53.0752 63.344 52.8252 63.203 52.6952 62.941C52.5652 62.694 52.5853 62.394 52.6153 62.132C52.6553 61.874 52.7253 61.558 52.7753 61.317C52.8253 61.051 52.8352 60.839 52.8052 60.683L52.7952 60.577C52.9152 59.982 53.3453 59.453 53.8753 59.207C54.1353 59.082 54.4353 59.027 54.7353 59.081C55.0353 59.134 55.3052 59.287 55.5452 59.55C55.7152 59.658 55.8352 59.719 55.9152 59.747C55.9352 59.754 55.9553 59.756 55.9753 59.759C55.9853 59.713 55.9853 59.641 55.9853 59.537C55.9853 59.429 55.9753 59.308 55.9653 59.17C55.9553 59.035 55.9452 58.887 55.9452 58.74C55.9352 58.469 55.9653 58.152 56.1253 57.899C56.2253 57.68 56.2752 57.437 56.3152 57.176C56.3452 56.929 56.3752 56.638 56.4352 56.391C56.4952 56.135 56.6153 55.875 56.8553 55.684C57.0853 55.494 57.4153 55.4 57.8453 55.394C58.1353 55.36 58.4252 55.366 58.6952 55.371C58.9752 55.376 59.2152 55.379 59.4352 55.344C59.6452 55.309 59.7952 55.24 59.9052 55.122C60.0252 55.002 60.1252 54.802 60.1652 54.448L60.1752 54.406C60.3152 53.93 60.6553 53.29 61.0953 52.913C61.3153 52.723 61.5952 52.576 61.9052 52.59C62.2252 52.605 62.5053 52.787 62.7453 53.117L62.7852 53.188C62.8452 53.385 62.9052 53.497 62.9452 53.555C62.9552 53.558 62.9553 53.561 62.9553 53.564C62.9653 53.558 62.9753 53.552 62.9853 53.541C63.0353 53.49 63.0952 53.408 63.1652 53.296C63.2952 53.07 63.4353 52.78 63.5853 52.485C63.7153 52.226 63.8653 51.95 64.0253 51.769C64.0953 51.623 64.1953 51.496 64.3253 51.426C64.4853 51.344 64.6552 51.366 64.7852 51.421C64.9052 51.473 65.0253 51.562 65.1353 51.652C65.2353 51.744 65.3453 51.854 65.4553 51.961C65.6853 52.183 65.8953 52.398 66.1253 52.535C66.3453 52.668 66.5253 52.704 66.7053 52.632L66.8853 52.628C67.5453 52.862 67.9253 53.403 68.2453 53.891C68.5353 54.338 68.7852 54.741 69.1552 55.009L69.3253 55.114L69.3753 55.152C69.8353 55.585 69.9952 56.171 70.0352 56.749C70.0752 57.283 70.0053 57.842 69.9453 58.316C69.9853 58.365 70.0252 58.386 70.0452 58.394C70.0652 58.403 70.0853 58.404 70.1053 58.392C70.1453 58.377 70.1953 58.341 70.2653 58.269C70.3353 58.199 70.4053 58.107 70.4753 57.997C70.6253 57.771 70.7652 57.51 70.9152 57.25C71.0552 57.009 71.2153 56.749 71.3953 56.602L71.4252 56.585C71.9152 56.276 72.5153 56.259 73.0753 56.317C73.3653 56.347 73.6452 56.397 73.9152 56.445C74.0552 56.469 74.1852 56.493 74.3152 56.514L74.6752 56.566L74.6953 56.569C75.2953 56.677 75.7453 57.038 76.1453 57.36C76.4753 57.629 76.7753 57.871 77.1153 58.014C77.1753 57.805 77.2753 57.615 77.3753 57.445C77.4553 57.318 77.5453 57.195 77.6253 57.081C77.7053 56.965 77.7853 56.858 77.8453 56.755C77.9753 56.542 78.0353 56.386 78.0153 56.253C78.0053 56.134 77.9253 55.972 77.6353 55.764C77.1653 55.573 76.5952 55.184 76.2952 54.725C76.1452 54.486 76.0453 54.196 76.1353 53.895C76.2153 53.594 76.4553 53.349 76.8253 53.163L76.8653 53.15C77.1253 53.06 77.2853 52.928 77.3853 52.781C77.4853 52.625 77.5453 52.436 77.6053 52.208C77.7053 51.783 77.7953 51.176 78.3653 50.823L78.3853 50.811C78.7953 50.611 79.2953 50.351 79.6253 50.028C79.7853 49.868 79.8953 49.707 79.9453 49.547C79.9853 49.395 79.9753 49.222 79.8753 49.017L79.8553 48.848C79.9453 48.408 80.1252 47.81 80.4152 47.304C80.7052 46.804 81.1353 46.335 81.7653 46.269L81.8253 46.271C82.1953 46.327 82.4353 46.31 82.6053 46.261C82.7553 46.214 82.8353 46.136 82.8953 46.038C82.9553 45.931 82.9853 45.784 83.0053 45.593C83.0153 45.401 83.0053 45.191 83.0053 44.961L83.0352 44.832C83.2352 44.485 83.4852 44.262 83.7852 44.151C84.0752 44.042 84.3852 44.05 84.6752 44.111C85.2052 44.223 85.7653 44.535 86.1953 44.751C87.1053 44.559 88.0953 44.584 88.9853 44.536C89.8753 44.488 90.7052 44.366 91.4152 43.932C91.3452 43.411 91.2353 42.834 91.0053 42.337C90.7653 41.817 90.4053 41.405 89.8653 41.216C89.6053 41.297 89.3353 41.3 89.0953 41.253C88.8353 41.201 88.5852 41.084 88.4152 40.919C88.3352 40.835 88.2653 40.728 88.2353 40.598C88.2053 40.462 88.2352 40.324 88.3152 40.204C88.4652 39.987 88.7652 39.843 89.1752 39.754C89.5752 39.587 89.9353 39.643 90.2553 39.801C90.5553 39.953 90.8352 40.205 91.0652 40.412C91.3252 40.633 91.5353 40.808 91.7553 40.888C91.9553 40.959 92.1753 40.96 92.4553 40.779L92.7653 40.812C94.1153 42.143 95.8353 42.944 97.7153 43.171L97.7753 43.188C98.2953 43.407 98.8053 43.421 99.3453 43.371C99.6153 43.346 99.8852 43.306 100.175 43.269C100.455 43.233 100.745 43.2 101.045 43.195L101.275 43.327C101.475 43.715 101.795 44.188 102.155 44.464C102.325 44.599 102.495 44.674 102.665 44.682C102.815 44.691 102.995 44.641 103.195 44.474C103.605 43.942 104.165 43.723 104.735 43.74C105.305 43.758 105.875 44.011 106.325 44.396L106.345 44.425C106.495 44.594 106.675 44.796 106.865 44.978C107.065 45.163 107.265 45.317 107.435 45.404C107.625 45.493 107.725 45.487 107.795 45.453C107.855 45.416 107.965 45.296 108.045 44.945C108.015 44.523 108.055 44.194 108.175 43.966C108.245 43.842 108.335 43.743 108.465 43.684C108.585 43.626 108.715 43.616 108.835 43.632C109.075 43.663 109.315 43.796 109.525 43.955C109.725 44.102 109.915 44.289 110.095 44.486C110.295 44.528 110.455 44.581 110.575 44.652C110.725 44.735 110.845 44.857 110.885 45.025C110.915 45.185 110.865 45.334 110.805 45.45C110.745 45.568 110.665 45.685 110.575 45.794C110.485 45.903 110.375 46.019 110.285 46.13C110.185 46.243 110.085 46.355 110.005 46.467C109.835 46.7 109.755 46.892 109.765 47.054L109.755 47.163C109.665 47.39 109.605 47.629 109.535 47.88C109.475 48.122 109.395 48.379 109.275 48.598C109.155 48.824 108.975 49.024 108.705 49.135C108.455 49.236 108.145 49.25 107.775 49.182C107.315 49.345 106.865 49.584 106.565 49.899C106.285 50.199 106.145 50.565 106.255 51.033C106.505 51.222 106.675 51.453 106.765 51.715C106.855 51.999 106.845 52.299 106.785 52.583C106.665 53.139 106.345 53.697 106.075 54.105C105.925 54.399 105.705 54.648 105.475 54.868C105.365 54.98 105.235 55.089 105.125 55.194C105.005 55.3 104.895 55.403 104.795 55.507C104.585 55.716 104.425 55.915 104.345 56.126C104.265 56.315 104.245 56.528 104.335 56.793C105.115 57.576 106.085 58.143 107.055 58.77C107.975 59.362 108.895 60.004 109.605 60.922L109.745 61.109L109.765 61.152C109.895 61.44 110.055 61.557 110.205 61.61C110.375 61.67 110.585 61.666 110.855 61.638C111.335 61.587 112.035 61.441 112.595 61.914C113.635 62.254 114.475 62.882 115.245 63.542C116.035 64.216 116.745 64.909 117.585 65.436C117.845 65.551 118.145 65.614 118.485 65.659C118.665 65.682 118.835 65.699 119.025 65.718C119.205 65.736 119.385 65.756 119.575 65.783C120.245 65.882 120.955 66.085 121.345 66.777L121.425 66.923L121.445 66.983C121.565 67.721 122.055 68.194 122.715 68.59C123.045 68.788 123.405 68.961 123.765 69.137C124.125 69.308 124.485 69.483 124.815 69.682C125.425 69.969 126.045 69.902 126.695 69.691C127.025 69.585 127.355 69.445 127.695 69.302C128.005 69.171 128.315 69.037 128.635 68.931C129.875 67.339 130.755 65.351 131.255 63.358C131.435 61.508 131.825 59.593 133.025 58.043C132.985 57.819 132.895 57.599 132.775 57.371C132.695 57.242 132.615 57.114 132.535 56.982C132.455 56.852 132.365 56.717 132.285 56.581C132.115 56.31 131.975 56.01 131.925 55.681C131.885 55.347 131.955 55.002 132.175 54.643C132.435 54.11 132.635 53.631 132.675 53.173C132.725 52.729 132.625 52.298 132.245 51.853L132.185 51.684C132.215 50.444 132.335 49.021 132.635 47.796L132.705 47.675C132.885 47.5 133.125 47.312 133.315 47.146C133.515 46.971 133.685 46.81 133.775 46.658C133.875 46.511 133.885 46.407 133.855 46.315C133.815 46.207 133.685 46.046 133.335 45.852L133.275 45.811C133.015 45.552 132.925 45.257 132.965 44.954C133.005 44.671 133.155 44.4 133.315 44.161C133.475 43.925 133.675 43.67 133.835 43.458C133.995 43.23 134.115 43.035 134.165 42.864L134.175 42.846C134.625 41.67 134.965 40.491 134.955 39.252L135.005 39.102C135.315 38.684 135.665 38.306 136.025 37.945L136.295 37.889ZM288.885 160.255C288.875 160.26 288.845 160.272 288.825 160.294C288.805 160.316 288.765 160.361 288.755 160.428C288.745 160.492 288.755 160.547 288.785 160.586L288.765 160.597C288.765 160.596 288.775 160.595 288.775 160.594C288.775 160.593 288.775 160.591 288.785 160.59V160.598C288.805 160.632 288.835 160.653 288.845 160.662C288.855 160.669 288.865 160.673 288.865 160.677L288.885 160.509V160.499V160.504L288.905 160.264C288.905 160.259 288.895 160.253 288.895 160.248C288.895 160.25 288.885 160.252 288.885 160.255ZM288.885 160.509C288.875 160.519 288.865 160.53 288.865 160.537C288.835 160.562 288.815 160.576 288.805 160.582C288.795 160.586 288.785 160.588 288.785 160.59V160.586L288.885 160.504V160.509ZM278.165 147.86C278.105 147.866 277.995 147.894 277.825 147.963L277.675 147.975C277.525 147.943 277.395 147.921 277.285 147.906C277.395 148.012 277.535 148.138 277.695 148.282C277.855 148.436 278.035 148.61 278.185 148.789C278.145 148.541 278.175 148.286 278.185 148.109C278.195 148.004 278.195 147.93 278.185 147.876V147.86H278.165ZM0.765317 108.815C0.755317 108.839 0.745308 108.887 0.755308 108.963C0.755308 109.039 0.785264 109.137 0.835264 109.257C0.895264 109.374 0.975273 109.51 1.09527 109.659C1.13527 109.712 1.18528 109.765 1.22528 109.817C1.20528 109.79 1.18523 109.764 1.17523 109.739L1.13531 109.631C1.10531 109.433 1.06533 109.275 1.02533 109.151C0.975327 109.028 0.925303 108.942 0.875303 108.887C0.835303 108.831 0.795327 108.81 0.775327 108.804V108.802C0.765327 108.805 0.765317 108.81 0.765317 108.815ZM129.465 0.25C132.415 1.081 135.315 2.18 138.215 3.078L138.915 3.263C140.545 3.711 142.145 4.29601 143.575 5.29401L143.595 5.31198C143.965 5.64198 144.455 5.76499 144.995 5.82199C145.265 5.85099 145.535 5.862 145.795 5.88C145.995 5.892 146.195 5.909 146.375 5.939L146.555 5.97501L146.735 6.133C147.085 7.087 147.865 7.598 148.795 8.091C149.675 8.562 150.715 9.02399 151.395 9.88199C151.765 10.073 151.975 10.327 152.045 10.642C152.105 10.949 152.025 11.266 151.925 11.544C151.875 11.685 151.815 11.832 151.765 11.969C151.715 12.109 151.665 12.243 151.625 12.375C151.555 12.611 151.535 12.817 151.575 13C151.975 13.339 152.475 13.463 153.055 13.58C153.635 13.696 154.295 13.81 154.865 14.195C156.075 14.776 157.305 15.217 158.605 15.473L159.165 15.57L159.225 15.587C159.745 15.804 160.165 16.228 160.495 16.696C160.735 17.049 160.945 17.439 161.115 17.809L161.275 18.172V18.179C161.345 18.362 161.375 18.536 161.355 18.698C161.325 18.868 161.245 19.003 161.125 19.102C161.015 19.197 160.875 19.253 160.735 19.287C160.595 19.322 160.435 19.338 160.285 19.347C159.975 19.363 159.625 19.348 159.335 19.345C159.025 19.341 158.785 19.353 158.645 19.402L158.545 19.416C157.925 19.38 157.615 19.646 157.515 19.945C157.425 20.227 157.495 20.618 157.795 20.984L157.925 21.14L157.985 21.217C158.425 22.224 159.155 22.985 160.005 23.657C160.875 24.34 161.825 24.894 162.745 25.547L162.855 25.719C163.045 27.192 163.875 28.505 164.895 29.579C165.295 29.814 165.795 29.741 166.395 29.633C166.695 29.581 167.005 29.523 167.315 29.521C167.615 29.52 167.935 29.576 168.215 29.769L168.305 30.051C168.235 30.278 168.125 30.54 168.045 30.749C167.965 30.976 167.915 31.166 167.915 31.323C167.905 31.467 167.945 31.563 168.035 31.64C168.145 31.728 168.355 31.817 168.755 31.854C169.105 31.867 169.905 31.951 170.485 32.136C170.635 32.183 170.775 32.24 170.905 32.308C171.015 32.374 171.135 32.466 171.205 32.594C171.295 32.74 171.295 32.906 171.215 33.06C171.135 33.198 171.005 33.318 170.845 33.425L170.735 33.464C170.505 33.494 170.345 33.532 170.245 33.571C170.225 33.581 170.205 33.591 170.185 33.598C170.215 33.621 170.245 33.65 170.295 33.683C170.465 33.797 170.715 33.913 170.995 34.006C171.205 34.075 171.415 34.127 171.595 34.154L171.755 34.173L171.785 34.176C172.375 34.281 172.975 34.492 173.445 34.857C173.905 35.222 174.235 35.739 174.275 36.432C174.395 36.81 174.365 37.141 174.115 37.362C173.885 37.559 173.555 37.605 173.255 37.609C172.945 37.613 172.605 37.57 172.295 37.525C171.985 37.479 171.725 37.434 171.555 37.423L171.335 37.265C171.135 36.74 170.865 36.357 170.505 36.12C170.165 35.886 169.705 35.775 169.075 35.848L169.005 35.846C168.505 35.756 168.005 35.642 167.515 35.527C167.025 35.412 166.535 35.295 166.055 35.197C165.075 35.001 164.115 34.884 163.135 35.002L163.115 35.003C162.285 35.053 161.355 34.894 160.575 34.495C159.815 34.103 159.175 33.471 158.935 32.568C158.525 32.066 157.895 31.817 157.215 31.49C156.535 31.17 155.825 30.777 155.465 29.945C154.395 28.37 153.365 26.791 152.205 25.304C150.275 25.038 148.315 24.629 146.525 23.817C146.305 23.721 146.075 23.719 145.825 23.77C145.565 23.825 145.315 23.93 145.025 24.036C144.745 24.137 144.435 24.237 144.125 24.236C143.805 24.236 143.485 24.129 143.185 23.854C143.035 23.742 142.915 23.658 142.815 23.594C142.835 23.646 142.855 23.703 142.875 23.764C142.925 23.888 142.975 24.028 143.015 24.171C143.095 24.449 143.175 24.779 143.145 25.073L142.995 25.272C142.765 25.378 142.455 25.389 142.195 25.388C141.895 25.386 141.645 25.37 141.445 25.386C141.395 25.389 141.355 25.394 141.335 25.4C141.335 25.417 141.345 25.44 141.365 25.467C141.435 25.561 141.545 25.689 141.715 25.858L141.655 26.26C141.075 26.555 140.405 26.632 139.745 26.618C139.075 26.604 138.405 26.498 137.815 26.406L137.795 26.402C137.425 26.311 136.915 26.249 136.555 26.248C136.635 26.286 136.725 26.328 136.835 26.374C138.395 26.754 140.285 27.454 141.035 29.147L140.895 29.482C140.525 29.621 140.155 29.825 139.775 30.05C139.405 30.271 139.025 30.517 138.635 30.721C137.855 31.125 136.995 31.396 136.015 31.041C133.925 31.002 131.825 30.977 129.735 30.764L129.505 30.522C129.465 28.984 129.545 27.427 129.575 25.898C129.595 24.555 129.585 23.224 129.435 21.912L129.365 21.35C129.335 21.104 129.245 20.844 129.135 20.562C129.025 20.29 128.895 19.988 128.805 19.696C128.705 19.4 128.635 19.085 128.665 18.766C128.695 18.449 128.805 18.141 129.065 17.853C129.485 17.222 129.545 16.492 129.505 15.686C129.485 15.277 129.445 14.877 129.415 14.45C129.385 14.035 129.375 13.611 129.415 13.195C129.365 11.082 129.325 8.96899 129.275 6.85599C129.235 4.73599 129.185 2.615 129.145 0.494995L129.465 0.25ZM181.175 7.79199C181.285 7.76899 181.425 7.76201 181.565 7.81601C181.695 7.86801 181.785 7.96499 181.855 8.08899C182.695 9.07999 182.445 10.317 181.805 11.247L181.545 11.348C181.215 11.279 180.995 11.313 180.845 11.382C180.705 11.448 180.625 11.554 180.595 11.676C180.545 11.894 180.645 12.237 181.025 12.511L181.195 12.624L181.325 12.795C181.385 13.122 181.295 13.407 181.115 13.631C180.935 13.846 180.675 13.996 180.395 14.093C179.855 14.282 179.165 14.293 178.675 14.084C178.385 13.978 178.205 13.987 178.075 14.033C177.935 14.081 177.815 14.186 177.695 14.352C177.555 14.526 177.445 14.722 177.295 14.955C177.155 15.176 176.985 15.414 176.755 15.607L176.715 15.636C175.035 16.566 173.175 17.385 171.145 17.265C170.665 17.334 170.145 17.41 169.675 17.474L169.415 17.335C169.215 16.93 168.865 16.598 168.475 16.451C168.095 16.308 167.685 16.342 167.335 16.652L166.965 16.607C166.635 16.123 166.155 15.831 165.615 15.572C165.095 15.322 164.475 15.089 163.965 14.74L163.875 14.648C163.795 14.484 163.745 14.324 163.745 14.171C163.745 14.006 163.805 13.866 163.925 13.763C164.025 13.667 164.155 13.613 164.285 13.581C164.415 13.548 164.555 13.531 164.695 13.522C164.975 13.506 165.305 13.518 165.585 13.519C165.875 13.52 166.105 13.507 166.235 13.462L166.355 13.453C167.085 13.59 167.815 13.796 168.545 13.86C169.235 13.921 169.865 13.846 170.385 13.479C170.435 13.279 170.475 13.114 170.535 12.982C170.595 12.834 170.665 12.7 170.785 12.614C170.915 12.516 171.065 12.504 171.205 12.546C171.325 12.583 171.435 12.66 171.515 12.735C171.605 12.813 171.695 12.908 171.785 13.003C171.875 13.101 171.965 13.2 172.065 13.299C172.245 13.481 172.415 13.634 172.595 13.726C173.285 13.695 174.065 13.641 174.715 13.413C175.375 13.181 175.885 12.782 176.065 12.062C176.155 11.672 176.335 11.402 176.585 11.223C176.835 11.048 177.115 10.977 177.395 10.936C177.525 10.916 177.665 10.903 177.805 10.89C177.945 10.876 178.075 10.863 178.195 10.845C178.415 10.812 178.605 10.761 178.765 10.675C178.805 10.525 178.815 10.341 178.805 10.124C178.785 9.86799 178.745 9.59499 178.695 9.31799C178.655 9.04899 178.615 8.76898 178.615 8.52798C178.605 8.29798 178.645 8.02798 178.835 7.84698L179.195 7.86301C179.415 8.11201 179.625 8.18998 179.815 8.19998C180.025 8.21098 180.245 8.14499 180.475 8.04999L180.825 7.905C180.935 7.86 181.055 7.81499 181.175 7.79199Z" fill="#FD9C9C"/>
<path d="M288.785 160.586C288.755 160.547 288.745 160.492 288.755 160.428C288.765 160.361 288.805 160.316 288.825 160.294C288.845 160.272 288.875 160.26 288.885 160.255C288.885 160.252 288.895 160.25 288.895 160.248C288.895 160.253 288.905 160.259 288.905 160.264L288.885 160.504M288.785 160.586L288.765 160.597C288.765 160.596 288.775 160.595 288.775 160.594C288.775 160.593 288.775 160.591 288.785 160.59M288.785 160.586V160.59M288.785 160.586L288.885 160.504M288.785 160.59V160.598C288.805 160.632 288.835 160.653 288.845 160.662C288.855 160.669 288.865 160.673 288.865 160.677L288.885 160.509M288.785 160.59C288.785 160.588 288.795 160.586 288.805 160.582C288.815 160.576 288.835 160.562 288.865 160.537C288.865 160.53 288.875 160.519 288.885 160.509M288.885 160.509V160.499V160.504M288.885 160.509V160.504M275.625 176.231C275.915 176.131 276.225 176.157 276.505 176.245C276.795 176.333 277.065 176.489 277.275 176.678C277.425 176.817 277.565 176.986 277.645 177.173C278.005 177.22 278.265 177.384 278.445 177.625C278.645 177.885 278.735 178.221 278.815 178.518C278.895 178.834 278.965 179.116 279.085 179.353C279.175 179.542 279.295 179.686 279.475 179.776C279.715 179.623 279.955 179.451 280.205 179.271C280.495 179.068 280.805 178.861 281.125 178.701C281.735 178.397 282.415 178.25 283.155 178.595L283.305 178.671L283.365 178.713C283.645 178.997 283.765 179.297 283.785 179.597C283.805 179.879 283.735 180.157 283.685 180.379C283.635 180.618 283.605 180.8 283.635 180.966C283.665 181.114 283.755 181.277 284.005 181.453L284.095 181.571C284.225 181.912 284.185 182.217 284.055 182.488C283.935 182.746 283.725 182.966 283.525 183.159C283.315 183.364 283.105 183.531 282.925 183.727C282.745 183.917 282.615 184.098 282.555 184.291L282.485 184.407C280.985 185.719 279.415 187.176 277.575 188.1C277.385 188.281 277.125 188.443 276.895 188.584C276.635 188.742 276.415 188.879 276.255 189.018C276.085 189.164 276.075 189.241 276.085 189.278C276.095 189.342 276.195 189.485 276.555 189.694C276.835 189.7 277.125 189.766 277.385 189.864C277.675 189.97 277.945 190.12 278.115 190.287C278.205 190.369 278.285 190.475 278.325 190.602C278.365 190.75 278.335 190.904 278.215 191.022C278.115 191.124 277.975 191.183 277.815 191.219C277.655 191.256 277.455 191.276 277.205 191.278L277.175 191.277C276.895 191.253 276.625 191.177 276.365 191.098C276.105 191.017 275.875 190.938 275.645 190.885C275.415 190.833 275.195 190.813 274.985 190.848C274.825 190.877 274.645 190.944 274.465 191.07C274.455 191.082 274.455 191.094 274.445 191.099C274.445 191.107 274.425 191.12 274.425 191.125C274.415 191.133 274.405 191.139 274.405 191.14C274.395 191.143 274.395 191.145 274.395 191.146C274.385 191.149 274.385 191.15 274.385 191.151C274.375 191.156 274.365 191.16 274.355 191.163C274.345 191.171 274.315 191.184 274.275 191.204V191.201C274.265 191.204 274.255 191.208 274.255 191.212C274.195 191.237 274.135 191.266 274.095 191.286C274.085 191.29 274.075 191.293 274.065 191.297C273.685 191.592 273.225 191.822 272.775 192.033C272.325 192.24 271.885 192.431 271.495 192.659C271.435 192.811 271.355 192.935 271.225 193.022C271.075 193.127 270.905 193.159 270.745 193.16C270.435 193.162 270.075 193.046 269.805 192.956C269.665 192.91 269.545 192.87 269.445 192.844C269.455 192.87 269.475 192.901 269.495 192.935C269.785 193.083 269.995 193.294 270.125 193.543C270.255 193.811 270.305 194.11 270.295 194.394C270.275 194.958 270.045 195.523 269.855 195.855L269.595 195.976C269.415 195.942 269.095 195.884 268.765 195.831C268.905 195.908 269.015 196.002 269.095 196.121C269.265 196.385 269.215 196.681 269.125 196.926C269.035 197.171 268.885 197.433 268.745 197.67C268.595 197.918 268.465 198.148 268.385 198.361L268.375 198.392C268.235 198.678 268.105 198.981 267.975 199.296C267.845 199.606 267.705 199.927 267.545 200.226C267.205 200.828 266.745 201.361 265.945 201.608C265.475 201.78 265.145 202.105 264.735 202.456C264.345 202.79 263.905 203.133 263.275 203.244C263.055 203.346 262.845 203.48 262.615 203.623C262.395 203.768 262.145 203.925 261.895 204.051C261.385 204.304 260.815 204.442 260.145 204.141C259.085 203.87 258.115 203.607 257.135 203.957L256.865 203.888C256.425 203.398 255.885 203.129 255.275 202.953C254.655 202.774 253.995 202.7 253.315 202.579L253.115 202.402C253.035 202.118 252.915 201.969 252.785 201.891C252.665 201.813 252.495 201.787 252.305 201.811C251.915 201.862 251.485 202.119 251.215 202.361L251.115 202.419C249.975 202.711 248.725 202.278 247.945 201.651L247.975 201.24C248.105 201.168 248.165 201.082 248.215 200.981C248.235 200.926 248.255 200.869 248.285 200.8C248.305 200.734 248.335 200.654 248.375 200.577C248.455 200.41 248.595 200.254 248.835 200.157C248.915 200.123 249.015 200.099 249.125 200.082C249.105 200.067 249.085 200.053 249.075 200.039C248.955 199.921 248.865 199.812 248.805 199.714C248.785 199.666 248.755 199.588 248.765 199.498C248.775 199.386 248.845 199.305 248.925 199.263C248.995 199.227 249.055 199.22 249.105 199.219C249.155 199.217 249.205 199.22 249.255 199.226C249.365 199.241 249.515 199.276 249.665 199.313C249.615 199.249 249.585 199.184 249.555 199.121C249.435 198.857 249.445 198.578 249.645 198.376C249.825 198.196 250.105 198.132 250.385 198.136C250.655 198.139 250.985 198.21 251.325 198.349C251.415 198.36 251.485 198.365 251.545 198.365C251.535 198.361 251.535 198.355 251.535 198.35C251.475 198.266 251.405 198.169 251.325 198.052C251.165 197.836 250.955 197.541 250.885 197.247C250.855 197.089 250.855 196.913 250.945 196.745C251.035 196.58 251.195 196.455 251.395 196.364C252.365 195.889 253.135 195.204 254.015 194.479C254.755 193.733 255.435 192.862 256.635 192.41L256.645 192.408L257.325 192.185C257.555 192.115 257.785 192.047 258.015 191.979C258.475 191.843 258.925 191.708 259.365 191.554C260.255 191.245 261.085 190.862 261.805 190.257L261.915 190.205C262.365 190.1 262.855 189.876 263.255 189.563C263.665 189.25 263.965 188.863 264.075 188.438L264.135 188.322C264.625 187.83 265.225 187.671 265.785 187.549C266.355 187.422 266.875 187.333 267.325 187.028L267.395 186.995C267.925 186.843 268.335 186.544 268.695 186.187C269.065 185.817 269.335 185.428 269.675 185.046L269.805 184.967C270.145 184.888 270.305 184.771 270.385 184.663C270.465 184.55 270.495 184.402 270.495 184.186C270.495 184.079 270.485 183.967 270.485 183.841C270.475 183.717 270.475 183.583 270.475 183.446C270.485 183.171 270.535 182.869 270.705 182.579C270.945 182.086 271.395 181.871 271.825 181.703C272.275 181.525 272.725 181.392 273.125 181.084L273.195 181.046C273.615 180.903 273.835 180.669 273.965 180.385C274.105 180.085 274.155 179.716 274.185 179.293C274.225 178.885 274.235 178.418 274.335 177.995C274.435 177.582 274.605 177.181 274.975 176.867C275.115 176.539 275.345 176.329 275.625 176.231ZM274.075 190.895L274.175 191.045C274.175 191.082 274.165 191.122 274.165 191.155C274.155 191.151 274.135 191.148 274.125 191.142C274.065 191.084 274.015 190.934 274.025 190.86V190.857C274.045 190.867 274.065 190.881 274.075 190.895ZM147.465 176.61C147.605 176.598 147.755 176.616 147.895 176.645C148.175 176.704 148.495 176.821 148.775 176.926C148.995 177.008 149.195 177.08 149.345 177.124L149.495 177.158C151.425 177.571 153.315 178.149 155.165 178.701C156.045 178.77 156.875 178.523 157.775 178.286C158.625 178.062 159.525 177.852 160.485 178.019C160.845 177.656 161.355 177.281 161.885 177.103C162.185 177.006 162.505 176.963 162.805 177.031C163.085 177.092 163.335 177.238 163.535 177.481L163.625 177.592L163.635 177.599L163.745 177.79C163.985 178.247 164.095 178.79 164.135 179.327C164.195 179.94 164.175 180.588 164.175 181.129L164.155 181.214C163.865 182.039 163.395 182.835 163.035 183.595C162.655 184.37 162.365 185.137 162.345 185.982L162.315 186.097C161.925 186.841 161.185 187.044 160.545 187.205C159.875 187.374 159.285 187.502 158.905 187.973L158.845 188.026C158.655 188.147 158.495 188.325 158.345 188.545C158.185 188.769 158.055 189.009 157.895 189.265C157.595 189.751 157.205 190.284 156.515 190.391L156.355 190.365C155.895 190.117 155.395 189.911 154.875 189.708C154.365 189.506 153.825 189.305 153.325 189.068C152.305 188.593 151.355 187.957 150.795 186.811V186.81C150.735 186.679 150.585 186.499 150.385 186.274C150.195 186.062 149.955 185.813 149.765 185.581C149.575 185.353 149.385 185.098 149.315 184.854C149.275 184.727 149.265 184.581 149.315 184.436C149.375 184.289 149.485 184.181 149.635 184.109L149.855 184.108C150.035 184.198 150.265 184.291 150.495 184.36C150.715 184.431 150.915 184.468 151.045 184.462C151.075 184.461 151.085 184.455 151.105 184.452C151.095 184.425 151.085 184.378 151.055 184.31C151.005 184.213 150.925 184.086 150.805 183.926C149.945 183.104 149.025 182.217 148.285 181.219C147.545 180.215 146.985 179.084 146.895 177.768C146.795 177.351 146.815 176.989 147.055 176.772C147.175 176.665 147.325 176.622 147.465 176.61ZM278.125 147.362C278.265 147.35 278.415 147.373 278.535 147.48C278.645 147.583 278.675 147.72 278.685 147.822C278.695 147.926 278.685 148.042 278.685 148.144C278.665 148.368 278.645 148.569 278.685 148.754C278.715 148.898 278.775 149.021 278.915 149.115L278.985 149.154L279.075 149.236C279.245 149.485 279.385 149.589 279.495 149.636C279.615 149.684 279.735 149.687 279.905 149.676C280.065 149.665 280.285 149.638 280.515 149.667C280.745 149.697 280.995 149.783 281.255 149.976C281.465 150.064 281.685 150.138 281.925 150.215C282.175 150.292 282.435 150.374 282.665 150.476C283.025 150.632 283.375 150.853 283.555 151.222C283.725 151.115 283.895 151.062 284.065 151.095C284.205 151.121 284.315 151.2 284.395 151.284C284.465 151.366 284.535 151.467 284.585 151.562C284.705 151.774 284.775 151.959 284.915 152.157C285.005 152.294 285.105 152.409 285.225 152.491L285.365 152.561L285.415 152.593C285.845 152.913 285.875 153.466 285.685 153.845C285.595 154.016 285.455 154.166 285.275 154.252C285.305 154.277 285.335 154.304 285.375 154.329C285.605 154.506 285.875 154.697 286.115 154.9C286.605 155.31 287.035 155.834 286.995 156.603L286.695 156.836C286.695 156.835 286.695 156.834 286.685 156.834C286.765 156.923 286.855 157.023 286.955 157.127C287.065 157.236 287.175 157.351 287.265 157.458C287.355 157.558 287.445 157.677 287.495 157.79C287.515 157.845 287.545 157.939 287.515 158.042C287.485 158.165 287.395 158.237 287.305 158.269C287.225 158.298 287.135 158.301 287.055 158.296C286.985 158.291 286.895 158.277 286.795 158.256C286.765 158.254 286.745 158.252 286.715 158.25C286.825 158.321 286.935 158.4 287.035 158.484C287.135 158.572 287.235 158.681 287.295 158.807C287.325 158.872 287.345 158.943 287.355 159.017C287.445 159.045 287.575 159.066 287.725 159.08C287.935 159.1 288.215 159.111 288.435 159.152C288.645 159.193 288.925 159.281 289.045 159.54C289.145 159.733 289.125 159.961 289.035 160.212C289.045 160.213 289.045 160.214 289.045 160.215C289.065 160.219 289.085 160.226 289.105 160.237C289.115 160.243 289.125 160.252 289.145 160.264C289.155 160.272 289.175 160.286 289.185 160.304C289.475 160.446 289.705 160.52 289.885 160.541C290.085 160.564 290.175 160.518 290.195 160.489C290.225 160.466 290.265 160.396 290.225 160.215C290.175 160.034 290.055 159.786 289.835 159.475L289.785 159.304C289.805 159.102 289.855 158.926 289.945 158.788C290.045 158.644 290.185 158.553 290.335 158.514C290.625 158.443 290.945 158.569 291.195 158.73C291.465 158.899 291.725 159.144 291.915 159.409C292.085 159.646 292.225 159.925 292.255 160.199C292.415 160.45 292.505 160.739 292.575 161.015C292.615 161.166 292.645 161.32 292.685 161.465C292.715 161.611 292.745 161.75 292.785 161.882C292.855 162.148 292.945 162.355 293.075 162.5C293.185 162.618 293.335 162.71 293.565 162.744L293.675 162.755L293.725 162.764C294.205 162.895 294.685 163.087 295.145 163.29C295.615 163.496 296.055 163.708 296.515 163.896C297.405 164.263 298.275 164.503 299.175 164.339C299.775 163.929 300.465 163.428 301.195 163.083C301.905 162.749 302.675 162.545 303.475 162.715L303.635 162.754L303.665 162.763C304.035 162.909 304.265 163.153 304.385 163.456C304.495 163.749 304.505 164.076 304.465 164.39C304.385 164.988 304.115 165.655 303.975 166.077C303.975 166.458 303.875 166.767 303.705 167.01C303.525 167.261 303.275 167.418 303.005 167.517C302.555 167.683 301.995 167.7 301.505 167.709C301.465 168.129 301.395 168.635 301.175 169.017C301.035 169.254 300.835 169.456 300.545 169.558C300.265 169.657 299.925 169.65 299.535 169.536C299.035 169.464 298.335 169.561 297.835 169.833C297.585 169.968 297.395 170.138 297.295 170.332C297.195 170.511 297.165 170.731 297.245 171.011C297.695 171.543 297.835 172.138 297.685 172.688C297.535 173.235 297.105 173.691 296.505 173.978C295.355 175.03 294.465 176.375 293.435 177.659C292.405 178.935 291.235 180.123 289.575 180.721L289.505 180.734C288.975 180.772 288.435 180.538 287.985 180.217C287.535 179.892 287.135 179.457 286.865 179.04L286.825 178.872C286.905 178.276 287.205 177.784 287.495 177.338C287.795 176.878 288.065 176.466 288.185 175.984L288.285 175.845C288.765 175.488 288.955 175.074 288.935 174.746C288.915 174.435 288.685 174.107 288.115 173.921L288.005 173.856C287.205 173.027 286.105 172.674 284.945 172.268C283.805 171.872 282.615 171.423 281.815 170.355L281.865 170.011C282.355 169.616 282.955 169.332 283.545 169.071C284.145 168.806 284.735 168.565 285.255 168.251L285.305 168.227C285.575 168.141 285.745 168 285.855 167.83C285.975 167.655 286.035 167.432 286.065 167.171C286.095 166.91 286.095 166.626 286.075 166.335C286.055 166.053 286.035 165.751 286.025 165.491L286.045 165.41C286.135 165.138 286.295 164.884 286.455 164.655C286.615 164.416 286.775 164.207 286.885 163.992C287.005 163.78 287.065 163.595 287.055 163.42C287.055 163.253 286.975 163.059 286.755 162.831V162.83C286.155 162.312 286.145 161.669 286.155 161.127C286.165 160.556 286.185 160.116 285.845 159.739L285.825 159.714C285.195 158.802 284.485 157.95 283.755 157.105L283.725 156.822C283.895 156.519 283.785 156.177 283.455 155.81C283.305 155.65 283.135 155.5 282.945 155.369C283.115 155.547 283.285 155.733 283.375 155.897C283.415 155.957 283.445 156.026 283.465 156.098C283.485 156.169 283.485 156.265 283.445 156.361C283.355 156.571 283.125 156.605 282.975 156.606L282.775 156.513C281.505 154.921 280.275 153.313 278.885 151.848C278.485 151.433 278.395 150.928 278.325 150.486C278.255 150.028 278.185 149.62 277.905 149.243V149.239C277.765 149.049 277.565 148.847 277.345 148.648C277.145 148.46 276.925 148.263 276.785 148.11C276.725 148.039 276.645 147.943 276.605 147.839C276.585 147.781 276.575 147.692 276.615 147.599C276.655 147.504 276.735 147.451 276.795 147.424C276.905 147.377 277.055 147.379 277.195 147.39C277.325 147.402 277.495 147.43 277.705 147.473C277.865 147.412 278.005 147.373 278.125 147.362ZM136.295 37.889C137.445 38.344 138.515 39.299 138.415 40.736C138.455 41.273 138.475 41.907 138.645 42.384C138.735 42.617 138.855 42.783 139.005 42.88C139.145 42.973 139.355 43.024 139.675 42.96L139.845 42.985C140.025 43.085 140.165 43.219 140.235 43.39C140.305 43.559 140.295 43.733 140.255 43.889C140.185 44.186 139.985 44.501 139.825 44.757C139.745 44.893 139.665 45.017 139.605 45.134C139.545 45.251 139.505 45.344 139.495 45.414C139.485 45.478 139.495 45.503 139.505 45.517C139.525 45.538 139.575 45.583 139.715 45.623C140.255 45.764 140.645 46.042 140.925 46.408C141.205 46.771 141.365 47.211 141.455 47.664C141.555 48.117 141.585 48.601 141.605 49.06C141.625 49.41 141.635 49.742 141.655 50.049L141.685 50.348C141.845 51.859 142.365 53.43 143.185 54.666C143.385 54.878 143.555 54.936 143.685 54.938C143.845 54.941 144.015 54.877 144.215 54.75C144.425 54.62 144.625 54.46 144.865 54.289C145.085 54.128 145.345 53.964 145.625 53.885L145.935 54.079C146.045 54.639 146.315 54.981 146.675 55.264C146.855 55.408 147.065 55.537 147.295 55.673C147.515 55.802 147.745 55.938 147.985 56.093C148.545 56.311 149.045 56.597 149.375 57.019C149.705 57.456 149.825 58.009 149.695 58.701C149.645 59.439 149.885 60.123 150.105 60.876C150.325 61.608 150.525 62.397 150.325 63.26C150.265 63.701 150.495 64.051 150.865 64.464C151.035 64.657 151.255 64.882 151.445 65.102C151.625 65.318 151.795 65.558 151.905 65.834C153.415 67.539 153.875 69.949 153.105 72.086C153.595 72.669 153.845 73.374 154.075 74.026C154.325 74.728 154.545 75.362 154.985 75.856C155.375 76.057 155.755 76.287 156.125 76.515C156.515 76.755 156.895 76.992 157.285 77.204C157.965 77.575 158.645 77.858 159.395 77.925L159.715 77.94L159.945 78.087C160.605 79.55 162.135 80.529 163.725 80.784C163.825 80.789 163.935 80.791 164.065 80.793C164.205 80.795 164.355 80.798 164.515 80.804C164.815 80.815 165.145 80.839 165.425 80.911C165.675 80.978 165.985 81.112 166.085 81.417C166.185 81.722 166.035 82.056 165.755 82.396L165.735 82.414C165.515 82.635 165.435 82.837 165.415 83.013C165.405 83.19 165.455 83.372 165.575 83.555C165.815 83.927 166.295 84.252 166.765 84.428L166.925 84.486C167.665 84.799 168.005 85.444 168.235 86.103C168.355 86.452 168.455 86.829 168.545 87.17C168.645 87.519 168.755 87.84 168.895 88.115L168.905 88.119C169.095 88.51 169.225 88.952 169.325 89.386C169.435 89.828 169.525 90.254 169.645 90.658C169.885 91.405 170.215 91.984 170.935 92.237L171.095 92.284L171.185 92.331C171.315 92.436 171.415 92.502 171.485 92.543C171.475 92.534 171.485 92.526 171.475 92.516C171.465 92.407 171.435 92.271 171.405 92.12C171.365 91.975 171.325 91.812 171.295 91.668C171.275 91.528 171.245 91.374 171.255 91.246C171.255 91.182 171.275 91.097 171.315 91.019C171.375 90.929 171.465 90.867 171.585 90.856C171.675 90.847 171.775 90.876 171.845 90.909C171.885 90.926 171.915 90.948 171.965 90.973L172.085 91.057L172.095 91.061L172.255 91.177C172.625 91.432 173.045 91.606 173.495 91.77C173.995 91.955 174.545 92.134 175.045 92.415L175.145 92.517C175.525 93.244 175.545 94.069 175.555 94.829C175.565 95.591 175.565 96.282 175.785 96.881C176.905 97.9 178.035 98.908 179.465 99.191L179.755 99.239L179.855 99.276C180.205 99.496 180.425 99.812 180.595 100.139C180.765 100.457 180.895 100.822 181.015 101.123C181.155 101.438 181.285 101.701 181.465 101.891C181.625 102.05 181.815 102.165 182.085 102.206L182.215 102.22L182.295 102.238C182.655 102.392 182.845 102.686 182.965 102.995C183.075 103.293 183.125 103.645 183.185 103.935C183.245 104.245 183.305 104.495 183.425 104.673C183.525 104.811 183.655 104.917 183.895 104.953L183.995 104.965L184.025 104.968C184.475 105.043 184.795 105.25 185.035 105.54C185.275 105.823 185.415 106.174 185.515 106.528C185.615 106.88 185.685 107.265 185.755 107.608C185.815 107.873 185.875 108.117 185.945 108.329L186.035 108.531L186.055 108.603C186.245 110.1 186.405 111.762 186.085 113.286L186.025 113.402C185.815 113.63 185.735 113.832 185.725 114.013C185.705 114.198 185.755 114.392 185.855 114.606C185.955 114.822 186.105 115.041 186.265 115.278C186.425 115.503 186.595 115.746 186.725 115.995L186.915 116.3C187.855 117.848 188.345 119.798 187.995 121.579L187.975 121.629C187.505 122.735 187.255 123.912 186.995 125.119C186.735 126.317 186.465 127.545 185.955 128.705L185.935 128.732C185.585 129.313 185.615 129.92 185.705 130.609C185.795 131.271 185.945 132.032 185.755 132.789C185.655 133.893 185.085 134.786 184.535 135.619C183.975 136.474 183.435 137.266 183.285 138.22L183.245 138.32C182.905 138.813 182.545 139.381 182.105 139.824C181.655 140.267 181.105 140.599 180.365 140.64C179.885 140.807 179.495 141.181 179.145 141.657C178.795 142.133 178.515 142.665 178.225 143.152C178.135 143.516 178.065 143.888 177.995 144.269C177.915 144.659 177.835 145.056 177.735 145.442C177.515 146.217 177.175 146.968 176.515 147.578L176.505 147.592C176.065 147.93 175.965 148.355 175.925 148.875C175.915 149.122 175.905 149.429 175.875 149.706C175.835 149.989 175.775 150.284 175.635 150.57C175.475 150.999 175.195 151.314 174.885 151.571C174.575 151.826 174.205 152.04 173.885 152.242C173.235 152.661 172.735 153.06 172.715 153.844L172.705 153.914C171.985 156.106 171.865 158.479 171.805 160.783L171.795 160.842C171.315 162.602 169.685 163.847 167.845 163.765C167.295 163.845 166.725 163.872 166.165 163.891C165.595 163.911 165.045 163.923 164.495 163.971C163.405 164.065 162.395 164.302 161.525 165.002L161.505 165.021C160.225 165.794 158.885 166.725 157.495 167.282C157.345 167.559 157.115 167.726 156.855 167.824C156.565 167.931 156.235 167.965 155.945 167.979C155.795 167.986 155.645 167.989 155.505 167.991C155.375 167.994 155.255 167.997 155.145 168.005C155.125 168.006 155.105 168.008 155.095 168.01C155.285 168.225 155.425 168.397 155.505 168.528C155.535 168.575 155.555 168.623 155.575 168.67C155.595 168.714 155.615 168.775 155.615 168.843C155.605 168.918 155.575 169.005 155.505 169.069C155.435 169.126 155.355 169.14 155.305 169.143C155.205 169.149 155.105 169.121 155.015 169.091C154.915 169.058 154.805 169.011 154.685 168.954C154.445 168.839 154.155 168.676 153.825 168.484L153.805 168.471C153.405 168.18 152.865 167.998 152.305 167.791C151.775 167.593 151.195 167.366 150.835 166.966L150.765 166.753C150.885 166.113 150.565 165.66 150.035 165.253C149.775 165.048 149.465 164.866 149.145 164.685C148.855 164.517 148.545 164.347 148.295 164.17C148.165 164.137 147.935 164.134 147.645 164.176C147.355 164.219 147.025 164.304 146.765 164.412C146.635 164.466 146.515 164.523 146.425 164.581C146.335 164.641 146.295 164.691 146.275 164.723C146.275 164.728 146.265 164.732 146.265 164.735C146.275 164.746 146.295 164.786 146.395 164.844C146.625 164.935 146.805 165.02 146.945 165.101C147.085 165.183 147.205 165.274 147.285 165.382C147.325 165.438 147.355 165.508 147.365 165.588C147.375 165.67 147.355 165.748 147.315 165.813C147.255 165.933 147.135 166.009 147.045 166.057C146.845 166.159 146.555 166.235 146.275 166.301C145.975 166.37 145.695 166.424 145.415 166.491C144.695 166.777 144.005 167.143 143.275 167.495C142.555 167.846 141.805 168.18 141.005 168.368L140.865 168.357C139.815 167.953 138.775 167.464 137.765 167.035C136.735 166.602 135.705 166.22 134.615 166.004L134.535 165.97C134.285 165.816 134.075 165.769 133.875 165.773C133.665 165.778 133.465 165.838 133.245 165.92C133.035 165.997 132.795 166.106 132.555 166.168C132.305 166.231 132.035 166.256 131.755 166.168C129.545 165.694 127.765 164.262 126.215 162.785C125.625 162.543 125.225 162.102 124.945 161.606C124.655 161.1 124.465 160.522 124.315 160.021L124.305 159.9C124.645 158.171 124.425 156.295 123.035 155.191C122.715 155.022 122.555 154.743 122.465 154.456C122.375 154.168 122.345 153.842 122.325 153.576C122.295 153.288 122.265 153.081 122.195 152.948C122.165 152.89 122.135 152.859 122.095 152.84C122.065 152.82 122.005 152.802 121.895 152.809H121.865C121.325 152.786 120.845 153.029 120.285 153.314C119.765 153.584 119.165 153.887 118.455 153.862C118.035 153.97 117.695 153.988 117.445 153.896C117.305 153.847 117.195 153.764 117.115 153.647C117.035 153.531 117.005 153.4 117.005 153.271C117.015 153.023 117.135 152.763 117.315 152.536C117.475 152.323 117.695 152.119 117.955 151.95C118.165 151.418 118.395 150.812 118.445 150.24C118.505 149.652 118.375 149.141 117.915 148.775C117.675 148.6 117.465 148.328 117.275 148.078C117.075 147.81 116.915 147.565 116.745 147.389C116.665 147.302 116.605 147.249 116.555 147.222C116.535 147.209 116.515 147.204 116.505 147.203C116.495 147.202 116.495 147.202 116.495 147.203C116.485 147.205 116.445 147.22 116.385 147.306C116.325 147.394 116.255 147.536 116.185 147.752L116.135 147.835C115.725 148.313 115.565 148.96 115.395 149.672C115.225 150.354 115.025 151.107 114.485 151.631L114.285 151.699C113.765 151.65 113.285 151.725 112.795 151.836C112.315 151.944 111.795 152.093 111.245 152.163L110.985 151.808C111.105 151.565 111.195 151.303 111.285 151.032C111.385 150.771 111.495 150.498 111.635 150.274C111.785 150.045 111.995 149.85 112.295 149.772C112.575 149.703 112.885 149.738 113.255 149.871C113.545 149.753 113.665 149.59 113.725 149.409C113.795 149.186 113.775 148.904 113.725 148.556C113.685 148.227 113.605 147.834 113.615 147.472C113.615 147.11 113.695 146.739 113.975 146.429C114.125 146.117 114.305 145.824 114.485 145.543C114.675 145.248 114.855 144.971 115.025 144.684C115.345 144.118 115.545 143.556 115.445 142.892L115.635 142.61C116.115 142.509 116.465 142.211 116.585 141.876C116.705 141.558 116.635 141.149 116.195 140.758L116.135 140.685C115.925 140.29 115.775 140.047 115.665 139.917C115.665 139.909 115.655 139.902 115.645 139.895C115.625 139.945 115.595 140.012 115.575 140.099C115.505 140.307 115.445 140.588 115.365 140.938L115.275 141.076C115.045 141.261 114.805 141.429 114.575 141.589C114.345 141.751 114.125 141.906 113.915 142.073C113.505 142.403 113.175 142.769 112.995 143.286C112.715 144.682 111.545 145.386 110.305 145.606C108.765 146.54 107.305 147.58 106.705 149.242C106.595 149.589 106.425 149.899 106.235 150.142C106.045 150.385 105.805 150.578 105.545 150.657C105.275 150.741 104.985 150.688 104.745 150.475C104.525 150.274 104.355 149.945 104.245 149.503V149.496C103.785 147.358 102.915 145.332 101.305 143.861L101.235 143.764C101.135 143.496 101.055 143.25 100.945 142.973C100.845 142.71 100.735 142.473 100.595 142.288C100.465 142.105 100.325 141.989 100.165 141.942C100.005 141.896 99.7853 141.904 99.4853 142.044L99.4352 142.06C98.7152 142.223 98.1653 141.736 97.9753 141.193C97.8753 140.917 97.8653 140.604 97.9653 140.317C98.0553 140.079 98.2253 139.874 98.4753 139.732C98.3853 139.316 98.1352 138.951 97.7852 138.607C97.3952 138.225 96.9453 137.909 96.5253 137.572C96.2853 137.515 96.0353 137.514 95.7553 137.545C95.4553 137.578 95.1753 137.639 94.8353 137.689C94.2053 137.784 93.4953 137.821 92.8653 137.3C92.4153 137.003 91.9653 136.705 91.5053 136.562C91.0653 136.423 90.6252 136.437 90.1852 136.763L90.0552 136.81C89.0152 136.888 88.2153 136.389 87.4953 135.863C86.7553 135.323 86.1152 134.772 85.3052 134.564L85.2653 134.548C84.7653 134.31 84.2553 134.42 83.6353 134.606C83.0653 134.78 82.3853 135.029 81.6953 134.912C80.8353 134.983 79.9553 135 79.0853 135.013C78.2053 135.025 77.3353 135.032 76.4653 135.086C74.7353 135.193 73.0752 135.483 71.5452 136.343L71.5153 136.357C69.5853 137.12 67.5153 137.683 65.4453 137.889V137.888C64.8653 137.946 64.2853 137.965 63.7153 137.974C63.1353 137.984 62.5653 137.987 61.9953 138.014C60.8753 138.07 59.7853 138.226 58.7753 138.728L58.7653 138.732C58.3053 138.942 57.8453 139.169 57.3753 139.398C56.9153 139.627 56.4553 139.859 55.9853 140.074C55.0553 140.498 54.0852 140.863 53.0452 141.034C52.2852 141.454 51.7252 142.14 51.1652 142.895C50.6152 143.645 50.0552 144.474 49.2952 145.054L49.2753 145.069C48.4353 145.573 47.5053 145.572 46.6353 145.535C45.7453 145.497 44.9153 145.424 44.1453 145.689C43.5153 146.051 42.9652 146.074 42.4252 145.925C41.9252 145.785 41.4252 145.488 40.9352 145.235C39.7152 145.112 38.4953 145.24 37.2453 145.414C35.9953 145.588 34.7052 145.809 33.4352 145.839L33.3853 145.836C32.0953 145.622 30.7953 146.063 30.2553 147.265C30.0753 147.694 29.7953 147.959 29.4653 148.101C29.1453 148.239 28.7852 148.25 28.4452 148.226C28.2752 148.214 28.1052 148.192 27.9352 148.17C27.7652 148.147 27.6052 148.124 27.4452 148.107C27.1552 148.077 26.9052 148.074 26.6852 148.121C25.7752 149.428 24.5653 150.647 22.8253 150.856C20.6853 151.353 18.4353 150.998 16.3653 150.746L16.3553 150.745C15.0153 150.571 14.0153 149.715 13.0853 148.954C12.1253 148.176 11.2352 147.489 10.0352 147.442L9.86529 147.364C9.47529 146.953 9.29528 146.331 9.22528 145.721C9.14528 145.102 9.16526 144.449 9.20526 143.932L9.54523 143.723C10.0352 143.931 10.5553 143.966 10.9853 143.826C11.4153 143.688 11.7652 143.379 11.9352 142.87V142.857C13.1252 139.822 13.2553 136.159 11.3453 133.432V133.425C9.96527 131.277 8.55526 128.84 8.83526 126.085C8.88526 124.445 8.33531 122.945 7.50531 121.541C6.66531 120.132 5.56533 118.836 4.52533 117.6L4.47528 117.382C4.75528 116.192 4.81521 115.037 4.03521 114.136L4.00531 114.088C3.60531 113.313 3.06529 112.63 2.48529 111.967C1.92529 111.319 1.27526 110.651 0.705259 109.981V109.975C0.425259 109.62 0.285308 109.289 0.255308 109.01C0.225308 108.741 0.315244 108.46 0.565244 108.345C0.825244 108.226 1.08532 108.358 1.26532 108.565C1.43532 108.768 1.55529 109.081 1.61529 109.504C1.82529 109.804 2.27525 110.302 2.69525 110.61C2.92525 110.777 3.10526 110.855 3.20526 110.86C3.24526 110.862 3.25531 110.854 3.25531 110.849C3.26531 110.842 3.28523 110.817 3.30523 110.753C3.22523 110.506 3.15527 110.253 3.09527 110.014C3.01527 109.745 2.93527 109.488 2.84527 109.249C2.64527 108.774 2.37522 108.38 1.91522 108.117L1.83526 108.043C1.68526 107.837 1.57531 107.659 1.50531 107.507C1.43531 107.358 1.3853 107.217 1.3753 107.093C1.3653 106.968 1.39521 106.809 1.53521 106.708C1.65521 106.616 1.80521 106.626 1.90521 106.649C2.11521 106.697 2.35525 106.85 2.57525 107.049C2.78525 107.243 2.99521 107.502 3.15521 107.806C3.41521 108.024 3.58528 108.313 3.72528 108.598C3.79528 108.748 3.86523 108.904 3.92523 109.053C3.98523 109.203 4.04529 109.347 4.11529 109.482C4.23529 109.756 4.36521 109.966 4.53521 110.099C4.63521 110.177 4.74521 110.235 4.90521 110.257C4.86521 110.072 4.87522 109.906 4.91522 109.752C4.97522 109.519 5.11527 109.341 5.21527 109.2C5.33527 109.05 5.42528 108.931 5.47528 108.779C5.52528 108.641 5.54529 108.458 5.48529 108.186C5.16529 107.604 4.77528 107.045 4.35528 106.484C3.92528 105.918 3.47524 105.342 3.06524 104.751C2.25524 103.563 1.60526 102.259 1.70526 100.656C1.67526 99.829 2.11533 99.15 2.52533 98.54C2.95533 97.899 3.35523 97.328 3.42523 96.65V96.628C3.66523 95.358 3.25527 94.029 2.84527 92.769L2.83526 92.684C2.85526 92.035 3.1853 91.507 3.4953 91.041C3.8053 90.555 4.09522 90.132 4.16522 89.628L4.58526 89.48C4.83526 89.718 4.95533 90.037 5.02533 90.344C5.09533 90.643 5.11521 90.982 5.15521 91.247C5.19521 91.534 5.24526 91.744 5.33526 91.882C5.40526 91.99 5.5153 92.071 5.7453 92.076C5.9653 92.026 6.09525 91.903 6.19525 91.715C6.30525 91.504 6.36524 91.231 6.43524 90.911C6.50524 90.608 6.57529 90.259 6.73529 89.967C6.88529 89.671 7.13532 89.422 7.51532 89.309C8.53532 88.691 9.65523 88.148 10.6752 87.573C11.7052 86.983 12.6853 86.336 13.5153 85.47V85.469C15.0153 83.906 17.1653 83.471 19.2053 83.581C20.6353 83.666 22.0653 83.602 22.8753 82.44L22.9252 82.39C23.2752 82.098 23.7153 81.977 24.1353 81.917C24.5553 81.859 25.0152 81.853 25.4052 81.824C25.8052 81.793 26.1552 81.736 26.4252 81.59C26.6852 81.451 26.8953 81.224 27.0053 80.806L27.0253 80.76C27.2053 80.413 27.4653 80.211 27.7653 80.124C28.0653 80.041 28.3852 80.068 28.6852 80.128C28.9852 80.188 29.3053 80.289 29.5753 80.375C29.8653 80.462 30.1052 80.532 30.3152 80.553L30.7153 80.565C31.6453 80.561 32.5653 80.327 33.4653 79.981C34.5053 79.588 35.4953 79.061 36.4753 78.575C37.9853 77.447 39.1153 75.905 39.7453 74.126L39.7952 74.053C40.2352 73.495 40.8652 73.122 41.4152 72.773C41.9652 72.43 42.4453 72.107 42.7653 71.653C42.7553 71.362 42.6753 71.044 42.5753 70.698C42.4553 70.336 42.3153 69.928 42.2153 69.546C42.1153 69.158 42.0553 68.751 42.1353 68.36C42.2053 67.967 42.4152 67.609 42.8152 67.31C43.7452 66.374 44.6353 65.47 45.1353 64.291L45.4753 64.164C46.4953 64.646 46.9553 65.57 47.3353 66.46C47.6753 67.256 47.9452 68.012 48.4452 68.575C48.4752 68.462 48.5053 68.332 48.5253 68.187C48.5453 68.045 48.5653 67.901 48.5753 67.756C48.5953 67.614 48.6153 67.469 48.6353 67.339C48.6553 67.211 48.6953 67.077 48.7453 66.966C48.8053 66.851 48.9153 66.732 49.0753 66.691C49.2353 66.653 49.3952 66.701 49.5352 66.775C49.6652 66.847 49.8153 66.959 49.9853 67.11C50.0653 67.147 50.1252 67.153 50.1652 67.146C50.2152 67.139 50.2552 67.117 50.3052 67.071C50.4052 66.972 50.4853 66.782 50.4953 66.554C50.5153 66.327 50.4553 66.112 50.3553 65.973C50.2653 65.848 50.1153 65.762 49.8653 65.795L49.7852 65.792C49.4452 65.725 49.2052 65.474 49.0552 65.2C48.9052 64.923 48.8253 64.587 48.8253 64.277C48.8253 63.975 48.9053 63.646 49.1153 63.43C49.3453 63.202 49.6653 63.153 50.0253 63.279C50.7453 63.211 51.3953 63.447 51.9853 63.633C52.6053 63.829 53.1653 63.975 53.7753 63.808L53.8653 63.802C54.0053 63.819 54.1353 63.831 54.2353 63.841C54.2153 63.827 54.1852 63.811 54.1652 63.797C53.9552 63.677 53.6752 63.526 53.4252 63.38C53.0752 63.344 52.8252 63.203 52.6952 62.941C52.5652 62.694 52.5853 62.394 52.6153 62.132C52.6553 61.874 52.7253 61.558 52.7753 61.317C52.8253 61.051 52.8352 60.839 52.8052 60.683L52.7952 60.577C52.9152 59.982 53.3453 59.453 53.8753 59.207C54.1353 59.082 54.4353 59.027 54.7353 59.081C55.0353 59.134 55.3052 59.287 55.5452 59.55C55.7152 59.658 55.8352 59.719 55.9152 59.747C55.9352 59.754 55.9553 59.756 55.9753 59.759C55.9853 59.713 55.9853 59.641 55.9853 59.537C55.9853 59.429 55.9753 59.308 55.9653 59.17C55.9553 59.035 55.9452 58.887 55.9452 58.74C55.9352 58.469 55.9653 58.152 56.1253 57.899C56.2253 57.68 56.2752 57.437 56.3152 57.176C56.3452 56.929 56.3752 56.638 56.4352 56.391C56.4952 56.135 56.6153 55.875 56.8553 55.684C57.0853 55.494 57.4153 55.4 57.8453 55.394C58.1353 55.36 58.4252 55.366 58.6952 55.371C58.9752 55.376 59.2152 55.379 59.4352 55.344C59.6452 55.309 59.7952 55.24 59.9052 55.122C60.0252 55.002 60.1252 54.802 60.1652 54.448L60.1752 54.406C60.3152 53.93 60.6553 53.29 61.0953 52.913C61.3153 52.723 61.5952 52.576 61.9052 52.59C62.2252 52.605 62.5053 52.787 62.7453 53.117L62.7852 53.188C62.8452 53.385 62.9052 53.497 62.9452 53.555C62.9552 53.558 62.9553 53.561 62.9553 53.564C62.9653 53.558 62.9753 53.552 62.9853 53.541C63.0353 53.49 63.0952 53.408 63.1652 53.296C63.2952 53.07 63.4353 52.78 63.5853 52.485C63.7153 52.226 63.8653 51.95 64.0253 51.769C64.0953 51.623 64.1953 51.496 64.3253 51.426C64.4853 51.344 64.6552 51.366 64.7852 51.421C64.9052 51.473 65.0253 51.562 65.1353 51.652C65.2353 51.744 65.3453 51.854 65.4553 51.961C65.6853 52.183 65.8953 52.398 66.1253 52.535C66.3453 52.668 66.5253 52.704 66.7053 52.632L66.8853 52.628C67.5453 52.862 67.9253 53.403 68.2453 53.891C68.5353 54.338 68.7852 54.741 69.1552 55.009L69.3253 55.114L69.3753 55.152C69.8353 55.585 69.9952 56.171 70.0352 56.749C70.0752 57.283 70.0053 57.842 69.9453 58.316C69.9853 58.365 70.0252 58.386 70.0452 58.394C70.0652 58.403 70.0853 58.404 70.1053 58.392C70.1453 58.377 70.1953 58.341 70.2653 58.269C70.3353 58.199 70.4053 58.107 70.4753 57.997C70.6253 57.771 70.7652 57.51 70.9152 57.25C71.0552 57.009 71.2153 56.749 71.3953 56.602L71.4252 56.585C71.9152 56.276 72.5153 56.259 73.0753 56.317C73.3653 56.347 73.6452 56.397 73.9152 56.445C74.0552 56.469 74.1852 56.493 74.3152 56.514L74.6752 56.566L74.6953 56.569C75.2953 56.677 75.7453 57.038 76.1453 57.36C76.4753 57.629 76.7753 57.871 77.1153 58.014C77.1753 57.805 77.2753 57.615 77.3753 57.445C77.4553 57.318 77.5453 57.195 77.6253 57.081C77.7053 56.965 77.7853 56.858 77.8453 56.755C77.9753 56.542 78.0353 56.386 78.0153 56.253C78.0053 56.134 77.9253 55.972 77.6353 55.764C77.1653 55.573 76.5952 55.184 76.2952 54.725C76.1452 54.486 76.0453 54.196 76.1353 53.895C76.2153 53.594 76.4553 53.349 76.8253 53.163L76.8653 53.15C77.1253 53.06 77.2853 52.928 77.3853 52.781C77.4853 52.625 77.5453 52.436 77.6053 52.208C77.7053 51.783 77.7953 51.176 78.3653 50.823L78.3853 50.811C78.7953 50.611 79.2953 50.351 79.6253 50.028C79.7853 49.868 79.8953 49.707 79.9453 49.547C79.9853 49.395 79.9753 49.222 79.8753 49.017L79.8553 48.848C79.9453 48.408 80.1252 47.81 80.4152 47.304C80.7052 46.804 81.1353 46.335 81.7653 46.269L81.8253 46.271C82.1953 46.327 82.4353 46.31 82.6053 46.261C82.7553 46.214 82.8353 46.136 82.8953 46.038C82.9553 45.931 82.9853 45.784 83.0053 45.593C83.0153 45.401 83.0053 45.191 83.0053 44.961L83.0352 44.832C83.2352 44.485 83.4852 44.262 83.7852 44.151C84.0752 44.042 84.3852 44.05 84.6752 44.111C85.2052 44.223 85.7653 44.535 86.1953 44.751C87.1053 44.559 88.0953 44.584 88.9853 44.536C89.8753 44.488 90.7052 44.366 91.4152 43.932C91.3452 43.411 91.2353 42.834 91.0053 42.337C90.7653 41.817 90.4053 41.405 89.8653 41.216C89.6053 41.297 89.3353 41.3 89.0953 41.253C88.8353 41.201 88.5852 41.084 88.4152 40.919C88.3352 40.835 88.2653 40.728 88.2353 40.598C88.2053 40.462 88.2352 40.324 88.3152 40.204C88.4652 39.987 88.7652 39.843 89.1752 39.754C89.5752 39.587 89.9353 39.643 90.2553 39.801C90.5553 39.953 90.8352 40.205 91.0652 40.412C91.3252 40.633 91.5353 40.808 91.7553 40.888C91.9553 40.959 92.1753 40.96 92.4553 40.779L92.7653 40.812C94.1153 42.143 95.8353 42.944 97.7153 43.171L97.7753 43.188C98.2953 43.407 98.8053 43.421 99.3453 43.371C99.6153 43.346 99.8852 43.306 100.175 43.269C100.455 43.233 100.745 43.2 101.045 43.195L101.275 43.327C101.475 43.715 101.795 44.188 102.155 44.464C102.325 44.599 102.495 44.674 102.665 44.682C102.815 44.691 102.995 44.641 103.195 44.474C103.605 43.942 104.165 43.723 104.735 43.74C105.305 43.758 105.875 44.011 106.325 44.396L106.345 44.425C106.495 44.594 106.675 44.796 106.865 44.978C107.065 45.163 107.265 45.317 107.435 45.404C107.625 45.493 107.725 45.487 107.795 45.453C107.855 45.416 107.965 45.296 108.045 44.945C108.015 44.523 108.055 44.194 108.175 43.966C108.245 43.842 108.335 43.743 108.465 43.684C108.585 43.626 108.715 43.616 108.835 43.632C109.075 43.663 109.315 43.796 109.525 43.955C109.725 44.102 109.915 44.289 110.095 44.486C110.295 44.528 110.455 44.581 110.575 44.652C110.725 44.735 110.845 44.857 110.885 45.025C110.915 45.185 110.865 45.334 110.805 45.45C110.745 45.568 110.665 45.685 110.575 45.794C110.485 45.903 110.375 46.019 110.285 46.13C110.185 46.243 110.085 46.355 110.005 46.467C109.835 46.7 109.755 46.892 109.765 47.054L109.755 47.163C109.665 47.39 109.605 47.629 109.535 47.88C109.475 48.122 109.395 48.379 109.275 48.598C109.155 48.824 108.975 49.024 108.705 49.135C108.455 49.236 108.145 49.25 107.775 49.182C107.315 49.345 106.865 49.584 106.565 49.899C106.285 50.199 106.145 50.565 106.255 51.033C106.505 51.222 106.675 51.453 106.765 51.715C106.855 51.999 106.845 52.299 106.785 52.583C106.665 53.139 106.345 53.697 106.075 54.105C105.925 54.399 105.705 54.648 105.475 54.868C105.365 54.98 105.235 55.089 105.125 55.194C105.005 55.3 104.895 55.403 104.795 55.507C104.585 55.716 104.425 55.915 104.345 56.126C104.265 56.315 104.245 56.528 104.335 56.793C105.115 57.576 106.085 58.143 107.055 58.77C107.975 59.362 108.895 60.004 109.605 60.922L109.745 61.109L109.765 61.152C109.895 61.44 110.055 61.557 110.205 61.61C110.375 61.67 110.585 61.666 110.855 61.638C111.335 61.587 112.035 61.441 112.595 61.914C113.635 62.254 114.475 62.882 115.245 63.542C116.035 64.216 116.745 64.909 117.585 65.436C117.845 65.551 118.145 65.614 118.485 65.659C118.665 65.682 118.835 65.699 119.025 65.718C119.205 65.736 119.385 65.756 119.575 65.783C120.245 65.882 120.955 66.085 121.345 66.777L121.425 66.923L121.445 66.983C121.565 67.721 122.055 68.194 122.715 68.59C123.045 68.788 123.405 68.961 123.765 69.137C124.125 69.308 124.485 69.483 124.815 69.682C125.425 69.969 126.045 69.902 126.695 69.691C127.025 69.585 127.355 69.445 127.695 69.302C128.005 69.171 128.315 69.037 128.635 68.931C129.875 67.339 130.755 65.351 131.255 63.358C131.435 61.508 131.825 59.593 133.025 58.043C132.985 57.819 132.895 57.599 132.775 57.371C132.695 57.242 132.615 57.114 132.535 56.982C132.455 56.852 132.365 56.717 132.285 56.581C132.115 56.31 131.975 56.01 131.925 55.681C131.885 55.347 131.955 55.002 132.175 54.643C132.435 54.11 132.635 53.631 132.675 53.173C132.725 52.729 132.625 52.298 132.245 51.853L132.185 51.684C132.215 50.444 132.335 49.021 132.635 47.796L132.705 47.675C132.885 47.5 133.125 47.312 133.315 47.146C133.515 46.971 133.685 46.81 133.775 46.658C133.875 46.511 133.885 46.407 133.855 46.315C133.815 46.207 133.685 46.046 133.335 45.852L133.275 45.811C133.015 45.552 132.925 45.257 132.965 44.954C133.005 44.671 133.155 44.4 133.315 44.161C133.475 43.925 133.675 43.67 133.835 43.458C133.995 43.23 134.115 43.035 134.165 42.864L134.175 42.846C134.625 41.67 134.965 40.491 134.955 39.252L135.005 39.102C135.315 38.684 135.665 38.306 136.025 37.945L136.295 37.889ZM278.165 147.86C278.105 147.866 277.995 147.894 277.825 147.963L277.675 147.975C277.525 147.943 277.395 147.921 277.285 147.906C277.395 148.012 277.535 148.138 277.695 148.282C277.855 148.436 278.035 148.61 278.185 148.789C278.145 148.541 278.175 148.286 278.185 148.109C278.195 148.004 278.195 147.93 278.185 147.876V147.86H278.165ZM0.765317 108.815C0.755317 108.839 0.745308 108.887 0.755308 108.963C0.755308 109.039 0.785264 109.137 0.835264 109.257C0.895264 109.374 0.975273 109.51 1.09527 109.659C1.13527 109.712 1.18528 109.765 1.22528 109.817C1.20528 109.79 1.18523 109.764 1.17523 109.739L1.13531 109.631C1.10531 109.433 1.06533 109.275 1.02533 109.151C0.975327 109.028 0.925303 108.942 0.875303 108.887C0.835303 108.831 0.795327 108.81 0.775327 108.804V108.802C0.765327 108.805 0.765317 108.81 0.765317 108.815ZM129.465 0.25C132.415 1.081 135.315 2.18 138.215 3.078L138.915 3.263C140.545 3.711 142.145 4.29601 143.575 5.29401L143.595 5.31198C143.965 5.64198 144.455 5.76499 144.995 5.82199C145.265 5.85099 145.535 5.862 145.795 5.88C145.995 5.892 146.195 5.909 146.375 5.939L146.555 5.97501L146.735 6.133C147.085 7.087 147.865 7.598 148.795 8.091C149.675 8.562 150.715 9.02399 151.395 9.88199C151.765 10.073 151.975 10.327 152.045 10.642C152.105 10.949 152.025 11.266 151.925 11.544C151.875 11.685 151.815 11.832 151.765 11.969C151.715 12.109 151.665 12.243 151.625 12.375C151.555 12.611 151.535 12.817 151.575 13C151.975 13.339 152.475 13.463 153.055 13.58C153.635 13.696 154.295 13.81 154.865 14.195C156.075 14.776 157.305 15.217 158.605 15.473L159.165 15.57L159.225 15.587C159.745 15.804 160.165 16.228 160.495 16.696C160.735 17.049 160.945 17.439 161.115 17.809L161.275 18.172V18.179C161.345 18.362 161.375 18.536 161.355 18.698C161.325 18.868 161.245 19.003 161.125 19.102C161.015 19.197 160.875 19.253 160.735 19.287C160.595 19.322 160.435 19.338 160.285 19.347C159.975 19.363 159.625 19.348 159.335 19.345C159.025 19.341 158.785 19.353 158.645 19.402L158.545 19.416C157.925 19.38 157.615 19.646 157.515 19.945C157.425 20.227 157.495 20.618 157.795 20.984L157.925 21.14L157.985 21.217C158.425 22.224 159.155 22.985 160.005 23.657C160.875 24.34 161.825 24.894 162.745 25.547L162.855 25.719C163.045 27.192 163.875 28.505 164.895 29.579C165.295 29.814 165.795 29.741 166.395 29.633C166.695 29.581 167.005 29.523 167.315 29.521C167.615 29.52 167.935 29.576 168.215 29.769L168.305 30.051C168.235 30.278 168.125 30.54 168.045 30.749C167.965 30.976 167.915 31.166 167.915 31.323C167.905 31.467 167.945 31.563 168.035 31.64C168.145 31.728 168.355 31.817 168.755 31.854C169.105 31.867 169.905 31.951 170.485 32.136C170.635 32.183 170.775 32.24 170.905 32.308C171.015 32.374 171.135 32.466 171.205 32.594C171.295 32.74 171.295 32.906 171.215 33.06C171.135 33.198 171.005 33.318 170.845 33.425L170.735 33.464C170.505 33.494 170.345 33.532 170.245 33.571C170.225 33.581 170.205 33.591 170.185 33.598C170.215 33.621 170.245 33.65 170.295 33.683C170.465 33.797 170.715 33.913 170.995 34.006C171.205 34.075 171.415 34.127 171.595 34.154L171.755 34.173L171.785 34.176C172.375 34.281 172.975 34.492 173.445 34.857C173.905 35.222 174.235 35.739 174.275 36.432C174.395 36.81 174.365 37.141 174.115 37.362C173.885 37.559 173.555 37.605 173.255 37.609C172.945 37.613 172.605 37.57 172.295 37.525C171.985 37.479 171.725 37.434 171.555 37.423L171.335 37.265C171.135 36.74 170.865 36.357 170.505 36.12C170.165 35.886 169.705 35.775 169.075 35.848L169.005 35.846C168.505 35.756 168.005 35.642 167.515 35.527C167.025 35.412 166.535 35.295 166.055 35.197C165.075 35.001 164.115 34.884 163.135 35.002L163.115 35.003C162.285 35.053 161.355 34.894 160.575 34.495C159.815 34.103 159.175 33.471 158.935 32.568C158.525 32.066 157.895 31.817 157.215 31.49C156.535 31.17 155.825 30.777 155.465 29.945C154.395 28.37 153.365 26.791 152.205 25.304C150.275 25.038 148.315 24.629 146.525 23.817C146.305 23.721 146.075 23.719 145.825 23.77C145.565 23.825 145.315 23.93 145.025 24.036C144.745 24.137 144.435 24.237 144.125 24.236C143.805 24.236 143.485 24.129 143.185 23.854C143.035 23.742 142.915 23.658 142.815 23.594C142.835 23.646 142.855 23.703 142.875 23.764C142.925 23.888 142.975 24.028 143.015 24.171C143.095 24.449 143.175 24.779 143.145 25.073L142.995 25.272C142.765 25.378 142.455 25.389 142.195 25.388C141.895 25.386 141.645 25.37 141.445 25.386C141.395 25.389 141.355 25.394 141.335 25.4C141.335 25.417 141.345 25.44 141.365 25.467C141.435 25.561 141.545 25.689 141.715 25.858L141.655 26.26C141.075 26.555 140.405 26.632 139.745 26.618C139.075 26.604 138.405 26.498 137.815 26.406L137.795 26.402C137.425 26.311 136.915 26.249 136.555 26.248C136.635 26.286 136.725 26.328 136.835 26.374C138.395 26.754 140.285 27.454 141.035 29.147L140.895 29.482C140.525 29.621 140.155 29.825 139.775 30.05C139.405 30.271 139.025 30.517 138.635 30.721C137.855 31.125 136.995 31.396 136.015 31.041C133.925 31.002 131.825 30.977 129.735 30.764L129.505 30.522C129.465 28.984 129.545 27.427 129.575 25.898C129.595 24.555 129.585 23.224 129.435 21.912L129.365 21.35C129.335 21.104 129.245 20.844 129.135 20.562C129.025 20.29 128.895 19.988 128.805 19.696C128.705 19.4 128.635 19.085 128.665 18.766C128.695 18.449 128.805 18.141 129.065 17.853C129.485 17.222 129.545 16.492 129.505 15.686C129.485 15.277 129.445 14.877 129.415 14.45C129.385 14.035 129.375 13.611 129.415 13.195C129.365 11.082 129.325 8.96899 129.275 6.85599C129.235 4.73599 129.185 2.615 129.145 0.494995L129.465 0.25ZM181.175 7.79199C181.285 7.76899 181.425 7.76201 181.565 7.81601C181.695 7.86801 181.785 7.96499 181.855 8.08899C182.695 9.07999 182.445 10.317 181.805 11.247L181.545 11.348C181.215 11.279 180.995 11.313 180.845 11.382C180.705 11.448 180.625 11.554 180.595 11.676C180.545 11.894 180.645 12.237 181.025 12.511L181.195 12.624L181.325 12.795C181.385 13.122 181.295 13.407 181.115 13.631C180.935 13.846 180.675 13.996 180.395 14.093C179.855 14.282 179.165 14.293 178.675 14.084C178.385 13.978 178.205 13.987 178.075 14.033C177.935 14.081 177.815 14.186 177.695 14.352C177.555 14.526 177.445 14.722 177.295 14.955C177.155 15.176 176.985 15.414 176.755 15.607L176.715 15.636C175.035 16.566 173.175 17.385 171.145 17.265C170.665 17.334 170.145 17.41 169.675 17.474L169.415 17.335C169.215 16.93 168.865 16.598 168.475 16.451C168.095 16.308 167.685 16.342 167.335 16.652L166.965 16.607C166.635 16.123 166.155 15.831 165.615 15.572C165.095 15.322 164.475 15.089 163.965 14.74L163.875 14.648C163.795 14.484 163.745 14.324 163.745 14.171C163.745 14.006 163.805 13.866 163.925 13.763C164.025 13.667 164.155 13.613 164.285 13.581C164.415 13.548 164.555 13.531 164.695 13.522C164.975 13.506 165.305 13.518 165.585 13.519C165.875 13.52 166.105 13.507 166.235 13.462L166.355 13.453C167.085 13.59 167.815 13.796 168.545 13.86C169.235 13.921 169.865 13.846 170.385 13.479C170.435 13.279 170.475 13.114 170.535 12.982C170.595 12.834 170.665 12.7 170.785 12.614C170.915 12.516 171.065 12.504 171.205 12.546C171.325 12.583 171.435 12.66 171.515 12.735C171.605 12.813 171.695 12.908 171.785 13.003C171.875 13.101 171.965 13.2 172.065 13.299C172.245 13.481 172.415 13.634 172.595 13.726C173.285 13.695 174.065 13.641 174.715 13.413C175.375 13.181 175.885 12.782 176.065 12.062C176.155 11.672 176.335 11.402 176.585 11.223C176.835 11.048 177.115 10.977 177.395 10.936C177.525 10.916 177.665 10.903 177.805 10.89C177.945 10.876 178.075 10.863 178.195 10.845C178.415 10.812 178.605 10.761 178.765 10.675C178.805 10.525 178.815 10.341 178.805 10.124C178.785 9.86799 178.745 9.59499 178.695 9.31799C178.655 9.04899 178.615 8.76898 178.615 8.52798C178.605 8.29798 178.645 8.02798 178.835 7.84698L179.195 7.86301C179.415 8.11201 179.625 8.18998 179.815 8.19998C180.025 8.21098 180.245 8.14499 180.475 8.04999L180.825 7.905C180.935 7.86 181.055 7.81499 181.175 7.79199Z" stroke="white" stroke-width="0.5" stroke-linejoin="round"/>
</svg>
