<svg width="190" height="95" viewBox="0 0 190 95" fill="none" xmlns="http://www.w3.org/2000/svg">
<path d="M103.922 0.317C105.032 0.166 106.143 0.288011 107.203 0.506011C108.253 0.718011 109.303 1.03001 110.283 1.27301C110.513 1.24801 110.772 1.205 111.042 1.157C111.322 1.108 111.623 1.055 111.913 1.024C112.453 0.966001 113.043 0.976008 113.523 1.26001L113.623 1.32001L113.653 1.347C113.883 1.567 114.013 1.827 114.103 2.074C114.153 2.197 114.193 2.32201 114.233 2.43701C114.273 2.55401 114.303 2.66201 114.343 2.76401C114.423 2.96701 114.513 3.12101 114.653 3.23401C114.783 3.34301 114.983 3.432 115.313 3.455L115.542 3.752C115.422 4.39 115.163 4.89801 114.983 5.28601C114.893 5.48601 114.823 5.643 114.783 5.778C114.763 5.852 114.763 5.911 114.763 5.959C115.143 6.08 115.543 6.07 115.983 6.024C116.443 5.974 116.983 5.878 117.503 5.925L117.533 5.929C117.723 5.966 117.923 5.94 118.153 5.882C118.263 5.853 118.383 5.817 118.503 5.778C118.623 5.74 118.743 5.699 118.863 5.664C119.103 5.595 119.373 5.54001 119.643 5.58301C119.893 5.62301 120.123 5.743 120.323 5.964L120.403 6.065L120.433 6.106C120.603 6.442 120.753 6.58701 120.873 6.65001C120.993 6.71001 121.133 6.71401 121.313 6.67201C121.413 6.65101 121.503 6.619 121.613 6.582C121.723 6.546 121.843 6.503 121.963 6.466C122.183 6.399 122.423 6.34 122.693 6.345L122.802 6.352L122.883 6.37001C123.123 6.47001 123.373 6.61 123.603 6.735C123.843 6.865 124.072 6.983 124.302 7.065C124.532 7.145 124.743 7.18301 124.943 7.15901C125.133 7.13601 125.332 7.05401 125.542 6.86301L125.683 6.8C125.923 6.769 126.113 6.75801 126.253 6.76901C126.323 6.77401 126.393 6.785 126.463 6.808C126.523 6.83 126.603 6.87 126.653 6.946C126.783 7.124 126.683 7.31 126.633 7.384C126.573 7.475 126.483 7.56601 126.393 7.64801C126.203 7.81301 125.943 8.002 125.723 8.171C125.483 8.348 125.293 8.497 125.203 8.602C125.113 8.733 125.073 8.82001 125.063 8.87001C125.053 8.88101 125.052 8.89 125.052 8.895C125.062 8.901 125.083 8.914 125.133 8.927C125.203 8.945 125.302 8.955 125.422 8.955C125.912 8.958 126.563 8.81601 126.933 8.76001C127.553 8.50901 128.223 8.67801 128.753 8.81601C129.043 8.88901 129.293 8.955 129.523 8.979C129.743 9 129.913 8.979 130.063 8.908C130.683 8.281 131.423 7.90701 132.193 7.63901C132.963 7.37301 133.793 7.196 134.533 6.991C135.263 6.506 136.043 6.17201 136.843 5.88901C137.243 5.74501 137.653 5.613 138.053 5.481C138.453 5.349 138.843 5.217 139.223 5.072C139.983 4.659 140.713 4.869 140.993 5.337C141.133 5.579 141.143 5.886 140.933 6.134C140.753 6.35 140.443 6.47901 140.033 6.51901C139.833 6.71601 139.833 6.822 139.853 6.864C139.873 6.949 139.983 7.06601 140.223 7.20801C140.453 7.34301 140.743 7.46501 141.033 7.59601C141.293 7.71201 141.573 7.84201 141.763 7.98801C144.293 8.83701 146.593 10.3 148.383 12.293L148.393 12.3C150.343 14.637 152.123 17.063 154.223 19.228L154.373 19.38C154.703 19.753 155.003 20.235 155.283 20.639C155.603 21.085 155.893 21.432 156.193 21.597C157.103 21.229 157.833 20.55 158.323 19.684L158.542 19.558C158.652 19.556 158.783 19.552 158.923 19.546C159.063 19.541 159.213 19.534 159.353 19.531C159.653 19.526 159.973 19.535 160.263 19.59C160.553 19.645 160.853 19.75 161.073 19.955C161.293 20.152 161.433 20.423 161.473 20.773C161.523 20.833 161.613 20.906 161.743 20.987C161.913 21.084 162.113 21.179 162.343 21.28C162.753 21.464 163.243 21.674 163.603 21.94C165.793 22.094 167.952 21.736 170.042 21.026L170.113 21.014C170.643 20.99 171.263 20.914 171.823 20.963C172.393 21.013 172.963 21.191 173.443 21.684C174.473 22.365 175.633 23.109 176.123 24.401C177.243 24.51 178.443 24.7 179.213 25.789C179.413 25.977 179.603 26.191 179.783 26.393C179.973 26.606 180.153 26.804 180.333 26.974C180.703 27.304 181.083 27.496 181.613 27.397L181.643 27.393C181.983 27.378 182.333 27.418 182.663 27.464C183.003 27.511 183.323 27.561 183.633 27.579C184.243 27.615 184.753 27.517 185.143 27.025L185.203 26.967C185.613 26.713 185.923 26.569 186.173 26.544C186.313 26.531 186.432 26.551 186.542 26.61C186.652 26.668 186.732 26.752 186.792 26.834C186.852 26.914 186.903 27.006 186.953 27.09C187.003 27.178 187.053 27.265 187.113 27.353C187.223 27.524 187.373 27.699 187.623 27.849L187.743 28.086C187.733 28.212 187.752 28.304 187.792 28.373C187.822 28.444 187.883 28.508 187.963 28.565C188.133 28.683 188.383 28.756 188.643 28.808C188.773 28.833 188.893 28.852 189.013 28.871C189.113 28.889 189.233 28.91 189.313 28.942C189.353 28.956 189.423 28.985 189.483 29.041C189.513 29.073 189.543 29.118 189.553 29.178C189.573 29.239 189.562 29.297 189.542 29.345C189.512 29.43 189.453 29.488 189.413 29.52C189.373 29.557 189.313 29.592 189.253 29.626L189.133 29.658C188.623 29.666 187.973 29.734 187.493 29.952C187.253 30.06 187.073 30.197 186.963 30.364C186.863 30.526 186.803 30.738 186.853 31.029V31.038C186.913 31.503 186.803 31.87 186.563 32.145C186.333 32.409 186.003 32.555 185.663 32.642C185.323 32.728 184.953 32.763 184.603 32.783C184.243 32.805 183.933 32.812 183.663 32.841L183.623 32.842C182.923 32.787 182.293 33.148 181.893 33.708C181.513 34.234 181.373 34.908 181.553 35.521L181.603 35.642L181.613 35.678C181.663 35.918 181.743 36.168 181.823 36.445C181.903 36.715 181.973 37.003 182.003 37.287C182.023 37.573 182.013 37.869 181.893 38.15C181.773 38.429 181.563 38.672 181.243 38.869C180.443 39.536 179.463 39.698 178.483 39.703C177.993 39.706 177.503 39.669 177.023 39.633C176.533 39.597 176.073 39.561 175.643 39.564L175.593 39.56C173.843 39.257 172.093 38.854 170.363 38.453C169.723 39.163 169.283 40.011 168.863 40.912C168.443 41.847 168.033 42.851 167.453 43.746V43.748C167.113 44.262 166.913 44.749 166.933 45.151C166.943 45.344 167.003 45.519 167.123 45.677C167.253 45.837 167.453 45.991 167.763 46.122L167.833 46.166C168.163 46.457 168.303 46.792 168.253 47.132C168.203 47.456 167.973 47.718 167.713 47.903C167.453 48.091 167.113 48.223 166.783 48.276C166.463 48.325 166.133 48.305 165.843 48.174C165.113 48.114 164.403 47.839 163.773 47.663C163.103 47.477 162.493 47.385 161.863 47.627L161.843 47.635C160.783 47.933 159.673 48.025 158.623 48.151C157.563 48.278 156.553 48.44 155.633 48.855C155.383 49.08 155.283 49.258 155.253 49.379C155.223 49.488 155.253 49.571 155.333 49.646C155.413 49.73 155.563 49.805 155.773 49.846C155.973 49.886 156.213 49.887 156.453 49.84L156.542 49.838C156.932 49.895 157.193 50.091 157.343 50.385C157.473 50.656 157.493 50.985 157.483 51.292C157.473 51.592 157.433 51.95 157.413 52.233C157.393 52.538 157.393 52.79 157.453 52.981C157.533 53.242 157.673 53.501 157.843 53.771C157.923 53.905 158.013 54.039 158.103 54.176C158.203 54.312 158.293 54.452 158.383 54.593C158.733 55.148 159.063 55.782 158.933 56.51L158.903 56.594C158.693 56.951 158.373 57.249 158.063 57.516C157.723 57.797 157.413 58.022 157.113 58.289C156.833 58.547 156.603 58.804 156.483 59.09C156.353 59.367 156.323 59.69 156.443 60.101L156.453 60.132C156.533 60.614 156.603 61.093 156.683 61.554L156.653 61.568C156.673 61.617 156.683 61.667 156.703 61.718C156.763 62.021 156.673 62.327 156.423 62.596L156.343 62.651C155.303 63.116 154.183 63.361 153.093 63.604C152.003 63.847 150.933 64.087 149.963 64.534C149.643 64.764 149.353 65.039 149.053 65.332C148.763 65.627 148.453 65.947 148.133 66.237C147.503 66.818 146.773 67.324 145.783 67.416C144.973 67.668 144.143 67.467 143.413 67.296C142.653 67.118 141.993 66.975 141.393 67.193C141.113 67.374 140.883 67.64 140.673 67.959C140.443 68.298 140.273 68.639 140.053 69.009C139.833 69.36 139.593 69.709 139.263 69.962C138.923 70.222 138.513 70.374 137.983 70.35L137.973 70.349C137.783 70.331 137.553 70.377 137.263 70.456C136.993 70.53 136.673 70.639 136.383 70.703C136.103 70.768 135.783 70.808 135.493 70.71C135.193 70.603 134.973 70.352 134.873 69.959V69.911C134.853 69.582 134.753 69.463 134.673 69.415C134.583 69.359 134.433 69.342 134.203 69.392C133.973 69.44 133.723 69.54 133.463 69.653C133.223 69.759 132.963 69.884 132.773 69.962C130.773 70.863 128.663 71.58 126.993 72.858C126.903 73.09 126.842 73.317 126.792 73.538C126.732 73.771 126.673 74.014 126.583 74.218C126.543 74.303 126.493 74.384 126.433 74.458C126.483 74.515 126.533 74.582 126.573 74.662C126.683 74.911 126.683 75.228 126.573 75.6C126.653 75.911 126.633 76.201 126.573 76.462C126.513 76.724 126.403 77.01 126.343 77.212C126.273 77.437 126.253 77.614 126.283 77.773C126.313 77.904 126.393 78.053 126.593 78.22L126.693 78.293L126.703 78.298C127.013 78.54 127.333 78.462 127.833 78.304C128.263 78.163 128.843 77.959 129.433 78.225C130.213 78.15 130.783 78.541 131.133 79.09C131.463 79.614 131.613 80.291 131.573 80.893C131.803 81.183 131.923 81.619 131.973 82.04C132.023 82.445 132.013 82.882 131.953 83.256C132.003 83.291 132.053 83.331 132.093 83.38C132.173 83.49 132.213 83.617 132.213 83.74C132.213 83.974 132.093 84.209 131.963 84.4C131.823 84.597 131.633 84.783 131.443 84.921C131.253 85.053 131.023 85.169 130.803 85.168L130.753 85.162C130.243 85.052 129.673 84.892 129.163 84.773C128.653 84.653 128.173 84.565 127.743 84.561C126.783 84.938 125.573 85.281 124.503 85.073L124.333 84.703C124.373 84.64 124.383 84.605 124.383 84.59C124.383 84.588 124.373 84.584 124.363 84.581C124.333 84.561 124.263 84.539 124.153 84.528C124.053 84.518 123.923 84.518 123.783 84.528C123.503 84.549 123.183 84.61 122.903 84.689C122.613 84.769 122.393 84.86 122.283 84.933L122.213 84.966C121.963 85.043 121.733 85.176 121.493 85.339C121.383 85.42 121.263 85.508 121.143 85.599C121.033 85.688 120.912 85.782 120.792 85.871C120.322 86.212 119.783 86.519 119.063 86.429C118.613 86.771 118.083 87.148 117.513 87.362C116.893 87.594 116.212 87.644 115.542 87.247L115.443 87.128C115.243 86.646 114.963 86.102 114.843 85.569C114.713 85.03 114.723 84.465 115.083 83.896C115.133 83.66 115.183 83.383 115.223 83.102C115.263 82.802 115.283 82.517 115.243 82.293C115.213 82.063 115.143 81.961 115.063 81.922C114.983 81.88 114.793 81.858 114.403 82.032L114.083 81.695C114.413 80.996 114.013 80.072 112.943 79.766C112.643 79.694 112.443 79.724 112.283 79.797C112.123 79.873 111.983 80.01 111.843 80.199C111.693 80.4 111.573 80.604 111.413 80.85C111.263 81.064 111.093 81.284 110.873 81.461C110.763 81.632 110.703 81.845 110.653 82.094C110.593 82.339 110.543 82.643 110.473 82.904C110.393 83.174 110.263 83.45 110.033 83.658C109.793 83.871 109.463 83.989 109.033 83.999H109.023C108.803 83.992 108.523 83.925 108.263 83.865C107.993 83.802 107.733 83.742 107.503 83.724C107.263 83.705 107.133 83.74 107.063 83.796C107.013 83.839 106.933 83.949 106.973 84.27V84.339C106.863 85.045 106.333 85.499 105.723 85.681C105.133 85.858 104.433 85.791 103.893 85.428C103.103 85.1 102.413 85.464 101.603 85.963C101.213 86.205 100.793 86.477 100.353 86.656C99.9025 86.838 99.4126 86.932 98.8826 86.809L98.7726 86.751C98.6326 86.626 98.5326 86.487 98.4826 86.332C98.4726 86.31 98.4725 86.288 98.4625 86.266L98.3525 86.259C98.1425 85.751 97.8026 85.43 97.3826 85.248C96.9626 85.064 96.4526 85.017 95.9126 85.086L95.7826 85.067C95.6626 85.014 95.4426 85.001 95.1526 85.019C95.0126 85.027 94.8625 85.041 94.7025 85.056C94.5525 85.07 94.3926 85.084 94.2426 85.091C93.9626 85.105 93.6426 85.099 93.4026 84.969C93.3326 84.933 93.2725 84.887 93.2225 84.829C93.1225 84.892 93.0026 84.927 92.8826 84.941C92.6126 84.972 92.2926 84.913 91.9926 84.84C91.8426 84.802 91.6826 84.758 91.5326 84.716C91.3726 84.673 91.2225 84.632 91.0825 84.597C90.7925 84.525 90.5526 84.488 90.3726 84.509L90.1725 84.446C89.9325 84.229 89.7325 84.117 89.5425 84.067C89.3725 84.019 89.2026 84.028 89.0226 84.079C88.8426 84.132 88.6525 84.229 88.4425 84.361C88.2325 84.496 88.0126 84.65 87.7726 84.818L87.7626 84.824C87.4626 85.011 87.1225 85.095 86.7925 85.148C86.6325 85.174 86.4625 85.193 86.3025 85.211C86.1425 85.229 85.9825 85.246 85.8325 85.269C85.5325 85.315 85.2825 85.381 85.1025 85.503C84.9225 85.618 84.7725 85.793 84.7025 86.095L84.6426 86.203C84.2726 86.597 84.1925 87.139 84.0925 87.767C83.9925 88.358 83.8825 89.048 83.3525 89.507L83.2925 89.544C81.3225 90.441 79.2325 91.09 77.1825 91.708C77.0825 92.167 76.9726 92.666 76.7426 93.075C76.4726 93.547 76.0425 93.9 75.3225 94.028C74.1125 94.436 72.9425 94.186 71.8425 93.837C70.7125 93.48 69.6625 93.034 68.5725 92.954L68.4425 92.91C68.4025 92.88 68.3426 92.85 68.2626 92.804C68.1926 92.767 68.0826 92.709 68.0126 92.633L67.9926 92.601C67.5226 91.905 67.4625 91.039 67.4525 90.229C67.4425 89.42 67.4726 88.668 67.2826 88.026C66.9826 87.815 66.5626 87.822 66.0226 87.897C65.7426 87.934 65.4326 87.988 65.1426 88.012C64.8426 88.036 64.5326 88.033 64.2326 87.951L64.1725 87.925C63.0025 87.234 61.9326 86.342 60.8526 85.499C59.7826 84.653 58.7026 83.851 57.5026 83.299C56.6126 83.006 55.6925 82.956 54.7225 82.848C53.7825 82.743 52.8125 82.583 51.9225 82.061C51.2425 82.021 50.7525 81.656 50.3325 81.319C49.8925 80.959 49.5425 80.652 49.0925 80.572C48.7325 80.549 48.3526 80.496 47.9926 80.448C47.6226 80.399 47.2626 80.357 46.9126 80.352C46.2226 80.342 45.6025 80.48 45.0925 81.001L45.0126 81.056C44.5526 81.248 44.0625 81.311 43.5825 81.324C43.1125 81.338 42.6126 81.304 42.1526 81.293C41.2126 81.271 40.3825 81.344 39.7125 81.981L39.7025 81.992C39.4025 82.244 39.1025 82.534 38.8025 82.835C38.4925 83.133 38.1725 83.441 37.8325 83.711C37.1525 84.251 36.3525 84.656 35.3425 84.552C34.9725 84.533 34.7225 84.357 34.5625 84.093C34.4125 83.848 34.3525 83.537 34.3125 83.242C34.3025 83.092 34.2826 82.935 34.2726 82.784C34.2626 82.632 34.2526 82.483 34.2326 82.341C34.1926 82.051 34.1425 81.815 34.0525 81.648L34.0226 81.504C34.1126 80.536 34.2126 79.435 34.2826 78.425L34.3325 78.296C34.6525 77.858 34.7625 77.421 34.6825 77.086C34.6125 76.77 34.3625 76.481 33.8125 76.347L33.6725 76.25C33.1325 75.506 32.4025 75.052 31.5725 75.214C31.4425 75.255 31.3025 75.275 31.1725 75.234C31.0125 75.181 30.9226 75.051 30.9026 74.908C30.8826 74.785 30.9225 74.661 30.9625 74.561C31.0025 74.455 31.0726 74.348 31.1526 74.249C31.3126 74.054 31.5525 73.865 31.8325 73.776C32.1125 73.69 32.4225 73.706 32.7225 73.9C32.9225 73.953 33.0725 73.989 33.2025 74.012C33.1525 73.964 33.0826 73.911 33.0126 73.857C32.8326 73.715 32.6125 73.571 32.4325 73.457L32.3425 73.127C32.4825 72.858 32.6025 72.642 32.6725 72.469C32.7025 72.383 32.7326 72.318 32.7426 72.27V72.255C32.7226 72.253 32.7026 72.251 32.6626 72.252C32.5126 72.256 32.2526 72.306 31.8526 72.421L31.7326 72.427C31.4826 72.378 31.2426 72.38 31.0026 72.393C30.7826 72.405 30.5225 72.43 30.3025 72.417C30.0725 72.403 29.8326 72.345 29.6326 72.162C29.4326 71.984 29.2925 71.714 29.2025 71.345C28.9725 70.731 29.0625 70.206 29.2125 69.721C29.2925 69.482 29.3925 69.238 29.4725 69.011C29.5625 68.778 29.6425 68.547 29.6925 68.306C29.7325 68.067 29.7725 67.873 29.8125 67.721C29.8525 67.57 29.9126 67.439 29.9826 67.342C30.0526 67.237 30.1725 67.15 30.3325 67.157C30.4725 67.164 30.5826 67.237 30.6426 67.294C30.7226 67.356 30.8026 67.436 30.8626 67.514C30.9426 67.6 31.0125 67.675 31.0925 67.766C31.2425 67.931 31.4025 68.081 31.5725 68.182C32.0625 68.299 32.4025 68.184 32.7125 68.055C32.8625 67.991 33.0425 67.906 33.2025 67.865C33.3925 67.82 33.5925 67.818 33.7925 67.928L33.9325 68.156C33.9225 68.491 34.0025 68.618 34.0625 68.671C34.1325 68.73 34.2626 68.762 34.4826 68.741C34.7026 68.721 34.9425 68.658 35.2025 68.591C35.4425 68.528 35.7125 68.456 35.9425 68.447L36.0925 68.492C36.2425 68.596 36.3426 68.652 36.4126 68.68C36.4126 68.609 36.4026 68.52 36.3826 68.416C36.3626 68.317 36.3425 68.196 36.3325 68.096C36.3225 68.044 36.3225 67.989 36.3225 67.936C36.3225 67.886 36.3226 67.818 36.3526 67.752C36.3826 67.677 36.4525 67.593 36.5625 67.562C36.6625 67.535 36.7525 67.559 36.8125 67.583C36.9225 67.628 37.0525 67.721 37.1925 67.846C37.6125 68.075 38.0025 67.937 38.1825 67.703C38.2725 67.586 38.3126 67.446 38.2826 67.306C38.2526 67.166 38.1526 66.993 37.9126 66.827L37.8726 66.795C37.5426 66.451 37.0426 66.243 36.5126 65.979C36.0026 65.731 35.4525 65.424 35.2025 64.866L35.1925 64.831C34.9425 63.934 34.7225 63.078 34.3325 62.46C33.0725 62.317 31.7726 62.517 30.5226 62.825C30.3526 62.998 30.2625 63.167 30.2225 63.336C30.1725 63.526 30.1725 63.729 30.1925 63.966C30.2225 64.399 30.3225 64.96 30.0625 65.533C30.1025 65.756 30.1326 65.933 30.1526 66.068C30.1726 66.214 30.1825 66.329 30.1825 66.406C30.1825 66.427 30.1825 66.452 30.1725 66.478C30.1725 66.499 30.1626 66.545 30.1326 66.592C30.1026 66.649 30.0226 66.716 29.9126 66.715C29.8226 66.714 29.7626 66.673 29.7426 66.657C29.7026 66.623 29.6726 66.578 29.6526 66.555C29.6326 66.525 29.6125 66.49 29.5925 66.454C29.5025 66.305 29.3926 66.095 29.2326 65.87C29.0826 65.647 28.9125 65.431 28.7125 65.283L28.6226 65.152C28.5626 64.92 28.4626 64.722 28.3626 64.53C28.2626 64.351 28.1526 64.149 28.1026 63.951V63.933L27.8125 63.752C27.9725 63.297 27.8625 62.935 27.8225 62.463C27.8025 62.238 27.8126 61.992 27.9126 61.742C28.0026 61.51 28.1725 61.297 28.4325 61.097C28.5025 60.873 28.6025 60.642 28.6925 60.436C28.7925 60.192 28.8726 59.979 28.9026 59.795C28.9326 59.615 28.9125 59.504 28.8425 59.426C28.7825 59.342 28.6226 59.241 28.2726 59.183C27.3026 59.134 26.3525 59.137 25.4425 58.866L25.3025 58.762C25.0225 58.325 24.7025 57.932 24.3325 57.69C23.9725 57.455 23.5625 57.359 23.0525 57.519L22.7726 57.411C22.6626 57.24 22.6326 57.006 22.6126 56.811C22.5826 56.592 22.5726 56.383 22.5326 56.171C22.5026 55.963 22.4425 55.785 22.3425 55.648C22.2425 55.517 22.1026 55.407 21.8626 55.35L21.7426 55.281C21.3526 54.881 21.1126 54.344 20.9026 53.86C20.6926 53.376 20.5226 52.956 20.2826 52.66C20.1226 52.582 19.9126 52.539 19.6426 52.517C19.5026 52.505 19.3625 52.498 19.2125 52.491C19.0625 52.485 18.9026 52.478 18.7526 52.464C18.4626 52.437 18.1426 52.384 17.9026 52.225C17.6326 52.051 17.4725 51.772 17.4725 51.38V51.379C17.4625 50.978 17.5926 50.674 17.8526 50.475C18.0926 50.288 18.4125 50.223 18.7125 50.206C19.0225 50.189 19.3626 50.219 19.6626 50.255C19.9726 50.292 20.2325 50.331 20.4425 50.343L20.4926 50.353C20.7626 50.43 21.0226 50.524 21.2726 50.605C21.5226 50.687 21.7626 50.759 21.9926 50.807C22.3426 50.876 22.6726 50.889 23.0026 50.795C22.9526 50.764 22.9025 50.73 22.8325 50.698C22.6225 50.588 22.3926 50.502 22.1326 50.386C21.9026 50.278 21.6425 50.148 21.4525 49.969C21.2525 49.78 21.1226 49.529 21.1426 49.203L21.2326 49.029C22.0126 48.394 22.4526 47.922 22.9826 46.96L23.2025 46.831C23.7225 46.832 24.1626 46.759 24.6426 46.713C25.1126 46.669 25.5926 46.654 26.1526 46.779C27.0526 46.661 27.9325 46.713 28.8025 46.799C29.2125 46.839 29.6126 46.886 30.0126 46.929C29.9726 46.919 29.9426 46.91 29.9126 46.9C29.6726 46.815 29.3926 46.697 29.2326 46.48C29.1426 46.362 29.0926 46.222 29.1026 46.062C29.1026 45.907 29.1526 45.748 29.2326 45.584L29.3025 45.506C30.0925 44.859 30.7826 44.246 30.7826 43.285L30.8025 43.194C30.8725 43.021 30.8725 42.845 30.8425 42.653C30.8025 42.449 30.7425 42.269 30.6825 42.042C30.6325 41.835 30.5826 41.591 30.6326 41.348C30.6826 41.141 30.8026 40.959 30.9926 40.803C30.9126 40.605 30.8025 40.471 30.6725 40.373C30.4925 40.246 30.2525 40.169 29.9725 40.119C29.6825 40.069 29.3725 40.051 29.0425 40.024C28.7725 40.001 28.4825 39.969 28.2125 39.903C27.6725 40.245 26.9825 40.476 26.3025 40.489C25.6025 40.503 24.8826 40.287 24.3626 39.711C22.9026 39.284 21.3726 39.234 20.1426 40.109L19.9826 40.155C19.3226 40.121 18.7626 40.423 18.1526 40.809C17.5626 41.18 16.9026 41.638 16.1226 41.772C15.8426 41.851 15.5625 41.88 15.2925 41.895C15.0125 41.91 14.7726 41.91 14.5226 41.935C14.0426 41.981 13.6626 42.105 13.3826 42.535L13.2125 42.643C12.6325 42.749 12.0326 42.553 11.4926 42.318C11.2226 42.2 10.9526 42.064 10.6926 41.943C10.4326 41.819 10.1825 41.708 9.95253 41.628L9.81257 41.516C9.61257 41.178 9.52255 40.828 9.73255 40.567C9.82255 40.447 9.96254 40.385 10.0925 40.353C10.2225 40.32 10.3626 40.313 10.5026 40.317C10.9526 40.333 11.5126 40.484 11.8926 40.603C11.8926 40.566 11.8825 40.523 11.8525 40.473C11.7825 40.312 11.6225 40.124 11.4225 39.908C11.3125 39.803 11.2125 39.695 11.0925 39.585C10.9825 39.476 10.8725 39.364 10.7625 39.253C10.5525 39.035 10.3426 38.798 10.2326 38.561L10.2225 38.536C10.0225 38.01 9.66253 37.699 9.21253 37.41C8.78253 37.132 8.22254 36.851 7.78254 36.423C7.43254 36.101 6.98253 36.093 6.39253 36.11C5.94253 36.124 5.39254 36.154 4.90254 35.927C4.88254 35.964 4.86253 36 4.83253 36.033C4.74253 36.162 4.61255 36.239 4.47255 36.265C4.19255 36.312 3.92254 36.177 3.71254 36.011C3.50254 35.837 3.30258 35.587 3.19258 35.307C3.09258 35.049 3.06256 34.748 3.17256 34.459C3.13256 34.222 3.03254 34.071 2.90254 33.964C2.75254 33.84 2.54253 33.758 2.27253 33.696C2.00253 33.634 1.71254 33.6 1.40254 33.547C1.10254 33.497 0.792533 33.429 0.522533 33.299L0.472545 33.271C0.222545 33.071 0.222543 32.766 0.282543 32.522C0.342543 32.272 0.482528 31.996 0.642528 31.734C0.802528 31.469 0.992548 31.196 1.16255 30.953C1.34255 30.705 1.49254 30.493 1.59254 30.333L1.73255 30.223C2.35255 30.041 2.58255 29.723 2.60255 29.516C2.61255 29.337 2.46256 29.038 1.80256 28.873L1.63258 28.529C1.71258 28.342 1.75253 28.086 1.77253 27.777C1.79253 27.489 1.80253 27.133 1.83253 26.83C1.87253 26.523 1.94257 26.199 2.12257 25.951C2.31257 25.683 2.61253 25.537 3.02253 25.542L3.06257 25.545C3.33257 25.593 3.53257 25.546 3.68257 25.452C3.85257 25.354 3.98257 25.194 4.12257 24.985C4.25257 24.773 4.36256 24.54 4.49256 24.296C4.61256 24.064 4.75257 23.818 4.93257 23.635L5.05256 23.569C5.57256 23.424 6.02256 23.487 6.42256 23.676C6.80256 23.86 7.13257 24.16 7.43257 24.467C7.73257 24.788 7.99255 25.097 8.29255 25.379C8.57255 25.649 8.86257 25.854 9.18257 25.952C9.63257 26.028 10.1525 25.981 10.5225 25.789C10.7125 25.694 10.8626 25.569 10.9426 25.414C11.0326 25.269 11.0726 25.083 11.0426 24.839C10.7726 24.352 10.5526 23.772 10.6226 23.269C10.6626 22.997 10.7726 22.743 11.0026 22.552C11.2226 22.371 11.5226 22.264 11.9026 22.229C12.9026 21.868 13.7225 21.37 14.3325 20.526L14.4026 20.454C15.0426 20.086 15.7626 19.961 16.4126 19.824C17.0826 19.684 17.6925 19.53 18.2225 19.133L18.2626 19.11C18.5426 18.963 18.8226 18.778 19.1126 18.585C19.4026 18.395 19.7026 18.196 20.0126 18.033C20.6326 17.713 21.3126 17.522 22.1126 17.793C22.7526 17.696 23.2725 17.982 23.6725 18.152C23.8925 18.245 24.0826 18.309 24.2826 18.317C24.4826 18.325 24.6925 18.28 24.9525 18.121L24.9725 18.115C25.4725 17.842 26.1625 17.479 26.8325 17.381C27.1625 17.331 27.5125 17.346 27.8325 17.49C28.1425 17.631 28.3925 17.884 28.5825 18.262C28.8825 18.553 29.3226 18.629 29.8726 18.604C30.1526 18.591 30.4426 18.555 30.7326 18.519C31.0126 18.484 31.3025 18.449 31.5725 18.444L31.8626 18.441C32.5126 18.455 32.9525 18.632 33.3225 18.889C33.5325 19.03 33.7126 19.193 33.8826 19.35C34.0526 19.504 34.2226 19.654 34.4126 19.796C34.6526 19.904 34.9125 20.003 35.1925 20.106C35.4725 20.21 35.7625 20.319 36.0525 20.443C36.6125 20.688 37.1726 21.007 37.5326 21.524L37.5625 21.737C37.4625 22.079 37.5226 22.282 37.6026 22.391C37.6826 22.505 37.8125 22.561 37.9425 22.558C38.0725 22.555 38.1525 22.495 38.1825 22.427C38.2125 22.357 38.2326 22.182 38.0226 21.871L38.0126 21.864C37.7926 21.517 37.7025 21.149 37.9325 20.883C38.0425 20.765 38.1925 20.705 38.3325 20.677C38.4725 20.648 38.6226 20.646 38.7826 20.661C39.0826 20.692 39.4325 20.796 39.7225 20.946C39.9925 21.084 40.2526 21.282 40.3926 21.533C40.7226 21.875 41.1825 22.042 41.7125 22.184C42.2025 22.315 42.7826 22.43 43.2526 22.683C43.9626 22.652 44.4825 22.242 45.0425 21.722C45.5925 21.208 46.1926 20.563 46.9926 20.327L47.1026 20.319C47.4426 20.368 47.8025 20.386 48.1725 20.401C48.5325 20.417 48.9126 20.431 49.2826 20.474C50.0026 20.558 50.7225 20.76 51.3325 21.339C51.6425 21.448 51.8426 21.426 51.9826 21.365C52.1426 21.296 52.2825 21.161 52.4425 20.974C52.6025 20.8 52.7925 20.572 53.0425 20.42C53.2925 20.262 53.6026 20.189 54.0026 20.264C54.2226 20.256 54.4726 20.232 54.7626 20.209C55.0426 20.186 55.3526 20.167 55.6526 20.183C56.1926 20.211 56.7825 20.363 57.0925 20.904L57.1426 21.018L57.1526 21.034C57.3226 21.49 57.7126 21.729 58.2526 21.893C58.5226 21.974 58.8126 22.033 59.1126 22.094C59.4026 22.153 59.7025 22.215 59.9725 22.304C60.2425 22.372 60.5226 22.457 60.7626 22.521C61.0226 22.588 61.2526 22.64 61.4826 22.656C61.8926 22.688 62.2925 22.598 62.7025 22.215C62.8525 21.822 63.0526 21.552 63.3526 21.489C63.5126 21.458 63.6526 21.489 63.7826 21.537C63.9026 21.585 64.0226 21.657 64.1326 21.73C64.3726 21.886 64.5725 22.041 64.7925 22.149C65.0025 22.249 65.1826 22.279 65.3626 22.208L65.4826 22.193C66.1926 22.278 66.8825 22.154 67.5925 21.964C68.2425 21.79 68.9526 21.549 69.6426 21.402C69.8326 20.977 70.0525 20.415 70.0625 19.956C70.0725 19.709 70.0325 19.531 69.9325 19.418C69.8425 19.312 69.6825 19.216 69.3425 19.216C68.6825 19.265 68.1326 19.099 67.6426 18.882C67.3926 18.773 67.1525 18.649 66.9325 18.534C66.7125 18.426 66.5025 18.327 66.2925 18.243C65.9425 18.283 65.6625 18.251 65.4325 18.16C65.1825 18.063 65.0025 17.911 64.8525 17.771C64.5525 17.488 64.3626 17.259 63.9026 17.225L63.8225 17.207C63.6125 17.124 63.4525 17.042 63.3425 16.956C63.2425 16.879 63.1126 16.739 63.1426 16.54C63.1726 16.367 63.3226 16.271 63.4026 16.223C63.5026 16.165 63.6326 16.116 63.7626 16.073C63.8926 16.03 64.0425 15.987 64.1825 15.944C64.3325 15.901 64.4726 15.857 64.6126 15.81C64.9126 15.71 65.1225 15.611 65.2125 15.511L65.2826 15.46C65.4926 15.36 65.7925 15.269 66.0825 15.182C66.3825 15.09 66.6826 14.996 66.9126 14.886C67.0326 14.831 67.1225 14.776 67.1825 14.723C67.2525 14.669 67.2726 14.628 67.2826 14.604C67.2926 14.582 67.3126 14.471 67.0326 14.232C66.6826 14.012 66.4626 13.765 66.3826 13.483C66.3026 13.185 66.4025 12.911 66.5525 12.69C66.7125 12.471 66.9425 12.279 67.1725 12.118C67.4125 11.955 67.6726 11.814 67.9126 11.699C68.7426 11.289 69.5826 11.369 70.3626 11.474C71.1226 11.576 71.8126 11.694 72.4926 11.526C72.5126 11.476 72.5226 11.443 72.5226 11.421C72.5226 11.393 72.5125 11.366 72.4725 11.332C72.3925 11.248 72.2225 11.167 71.9425 11.097C71.6725 11.03 71.3625 10.984 71.0625 10.938C70.8025 10.898 70.5325 10.853 70.3325 10.79C69.6425 10.901 69.0325 10.739 68.7125 10.418C68.5425 10.248 68.4326 10.012 68.5026 9.75601C68.5326 9.62301 68.6025 9.507 68.7125 9.406C68.3825 9.077 68.2625 8.562 68.3025 8.116C68.3225 7.82 68.4025 7.52301 68.5525 7.27701C68.7025 7.03201 68.9225 6.822 69.2125 6.742L69.2826 6.73401C70.1026 6.73801 70.9426 6.83601 71.7526 6.91101C72.5626 6.98601 73.3526 7.03901 74.1526 6.96901C74.6026 6.83201 75.0626 6.67801 75.5326 6.52101C76.0126 6.36101 76.5026 6.201 76.9926 6.063C77.9626 5.789 78.9826 5.598 80.0326 5.671C82.2026 5.409 84.4426 5.16401 86.6326 5.13101C86.7826 5.08301 86.9426 4.983 87.1326 4.837C87.2326 4.762 87.3425 4.67901 87.4525 4.59201C87.5625 4.50601 87.6725 4.415 87.7925 4.328C88.2525 3.989 88.8226 3.662 89.5326 3.798C90.9326 3.824 92.3025 3.534 93.7125 3.252C95.1125 2.972 96.5426 2.701 98.0326 2.798C98.3326 2.766 98.6726 2.766 98.9926 2.761C99.3326 2.756 99.6625 2.74701 99.9625 2.70001C100.263 2.65401 100.523 2.57301 100.733 2.43701C100.933 2.30601 101.083 2.11601 101.183 1.82501C101.203 1.67101 101.263 1.537 101.363 1.431C101.463 1.318 101.603 1.25001 101.733 1.20601C101.993 1.12101 102.323 1.10001 102.603 1.07501C102.903 1.04801 103.163 1.01501 103.363 0.928008C103.543 0.849008 103.663 0.731997 103.703 0.516997L103.922 0.317Z" fill="#FD9C9C" stroke="white" stroke-width="0.5" stroke-linejoin="round"/>
</svg>
