<svg width="157" height="85" viewBox="0 0 157 85" fill="none" xmlns="http://www.w3.org/2000/svg">
<path d="M11.5351 0.518177C12.0151 0.227177 12.4751 0.191185 12.9151 0.323185C13.3451 0.449185 13.7551 0.728178 14.1651 1.03118C14.6051 1.26118 15.0551 1.54017 15.4151 1.87317C15.7351 2.16517 15.9951 2.51017 16.1151 2.91417C16.3551 2.93817 16.6151 2.99918 16.8451 3.06418C17.1651 3.15018 17.4551 3.24118 17.7351 3.29418C18.0151 3.34718 18.2451 3.35318 18.4351 3.29018C18.6151 3.23118 18.7951 3.10218 18.9351 2.82318L18.9551 2.79418C19.3451 2.24718 19.9851 2.00118 20.4751 1.76418C20.9951 1.51418 21.3951 1.26418 21.5651 0.742176L21.7351 0.578175C22.0451 0.496175 22.3051 0.579183 22.5251 0.730183C22.7351 0.874183 22.9252 1.08819 23.0852 1.29519C23.2552 1.51519 23.3951 1.72218 23.5551 1.91318C23.6751 2.05418 23.7951 2.16518 23.9051 2.24218L24.0151 2.30619L24.0551 2.32718C24.6351 2.73118 24.7851 3.38018 24.9251 3.88518C25.0751 4.41818 25.2252 4.83217 25.7052 5.06717L25.7651 5.11219C26.5051 5.82919 27.1352 6.45219 28.2252 6.16819V6.16617C28.5052 6.10117 28.8252 6.20218 29.0952 6.33118C29.3752 6.46718 29.6551 6.66518 29.8851 6.86718C29.9951 6.96818 30.0951 7.07418 30.1751 7.17818C30.2551 7.27918 30.3251 7.39418 30.3551 7.51218C30.3951 7.63518 30.3951 7.80718 30.2551 7.93618C30.1351 8.04518 29.9752 8.06917 29.8252 8.06717L29.7252 8.04319C28.8752 7.64519 27.8851 7.79319 27.0651 8.19419L26.9452 8.21817C26.6352 8.21517 26.4751 8.30217 26.3851 8.40117C26.2851 8.51317 26.2251 8.68618 26.1851 8.93518C26.1751 9.05718 26.1551 9.18618 26.1451 9.32618C26.1251 9.46218 26.1152 9.60818 26.0952 9.75118C26.0452 10.0352 25.9651 10.3432 25.7751 10.5952L25.7551 10.6152C25.5951 10.7892 25.5551 10.9652 25.5651 11.1462C25.5751 11.3452 25.6551 11.5402 25.7351 11.7542C25.7651 11.8542 25.8052 11.9652 25.8252 12.0712C25.8452 12.1742 25.8451 12.3112 25.7851 12.4402C25.7151 12.5782 25.5852 12.6552 25.4452 12.6962C25.3652 12.7172 25.2852 12.7292 25.1952 12.7352C25.1852 12.8952 25.1751 13.0312 25.1551 13.1442C25.1351 13.3052 25.0951 13.4482 25.0151 13.5552C24.9351 13.6802 24.8051 13.7492 24.6551 13.7442C24.5351 13.7412 24.4351 13.6882 24.3551 13.6482C24.2851 13.6082 24.1951 13.5482 24.1351 13.5112C24.0651 13.4682 24.0052 13.4362 23.9452 13.4172C23.8952 13.3992 23.8652 13.3992 23.8352 13.4042C23.8252 13.4062 23.8051 13.4132 23.7851 13.4302C23.7251 14.4292 23.5052 15.0122 23.2252 16.0292L23.2152 16.0582C23.0852 16.3752 22.9451 16.7522 22.8051 17.0672L22.8151 17.0872L22.8351 17.1592C22.8751 17.5012 22.8251 17.8482 22.7651 18.1752C22.7351 18.3392 22.6951 18.5042 22.6651 18.6612C22.6351 18.8212 22.6051 18.9752 22.5751 19.1252C22.4751 19.7182 22.5051 20.1892 22.9351 20.5702C23.7051 21.0452 24.5552 21.2492 25.4652 21.3792C26.2452 21.4922 27.0951 21.5532 27.9051 21.7012L28.2451 21.7712L28.4251 21.9192C29.1151 23.6102 30.8251 24.5052 32.6151 24.7922L32.6651 24.8062C34.7551 25.6082 37.0251 25.5232 39.1851 24.9362L39.1952 24.9332L39.6051 24.8462C40.5551 24.6582 41.5351 24.5662 42.4951 24.4922C43.5951 24.4092 44.6752 24.3502 45.7252 24.2082C46.0252 24.1212 46.2052 23.9812 46.3252 23.8182C46.4452 23.6482 46.5151 23.4332 46.5351 23.1782C46.5851 22.6542 46.4452 22.0462 46.3352 21.4882L46.6351 21.1972C48.3051 21.5322 49.7351 20.4032 50.7751 19.0772L50.7951 19.0572C51.5951 18.2562 52.5651 18.0242 53.5451 17.9672C54.0251 17.9392 54.5251 17.9532 55.0051 17.9642C55.4551 17.9752 55.9052 17.9822 56.3252 17.9532C57.2652 17.1572 58.4351 16.7602 59.6851 17.1122C61.0351 16.9892 61.9451 17.6202 62.8151 18.3662C63.6151 18.6562 64.3451 18.9752 65.1351 19.2272C65.9151 19.4792 66.6951 19.6452 67.5251 19.6112H67.5451C69.1451 19.6932 70.4651 20.4052 71.6751 21.2742C72.2851 21.7082 72.8651 22.1872 73.4351 22.6502C73.8751 22.9992 74.2951 23.3392 74.7351 23.6522L75.1651 23.9542L75.2252 24.0022C75.6552 24.5272 76.2351 24.6722 76.9051 24.6712C77.2451 24.6712 77.5952 24.6322 77.9652 24.5902C78.3152 24.5492 78.6851 24.5032 79.0451 24.4922L79.2351 24.5762C79.7451 25.1442 79.7951 25.8712 79.7751 26.5382C79.7651 26.8902 79.7451 27.2042 79.7451 27.5342C79.7451 27.8532 79.7751 28.1472 79.8551 28.4132C80.0151 28.7732 80.0852 29.1022 80.0952 29.4152L80.1051 29.4102C80.7951 29.6952 81.5251 29.8642 82.2951 30.0492C83.0351 30.2312 83.8051 30.4272 84.5351 30.7652C85.8551 31.0972 87.2851 30.9022 88.2651 29.9902C88.1851 29.6642 88.1951 29.3782 88.2951 29.1282C88.4051 28.8402 88.6052 28.6342 88.8452 28.4832C89.0852 28.3332 89.3651 28.2282 89.6351 28.1452C89.9051 28.0642 90.1851 27.9952 90.4251 27.9302C91.2351 27.5812 92.1452 27.3472 92.9652 27.0762C93.7752 26.8092 94.5351 26.4972 95.1651 26.0002C95.2751 25.3692 95.4051 24.6632 95.6251 24.0052C95.8551 23.3142 96.1851 22.6512 96.7351 22.1672L96.8651 22.1072C98.3151 21.8912 99.7352 21.6822 100.695 20.6312L101.015 20.5852C102.155 21.2722 103.495 21.4922 104.865 21.6162L106.235 21.7222L106.255 21.7242C106.575 21.7732 106.925 21.7722 107.315 21.7632C107.695 21.7552 108.095 21.7402 108.485 21.7692C108.875 21.7982 109.265 21.8742 109.605 22.0602C109.955 22.2482 110.245 22.5432 110.435 22.9832H110.445C110.605 23.3122 110.795 23.4582 110.995 23.5162C111.205 23.5772 111.465 23.5512 111.765 23.4532C112.065 23.3562 112.375 23.1972 112.685 23.0232C112.965 22.8612 113.275 22.6642 113.515 22.5322C114.545 21.7142 115.765 21.9622 116.765 22.4772C117.255 22.5492 117.655 22.3662 117.945 22.0472C118.245 21.7162 118.425 21.2402 118.415 20.7762L118.565 20.5462C118.875 20.4092 119.185 20.4002 119.485 20.4332C119.775 20.4652 120.075 20.5432 120.335 20.5942C120.865 20.6992 121.275 20.7142 121.635 20.3442C121.735 20.1452 121.805 19.9272 121.865 19.6912C121.925 19.4542 121.995 19.1712 122.065 18.9172C122.215 18.4142 122.445 17.9022 122.985 17.5192C123.085 17.1642 123.275 16.8972 123.535 16.7212C123.805 16.5322 124.145 16.4612 124.475 16.4702C125.125 16.4892 125.845 16.8272 126.225 17.3692L126.265 17.4552C126.335 17.7782 126.375 18.0302 126.405 18.2172C126.445 18.4142 126.465 18.5142 126.505 18.5832C126.535 18.6372 126.585 18.6902 126.725 18.7522C126.865 18.8182 127.085 18.8832 127.435 18.9652L127.635 19.2182C127.585 20.3302 127.285 21.4702 127.055 22.4402C127.135 22.6572 127.215 22.9042 127.295 23.1222C127.385 23.3772 127.485 23.6112 127.595 23.8012C127.715 23.9902 127.845 24.1192 127.995 24.1882C128.145 24.2542 128.345 24.2772 128.635 24.1952L128.695 24.1862C129.205 24.1682 129.615 23.8622 130.125 23.5202C130.595 23.2102 131.145 22.8842 131.845 22.9732C132.475 22.4852 133.205 21.9502 134.005 21.6052C134.845 21.2422 135.775 21.0802 136.715 21.4152L136.855 21.7762C136.835 21.8072 136.825 21.8332 136.815 21.8512C136.855 21.8592 136.905 21.8662 136.985 21.8662C137.085 21.8642 137.215 21.8522 137.355 21.8302C137.635 21.7872 137.955 21.7112 138.255 21.6352C138.515 21.5682 138.765 21.5002 138.935 21.4622C139.505 21.1482 140.085 21.2222 140.615 21.3582C140.875 21.4242 141.165 21.5192 141.415 21.5872C141.615 21.6422 141.805 21.6872 141.985 21.7132L142.175 21.7332L142.255 21.7492C142.345 21.7852 142.425 21.8202 142.485 21.8552C142.545 21.8862 142.615 21.9322 142.665 21.9982C142.685 22.0352 142.715 22.0902 142.725 22.1602C142.725 22.2352 142.705 22.3002 142.665 22.3492C142.605 22.4302 142.525 22.4672 142.485 22.4832C142.385 22.5202 142.245 22.5422 142.125 22.5592C141.985 22.5762 141.835 22.5912 141.695 22.6072C141.625 22.6142 141.565 22.6242 141.505 22.6322L141.515 22.6362L141.625 22.7242C141.675 22.7992 141.715 22.8862 141.725 22.9812C141.975 22.9752 142.205 23.0112 142.415 23.0432C142.815 23.1042 143.175 23.1532 143.625 22.9972L143.665 22.9872C144.125 22.9102 144.455 22.9852 144.685 23.1872C144.905 23.3732 144.995 23.6392 145.055 23.8102C145.095 23.9062 145.125 23.9742 145.155 24.0272C145.185 24.0762 145.205 24.0892 145.205 24.0942C145.225 24.1032 145.345 24.1372 145.705 23.9372L145.765 23.9142C146.375 23.7502 147.005 23.9712 147.465 24.3492C147.925 24.7262 148.255 25.2962 148.245 25.8952L148.235 25.9542C148.135 26.2852 148.035 26.5582 147.975 26.7642C147.905 26.9812 147.865 27.1192 147.875 27.2282C147.885 27.3772 147.955 27.5422 148.415 27.8392L148.635 27.9752L148.725 28.0572C148.785 28.1492 148.835 28.1982 148.895 28.2252C148.945 28.2532 149.005 28.2682 149.085 28.2682C149.265 28.2682 149.465 28.2042 149.725 28.1302C149.955 28.0642 150.255 27.9882 150.535 28.0452C150.835 28.1062 151.085 28.3052 151.245 28.6662C151.915 29.3692 152.745 29.6482 153.715 29.6292L153.905 29.6212C154.125 29.5912 154.425 29.6102 154.705 29.6552C155.005 29.7022 155.325 29.7822 155.575 29.8872C155.695 29.9392 155.815 30.0032 155.905 30.0822C155.995 30.1572 156.105 30.2882 156.085 30.4682C156.065 30.6442 155.935 30.7612 155.825 30.8352C155.695 30.9112 155.535 30.9772 155.325 31.0362C155.075 31.1752 154.805 31.3082 154.545 31.4352C154.285 31.5702 154.035 31.7062 153.815 31.8642C153.395 32.1712 153.125 32.5442 153.145 33.1382V33.1532C153.125 33.5632 153.045 33.9002 152.765 34.0492C152.635 34.1212 152.495 34.1282 152.365 34.1132C152.245 34.0972 152.115 34.0582 151.995 34.0152C151.875 33.9722 151.745 33.9172 151.625 33.8692C151.505 33.8202 151.385 33.7732 151.265 33.7392C151.035 33.6692 150.835 33.6542 150.675 33.7172C149.625 34.2992 149.025 34.3942 147.965 34.7262L147.935 34.7342C147.055 34.8772 146.165 34.7212 145.305 34.5192C144.435 34.3132 143.605 34.0662 142.785 33.9812L142.745 33.9722C141.575 33.6402 140.465 33.5502 139.395 34.0652C139.005 34.2642 138.705 34.6852 138.635 35.0242C138.605 35.1892 138.635 35.2952 138.695 35.3552C138.745 35.4132 138.865 35.4852 139.135 35.4722L139.355 35.8552C139.245 36.0402 139.175 36.1762 139.145 36.2752C139.115 36.3732 139.125 36.4152 139.135 36.4272C139.135 36.4412 139.165 36.4842 139.365 36.5392C139.455 36.5662 139.535 36.5832 139.665 36.6152C139.765 36.6422 139.885 36.6782 140.005 36.7322C140.115 36.7862 140.235 36.8632 140.325 36.9792C140.425 37.0972 140.485 37.2422 140.495 37.4142L140.315 37.6812C140.005 37.7652 139.835 37.8762 139.735 37.9832C139.655 38.0832 139.615 38.1982 139.625 38.3352C139.635 38.6382 139.835 39.0122 140.085 39.3762L140.075 39.6822C139.835 39.9522 139.745 40.1552 139.715 40.3072C139.685 40.4482 139.715 40.5662 139.795 40.6872C139.885 40.8172 140.025 40.9472 140.215 41.0932C140.415 41.2422 140.625 41.3812 140.875 41.5532L140.965 41.8452C140.885 42.0542 140.865 42.1812 140.875 42.2512C140.885 42.3072 140.905 42.3282 140.925 42.3452C140.965 42.3702 141.035 42.3942 141.145 42.4082C141.265 42.4212 141.395 42.4242 141.535 42.4252C141.675 42.4262 141.825 42.4272 141.975 42.4442C142.105 42.4602 142.275 42.4952 142.405 42.5862C142.545 42.6892 142.635 42.8452 142.645 43.0432C142.655 43.1912 142.615 43.3552 142.555 43.5382C142.655 43.6712 142.785 43.7422 142.945 43.7822C143.155 43.8342 143.395 43.8322 143.685 43.8282C144.235 43.8232 144.955 43.8102 145.445 44.4562C145.705 44.7172 145.825 45.0122 145.725 45.3132C145.645 45.5872 145.405 45.7972 145.175 45.9512C144.685 46.2652 143.995 46.4722 143.605 46.5622C143.135 46.6912 142.555 46.8432 142.195 47.0952C142.015 47.2172 141.925 47.3402 141.905 47.4632C141.885 47.5682 141.895 47.7212 142.035 47.9382L142.095 48.0352L142.125 48.0942C142.315 48.6192 142.305 49.2562 142.145 49.8412C141.995 50.4282 141.685 50.9972 141.265 51.3802C140.825 51.8122 140.395 52.2452 139.955 52.6772C139.585 53.0502 139.205 53.4232 138.835 53.7962C139.045 54.0122 139.165 54.2432 139.155 54.4902C139.135 54.8062 138.915 55.0372 138.685 55.1942C138.255 55.4872 137.585 55.6522 137.115 55.7002C136.805 56.0332 136.575 56.4392 136.355 56.8882C136.245 57.1262 136.135 57.3742 136.035 57.6252C135.925 57.8752 135.825 58.1322 135.715 58.3812C135.265 59.3782 134.675 60.3502 133.415 60.7082L133.405 60.7112V60.7102C132.295 60.9752 131.575 61.5692 131.215 62.6282L131.185 62.6882C130.885 63.1202 130.505 63.5422 130.195 63.9282C129.875 64.3282 129.615 64.7072 129.505 65.1052L129.395 65.2482C128.695 65.6812 127.935 65.7162 127.245 65.7452C126.535 65.7762 125.905 65.8022 125.325 66.1362V66.1352C124.955 66.3632 124.635 66.4572 124.345 66.3992C124.045 66.3402 123.835 66.1382 123.685 65.9332C123.545 65.7352 123.405 65.4762 123.295 65.2812C123.185 65.1032 123.085 64.9592 122.965 64.8552C122.025 64.9812 121.195 65.7662 121.035 66.7032L120.955 66.8432C120.695 67.0942 120.405 67.3352 120.135 67.5712C119.865 67.8092 119.605 68.0442 119.375 68.2942C118.915 68.7922 118.575 69.3352 118.505 70.0382L118.495 70.0652C118.435 70.3522 118.485 70.5282 118.575 70.6482C118.665 70.7772 118.825 70.8822 119.065 70.9652C119.295 71.0482 119.565 71.1012 119.855 71.1462C120.105 71.1862 120.385 71.2232 120.615 71.2722C121.015 71.1952 121.355 71.2382 121.555 71.5052C121.655 71.6332 121.685 71.7852 121.695 71.9292C121.705 72.0732 121.695 72.2292 121.665 72.3812C121.615 72.6822 121.505 73.0252 121.425 73.3232C121.335 73.6372 121.275 73.8942 121.285 74.0752L121.275 74.1252C121.205 74.5162 121.455 74.8802 121.905 75.1132C122.355 75.3442 122.905 75.3872 123.285 75.1972L123.555 75.2242C123.735 75.3692 123.865 75.5822 123.975 75.8012C124.075 76.0232 124.155 76.2792 124.245 76.5302C124.415 77.0502 124.565 77.5432 124.815 77.8722L124.835 77.9012C125.125 78.4042 125.405 78.9282 125.565 79.4252C125.715 79.8692 125.775 80.3282 125.625 80.7462C125.765 80.9732 125.795 81.2122 125.705 81.4412C125.605 81.6862 125.385 81.8732 125.155 82.0102C124.685 82.2892 124.025 82.4572 123.575 82.4922L123.305 82.2692C123.275 81.9882 123.175 81.8592 123.075 81.7952C122.965 81.7242 122.795 81.6962 122.575 81.7232C122.155 81.7752 121.655 82.0072 121.335 82.1992C121.195 82.4952 120.985 82.6762 120.715 82.7512C120.435 82.8282 120.135 82.7862 119.865 82.7172C119.595 82.6472 119.315 82.5382 119.065 82.4502C118.805 82.3572 118.595 82.2912 118.425 82.2772C117.835 82.2312 117.235 82.2492 116.615 82.2492C116.125 82.2502 115.625 82.2382 115.125 82.1712C115.165 82.4152 115.175 82.6332 115.145 82.8252C115.095 83.1212 114.945 83.3472 114.715 83.4962C114.495 83.6392 114.225 83.7012 113.935 83.7202C113.695 83.7362 113.425 83.7192 113.145 83.6862C112.995 83.9272 112.845 84.1782 112.645 84.3562C112.385 84.5912 112.065 84.7032 111.615 84.6482C110.745 84.6412 109.795 84.4092 109.055 83.9232C108.295 83.4282 107.735 82.6612 107.715 81.6132V81.5932C107.755 81.0662 107.535 80.7032 107.205 80.4662C106.865 80.2212 106.385 80.1032 105.875 80.1252L105.865 80.1262V80.1252C105.455 80.1252 105.145 80.0042 104.995 79.7042C104.935 79.5712 104.925 79.4252 104.925 79.2922C104.925 79.1592 104.945 79.0192 104.975 78.8862C105.025 78.6052 105.085 78.3592 105.105 78.1212C105.115 77.8942 105.065 77.7402 104.955 77.6322L104.895 77.5452C104.705 77.0722 104.355 76.7962 103.945 76.6992C103.535 76.6002 103.055 76.6812 102.635 76.9572L102.595 76.9752C101.635 77.4172 100.615 77.5392 99.6251 77.6182C98.6151 77.6972 97.6452 77.7302 96.7052 77.9762L96.6651 77.9842C96.0851 78.0352 95.3351 78.1512 94.6651 78.0752C94.0151 78.0012 93.4051 77.7472 93.0151 77.0852C91.9651 77.2072 91.0151 77.3652 90.2951 78.0872L90.1251 78.1612C87.7651 78.2242 85.4751 78.0272 83.2351 78.6042C82.8551 78.7342 82.5251 78.7972 82.2551 78.7812C82.0751 78.7692 81.8951 78.7162 81.7651 78.6182L81.6351 78.7302C80.4651 78.7762 79.0151 78.8012 77.9151 78.2012L77.8951 78.1872C76.9451 77.5242 75.8551 77.3892 74.6751 77.3862C74.0851 77.3852 73.4951 77.4162 72.8851 77.4262C72.3051 77.4362 71.7251 77.4222 71.1551 77.3412C70.8251 77.4962 70.5152 77.5352 70.2252 77.4892C69.9252 77.4392 69.6651 77.3002 69.4251 77.1502C69.3051 77.0742 69.1952 76.9922 69.0852 76.9142C68.9752 76.8362 68.8651 76.7602 68.7551 76.6922C68.5351 76.5542 68.3351 76.4532 68.1151 76.4152C67.5451 76.3432 66.9351 76.3762 66.2951 76.3952C65.6651 76.4132 65.0151 76.4162 64.4251 76.2602L64.3252 76.2012C64.0152 75.9082 63.5751 75.7872 63.0651 75.6782C62.5651 75.5752 61.9851 75.4822 61.4951 75.2032L61.3751 74.9762C61.3951 74.4612 61.2152 74.1012 60.9552 73.7062C60.6952 73.3252 60.3551 72.8902 60.1651 72.2902C60.0151 72.0632 59.9451 71.7962 59.9051 71.5422C59.8851 71.4072 59.8651 71.2682 59.8551 71.1352C59.8351 71.0002 59.8251 70.8702 59.8051 70.7442C59.7751 70.4912 59.7251 70.2802 59.6351 70.1152C59.5551 69.9602 59.4252 69.8372 59.2052 69.7642L59.1051 69.7042C58.8951 69.4902 58.5051 69.3192 58.0251 69.2162C57.5451 69.1152 57.0051 69.0872 56.5351 69.1302L56.4552 69.1252C55.9752 69.0182 55.6252 69.1702 55.1952 69.3722C54.8052 69.5602 54.3451 69.7942 53.7451 69.7462C53.3651 70.0322 52.9451 70.2652 52.5451 70.4962C52.1251 70.7452 51.7052 71.0002 51.3352 71.3432C50.9752 71.8922 50.4751 72.2532 49.9151 72.3522C49.3351 72.4522 48.7451 72.2752 48.2351 71.8032C47.2351 71.0942 46.0852 70.8532 44.8352 70.8152L44.6751 70.7472C44.2251 70.3242 43.6551 70.0992 43.0351 69.9042C42.4351 69.7142 41.7451 69.5472 41.1651 69.2322L41.1151 69.1942C40.6851 68.7902 40.2951 68.3232 39.9051 67.8972C39.5251 67.4692 39.1352 67.0742 38.7052 66.7712C37.6652 66.2442 36.6052 65.8682 35.4652 65.8142L35.3452 65.7762C34.3652 65.1692 33.7551 64.2752 33.2351 63.3432C32.9751 62.8802 32.7351 62.3922 32.4951 61.9302C32.2551 61.4732 32.0151 61.0312 31.7351 60.6232C31.1651 60.1572 31.1151 59.5172 31.0551 59.0172C30.9951 58.4822 30.9251 58.0932 30.4851 57.8322L30.4752 57.8262C29.9752 57.4932 29.6051 56.9742 29.2851 56.5192C28.9651 56.0752 28.6951 55.6972 28.3751 55.4732C28.1551 55.5042 27.9151 55.5462 27.6751 55.5892C27.3951 55.6372 27.1052 55.6842 26.8252 55.7042C26.2752 55.7432 25.7052 55.6862 25.2052 55.3422C25.0252 55.3352 24.8651 55.2932 24.7351 55.2092C24.5751 55.1132 24.4751 54.9772 24.4051 54.8342C24.2751 54.5642 24.2352 54.2202 24.2052 53.9762C24.1852 53.8432 24.1751 53.7352 24.1451 53.6512C24.1251 53.5642 24.0952 53.5342 24.0952 53.5272C24.0852 53.5252 24.0852 53.5232 24.0852 53.5222C24.0752 53.5202 24.0551 53.5182 24.0151 53.5242C23.9351 53.5362 23.8151 53.5822 23.6251 53.6942L23.6051 53.7062C23.4351 53.7832 23.3051 53.9342 23.1751 54.1572C23.1151 54.2672 23.0551 54.3882 22.9951 54.5172C22.9351 54.6432 22.8751 54.7812 22.8051 54.9102C22.6851 55.1662 22.5151 55.4412 22.2651 55.6182C21.9951 55.8082 21.6651 55.8652 21.2451 55.7572L21.0751 55.5972C21.0151 55.4442 20.8851 55.2962 20.6851 55.1382C20.4751 54.9792 20.2251 54.8372 19.9651 54.6742C19.7151 54.5182 19.4551 54.3412 19.2651 54.1252C19.0651 53.9022 18.9351 53.6212 18.9751 53.2742V53.2602C19.0651 52.7742 19.0051 52.2542 18.8051 51.9222C18.7051 51.7622 18.5851 51.6532 18.4251 51.6002C18.2751 51.5472 18.0651 51.5402 17.7851 51.6372L17.6651 51.6482C17.5051 51.6232 17.3551 51.5602 17.2451 51.4572C17.1251 51.3562 17.0552 51.2282 17.0052 51.0932C16.9252 50.8312 16.9351 50.5142 16.9751 50.2152C17.0151 49.9102 17.0951 49.5882 17.1751 49.3022C17.2551 49.0072 17.3351 48.7632 17.3751 48.5762L17.3951 48.5312C17.8751 47.4742 17.2551 46.4132 16.2351 45.8422L16.2051 45.8212C15.5251 45.2912 14.7851 44.8382 14.0451 44.3642C13.3051 43.8922 12.5651 43.4012 11.8751 42.8052V42.8062C11.7451 42.6942 11.5551 42.6532 11.3051 42.6592C11.1851 42.6632 11.0551 42.6772 10.9251 42.6952C10.7951 42.7112 10.6551 42.7322 10.5251 42.7442C10.3951 42.7572 10.2651 42.7622 10.1351 42.7422C10.0051 42.7222 9.86515 42.6722 9.75515 42.5552C9.64515 42.4372 9.60512 42.2832 9.59512 42.1162C9.58512 41.9512 9.61513 41.7552 9.67513 41.5282L9.68514 41.5192C9.76514 41.2382 9.74513 41.0142 9.67513 40.8202C9.58513 40.6182 9.43513 40.4292 9.23513 40.2372C9.02513 40.0422 8.79513 39.8642 8.54513 39.6622C8.31513 39.4772 8.0851 39.2742 7.8951 39.0432C7.3051 38.6902 7.04512 38.1922 6.97512 37.6452C6.90512 37.1082 7.02511 36.5302 7.15511 36.0092C7.30511 34.6912 7.88511 33.5212 9.08511 32.8052L9.11514 32.7892C9.47514 32.6342 9.66515 32.4752 9.75515 32.3292C9.85515 32.1922 9.87512 32.0402 9.84512 31.8552C9.81512 31.6612 9.73514 31.4432 9.61514 31.1912C9.50514 30.9552 9.34512 30.6632 9.22512 30.3912V30.1892C9.36512 29.8822 9.53512 29.6042 9.66512 29.3772C9.80512 29.1342 9.89512 28.9772 9.91512 28.8712V28.8442C9.91512 28.8402 9.90509 28.8342 9.88509 28.8282C9.76509 28.7852 9.49514 28.7622 8.99514 28.8032L8.92513 28.8002C8.69513 28.7572 8.43511 28.7292 8.15511 28.6932C7.87511 28.6572 7.58515 28.6132 7.31515 28.5352C6.77515 28.3812 6.25512 28.0742 6.09512 27.3942C5.25512 25.7982 4.45512 24.1762 3.66512 22.5642L3.63509 22.4252C3.65509 22.2652 3.60513 22.1562 3.48513 22.0462C3.34513 21.9202 3.15512 21.8192 2.91512 21.6822C2.68512 21.5542 2.42513 21.3952 2.23513 21.1652C2.03513 20.9222 1.92512 20.6112 1.97512 20.2062L2.02511 20.0802C2.12511 19.9582 2.1451 19.8862 2.1451 19.8562C2.1451 19.8372 2.14514 19.8202 2.11514 19.7882C2.08514 19.7502 2.01513 19.7052 1.92513 19.6542C1.82513 19.6022 1.72513 19.5562 1.60513 19.4982C1.49513 19.4452 1.36515 19.3812 1.25515 19.3022C1.15515 19.2232 1.04514 19.1122 0.995141 18.9552C0.935141 18.7912 0.965129 18.6202 1.04513 18.4542C1.12513 18.2942 1.26511 18.1252 1.46511 17.9432L1.47512 17.9342C1.92512 17.5522 2.02511 17.1532 1.96511 16.8932C1.90511 16.6452 1.68511 16.4372 1.27511 16.4472L1.0751 16.3572C0.605097 15.7912 0.645134 15.1882 0.675134 14.6862C0.705134 14.1712 0.715095 13.7522 0.385095 13.3392L0.345117 13.2792C0.275117 13.0922 0.235151 12.9152 0.255151 12.7482C0.275151 12.5792 0.355154 12.4402 0.445154 12.3282C0.635154 12.1232 0.915146 11.9942 1.12515 11.8932C1.36515 11.7772 1.52514 11.6872 1.61514 11.5722C1.65514 11.5232 1.67513 11.4692 1.67513 11.4002C1.67513 11.3262 1.66512 11.2212 1.59512 11.0722L1.7651 10.7272C2.0051 10.6662 2.22515 10.5752 2.44515 10.4832C2.65515 10.3942 2.88512 10.2982 3.09512 10.2542C3.17512 10.2392 3.2451 10.2302 3.3251 10.2292L3.42513 10.0632C3.61513 10.1572 3.81514 10.1812 4.05514 10.1672C4.29514 10.1532 4.52513 10.1012 4.79513 10.0562C5.04513 10.0132 5.32512 9.97718 5.59512 10.0272C5.83512 10.0732 6.06514 10.1922 6.24514 10.4162L6.3251 10.5192L6.34512 10.5502C6.45512 10.7702 6.59514 10.8992 6.74514 10.9772C6.91514 11.0572 7.11513 11.0912 7.35513 11.0932C7.58513 11.0952 7.83513 11.0652 8.10513 11.0312C8.35513 10.9972 8.62515 10.9592 8.87515 10.9532L9.13509 11.2202C9.12509 11.2862 9.15515 11.3732 9.25515 11.5012C9.34515 11.6322 9.48509 11.7612 9.63509 11.9252C9.90509 12.2092 10.2652 12.6012 10.2552 13.1212C10.4452 13.4282 10.6051 13.6762 10.7051 13.8632C10.7551 13.9632 10.8051 14.0602 10.8351 14.1502C10.8551 14.2082 10.8651 14.2832 10.8551 14.3632C10.9551 14.3892 11.0351 14.3912 11.1151 14.3782C11.2851 14.3522 11.4551 14.2582 11.6451 14.1072C11.7751 14.0012 11.8951 13.8802 12.0251 13.7502C12.0151 13.7312 11.9951 13.7112 11.9851 13.6912C11.9251 13.6002 11.8751 13.4942 11.8451 13.3842C11.7851 13.1782 11.7651 12.8922 11.9151 12.6692C11.9351 12.6452 11.9551 12.6232 11.9751 12.6022C11.8751 12.5162 11.7952 12.4192 11.7552 12.3062C11.6352 12.0242 11.7451 11.7452 11.8151 11.5782C11.8651 11.4782 11.8951 11.4152 11.9151 11.3512V11.3262C11.8651 11.3092 11.7651 11.2932 11.5951 11.2922L11.5751 11.2912C10.4551 11.1642 9.46515 10.5712 8.81515 9.72818C8.61515 9.63318 8.47515 9.55618 8.37515 9.49218C8.32515 9.45818 8.26512 9.41718 8.22512 9.36718C8.18512 9.32118 8.10512 9.20518 8.16512 9.06118C8.21512 8.94318 8.32513 8.89817 8.35513 8.88417C8.40513 8.86517 8.45515 8.85317 8.50515 8.84517C8.59515 8.82917 8.7151 8.81718 8.8251 8.80318C9.0751 8.77218 9.29514 8.72918 9.43514 8.63918C9.49514 8.59918 9.53513 8.55717 9.54513 8.51317C9.55513 8.47917 9.56513 8.42418 9.54513 8.34218C9.20513 8.14818 8.70511 7.90418 8.27511 7.62618C7.78511 7.31718 7.29513 6.92518 6.98513 6.40418V6.15218C7.11513 5.93818 7.2751 5.72418 7.3951 5.54918C7.5251 5.36018 7.6051 5.21817 7.6351 5.11017C7.6451 5.06217 7.6451 5.03319 7.6351 5.01719C7.6351 5.00219 7.62511 4.97719 7.58511 4.94419C7.48511 4.86719 7.28514 4.77718 6.86514 4.70618V4.70517C5.86514 4.54017 5.27514 3.66318 5.55514 2.82418L5.62515 2.71817C6.12515 2.26017 6.82512 2.12518 7.47512 2.22718C8.10512 2.32618 8.71512 2.65418 9.09512 3.17818C9.48512 3.41518 9.91513 3.41418 10.4251 3.42318C10.9251 3.43218 11.4951 3.45319 11.9851 3.87519C12.2051 4.02819 12.3851 4.02017 12.5351 3.95517C12.6851 3.88417 12.8251 3.72919 12.8851 3.54319C12.9551 3.35619 12.9451 3.18318 12.8751 3.07418C12.8151 2.97718 12.6651 2.86418 12.3151 2.88018L12.2751 2.87918C12.0051 2.85218 11.7451 2.72317 11.5251 2.55417C11.3051 2.38417 11.1151 2.15918 10.9951 1.91718C10.8851 1.67818 10.8251 1.39518 10.9051 1.12418C10.9851 0.84918 11.2051 0.640177 11.5351 0.518177Z" fill="#FD9C9C" stroke="white" stroke-width="0.5" stroke-linejoin="round"/>
</svg>
