<svg width="137" height="138" viewBox="0 0 137 138" fill="none" xmlns="http://www.w3.org/2000/svg">
<path d="M56.5313 119.887C56.5813 119.899 56.6313 119.922 56.6713 119.943C56.7513 119.985 56.8313 120.048 56.9113 120.112C56.9913 120.177 57.0813 120.258 57.1813 120.339C57.3713 120.501 57.5913 120.681 57.8413 120.841C58.6313 121.122 59.1413 121.692 59.5613 122.302C59.7713 122.61 59.9713 122.94 60.1613 123.249C60.3513 123.563 60.5513 123.861 60.7713 124.126L60.8213 124.251C60.9013 124.825 60.9512 125.242 61.1212 125.589C61.2512 125.876 61.4713 126.127 61.9013 126.355L62.0913 126.451L62.2412 126.627C62.4312 127.565 62.9712 128.38 63.5112 129.256C64.0412 130.115 64.5712 131.03 64.6312 132.109V132.166C64.1212 135.098 61.5012 137.689 58.3812 137.539C57.8212 137.551 57.3712 137.397 57.0012 137.125C56.6212 136.854 56.3513 136.476 56.1413 136.064C55.9313 135.652 55.7712 135.193 55.6312 134.751C55.5012 134.297 55.3912 133.885 55.2612 133.505C54.7412 132.228 54.7813 130.868 54.8013 129.581C54.8213 128.269 54.8213 127.027 54.2813 125.882L54.3612 125.574C54.4712 125.489 54.5313 125.408 54.5613 125.337C54.6013 125.267 54.6013 125.192 54.6013 125.106C54.5813 124.921 54.4812 124.718 54.3612 124.483C54.3012 124.373 54.2413 124.254 54.1913 124.141C54.1413 124.031 54.1013 123.9 54.1013 123.766C54.0913 123.618 54.1513 123.471 54.2813 123.359C54.4013 123.257 54.5612 123.199 54.7412 123.165L54.8213 123.163C55.0813 123.193 55.2412 123.13 55.3612 123.032C55.4912 122.923 55.5913 122.75 55.6813 122.515C55.7813 122.273 55.8513 122.026 55.9513 121.746C56.0213 121.524 56.1212 121.292 56.2512 121.093C56.1612 120.705 56.1112 120.428 56.1212 120.253C56.1212 120.175 56.1413 119.995 56.3113 119.913C56.3913 119.872 56.4713 119.875 56.5313 119.887ZM45.4713 0.250025C45.6113 0.249025 45.7613 0.278023 45.8913 0.379023C46.0213 0.485023 46.0912 0.637025 46.1112 0.806025C46.1212 0.952025 46.1013 1.12202 46.0613 1.31402C46.2313 1.85102 46.4513 2.38202 46.6913 2.91802C46.9113 3.42002 47.1413 3.93203 47.3513 4.44903C48.4913 4.48403 49.5612 4.86202 50.2412 5.91502L50.2813 6.10102C50.2413 6.30702 50.1112 6.51403 49.9912 6.69403C49.8712 6.88903 49.7412 7.07602 49.6212 7.28602C49.4112 7.68902 49.3013 8.11902 49.5813 8.63302L49.6013 8.80003C49.5513 9.07403 49.5913 9.25302 49.6713 9.37802C49.7513 9.50902 49.8913 9.61602 50.1013 9.70002C50.5113 9.87102 51.0713 9.90803 51.5413 9.94403L51.7512 10.112C51.8212 10.296 51.9412 10.399 52.1212 10.476C52.3112 10.561 52.5112 10.594 52.7612 10.661C52.9712 10.717 53.2513 10.81 53.4013 11.066C53.5213 11.294 53.5012 11.578 53.3812 11.912C53.6312 12.184 53.7813 12.446 53.8313 12.704C53.9013 13.012 53.8113 13.281 53.6513 13.508C53.5013 13.727 53.2713 13.912 53.0313 14.076C52.7913 14.235 52.5213 14.391 52.2713 14.543C52.0113 14.816 51.7213 14.951 51.4213 14.958C51.1213 14.965 50.8512 14.84 50.6312 14.676C50.4112 14.511 50.2313 14.295 50.0913 14.087C50.0113 13.952 49.9312 13.813 49.8812 13.684C49.3312 13.694 49.0713 13.88 48.9813 14.081C48.8713 14.312 48.9113 14.695 49.2313 15.19C49.5713 15.358 49.7913 15.564 49.9413 15.803C50.1013 16.054 50.1613 16.322 50.2013 16.57C50.2813 17.093 50.2613 17.492 50.5613 17.858L50.5513 18.185C50.4613 18.283 50.3912 18.449 50.3812 18.649C50.3712 18.847 50.4113 19.042 50.4813 19.178C50.5613 19.313 50.6413 19.355 50.7113 19.354C50.8013 19.353 50.9812 19.289 51.2512 18.989L51.3913 18.907C52.0313 18.796 52.5313 19.211 52.9113 19.627C53.1113 19.841 53.3013 20.082 53.4813 20.293C53.6413 20.485 53.7913 20.653 53.9313 20.784C54.8613 20.843 55.9813 21.221 56.9213 21.889L57.0313 22.131C56.9713 22.489 57.1412 22.764 57.4912 22.963C57.8412 23.168 58.3612 23.268 58.8612 23.243L59.0012 23.274C59.2912 23.437 59.5813 23.606 59.8313 23.781C60.0613 23.951 60.2813 24.146 60.4113 24.37C60.4213 24.397 60.4313 24.426 60.4513 24.456L60.7612 24.571C60.8212 24.906 60.9513 25.09 61.0813 25.182C61.2013 25.272 61.3512 25.295 61.5112 25.253C61.8312 25.168 62.1613 24.804 62.1513 24.249L62.2113 24.082C62.5413 23.697 63.0812 23.546 63.6312 23.517C64.1212 23.492 64.6513 23.562 65.1413 23.689L65.3513 23.747L65.3913 23.764C65.6613 23.902 65.8313 24.127 65.9513 24.346C66.0213 24.455 66.0712 24.57 66.1312 24.677C66.1812 24.787 66.2313 24.89 66.2813 24.987C66.3913 25.18 66.5113 25.325 66.6613 25.418C66.8113 25.509 67.0312 25.567 67.3712 25.525L67.4713 25.532C67.7813 25.62 68.0713 25.796 68.3213 25.99C68.5813 26.181 68.8313 26.41 69.0513 26.603C69.5313 27.011 69.9313 27.275 70.3913 27.211C71.0013 27.091 71.5012 27.49 71.8812 27.899C72.0812 28.112 72.2613 28.351 72.4313 28.57C72.5913 28.771 72.7312 28.951 72.8712 29.097C72.8812 29.099 72.9113 29.099 72.9413 29.096C73.0213 29.09 73.1113 29.07 73.2113 29.04C73.3213 29.011 73.4413 28.973 73.5713 28.933C73.7013 28.894 73.8413 28.852 73.9813 28.818C74.2513 28.75 74.5712 28.702 74.8612 28.762C75.1312 28.818 75.3813 28.965 75.5613 29.234L75.6312 29.356L75.6613 29.462C75.6813 30.022 75.8512 30.396 76.1212 30.695C76.3412 30.927 76.6312 31.125 77.0012 31.325L77.4013 31.527L77.5012 31.619C77.6812 31.895 77.8613 32.015 78.0313 32.066C78.2113 32.119 78.4113 32.107 78.6413 32.063C78.7513 32.041 78.8613 32.012 78.9813 31.983C79.0913 31.955 79.2113 31.925 79.3213 31.906C79.5413 31.869 79.8213 31.858 80.0413 32.04L80.0913 32.379C79.8313 32.73 79.8113 32.918 79.8313 33.002C79.8513 33.07 79.9212 33.152 80.1212 33.218C80.3312 33.283 80.6013 33.31 80.9013 33.317C81.1813 33.323 81.4713 33.309 81.7213 33.297C82.3413 33.136 82.8912 33.457 83.2612 33.88C83.5012 34.144 83.6913 34.467 83.8213 34.79C83.8813 34.715 83.9412 34.652 84.0112 34.602C84.2312 34.442 84.4613 34.453 84.6713 34.508C84.7713 34.535 84.8713 34.574 84.9613 34.613C85.0713 34.654 85.1613 34.695 85.2713 34.737C85.4413 34.799 85.6313 34.855 85.8413 34.888C85.9413 34.652 86.0813 34.472 86.2813 34.351C86.5213 34.2 86.8013 34.161 87.0713 34.181C87.4713 34.211 87.9113 34.374 88.3013 34.572L88.6813 34.777L88.7813 34.897C88.9013 35.184 89.0513 35.317 89.2113 35.385C89.3713 35.459 89.5913 35.473 89.8513 35.456C89.9813 35.448 90.1112 35.434 90.2612 35.42C90.4012 35.407 90.5513 35.394 90.7013 35.39C90.9513 35.384 91.2213 35.405 91.4713 35.502C91.6313 35.397 91.8313 35.315 92.0313 35.255C92.3213 35.172 92.6413 35.119 92.9413 35.121C93.2313 35.123 93.5512 35.175 93.7612 35.363C93.7812 35.379 93.7913 35.399 93.8113 35.417C93.9213 35.324 94.0413 35.249 94.1813 35.198C94.7213 34.883 95.3913 34.83 95.8913 35.065C96.1513 35.187 96.3613 35.391 96.4713 35.68C96.5713 35.956 96.5613 36.28 96.4313 36.635C96.4013 37.246 96.4912 37.821 96.6112 38.385C96.9212 38.021 97.2213 37.641 97.5213 37.255C97.9013 36.774 98.2813 36.285 98.6913 35.821C99.5013 34.892 100.411 34.045 101.571 33.526L101.641 33.507C102.321 33.403 102.861 33.826 103.301 34.129C103.771 34.455 104.161 34.688 104.681 34.554L104.791 34.549C105.111 34.605 105.461 34.61 105.841 34.6C106.211 34.59 106.621 34.566 107.001 34.572C107.781 34.584 108.581 34.716 109.161 35.395C109.401 35.652 109.531 35.951 109.601 36.24C109.621 36.31 109.631 36.38 109.651 36.45C110.001 36.157 110.541 36.032 111.111 36.202C112.231 36.219 113.111 35.717 113.941 35.015C114.351 34.66 114.751 34.261 115.161 33.858C115.561 33.458 115.971 33.053 116.411 32.705C117.041 32.198 117.791 31.952 118.481 31.707C119.181 31.458 119.821 31.205 120.341 30.704L120.391 30.664C120.651 30.527 120.911 30.341 121.211 30.141C121.501 29.946 121.811 29.74 122.131 29.582C122.451 29.425 122.801 29.307 123.161 29.303C123.511 29.3 123.861 29.407 124.191 29.663C124.781 29.893 125.371 30.119 125.941 30.172C126.511 30.225 127.031 30.107 127.491 29.647L127.561 29.596C127.771 29.497 128.001 29.342 128.241 29.169C128.481 29.003 128.741 28.82 129.001 28.696C129.251 28.571 129.551 28.487 129.861 28.565C130.161 28.642 130.411 28.864 130.631 29.225C130.781 29.398 130.991 29.584 131.231 29.798C131.471 30.011 131.731 30.247 131.941 30.498C132.141 30.748 132.321 31.04 132.351 31.367C132.391 31.708 132.271 32.044 131.971 32.361L131.941 32.383C131.631 32.638 131.511 32.819 131.491 32.927C131.471 32.974 131.481 33.004 131.491 33.025C131.501 33.048 131.521 33.08 131.561 33.116C131.661 33.193 131.831 33.263 132.071 33.307C132.311 33.35 132.581 33.366 132.851 33.354L132.891 33.356C133.461 33.434 134.011 33.573 134.541 33.695C134.951 33.787 135.351 33.87 135.741 33.917L136.141 33.952L136.381 34.15C136.521 34.85 136.321 35.428 135.991 35.916C135.671 36.38 135.221 36.777 134.821 37.13C134.761 37.259 134.751 37.444 134.781 37.692C134.791 37.756 134.811 37.822 134.821 37.888L134.961 38.495C134.981 38.623 135.001 38.76 134.991 38.887C134.981 39.015 134.941 39.163 134.831 39.277C134.711 39.392 134.551 39.433 134.391 39.434C134.231 39.435 134.031 39.397 133.811 39.33V39.331C133.131 39.142 132.441 38.914 131.781 38.875C131.131 38.838 130.551 38.983 130.081 39.523L130.051 39.547C129.421 40.083 128.671 40.479 127.981 40.872C127.281 41.264 126.641 41.658 126.161 42.194C126.061 42.387 126.021 42.609 126.011 42.865C126.001 43.138 126.021 43.406 126.031 43.716C126.051 44.298 126.001 44.956 125.391 45.447C125.241 45.699 125.021 45.94 124.811 46.162C124.581 46.405 124.351 46.629 124.161 46.863C123.981 47.095 123.861 47.309 123.821 47.515C123.801 47.684 123.821 47.869 123.961 48.084L124.021 48.178L124.061 48.27C124.251 49.061 123.961 49.771 123.611 50.406C123.431 50.716 123.221 51.047 123.051 51.34C122.881 51.646 122.721 51.94 122.631 52.234L122.601 52.289C122.491 52.469 122.381 52.702 122.261 52.966C122.151 53.221 122.021 53.503 121.871 53.744C121.711 53.984 121.511 54.211 121.231 54.331C120.951 54.45 120.641 54.447 120.281 54.313C120.011 54.303 119.721 54.19 119.461 54.073C119.151 53.936 118.901 53.797 118.641 53.693C118.511 53.643 118.411 53.61 118.321 53.594C118.231 53.579 118.171 53.585 118.141 53.596C118.111 53.607 118.011 53.654 117.991 54.005V54.007C117.981 54.303 118.011 54.615 118.061 54.946C118.101 55.264 118.171 55.624 118.211 55.958C118.301 56.641 118.301 57.371 117.841 58.017L117.651 58.121C117.301 58.144 117.081 58.233 116.941 58.346C116.801 58.457 116.721 58.61 116.671 58.804C116.611 59.111 116.661 59.495 116.751 59.903L116.861 60.316L116.871 60.353C116.941 60.867 116.941 61.46 116.771 61.982C116.591 62.513 116.231 62.977 115.591 63.185L115.371 63.146C115.151 62.982 114.881 62.888 114.581 62.808C114.421 62.766 114.251 62.725 114.071 62.678C114.201 63.664 114.311 64.652 114.421 65.636L114.311 65.866C114.111 66.013 113.901 66.146 113.691 66.274C113.491 66.403 113.291 66.526 113.101 66.658C112.721 66.92 112.401 67.206 112.191 67.598L111.761 67.623C111.151 66.734 110.911 65.73 110.711 64.765C110.511 63.786 110.341 62.853 109.871 62.014V62.013C109.751 61.803 109.641 61.516 109.531 61.241C109.421 60.956 109.301 60.671 109.161 60.43C109.031 60.185 108.891 60.018 108.751 59.937C108.631 59.869 108.491 59.847 108.281 59.95C107.831 60.269 107.291 60.485 106.771 60.469C106.221 60.452 105.721 60.177 105.421 59.563L105.401 59.516C105.321 59.199 105.191 58.984 105.071 58.859C104.941 58.732 104.841 58.709 104.781 58.716C104.731 58.722 104.661 58.755 104.611 58.889C104.561 59.027 104.541 59.259 104.611 59.6C104.701 59.797 104.821 60.026 104.951 60.292C105.091 60.561 105.231 60.859 105.321 61.154C105.411 61.446 105.461 61.763 105.391 62.061C105.321 62.373 105.121 62.635 104.771 62.815L104.571 62.829C104.481 62.795 104.411 62.799 104.351 62.818C104.291 62.838 104.221 62.882 104.151 62.957C104.001 63.117 103.871 63.354 103.731 63.609C103.661 63.728 103.591 63.855 103.511 63.958C103.441 64.057 103.331 64.17 103.191 64.224C103.031 64.287 102.861 64.252 102.721 64.15C102.591 64.057 102.471 63.906 102.361 63.713L102.351 63.691C102.211 63.385 102.061 63.137 101.921 62.963C101.771 62.779 101.671 62.719 101.621 62.709C101.611 62.714 101.591 62.734 101.561 62.794C101.491 62.929 101.441 63.185 101.431 63.612L101.401 63.729C101.271 63.969 101.131 64.148 100.991 64.266C100.841 64.388 100.681 64.451 100.501 64.431C100.331 64.412 100.201 64.325 100.101 64.236C100.001 64.146 99.9113 64.035 99.8313 63.936C99.7513 63.829 99.6912 63.741 99.6212 63.663C99.5712 63.607 99.5413 63.576 99.5213 63.558C99.4913 63.587 99.4413 63.65 99.3913 63.777C99.2513 64.164 99.0412 64.436 98.7512 64.525C98.4712 64.61 98.2112 64.5 98.0112 64.344C97.8812 64.777 97.5713 65.115 97.2013 65.26C96.9513 65.359 96.6713 65.373 96.4113 65.241C96.1513 65.108 95.9513 64.849 95.8513 64.486L95.8413 64.414C95.8513 63.983 95.7713 63.803 95.7113 63.745C95.7013 63.725 95.6813 63.721 95.6713 63.72C95.6513 63.719 95.6113 63.724 95.5513 63.755C95.4313 63.819 95.2712 63.962 95.1312 64.165C95.0012 64.366 94.8913 64.605 94.8413 64.839L94.7213 65.006C94.5513 65.106 94.3713 65.145 94.1913 65.1C94.0213 65.056 93.8913 64.944 93.8013 64.827C93.6213 64.601 93.4812 64.263 93.3812 64.003C93.3212 63.865 93.2713 63.743 93.2213 63.645C93.1813 63.571 93.1512 63.528 93.1312 63.502C93.1012 63.528 93.0413 63.581 92.9713 63.694V63.695C92.3113 64.685 91.2913 65.133 90.2913 65.497C89.2913 65.864 88.3213 66.146 87.5813 66.755C87.5113 66.923 87.5213 67.102 87.5613 67.305C87.6213 67.536 87.7213 67.765 87.8313 68.03C87.9313 68.278 88.0413 68.564 88.0413 68.85C88.0413 69.155 87.9212 69.443 87.6312 69.692V69.693C87.2312 70.059 87.0413 70.486 86.7713 70.947C86.5213 71.39 86.2212 71.84 85.6312 72.142C84.5712 73.217 83.1912 73.724 81.7512 73.896V73.897C80.7912 74.014 80.0713 74.533 79.4113 75.207C79.0813 75.547 78.7713 75.917 78.4413 76.293C78.1313 76.658 77.8013 77.025 77.4413 77.351L76.5012 78.489C76.1812 78.878 75.8512 79.268 75.5012 79.622C74.8112 80.318 74.0212 80.916 73.0112 81.2C71.8812 82.953 70.1213 84.041 68.2913 84.857L68.2713 84.866C67.0713 85.279 66.4112 86.371 66.3812 87.646L66.3413 87.775C65.4813 89.132 63.7013 89.751 62.1813 89.309C61.8113 89.613 61.6413 90.066 61.4413 90.599C61.2413 91.146 61.0012 91.78 60.3712 92.141L60.0813 92.114C59.5713 91.679 58.9013 91.62 58.3013 91.838C57.6913 92.058 57.1713 92.551 56.9713 93.174L56.9513 93.223C56.3113 94.33 56.3813 95.544 56.5513 96.847C56.7213 98.124 57.0013 99.508 56.6613 100.813L56.6212 100.907C56.4412 101.133 56.4313 101.303 56.4713 101.456C56.5313 101.639 56.6712 101.826 56.8612 102.057C57.0412 102.272 57.2613 102.528 57.4013 102.808C57.5513 103.095 57.6213 103.427 57.4813 103.8C57.2213 105.252 56.5912 106.603 56.0012 107.919C55.4012 109.248 54.8513 110.547 54.7013 111.944C54.6913 112.808 54.8512 113.681 54.9912 114.589C55.1212 115.488 55.2213 116.414 55.0513 117.327L54.8413 117.529C54.5613 117.572 54.2313 117.554 53.9313 117.534C53.6213 117.513 53.3313 117.489 53.0613 117.504C52.7913 117.52 52.5913 117.574 52.4513 117.68C52.3213 117.779 52.2113 117.949 52.1813 118.277C52.1713 118.577 52.0713 118.864 51.9413 119.125C51.8213 119.39 51.6513 119.657 51.5213 119.893C51.3813 120.139 51.2713 120.357 51.2113 120.558C51.1713 120.717 51.1613 120.853 51.2013 120.977C51.3813 121.053 51.5413 121.132 51.6513 121.217C51.7813 121.316 51.8913 121.444 51.9213 121.609C51.9513 121.784 51.8813 121.93 51.7913 122.034C51.7013 122.134 51.5813 122.215 51.4513 122.281C50.9713 122.537 50.1613 122.702 49.6913 122.748C49.1413 122.865 48.5713 123.059 48.1513 123.373C47.7813 123.641 47.5312 123.992 47.4912 124.467V124.678V124.686L47.4813 124.87C47.4213 125.761 46.8613 126.286 46.2213 126.673C45.8913 126.877 45.5213 127.055 45.1813 127.226C44.8413 127.401 44.5313 127.573 44.2813 127.777L44.1013 127.831C43.3813 127.785 42.8713 127.327 42.4513 126.854C42.3513 126.734 42.2413 126.611 42.1413 126.49C42.0413 126.368 41.9413 126.248 41.8413 126.133C41.6413 125.902 41.4512 125.7 41.2412 125.547V125.546C40.6612 125.147 40.3713 124.601 40.1413 124.054C39.9113 123.487 39.7613 122.964 39.4713 122.474L39.4413 122.399C38.6113 118.448 36.9213 114.703 34.9113 111.2C33.8113 109.72 32.9613 108.11 32.5513 106.289V106.288C31.7113 103.595 31.1013 100.903 29.7813 98.456L28.4912 96.173C27.1912 93.881 25.9312 91.535 25.2512 88.938C23.7512 83.391 22.5712 77.731 22.0012 72V71.968C22.0312 71.178 22.4912 70.538 22.8812 69.978C23.2612 69.436 23.5712 68.962 23.6112 68.419C22.3912 67.746 21.7313 66.515 21.7213 65.146C21.6013 64.897 21.5713 64.602 21.5613 64.325C21.5613 64.021 21.6012 63.692 21.6312 63.411C21.6612 63.114 21.6713 62.876 21.6413 62.705C21.6213 62.622 21.6013 62.574 21.5813 62.547C21.5613 62.526 21.5412 62.509 21.5012 62.498C20.5512 62.278 19.7513 62.813 19.5713 63.731C19.9213 64.086 20.1713 64.55 20.2313 65.042C20.3013 65.583 20.1413 66.144 19.6613 66.607C18.9513 67.467 18.0012 67.965 17.0112 68.333C16.5212 68.518 16.0113 68.673 15.5213 68.824C15.0313 68.976 14.5413 69.124 14.0913 69.297L14.0112 69.314C12.6912 69.351 11.5813 68.832 10.6013 68.115C9.63134 67.403 8.78134 66.475 7.98134 65.68C7.65134 65.365 7.30131 65.06 6.95131 64.751C6.61131 64.444 6.26128 64.133 5.92128 63.812C5.24128 63.168 4.60134 62.472 4.10134 61.639L4.28127 61.262C5.10127 61.167 5.95134 61.302 6.73134 61.359C7.52134 61.417 8.25132 61.399 8.96132 61.051L8.99123 61.038C9.85123 60.765 10.4313 60.062 11.0413 59.315C11.0313 59.304 11.0212 59.294 11.0112 59.288C10.9812 59.264 10.9313 59.243 10.8513 59.235C10.6813 59.217 10.4513 59.26 10.1513 59.331C9.86126 59.397 9.53132 59.487 9.21132 59.528C8.91132 59.566 8.58128 59.564 8.29128 59.439C5.35128 59.293 2.41123 58.036 0.621235 55.599C0.351235 55.37 0.191259 55.106 0.271259 54.812C0.311259 54.676 0.391342 54.566 0.481342 54.48C0.571342 54.394 0.681279 54.317 0.791279 54.25C1.00128 54.123 1.28134 53.988 1.48134 53.876C1.71134 53.75 1.8613 53.641 1.9413 53.539L2.23134 53.451C2.67134 53.623 2.88123 53.604 2.99123 53.558C3.08123 53.516 3.15132 53.42 3.21132 53.225C3.23132 53.13 3.25127 53.025 3.28127 52.911C3.30127 52.8 3.32134 52.677 3.35134 52.564C3.41134 52.35 3.53133 52.063 3.84133 51.97L3.95131 51.962C4.63131 52.068 5.35123 52.005 6.12123 51.999C6.87123 51.994 7.64133 52.046 8.34133 52.42C8.65133 52.576 8.86127 52.6 9.03127 52.573C9.20127 52.544 9.36128 52.456 9.54128 52.324C9.88128 52.078 10.3112 51.649 11.0012 51.593C11.3312 51.435 11.6112 51.434 11.8612 51.553C12.0912 51.664 12.2713 51.871 12.4013 52.009C12.5513 52.168 12.6513 52.263 12.7713 52.296C12.8713 52.324 13.0313 52.322 13.3113 52.132L13.3313 52.123C13.6113 51.967 13.7513 51.829 13.8213 51.713C13.8913 51.602 13.9113 51.489 13.9213 51.348C13.9213 51.101 13.8513 50.69 14.0513 50.244C13.7213 49.524 13.3512 48.844 12.9912 48.106C12.6612 47.431 12.3713 46.731 12.1813 45.985C11.6913 46.132 11.1513 46.1 10.6913 45.923C10.1313 45.711 9.65124 45.28 9.50124 44.669L9.49123 44.627C9.47123 44.367 9.55124 44.046 9.63124 43.748C9.72124 43.43 9.82125 43.129 9.89125 42.836C9.97125 42.539 9.99131 42.324 9.95131 42.194C9.94131 42.139 9.92125 42.112 9.89125 42.096C9.87125 42.078 9.82132 42.054 9.71132 42.052L9.66127 42.047C9.43127 42 9.16123 41.976 8.86123 41.945C8.56123 41.915 8.2413 41.879 7.9413 41.804C7.6413 41.73 7.34123 41.61 7.12123 41.401C6.88123 41.184 6.73132 40.887 6.71132 40.497V40.438C6.93132 39.201 7.54134 38.171 8.60134 37.457L8.61123 37.45C9.06123 37.182 9.27127 36.76 9.53127 36.262C9.77127 35.785 10.0613 35.245 10.7013 34.933C11.0713 34.651 11.4013 34.527 11.7113 34.6C12.0213 34.673 12.2113 34.922 12.3513 35.138C12.4213 35.25 12.4913 35.373 12.5513 35.484C12.6213 35.598 12.6812 35.703 12.7512 35.795C12.8712 35.973 12.9912 36.07 13.1312 36.1C13.6312 36.06 14.1213 35.865 14.6913 35.687C15.2413 35.515 15.8512 35.374 16.5012 35.523C17.0712 35.516 17.4512 35.345 17.7512 35.08C18.0512 34.802 18.2812 34.409 18.5112 33.93L18.5813 33.838C18.9913 33.524 19.2813 33.085 19.5613 32.6C19.8313 32.13 20.1013 31.595 20.4613 31.176L20.5613 31.105C21.3013 30.836 22.0513 30.561 22.6813 30.156C23.3113 29.755 23.7912 29.235 24.0112 28.483L24.0213 28.449C24.1613 28.15 24.2813 27.817 24.4313 27.461C24.5713 27.113 24.7213 26.751 24.9213 26.425C25.3113 25.775 25.8813 25.24 26.8213 25.24C27.2213 25.162 27.3113 25.054 27.3313 25.011C27.3413 24.985 27.3413 24.946 27.3413 24.88C27.3313 24.812 27.3113 24.732 27.2813 24.631C27.2213 24.454 27.1213 24.181 27.1513 23.916C27.1913 23.622 27.3812 23.386 27.7412 23.214C28.0112 22.907 28.3112 22.623 28.6112 22.35C28.9212 22.062 29.2312 21.786 29.5112 21.495C30.0612 20.915 30.4612 20.3 30.4912 19.487L30.5112 19.39C30.5812 19.242 30.5813 19.053 30.5213 18.808C30.4913 18.688 30.4513 18.564 30.4113 18.433C30.3613 18.306 30.3213 18.17 30.2813 18.039C30.2213 17.788 30.1613 17.476 30.3013 17.205C30.4513 16.928 30.7513 16.776 31.1813 16.708C31.4413 16.561 31.7613 16.462 32.0713 16.379C32.4113 16.288 32.7313 16.215 33.0413 16.113C33.3413 16.012 33.5912 15.894 33.7612 15.735C33.9012 15.601 34.0013 15.431 34.0313 15.192C33.7213 14.852 33.3013 14.693 32.8313 14.61C32.5813 14.565 32.3213 14.544 32.0513 14.525C31.7913 14.506 31.5213 14.488 31.2813 14.453L31.0713 14.185C31.1013 13.815 31.0313 13.622 30.9613 13.514C30.8813 13.407 30.7713 13.34 30.5913 13.287C30.5013 13.26 30.4013 13.238 30.2913 13.214C30.1913 13.192 30.0713 13.167 29.9613 13.134C29.7313 13.069 29.4813 12.963 29.2913 12.734L29.2612 12.483C29.3012 12.372 29.3013 12.291 29.2813 12.229C29.2713 12.163 29.2313 12.094 29.1513 12.02C29.0013 11.861 28.7712 11.732 28.5012 11.576C28.3812 11.503 28.2513 11.422 28.1513 11.333C28.0413 11.246 27.9312 11.13 27.8812 10.978C27.8312 10.811 27.8613 10.641 27.9513 10.482C28.0313 10.344 28.1713 10.211 28.3413 10.076C28.4213 9.93303 28.4113 9.80102 28.3513 9.64602C28.2613 9.45402 28.1213 9.28803 27.9813 9.06703C27.9113 8.96703 27.8413 8.85202 27.8013 8.73202C27.7613 8.60802 27.7313 8.46202 27.7913 8.30902C27.8413 8.15802 27.9513 8.03902 28.1013 7.94502C28.2313 7.85802 28.4112 7.78302 28.6312 7.71502C28.7312 7.63502 28.7913 7.57602 28.8213 7.53602C28.7913 7.52302 28.7513 7.50902 28.7113 7.49702C28.6013 7.46802 28.4713 7.44602 28.3313 7.42202C28.2013 7.39902 28.0413 7.37403 27.9113 7.34103C27.7913 7.31103 27.6413 7.26403 27.5413 7.17303C27.4813 7.12303 27.4213 7.05002 27.4013 6.95002C27.3713 6.84902 27.4013 6.75403 27.4313 6.67503C27.4813 6.58003 27.5613 6.48803 27.6613 6.39703C27.5913 6.28303 27.5013 6.18003 27.4113 6.07803C27.2813 5.94103 27.1213 5.77602 27.0213 5.59702C26.9013 5.39302 26.8713 5.15803 26.9713 4.88203C27.0613 4.62803 27.2713 4.35002 27.6013 4.02102L27.6813 3.96803C28.8413 3.47703 30.0813 3.25002 31.3513 3.69802C32.2213 3.81302 33.1113 4.04702 33.9513 4.24002C34.8113 4.43402 35.6413 4.58902 36.4613 4.57702C37.0113 4.36902 37.4612 4.26401 37.8712 4.14301C38.2812 4.01801 38.6813 3.86703 39.1813 3.55003L39.2113 3.53602C39.5313 3.38202 39.8613 3.42002 40.1413 3.50102C40.4113 3.58002 40.6913 3.72103 40.8913 3.80203C41.0013 3.84603 41.0813 3.87702 41.1513 3.89002C41.2213 3.90302 41.2613 3.89602 41.2713 3.89102C41.2813 3.88802 41.3613 3.84502 41.3913 3.48002C41.3713 2.80402 41.6413 2.30403 42.0413 1.92503C42.4313 1.55303 42.9513 1.29702 43.4413 1.08502L44.1613 0.714029C44.4413 0.569029 44.7613 0.415028 45.0413 0.328028C45.1813 0.284028 45.3313 0.252025 45.4713 0.250025Z" fill="#FD9C9C" stroke="white" stroke-width="0.5" stroke-linejoin="round"/>
</svg>
