<svg width="81" height="108" viewBox="0 0 81 108" fill="none" xmlns="http://www.w3.org/2000/svg">
<path d="M24.3143 1.8912C24.1043 0.553201 25.8044 -0.332777 26.7544 0.713223C27.5544 1.10722 27.8443 1.8062 28.0543 2.4772C28.1643 2.8322 28.2444 3.1562 28.3644 3.4812C28.4644 3.7612 28.5844 4.01322 28.7544 4.23022C28.9844 4.23422 29.2343 4.2332 29.4643 4.2442C29.7343 4.2582 30.0244 4.29121 30.2744 4.38421C30.5244 4.47921 30.7544 4.64221 30.8844 4.91821C31.0144 5.17821 31.0343 5.50322 30.9643 5.89822C31.0743 6.85022 31.2544 7.89122 31.2744 8.89322C31.2844 9.91022 31.1343 10.9322 30.5543 11.8802C29.9043 13.4742 28.5544 14.5462 27.1544 15.3402C26.9944 15.5662 26.8044 15.7892 26.6144 16.0012C26.4144 16.2332 26.2243 16.4562 26.0643 16.6852C25.7543 17.1382 25.6143 17.5722 25.8143 18.0742C26.1443 18.6992 26.1344 19.2872 26.0344 19.8402C25.9844 20.1142 25.9144 20.3902 25.8544 20.6502C25.8044 20.8422 25.7644 21.0292 25.7344 21.2162C26.2344 21.2932 26.7044 21.0502 27.2644 20.7282C27.8544 20.3942 28.5344 19.9672 29.3444 20.0722C29.9644 19.8792 30.5844 19.8882 31.0344 20.1732C31.5144 20.4722 31.7444 21.0262 31.6544 21.7582C31.7144 22.0172 31.7544 22.2812 31.7844 22.5392C31.8144 22.8162 31.8344 23.0762 31.8744 23.3382C31.9444 23.8032 32.0543 24.2182 32.3043 24.5692C32.7343 24.4842 33.3744 24.4142 33.8744 24.5052C34.1544 24.5562 34.4644 24.6682 34.6344 24.9222C34.8044 25.1932 34.7643 25.5282 34.5843 25.8862C34.3843 26.4232 34.0843 26.9612 33.8343 27.4642C33.5843 27.9702 33.3743 28.4512 33.3043 28.9292C33.3443 29.1912 33.4543 29.3072 33.5743 29.3702C33.7343 29.4472 33.9544 29.4682 34.2444 29.4542C34.3844 29.4472 34.5243 29.4332 34.6743 29.4182C34.8243 29.4032 34.9844 29.3872 35.1344 29.3792C35.3844 29.3662 35.6644 29.3732 35.9044 29.4732L36.0044 29.5212L36.0643 29.5672C36.3143 29.8332 36.4944 30.1462 36.6544 30.4542C36.8244 30.7812 36.9444 31.0612 37.1044 31.3562C37.3944 31.8782 37.7143 32.2692 38.3043 32.3962L38.4243 32.4182L38.4443 32.4222C38.6243 32.4632 38.8343 32.4242 39.0843 32.3162C39.3343 32.2092 39.5944 32.0482 39.8444 31.8872C40.0944 31.7332 40.3544 31.5672 40.5944 31.4882C40.7144 31.4482 40.8544 31.4222 40.9844 31.4462C41.1244 31.4712 41.2443 31.5462 41.3343 31.6642C41.6143 31.9862 41.7544 32.2922 41.7244 32.5962C41.7244 32.6002 41.7144 32.6042 41.7144 32.6082L41.7943 32.6262C42.0643 33.0112 42.5144 33.2962 43.0144 33.4282C43.5044 33.5572 44.0044 33.5282 44.3844 33.3402C44.6144 33.1322 44.7044 32.9222 44.7344 32.7092C44.7544 32.4782 44.7044 32.2212 44.5944 31.9332C44.4944 31.6412 44.3443 31.3532 44.2043 31.0402C44.0643 30.7492 43.9444 30.4402 43.8844 30.1352C43.7244 29.7662 43.7044 29.4252 43.7844 29.1142C43.8744 28.8012 44.0743 28.5452 44.3043 28.3382C44.7543 27.9352 45.4044 27.6702 45.9044 27.4852C46.5144 27.1352 47.2444 26.8242 47.9844 26.7572C48.7144 26.6892 49.4643 26.8702 50.0543 27.5042C50.2943 27.6782 50.4843 27.6982 50.6743 27.6552C50.8843 27.6062 51.0944 27.4722 51.3544 27.2912C51.6044 27.1202 51.8843 26.9052 52.1843 26.7632C52.4943 26.6222 52.8344 26.5432 53.2144 26.6322C53.7544 26.6012 54.3244 26.6002 54.8744 26.5882C55.4444 26.5752 56.0043 26.5502 56.5443 26.4762C57.6143 26.3262 58.5943 25.9782 59.3343 25.1342L59.3844 25.0912C59.5844 24.9612 59.7844 24.8002 60.0344 24.6232C60.2644 24.4542 60.5243 24.2802 60.7943 24.1632C61.0543 24.0472 61.3544 23.9742 61.6544 24.0442C61.9444 24.1132 62.1944 24.3112 62.3944 24.6382C63.0144 25.2372 63.8143 25.5202 64.6943 25.6342C65.5843 25.7492 66.5244 25.6882 67.4044 25.6242L67.5543 25.6582C67.9043 25.8662 68.1243 26.1292 68.2043 26.4352C68.2943 26.7362 68.2444 27.0432 68.1444 27.3222C68.0444 27.6022 67.8844 27.8762 67.7244 28.1252C67.5844 28.3372 67.4243 28.5642 67.3043 28.7422C67.3243 29.4792 67.6944 30.0412 68.2544 30.5052C68.8244 30.9892 69.5744 31.3472 70.2544 31.6682L70.4343 31.7412C70.8543 31.8932 71.3143 31.9162 71.8343 31.9592C72.3943 32.0062 73.0144 32.0802 73.5344 32.4652L73.5743 32.8392C73.3643 33.0572 73.0743 33.2192 72.8043 33.3552C72.5143 33.5002 72.2544 33.6142 72.0244 33.7522C71.7944 33.8892 71.6544 34.0172 71.5944 34.1512C71.5444 34.2682 71.5343 34.4412 71.6943 34.7282V34.9652C71.5343 35.2832 71.2844 35.4652 70.9944 35.5552C70.7144 35.6402 70.4044 35.6382 70.1144 35.6122C69.8344 35.5872 69.5144 35.5322 69.2444 35.5012C69.0244 35.4752 68.8344 35.4622 68.6544 35.4762C68.6044 35.6322 68.5544 35.7982 68.5044 35.9752C68.4444 36.1962 68.3843 36.4392 68.3043 36.6772C68.1543 37.1452 67.9143 37.6222 67.4443 38.0272C67.1643 38.6502 66.6943 39.0462 66.2043 39.3552C65.9443 39.5132 65.6744 39.6532 65.4144 39.7872C65.1744 39.9162 64.9343 40.0412 64.7043 40.1812C64.2343 40.8432 63.9443 41.6092 63.6843 42.4212C63.4343 43.1822 63.1943 43.9922 62.8343 44.7442C63.4443 45.3442 64.0244 45.9712 64.6144 46.5842C65.2444 47.2432 65.8743 47.8892 66.5543 48.4842L66.6344 48.6822C66.5944 49.9522 66.9544 51.1512 68.0144 51.8332C69.0344 52.4702 69.9044 53.2712 70.7344 54.0872C71.5444 54.8852 72.3144 55.6892 73.1644 56.4032C74.4544 56.2682 75.4343 57.1912 75.5543 58.4502C75.7943 59.8832 76.6044 61.1062 77.7644 61.9852L77.8343 62.0822C78.5643 63.6982 78.9943 65.4062 79.3243 67.1232C79.6543 68.8552 79.8944 70.5622 80.2644 72.2532L80.2143 72.4632C79.4443 73.4282 78.9444 74.5042 79.2544 75.6692L79.2444 75.8242C79.0744 76.2422 79.1244 76.7042 79.1544 77.2402C79.1844 77.7452 79.2144 78.3222 78.9044 78.8332C78.2144 80.1192 77.0144 81.1532 75.4744 81.2602C74.5744 81.4982 73.9444 82.1802 73.2244 82.8962C72.5244 83.5962 71.7343 84.3242 70.5843 84.4112V84.4102C70.2543 84.4552 69.9443 84.3142 69.6843 84.1502C69.4243 83.9812 69.1543 83.7502 68.9443 83.5742C68.8243 83.4832 68.7244 83.4052 68.6344 83.3472C68.5444 83.2872 68.4743 83.2592 68.4343 83.2502L68.4144 83.2472C68.4044 83.2532 68.3643 83.2872 68.3343 83.4052V83.4092C68.1843 83.8632 68.2743 84.3392 68.3343 84.9092C68.3943 85.4402 68.4344 86.0382 68.1044 86.6122C68.0044 87.3552 67.5144 87.7322 67.0144 87.9532C66.7544 88.0642 66.4844 88.1422 66.2644 88.2092C66.0744 88.2652 65.9143 88.3112 65.7943 88.3612C65.4643 89.3192 64.6344 89.6472 63.8844 89.9122C63.0744 90.2002 62.3843 90.4212 62.0443 91.1042L62.0144 91.1402C61.6844 91.6032 61.2544 92.1682 60.7344 92.5652C60.2044 92.9682 59.5543 93.2152 58.8043 92.9902L58.6344 92.7052C58.8044 91.7582 58.7844 90.7692 58.8444 89.7382C58.9044 88.7252 59.0443 87.6962 59.5643 86.7692L59.5843 86.7492C59.7443 86.5212 59.7644 86.3212 59.7244 86.1432C59.6844 85.9542 59.5544 85.7602 59.3544 85.5752C58.9544 85.2042 58.3344 84.9352 57.8744 84.8602L57.8544 84.8552C57.6444 84.8022 57.4744 84.7352 57.3444 84.6452C57.2744 84.5982 57.2143 84.5382 57.1743 84.4662C57.0443 84.4462 56.9343 84.3932 56.8343 84.3312C56.7143 84.2592 56.6044 84.1662 56.5044 84.0762C56.2944 83.8852 56.1144 83.7102 55.9144 83.6032C55.7444 83.5092 55.5844 83.4862 55.3844 83.5862V83.5872C55.1744 83.6952 54.8743 83.7722 54.5843 83.8112C54.2943 83.8512 53.9743 83.8552 53.7043 83.8012C53.4643 83.7512 53.1543 83.6272 53.0743 83.3192C53.0343 83.1672 53.0644 83.0102 53.1244 82.8612C53.1944 82.7142 53.3043 82.5602 53.4543 82.3982L53.4644 82.3942L53.5044 82.3432C53.6044 82.2182 53.6344 82.0722 53.6044 81.9182C53.5844 81.7352 53.4743 81.5452 53.3343 81.3992C53.1843 81.2532 53.0144 81.1702 52.8544 81.1642C52.7144 81.1592 52.5444 81.2182 52.3844 81.4302L52.3544 81.4682C52.0044 81.7672 51.6844 81.9302 51.3744 81.8942C51.0544 81.8562 50.8544 81.6132 50.7344 81.3662C50.6144 81.1162 50.5444 80.8032 50.4944 80.5042C50.4544 80.2142 50.4244 79.9172 50.4044 79.6742C50.2244 79.1382 49.9944 78.6112 49.7544 78.0802C49.5144 77.5432 49.2643 76.9982 49.0443 76.4462L49.0543 76.3382C49.0443 76.3372 49.0444 76.3382 49.0344 76.3382C48.7844 76.3132 48.5044 76.2272 48.2444 76.1132C47.7144 75.8862 47.1543 75.5172 46.8343 75.1702L46.8143 75.1512C46.4143 74.6332 45.8743 74.1442 45.2943 73.8902C44.7243 73.6392 44.1144 73.6172 43.5344 74.0002L43.4044 74.0412C43.0044 74.0492 42.3444 74.0092 41.7844 73.8522C41.5144 73.7752 41.2344 73.6622 41.0244 73.4942C40.8144 73.3242 40.6743 73.0842 40.6943 72.7772C40.6743 72.5092 40.7244 72.2162 40.7844 71.9402C40.8144 71.7972 40.8544 71.6492 40.8944 71.5082C40.9344 71.3652 40.9644 71.2262 40.9944 71.0922C41.0544 70.8182 41.0743 70.5852 41.0543 70.3982C41.0243 70.2412 40.9643 70.1232 40.8343 70.0312C40.4943 70.0082 40.1344 69.9572 39.7844 69.9112C39.4044 69.8612 39.0343 69.8182 38.6743 69.8202C37.9943 69.8242 37.4144 69.9872 36.9844 70.5522C36.9944 70.7352 37.0243 70.9342 37.0543 71.1532C37.0843 71.3982 37.1244 71.6672 37.1344 71.9382C37.1644 72.4822 37.0844 73.0672 36.6244 73.5952C36.3344 74.0742 36.4443 74.6122 36.5443 75.2812C36.6443 75.9102 36.7243 76.6452 36.1843 77.2922C35.4843 78.8222 34.7043 80.2992 34.0643 81.8482C33.4243 83.3882 32.9544 84.9572 32.8844 86.6102C32.9244 86.8772 32.9343 87.1842 32.9543 87.4782C32.9643 87.7912 32.9843 88.0982 33.0443 88.3762C33.0943 88.6552 33.1743 88.8852 33.3043 89.0562C33.4343 89.2152 33.6044 89.3352 33.8644 89.3882C34.0544 89.3962 34.2843 89.3502 34.5443 89.2782C34.8043 89.2092 35.1044 89.1142 35.3744 89.0692C35.6444 89.0252 35.9544 89.0182 36.2144 89.1772C36.4444 89.3222 36.5944 89.5732 36.6544 89.9152L36.6843 90.0672V90.0902C36.6943 90.3272 36.6644 90.6042 36.6444 90.8652C36.6244 91.1352 36.6044 91.3972 36.6144 91.6362C36.6244 91.8762 36.6744 92.0652 36.7544 92.2012C36.8244 92.3202 36.9444 92.4142 37.1444 92.4612C37.2944 92.4472 37.4243 92.4672 37.5543 92.5242C37.6843 92.5892 37.7944 92.6932 37.8744 92.8102C38.0344 93.0352 38.1143 93.3432 38.1743 93.6402C38.2343 93.9372 38.2743 94.2762 38.3143 94.5582C38.3643 94.8552 38.4144 95.0912 38.4844 95.2442L38.5044 95.3622C38.4344 96.8602 38.9044 98.4442 39.9044 99.5612C40.5144 99.7662 41.0743 100 41.6743 100.16C42.2743 100.321 42.8644 100.387 43.4644 100.232L43.6444 100.252C44.2544 100.567 44.5244 101.16 44.7744 101.64C45.0044 102.079 45.2244 102.447 45.6144 102.666L45.7844 102.751L45.8644 102.801C45.9744 102.904 46.1144 103.005 46.2544 103.108C46.3944 103.208 46.5444 103.315 46.6644 103.42L46.7444 103.682C46.5744 104.267 46.1543 104.716 45.8143 105.105C45.4543 105.515 45.1744 105.864 45.1344 106.295L45.0244 106.477C44.6044 106.753 44.2343 106.844 43.9343 106.677C43.7943 106.599 43.6944 106.48 43.6244 106.364C43.5444 106.249 43.4943 106.119 43.4443 106.004C43.3943 105.881 43.3643 105.777 43.3143 105.682C43.2743 105.587 43.2343 105.528 43.1943 105.495C43.1643 105.469 43.1444 105.46 43.1144 105.461C43.0744 105.462 43.0144 105.475 42.9144 105.525C42.6744 106.195 42.1244 106.584 41.6444 106.547C41.5144 106.537 41.3844 106.493 41.2844 106.404C41.1744 106.314 41.1043 106.189 41.0743 106.045C41.0243 105.774 41.1143 105.442 41.3343 105.07C41.4243 104.836 41.4144 104.655 41.3544 104.507C41.2944 104.35 41.1744 104.204 41.0044 104.064C40.8344 103.925 40.6244 103.803 40.4144 103.69C40.2144 103.584 39.9843 103.473 39.8143 103.377L39.6943 103.131C39.7343 102.784 39.6443 102.691 39.5843 102.655C39.4843 102.597 39.3044 102.582 39.0244 102.623C38.7644 102.663 38.4944 102.74 38.2344 102.799C38.1044 102.827 37.9844 102.851 37.8644 102.857C37.7744 102.863 37.6144 102.861 37.4944 102.757L37.4343 102.461C37.5243 102.255 37.5844 102.111 37.6044 102.016V101.977C37.5644 101.979 37.5043 101.986 37.4343 102C37.2443 102.035 36.9443 102.116 36.6843 102.137C36.4143 102.157 36.0944 102.127 35.8544 101.902C35.2144 101.54 35.0344 100.984 34.9644 100.438C34.9344 100.171 34.9244 99.8862 34.9044 99.6372C34.8944 99.3782 34.8743 99.1442 34.8143 98.9352C34.7443 98.7052 34.6244 98.5942 34.4844 98.5202C34.3244 98.4362 34.1344 98.4032 33.8844 98.3462C33.6544 98.2932 33.3844 98.2202 33.1644 98.0282C32.9344 97.8332 32.8044 97.5452 32.7644 97.1342C32.3444 96.0902 31.8844 95.1402 30.8744 94.7692L30.7344 94.6382C30.5944 94.3202 30.4343 94.2342 30.2943 94.2092C30.1243 94.1782 29.9343 94.2242 29.6743 94.2932C29.5643 94.3252 29.4343 94.3612 29.3043 94.3822C29.1743 94.4032 29.0344 94.4122 28.8944 94.3772C28.7444 94.3392 28.6044 94.2552 28.5044 94.1152C28.4044 93.9812 28.3343 93.8052 28.2943 93.5932L28.2844 93.5672C28.1444 92.1782 28.4544 90.8522 28.8644 89.5712C29.0644 88.9322 29.3044 88.2952 29.5244 87.6702C29.7544 87.0482 29.9644 86.4322 30.1244 85.8162C30.1344 85.6722 30.1543 85.5252 30.1743 85.3772L30.1344 85.3892C29.4944 85.1662 29.2343 84.5182 29.2143 83.9142C29.1943 83.3122 29.4043 82.6442 29.8143 82.2462L29.9044 82.1442C30.3444 81.6262 30.4744 80.9782 30.6044 80.2552C30.7044 79.6782 30.8144 79.0472 31.1244 78.4832C30.9744 78.4772 30.8343 78.4512 30.7143 78.3982C30.4343 78.2802 30.2643 78.0562 30.1843 77.7952C30.0343 77.3202 30.1944 76.7162 30.5044 76.2262C30.3244 73.8562 29.9644 71.5062 28.6244 69.5602L28.5944 69.5182C27.8044 67.7042 27.0643 65.8232 26.4543 63.9352V63.9082C26.1843 62.5882 26.0344 61.2502 25.8944 59.9232C25.7544 58.6572 25.6343 57.4022 25.4343 56.1622C25.0543 56.1142 24.7743 55.9602 24.5643 55.7272C24.3243 55.4632 24.1843 55.1172 24.0843 54.7872C23.9643 54.4382 23.8944 54.1192 23.7644 53.8092C23.6444 53.5092 23.5044 53.2672 23.2744 53.1012L23.1943 52.9982C23.0743 52.7122 22.9144 52.4912 22.7344 52.3452C22.5644 52.1962 22.4043 52.1382 22.2943 52.1382C22.2043 52.1382 22.1343 52.1732 22.0843 52.2842C22.0343 52.3822 22.0044 52.5442 22.0244 52.7882L22.0743 53.0892C22.1643 54.1882 21.6443 54.9762 20.9343 55.5582C20.2343 56.1302 19.3243 56.5192 18.5543 56.8332L18.5244 56.8452C17.4744 57.0992 16.8944 57.8472 16.3744 58.8192L16.3644 58.8342C16.2244 59.0552 16.0943 59.2262 15.9643 59.3502C15.8343 59.4722 15.6943 59.5612 15.5443 59.5922C15.2143 59.6592 14.9744 59.4342 14.8444 59.2442C14.6944 59.0482 14.5744 58.7852 14.4744 58.5892C14.4444 58.5372 14.4244 58.4892 14.3944 58.4462C14.0644 58.8502 13.5244 59.0062 13.0944 58.9342C12.8244 58.8872 12.5443 58.7392 12.4243 58.4512C12.3043 58.1722 12.3643 57.8362 12.5643 57.4792C12.5743 57.4302 12.5844 57.3942 12.5944 57.3682V57.3482C12.5644 57.3402 12.5044 57.3352 12.4144 57.3482C12.3144 57.3612 12.2043 57.3902 12.0743 57.4342C11.8243 57.5202 11.5443 57.6572 11.3143 57.8052C11.0643 57.9592 10.9144 58.1012 10.8644 58.1852L10.7544 58.2882C10.3944 58.4452 10.0643 58.4602 9.81433 58.2572C9.59433 58.0722 9.51438 57.7652 9.49438 57.4902C9.48438 57.2022 9.52436 56.8812 9.60436 56.5892C9.67436 56.3112 9.78441 56.0422 9.90441 55.8412C10.9344 53.5922 11.2544 51.1112 10.8444 48.6752C10.4844 47.0242 9.7444 45.4152 9.0144 43.8422C8.9744 43.8692 8.92438 43.8992 8.87438 43.9352C8.71438 44.0442 8.5044 44.1842 8.2644 44.2702C8.0244 44.3592 7.73431 44.3962 7.42431 44.2892C7.12431 44.1832 6.83433 43.9492 6.56433 43.5592L6.5144 43.3792C6.5344 43.2192 6.63437 43.1062 6.73437 43.0322C6.83437 42.9612 6.94432 42.9122 7.05432 42.8742C7.16432 42.8362 7.2844 42.8012 7.3944 42.7692C7.5044 42.7362 7.61434 42.7042 7.70434 42.6682C7.90434 42.5882 7.96436 42.5182 7.97436 42.4662C7.98436 42.4052 7.97433 42.2352 7.69433 41.8752L7.65441 41.8072C7.34441 40.9702 6.52441 40.1622 5.77441 39.5962C5.28441 39.7432 4.70441 39.7072 4.27441 39.4722C4.04441 39.3392 3.8444 39.1332 3.7644 38.8482C3.6944 38.6032 3.73436 38.3312 3.85436 38.0452C3.78436 37.9592 3.68432 37.8962 3.55432 37.8452C3.37432 37.7712 3.16442 37.7322 2.91442 37.6752C2.42442 37.5672 1.83437 37.4072 1.48437 36.7612C1.34437 36.5812 1.16435 36.3912 0.96435 36.1662C0.77435 35.9462 0.574321 35.7002 0.434321 35.4452C0.294321 35.1912 0.204409 34.8962 0.274409 34.5912C0.354409 34.2812 0.58434 34.0232 0.95434 33.8132L0.984369 33.8012C1.57437 33.5542 1.97431 33.2502 2.17431 32.8882C2.36431 32.5352 2.39442 32.0802 2.16442 31.4682L2.1444 31.4092C2.0744 30.8392 2.01433 30.2692 1.94433 29.6992L2.22436 29.4222C2.50436 29.4662 2.78431 29.5652 3.04431 29.6562C3.31431 29.7512 3.55441 29.8362 3.77441 29.8772C3.99441 29.9172 4.16431 29.9062 4.29431 29.8392C4.42431 29.7732 4.56433 29.6322 4.69433 29.3222C4.86433 28.8272 4.87432 28.2812 4.80432 27.6982C4.76432 27.4062 4.71442 27.1112 4.66442 26.8122C4.60442 26.5162 4.5544 26.2142 4.5144 25.9202L4.63439 25.6762C4.74439 25.6052 4.86437 25.5352 4.98437 25.4682C5.10437 25.4002 5.22434 25.3322 5.33434 25.2642C5.56434 25.1252 5.76431 24.9862 5.92431 24.8312C6.07431 24.6782 6.18436 24.5162 6.22436 24.3342C6.27436 24.1532 6.26441 23.9252 6.15441 23.6292L6.1444 23.5172C6.1644 23.3272 6.13435 23.0852 6.09435 22.8002C6.05435 22.5272 5.98434 22.2092 5.95434 21.9182C5.92434 21.6262 5.91436 21.3192 5.97436 21.0512C6.04436 20.7702 6.21441 20.5232 6.52441 20.3892L6.68432 20.3762C6.96432 20.4502 7.25431 20.5742 7.54431 20.6982C7.82431 20.8252 8.10439 20.9522 8.38439 21.0492C8.91439 21.2362 9.3644 21.2822 9.7644 21.0312C10.1444 20.2322 10.5744 19.4422 10.9844 18.6642C11.3944 17.8842 11.7843 17.1082 12.0843 16.3162C11.9343 15.8312 11.7943 15.3102 11.8243 14.8152C11.8543 14.2722 12.1043 13.7742 12.7043 13.3582C13.6143 12.4422 14.3143 11.3872 13.9443 10.1642L13.9343 10.0722C14.0043 9.1852 14.6144 8.67522 15.2644 8.29522C15.5844 8.10622 15.9444 7.93422 16.2544 7.76822C16.5744 7.59622 16.8644 7.42621 17.0944 7.22821L17.1344 7.20321C17.4044 7.04321 17.6743 6.84322 17.9543 6.63522C18.2343 6.42922 18.5343 6.21522 18.8343 6.04022C19.4543 5.69022 20.1544 5.48522 20.9744 5.81222C21.1744 5.86522 21.4844 5.9652 21.7644 6.0422C22.0744 6.1262 22.3744 6.19522 22.6144 6.21222C22.7444 6.22022 22.8344 6.2142 22.9044 6.1972C22.9644 6.1812 22.9844 6.1612 22.9844 6.1542C22.9944 6.1492 23.0144 6.11823 22.9944 6.02823C22.9844 5.93523 22.9444 5.79922 22.8444 5.60922V5.60321C22.6144 5.13521 22.6443 4.72722 22.8143 4.36822C22.9743 4.03122 23.2544 3.74723 23.5144 3.49823C23.7844 3.23623 24.0343 3.00521 24.1943 2.74621C24.3443 2.50121 24.4143 2.24222 24.3243 1.91522L24.3143 1.8912Z" fill="#FD9C9C" stroke="white" stroke-width="0.5" stroke-linejoin="round"/>
</svg>
