<svg width="106" height="62" viewBox="0 0 106 62" fill="none" xmlns="http://www.w3.org/2000/svg">
<path d="M42.094 0.350998C42.247 0.718998 42.494 1.156 42.826 1.5C43.158 1.843 43.559 2.079 44.028 2.091L44.108 2.10699C44.3 2.17799 44.529 2.174 44.798 2.127C44.931 2.103 45.067 2.071 45.208 2.037C45.346 2.003 45.492 1.967 45.632 1.94C45.906 1.887 46.219 1.854 46.496 1.974C46.788 2.101 46.98 2.367 47.085 2.769C47.454 3.722 48.537 4.10401 49.404 3.56801L49.539 3.53101C50.39 3.54701 51.084 4.036 51.695 4.408C52.33 4.794 52.901 5.076 53.608 4.909L53.66 4.90201C54.793 4.88201 55.95 5.13699 57.025 5.27299C58.119 5.41199 59.167 5.437 60.192 5.011L60.201 5.007H60.202C61.316 4.603 62.421 4.746 63.475 4.927C64.544 5.112 65.551 5.331 66.568 5.166C68.173 4.828 69.789 4.234 71.237 3.478C71.736 2.963 72.377 2.92901 72.969 2.98801C73.267 3.01801 73.587 3.076 73.867 3.116C74.158 3.157 74.425 3.18301 74.668 3.16301L74.786 3.181C75.087 3.307 75.389 3.29101 75.712 3.19501C76.046 3.09601 76.3721 2.92301 76.7351 2.75101C77.0821 2.58601 77.465 2.421 77.858 2.396C78.264 2.371 78.663 2.496 79.042 2.858L79.565 3.27C79.742 3.407 79.923 3.54301 80.106 3.68001C80.47 3.95401 80.841 4.231 81.201 4.517C81.923 5.089 82.613 5.70701 83.153 6.43401L83.203 6.589C83.193 6.89 83.073 7.187 82.943 7.453C82.873 7.588 82.803 7.724 82.733 7.853C82.663 7.984 82.593 8.11001 82.533 8.23401C82.413 8.48601 82.343 8.699 82.343 8.884C82.353 9.048 82.4131 9.21399 82.6231 9.38499C82.8831 9.53499 83.183 9.607 83.523 9.644C83.883 9.683 84.243 9.68 84.633 9.701C85.343 9.738 86.113 9.84901 86.643 10.529L86.743 10.673V10.676C86.843 10.827 86.913 10.988 86.893 11.152C86.873 11.335 86.763 11.453 86.643 11.524C86.533 11.591 86.403 11.63 86.283 11.659C86.173 11.687 86.023 11.713 85.913 11.738C85.793 11.764 85.683 11.792 85.593 11.829C85.503 11.865 85.443 11.905 85.403 11.944C85.363 11.994 85.293 12.118 85.463 12.484L85.263 12.837C84.653 12.913 84.373 13.192 84.283 13.503C84.183 13.838 84.283 14.298 84.613 14.771L84.653 14.994C84.553 15.302 84.543 15.847 84.663 16.281C84.723 16.497 84.803 16.654 84.903 16.741C84.973 16.814 85.063 16.843 85.193 16.805L85.383 16.825C85.743 17.017 85.953 17.273 85.963 17.597C85.983 17.889 85.8331 18.168 85.6831 18.399C85.6031 18.52 85.513 18.641 85.423 18.757C85.333 18.876 85.253 18.989 85.173 19.102C85.063 19.257 84.9831 19.396 84.9331 19.521C85.4331 19.754 85.693 19.998 85.853 20.355C85.933 20.54 85.973 20.745 86.023 20.961C86.073 21.178 86.113 21.418 86.193 21.708C86.333 21.997 86.603 22.06 86.953 22.183C87.113 22.238 87.323 22.318 87.463 22.494C87.613 22.688 87.633 22.937 87.563 23.23L87.543 23.238C88.503 24.814 89.3231 26.722 90.1831 28.375C90.4831 28.663 90.933 28.814 91.473 28.905C91.753 28.95 92.033 28.979 92.323 29.006C92.603 29.033 92.883 29.057 93.133 29.095C93.363 29.083 93.5431 29.091 93.6831 29.132C93.7531 29.154 93.833 29.192 93.893 29.261C93.963 29.337 93.993 29.428 93.993 29.518C93.993 29.6 93.963 29.673 93.943 29.729C93.913 29.787 93.873 29.843 93.843 29.895C93.763 29.998 93.673 30.111 93.583 30.219C93.383 30.45 93.203 30.673 93.113 30.881C93.073 30.98 93.063 31.058 93.083 31.121C93.083 31.164 93.103 31.214 93.153 31.27L93.213 31.329L93.223 31.337C93.543 31.639 93.733 31.937 93.803 32.24C93.873 32.55 93.813 32.833 93.673 33.084C93.533 33.328 93.323 33.545 93.093 33.742C92.863 33.939 92.603 34.13 92.353 34.311L92.343 34.317C91.693 34.746 91.3631 35.415 91.1831 36.199C91.0031 36.962 90.963 37.773 90.863 38.551C91.233 39.033 91.713 39.449 92.213 39.889C92.723 40.342 93.253 40.822 93.593 41.404L93.6231 41.585C93.5431 41.938 93.513 42.224 93.523 42.446C93.533 42.668 93.593 42.805 93.663 42.887C93.723 42.964 93.833 43.023 94.013 43.04C94.213 43.057 94.473 43.026 94.813 42.929L94.943 42.927C95.713 43.124 96.3531 43.632 96.9331 44.109C97.4631 44.538 97.953 44.946 98.513 45.186L98.763 45.279L98.843 45.325C99.103 45.544 99.413 45.756 99.733 45.99C100.063 46.22 100.393 46.468 100.683 46.747C100.963 47.025 101.223 47.345 101.363 47.722C101.513 48.105 101.543 48.533 101.423 49.014L101.413 49.038C101.073 49.952 100.843 50.898 100.933 51.834C101.473 51.747 101.983 51.82 102.363 52.09C102.823 52.418 103.033 52.987 102.923 53.717L102.913 53.763C102.823 53.99 102.853 54.163 102.923 54.313C103.003 54.474 103.153 54.628 103.363 54.787C103.573 54.945 103.813 55.089 104.073 55.245C104.313 55.395 104.573 55.558 104.773 55.743L104.843 55.864C104.883 56.009 104.863 56.157 104.783 56.287C104.713 56.408 104.593 56.483 104.483 56.531C104.263 56.624 103.973 56.654 103.683 56.663C103.393 56.672 103.083 56.66 102.803 56.652C102.553 56.644 102.353 56.641 102.213 56.652C101.613 57.046 100.893 57.057 100.233 57.05C99.533 57.044 98.903 57.022 98.353 57.257C98.053 57.573 97.833 58.003 97.573 58.486C97.323 58.96 97.033 59.476 96.613 59.874C96.273 60.434 95.843 60.846 95.323 61.074C94.803 61.304 94.213 61.337 93.563 61.185C91.293 61.065 88.9031 61.128 86.6231 60.889L86.553 60.869C84.963 60.169 83.443 59.404 81.809 58.924L81.659 58.803C81.364 58.255 81.291 57.651 81.303 57.071C81.314 56.511 81.405 55.941 81.464 55.459C81.444 55.33 81.4081 55.257 81.3731 55.213C81.3381 55.17 81.289 55.139 81.217 55.12C81.051 55.075 80.817 55.102 80.504 55.149C80.219 55.192 79.868 55.253 79.559 55.211C79.398 55.19 79.236 55.14 79.09 55.039C78.944 54.937 78.829 54.791 78.75 54.603L78.676 54.447C78.286 53.686 77.6101 53.237 76.8081 52.87C76.3781 52.673 75.927 52.505 75.466 52.323C75.018 52.145 74.565 51.954 74.152 51.713C72.695 51.103 71.252 50.453 69.814 49.809C68.374 49.165 66.938 48.527 65.486 47.938C64.305 47.598 63.1371 47.161 62.0321 46.613C61.4771 47.367 60.67 47.774 59.822 48.045C59.366 48.192 58.89 48.302 58.427 48.405C57.961 48.509 57.511 48.605 57.09 48.725L57.0841 48.726C55.3991 49.169 53.736 49.439 52.147 50.018C53.381 51.432 54.629 52.851 55.768 54.36L55.74 54.692C55.127 55.275 54.493 55.95 53.791 56.485C53.081 57.026 52.275 57.446 51.287 57.524L51.264 57.525C50.697 57.517 50.3031 57.743 49.9461 58.081C49.7631 58.253 49.593 58.453 49.413 58.668C49.236 58.878 49.0481 59.105 48.8421 59.314L48.805 59.345C48.597 59.486 48.396 59.664 48.18 59.856C47.969 60.043 47.744 60.245 47.505 60.409C47.265 60.573 46.996 60.71 46.694 60.76C46.397 60.809 46.084 60.771 45.751 60.622C44.573 60.456 43.399 60.275 42.232 60.122L42.014 59.869C42.02 59.612 41.992 59.391 41.957 59.18C41.945 59.106 41.93 59.029 41.916 58.951C41.886 58.992 41.857 59.034 41.824 59.074L41.406 59.031C40.031 56.321 38.884 53.512 37.74 50.714L37.812 50.428C39.745 48.818 40.459 46.268 40.957 43.794L41.184 43.593C41.259 43.588 41.3321 43.542 41.4201 43.379C41.4631 43.3 41.5031 43.206 41.5451 43.1C41.5851 42.999 41.629 42.881 41.677 42.774C41.701 42.719 41.73 42.66 41.764 42.6C41.728 42.54 41.7061 42.468 41.7091 42.384C41.7151 42.249 41.785 42.123 41.864 42.016C41.938 41.918 42.04 41.812 42.169 41.693C42.295 41.151 42.6331 40.667 42.8861 40.247C43.1661 39.781 43.3621 39.369 43.3031 38.904L43.544 38.622C43.669 38.618 43.751 38.592 43.807 38.56C43.862 38.528 43.906 38.482 43.944 38.417C44.027 38.272 44.065 38.061 44.104 37.78C44.139 37.52 44.175 37.201 44.281 36.924C44.385 36.651 44.567 36.401 44.889 36.258C44.991 36.144 45.122 36.066 45.231 36.01C45.297 35.977 45.367 35.945 45.427 35.918C45.489 35.889 45.543 35.862 45.59 35.836C45.689 35.779 45.715 35.743 45.721 35.727C45.723 35.723 45.742 35.672 45.658 35.526L45.713 35.452C45.539 35.293 45.418 35.083 45.339 34.862C45.136 34.291 45.178 33.549 45.408 33.032L45.4411 32.979C45.6101 32.763 45.615 32.601 45.57 32.459C45.515 32.288 45.379 32.117 45.202 31.916C45.044 31.735 44.832 31.511 44.728 31.28C44.672 31.155 44.638 31.01 44.663 30.853C44.686 30.713 44.755 30.586 44.857 30.47C44.914 30.338 44.97 30.169 45.042 29.965C45.116 29.757 45.206 29.523 45.325 29.317C45.402 29.185 45.498 29.056 45.616 28.949C45.285 28.72 45.0131 28.39 44.8731 27.943L44.863 27.892C44.83 27.548 44.982 27.286 45.189 27.087C45.386 26.898 45.652 26.748 45.889 26.616C46.139 26.476 46.3621 26.353 46.5321 26.21C46.6831 26.083 46.764 25.96 46.788 25.825C46.677 25.495 46.553 25.352 46.451 25.291C46.352 25.231 46.226 25.221 46.039 25.275C45.848 25.33 45.637 25.44 45.395 25.57C45.2 25.674 44.983 25.789 44.766 25.876C44.709 26.015 44.611 26.146 44.501 26.257C44.347 26.413 44.143 26.556 43.914 26.658C43.462 26.858 42.867 26.909 42.356 26.509C41.783 26.16 41.128 25.841 40.495 25.743C39.871 25.646 39.282 25.764 38.793 26.278L38.71 26.336C38.235 26.539 37.89 26.851 37.586 27.198C37.433 27.373 37.294 27.553 37.151 27.734C37.009 27.913 36.864 28.093 36.706 28.254L36.361 28.267C36.079 28.015 35.709 28.067 35.164 28.277C35.034 28.327 34.902 28.384 34.764 28.441C34.627 28.498 34.486 28.555 34.344 28.607C34.069 28.707 33.773 28.789 33.478 28.79L33.479 28.792C31.476 28.926 29.394 28.377 28.001 26.799C26.55 25.66 24.609 25.157 22.747 24.996L22.7171 24.991C22.3951 24.922 22.164 24.949 21.995 25.019C21.828 25.089 21.697 25.213 21.594 25.389C21.379 25.755 21.304 26.304 21.286 26.871C21.301 27.321 21.216 27.662 20.971 27.862C20.73 28.058 20.413 28.05 20.158 28.018C20.024 28.001 19.882 27.974 19.749 27.949C19.613 27.923 19.482 27.899 19.356 27.884C19.097 27.854 18.8961 27.869 18.7431 27.954L18.705 27.97C18.027 28.209 17.18 28.357 16.427 28.219C15.659 28.079 14.978 27.636 14.716 26.708L14.715 26.704C14.596 26.256 14.477 26.025 14.372 25.908C14.284 25.81 14.201 25.785 14.085 25.788C14.019 25.789 13.943 25.8 13.85 25.819C13.768 25.835 13.645 25.863 13.54 25.882C13.311 25.925 13.037 25.956 12.729 25.89L12.608 25.827C11.832 25.088 10.723 25.118 10.018 25.928L9.86903 26.01C9.65003 26.046 9.46101 26.052 9.31001 26.01C9.14101 25.964 9.01205 25.855 8.96205 25.688C8.92005 25.547 8.946 25.401 8.977 25.289C9.009 25.171 9.06004 25.047 9.10804 24.937C9.15804 24.821 9.20302 24.719 9.23902 24.623C9.27002 24.537 9.28302 24.479 9.28602 24.441C9.26002 24.436 9.21203 24.433 9.13203 24.44L9.04603 24.433C8.86103 24.385 8.62804 24.378 8.35304 24.393C8.21704 24.401 8.07602 24.413 7.93202 24.425C7.78902 24.438 7.64101 24.45 7.49501 24.459C7.20901 24.475 6.90804 24.475 6.64204 24.408C6.36804 24.339 6.114 24.194 5.951 23.918L6.07502 23.558C6.26002 23.486 6.44003 23.372 6.58003 23.24C6.72403 23.105 6.80402 22.972 6.82502 22.87C6.84302 22.789 6.82803 22.719 6.73603 22.645C6.62403 22.555 6.39503 22.459 5.96803 22.416L5.95002 22.414C5.76902 22.382 5.61205 22.322 5.48805 22.226C5.36005 22.128 5.27804 22.003 5.23304 21.866C5.14704 21.609 5.18706 21.31 5.23506 21.056C5.28706 20.776 5.35205 20.537 5.37605 20.297C5.39405 20.12 5.38301 19.987 5.34401 19.886C5.08601 19.847 4.85103 19.751 4.63703 19.64C4.39503 19.515 4.13904 19.347 3.93104 19.227C3.48504 18.97 3.12802 18.844 2.70802 19.057L2.581 19.084C2.378 19.072 2.20303 19.008 2.06703 18.892C1.93103 18.778 1.84902 18.628 1.80702 18.472C1.72402 18.169 1.78203 17.819 1.90803 17.541C2.03103 17.27 2.25604 16.989 2.57704 16.925C2.90904 16.86 3.20702 17.047 3.44502 17.399C3.94902 17.57 4.22005 17.424 4.29505 17.308C4.33405 17.249 4.34902 17.165 4.30702 17.056C4.26402 16.946 4.15704 16.805 3.94404 16.664C3.71504 16.584 3.54101 16.506 3.42701 16.421C3.36801 16.377 3.30005 16.314 3.26405 16.225C3.22105 16.12 3.23401 16.013 3.28401 15.925C3.32701 15.851 3.39105 15.8 3.44105 15.767C3.49405 15.732 3.55405 15.703 3.61305 15.677C3.72905 15.627 3.87205 15.581 4.00605 15.537C4.14605 15.491 4.28105 15.447 4.40205 15.399C4.52505 15.35 4.61202 15.304 4.66102 15.264C4.66602 15.261 4.66803 15.256 4.67103 15.253C4.66003 15.238 4.639 15.215 4.602 15.183C4.287 15.136 4.05404 15.056 3.90504 14.905C3.73204 14.728 3.72406 14.511 3.72206 14.366C3.72006 14.204 3.72601 14.093 3.68501 13.967C3.65101 13.865 3.57702 13.739 3.39302 13.595C3.33602 13.593 3.28303 13.59 3.23603 13.581C3.17203 13.568 3.07301 13.54 3.00001 13.458C2.90601 13.35 2.91303 13.22 2.94703 13.133C2.97503 13.06 3.02501 13.001 3.06501 12.961C3.14701 12.875 3.26703 12.785 3.38703 12.701C3.51003 12.615 3.65301 12.522 3.78401 12.434C3.91901 12.344 4.04501 12.257 4.14601 12.178C4.15701 12.169 4.16701 12.159 4.17701 12.151C4.15601 12.15 4.13406 12.148 4.11006 12.147C3.54406 12.175 2.97702 12.325 2.36702 12.461C1.76802 12.596 1.133 12.716 0.490001 12.645L0.312023 12.255C0.411023 12.111 0.467034 11.931 0.499034 11.716C0.532034 11.498 0.53805 11.271 0.55305 11.023C0.57905 10.597 0.627055 10.062 1.04505 9.743C1.04205 9.741 1.03801 9.74101 1.03401 9.74001C0.966008 9.71001 0.91603 9.66101 0.88203 9.60901C0.82203 9.51601 0.808027 9.402 0.804027 9.311C0.795027 9.119 0.827044 8.833 0.884044 8.453L1.05403 8.25301C1.24803 8.18901 1.49104 8.08 1.72004 7.951C1.95204 7.82 2.15003 7.679 2.26503 7.558C2.29303 7.529 2.31205 7.50501 2.32405 7.48601C2.30605 7.47901 2.28206 7.469 2.24806 7.461C2.15006 7.437 2.00403 7.42001 1.79603 7.41901C1.41703 7.47301 1.09402 7.457 0.838024 7.364C0.569024 7.266 0.373027 7.082 0.291027 6.83C0.212027 6.586 0.253001 6.316 0.365001 6.062C0.473001 5.819 0.654007 5.573 0.896007 5.339C1.12501 4.794 1.59305 4.361 1.99305 3.993C2.20805 3.795 2.406 3.615 2.568 3.433C2.673 3.314 2.75501 3.2 2.81501 3.09C2.60701 2.958 2.422 2.841 2.279 2.733C2.106 2.603 1.92703 2.442 1.87703 2.228C1.82003 1.981 1.95103 1.77299 2.11903 1.60699C2.28803 1.44099 2.54902 1.25901 2.89802 1.04601C3.95902 0.100005 5.34105 0.145995 6.54805 0.453995L9.11402 0.466995L9.25801 0.516006C9.50801 0.701006 9.65004 0.949008 9.74604 1.19301C9.83704 1.42201 9.90504 1.70001 9.97004 1.90201C10.041 2.12301 10.119 2.302 10.239 2.439C10.326 2.536 10.443 2.62301 10.616 2.68001L10.811 2.72701L10.905 2.765C11.42 3.106 12.033 3.25201 12.697 3.40601C13.343 3.55601 14.043 3.714 14.634 4.108L14.672 4.205C14.992 3.992 15.4141 3.915 15.8551 4.134C17.2771 4.326 18.781 4.50601 20.064 4.19701L20.203 4.20399C21.684 4.70999 23.3201 5.125 24.6831 4.522C24.8601 4.059 25.197 3.75 25.598 3.513C26.016 3.267 26.535 3.07801 27.038 2.87401C30.212 1.16501 33.902 -0.0619997 37.59 0.694C39.089 0.939 40.538 1.148 41.711 0.25L42.094 0.350998Z" fill="#FD9C9C" stroke="white" stroke-width="0.5" stroke-linejoin="round"/>
</svg>
