<svg width="100" height="69" viewBox="0 0 100 69" fill="none" xmlns="http://www.w3.org/2000/svg">
<path d="M30.2799 54.592C30.8599 54.549 31.52 54.712 31.88 55.123L31.9199 55.183C32.1599 55.683 32.59 55.92 33.1 55.973C33.62 56.027 34.1999 55.885 34.6599 55.634L34.9199 55.644C35.1299 55.783 35.29 55.931 35.38 56.095C35.48 56.27 35.4899 56.449 35.4299 56.615C35.3799 56.769 35.2799 56.898 35.1799 57.001C35.0799 57.106 34.96 57.201 34.85 57.285C34.74 57.372 34.6399 57.443 34.5699 57.512C34.5299 57.545 34.5 57.573 34.48 57.596C34.51 57.618 34.5599 57.648 34.6499 57.682L34.7799 57.73L34.83 57.75C35.32 58.03 35.8299 58.486 36.0399 58.995C36.1499 59.257 36.1799 59.551 36.0499 59.835C35.9399 60.109 35.7 60.335 35.34 60.514C34.55 61.106 34.36 61.973 34.22 62.967C34.08 63.934 33.9999 65.052 33.3199 65.901L33.2 65.985C32.72 66.121 32.3699 66.411 32.0699 66.785C31.9099 66.973 31.77 67.178 31.62 67.394C31.47 67.607 31.3199 67.833 31.1599 68.047L30.98 68.146C30.75 68.163 30.5499 68.153 30.3899 68.107C30.2299 68.059 30.09 67.969 30.01 67.822C29.93 67.681 29.9199 67.527 29.9399 67.392C29.9599 67.257 29.9999 67.116 30.0599 66.982C30.1099 66.847 30.18 66.705 30.24 66.568C30.31 66.428 30.3699 66.293 30.4299 66.16C30.5499 65.893 30.6 65.687 30.59 65.541C30.54 65.393 30.49 65.309 30.45 65.264C30.41 65.224 30.3999 65.224 30.3899 65.224C30.3799 65.224 30.3499 65.228 30.2899 65.269C30.2299 65.31 30.16 65.377 30.08 65.468C29.76 65.844 29.44 66.485 29.25 66.848L29.24 66.871C29.01 67.222 28.7199 67.425 28.3999 67.386C28.0899 67.35 27.87 67.106 27.76 66.854C27.54 66.37 27.5899 65.596 28.2699 65.22C28.3199 65.078 28.31 64.919 28.26 64.727C28.19 64.499 28.0699 64.266 27.9399 64.008C27.8099 63.768 27.6799 63.492 27.6399 63.228C27.6299 63.089 27.6299 62.942 27.6899 62.798C27.7499 62.66 27.85 62.542 27.98 62.444L28.6399 61.917C28.8599 61.737 29.07 61.556 29.24 61.363C29.4 61.17 29.5099 60.976 29.5599 60.777C29.6099 60.582 29.6 60.364 29.48 60.107C29.27 59.682 28.9199 59.126 28.5599 58.861C28.3799 58.728 28.2499 58.705 28.1699 58.73C28.0799 58.756 27.9299 58.863 27.7899 59.223L27.7799 59.231C27.6099 59.623 27.3999 59.897 27.1499 60.036C26.8899 60.185 26.61 60.152 26.38 60.025C26.16 59.904 25.9699 59.697 25.8099 59.471C25.6799 59.272 25.56 59.043 25.46 58.814C24.86 58.561 24.4599 58.039 24.4199 57.531C24.3999 57.252 24.49 56.974 24.73 56.778C24.93 56.611 25.2099 56.525 25.5599 56.519L25.71 56.522L25.74 56.526C26.33 56.636 26.9899 56.666 27.5499 56.519C28.0999 56.374 28.54 56.064 28.75 55.49L28.76 55.46C29.05 54.896 29.6799 54.636 30.2799 54.592ZM45.0299 52.48C45.3599 52.334 45.7399 52.282 46.1599 52.39L46.34 52.447L46.4199 52.493C46.5699 52.623 46.76 52.706 47 52.768C47.24 52.832 47.48 52.865 47.75 52.919C48.26 53.021 48.85 53.192 49.1 53.855L49.11 54.005C48.81 55.184 47.91 55.909 47.13 56.667C46.92 57.056 46.7099 57.313 46.4399 57.415C46.1499 57.526 45.8799 57.424 45.6599 57.3C45.5499 57.238 45.44 57.162 45.34 57.087C45.23 57.011 45.1299 56.935 45.0199 56.864C44.8099 56.721 44.59 56.612 44.37 56.577C43.19 56.384 42.0399 57.177 41.7999 58.361C41.7199 58.873 41.53 59.289 41.24 59.629C40.95 59.97 40.57 60.224 40.12 60.425L39.9199 60.427C39.0799 60.069 38.77 59.331 38.51 58.666C38.25 57.976 38.04 57.371 37.48 57L37.4099 56.933C37.3199 56.802 37.2699 56.654 37.2899 56.497C37.3099 56.343 37.4 56.224 37.49 56.135C37.66 55.968 37.94 55.837 38.2 55.723C38.47 55.6 38.73 55.485 38.95 55.345C39.17 55.204 39.3 55.065 39.34 54.921V54.906C39.49 54.476 39.6799 54.183 39.9299 54.02C40.1799 53.85 40.46 53.853 40.7 53.898C40.82 53.92 40.9499 53.955 41.0699 53.99C41.1899 54.026 41.2999 54.061 41.4299 54.092C41.6699 54.154 41.9099 54.191 42.1599 54.157L42.21 54.156C42.56 54.185 42.8599 54.08 43.1499 53.896C43.4499 53.707 43.7299 53.448 44.0299 53.176C44.3299 52.914 44.6499 52.641 45.0299 52.48ZM78.1 19.166C78.54 18.724 79.2 18.75 79.71 18.956C80.2 19.153 80.6699 19.561 80.7899 20.063L80.8099 20.165L80.8199 20.173L80.83 20.391C80.84 20.611 80.8299 20.84 80.8199 21.065C80.7999 21.372 80.7699 21.666 80.7699 21.957C80.7599 22.47 80.8199 22.883 81.0399 23.172L81.1499 23.289L81.1599 23.296V23.297C81.9499 24.119 82.4699 25.215 82.9199 26.259L83.35 27.275L83.36 27.344C83.56 29.074 82.4199 30.423 81.3199 31.452C81.1999 31.666 81.1199 31.889 81.0699 32.12C81.0099 32.342 80.9599 32.616 80.8899 32.837C80.8099 33.075 80.6799 33.309 80.4399 33.485C80.2099 33.654 79.9 33.748 79.48 33.776C78.83 33.942 78.4399 34.422 78.2699 35.023C78.0999 35.637 78.1699 36.36 78.4199 36.936L78.4399 36.989C78.5699 37.629 78.6999 38.375 78.6399 39.074C78.5699 39.775 78.3 40.446 77.61 40.916C77.14 41.398 76.7999 42.094 76.6699 42.814C76.5499 43.522 76.6499 44.226 77.0199 44.771C77.2099 44.87 77.37 44.964 77.49 45.058C77.62 45.159 77.7299 45.277 77.7699 45.418C77.8299 45.577 77.79 45.725 77.71 45.843C77.64 45.951 77.5399 46.035 77.4399 46.103C77.2399 46.236 76.96 46.367 76.71 46.489C76.47 46.613 76.25 46.737 76.1 46.875C75.99 47.069 75.91 47.297 75.84 47.55C75.77 47.803 75.7 48.098 75.61 48.356C75.51 48.621 75.36 48.884 75.12 49.083C74.89 49.272 74.6 49.384 74.21 49.411C73.86 49.663 73.5499 49.798 73.2799 49.765C73.1199 49.746 72.9899 49.673 72.8999 49.559C72.8099 49.451 72.76 49.318 72.74 49.188C72.7 48.931 72.75 48.623 72.84 48.333C72.93 48.04 73.0899 47.74 73.2799 47.495C73.4999 47.197 73.5599 46.985 73.5599 46.858C73.5599 46.75 73.52 46.697 73.45 46.666C73.37 46.628 73.2199 46.615 73.0299 46.677C72.8499 46.735 72.65 46.856 72.47 47.049C72.15 47.747 71.63 47.998 71.13 48.165C70.62 48.333 70.2 48.411 69.84 48.721C69.78 48.858 69.7299 49.049 69.6899 49.291C69.6499 49.535 69.6099 49.835 69.5399 50.096C69.4699 50.359 69.3599 50.637 69.1399 50.828C68.8999 51.029 68.5799 51.098 68.1899 51.033L67.98 50.844C67.93 50.621 67.9 50.333 67.87 50.078C67.83 49.808 67.8 49.566 67.73 49.386C67.66 49.2 67.5899 49.156 67.5399 49.147C67.4799 49.134 67.31 49.157 66.97 49.41L66.9099 49.447C66.6899 49.52 66.52 49.669 66.36 49.873C66.19 50.086 66.0599 50.312 65.8899 50.562C65.7299 50.793 65.5399 51.037 65.2799 51.179C64.9999 51.326 64.6799 51.344 64.2999 51.21C63.2599 51.078 62.2399 51.325 61.1399 51.484L60.8999 51.376C60.6299 50.979 60.26 50.553 59.85 50.242C59.46 49.949 59.06 49.78 58.7 49.792C58.41 50.079 58.1299 50.477 58.0699 50.799C58.0299 50.965 58.06 51.073 58.11 51.145C58.16 51.203 58.2499 51.27 58.4299 51.313L58.6399 51.347L58.72 51.37C58.96 51.481 59.1399 51.593 59.2799 51.708C59.4099 51.82 59.5099 51.955 59.5399 52.116C59.5699 52.289 59.5099 52.438 59.4099 52.549C59.3199 52.654 59.1999 52.736 59.0699 52.799C58.8199 52.927 58.4799 53.019 58.1599 53.082C57.8499 53.141 57.5299 53.175 57.2799 53.185C56.5899 53.444 56.0999 53.967 55.6699 54.606C55.4499 54.931 55.2499 55.277 55.0399 55.63C54.8299 55.98 54.6199 56.337 54.3899 56.663L54.0499 56.723C53.5699 56.399 53.04 56.183 52.48 55.952C51.93 55.724 51.35 55.482 50.83 55.11L50.73 54.909C50.73 54.7 50.67 54.458 50.6 54.184C50.53 53.921 50.4399 53.624 50.3999 53.345C50.3599 53.065 50.36 52.761 50.49 52.488C50.63 52.209 50.8999 52.009 51.2799 51.885L51.38 51.844C51.84 51.629 51.8799 51.264 51.7899 51.063C51.7399 50.951 51.6499 50.871 51.5199 50.85C51.3799 50.828 51.1699 50.863 50.8999 51.065L50.8199 51.105C50.4399 51.207 50.06 51.197 49.7 51.15C49.35 51.103 48.9799 51.015 48.6599 50.953C47.9799 50.824 47.41 50.788 46.87 51.199C46.36 51.64 45.8299 51.769 45.3099 51.792C45.0499 51.804 44.7899 51.79 44.5399 51.777C44.2999 51.764 44.0599 51.752 43.8199 51.759C42.1999 52.155 40.61 52.462 39.11 53.104L38.7799 52.951C38.6899 52.692 38.5499 52.548 38.4099 52.475C38.2599 52.4 38.07 52.385 37.87 52.433C37.48 52.528 37.1199 52.848 37.0299 53.24C37.0799 53.457 37.11 53.642 37.11 53.799C37.11 53.97 37.08 54.132 36.99 54.261C36.9 54.398 36.76 54.465 36.62 54.489C36.49 54.511 36.35 54.496 36.22 54.471C35.97 54.422 35.6599 54.31 35.3899 54.226C35.0999 54.136 34.8499 54.073 34.6399 54.079L34.5699 54.071C34.0499 53.941 33.49 54.043 32.87 54.114C32.26 54.181 31.6 54.215 30.99 53.838L30.88 53.638C30.86 53.204 30.94 52.867 31.13 52.616C31.32 52.365 31.59 52.236 31.86 52.162C32.13 52.089 32.43 52.061 32.7 52.034C32.98 52.006 33.24 51.977 33.47 51.914C34.64 51.321 35.6699 50.498 36.6599 49.603C37.6599 48.71 38.64 47.728 39.7 46.878L39.74 46.847C40.15 46.654 40.46 46.58 40.73 46.604C41.01 46.629 41.2 46.755 41.35 46.879C41.42 46.934 41.4899 47.007 41.5399 47.051C41.5999 47.103 41.65 47.144 41.7 47.174C41.8 47.228 41.91 47.264 42.11 47.227C43.65 46.779 45.2299 46.643 46.7799 46.484C48.3399 46.323 49.87 46.139 51.33 45.607L51.6599 45.874C51.5999 46.388 51.82 46.728 52.12 46.885C52.42 47.046 52.86 47.036 53.25 46.749L53.37 46.703C53.95 46.622 54.3199 46.36 54.5499 46.001C54.7899 45.633 54.8999 45.14 54.8999 44.585L54.9199 44.487C55.2799 43.662 56.0099 43.092 56.6499 42.568C57.3099 42.034 57.8899 41.545 58.1599 40.87C58.1799 40.697 58.1599 40.502 58.1399 40.284C58.1099 40.068 58.0699 39.806 58.0499 39.571C57.9999 39.09 58.03 38.541 58.5 38.148L58.61 38.094C58.79 38.058 59.04 37.966 59.33 37.85C59.62 37.738 59.94 37.609 60.25 37.52C60.54 37.433 60.8599 37.37 61.1399 37.426C61.2799 37.456 61.4199 37.52 61.5299 37.639C61.6399 37.757 61.7 37.91 61.72 38.083L61.6899 38.241C61.5699 38.458 61.3699 38.632 61.1699 38.78C60.9599 38.942 60.78 39.063 60.58 39.222C60.4 39.373 60.2599 39.523 60.1799 39.691C60.0999 39.851 60.06 40.041 60.12 40.291V40.32C60.16 40.653 60.26 40.797 60.35 40.858C60.44 40.92 60.5799 40.941 60.7699 40.892C61.1699 40.792 61.6499 40.436 61.9099 40.099L62 40.024C62.5 39.8 63.0199 39.599 63.5299 39.402C64.0399 39.204 64.5599 39.011 65.0599 38.798C66.0399 38.381 66.95 37.896 67.7 37.194C67.88 36.561 68.27 36.147 68.72 35.826C68.95 35.66 69.1899 35.517 69.4399 35.381C69.6799 35.243 69.9199 35.114 70.1399 34.97V34.967C70.6699 34.643 70.8999 34.133 71.1499 33.534C71.3799 32.971 71.63 32.321 72.24 31.88C72.62 31.163 73.04 30.41 73.35 29.612C73.64 28.844 73.7999 28.062 73.6799 27.277C73.3299 27.15 73.08 26.99 72.95 26.768C72.8 26.498 72.87 26.22 72.96 26C73.01 25.889 73.07 25.776 73.13 25.67C73.19 25.561 73.2499 25.46 73.2999 25.354C73.4099 25.152 73.47 24.973 73.48 24.803C73.27 24.185 73.2 23.615 73.37 23.115C73.53 22.613 73.9199 22.233 74.5199 21.952C74.8199 21.385 75.26 20.988 75.75 20.957C76.26 20.923 76.6699 21.292 76.9199 21.917C77.0199 21.939 77.18 21.954 77.38 21.946C77.64 21.935 77.9299 21.89 78.1899 21.813C78.4599 21.734 78.6599 21.63 78.7699 21.522C78.8199 21.472 78.84 21.43 78.84 21.397C78.85 21.366 78.8499 21.319 78.8099 21.248L78.7799 21.142C78.7699 21.059 78.7 20.95 78.49 20.807C78.39 20.741 78.2799 20.679 78.1599 20.616C78.0399 20.555 77.9199 20.489 77.8099 20.427C77.6999 20.366 77.58 20.293 77.5 20.209C77.41 20.128 77.31 19.993 77.33 19.812C77.36 19.641 77.48 19.517 77.6 19.427C77.72 19.339 77.89 19.253 78.1 19.166ZM82.7 0.292999C84.44 1.818 86.1699 3.47299 88.0699 4.82399C89.8499 6.08599 91.7499 7.06699 93.9199 7.40599L94.36 7.465L94.4199 7.481C94.8099 7.636 95.1399 7.628 95.4399 7.53C95.7599 7.429 96.06 7.22899 96.38 6.98399C96.69 6.74799 97.03 6.455 97.38 6.226C97.74 5.992 98.14 5.799 98.6 5.756L98.87 6.06099C98.8 6.34399 98.63 6.604 98.46 6.832C98.37 6.947 98.2699 7.06299 98.1799 7.17299C98.0899 7.28499 97.9999 7.393 97.9199 7.5C97.7599 7.719 97.66 7.91099 97.63 8.08899C97.6 8.23099 97.62 8.38199 97.74 8.55699L97.7999 8.633L97.85 8.722C97.89 8.858 98.01 9.039 98.21 9.267C98.38 9.473 98.6299 9.733 98.8099 9.957C98.9899 10.179 99.17 10.446 99.2 10.716C99.22 10.865 99.19 11.017 99.09 11.153C99 11.279 98.86 11.372 98.7 11.443C98.04 11.78 97.26 12.24 96.47 12.48C95.68 12.718 94.8299 12.753 94.0199 12.247C93.0299 12.19 92.23 12.641 91.5 13.315C91.13 13.659 90.79 14.054 90.45 14.461C90.14 14.842 89.8199 15.239 89.5199 15.594C89.4699 15.954 89.37 16.247 89.2 16.466C89.01 16.706 88.76 16.843 88.49 16.886C87.97 16.968 87.3799 16.715 86.8899 16.31C86.3599 16.106 85.84 15.846 85.33 15.58C84.8 15.305 84.2899 15.027 83.7699 14.788C82.7299 14.31 81.6999 14.007 80.5699 14.226L80.51 14.231C80.37 14.224 80.1799 14.296 79.9299 14.448C79.6899 14.601 79.46 14.782 79.2 14.963C78.96 15.126 78.6799 15.297 78.4099 15.325C78.2599 15.34 78.11 15.314 77.97 15.22C77.84 15.13 77.7399 14.992 77.6699 14.826C77.5499 14.564 77.4 14.398 77.23 14.297C77.06 14.196 76.8599 14.152 76.6499 14.159C76.2199 14.172 75.73 14.391 75.34 14.718C75.25 14.826 75.21 14.904 75.2 14.957C75.19 15.003 75.19 15.038 75.21 15.074C75.26 15.169 75.4099 15.282 75.6799 15.406C75.9399 15.523 76.2399 15.625 76.5399 15.732C76.8199 15.831 77.1199 15.941 77.3199 16.075C77.4599 16.154 77.69 16.26 77.97 16.396C78.24 16.527 78.5399 16.68 78.7799 16.843C78.8999 16.925 79.02 17.014 79.1 17.112C79.19 17.206 79.2699 17.333 79.2799 17.487C79.2999 17.657 79.22 17.801 79.1 17.91C78.99 18.011 78.82 18.091 78.63 18.157V18.156C78.35 18.267 78.0699 18.275 77.8099 18.253C77.6799 18.242 77.5499 18.224 77.4299 18.206C77.3099 18.187 77.19 18.171 77.08 18.16C76.86 18.138 76.6899 18.146 76.5399 18.208C76.3999 18.268 76.25 18.389 76.12 18.66L76.09 18.707C75.89 18.951 75.6599 19.269 75.4099 19.512C75.1499 19.767 74.8299 19.979 74.3999 20.019L74.24 19.985C73.88 19.768 73.67 19.508 73.6 19.204C73.53 18.91 73.5899 18.62 73.6899 18.368C73.7299 18.24 73.79 18.112 73.84 17.991C73.9 17.867 73.95 17.75 74 17.634C74.08 17.43 74.12 17.252 74.12 17.092C74.01 16.969 73.8599 16.853 73.6799 16.73C73.4799 16.596 73.22 16.444 73.01 16.275C72.79 16.101 72.5699 15.887 72.4399 15.601C72.3099 15.318 72.26 14.986 72.34 14.588C72.32 14.265 72.44 14.001 72.63 13.791C72.83 13.582 73.09 13.428 73.35 13.305C73.62 13.182 73.9199 13.079 74.1799 12.986C74.4499 12.89 74.68 12.804 74.86 12.71L74.9299 12.686C75.5299 12.564 75.8 12.241 75.88 11.925C75.96 11.596 75.8299 11.218 75.5399 10.962L75.49 10.639C75.74 10.248 76.0399 10.049 76.3899 10.041C76.7099 10.035 77.0199 10.195 77.2799 10.358C77.4199 10.442 77.5499 10.537 77.6799 10.625C77.8099 10.714 77.9399 10.798 78.0699 10.87C78.3299 11.016 78.55 11.092 78.76 11.072L78.8999 11.063C79.1699 11.036 79.3299 10.954 79.4299 10.859C79.5499 10.748 79.6199 10.584 79.6499 10.354C79.6799 10.122 79.6699 9.85199 79.6499 9.55499C79.6399 9.26799 79.61 8.952 79.63 8.662L79.6499 8.582C79.7699 8.291 80.0299 8.11199 80.2699 7.98399C80.3999 7.91799 80.5299 7.859 80.6599 7.804C80.7899 7.748 80.9199 7.69599 81.0399 7.63899C81.2799 7.52399 81.4599 7.40899 81.5599 7.26799C81.6499 7.14399 81.7 6.96899 81.62 6.67299L81.61 6.575C81.79 5.228 81.78 3.94 80.96 2.89799L80.95 2.87799C80.74 2.55099 80.6499 2.23399 80.6699 1.93199C80.6999 1.62999 80.8299 1.373 81.0199 1.159C81.3799 0.740997 81.9599 0.451 82.4399 0.25L82.7 0.292999Z" fill="#FD9C9C"/>
<path d="M29.1993 13.4377C29.5493 13.9097 29.5799 14.467 29.7699 15.035L29.6899 15.305C29.3299 15.608 28.91 15.878 28.49 16.138C28.06 16.402 27.64 16.656 27.26 16.937C26.5 17.493 25.9499 18.117 25.9099 19.021C26.0599 19.657 25.92 20.269 25.76 20.834C25.58 21.434 25.37 21.967 25.34 22.521L25.09 22.756C23.94 22.745 23.0799 23.373 22.1899 24.133C21.3199 24.875 20.41 25.763 19.22 26.06L19.13 26.066C17.48 25.89 15.84 26.86 15.48 28.497L15.4399 28.59C15.2399 28.861 15.22 29.061 15.26 29.219C15.3 29.392 15.4299 29.569 15.6499 29.756C15.8599 29.942 16.1299 30.113 16.4099 30.289C16.6699 30.453 16.9399 30.625 17.1499 30.803C17.8299 31.248 18.48 31.728 19.08 32.274L19.09 32.424C19.24 32.464 19.38 32.539 19.5 32.624C19.74 32.788 19.9599 33.024 20.1699 33.25C20.2799 33.369 20.37 33.483 20.47 33.588L20.73 33.879L20.7699 33.921C21.0599 34.386 21.4 34.839 21.75 35.295C22.11 35.749 22.4799 36.212 22.8199 36.685C23.4999 37.632 24.0999 38.658 24.2899 39.864V39.905C24.2799 41.295 24.3399 42.759 24.0199 44.175C24.2399 44.202 24.44 44.243 24.6 44.305C24.83 44.395 25.03 44.542 25.11 44.779C25.19 45.004 25.1399 45.252 25.0499 45.498C24.9499 45.747 24.7799 46.033 24.5599 46.357L24.5499 46.371C24.3899 46.576 24.2299 46.837 24.0699 47.126C23.8999 47.41 23.7299 47.72 23.5299 47.998C23.1399 48.55 22.5999 49.053 21.7999 48.979L21.6699 48.928C21.4299 48.742 21.2099 48.672 21.0199 48.666C20.8299 48.659 20.6299 48.717 20.4299 48.829C20.0199 49.059 19.63 49.482 19.26 49.886L19.09 49.964C18.79 49.988 18.5199 49.923 18.2699 49.836C18.1399 49.793 18.0199 49.743 17.9099 49.695C17.7899 49.646 17.68 49.598 17.58 49.556C17.36 49.472 17.16 49.416 16.97 49.415C16.78 49.413 16.58 49.462 16.34 49.614L16.25 49.65C15.5 49.802 14.89 50.314 14.21 50.84C13.57 51.33 12.86 51.825 11.95 51.834C11.81 51.978 11.69 52.093 11.58 52.175C11.45 52.27 11.3099 52.342 11.1599 52.353C10.9999 52.366 10.8599 52.299 10.7699 52.19C10.6799 52.093 10.64 51.969 10.6 51.855C10.54 51.627 10.51 51.323 10.49 51.048C10.46 50.759 10.43 50.486 10.37 50.272L10.36 50.243C10.32 49.971 10.2299 49.681 10.1399 49.368C10.0499 49.062 9.95991 48.734 9.90991 48.412C9.85991 48.088 9.85996 47.751 9.95996 47.428C10.07 47.108 10.27 46.821 10.61 46.579C10.89 46.297 11.2 45.823 11.37 45.341C11.54 44.859 11.54 44.462 11.34 44.215C10.96 44.031 10.7599 43.725 10.6699 43.388C10.5799 43.052 10.5799 42.667 10.5699 42.352C10.5599 42.012 10.5399 41.753 10.4399 41.571C10.3999 41.488 10.34 41.422 10.26 41.373C10.17 41.322 10.05 41.281 9.85999 41.268C9.60999 41.278 9.41001 41.274 9.26001 41.251C9.18001 41.24 9.10992 41.223 9.03992 41.197C8.97992 41.171 8.90999 41.131 8.85999 41.066C8.79999 40.994 8.76991 40.905 8.77991 40.814C8.77991 40.732 8.80998 40.662 8.84998 40.612C8.90998 40.513 9.00999 40.423 9.10999 40.347C9.51999 40.041 10.28 39.697 10.71 39.54L10.97 39.601C11.35 39.997 11.9 40.022 12.2 39.86C12.34 39.782 12.4099 39.677 12.4199 39.569C12.4199 39.453 12.36 39.257 12.09 38.999C11.34 38.282 10.8299 37.38 10.3099 36.652L10.3199 36.609C10.1999 36.58 10.09 36.527 9.97998 36.447C9.81998 36.638 9.65999 36.803 9.48999 36.931C9.25999 37.106 8.99999 37.225 8.73999 37.237C8.45999 37.249 8.21 37.143 8 36.924C7.81 36.728 7.66995 36.446 7.56995 36.086C7.46995 36.018 7.39996 35.984 7.32996 35.97C7.25996 35.955 7.2 35.961 7.13 35.986C6.99 36.041 6.83992 36.184 6.66992 36.401C6.57992 36.505 6.50992 36.617 6.41992 36.73C6.33992 36.841 6.25992 36.956 6.16992 37.055C6.08992 37.153 5.99 37.251 5.88 37.319C5.77 37.389 5.61996 37.436 5.45996 37.405L5.26001 37.208C5.16001 36.685 4.78993 36.398 4.29993 36.11C4.06993 35.972 3.79994 35.826 3.55994 35.662C3.31994 35.494 3.08993 35.288 2.92993 35.008V34.999C2.71993 34.595 2.68993 34.204 2.79993 33.847C2.90993 33.497 3.13992 33.202 3.41992 32.963C3.95992 32.514 4.69994 32.224 5.30994 32.119C5.36994 32.046 5.37989 32.002 5.38989 31.982C5.38989 31.969 5.38999 31.951 5.35999 31.915C5.32999 31.871 5.26992 31.82 5.16992 31.758C5.07992 31.695 4.97999 31.64 4.85999 31.568C4.74999 31.501 4.6299 31.422 4.5199 31.331C4.4199 31.239 4.31991 31.117 4.27991 30.958C4.18991 30.625 4.38 30.303 4.75 29.981C5.08 29.513 5.29992 29.029 5.28992 28.655C5.28992 28.477 5.22999 28.33 5.10999 28.21C4.98999 28.086 4.76992 27.971 4.41992 27.904L4.30994 27.856C3.91673 27.5503 3.4945 27.6639 2.92931 27.8161L2.8999 27.824C2.6299 27.896 2.3199 27.974 2.0199 27.954C1.7099 27.933 1.41992 27.814 1.16992 27.538C0.819922 27.405 0.569912 27.227 0.409912 26.998C0.309912 26.84 0.26 26.672 0.25 26.502C0.901061 26.3361 1.23385 24.2978 2.19934 23.9377C4.85764 22.4295 8.3536 21.691 10.0327 18.8456C10.4808 17.7813 11.4109 17.1228 12.5931 17.3078C13.3058 18.6986 15.093 19.1157 16.5396 18.9153C17.61 18.977 19.0453 18.5657 17.735 17.4892C16.7167 16.6827 17.3991 15.2005 18.6607 15.3762C20.4213 16.2264 22.1993 14.9377 23.8906 14.5182C25.2252 14.2347 24.7137 12.5207 25.8414 11.9625C27.1993 11.4377 28.4688 13.3875 29.1993 13.4377Z" fill="#FD9C9C"/>
<path d="M2.8999 27.824C2.6299 27.896 2.3199 27.974 2.0199 27.954C1.7099 27.933 1.41992 27.814 1.16992 27.538C0.819922 27.405 0.569912 27.227 0.409912 26.998C0.309912 26.84 0.26 26.672 0.25 26.502C0.901061 26.3361 1.23385 24.2978 2.19934 23.9377C4.85764 22.4295 8.3536 21.691 10.0327 18.8456C10.4808 17.7813 11.4109 17.1228 12.5931 17.3078C13.3058 18.6986 15.093 19.1157 16.5396 18.9153C17.61 18.977 19.0453 18.5657 17.735 17.4892C16.7167 16.6827 17.3991 15.2005 18.6607 15.3762C20.4213 16.2264 22.1993 14.9377 23.8906 14.5182C25.2252 14.2347 24.7137 12.5207 25.8414 11.9625C27.1993 11.4377 28.4688 13.3875 29.1993 13.4377C29.5493 13.9097 29.5799 14.467 29.7699 15.035L29.6899 15.305C29.3299 15.608 28.91 15.878 28.49 16.138C28.06 16.402 27.64 16.656 27.26 16.937C26.5 17.493 25.9499 18.117 25.9099 19.021C26.0599 19.657 25.92 20.269 25.76 20.834C25.58 21.434 25.37 21.967 25.34 22.521L25.09 22.756C23.94 22.745 23.0799 23.373 22.1899 24.133C21.3199 24.875 20.41 25.763 19.22 26.06L19.13 26.066C17.48 25.89 15.84 26.86 15.48 28.497L15.4399 28.59C15.2399 28.861 15.22 29.061 15.26 29.219C15.3 29.392 15.4299 29.569 15.6499 29.756C15.8599 29.942 16.1299 30.113 16.4099 30.289C16.6699 30.453 16.9399 30.625 17.1499 30.803C17.8299 31.248 18.48 31.728 19.08 32.274L19.09 32.424C19.24 32.464 19.38 32.539 19.5 32.624C19.74 32.788 19.9599 33.024 20.1699 33.25C20.2799 33.369 20.37 33.483 20.47 33.588L20.73 33.879L20.7699 33.921C21.0599 34.386 21.4 34.839 21.75 35.295C22.11 35.749 22.4799 36.212 22.8199 36.685C23.4999 37.632 24.0999 38.658 24.2899 39.864V39.905C24.2799 41.295 24.3399 42.759 24.0199 44.175C24.2399 44.202 24.44 44.243 24.6 44.305C24.83 44.395 25.03 44.542 25.11 44.779C25.19 45.004 25.1399 45.252 25.0499 45.498C24.9499 45.747 24.7799 46.033 24.5599 46.357L24.5499 46.371C24.3899 46.576 24.2299 46.837 24.0699 47.126C23.8999 47.41 23.7299 47.72 23.5299 47.998C23.1399 48.55 22.5999 49.053 21.7999 48.979L21.6699 48.928C21.4299 48.742 21.2099 48.672 21.0199 48.666C20.8299 48.659 20.6299 48.717 20.4299 48.829C20.0199 49.059 19.63 49.482 19.26 49.886L19.09 49.964C18.79 49.988 18.5199 49.923 18.2699 49.836C18.1399 49.793 18.0199 49.743 17.9099 49.695C17.7899 49.646 17.68 49.598 17.58 49.556C17.36 49.472 17.16 49.416 16.97 49.415C16.78 49.413 16.58 49.462 16.34 49.614L16.25 49.65C15.5 49.802 14.89 50.314 14.21 50.84C13.57 51.33 12.86 51.825 11.95 51.834C11.81 51.978 11.69 52.093 11.58 52.175C11.45 52.27 11.3099 52.342 11.1599 52.353C10.9999 52.366 10.8599 52.299 10.7699 52.19C10.6799 52.093 10.64 51.969 10.6 51.855C10.54 51.627 10.51 51.323 10.49 51.048C10.46 50.759 10.43 50.486 10.37 50.272L10.36 50.243C10.32 49.971 10.2299 49.681 10.1399 49.368C10.0499 49.062 9.95991 48.734 9.90991 48.412C9.85991 48.088 9.85996 47.751 9.95996 47.428C10.07 47.108 10.27 46.821 10.61 46.579C10.89 46.297 11.2 45.823 11.37 45.341C11.54 44.859 11.54 44.462 11.34 44.215C10.96 44.031 10.7599 43.725 10.6699 43.388C10.5799 43.052 10.5799 42.667 10.5699 42.352C10.5599 42.012 10.5399 41.753 10.4399 41.571C10.3999 41.488 10.34 41.422 10.26 41.373C10.17 41.322 10.05 41.281 9.85999 41.268C9.60999 41.278 9.41001 41.274 9.26001 41.251C9.18001 41.24 9.10992 41.223 9.03992 41.197C8.97992 41.171 8.90999 41.131 8.85999 41.066C8.79999 40.994 8.76991 40.905 8.77991 40.814C8.77991 40.732 8.80998 40.662 8.84998 40.612C8.90998 40.513 9.00999 40.423 9.10999 40.347C9.51999 40.041 10.28 39.697 10.71 39.54L10.97 39.601C11.35 39.997 11.9 40.022 12.2 39.86C12.34 39.782 12.4099 39.677 12.4199 39.569C12.4199 39.453 12.36 39.257 12.09 38.999C11.34 38.282 10.8299 37.38 10.3099 36.652L10.3199 36.609C10.1999 36.58 10.09 36.527 9.97998 36.447C9.81998 36.638 9.65999 36.803 9.48999 36.931C9.25999 37.106 8.99999 37.225 8.73999 37.237C8.45999 37.249 8.21 37.143 8 36.924C7.81 36.728 7.66995 36.446 7.56995 36.086C7.46995 36.018 7.39996 35.984 7.32996 35.97C7.25996 35.955 7.2 35.961 7.13 35.986C6.99 36.041 6.83992 36.184 6.66992 36.401C6.57992 36.505 6.50992 36.617 6.41992 36.73C6.33992 36.841 6.25992 36.956 6.16992 37.055C6.08992 37.153 5.99 37.251 5.88 37.319C5.77 37.389 5.61996 37.436 5.45996 37.405L5.26001 37.208C5.16001 36.685 4.78993 36.398 4.29993 36.11C4.06993 35.972 3.79994 35.826 3.55994 35.662C3.31994 35.494 3.08993 35.288 2.92993 35.008V34.999C2.71993 34.595 2.68993 34.204 2.79993 33.847C2.90993 33.497 3.13992 33.202 3.41992 32.963C3.95992 32.514 4.69994 32.224 5.30994 32.119C5.36994 32.046 5.37989 32.002 5.38989 31.982C5.38989 31.969 5.38999 31.951 5.35999 31.915C5.32999 31.871 5.26992 31.82 5.16992 31.758C5.07992 31.695 4.97999 31.64 4.85999 31.568C4.74999 31.501 4.6299 31.422 4.5199 31.331C4.4199 31.239 4.31991 31.117 4.27991 30.958C4.18991 30.625 4.38 30.303 4.75 29.981C5.08 29.513 5.29992 29.029 5.28992 28.655C5.28992 28.477 5.22999 28.33 5.10999 28.21C4.98999 28.086 4.76992 27.971 4.41992 27.904L4.30994 27.856C3.91673 27.5503 3.4945 27.6639 2.92931 27.8161M2.8999 27.824L2.92931 27.8161M2.8999 27.824C2.90975 27.8213 2.91955 27.8187 2.92931 27.8161M30.2799 54.592C30.8599 54.549 31.52 54.712 31.88 55.123L31.9199 55.183C32.1599 55.683 32.59 55.92 33.1 55.973C33.62 56.027 34.1999 55.885 34.6599 55.634L34.9199 55.644C35.1299 55.783 35.29 55.931 35.38 56.095C35.48 56.27 35.4899 56.449 35.4299 56.615C35.3799 56.769 35.2799 56.898 35.1799 57.001C35.0799 57.106 34.96 57.201 34.85 57.285C34.74 57.372 34.6399 57.443 34.5699 57.512C34.5299 57.545 34.5 57.573 34.48 57.596C34.51 57.618 34.5599 57.648 34.6499 57.682L34.7799 57.73L34.83 57.75C35.32 58.03 35.8299 58.486 36.0399 58.995C36.1499 59.257 36.1799 59.551 36.0499 59.835C35.9399 60.109 35.7 60.335 35.34 60.514C34.55 61.106 34.36 61.973 34.22 62.967C34.08 63.934 33.9999 65.052 33.3199 65.901L33.2 65.985C32.72 66.121 32.3699 66.411 32.0699 66.785C31.9099 66.973 31.77 67.178 31.62 67.394C31.47 67.607 31.3199 67.833 31.1599 68.047L30.98 68.146C30.75 68.163 30.5499 68.153 30.3899 68.107C30.2299 68.059 30.09 67.969 30.01 67.822C29.93 67.681 29.9199 67.527 29.9399 67.392C29.9599 67.257 29.9999 67.116 30.0599 66.982C30.1099 66.847 30.18 66.705 30.24 66.568C30.31 66.428 30.3699 66.293 30.4299 66.16C30.5499 65.893 30.6 65.687 30.59 65.541C30.54 65.393 30.49 65.309 30.45 65.264C30.41 65.224 30.3999 65.224 30.3899 65.224C30.3799 65.224 30.3499 65.228 30.2899 65.269C30.2299 65.31 30.16 65.377 30.08 65.468C29.76 65.844 29.44 66.485 29.25 66.848L29.24 66.871C29.01 67.222 28.7199 67.425 28.3999 67.386C28.0899 67.35 27.87 67.106 27.76 66.854C27.54 66.37 27.5899 65.596 28.2699 65.22C28.3199 65.078 28.31 64.919 28.26 64.727C28.19 64.499 28.0699 64.266 27.9399 64.008C27.8099 63.768 27.6799 63.492 27.6399 63.228C27.6299 63.089 27.6299 62.942 27.6899 62.798C27.7499 62.66 27.85 62.542 27.98 62.444L28.6399 61.917C28.8599 61.737 29.07 61.556 29.24 61.363C29.4 61.17 29.5099 60.976 29.5599 60.777C29.6099 60.582 29.6 60.364 29.48 60.107C29.27 59.682 28.9199 59.126 28.5599 58.861C28.3799 58.728 28.2499 58.705 28.1699 58.73C28.0799 58.756 27.9299 58.863 27.7899 59.223L27.7799 59.231C27.6099 59.623 27.3999 59.897 27.1499 60.036C26.8899 60.185 26.61 60.152 26.38 60.025C26.16 59.904 25.9699 59.697 25.8099 59.471C25.6799 59.272 25.56 59.043 25.46 58.814C24.86 58.561 24.4599 58.039 24.4199 57.531C24.3999 57.252 24.49 56.974 24.73 56.778C24.93 56.611 25.2099 56.525 25.5599 56.519L25.71 56.522L25.74 56.526C26.33 56.636 26.9899 56.666 27.5499 56.519C28.0999 56.374 28.54 56.064 28.75 55.49L28.76 55.46C29.05 54.896 29.6799 54.636 30.2799 54.592ZM45.0299 52.48C45.3599 52.334 45.7399 52.282 46.1599 52.39L46.34 52.447L46.4199 52.493C46.5699 52.623 46.76 52.706 47 52.768C47.24 52.832 47.48 52.865 47.75 52.919C48.26 53.021 48.85 53.192 49.1 53.855L49.11 54.005C48.81 55.184 47.91 55.909 47.13 56.667C46.92 57.056 46.7099 57.313 46.4399 57.415C46.1499 57.526 45.8799 57.424 45.6599 57.3C45.5499 57.238 45.44 57.162 45.34 57.087C45.23 57.011 45.1299 56.935 45.0199 56.864C44.8099 56.721 44.59 56.612 44.37 56.577C43.19 56.384 42.0399 57.177 41.7999 58.361C41.7199 58.873 41.53 59.289 41.24 59.629C40.95 59.97 40.57 60.224 40.12 60.425L39.9199 60.427C39.0799 60.069 38.77 59.331 38.51 58.666C38.25 57.976 38.04 57.371 37.48 57L37.4099 56.933C37.3199 56.802 37.2699 56.654 37.2899 56.497C37.3099 56.343 37.4 56.224 37.49 56.135C37.66 55.968 37.94 55.837 38.2 55.723C38.47 55.6 38.73 55.485 38.95 55.345C39.17 55.204 39.3 55.065 39.34 54.921V54.906C39.49 54.476 39.6799 54.183 39.9299 54.02C40.1799 53.85 40.46 53.853 40.7 53.898C40.82 53.92 40.9499 53.955 41.0699 53.99C41.1899 54.026 41.2999 54.061 41.4299 54.092C41.6699 54.154 41.9099 54.191 42.1599 54.157L42.21 54.156C42.56 54.185 42.8599 54.08 43.1499 53.896C43.4499 53.707 43.7299 53.448 44.0299 53.176C44.3299 52.914 44.6499 52.641 45.0299 52.48ZM78.1 19.166C78.54 18.724 79.2 18.75 79.71 18.956C80.2 19.153 80.6699 19.561 80.7899 20.063L80.8099 20.165L80.8199 20.173L80.83 20.391C80.84 20.611 80.8299 20.84 80.8199 21.065C80.7999 21.372 80.7699 21.666 80.7699 21.957C80.7599 22.47 80.8199 22.883 81.0399 23.172L81.1499 23.289L81.1599 23.296V23.297C81.9499 24.119 82.4699 25.215 82.9199 26.259L83.35 27.275L83.36 27.344C83.56 29.074 82.4199 30.423 81.3199 31.452C81.1999 31.666 81.1199 31.889 81.0699 32.12C81.0099 32.342 80.9599 32.616 80.8899 32.837C80.8099 33.075 80.6799 33.309 80.4399 33.485C80.2099 33.654 79.9 33.748 79.48 33.776C78.83 33.942 78.4399 34.422 78.2699 35.023C78.0999 35.637 78.1699 36.36 78.4199 36.936L78.4399 36.989C78.5699 37.629 78.6999 38.375 78.6399 39.074C78.5699 39.775 78.3 40.446 77.61 40.916C77.14 41.398 76.7999 42.094 76.6699 42.814C76.5499 43.522 76.6499 44.226 77.0199 44.771C77.2099 44.87 77.37 44.964 77.49 45.058C77.62 45.159 77.7299 45.277 77.7699 45.418C77.8299 45.577 77.79 45.725 77.71 45.843C77.64 45.951 77.5399 46.035 77.4399 46.103C77.2399 46.236 76.96 46.367 76.71 46.489C76.47 46.613 76.25 46.737 76.1 46.875C75.99 47.069 75.91 47.297 75.84 47.55C75.77 47.803 75.7 48.098 75.61 48.356C75.51 48.621 75.36 48.884 75.12 49.083C74.89 49.272 74.6 49.384 74.21 49.411C73.86 49.663 73.5499 49.798 73.2799 49.765C73.1199 49.746 72.9899 49.673 72.8999 49.559C72.8099 49.451 72.76 49.318 72.74 49.188C72.7 48.931 72.75 48.623 72.84 48.333C72.93 48.04 73.0899 47.74 73.2799 47.495C73.4999 47.197 73.5599 46.985 73.5599 46.858C73.5599 46.75 73.52 46.697 73.45 46.666C73.37 46.628 73.2199 46.615 73.0299 46.677C72.8499 46.735 72.65 46.856 72.47 47.049C72.15 47.747 71.63 47.998 71.13 48.165C70.62 48.333 70.2 48.411 69.84 48.721C69.78 48.858 69.7299 49.049 69.6899 49.291C69.6499 49.535 69.6099 49.835 69.5399 50.096C69.4699 50.359 69.3599 50.637 69.1399 50.828C68.8999 51.029 68.5799 51.098 68.1899 51.033L67.98 50.844C67.93 50.621 67.9 50.333 67.87 50.078C67.83 49.808 67.8 49.566 67.73 49.386C67.66 49.2 67.5899 49.156 67.5399 49.147C67.4799 49.134 67.31 49.157 66.97 49.41L66.9099 49.447C66.6899 49.52 66.52 49.669 66.36 49.873C66.19 50.086 66.0599 50.312 65.8899 50.562C65.7299 50.793 65.5399 51.037 65.2799 51.179C64.9999 51.326 64.6799 51.344 64.2999 51.21C63.2599 51.078 62.2399 51.325 61.1399 51.484L60.8999 51.376C60.6299 50.979 60.26 50.553 59.85 50.242C59.46 49.949 59.06 49.78 58.7 49.792C58.41 50.079 58.1299 50.477 58.0699 50.799C58.0299 50.965 58.06 51.073 58.11 51.145C58.16 51.203 58.2499 51.27 58.4299 51.313L58.6399 51.347L58.72 51.37C58.96 51.481 59.1399 51.593 59.2799 51.708C59.4099 51.82 59.5099 51.955 59.5399 52.116C59.5699 52.289 59.5099 52.438 59.4099 52.549C59.3199 52.654 59.1999 52.736 59.0699 52.799C58.8199 52.927 58.4799 53.019 58.1599 53.082C57.8499 53.141 57.5299 53.175 57.2799 53.185C56.5899 53.444 56.0999 53.967 55.6699 54.606C55.4499 54.931 55.2499 55.277 55.0399 55.63C54.8299 55.98 54.6199 56.337 54.3899 56.663L54.0499 56.723C53.5699 56.399 53.04 56.183 52.48 55.952C51.93 55.724 51.35 55.482 50.83 55.11L50.73 54.909C50.73 54.7 50.67 54.458 50.6 54.184C50.53 53.921 50.4399 53.624 50.3999 53.345C50.3599 53.065 50.36 52.761 50.49 52.488C50.63 52.209 50.8999 52.009 51.2799 51.885L51.38 51.844C51.84 51.629 51.8799 51.264 51.7899 51.063C51.7399 50.951 51.6499 50.871 51.5199 50.85C51.3799 50.828 51.1699 50.863 50.8999 51.065L50.8199 51.105C50.4399 51.207 50.06 51.197 49.7 51.15C49.35 51.103 48.9799 51.015 48.6599 50.953C47.9799 50.824 47.41 50.788 46.87 51.199C46.36 51.64 45.8299 51.769 45.3099 51.792C45.0499 51.804 44.7899 51.79 44.5399 51.777C44.2999 51.764 44.0599 51.752 43.8199 51.759C42.1999 52.155 40.61 52.462 39.11 53.104L38.7799 52.951C38.6899 52.692 38.5499 52.548 38.4099 52.475C38.2599 52.4 38.07 52.385 37.87 52.433C37.48 52.528 37.1199 52.848 37.0299 53.24C37.0799 53.457 37.11 53.642 37.11 53.799C37.11 53.97 37.08 54.132 36.99 54.261C36.9 54.398 36.76 54.465 36.62 54.489C36.49 54.511 36.35 54.496 36.22 54.471C35.97 54.422 35.6599 54.31 35.3899 54.226C35.0999 54.136 34.8499 54.073 34.6399 54.079L34.5699 54.071C34.0499 53.941 33.49 54.043 32.87 54.114C32.26 54.181 31.6 54.215 30.99 53.838L30.88 53.638C30.86 53.204 30.94 52.867 31.13 52.616C31.32 52.365 31.59 52.236 31.86 52.162C32.13 52.089 32.43 52.061 32.7 52.034C32.98 52.006 33.24 51.977 33.47 51.914C34.64 51.321 35.6699 50.498 36.6599 49.603C37.6599 48.71 38.64 47.728 39.7 46.878L39.74 46.847C40.15 46.654 40.46 46.58 40.73 46.604C41.01 46.629 41.2 46.755 41.35 46.879C41.42 46.934 41.4899 47.007 41.5399 47.051C41.5999 47.103 41.65 47.144 41.7 47.174C41.8 47.228 41.91 47.264 42.11 47.227C43.65 46.779 45.2299 46.643 46.7799 46.484C48.3399 46.323 49.87 46.139 51.33 45.607L51.6599 45.874C51.5999 46.388 51.82 46.728 52.12 46.885C52.42 47.046 52.86 47.036 53.25 46.749L53.37 46.703C53.95 46.622 54.3199 46.36 54.5499 46.001C54.7899 45.633 54.8999 45.14 54.8999 44.585L54.9199 44.487C55.2799 43.662 56.0099 43.092 56.6499 42.568C57.3099 42.034 57.8899 41.545 58.1599 40.87C58.1799 40.697 58.1599 40.502 58.1399 40.284C58.1099 40.068 58.0699 39.806 58.0499 39.571C57.9999 39.09 58.03 38.541 58.5 38.148L58.61 38.094C58.79 38.058 59.04 37.966 59.33 37.85C59.62 37.738 59.94 37.609 60.25 37.52C60.54 37.433 60.8599 37.37 61.1399 37.426C61.2799 37.456 61.4199 37.52 61.5299 37.639C61.6399 37.757 61.7 37.91 61.72 38.083L61.6899 38.241C61.5699 38.458 61.3699 38.632 61.1699 38.78C60.9599 38.942 60.78 39.063 60.58 39.222C60.4 39.373 60.2599 39.523 60.1799 39.691C60.0999 39.851 60.06 40.041 60.12 40.291V40.32C60.16 40.653 60.26 40.797 60.35 40.858C60.44 40.92 60.5799 40.941 60.7699 40.892C61.1699 40.792 61.6499 40.436 61.9099 40.099L62 40.024C62.5 39.8 63.0199 39.599 63.5299 39.402C64.0399 39.204 64.5599 39.011 65.0599 38.798C66.0399 38.381 66.95 37.896 67.7 37.194C67.88 36.561 68.27 36.147 68.72 35.826C68.95 35.66 69.1899 35.517 69.4399 35.381C69.6799 35.243 69.9199 35.114 70.1399 34.97V34.967C70.6699 34.643 70.8999 34.133 71.1499 33.534C71.3799 32.971 71.63 32.321 72.24 31.88C72.62 31.163 73.04 30.41 73.35 29.612C73.64 28.844 73.7999 28.062 73.6799 27.277C73.3299 27.15 73.08 26.99 72.95 26.768C72.8 26.498 72.87 26.22 72.96 26C73.01 25.889 73.07 25.776 73.13 25.67C73.19 25.561 73.2499 25.46 73.2999 25.354C73.4099 25.152 73.47 24.973 73.48 24.803C73.27 24.185 73.2 23.615 73.37 23.115C73.53 22.613 73.9199 22.233 74.5199 21.952C74.8199 21.385 75.26 20.988 75.75 20.957C76.26 20.923 76.6699 21.292 76.9199 21.917C77.0199 21.939 77.18 21.954 77.38 21.946C77.64 21.935 77.9299 21.89 78.1899 21.813C78.4599 21.734 78.6599 21.63 78.7699 21.522C78.8199 21.472 78.84 21.43 78.84 21.397C78.85 21.366 78.8499 21.319 78.8099 21.248L78.7799 21.142C78.7699 21.059 78.7 20.95 78.49 20.807C78.39 20.741 78.2799 20.679 78.1599 20.616C78.0399 20.555 77.9199 20.489 77.8099 20.427C77.6999 20.366 77.58 20.293 77.5 20.209C77.41 20.128 77.31 19.993 77.33 19.812C77.36 19.641 77.48 19.517 77.6 19.427C77.72 19.339 77.89 19.253 78.1 19.166ZM82.7 0.292999C84.44 1.818 86.1699 3.47299 88.0699 4.82399C89.8499 6.08599 91.7499 7.06699 93.9199 7.40599L94.36 7.465L94.4199 7.481C94.8099 7.636 95.1399 7.628 95.4399 7.53C95.7599 7.429 96.06 7.22899 96.38 6.98399C96.69 6.74799 97.03 6.455 97.38 6.226C97.74 5.992 98.14 5.799 98.6 5.756L98.87 6.06099C98.8 6.34399 98.63 6.604 98.46 6.832C98.37 6.947 98.2699 7.06299 98.1799 7.17299C98.0899 7.28499 97.9999 7.393 97.9199 7.5C97.7599 7.719 97.66 7.91099 97.63 8.08899C97.6 8.23099 97.62 8.38199 97.74 8.55699L97.7999 8.633L97.85 8.722C97.89 8.858 98.01 9.039 98.21 9.267C98.38 9.473 98.6299 9.733 98.8099 9.957C98.9899 10.179 99.17 10.446 99.2 10.716C99.22 10.865 99.19 11.017 99.09 11.153C99 11.279 98.86 11.372 98.7 11.443C98.04 11.78 97.26 12.24 96.47 12.48C95.68 12.718 94.8299 12.753 94.0199 12.247C93.0299 12.19 92.23 12.641 91.5 13.315C91.13 13.659 90.79 14.054 90.45 14.461C90.14 14.842 89.8199 15.239 89.5199 15.594C89.4699 15.954 89.37 16.247 89.2 16.466C89.01 16.706 88.76 16.843 88.49 16.886C87.97 16.968 87.3799 16.715 86.8899 16.31C86.3599 16.106 85.84 15.846 85.33 15.58C84.8 15.305 84.2899 15.027 83.7699 14.788C82.7299 14.31 81.6999 14.007 80.5699 14.226L80.51 14.231C80.37 14.224 80.1799 14.296 79.9299 14.448C79.6899 14.601 79.46 14.782 79.2 14.963C78.96 15.126 78.6799 15.297 78.4099 15.325C78.2599 15.34 78.11 15.314 77.97 15.22C77.84 15.13 77.7399 14.992 77.6699 14.826C77.5499 14.564 77.4 14.398 77.23 14.297C77.06 14.196 76.8599 14.152 76.6499 14.159C76.2199 14.172 75.73 14.391 75.34 14.718C75.25 14.826 75.21 14.904 75.2 14.957C75.19 15.003 75.19 15.038 75.21 15.074C75.26 15.169 75.4099 15.282 75.6799 15.406C75.9399 15.523 76.2399 15.625 76.5399 15.732C76.8199 15.831 77.1199 15.941 77.3199 16.075C77.4599 16.154 77.69 16.26 77.97 16.396C78.24 16.527 78.5399 16.68 78.7799 16.843C78.8999 16.925 79.02 17.014 79.1 17.112C79.19 17.206 79.2699 17.333 79.2799 17.487C79.2999 17.657 79.22 17.801 79.1 17.91C78.99 18.011 78.82 18.091 78.63 18.157V18.156C78.35 18.267 78.0699 18.275 77.8099 18.253C77.6799 18.242 77.5499 18.224 77.4299 18.206C77.3099 18.187 77.19 18.171 77.08 18.16C76.86 18.138 76.6899 18.146 76.5399 18.208C76.3999 18.268 76.25 18.389 76.12 18.66L76.09 18.707C75.89 18.951 75.6599 19.269 75.4099 19.512C75.1499 19.767 74.8299 19.979 74.3999 20.019L74.24 19.985C73.88 19.768 73.67 19.508 73.6 19.204C73.53 18.91 73.5899 18.62 73.6899 18.368C73.7299 18.24 73.79 18.112 73.84 17.991C73.9 17.867 73.95 17.75 74 17.634C74.08 17.43 74.12 17.252 74.12 17.092C74.01 16.969 73.8599 16.853 73.6799 16.73C73.4799 16.596 73.22 16.444 73.01 16.275C72.79 16.101 72.5699 15.887 72.4399 15.601C72.3099 15.318 72.26 14.986 72.34 14.588C72.32 14.265 72.44 14.001 72.63 13.791C72.83 13.582 73.09 13.428 73.35 13.305C73.62 13.182 73.9199 13.079 74.1799 12.986C74.4499 12.89 74.68 12.804 74.86 12.71L74.9299 12.686C75.5299 12.564 75.8 12.241 75.88 11.925C75.96 11.596 75.8299 11.218 75.5399 10.962L75.49 10.639C75.74 10.248 76.0399 10.049 76.3899 10.041C76.7099 10.035 77.0199 10.195 77.2799 10.358C77.4199 10.442 77.5499 10.537 77.6799 10.625C77.8099 10.714 77.9399 10.798 78.0699 10.87C78.3299 11.016 78.55 11.092 78.76 11.072L78.8999 11.063C79.1699 11.036 79.3299 10.954 79.4299 10.859C79.5499 10.748 79.6199 10.584 79.6499 10.354C79.6799 10.122 79.6699 9.85199 79.6499 9.55499C79.6399 9.26799 79.61 8.952 79.63 8.662L79.6499 8.582C79.7699 8.291 80.0299 8.11199 80.2699 7.98399C80.3999 7.91799 80.5299 7.859 80.6599 7.804C80.7899 7.748 80.9199 7.69599 81.0399 7.63899C81.2799 7.52399 81.4599 7.40899 81.5599 7.26799C81.6499 7.14399 81.7 6.96899 81.62 6.67299L81.61 6.575C81.79 5.228 81.78 3.94 80.96 2.89799L80.95 2.87799C80.74 2.55099 80.6499 2.23399 80.6699 1.93199C80.6999 1.62999 80.8299 1.373 81.0199 1.159C81.3799 0.740997 81.9599 0.451 82.4399 0.25L82.7 0.292999Z" stroke="white" stroke-width="0.5" stroke-linejoin="round"/>
</svg>
