<svg width="124" height="75" viewBox="0 0 124 75" fill="none" xmlns="http://www.w3.org/2000/svg">
<path d="M17.769 21.7546C17.995 21.6646 18.2701 21.6696 18.6031 21.7526L18.748 22.1366C18.653 22.2746 18.588 22.3826 18.544 22.4646C18.597 22.4526 18.6591 22.4436 18.7281 22.4276C18.8441 22.4016 18.982 22.3716 19.114 22.3596C19.241 22.3486 19.4011 22.3506 19.5421 22.4186C19.7041 22.4966 19.805 22.6436 19.833 22.8356C19.858 23.0046 19.825 23.2076 19.751 23.4436C19.713 23.7316 19.609 24.0196 19.496 24.2876C19.373 24.5796 19.251 24.8276 19.147 25.0966C18.943 25.6226 18.896 26.0246 19.194 26.3746L19.2151 26.6736C18.9031 27.1526 18.882 27.5846 18.925 28.0496C18.967 28.5006 19.086 29.0526 18.983 29.6246L18.963 29.6886C18.849 29.9246 18.7491 30.2126 18.6371 30.5306C18.5271 30.8416 18.4051 31.1776 18.2491 31.4796C18.0931 31.7816 17.8951 32.0706 17.6201 32.2736C17.3761 32.4546 17.084 32.5596 16.735 32.5616C16.648 32.7186 16.5631 32.8806 16.4691 33.0526C16.3531 33.2656 16.225 33.4836 16.074 33.6736C16.015 33.7496 15.9491 33.8206 15.8791 33.8866C15.9191 33.9026 15.959 33.9156 15.997 33.9306C16.28 34.0456 16.497 34.1507 16.708 34.2257C16.753 34.2417 16.794 34.2536 16.83 34.2636C16.814 34.1866 16.803 34.1156 16.802 34.0496C16.799 33.8906 16.841 33.7226 16.98 33.6116C17.112 33.5056 17.275 33.5007 17.399 33.5187C17.526 33.5377 17.66 33.5886 17.783 33.6506C18.032 33.7746 18.295 33.9707 18.494 34.1697C18.591 34.2657 18.678 34.3696 18.743 34.4726C19.345 34.4056 19.905 34.1576 20.557 33.9496C21.187 33.7486 21.8721 33.6026 22.6161 33.8256C24.4241 34.1236 26.296 34.3956 28.035 34.0516C28.278 33.9766 28.513 33.8786 28.759 33.7786C29.002 33.6796 29.2581 33.5786 29.5161 33.5176C29.7771 33.4566 30.0511 33.4326 30.3351 33.4946C30.5931 33.5506 30.845 33.6756 31.092 33.8826C31.617 33.8776 32.153 33.8306 32.701 33.7756C33.276 33.7186 33.867 33.6546 34.451 33.6326C35.624 33.5906 36.81 33.7186 37.906 34.4396L37.994 34.7566C37.737 35.2986 37.7821 35.7216 37.9821 36.0116C38.1891 36.3106 38.602 36.5306 39.208 36.5686C39.713 36.5356 40.3941 36.7316 40.8521 37.0346C41.0841 37.1886 41.302 37.3996 41.377 37.6656C41.411 37.7866 41.411 37.9056 41.382 38.0206L41.476 38.0526C42.121 39.1076 42.1621 40.2767 41.8791 41.3767C41.6031 42.4507 41.014 43.4716 40.358 44.2956C40.178 45.1176 40.207 45.9536 40.209 46.8316C40.211 47.7076 40.1841 48.6176 39.8531 49.5116L39.66 50.2736C39.244 52.0426 39.023 53.8747 39.263 55.6437C39.412 55.8647 39.5461 56.1266 39.6411 56.3926C39.7241 56.6266 39.7791 56.8746 39.7881 57.1076L39.907 57.1036C41.059 58.1516 41.901 59.4626 42.802 60.6276C43.339 60.8566 43.7 61.2746 44.017 61.6746C44.316 62.0536 44.575 62.4116 44.916 62.6866L45.067 62.7996L45.106 62.8326C45.173 62.9026 45.23 62.9656 45.274 63.0236C45.281 63.0336 45.287 63.0446 45.294 63.0546L45.3141 63.0526C46.4831 63.4306 47.047 64.5236 47.023 65.6536C47.371 65.8966 47.799 65.9136 48.263 65.8576C48.387 65.8426 48.51 65.8227 48.632 65.8027C48.753 65.7837 48.877 65.7627 48.992 65.7467C49.159 65.7237 49.339 65.7066 49.505 65.7246L49.6671 65.7566L49.799 65.8496C50.139 66.3196 50.708 66.5356 51.349 66.5466C51.99 66.5566 52.665 66.3566 53.157 66.0466L53.1841 66.0326C53.4361 65.9116 53.6831 65.7666 53.9391 65.6126C54.1911 65.4606 54.453 65.2996 54.722 65.1576C55.239 64.8846 55.808 64.6706 56.463 64.7046C56.939 64.4366 57.403 64.0746 57.902 63.7196C58.409 63.3606 58.951 63.0116 59.528 62.8606L59.66 62.8626C60.739 63.1676 61.699 63.3146 62.657 63.5386C65.426 63.4586 68.32 65.3766 69.105 68.0886C69.508 68.3646 69.8571 68.8716 70.0981 69.3536C70.2301 69.6186 70.336 69.8877 70.406 70.1307C70.474 70.3647 70.515 70.6006 70.493 70.7846L70.265 71.0046C70.259 71.0046 70.226 71.0116 70.164 71.0636C70.104 71.1146 70.034 71.1916 69.957 71.2936C69.796 71.5046 69.648 71.7516 69.467 72.0126C69.381 72.1366 69.29 72.2596 69.195 72.3656C69.103 72.4686 68.9951 72.5686 68.8741 72.6336C68.7481 72.7016 68.5941 72.7387 68.4301 72.6907C68.2721 72.6447 68.145 72.5316 68.041 72.3886L68.023 72.3596C68.016 72.3476 68.008 72.3366 68.002 72.3266C67.981 72.3786 67.96 72.4416 67.937 72.5136C67.87 72.7216 67.788 73.0116 67.69 73.2666C67.603 73.4906 67.484 73.7337 67.313 73.9067C67.27 74.0707 67.221 74.2076 67.156 74.3046C67.118 74.3626 67.059 74.4286 66.974 74.4656C66.878 74.5076 66.7791 74.4996 66.6971 74.4646C66.6251 74.4326 66.57 74.3806 66.531 74.3366C66.491 74.2906 66.455 74.2376 66.423 74.1836C66.359 74.0766 66.297 73.9427 66.237 73.8027C66.177 73.6617 66.1161 73.5046 66.0551 73.3496C65.9931 73.1936 65.932 73.0376 65.869 72.8916C65.806 72.7456 65.7451 72.6136 65.6841 72.5076C65.6211 72.3966 65.568 72.3276 65.528 72.2936L65.485 72.2446C65.238 71.8716 64.859 71.2696 64.733 70.7096C64.67 70.4266 64.663 70.1156 64.808 69.8446C64.957 69.5656 65.239 69.3817 65.638 69.2947L65.7281 69.2906C66.0341 69.3346 66.279 69.3786 66.466 69.4126C66.357 69.2606 66.223 69.0646 66.079 68.8166L66.045 68.6796C66.047 68.6246 66.044 68.5867 66.041 68.5617C65.991 68.5737 65.9201 68.5996 65.8231 68.6446C65.7691 68.6706 65.711 68.6987 65.649 68.7297C65.588 68.7597 65.5231 68.7937 65.4561 68.8247C65.3241 68.8867 65.176 68.9497 65.026 68.9887C64.878 69.0277 64.71 69.0487 64.543 69.0097C64.171 68.9237 63.952 68.5897 63.86 68.0617L63.8571 68.0227C63.8531 67.7737 63.803 67.6036 63.735 67.4856C63.669 67.3696 63.5761 67.2876 63.4651 67.2276C63.2251 67.0986 62.927 67.0766 62.625 67.0376L62.427 66.8847C62.21 66.3607 61.705 66.0946 61.095 66.0496C60.481 66.0036 59.8131 66.1906 59.3651 66.5126L59.2191 66.5596C58.8751 66.5596 58.759 66.6576 58.703 66.7416C58.627 66.8576 58.605 67.0286 58.582 67.2886C58.562 67.5166 58.541 67.8256 58.401 68.0796C58.252 68.3496 57.9891 68.5266 57.5811 68.5836C57.3631 68.7296 57.106 68.8316 56.862 68.9146C56.583 69.0086 56.3301 69.0796 56.0941 69.1766C55.8621 69.2726 55.6921 69.3776 55.5851 69.5086C55.4911 69.6256 55.429 69.7856 55.45 70.0366C55.538 70.2456 55.689 70.4366 55.886 70.6316C56.098 70.8406 56.327 71.0226 56.574 71.2446C57.044 71.6656 57.531 72.1906 57.471 72.9956L57.194 73.2246C56.687 73.1716 56.323 73.3786 55.899 73.6536C55.494 73.9166 55.02 74.2506 54.364 74.2876C53.955 74.3836 53.628 74.3856 53.372 74.2676C53.102 74.1436 52.968 73.9136 52.886 73.6836C52.809 73.4676 52.761 73.1936 52.708 72.9676C52.651 72.7256 52.581 72.4966 52.455 72.2936L52.431 72.2396C52.35 71.9916 52.2801 71.8076 52.2191 71.6746C52.1801 71.5916 52.1461 71.5347 52.1201 71.4967C52.0941 71.5307 52.061 71.5746 52.024 71.6326C51.978 71.7046 51.919 71.7986 51.858 71.8856C51.74 72.0556 51.567 72.2696 51.316 72.3596L51.208 72.3726C50.424 72.2946 49.984 71.8376 49.688 71.3426C49.543 71.1016 49.4271 70.8416 49.3221 70.6166C49.2391 70.4366 49.1641 70.2806 49.0851 70.1516C47.9121 70.2076 46.7361 69.8926 45.7531 69.3526L45.738 69.3436C45.55 69.2236 45.337 69.2147 45.099 69.2857C44.855 69.3587 44.6031 69.5117 44.3741 69.6867C44.1471 69.8597 43.956 70.0426 43.826 70.1646C43.795 70.1936 43.764 70.2216 43.738 70.2446C43.717 70.2636 43.684 70.2917 43.651 70.3117C43.642 70.3177 43.627 70.3266 43.608 70.3346C43.599 70.3376 43.583 70.3436 43.562 70.3476C43.547 70.3516 43.5321 70.3526 43.5161 70.3536C43.5141 70.3536 43.512 70.3547 43.511 70.3547C43.509 70.3547 43.507 70.3536 43.506 70.3536C43.495 70.3536 43.4841 70.3566 43.4731 70.3556C43.3751 70.3456 43.318 70.2846 43.299 70.2616C43.262 70.2176 43.243 70.1646 43.237 70.1486C43.17 69.9666 43.082 69.5237 42.695 69.0657L42.657 68.8027C42.815 68.4447 42.631 68.0006 42.29 67.6946C42.125 67.5466 41.953 67.4626 41.825 67.4436C41.814 67.4416 41.804 67.4426 41.794 67.4416C42.022 67.6816 42.1701 67.8996 42.2321 68.0936C42.2731 68.2246 42.282 68.3666 42.225 68.4996C42.166 68.6346 42.055 68.7187 41.938 68.7647C41.719 68.8507 41.4331 68.8226 41.1581 68.7446C40.8721 68.6626 40.5541 68.5126 40.2491 68.2976L40.19 68.2376C39.981 67.9436 39.969 67.6396 40.032 67.3616C40.091 67.1026 40.2251 66.8356 40.3181 66.6206C40.4201 66.3866 40.4861 66.1946 40.4821 66.0176C40.4771 65.8596 40.415 65.6846 40.186 65.4856L40.181 65.4806C39.809 65.1396 39.329 64.9196 38.816 64.6936C38.352 64.4886 37.85 64.2726 37.453 63.9476C36.834 63.9756 36.264 63.7826 35.86 63.4096C35.455 63.0346 35.234 62.4936 35.291 61.8686C35.027 61.5636 34.653 61.3396 34.221 61.1096C33.911 60.9446 33.569 60.7736 33.248 60.5686C33.302 60.6606 33.372 60.7626 33.458 60.8676C33.615 61.0586 33.807 61.2436 34.001 61.3806C34.2 61.5216 34.3741 61.5936 34.4991 61.5996L34.735 61.8507C34.731 62.4837 34.381 63.0306 33.882 63.2096C33.627 63.3006 33.344 63.2896 33.078 63.1496C32.838 63.0226 32.627 62.7986 32.459 62.4816C31.928 62.2656 31.296 62.0106 30.799 61.6306C30.266 61.2226 29.8671 60.6556 29.8871 59.8286C29.8261 59.4956 29.9571 59.1946 30.1111 58.9516C30.2661 58.7076 30.494 58.4516 30.636 58.2656C30.713 58.1646 30.771 58.0786 30.808 58.0026C30.845 57.9266 30.851 57.8776 30.849 57.8476C30.845 57.8146 30.815 57.6986 30.451 57.5556C30.214 57.4936 30.009 57.3666 29.972 57.1206C29.956 57.0126 29.979 56.9137 30.006 56.8377C30.034 56.7607 30.073 56.6856 30.108 56.6246C30.131 56.5826 30.1491 56.5496 30.1671 56.5176L29.815 56.4766C29.312 55.4866 28.558 54.6886 27.737 53.8996C26.929 53.1226 26.045 52.3456 25.336 51.4256L24.9131 50.9616C23.9061 49.8996 22.758 48.9976 21.532 48.1886L21.455 48.1086C21.363 47.9536 21.3 47.7976 21.298 47.6446C21.296 47.4746 21.3701 47.3356 21.4911 47.2406C21.6001 47.1556 21.7361 47.1126 21.8611 47.0886C21.9911 47.0636 22.136 47.0526 22.28 47.0486C22.344 47.0466 22.409 47.0476 22.475 47.0486C22.358 46.6806 22.114 46.3776 21.828 46.0746C21.657 45.8926 21.458 45.6966 21.295 45.5056C21.271 45.4766 21.248 45.4476 21.225 45.4186C21.172 45.5246 21.114 45.6506 21.04 45.7996C20.934 46.0166 20.801 46.2616 20.625 46.4696C20.448 46.6806 20.217 46.8676 19.912 46.9446C19.615 47.0196 19.2801 46.9816 18.9041 46.8156C16.7471 46.5236 14.652 45.8786 12.608 45.1716L10.571 44.4506C10.344 44.3696 10.166 44.2516 10.054 44.0986L10.0421 44.1086C8.79705 43.6356 7.69906 43.0946 6.46506 43.3486L6.44104 43.3526C5.22304 43.4816 4.17005 43.0756 3.22705 42.4906C2.29505 41.9126 1.42606 41.1286 0.616057 40.5036L0.528044 40.3716C0.377044 39.8206 0.374042 39.2406 0.407042 38.7236C0.424042 38.4656 0.451028 38.2166 0.474028 37.9946C0.493028 37.8116 0.507043 37.6476 0.515043 37.5056C0.297043 37.2506 0.222031 36.9707 0.259031 36.6827C0.297031 36.3827 0.455029 36.0966 0.625029 35.8406C0.791029 35.5926 1.01403 35.3136 1.17703 35.0866C1.35303 34.8396 1.48403 34.6216 1.53903 34.4236V34.4226C1.75003 33.6916 2.14405 33.2256 2.68405 32.9836C3.20405 32.7506 3.82603 32.7416 4.47503 32.8406C5.76703 32.8376 7.06205 32.8486 8.35205 32.8516C8.53105 32.5706 8.59803 32.3767 8.60803 32.2387C8.61703 32.0987 8.57103 31.9896 8.47003 31.8726C8.35803 31.7426 8.19906 31.6247 7.99106 31.4627C7.79306 31.3077 7.56504 31.1216 7.36804 30.8776L7.31604 30.7606C7.27004 30.4786 7.15505 30.2946 7.00305 30.1546C6.84305 30.0076 6.63504 29.9016 6.38504 29.7916C5.92704 29.5896 5.29803 29.3746 4.95303 28.7776C4.64503 28.5486 4.40505 28.3666 4.24805 28.2236C4.16805 28.1506 4.09404 28.0746 4.04504 27.9976C4.00004 27.9266 3.93203 27.7826 4.01303 27.6306C4.08203 27.4996 4.21704 27.4546 4.29004 27.4356C4.37804 27.4136 4.48605 27.4016 4.60205 27.3956C4.83505 27.3836 5.16403 27.3876 5.57803 27.3946C5.67103 27.3936 5.71105 27.3706 5.73105 27.3516C5.75505 27.3286 5.78304 27.2836 5.80304 27.1926C5.84504 26.9996 5.82403 26.7236 5.79303 26.3906C5.76503 26.0846 5.72703 25.7226 5.77603 25.4366C5.80203 25.2896 5.85403 25.1336 5.96603 25.0096C6.08403 24.8796 6.24606 24.8096 6.43506 24.7986H6.45004C9.09504 24.8056 11.739 24.8116 14.384 24.8186C14.381 24.6766 14.381 24.5336 14.376 24.3916L14.617 24.1326C14.921 24.1226 15.191 24.1566 15.416 24.1836C15.65 24.2126 15.8201 24.2306 15.9691 24.2116C16.1021 24.1936 16.217 24.1456 16.333 24.0246C16.457 23.8956 16.5911 23.6747 16.7321 23.2947L16.778 23.2156C16.902 23.0756 16.986 22.9136 17.062 22.7366C17.131 22.5746 17.208 22.3626 17.298 22.1986C17.396 22.0216 17.535 21.8466 17.769 21.7546ZM87.39 15.4436C88.685 14.8706 89.986 14.9967 91.239 15.2647C91.859 15.3977 92.4981 15.5726 93.1031 15.7156C93.6941 15.8556 94.274 15.9686 94.847 16.0076C94.865 15.9946 94.8871 15.9816 94.9081 15.9666C94.9561 15.9346 95.0111 15.8966 95.0471 15.8736C95.0561 15.8676 95.0671 15.8606 95.0771 15.8546C95.0821 15.8516 95.0901 15.8476 95.0981 15.8436C95.1031 15.8416 95.121 15.8326 95.144 15.8266C95.153 15.8236 95.181 15.8166 95.218 15.8166C95.223 15.8166 95.23 15.8197 95.239 15.8207C95.303 15.7297 95.379 15.6467 95.471 15.5747C95.685 15.4057 95.9591 15.3157 96.2921 15.3077L96.438 15.3096L96.5811 15.3626C96.9671 15.6656 97.381 15.5866 97.905 15.4166C98.152 15.3366 98.435 15.2316 98.705 15.1816C98.948 15.1366 99.2091 15.1286 99.4651 15.2246L99.574 15.2726L99.648 15.3296C99.96 15.6756 100.413 15.9046 100.928 16.0596C101.42 16.2086 101.949 16.2836 102.432 16.3396C102.771 16.1926 103.068 16.1726 103.334 16.2766C103.605 16.3826 103.795 16.5996 103.946 16.8086C104.023 16.9146 104.097 17.0296 104.167 17.1366C104.239 17.2466 104.308 17.3516 104.382 17.4496C104.53 17.6456 104.685 17.7966 104.875 17.8826L104.905 17.8996C105.797 18.4606 106.846 18.7526 107.917 19.1466C108.966 19.5326 110.015 20.0136 110.792 20.9566C111.034 21.1686 111.079 21.4706 111.033 21.7466C110.986 22.0306 110.841 22.3256 110.661 22.5826C110.48 22.8406 110.251 23.0796 110.014 23.2456C109.789 23.4026 109.501 23.5336 109.225 23.4666L109.093 23.3866C108.728 22.9636 108.4 22.5596 108.013 22.2996C107.646 22.0546 107.235 21.9466 106.689 22.1306L106.638 22.1416C106.309 22.1796 105.975 22.1576 105.657 22.1256C105.331 22.0926 105.033 22.0506 104.732 22.0366C104.15 22.0096 103.648 22.0936 103.224 22.5546C102.779 23.1046 102.166 23.3516 101.591 23.2556C101.062 23.1666 100.611 22.7956 100.382 22.1986C99.958 22.2336 99.5091 22.3736 99.1371 22.6096C98.7131 22.8776 98.4031 23.2606 98.3141 23.7436L98.29 23.8116C98.194 23.9996 98.092 24.2387 97.949 24.5317C97.815 24.8077 97.656 25.1066 97.476 25.3416C97.306 25.5646 97.067 25.7966 96.76 25.8136C96.428 25.8316 96.159 25.5976 95.94 25.2356L95.938 25.2316C95.782 24.9636 95.6031 24.6736 95.4481 24.3966L95.4261 24.3406C95.3741 24.3206 95.326 24.2896 95.29 24.2636C95.211 24.2066 95.115 24.1206 95.018 24.0336C94.813 23.8496 94.573 23.6266 94.33 23.4606C94.209 23.3776 94.096 23.3156 93.996 23.2786C93.895 23.2416 93.823 23.2366 93.773 23.2476L93.738 23.2526C93.327 23.2826 92.9111 23.3286 92.4861 23.3736C92.0641 23.4186 91.632 23.4626 91.2 23.4846C90.341 23.5286 89.463 23.4886 88.597 23.2046C87.511 22.9786 86.374 23.0256 85.772 23.9076L85.442 23.9846C85.218 23.8586 84.968 23.7446 84.701 23.6256C84.439 23.5076 84.16 23.3836 83.898 23.2416C83.372 22.9566 82.8701 22.5756 82.6241 21.9476L82.61 21.8126C82.68 21.4186 82.867 21.1476 83.149 20.9916C83.414 20.8446 83.73 20.8196 84.027 20.8336C84.327 20.8466 84.648 20.9026 84.932 20.9466C85.226 20.9926 85.4771 21.0256 85.6761 21.0126L85.725 21.0136C86.311 21.0896 86.9071 21.2046 87.4951 21.3136C88.0871 21.4236 88.6731 21.5266 89.2531 21.5836C90.3261 21.6876 91.357 21.6286 92.325 21.1636C92.279 21.1176 92.2171 21.0646 92.1331 21.0066C91.9331 20.8676 91.703 20.7456 91.437 20.5816C91.187 20.4276 90.9201 20.2436 90.7281 20.0096C90.5281 19.7676 90.404 19.4656 90.454 19.0946L90.487 19.0006C90.755 18.5526 90.7841 18.0816 90.6331 17.7336C90.4861 17.3966 90.154 17.1346 89.606 17.1176L89.565 17.1126C89.406 17.0806 89.162 17.0567 88.862 17.0187C88.575 16.9827 88.248 16.9336 87.962 16.8526C87.689 16.7756 87.392 16.6546 87.226 16.4316C87.136 16.3116 87.088 16.1646 87.101 16.0006C87.113 15.8426 87.1791 15.6847 87.2831 15.5317L87.39 15.4436ZM65.596 21.9926C66.564 21.6556 67.575 21.6716 68.558 21.8346C69.292 21.9566 70.023 22.1637 70.717 22.3767L71.398 22.5877L71.436 22.6016C71.655 22.7116 71.918 22.8026 72.207 22.8966C72.49 22.9886 72.801 23.0846 73.091 23.1996C73.664 23.4276 74.2451 23.7676 74.4431 24.4346L74.415 24.6397C74.317 24.7957 74.198 24.9146 74.058 24.9946C73.918 25.0736 73.769 25.1066 73.622 25.1086C73.34 25.1116 73.0481 25.0017 72.7921 24.8937C72.5181 24.7777 72.276 24.6596 72.031 24.5856C71.792 24.5126 71.598 24.5006 71.436 24.5626L71.304 24.5756C71.156 24.5496 71.05 24.5736 70.961 24.6186C70.862 24.6686 70.7711 24.7496 70.6581 24.8606C70.4501 25.0656 70.162 25.3956 69.674 25.4366L69.608 25.4336C68.549 25.2446 67.3571 24.9696 66.6241 23.9786L66.527 23.8886C66.413 23.7996 66.244 23.7096 66.035 23.6186C65.901 23.5596 65.7621 23.5056 65.6241 23.4496C65.4891 23.3946 65.3521 23.3386 65.2321 23.2806C65.1171 23.2236 64.996 23.1547 64.907 23.0707C64.817 22.9847 64.721 22.8436 64.755 22.6596C64.785 22.4966 64.907 22.3766 65.03 22.2876C65.162 22.1926 65.3451 22.0976 65.5811 21.9986L65.596 21.9926ZM117.491 21.5406C117.634 21.5526 117.782 21.5736 117.924 21.5936C118.068 21.6146 118.207 21.6336 118.341 21.6486C118.617 21.6786 118.831 21.6806 118.98 21.6316L119.107 21.6236C119.429 21.6876 119.78 21.7076 120.152 21.7156C120.517 21.7246 120.914 21.7236 121.292 21.7476C122.053 21.7956 122.837 21.9506 123.432 22.5686L123.491 22.8106C123.106 24.1546 121.759 24.8106 120.46 24.3926C119.576 24.2876 118.626 24.3536 117.908 24.7966L117.809 24.8316C117.38 24.8856 117.041 24.8406 116.787 24.6786C116.529 24.5136 116.406 24.2577 116.344 24.0017C116.283 23.7507 116.273 23.4646 116.263 23.2076C116.252 22.9386 116.241 22.6927 116.193 22.4757L116.189 22.4056C116.2 22.2236 116.243 22.0626 116.325 21.9276C116.409 21.7916 116.525 21.6956 116.657 21.6326C116.908 21.5146 117.216 21.5166 117.491 21.5406ZM94.9691 16.0426C94.9651 16.0846 94.967 16.1466 95.009 16.2086C95.019 16.2236 95.031 16.2366 95.043 16.2476C95.055 16.2056 95.068 16.1636 95.083 16.1236C95.066 16.1026 95.047 16.0846 95.024 16.0696C95.005 16.0566 94.9861 16.0486 94.9691 16.0426ZM94.9521 16.1186C94.9531 16.1016 94.953 16.0836 94.954 16.0666L94.9651 16.0406C94.9481 16.0346 94.932 16.0326 94.92 16.0306L94.919 16.0296L94.9521 16.1186ZM95.0031 15.9336C94.9981 15.9416 94.985 15.9636 94.976 15.9946C94.974 16.0006 94.973 16.0136 94.971 16.0296L95.0291 15.9006C95.0251 15.9046 95.0141 15.9176 95.0031 15.9336ZM46.675 0.405644C47.585 0.278644 48.5211 0.183629 49.4821 0.308629C50.2621 0.219629 51.024 0.337642 51.756 0.478642C52.415 0.605642 53.044 0.748649 53.677 0.798649L53.9481 0.813633L54.049 0.838627C54.574 1.09263 55.1491 1.20362 55.7541 1.29062C56.3471 1.37562 56.985 1.43964 57.574 1.61264L57.617 1.62964C57.996 1.82164 58.336 2.07164 58.655 2.33164C58.815 2.46064 58.972 2.59563 59.125 2.72663C59.279 2.85863 59.4321 2.98763 59.5851 3.11063C60.1611 3.57363 60.7381 3.93564 61.4651 3.99964L61.612 4.00763L61.639 4.01062C64.191 4.36862 66.8851 5.13065 68.9211 6.82865L68.996 6.93464C69.303 7.76664 70.046 8.09263 70.923 8.17563L71.307 8.19764L71.3741 8.20862C73.0861 8.72962 74.7411 9.31065 76.4771 9.53565L76.825 9.57563L76.856 9.58063C77.081 9.63163 77.2651 9.71363 77.3961 9.83863C77.5331 9.97063 77.592 10.1326 77.596 10.2966C77.599 10.4496 77.555 10.6006 77.505 10.7296C77.454 10.8596 77.3881 10.9916 77.3311 11.1056C77.2711 11.2256 77.222 11.3256 77.191 11.4136C77.159 11.5046 77.162 11.5456 77.164 11.5566C77.167 11.5596 77.177 11.5686 77.204 11.5806C77.269 11.6076 77.396 11.6336 77.619 11.6326L77.649 11.6346C77.967 11.6716 78.3021 11.6626 78.6541 11.6446C79.0001 11.6276 79.3701 11.6006 79.7281 11.6056C80.4511 11.6176 81.1891 11.7626 81.7961 12.4126L81.901 12.5066C82.02 12.5996 82.174 12.6926 82.355 12.7876C82.597 12.9136 82.8541 13.0276 83.1161 13.1546C83.3681 13.2766 83.623 13.4097 83.816 13.5617C84.004 13.7107 84.1861 13.9206 84.1851 14.2036L83.9781 14.4486C83.6121 14.5126 83.244 14.5626 82.882 14.6126C82.518 14.6626 82.158 14.7116 81.803 14.7726C81.092 14.8956 80.408 15.0686 79.763 15.3876L79.737 15.3986C78.555 15.8326 77.3611 15.6186 76.2401 15.4136C75.0971 15.2046 74.025 15.0046 72.968 15.3456L72.932 15.3546C71.336 15.6196 69.592 16.0466 67.892 15.7156L67.733 15.3286C68.135 14.7416 68.734 14.3126 69.224 13.9036C69.695 13.5106 70.082 13.1226 70.272 12.5976C69.633 11.8516 68.739 11.7486 67.701 11.7046C66.655 11.6596 65.438 11.6796 64.493 10.9146V10.9136C63.979 10.5556 63.864 9.93265 63.772 9.41465C63.672 8.85365 63.592 8.37462 63.282 8.04062C62.721 7.66962 62.056 7.67563 61.287 7.73563C60.545 7.79363 59.692 7.90565 58.911 7.62165C57.658 7.41865 56.53 6.80964 55.445 6.29264C54.338 5.76364 53.2591 5.32163 52.0421 5.37363L52.03 5.37464V5.37363C50.247 5.36563 48.516 5.14062 46.893 4.27762L46.949 3.81363C47.137 3.76663 47.4401 3.71563 47.7361 3.65863C48.0441 3.59863 48.3611 3.52964 48.6111 3.44364C48.7361 3.40064 48.8351 3.35663 48.9041 3.31363C48.9541 3.28263 48.975 3.25862 48.984 3.24762C48.983 3.24362 48.9811 3.23865 48.9781 3.23365C48.9511 3.19265 48.8871 3.12563 48.7541 3.03763C48.1641 2.83163 47.5331 2.76964 46.8781 2.76264C46.5461 2.75964 46.2111 2.76965 45.8741 2.78165C45.5441 2.79265 45.2101 2.80464 44.8831 2.80564C44.0361 2.86364 43.4101 3.44864 42.6721 4.05964C41.9621 4.64764 41.1491 5.24864 40.0161 5.02164L39.9901 5.01563C39.6771 4.91863 39.485 4.95064 39.349 5.02164C39.2 5.09964 39.0761 5.24565 38.9391 5.45765C38.8151 5.64765 38.661 5.92863 38.494 6.14963C38.317 6.38463 38.0881 6.60963 37.7581 6.73063L37.6931 6.74564C37.5351 6.75864 37.2671 6.81365 36.9481 6.87665C36.6421 6.93665 36.296 7.00263 36.013 7.02863C35.872 7.04163 35.731 7.04665 35.612 7.03165C35.513 7.01865 35.3371 6.98063 35.2451 6.82563C35.1411 6.64963 35.221 6.46762 35.29 6.35962C35.367 6.23862 35.4951 6.10364 35.6671 5.95264L35.781 5.89463C36.158 5.81563 36.3 5.68565 36.364 5.57065C36.438 5.43865 36.4491 5.26164 36.4351 5.00464C36.4221 4.77064 36.3851 4.45764 36.4301 4.16764C36.4781 3.85564 36.619 3.54963 36.955 3.30463L36.962 3.29963C39.019 1.91263 41.4891 1.12963 43.9001 0.70963L43.941 0.706639C44.853 0.693639 45.746 0.534644 46.675 0.405644Z" fill="#718FD5" stroke="white" stroke-width="0.5" stroke-linejoin="round"/>
</svg>
