<svg width="73" height="83" viewBox="0 0 73 83" fill="none" xmlns="http://www.w3.org/2000/svg">
<path d="M19.388 0.251749C19.688 0.242749 20.024 0.263744 20.272 0.427744C20.404 0.514744 20.507 0.639758 20.565 0.804758C20.618 0.957758 20.627 1.13377 20.602 1.32777C20.615 1.94977 20.567 2.58776 20.513 3.21876C20.458 3.85976 20.397 4.49375 20.381 5.11875C20.35 6.36475 20.501 7.53777 21.221 8.57377L21.691 9.18077C22.806 10.5748 24.111 11.8748 25.606 12.7538C26.243 12.8968 26.892 12.8498 27.604 12.8598C28.299 12.8698 29.027 12.9388 29.711 13.3598C30.466 13.5438 31.063 13.9808 31.609 14.3998C32.17 14.8298 32.673 15.2328 33.278 15.4418C33.529 15.4438 33.835 15.4358 34.096 15.4418C34.385 15.4488 34.683 15.4718 34.957 15.5478C35.234 15.6238 35.495 15.7568 35.702 15.9868C35.902 16.2098 36.034 16.5068 36.092 16.8868C36.331 17.4698 36.779 17.7618 37.329 17.8878C37.898 18.0168 38.562 17.9648 39.171 17.8598L39.217 17.8568C40.481 17.8738 42.039 18.0997 43.098 18.9707L43.303 19.1528L43.379 19.3247C43.412 20.4667 43.499 21.6528 43.808 22.7768L43.817 22.8247C43.866 23.4717 43.894 24.1217 43.921 24.7687C43.948 25.4157 43.973 26.0608 44.019 26.7008C44.107 27.9448 44.268 29.1628 44.642 30.3388C45.115 30.5478 45.661 30.5928 46.262 30.5898C46.879 30.5868 47.576 30.5328 48.208 30.6098C49.308 30.6258 50.416 30.6278 51.525 30.6558L52.639 30.6948L52.87 30.8858C52.96 31.2508 52.921 31.6187 52.845 31.9627C52.771 32.2967 52.648 32.6568 52.563 32.9618C52.394 33.5658 52.339 34.0508 52.686 34.4728L52.761 34.5568L52.773 34.5688C52.962 34.7948 53.201 34.9728 53.471 35.1358C53.752 35.3058 54.023 35.4367 54.328 35.6087C54.902 35.9327 55.477 36.3448 55.7 37.1528C56.32 38.2528 56.388 39.4338 56.24 40.5908C56.092 41.7468 55.72 42.9198 55.446 43.9728L55.432 44.0148C54.966 45.0138 54.441 45.9838 53.825 46.9048C54.176 47.2978 54.409 47.7968 54.407 48.4608L54.438 48.6858C54.537 49.2008 54.838 49.6578 55.15 50.1888C55.491 50.7678 55.833 51.4228 55.717 52.2398C55.783 53.1828 55.639 54.1167 55.505 55.0187C55.379 55.8647 55.264 56.6858 55.311 57.5088C56.135 57.5598 56.939 57.7668 57.707 57.9528C58.533 58.1528 59.325 58.3248 60.124 58.2928C60.567 57.9618 61.052 57.6658 61.57 57.5498C62.124 57.4258 62.699 57.5108 63.269 57.9298C63.468 58.0428 63.702 58.1368 63.959 58.2358C64.212 58.3348 64.489 58.4388 64.738 58.5698C64.989 58.7018 65.23 58.8708 65.408 59.1058C65.585 59.3398 65.688 59.6258 65.694 59.9778C65.961 61.0488 66.106 62.1728 66.298 63.2378C66.487 64.2848 66.726 65.2957 67.168 66.2337C67.416 66.2807 67.681 66.2427 67.971 66.1527C68.312 66.0477 68.639 65.8878 69.01 65.7378C69.364 65.5948 69.749 65.4647 70.137 65.4717C70.526 65.4777 70.899 65.6228 71.239 65.9738C71.589 66.1318 71.803 66.3618 71.868 66.6638C71.932 66.9558 71.843 67.2597 71.733 67.5227C71.622 67.7867 71.459 68.0748 71.336 68.3178C71.205 68.5778 71.113 68.7977 71.092 68.9797L71.077 69.0397C70.417 70.7757 69.886 72.5388 70.264 74.3308L70.27 74.3908C70.25 75.1008 70.053 75.7978 69.811 76.4618C69.689 76.7948 69.554 77.1238 69.422 77.4438C69.289 77.7658 69.16 78.0798 69.045 78.3878L69.018 78.4398C68.44 79.2948 67.584 79.8667 66.813 80.4267C66.026 80.9967 65.317 81.5607 64.908 82.4087L64.539 82.5058C64.063 82.1718 63.542 81.8488 63.02 81.7048C62.509 81.5648 62.01 81.5968 61.538 81.9588L61.452 82.0017C59.287 82.5987 57.044 82.2368 55.033 81.3888C54.394 81.2228 53.768 81.3797 53.085 81.5827C52.421 81.7797 51.685 82.0278 50.935 81.9208L50.724 81.6288C50.855 80.8958 51.475 80.4478 51.963 80.0788C52.222 79.8838 52.452 79.7068 52.627 79.5118C52.777 79.3438 52.876 79.1738 52.912 78.9818C52.535 78.3928 52.532 77.8117 52.727 77.2777C52.921 76.7437 53.31 76.2577 53.68 75.8417C53.835 75.5717 54.004 75.2998 54.168 75.0298C54.339 74.7498 54.508 74.4708 54.66 74.1878C54.939 73.6718 55.159 73.1538 55.25 72.6198C54.431 72.1148 53.543 71.7678 52.626 71.4248C51.671 71.0668 50.682 70.7088 49.761 70.1688L49.299 69.9248C48.842 69.6698 48.401 69.3848 47.97 69.0928C47.389 68.6998 46.832 68.3018 46.255 67.9348C45.107 67.2038 43.936 66.6358 42.556 66.6028L42.503 66.5957C40.865 66.2027 39.555 65.2488 38.393 64.1358C37.812 63.5788 37.263 62.9778 36.728 62.3838C36.191 61.7878 35.668 61.1998 35.132 60.6578L35.129 60.6548C34.72 60.2258 34.339 59.7457 33.97 59.2857C33.597 58.8217 33.236 58.3778 32.856 58.0008L32.833 57.9667L32.76 58.0048C31.05 57.6518 29.287 57.6307 27.516 57.6307C26.821 58.8287 26.127 60.0267 25.433 61.2257L24.981 61.1848C24.734 60.4928 24.519 59.7708 24.165 59.1708C23.819 58.5838 23.358 58.1468 22.636 58.0118H22.635C22.189 57.9248 21.714 57.9198 21.217 57.9438C20.969 57.9558 20.718 57.9747 20.464 57.9927C20.211 58.0107 19.954 58.0288 19.699 58.0368C18.689 58.0708 17.652 57.9658 16.786 57.1678C16.608 57.0428 16.473 57.0438 16.347 57.0938C16.195 57.1528 16.031 57.2938 15.846 57.5038C15.656 57.7188 15.492 57.9467 15.29 58.1907C15.111 58.4087 14.907 58.6298 14.679 58.7698C14.165 59.2378 13.691 59.7898 13.184 60.3368C12.679 60.8808 12.146 61.4158 11.541 61.8058L11.394 61.8457C11.163 61.8347 10.887 61.8528 10.573 61.8658C10.27 61.8788 9.938 61.8847 9.634 61.8417C9.332 61.7977 9.02398 61.6998 8.79498 61.4778C8.56398 61.2518 8.44799 60.9328 8.45499 60.5198C8.15899 58.9638 7.93398 57.3808 7.51398 55.8668C7.09298 54.3518 6.48298 52.9328 5.43198 51.7388L5.41998 51.7257C4.52398 50.5477 4.49299 49.0638 5.06299 47.7678C5.11799 47.4888 5.21798 47.1908 5.31198 46.9098C5.41098 46.6108 5.50499 46.3248 5.55399 46.0538C5.60199 45.7828 5.60098 45.5507 5.53098 45.3547C5.46498 45.1677 5.32498 44.9868 5.04398 44.8318L5.02698 44.8218C4.15798 44.2508 3.747 43.4268 3.504 42.5608C3.383 42.1308 3.302 41.6838 3.229 41.2488C3.155 40.8158 3.08898 40.3968 2.99698 39.9988C2.68298 39.1278 2.08399 38.4038 1.52499 37.5758C0.976994 36.7628 0.489976 35.8688 0.543976 34.7388L0.570984 34.6358C0.754984 34.2808 1.03399 33.9838 1.32199 33.7188C1.46699 33.5848 1.61898 33.4558 1.76498 33.3298C1.91198 33.2028 2.05398 33.0797 2.18698 32.9537C2.45398 32.7007 2.67 32.4508 2.797 32.1748C2.92 31.9078 2.96598 31.6057 2.87698 31.2297C2.77498 30.9007 2.604 30.5588 2.409 30.1928C2.217 29.8328 2.00199 29.4468 1.83899 29.0588C1.67499 28.6678 1.55398 28.2538 1.56198 27.8268C1.56898 27.3938 1.708 26.9628 2.035 26.5418L2.043 26.5308C2.214 26.3318 2.251 26.1428 2.224 25.9378C2.194 25.7148 2.08899 25.4768 1.95999 25.1928C1.72099 24.6678 1.37499 23.9608 1.85999 23.2438L1.879 23.2198C2.101 22.9648 2.37398 22.6838 2.61798 22.4158C2.86998 22.1398 3.10699 21.8597 3.29099 21.5707C3.65499 20.9997 3.797 20.4258 3.461 19.7938L3.44299 19.7528C2.74899 17.5848 3.35198 15.1858 4.58798 13.3658C3.37498 10.7248 1.741 8.27377 0.25 5.73277L0.470001 5.35575C1.338 5.37175 2.17299 5.59777 2.96799 5.81077C3.75899 6.02177 4.51099 6.21675 5.27499 6.22575C5.48899 6.15075 5.691 6.00975 5.901 5.82075C6.011 5.72175 6.11999 5.61377 6.23199 5.50077C6.34199 5.38977 6.457 5.27175 6.573 5.16075C6.806 4.93975 7.06799 4.72275 7.37399 4.59675C7.68199 4.46975 8.024 4.43877 8.409 4.56077C9.126 4.64177 9.73399 4.31876 10.356 3.83976C10.671 3.59676 10.97 3.32877 11.291 3.06077C11.602 2.80077 11.928 2.54576 12.275 2.34876C13.706 1.28376 15.366 0.280755 17.265 0.269755L17.649 0.281748L17.711 0.293772C17.877 0.348772 18.124 0.351769 18.437 0.327769C18.725 0.305769 19.085 0.260749 19.388 0.251749Z" fill="#718FD5" stroke="white" stroke-width="0.5" stroke-linejoin="round"/>
</svg>
