<svg width="142" height="85" viewBox="0 0 142 85" fill="none" xmlns="http://www.w3.org/2000/svg">
<path d="M11.1243 0.332001C11.7713 1.043 12.6292 1.41799 13.5802 1.71399C14.5062 2.00299 15.5633 2.22499 16.4783 2.62999C20.5083 3.92699 24.4852 5.36299 28.5592 6.40999C32.7603 6.40899 36.8973 6.612 41.0783 6.545C41.2293 6.499 41.3103 6.39299 41.3613 6.19899C41.4193 5.97399 41.4183 5.70999 41.4393 5.40599C41.4483 5.26299 41.4633 5.11299 41.4973 4.97499C41.5323 4.83799 41.5903 4.692 41.7023 4.577C41.9423 4.331 42.3003 4.332 42.7293 4.476C44.8973 4.51 47.1602 4.419 49.3382 4.621L49.7753 4.666L49.9162 4.73C51.4652 6.156 52.9312 7.668 54.7912 8.618L54.7962 8.621L55.0232 8.748C56.1402 9.402 57.0493 10.342 57.3633 11.69L57.4433 11.987C57.8483 13.356 58.6943 14.53 59.9583 15.165L60.2363 15.292L60.2553 15.301C61.1433 15.771 62.0533 16.346 63.0083 16.696C63.9353 17.035 64.8533 17.139 65.7503 16.716C66.2633 16.12 66.8132 15.422 67.4252 14.833C68.0562 14.225 68.7842 13.705 69.6712 13.493L69.7043 13.487C72.3513 13.223 75.1022 14.672 76.2482 17.117C77.7842 19.705 79.3713 22.27 81.7463 24.094L81.8302 24.21C81.9802 24.643 82.1163 25.103 82.2543 25.558C82.3943 26.016 82.5383 26.472 82.7113 26.912C83.0513 27.775 83.4962 28.552 84.2012 29.122C85.0462 29.315 85.8093 29.682 86.5403 30.057C87.2663 30.429 87.9542 30.803 88.6882 31.059C89.4652 30.689 90.1573 30.825 90.7923 31.082C91.1153 31.212 91.4422 31.38 91.7482 31.526C92.0622 31.675 92.3673 31.806 92.6823 31.884L92.8593 32.207C92.5353 33.177 91.9673 34.042 91.4973 34.875C91.0203 35.72 90.6283 36.552 90.5813 37.518L90.5752 37.562C90.2692 38.911 90.2662 40.286 90.2742 41.693C90.2812 43.085 90.2993 44.511 90.0223 45.922C89.8623 47.389 90.0703 48.801 90.6033 50.169L90.7142 50.442L90.7262 50.478C91.2842 52.667 92.2513 54.706 93.8073 56.339C94.2923 56.799 94.5893 57.372 94.8753 57.883C95.1333 58.344 95.3863 58.763 95.7593 59.095L95.9263 59.232L95.9923 59.305C96.4643 60.111 96.9023 60.986 97.3533 61.797C97.8063 62.613 98.2863 63.392 98.8663 64.073C99.4273 64.528 100.161 64.522 101.021 64.539C101.839 64.555 102.762 64.598 103.454 65.329C103.712 65.484 103.936 65.681 104.137 65.879C104.356 66.095 104.534 66.293 104.738 66.477C105.125 66.829 105.503 67.04 106.049 66.928L106.082 66.924C107.449 66.835 108.779 66.461 110.134 66.053C111.48 65.648 112.856 65.208 114.275 65.009L114.306 65.006C114.482 65.004 114.726 64.943 115.018 64.86C115.294 64.781 115.61 64.684 115.882 64.641C116.019 64.619 116.161 64.608 116.293 64.626C116.427 64.643 116.57 64.692 116.68 64.808C116.791 64.926 116.838 65.08 116.843 65.246C116.846 65.37 116.826 65.51 116.785 65.666C117.028 65.889 117.412 66.041 117.808 66.046C118.245 66.052 118.653 65.88 118.882 65.482C118.927 65.397 118.938 65.333 118.937 65.282C118.935 65.23 118.918 65.176 118.887 65.117C118.855 65.056 118.81 64.994 118.754 64.925C118.705 64.865 118.633 64.783 118.581 64.71C118.528 64.637 118.464 64.534 118.447 64.411C118.426 64.269 118.471 64.136 118.569 64.024C118.657 63.923 118.786 63.841 118.944 63.766C119.098 63.693 119.298 63.619 119.55 63.543C120.133 63.212 120.742 62.831 121.186 62.357C121.629 61.884 121.893 61.338 121.815 60.668L121.829 60.547C121.936 60.272 122.092 60.041 122.243 59.836C122.402 59.623 122.541 59.457 122.66 59.271C122.775 59.093 122.851 58.924 122.875 58.738C122.899 58.554 122.874 58.331 122.75 58.044L122.732 57.919C122.769 57.565 122.786 57.185 122.82 56.769C122.852 56.363 122.899 55.937 122.998 55.538C123.196 54.74 123.613 54.003 124.559 53.712C125.888 53.191 127.303 52.963 128.672 52.714C130.051 52.464 131.393 52.19 132.636 51.587L132.684 51.57C133.577 51.344 134.47 51.473 135.306 51.615C136.142 51.756 136.914 51.905 137.662 51.808C138.276 51.428 138.925 51.554 139.459 51.85C139.937 52.115 140.355 52.53 140.646 52.913L140.762 53.074L140.803 53.174C141.007 54.394 140.352 55.222 139.61 55.916C139.423 56.09 139.227 56.258 139.035 56.424C138.842 56.591 138.653 56.755 138.473 56.922C138.115 57.255 137.808 57.59 137.604 57.963C137.515 58.18 137.459 58.41 137.412 58.652C137.368 58.88 137.324 59.171 137.274 59.414C137.176 59.885 137.017 60.37 136.618 60.797C136.651 60.836 136.692 60.868 136.743 60.897C136.796 60.927 136.853 60.951 136.924 60.984C136.99 61.014 137.072 61.053 137.148 61.103C137.226 61.155 137.305 61.226 137.364 61.326C137.425 61.427 137.457 61.543 137.462 61.674C137.471 61.92 137.383 62.233 137.197 62.649C137.043 63.3 136.909 63.956 136.774 64.616C136.637 65.28 136.5 65.95 136.343 66.615L135.976 66.774C135.707 66.62 135.534 66.322 135.409 66.044C135.283 65.761 135.175 65.425 135.08 65.168C135.031 65.033 134.984 64.917 134.936 64.823C134.886 64.726 134.845 64.67 134.814 64.643L134.792 64.628C134.784 64.63 134.753 64.641 134.694 64.69C134.517 65.316 134.29 65.675 134.004 65.979C133.862 66.13 133.704 66.269 133.55 66.411C133.394 66.554 133.23 66.712 133.053 66.914C132.929 67.067 132.8 67.301 132.651 67.577C132.507 67.842 132.345 68.14 132.166 68.377C131.994 68.606 131.762 68.84 131.457 68.883C131.191 68.921 130.946 68.806 130.719 68.584C130.614 68.662 130.518 68.746 130.42 68.832C130.276 68.958 130.118 69.097 129.934 69.208C129.545 69.44 129.071 69.526 128.305 69.35C126.133 69.345 123.962 69.339 121.79 69.333C121.772 69.499 121.775 69.701 121.786 69.93C121.802 70.234 121.833 70.588 121.822 70.894C121.81 71.192 121.756 71.526 121.539 71.752C121.306 71.994 120.959 72.04 120.535 71.945C120.4 71.933 120.285 71.926 120.187 71.921C120.203 71.933 120.22 71.946 120.237 71.959C120.341 72.035 120.459 72.122 120.576 72.215C120.791 72.387 121.023 72.599 121.176 72.843C121.367 72.982 121.576 73.1 121.797 73.218C122.026 73.341 122.275 73.468 122.501 73.617C122.929 73.897 123.304 74.27 123.465 74.898C124.101 75.011 124.479 75.497 124.557 76.01C124.641 76.569 124.37 77.195 123.687 77.378L123.621 77.386C121.83 77.378 120.04 77.368 118.251 77.386C117.563 78.545 116.874 79.705 116.186 80.864C116.386 81.057 116.501 81.264 116.546 81.491C116.601 81.763 116.549 82.031 116.492 82.267C116.388 82.702 116.263 83.071 116.379 83.481L116.446 83.661L116.463 83.717C116.494 83.881 116.505 84.045 116.456 84.178C116.428 84.254 116.377 84.33 116.29 84.377C116.206 84.424 116.12 84.428 116.052 84.419C115.927 84.402 115.804 84.333 115.703 84.267C115.595 84.196 115.479 84.104 115.363 84.003C115.13 83.804 114.874 83.553 114.652 83.341C114.417 83.119 114.236 82.954 114.133 82.891L114.095 82.863C111.839 80.802 109.444 78.794 106.912 77.159C106.002 76.807 105.011 76.491 104.039 76.408C103.062 76.324 102.118 76.476 101.295 77.052L101.262 77.072C100.335 77.527 99.3343 78.125 98.3203 78.522C97.2893 78.925 96.1882 79.147 95.0022 78.849L94.9973 78.848C93.2423 78.364 91.6523 77.712 89.8803 77.618L89.8063 77.602C88.5693 77.141 87.4452 76.396 86.3382 75.748C85.2192 75.092 84.1012 74.523 82.8252 74.347L82.8203 74.346C80.3063 73.941 77.9633 72.995 75.7213 71.877C73.6433 71.273 72.0552 69.82 70.5672 68.426C70.0832 68.331 69.5833 68.353 69.0293 68.349C68.4693 68.346 67.8702 68.312 67.2872 68.055C66.8672 67.896 66.4212 67.771 65.9642 67.644C65.5102 67.518 65.0422 67.391 64.5932 67.231C63.6912 66.911 62.8312 66.448 62.2262 65.556L62.2193 65.546C61.6253 64.582 60.7653 63.897 59.7923 63.32C59.3063 63.031 58.7952 62.771 58.2782 62.516C57.7632 62.262 57.2392 62.011 56.7392 61.746L56.6832 61.704C55.3622 60.422 54.2313 58.903 53.3443 57.305L53.4053 56.989C53.5913 56.84 53.8743 56.724 54.1253 56.623C54.3953 56.514 54.6503 56.416 54.8463 56.302C55.0553 56.181 55.1022 56.094 55.1062 56.048C55.1092 56.002 55.0793 55.855 54.7463 55.587L54.6712 55.486C54.5512 55.187 54.6332 54.897 54.7522 54.658C54.8682 54.424 55.0523 54.178 55.1953 53.965C55.3473 53.738 55.4653 53.532 55.5143 53.332C55.5593 53.146 55.5443 52.961 55.4103 52.757L55.3743 52.669C55.2803 52.193 54.9472 51.79 54.5622 51.343C54.1992 50.923 53.7702 50.446 53.6612 49.871L53.7312 49.647C53.9492 49.429 54.0353 49.24 54.0563 49.08C54.0763 48.919 54.0352 48.752 53.9342 48.575C53.7242 48.206 53.3003 47.857 52.8743 47.523L52.8403 47.491C51.1773 45.588 49.6472 43.626 47.8132 41.935L47.7933 41.916C46.3883 40.302 44.9913 38.731 43.1213 37.748L43.0273 37.66C42.8723 37.415 42.7793 37.143 42.7043 36.888C42.6263 36.621 42.5733 36.39 42.4913 36.165C42.4133 35.947 42.3183 35.772 42.1853 35.64C42.0553 35.512 41.8723 35.409 41.5853 35.364C40.3353 35.156 39.3873 34.312 38.7793 33.288C38.7083 33.293 38.6343 33.298 38.5603 33.304C38.4323 33.315 38.2992 33.326 38.1662 33.333C37.9032 33.346 37.6242 33.344 37.3692 33.288C37.1102 33.23 36.8603 33.111 36.6773 32.878C36.4973 32.649 36.4063 32.34 36.4003 31.948C36.3473 31.619 36.4483 31.32 36.5813 31.064C36.7143 30.81 36.9093 30.546 37.0423 30.337C37.1893 30.109 37.2762 29.927 37.2872 29.765C37.2972 29.628 37.2533 29.467 37.0293 29.269L36.9753 29.203C36.8023 28.89 36.6143 28.718 36.4283 28.617C36.2393 28.514 36.0332 28.474 35.8092 28.458C35.6962 28.449 35.5833 28.447 35.4653 28.444C35.3503 28.441 35.2282 28.438 35.1102 28.425C34.8722 28.401 34.6163 28.339 34.4023 28.149L34.3583 28.098C34.2063 27.865 34.0832 27.612 33.9682 27.377C33.8502 27.138 33.7422 26.917 33.6142 26.723C33.4892 26.531 33.3512 26.377 33.1832 26.266C33.0172 26.157 32.8103 26.082 32.5303 26.069H32.5232C31.0782 25.954 30.2393 24.417 30.8593 23.147C30.4293 22.688 29.8043 22.523 29.0833 22.329C28.3463 22.129 27.5122 21.896 26.9642 21.152C25.9422 20.435 25.2633 19.461 24.6543 18.475C24.0303 17.467 23.4873 16.462 22.7193 15.618L22.7103 15.608C22.0023 14.744 21.4463 13.793 20.9233 12.843C20.3983 11.889 19.9092 10.942 19.3252 10.051C19.0972 9.77699 19.0372 9.45099 19.0362 9.14699C19.0362 8.84399 19.0973 8.51599 19.1303 8.25899C19.1673 7.97799 19.1713 7.78099 19.1173 7.64499C19.0773 7.54399 18.9903 7.437 18.7043 7.388L18.6083 7.34999C18.4423 7.23999 18.2182 7.17199 17.9502 7.11499C17.7022 7.06099 17.3873 7.01299 17.1303 6.94099C16.8673 6.86699 16.5893 6.75099 16.4043 6.51599C16.2263 6.29099 16.1663 5.99899 16.2163 5.63899C16.0323 5.36099 15.8833 5.277 15.7753 5.254C15.6493 5.228 15.5023 5.268 15.2943 5.371C15.1913 5.422 15.0913 5.47799 14.9733 5.54199C14.8603 5.60199 14.7352 5.66499 14.6052 5.71399C14.3482 5.81099 14.0512 5.85899 13.7312 5.73799C13.4652 5.69999 13.1742 5.559 12.9082 5.412C12.7652 5.332 12.6182 5.24599 12.4772 5.16299C12.3342 5.07799 12.1952 4.99699 12.0632 4.92599C11.7852 4.77799 11.5772 4.699 11.4372 4.698C11.3772 4.697 11.3462 4.71099 11.3252 4.72699C11.3032 4.74599 11.2663 4.791 11.2373 4.899C11.1583 5.186 11.0483 5.519 10.9613 5.815C10.8713 6.124 10.7963 6.42599 10.7673 6.71199C10.7383 6.99799 10.7553 7.25899 10.8403 7.48999C10.9243 7.71699 11.0783 7.93099 11.3483 8.12199L11.3833 8.15199C11.9973 8.77999 11.9603 9.654 11.9443 10.39C11.9273 11.126 11.9273 11.752 12.3073 12.226L12.3893 12.32L12.4313 12.379C12.9213 13.348 13.7882 13.846 14.8082 14.26L14.8623 14.291C16.5703 15.547 17.5603 17.417 18.3853 19.25C18.5383 19.394 18.7363 19.499 18.9713 19.591C19.0953 19.64 19.2232 19.683 19.3562 19.728C19.4872 19.773 19.6233 19.82 19.7543 19.873C20.0143 19.978 20.2823 20.12 20.4733 20.36C20.6633 20.599 20.7542 20.906 20.7352 21.301C20.8112 21.566 20.8652 21.872 20.9202 22.162C20.9802 22.475 21.0423 22.776 21.1383 23.04C21.2343 23.303 21.3563 23.506 21.5183 23.639C21.6743 23.767 21.8902 23.85 22.2172 23.833L22.2363 23.832C22.6943 23.842 23.0283 24.011 23.2673 24.288C23.4943 24.551 23.6203 24.896 23.7123 25.23C23.7593 25.399 23.7992 25.575 23.8382 25.744C23.8782 25.915 23.9173 26.079 23.9623 26.237C24.0533 26.556 24.1632 26.816 24.3262 27.002L24.3893 27.145C24.4263 27.563 24.5483 27.703 24.6413 27.757C24.7533 27.823 24.9213 27.83 25.1733 27.792C25.2983 27.773 25.4132 27.748 25.5492 27.724C25.6772 27.702 25.8153 27.681 25.9473 27.679C26.0803 27.678 26.2273 27.696 26.3633 27.764C26.5043 27.836 26.6132 27.952 26.6842 28.113L26.6863 28.116C27.0653 29.006 27.2612 29.97 27.4932 30.871C27.6992 31.669 27.9363 32.432 28.3493 33.12L28.5372 33.41L28.5563 33.44C28.7553 33.835 28.9793 34.225 29.2033 34.628C29.4263 35.029 29.6473 35.44 29.8323 35.863C30.1963 36.696 30.4263 37.593 30.2533 38.593C30.4603 39.553 31.7373 39.814 32.3583 38.963L32.7283 38.925C33.4583 39.588 34.1813 40.713 34.5813 41.753C34.7873 41.851 35.0123 41.939 35.2513 42.039C35.5103 42.147 35.7823 42.271 35.9973 42.434C36.2173 42.601 36.4013 42.828 36.4363 43.142C36.4693 43.448 36.3552 43.782 36.1102 44.154L36.0932 44.177C35.8252 44.496 35.4592 44.985 35.0462 45.357C34.6352 45.727 34.1103 46.045 33.5093 45.929L33.3623 45.84C32.9133 45.285 32.7163 44.584 32.4973 44.015C32.2713 43.427 32.0142 42.939 31.4642 42.631L31.4273 42.607C31.0143 42.268 30.5413 42.028 30.0403 41.734C29.5643 41.454 29.0783 41.13 28.6973 40.641C26.6783 39.447 24.6923 37.95 23.3323 35.979L23.2943 35.782C23.4373 35.154 23.6213 34.565 23.6683 33.977C23.7143 33.407 23.6242 32.882 23.2352 32.404L23.2023 32.351C22.9303 31.766 22.6553 31.137 22.2723 30.644C21.8963 30.161 21.4362 29.835 20.7962 29.819L20.7222 29.805C20.1242 29.603 19.6543 29.139 19.2513 28.734C19.0433 28.525 18.8543 28.329 18.6603 28.167C18.4963 28.028 18.3392 27.924 18.1842 27.858C17.3982 28.168 16.6853 27.879 16.0643 27.501C15.7423 27.304 15.4172 27.067 15.1182 26.865C14.8142 26.658 14.5262 26.48 14.2432 26.37C13.2462 26.119 12.5122 25.517 11.8682 24.85C11.5462 24.516 11.2372 24.155 10.9332 23.815C10.6262 23.471 10.3193 23.141 9.98726 22.852L10.2262 22.425C10.9532 22.656 11.7952 22.808 12.5502 22.718C13.2902 22.631 13.9282 22.315 14.3212 21.628C14.6522 20.625 14.4642 19.716 13.6882 19.004L13.6733 18.99C12.1203 17.318 10.2573 15.947 8.19927 14.983L8.18626 14.976C7.45826 14.579 7.17224 13.844 6.94624 13.19C6.82824 12.851 6.72725 12.534 6.59325 12.246C6.47225 11.985 6.32927 11.767 6.14327 11.597C5.73927 11.563 5.44926 11.413 5.25526 11.158C5.05926 10.899 4.99026 10.568 4.95226 10.262C4.93326 10.107 4.92024 9.94399 4.90724 9.79199C4.89424 9.63599 4.88127 9.48799 4.85927 9.34599C4.81427 9.05999 4.74024 8.834 4.60124 8.672L4.58025 8.64499C4.39725 8.36199 4.17225 8.08499 3.93025 7.79999C3.69125 7.51999 3.43127 7.227 3.19527 6.927C2.72127 6.327 2.30126 5.64999 2.24626 4.82899L2.31825 4.636C2.56625 4.385 2.58427 4.232 2.56627 4.142C2.54227 4.028 2.44025 3.89699 2.23125 3.72899C2.13125 3.64899 2.01725 3.57 1.89525 3.485C1.77425 3.402 1.64225 3.31299 1.51825 3.22099C1.28325 3.04799 1.03826 2.83999 0.88826 2.58099C0.58526 2.26999 0.384249 1.98599 0.298249 1.72699C0.204249 1.44499 0.244261 1.17599 0.442261 0.974991C0.618261 0.795991 0.887251 0.708991 1.16925 0.668991C1.45225 0.629991 1.78724 0.634996 2.14824 0.673996C5.07324 0.447996 8.00426 0.341 10.9313 0.25L11.1243 0.332001Z" fill="#718FD5" stroke="white" stroke-width="0.5" stroke-linejoin="round"/>
</svg>
