<svg width="182" height="182" viewBox="0 0 182 182" fill="none" xmlns="http://www.w3.org/2000/svg">
<path d="M63.1894 0.290163C63.6434 0.205163 64.3724 0.249159 64.9014 0.479159C65.1684 0.595159 65.4314 0.779143 65.5474 1.06314C65.6664 1.35814 65.5984 1.68614 65.3754 2.02014C65.2264 2.31714 65.0944 2.57815 64.9984 2.80915C64.8984 3.04815 64.8564 3.21715 64.8624 3.33115C64.8654 3.38115 64.8774 3.41315 64.8914 3.43415C64.9064 3.45515 64.9334 3.48316 64.9914 3.51016C65.1184 3.56916 65.3564 3.60914 65.7684 3.58914L65.8964 3.61817C66.3464 3.85517 66.7684 4.39515 67.0034 4.96515C67.2314 5.52115 67.3194 6.20017 66.9814 6.71717C66.8244 7.13717 66.6524 7.55915 66.4834 7.97815C66.3104 8.40615 66.1394 8.83315 65.9874 9.26215C65.6864 10.1111 65.4614 10.9582 65.4324 11.8192C65.4754 12.0602 65.5794 12.2912 65.7184 12.5272C65.7884 12.6482 65.8664 12.7681 65.9474 12.8911C66.0274 13.0121 66.1134 13.1391 66.1914 13.2661C66.5014 13.7661 66.7654 14.3481 66.4854 15.0721C66.4514 15.7491 66.8214 16.2291 67.3804 16.6841C67.6654 16.9161 67.9814 17.1282 68.3034 17.3552C68.6184 17.5772 68.9364 17.8122 69.1964 18.0792C69.9544 18.8472 71.2104 18.9102 71.9984 18.1912C72.8704 17.3802 73.9104 16.9211 74.9494 16.5321C76.0014 16.1381 77.0374 15.8202 77.9814 15.2892L78.0824 15.2571C79.1184 15.1671 80.1204 15.2902 81.0974 15.4712C82.0554 15.6492 82.9504 15.8702 83.8874 16.0212V16.0191C83.8534 15.9481 83.7944 15.8562 83.7124 15.7432C83.6294 15.6292 83.5374 15.5112 83.4354 15.3762C83.2444 15.1212 83.0254 14.8142 82.9244 14.5102C82.8724 14.3542 82.8454 14.1811 82.8814 14.0071C82.9154 13.8441 83.0014 13.6992 83.1374 13.5772C83.3494 13.2292 83.6334 13.0552 83.9604 13.0102C84.2744 12.9682 84.6064 13.0492 84.9044 13.1422C85.2254 13.2422 85.4994 13.3511 85.7894 13.4211C86.0644 13.4891 86.2934 13.5021 86.4844 13.4381C86.6984 13.3351 86.9124 13.2052 87.1484 13.0692C87.3834 12.9332 87.6364 12.7932 87.8984 12.6982C88.1634 12.6022 88.4504 12.5461 88.7514 12.5881C89.0394 12.6291 89.3214 12.7561 89.5974 12.9891C90.2394 13.1651 90.7644 13.5341 91.2444 13.8871C91.7154 14.2341 92.1414 14.5602 92.6264 14.7592C92.8064 14.6462 92.9884 14.5062 93.1814 14.3552C93.4054 14.1802 93.6474 13.9912 93.8974 13.8462C94.1504 13.7002 94.4314 13.5882 94.7404 13.5832C95.0464 13.5792 95.3534 13.6812 95.6624 13.9112C96.2144 14.1702 96.8844 14.3792 97.4724 14.3592C97.7664 14.3492 98.0304 14.2822 98.2484 14.1462C98.4634 14.0122 98.6494 13.8001 98.7794 13.4731L98.8024 13.4301C99.3974 12.5071 99.8534 11.5031 100.348 10.4861C100.837 9.48215 101.361 8.47216 102.086 7.57016C102.215 7.31716 102.382 7.08114 102.549 6.86014C102.726 6.62514 102.897 6.41214 103.048 6.18814C103.344 5.74714 103.512 5.33216 103.391 4.84116L103.445 4.61914C103.712 4.30914 104.009 4.13715 104.322 4.11215C104.633 4.08615 104.914 4.20914 105.14 4.39414C105.575 4.74814 105.869 5.37814 105.911 5.95114C106.12 6.93014 106.398 7.89415 106.68 8.86615C106.959 9.83015 107.243 10.8031 107.462 11.7921C107.618 12.1971 107.759 12.6641 107.908 13.1151C108.061 13.5781 108.226 14.0352 108.433 14.4412C108.845 15.2462 109.404 15.8132 110.347 15.8542C110.745 15.8272 111.078 15.9212 111.341 16.1132C111.604 16.3052 111.776 16.5811 111.884 16.8781C112.096 17.4671 112.072 18.1952 111.937 18.7512L111.811 18.9142C110.761 19.4732 110.151 20.4781 109.486 21.5541C108.835 22.6081 108.131 23.7271 106.881 24.3221L106.88 24.3211C104.476 25.4791 103.207 28.0031 102.295 30.4901L102.199 30.6111C101.816 30.8671 101.691 31.0482 101.666 31.1352C101.657 31.1642 101.663 31.1731 101.664 31.1751C101.669 31.1831 101.688 31.2081 101.744 31.2351C101.861 31.2901 102.065 31.3232 102.32 31.2992C102.57 31.2762 102.841 31.2031 103.08 31.0751L103.12 31.0572C103.707 30.8622 104.242 30.5411 104.797 30.1971C105.343 29.8571 105.914 29.4921 106.541 29.2491L106.865 29.3941C106.986 29.7171 107.097 30.0622 107.21 30.4022C107.323 30.7442 107.438 31.0841 107.572 31.4081C107.834 32.0431 108.158 32.5921 108.634 32.9631C109.999 33.3631 111.527 33.1142 113.001 32.9232C113.405 32.6922 113.708 32.5501 113.927 32.5111C114.04 32.4911 114.184 32.4882 114.306 32.5732C114.437 32.6632 114.473 32.8031 114.48 32.9071C114.488 33.0111 114.47 33.1252 114.447 33.2322C114.423 33.3422 114.388 33.4651 114.349 33.5931C114.272 33.8511 114.178 34.1361 114.101 34.4461C114.096 34.4861 114.093 34.5231 114.089 34.5581C114.25 34.3591 114.469 34.0661 114.683 33.8251C114.793 33.7021 114.909 33.5831 115.027 33.4861C115.125 33.4061 115.236 33.3332 115.355 33.2892C115.673 32.9932 116.019 32.7312 116.361 32.4822C116.722 32.2192 117.073 31.9751 117.408 31.7101C118.073 31.1861 118.627 30.6151 118.909 29.8041L118.919 29.7812C119.161 29.2622 119.464 28.6282 119.897 28.1772C120.118 27.9482 120.379 27.7571 120.693 27.6531C120.97 27.5621 121.275 27.5421 121.609 27.6101L121.755 27.6451L121.767 27.6482C121.988 27.7202 122.212 27.7071 122.454 27.6491C122.712 27.5871 122.936 27.4912 123.217 27.4022C123.475 27.3192 123.769 27.2481 124.066 27.3051C124.371 27.3641 124.639 27.5482 124.874 27.8842C125.475 28.5162 126.268 28.7431 127.12 28.9001L127.991 29.0472L128.052 29.0662C128.397 29.2222 128.777 29.3531 129.174 29.4851C129.567 29.6161 129.981 29.7492 130.376 29.9062C131.116 30.2002 131.835 30.5962 132.318 31.2852L132.412 31.4272L132.446 31.5172C132.523 31.9832 132.636 32.1191 132.693 32.1541C132.734 32.1781 132.815 32.1902 133.022 32.0952C133.118 32.0512 133.221 31.9941 133.337 31.9291C133.45 31.8661 133.575 31.7961 133.703 31.7351C133.922 31.6301 134.185 31.5352 134.462 31.5572L134.582 31.5751L134.655 31.6021C135.254 31.9461 135.696 32.4682 136.063 33.0232C136.425 33.5702 136.739 34.1921 137.04 34.7091L137.037 34.9652C136.705 35.5102 136.334 36.0061 136.114 36.5451C135.903 37.0621 135.853 37.5752 136.151 38.1262L136.174 38.1801C136.219 38.3481 136.264 38.4271 136.292 38.4591C136.294 38.4621 136.296 38.4642 136.298 38.4652C136.315 38.4612 136.356 38.4472 136.426 38.3922C136.5 38.3342 136.584 38.2501 136.68 38.1451C136.774 38.0401 136.873 37.9222 136.977 37.7972C137.08 37.6742 137.189 37.5451 137.299 37.4251C137.408 37.3061 137.524 37.1892 137.642 37.0942C137.758 37.0022 137.89 36.9191 138.034 36.8771L138.555 36.7141C139.769 36.3201 140.958 35.8391 142.136 35.3381L142.238 35.3192C143.365 35.3412 144.347 35.8702 145.27 36.3672C146.154 36.8422 146.989 37.2892 147.919 37.3752L148.106 37.3882L148.139 37.3922C150.662 37.8292 153.256 38.0791 155.673 37.3211L155.758 37.3102C158.328 37.4132 160.576 38.8612 162.572 40.3242L163.413 40.9482L163.424 40.9562L163.423 40.9572L164.382 41.7772C165.335 42.6112 166.274 43.4771 167.219 44.2961C168.483 45.3931 169.777 46.4272 171.191 47.2682C172.227 47.7082 173.342 47.8341 174.496 47.9041C175.643 47.9731 176.844 47.9882 177.982 48.2322L178.016 48.2422C178.937 48.5802 179.238 49.3572 179.398 50.1262C179.476 50.4972 179.532 50.9291 179.597 51.2831C179.648 51.5641 179.708 51.8252 179.797 52.0572L179.895 52.2812L179.912 52.3211C180.883 55.4691 182.022 58.9192 180.972 62.3142V62.3152C180.378 64.7872 179.446 67.3362 177.805 69.3412L177.771 69.3762C176.815 70.1642 175.896 71.0032 174.975 71.8492C174.056 72.6932 173.135 73.5441 172.18 74.3431L172.093 74.3911C171.553 74.5571 171.107 74.6872 170.744 74.9152C170.402 75.1292 170.132 75.4322 169.965 75.9582C169.782 77.9232 168.814 79.6652 167.784 81.2642L167.778 81.2732C167.578 81.5562 167.386 81.8501 167.19 82.1501C166.995 82.4481 166.797 82.7532 166.589 83.0492C166.173 83.6422 165.709 84.2162 165.13 84.6822L164.993 84.7372C164.83 84.7502 164.694 84.6841 164.591 84.6021C164.49 84.5221 164.405 84.4142 164.333 84.3072C164.196 84.1042 164.049 83.8092 163.927 83.6002C163.787 83.3622 163.666 83.2042 163.552 83.1382C163.504 83.1112 163.463 83.1032 163.421 83.1092C163.39 83.1132 163.347 83.1261 163.293 83.1591C163.284 84.3091 162.911 85.3792 162.564 86.4022C162.2 87.4792 161.865 88.5102 161.928 89.6122L161.927 89.6512C161.794 90.9662 161.927 92.2872 162.108 93.6312C162.288 94.9662 162.516 96.3331 162.555 97.7011C162.608 99.0631 162.228 100.393 161.891 101.673C161.556 102.952 161.262 104.189 161.403 105.447C161.585 105.76 161.671 106.05 161.655 106.322C161.638 106.613 161.508 106.848 161.332 107.041C161.159 107.231 160.934 107.389 160.708 107.529C160.593 107.6 160.474 107.668 160.357 107.736C160.25 107.798 160.144 107.859 160.041 107.921C158.757 109.226 158.415 111.208 158.955 112.958C159.534 114.409 158.746 115.786 157.587 116.557C156.925 117.168 156.526 117.981 156.116 118.856C155.713 119.716 155.297 120.639 154.599 121.375C153.482 122.697 152.553 124.277 153.044 125.923L153.096 126.082L153.108 126.133C153.131 126.307 153.112 126.47 153.049 126.615C152.986 126.759 152.885 126.872 152.768 126.959C152.544 127.127 152.24 127.218 151.951 127.285C151.803 127.319 151.648 127.348 151.499 127.377C151.348 127.407 151.201 127.436 151.062 127.469C150.778 127.537 150.559 127.617 150.417 127.726L150.34 127.766C149.14 128.149 148.372 129.258 148.665 130.479L148.498 130.776C147.731 131.019 146.939 131.003 146.196 130.999C145.44 130.994 144.728 131.001 144.044 131.246L143.996 131.257C142.932 131.414 141.888 131.271 140.89 131.146C139.881 131.02 138.913 130.911 137.94 131.097L137.818 131.09C137.476 130.982 137.232 130.968 137.052 131.003C136.876 131.037 136.738 131.121 136.611 131.249C136.48 131.383 136.365 131.56 136.236 131.776C136.112 131.985 135.974 132.233 135.81 132.47L135.711 132.554C135.041 132.869 134.371 133.125 133.771 133.492C133.184 133.851 132.702 134.298 132.43 134.962L132.088 135.092C131.1 134.601 130.087 134.416 129.214 135.044L129.191 135.059C127.949 135.766 126.768 136.579 125.574 137.396C124.383 138.21 123.18 139.027 121.904 139.726L121.899 139.729C121.603 139.882 121.346 140.107 121.098 140.374C120.84 140.651 120.629 140.927 120.363 141.229C119.856 141.804 119.247 142.35 118.274 142.336L118.257 142.335C117.803 142.296 117.574 142.322 117.472 142.362C117.464 142.365 117.458 142.369 117.453 142.372C117.454 142.377 117.455 142.384 117.457 142.393C117.479 142.488 117.56 142.632 117.696 142.843C117.759 142.941 117.831 143.051 117.905 143.166L118.122 143.531L118.147 143.598C118.246 144.068 118.266 144.671 118.129 145.212C118.004 145.705 117.735 146.18 117.243 146.425C117.243 146.574 117.277 146.733 117.34 146.909C117.422 147.142 117.541 147.374 117.665 147.644C117.897 148.15 118.137 148.758 117.928 149.443C118.119 152.013 118.183 154.938 116.456 157.173L116.455 157.172C115.847 157.977 115.012 158.53 114.248 159.073C113.471 159.625 112.757 160.172 112.293 160.977L112.266 161.014C111.448 161.976 110.963 163.145 110.453 164.357C109.95 165.552 109.423 166.787 108.516 167.809C107.974 168.644 107.283 169.334 106.577 169.983C105.858 170.643 105.136 171.254 104.497 171.953L104.071 171.715C104.555 170.017 105.614 168.591 106.991 167.527C107.072 167.296 107.208 167.047 107.35 166.81C107.518 166.531 107.691 166.268 107.84 166.001C107.988 165.736 108.089 165.51 108.117 165.33C108.128 165.258 108.125 165.201 108.113 165.153C107.89 165.282 107.651 165.326 107.416 165.319C107.11 165.31 106.8 165.219 106.534 165.134C106.251 165.045 106.024 164.967 105.829 164.946C105.684 164.93 105.596 164.951 105.531 165.002C105.397 166.473 104.884 168.023 103.927 169.2L103.861 169.256C103.244 169.628 102.591 170.03 102.107 170.533C101.63 171.028 101.334 171.602 101.398 172.325L101.392 172.406C100.912 174.412 100.459 176.607 98.8554 178.189C97.9064 179.461 96.6624 180.462 95.5444 181.496L95.1324 181.372C95.0674 181.111 94.9604 180.835 94.8444 180.536C94.7304 180.243 94.6094 179.928 94.5384 179.617C94.4664 179.304 94.4394 178.973 94.5274 178.65C94.6174 178.321 94.8194 178.024 95.1654 177.77L95.1724 177.766C95.5824 177.483 95.8464 177.051 95.8824 176.67C95.8994 176.484 95.8624 176.315 95.7684 176.172C95.6744 176.03 95.5104 175.894 95.2394 175.8L95.1404 175.737C94.7824 175.364 94.4484 174.949 94.1224 174.532C93.7934 174.111 93.4744 173.689 93.1344 173.286C92.4544 172.48 91.7164 171.779 90.7524 171.388L90.6814 171.345C90.4204 171.119 90.1064 170.964 89.7574 170.837C89.4004 170.708 89.0374 170.618 88.6514 170.5C87.9044 170.273 87.1254 169.958 86.7144 169.091L86.7134 169.089C86.4384 168.491 86.1304 168.304 85.8504 168.294C85.5414 168.283 85.1494 168.479 84.6984 168.909L84.5864 168.971C84.2464 169.055 83.9604 168.984 83.7264 168.813C83.5084 168.652 83.3474 168.412 83.2144 168.18C83.1464 168.062 83.0814 167.938 83.0194 167.82C82.9564 167.7 82.8954 167.585 82.8324 167.477C82.7034 167.257 82.5774 167.09 82.4364 166.988L82.3894 166.942C82.0134 166.478 81.6194 165.95 81.1654 165.525C80.7224 165.11 80.2564 164.828 79.7504 164.797C78.5874 165.164 77.3304 165.543 76.0394 165.455L75.8714 165.038C79.8044 160.667 84.0484 156.545 88.5454 152.755L88.5664 152.74C89.4024 152.176 90.3944 151.831 91.3084 151.472C92.2184 151.115 93.0604 150.741 93.7144 150.133C94.1474 148.837 94.1004 147.361 94.0774 145.961C93.9444 145.746 93.8394 145.504 93.7494 145.265C93.6444 144.988 93.5634 144.738 93.4594 144.481C93.2594 143.989 93.0364 143.642 92.6614 143.501C92.2284 143.496 91.7964 143.552 91.3524 143.626C90.9024 143.702 90.4254 143.801 89.9554 143.86L89.6804 143.666C89.3664 142.256 89.6014 140.897 89.9994 139.598C90.1984 138.949 90.4404 138.308 90.6784 137.683C90.8994 137.099 91.1154 136.528 91.2974 135.964C90.6574 135.201 89.6634 134.987 88.7874 135.561L88.7864 135.56C88.1914 135.965 87.5514 136.09 87.0224 135.87C86.4924 135.648 86.1544 135.114 86.0844 134.377L85.9304 133.621C85.5934 131.894 85.3354 130.19 84.8844 128.509C84.6314 128.393 84.3784 128.272 84.1294 128.15C83.8424 128.01 83.5584 127.87 83.2724 127.741C82.7324 127.496 82.1954 127.289 81.6424 127.178C80.6844 127.866 79.4894 128.402 78.2304 127.817C77.1454 127.557 76.0544 127.334 74.9544 127.228L74.7294 127.004C74.6044 125.751 74.8854 124.455 75.0444 123.255C75.2044 122.044 75.2454 120.904 74.7304 119.836C74.3014 119.368 74.0974 118.829 73.9544 118.301C73.8824 118.035 73.8214 117.757 73.7604 117.5C73.6994 117.248 73.6334 117.006 73.5474 116.776C73.3334 116.488 73.2824 116.189 73.3444 115.893C73.4044 115.602 73.5704 115.329 73.7414 115.084C73.8284 114.96 73.9234 114.836 74.0134 114.716C74.1034 114.595 74.1904 114.478 74.2684 114.361C74.4274 114.123 74.5344 113.908 74.5644 113.705L74.5814 113.644C75.3524 111.818 75.8674 109.747 75.6324 107.809C75.2024 106.477 74.5924 105.231 73.2594 104.898L73.2194 104.884C71.7844 104.259 71.5484 102.592 72.1854 101.36L72.1894 101.351H72.1904C72.3984 100.986 72.4154 100.779 72.3884 100.672C72.3644 100.584 72.2924 100.503 72.1084 100.44C71.9234 100.376 71.6704 100.35 71.3854 100.345C71.1024 100.341 70.8094 100.358 70.5444 100.371H70.5204C69.5284 100.329 68.5204 100.35 67.4964 100.341C66.4794 100.332 65.4564 100.293 64.4694 100.124L64.2904 99.9962C63.7544 98.9822 63.5684 97.8532 63.4804 96.7252C63.4374 96.1612 63.4174 95.5891 63.3934 95.0321C63.3694 94.4711 63.3404 93.9232 63.2784 93.3922L63.2774 93.3462C63.3284 92.6032 63.1664 91.8782 63.0154 91.1042C62.8744 90.3782 62.7464 89.6131 62.8654 88.8221C62.5124 88.3571 61.9714 88.0711 61.3354 87.8911C60.6744 87.7041 59.9484 87.6372 59.2974 87.5792C58.6874 87.6542 57.9524 87.7452 57.2874 87.6382C56.5964 87.5272 55.9524 87.1982 55.5904 86.4192L55.5704 86.3571C55.4654 85.7481 55.1864 85.4532 54.8254 85.3022C54.4374 85.1402 53.9234 85.1312 53.3344 85.1822L53.2694 85.1791C52.4774 85.0431 51.8664 84.5552 51.3094 84.1122C50.7354 83.6552 50.2124 83.2412 49.5464 83.1052L49.4594 83.0692C48.8284 82.6552 48.1324 82.6021 47.3634 82.5971C46.6144 82.5931 45.7734 82.6382 44.9794 82.3492L44.9004 82.3032C43.8434 81.3802 42.5794 80.3911 41.5874 79.2481C40.5884 78.0971 39.8344 76.7601 39.8084 75.1141H39.8074C39.7034 74.1981 39.8214 73.2941 39.9224 72.4291C40.0164 71.6161 40.0934 70.8342 39.9934 70.0532C38.9354 70.0432 37.8884 69.9722 36.8534 70.0532C35.7634 70.1392 34.7414 70.3992 33.8574 71.0792L33.8154 71.1052C32.9834 71.5182 32.2534 72.1311 31.4814 72.7481C30.7204 73.3561 29.9214 73.9652 28.9844 74.3072L28.8304 74.3131C28.2754 74.1551 27.8064 74.2071 27.3844 74.3941C26.9554 74.5851 26.5594 74.9211 26.1724 75.3561L26.1734 75.3571C25.8494 75.7281 25.4754 75.9112 25.0774 75.9662C24.6894 76.0202 24.2904 75.9501 23.9114 75.8471C23.5414 75.7461 23.1374 75.5972 22.7884 75.4882C22.4234 75.3742 22.0874 75.2921 21.7794 75.2921L21.6984 75.2802C20.9534 75.0262 20.2254 75.0801 19.4744 75.2481C19.0984 75.3321 18.7224 75.4432 18.3364 75.5562C17.9524 75.6692 17.5594 75.7832 17.1614 75.8682L17.0824 75.8722C16.2284 75.7762 15.7494 75.2121 15.5354 74.5451C15.3274 73.8991 15.3574 73.1362 15.5054 72.5262C15.6244 71.2882 15.6394 70.0562 15.6924 68.7982C15.1214 69.0322 14.6134 69.4622 14.0524 69.9062C13.4094 70.4142 12.6944 70.9381 11.7904 70.9731L11.7474 70.9712C11.2484 70.9042 10.6524 70.9532 10.0294 70.9662C9.43842 70.9792 8.80442 70.9611 8.34442 70.7011L8.21841 70.4601C8.32541 69.2421 7.33541 68.2181 6.12241 68.3741H6.05243C5.80643 68.3351 5.52043 68.3222 5.22443 68.3032C4.94243 68.2852 4.64143 68.2611 4.41043 68.1921C4.29443 68.1571 4.1704 68.1052 4.0744 68.0172C3.9694 67.9212 3.9044 67.7892 3.9064 67.6312C3.9084 67.4872 3.96743 67.3431 4.05243 67.2061C4.13543 67.0701 4.25842 66.9212 4.41742 66.7562C4.58042 66.5572 4.61442 66.3841 4.59042 66.2191C4.56342 66.0391 4.46441 65.8431 4.30841 65.6191C4.14741 65.3851 3.97142 65.1802 3.77942 64.9232C3.60942 64.6942 3.44243 64.4401 3.34943 64.1671C2.89543 63.3351 2.35241 62.5392 1.81741 61.7202C1.28441 60.9032 0.761428 60.0662 0.371428 59.1732L0.362426 59.1472C0.0804258 58.2402 0.35841 57.4071 0.87741 56.7491C1.38741 56.1031 2.14142 55.6091 2.87842 55.3391C3.44942 55.0641 3.76843 54.7302 3.88443 54.3702C3.99843 54.0112 3.93243 53.5631 3.59543 53.0151L3.5704 52.9631C3.3494 52.3011 3.65243 51.7341 3.95343 51.2611C4.11243 51.0111 4.26641 50.7941 4.39941 50.5581C4.52941 50.3281 4.62143 50.1082 4.65143 49.8852L4.66043 49.8452C5.00543 48.7192 5.50742 47.6892 6.77942 47.2802C8.36642 46.2682 10.2174 45.6171 11.9374 45.0501L12.0904 45.0492C13.1944 45.3922 14.2154 44.8571 15.0924 44.0631L15.1544 44.0212C15.5574 43.8342 15.9624 43.8272 16.3444 43.8922C16.7184 43.9562 17.0924 44.0941 17.4284 44.2091C18.0614 44.4281 18.5614 44.5601 19.0144 44.3051C18.8424 43.7901 18.9674 43.2692 19.1064 42.8022C19.2734 42.2442 19.4604 41.7542 19.4264 41.2512L19.4284 41.1952C20.0104 37.5302 20.5644 33.8211 21.3314 30.1971C20.8234 29.3231 20.2384 28.3902 20.5154 27.1782C20.3714 27.0342 20.1804 26.9062 19.9524 26.7812C19.7014 26.6422 19.3664 26.4852 19.1034 26.3272C18.8304 26.1612 18.5594 25.9551 18.3954 25.6631C18.2254 25.3591 18.1874 24.9961 18.3144 24.5591C18.3614 24.3851 18.3604 24.1621 18.3364 23.8911C18.3144 23.6411 18.2684 23.3171 18.2544 23.0451C18.2394 22.7651 18.2494 22.4632 18.3624 22.2022C18.4814 21.9272 18.7044 21.7222 19.0514 21.6222C19.7054 21.3002 20.3804 21.2612 21.0324 21.3162C21.3624 21.3442 21.6914 21.3971 22.0114 21.4511C22.2294 21.4871 22.4424 21.5221 22.6524 21.5541C22.5314 20.6721 21.6944 20.0531 20.7564 20.1531L20.7554 20.1522C20.3314 20.2052 19.9924 20.1372 19.7474 19.9322C19.5054 19.7312 19.4024 19.4361 19.3574 19.1501C19.3124 18.8621 19.3214 18.5432 19.3364 18.2502C19.3514 17.9492 19.3724 17.6822 19.3664 17.4542C19.3164 17.0592 19.3984 16.7422 19.6614 16.5522C19.8984 16.3812 20.2204 16.3671 20.5004 16.3821C20.7854 16.3981 21.1204 16.4552 21.3944 16.4882C21.6894 16.5232 21.9244 16.5342 22.0894 16.4922L22.1444 16.4842C23.1634 16.4572 24.2074 16.5471 25.2114 16.5941C26.2154 16.6411 27.1954 16.6452 28.1424 16.4622C28.7074 16.2352 29.2144 15.8912 29.7444 15.5232C30.2734 15.1552 30.8274 14.7642 31.4534 14.4932L31.7504 14.5702C32.3314 15.3242 32.4904 16.2411 32.6224 17.1011C32.7504 17.9331 32.8544 18.7122 33.2254 19.3812C33.6304 19.3912 33.9874 19.5302 34.3074 19.7162C34.6624 19.9232 34.9974 20.2021 35.3044 20.4381C35.9284 20.9181 36.4634 21.2392 37.1654 20.9792C37.3344 20.8292 37.5254 20.6342 37.7324 20.4282C37.9434 20.2192 38.1744 19.9991 38.3914 19.8611C38.5004 19.7921 38.6244 19.7301 38.7554 19.7091C38.8964 19.6881 39.0464 19.7152 39.1734 19.8232C39.2894 19.9222 39.3584 20.0671 39.4014 20.2271C39.4444 20.3881 39.4684 20.5902 39.4734 20.8332L39.4854 20.9832C39.5004 21.1202 39.5234 21.2221 39.5504 21.2951C39.5864 21.3931 39.6224 21.4241 39.6374 21.4331C39.6544 21.4441 39.7314 21.4692 39.9314 21.3422C40.1144 21.2272 40.3214 21.0321 40.5194 20.8091C40.7154 20.5891 40.8924 20.3552 41.0154 20.1732L41.0404 20.1432C42.1744 18.9342 43.5784 17.8751 45.3114 17.6101C45.4844 17.4931 45.6154 17.3182 45.7304 17.0922C45.8604 16.8382 45.9464 16.5831 46.0744 16.2881C46.1934 16.0131 46.3444 15.7231 46.5864 15.5121C46.8304 15.2991 47.1464 15.1842 47.5584 15.2032C47.9484 15.1072 48.5344 14.9571 48.9844 14.7261C49.2174 14.6071 49.3884 14.4792 49.4824 14.3492C49.5604 14.2422 49.5834 14.1342 49.5444 14.0002C49.2414 13.6682 48.7644 13.6392 48.1414 13.6392C47.8404 13.6392 47.5064 13.6441 47.2024 13.5931C46.8924 13.5411 46.5844 13.4271 46.3454 13.1671L46.2894 13.0732C46.1154 12.5172 46.0014 11.9331 45.8994 11.3521C45.7974 10.7661 45.7094 10.1891 45.5854 9.62314C45.3394 8.49814 44.9644 7.47216 44.1254 6.67716C43.7664 6.43516 43.5304 6.17816 43.4244 5.92316C43.3104 5.65216 43.3424 5.36814 43.5494 5.17514C43.7404 4.99814 44.0234 4.95316 44.3054 5.00516C44.5894 5.05816 44.9034 5.21317 45.2094 5.48017L45.4424 5.64615C45.9964 6.00415 46.6124 6.14916 47.2694 6.19516C48.0354 6.24816 48.8124 6.16814 49.6204 6.14414L49.6944 6.15314C50.0214 6.24414 50.2884 6.45214 50.5134 6.67114C50.7284 6.88014 50.9544 7.15217 51.1344 7.34217C51.3314 7.55117 51.5034 7.69814 51.6754 7.76514C51.8104 7.81814 51.9624 7.82715 52.1594 7.73715C52.2244 7.56715 52.2694 7.34516 52.3064 7.08216C52.3474 6.79616 52.3844 6.45916 52.4544 6.16516C52.5244 5.87116 52.6394 5.56514 52.8704 5.35614C53.1144 5.13614 53.4444 5.05916 53.8554 5.13416C55.2124 5.24316 56.4924 4.87415 57.7394 4.30615C59.0004 3.73215 60.1864 2.97815 61.4004 2.31915L61.4454 2.29917C61.7204 2.21417 61.8534 2.08614 61.9334 1.95114C62.0224 1.80014 62.0594 1.62415 62.1064 1.40015C62.1494 1.19515 62.2044 0.934149 62.3624 0.719149C62.5334 0.488149 62.7974 0.340156 63.1894 0.289156V0.290163ZM108.746 25.4492C109.112 25.0072 109.672 24.8102 110.403 24.9712C110.808 24.9712 111.216 25.0231 111.614 25.0851C112.03 25.1511 112.423 25.2261 112.822 25.2781C113.613 25.3801 114.337 25.3731 114.997 24.9991L115.149 24.9691C116.342 25.1101 117.542 25.4312 118.646 25.8922L118.737 26.2892C118.159 26.9382 118.007 27.8032 117.775 28.7382C117.551 29.6402 117.249 30.5872 116.301 31.1902C115.555 31.8142 114.702 32.0571 113.842 32.1621C113.411 32.2141 112.973 32.2321 112.545 32.2451C112.12 32.2571 111.707 32.2652 111.303 32.2932C110.921 32.3972 110.546 32.4941 110.173 32.5981L110.12 32.6072C109.397 32.6512 108.866 32.3311 108.509 31.8561C108.159 31.3911 107.975 30.7811 107.903 30.2131L107.957 30.0251C108.217 29.7051 108.196 29.2961 108.13 28.7391C108.07 28.2371 107.975 27.6132 108.252 27.0442C108.263 26.4502 108.404 25.8612 108.746 25.4492Z" fill="#718FD5" stroke="white" stroke-width="0.5" stroke-linejoin="round"/>
</svg>
