<svg width="60" height="86" viewBox="0 0 60 86" fill="none" xmlns="http://www.w3.org/2000/svg">
<path d="M34.485 77.8158C34.789 77.7748 35.087 77.8588 35.367 78.1328C36.223 78.8088 37.227 78.9308 38.309 78.8448C38.851 78.8018 39.403 78.7078 39.96 78.6088C40.512 78.5118 41.0719 78.4098 41.6089 78.3568L41.6349 78.3548C41.7929 78.3558 42.035 78.2948 42.344 78.1988C42.635 78.1088 42.9769 77.9908 43.2859 77.9128C43.5859 77.8368 43.918 77.7798 44.184 77.8518C44.328 77.8898 44.4639 77.9698 44.5569 78.1098C44.6479 78.2468 44.682 78.4138 44.677 78.5938L44.636 78.7238C44.452 79.0048 44.22 79.3208 44.009 79.6278C43.792 79.9418 43.584 80.2628 43.426 80.5868C43.116 81.2178 43.011 81.8148 43.319 82.3738C43.623 82.5698 43.807 82.8078 43.842 83.0938C43.877 83.3858 43.745 83.6538 43.588 83.8708C43.427 84.0918 43.2109 84.3008 43.0099 84.4818C42.7989 84.6728 42.615 84.8258 42.477 84.9638L42.3589 84.9208C42.3579 84.9218 42.357 84.9238 42.355 84.9258C42.345 84.9358 42.328 84.9528 42.309 84.9698C42.293 84.9838 42.257 85.0138 42.209 85.0338C42.182 85.0448 42.144 85.0558 42.098 85.0558C42.091 85.0558 42.083 85.0518 42.075 85.0518C40.655 85.1568 39.595 84.2818 38.614 83.5908C37.336 83.2988 36.152 82.7188 34.998 82.2058C33.816 81.6808 32.656 81.2228 31.39 81.1448L31.334 81.1358C30.877 80.9988 30.585 80.7318 30.468 80.3808C30.355 80.0418 30.422 79.6738 30.572 79.3558C30.723 79.0358 30.97 78.7388 31.263 78.5258C31.519 78.3408 31.825 78.2078 32.146 78.1948L32.285 78.1968L32.416 78.2448C32.642 78.4108 32.84 78.4358 33.033 78.4008C33.244 78.3628 33.455 78.2538 33.701 78.1238C33.929 78.0028 34.202 77.8548 34.485 77.8158ZM42.094 84.8708C42.111 84.8898 42.135 84.9098 42.168 84.9238C42.255 84.9608 42.328 84.9318 42.35 84.9208L42.352 84.9188L42.091 84.8248L42.094 84.8708ZM42.067 84.8348L42.076 84.8198L42.054 84.8118C42.056 84.8168 42.061 84.8248 42.067 84.8348ZM42.1609 84.5748C42.1639 84.5728 42.167 84.5698 42.17 84.5668C42.139 84.5568 42.111 84.5548 42.086 84.5568L42.1609 84.5748ZM14.83 0.356809C15.974 0.207809 17.261 0.0758147 18.287 0.984815C18.739 1.08681 19.021 1.29281 19.146 1.59181C19.268 1.88181 19.211 2.19381 19.158 2.41081C19.144 2.46781 19.129 2.52281 19.116 2.57081C19.111 2.59081 19.106 2.60982 19.101 2.62782C19.128 2.61782 19.16 2.60882 19.194 2.59482L19.437 2.62181C19.713 2.81981 20.056 2.88582 20.494 2.95282C20.908 3.01682 21.398 3.08181 21.879 3.31181C22.014 3.35281 22.236 3.34481 22.533 3.30581C22.806 3.26881 23.15 3.20481 23.423 3.18481C23.563 3.17381 23.708 3.17181 23.838 3.19381C23.966 3.21581 24.112 3.26781 24.217 3.38981C24.327 3.51781 24.356 3.68082 24.337 3.84482C24.318 4.00282 24.253 4.18382 24.152 4.38582L23.987 4.51681C23.683 4.58981 23.44 4.70281 23.272 4.81781C23.135 4.91281 23.07 4.99282 23.045 5.03882C23.051 5.04082 23.058 5.04482 23.067 5.04782C23.184 5.07882 23.424 5.08081 23.828 4.98681L23.861 4.98082C24.117 4.95782 24.379 5.00581 24.611 5.05581C24.856 5.10681 25.066 5.15982 25.271 5.17682C25.469 5.19282 25.6329 5.17081 25.7729 5.09181C25.9129 5.01281 26.063 4.85882 26.2 4.54982L26.424 4.40082C28.154 4.36582 29.716 3.69481 31.386 3.08981L31.4839 3.07481C32.0329 3.10481 32.477 3.12682 32.899 3.25282C33.278 3.36582 33.6289 3.55781 34.0359 3.88681L34.215 4.03581L34.255 4.07982C34.381 4.25682 34.54 4.32682 34.737 4.34582C34.951 4.36582 35.1879 4.32381 35.4579 4.28181C35.7009 4.24381 36.003 4.19882 36.258 4.27682C36.396 4.31982 36.524 4.39982 36.624 4.52882C36.648 4.55982 36.669 4.59282 36.688 4.62782C36.768 4.58082 36.861 4.54281 36.963 4.51181L37.146 4.52582C37.259 4.58182 37.3799 4.62982 37.5099 4.68182C37.6359 4.73182 37.7739 4.78682 37.9059 4.85182C38.1729 4.98282 38.441 5.16782 38.616 5.49382L38.447 5.85582C38.202 5.90782 37.912 5.89181 37.644 5.84181C37.374 5.79081 37.102 5.70282 36.888 5.59282C36.878 5.58682 36.868 5.57982 36.858 5.57382C36.87 5.59582 36.881 5.61681 36.894 5.63481C36.984 5.75081 37.135 5.84082 37.347 5.91182C37.559 5.98282 37.7969 6.02481 38.0359 6.06781C38.2479 6.10681 38.486 6.15181 38.662 6.23381L38.663 6.23282C38.896 6.32282 39.103 6.50381 39.272 6.71481C39.443 6.92881 39.587 7.18981 39.687 7.46681C39.883 8.00681 39.933 8.67581 39.595 9.17381L39.545 9.22781C39.329 9.40081 39.129 9.57181 38.973 9.73381C38.813 9.90181 38.724 10.0368 38.696 10.1358C38.684 10.1798 38.685 10.2088 38.691 10.2288C38.697 10.2488 38.713 10.2798 38.758 10.3188C38.857 10.4058 39.071 10.5078 39.476 10.5898C39.941 10.6618 40.256 10.8048 40.426 11.0528C40.596 11.3018 40.569 11.5878 40.538 11.7958C40.53 11.8498 40.52 11.9048 40.511 11.9558C40.503 12.0078 40.495 12.0558 40.488 12.1028C40.475 12.1988 40.47 12.2788 40.477 12.3468C40.484 12.4118 40.503 12.4648 40.535 12.5108C40.559 12.5458 40.598 12.5848 40.66 12.6248L40.73 12.6658L40.757 12.6818C41.06 12.8858 41.227 13.1318 41.278 13.4098C41.327 13.6758 41.2619 13.9358 41.1819 14.1578C41.1419 14.2708 41.093 14.3818 41.049 14.4848C41.003 14.5908 40.96 14.6888 40.925 14.7828C40.854 14.9688 40.827 15.1038 40.842 15.2078C40.995 15.6388 41.216 15.8778 41.503 16.1468C41.799 16.4258 42.1719 16.7408 42.5439 17.3058L42.585 17.4478C42.581 17.6528 42.521 17.9128 42.427 18.1698C42.331 18.4298 42.193 18.7058 42.016 18.9428C41.841 19.1778 41.615 19.3918 41.34 19.4998C41.052 19.6128 40.7319 19.5998 40.4109 19.4148L40.2859 19.1858C40.2979 18.9358 40.206 18.8098 40.097 18.7388C39.972 18.6578 39.79 18.6268 39.612 18.6478C39.526 18.6588 39.451 18.6798 39.395 18.7058C39.375 18.7158 39.3589 18.7258 39.3459 18.7338C39.3659 18.7528 39.4 18.7798 39.456 18.8108L39.407 19.2678C38.894 19.4288 38.396 19.5558 37.922 19.6768C37.445 19.7988 36.992 19.9148 36.556 20.0568L36.526 20.0638C36.276 20.1128 36.038 20.1478 35.819 20.1838C35.598 20.2188 35.394 20.2548 35.202 20.3028C34.822 20.3958 34.49 20.5348 34.175 20.8098L34.12 20.8458C33.671 21.0668 33.215 21.1908 32.761 21.3138C32.303 21.4388 31.838 21.5648 31.336 21.7868L31.178 21.8018C30.995 21.7598 30.777 21.7738 30.568 21.8378C30.359 21.9018 30.176 22.0098 30.055 22.1328C29.935 22.2558 29.895 22.3738 29.908 22.4758C29.921 22.5698 29.989 22.7078 30.207 22.8668C30.386 22.8628 30.54 22.8768 30.667 22.9148C30.82 22.9608 30.95 23.0468 31.025 23.1868C31.096 23.3198 31.096 23.4618 31.081 23.5768C31.065 23.6928 31.028 23.8128 30.992 23.9198C30.914 24.1548 30.84 24.3448 30.83 24.5198C30.825 24.5998 30.8359 24.6618 30.8589 24.7108C30.8809 24.7568 30.923 24.8098 31.008 24.8618L31.118 25.0058C31.238 25.4148 31.564 25.6138 32.016 25.7728C32.128 25.8128 32.244 25.8478 32.363 25.8838C32.48 25.9188 32.602 25.9558 32.72 25.9938C32.893 26.0508 33.0729 26.1188 33.2339 26.2128L33.387 26.3148L33.389 26.3158C33.769 26.6128 34.169 26.9678 34.592 27.2378C35.019 27.5108 35.391 27.6428 35.699 27.5708L35.895 27.6068C36.178 27.7978 36.823 28.2528 37.213 28.7068C37.311 28.8218 37.401 28.9448 37.464 29.0698C37.513 29.1698 37.551 29.2838 37.556 29.4028C37.615 29.3908 37.6739 29.3768 37.7339 29.3658L37.894 29.3918C39.139 30.0538 40.7079 29.8778 41.4579 28.6818C41.6419 28.3288 41.889 28.1148 42.189 28.0188C42.483 27.9258 42.793 27.9578 43.08 28.0238C43.364 28.0908 43.665 28.2018 43.931 28.2898C44.14 28.3588 44.332 28.4158 44.508 28.4458L44.678 28.4668L44.731 28.4758C46.169 28.8868 47.573 29.1828 48.985 28.8748L49.2679 28.8048C49.7829 28.6478 50.4939 28.7098 51.0099 28.9798C51.2719 29.1178 51.509 29.3238 51.628 29.6078C51.748 29.8978 51.73 30.2288 51.562 30.5808L51.534 30.6588C51.48 30.8348 51.514 30.9768 51.599 31.1118C51.707 31.2838 51.899 31.4458 52.138 31.6108C52.256 31.6918 52.377 31.7688 52.498 31.8478C52.616 31.9238 52.736 32.0018 52.841 32.0818C52.944 32.1598 53.046 32.2498 53.121 32.3518C53.197 32.4548 53.258 32.5898 53.242 32.7488L53.026 32.9718C52.725 33.0108 52.542 33.1218 52.405 33.2558C52.256 33.4018 52.16 33.5738 52.027 33.7788C51.903 33.9698 51.744 34.1918 51.481 34.3208C51.212 34.4538 50.877 34.4698 50.442 34.3598L50.36 34.3228C50.163 34.1858 49.945 34.1288 49.753 34.1238C49.603 34.1198 49.481 34.1468 49.401 34.1808C49.421 34.1888 49.4439 34.2008 49.4709 34.2098C49.5229 34.2268 49.5859 34.2428 49.6609 34.2578L49.925 34.2978L50.123 34.4368C50.199 34.5948 50.214 34.7568 50.164 34.9098C50.116 35.0538 50.02 35.1658 49.924 35.2508C49.827 35.3368 49.712 35.4108 49.605 35.4768C49.488 35.5478 49.3959 35.5988 49.2939 35.6638C49.1969 35.7248 49.124 35.7778 49.074 35.8278C49.025 35.8768 49.015 35.9068 49.013 35.9198C49.012 35.9268 49.01 35.9598 49.058 36.0298C49.11 36.1048 49.2079 36.2048 49.3849 36.3328L49.483 36.5808C49.344 37.3408 48.771 37.7038 48.236 37.9308C47.974 38.0418 47.687 38.1338 47.465 38.2158C47.305 38.2738 47.176 38.3298 47.077 38.3858C47.105 38.5098 47.117 38.6258 47.098 38.7308C47.084 38.8138 47.051 38.8938 46.995 38.9618C46.938 39.0298 46.868 39.0738 46.797 39.1008C46.664 39.1508 46.5119 39.1478 46.3849 39.1348C46.2509 39.1208 46.103 39.0908 45.96 39.0608C45.659 38.9998 45.372 38.9388 45.126 38.9498C44.894 38.9608 44.7519 39.0328 44.6689 39.1968L44.402 39.3308C42.95 39.0728 41.458 39.0988 40.509 40.2118L40.295 40.2978C39.44 40.2158 38.286 40.0628 37.311 39.8768C36.893 39.8408 36.4749 39.7998 36.0569 39.7568L36.062 39.7688C35.977 40.0148 35.786 40.2088 35.625 40.3518C35.543 40.4238 35.4539 40.4948 35.3849 40.5538C35.3099 40.6158 35.254 40.6648 35.216 40.7068C35.215 40.7078 35.213 40.7088 35.213 40.7098C35.241 40.7258 35.282 40.7468 35.344 40.7698C35.456 40.8138 35.616 40.8608 35.836 40.9098L35.952 41.3368C35.809 41.4708 35.733 41.5918 35.699 41.6968C35.666 41.7998 35.666 41.9028 35.696 42.0128C35.759 42.2378 35.951 42.4868 36.246 42.7598C36.439 42.8348 36.718 42.9508 36.909 43.1198C37.016 43.2148 37.1209 43.3478 37.1479 43.5238C37.1759 43.7058 37.115 43.8838 36.994 44.0448L36.572 44.0098C36.416 43.7088 36.263 43.5908 36.129 43.5398C35.985 43.4858 35.818 43.4908 35.593 43.5258C35.221 43.5848 34.68 43.7468 34.129 43.5068C33.84 43.8288 33.418 44.0018 33.004 44.1318C32.484 44.2948 31.977 44.3958 31.5 44.6038L31.483 44.6108C31.23 44.7008 30.999 44.7328 30.797 44.7538C30.585 44.7748 30.431 44.7818 30.279 44.8148C30.139 44.8458 30.018 44.8968 29.899 44.9978C29.804 45.0788 29.704 45.1988 29.597 45.3828C29.845 45.5818 30.164 45.8608 30.427 46.1758C30.74 46.5518 31.038 47.0578 30.902 47.5698L30.704 47.7528C30.419 47.8018 30.252 47.9128 30.154 48.0408C30.054 48.1718 30.004 48.3478 30.006 48.5608C30.008 48.9428 30.177 49.3888 30.407 49.7298L30.509 49.8698L30.515 49.8788C31.257 50.9018 32.294 51.5208 33.467 51.9988L33.977 52.1958L33.988 52.1998L34.928 52.5878C35.254 52.7308 35.582 52.8928 35.87 53.0888C36.453 53.4858 36.912 54.0468 36.944 54.9068C37.417 56.5508 38.651 57.7668 39.996 58.8518C40.511 59.1228 40.874 59.4948 41.206 59.7788C41.506 60.0358 41.801 60.2448 42.215 60.3468L42.399 60.3838L42.441 60.3948C43.92 60.8958 45.447 60.8258 47.02 60.6168L47.108 60.6208C47.351 60.6758 47.5469 60.7368 47.6949 60.8108C47.8399 60.8818 47.97 60.9788 48.039 61.1188C48.114 61.2728 48.092 61.4268 48.035 61.5508C47.981 61.6668 47.891 61.7698 47.801 61.8578C47.621 62.0328 47.361 62.2198 47.141 62.3868C47.004 62.4918 46.8809 62.5898 46.7809 62.6838C47.3559 63.0498 48.021 63.2718 48.728 63.4748C49.517 63.7008 50.3729 63.9048 51.1429 64.2728C52.5169 64.8138 53.857 65.4528 55.188 66.0778L56.522 66.6968L56.651 66.8318C56.814 67.2398 57.204 67.4708 57.698 67.7828C58.162 68.0758 58.704 68.4388 58.887 69.1318L58.886 69.2678C58.822 69.4788 58.748 69.7408 58.657 69.9868C58.567 70.2308 58.454 70.4848 58.303 70.6748C58.148 70.8678 57.921 71.0318 57.619 70.9938C57.358 70.9608 57.11 70.7798 56.863 70.4948C56.556 70.3918 56.352 70.1948 56.204 69.9728C56.054 69.7458 55.945 69.4678 55.849 69.2628C55.745 69.0388 55.648 68.8778 55.514 68.7768C55.393 68.6858 55.208 68.6208 54.877 68.6698L54.87 68.6708C54.244 68.7448 53.637 68.6218 53.155 68.3918C52.736 68.1908 52.382 67.8938 52.212 67.5428C51.987 67.5048 51.816 67.5448 51.67 67.6258C51.488 67.7268 51.326 67.8998 51.155 68.1288C51.071 68.2418 50.988 68.3618 50.901 68.4878C50.815 68.6118 50.725 68.7418 50.629 68.8648C50.469 69.0688 50.283 69.2698 50.053 69.4168C50.05 69.6418 50.004 69.8638 49.954 70.0608C49.887 70.3228 49.82 70.5288 49.798 70.7208C49.776 70.9028 49.804 71.0058 49.868 71.0768C49.923 71.1378 50.032 71.2068 50.25 71.2578L50.507 71.3008L50.574 71.3178C50.707 71.3728 50.84 71.4248 50.974 71.4778C51.107 71.5288 51.241 71.5808 51.369 71.6348C51.623 71.7418 51.875 71.8648 52.078 72.0278C52.285 72.1948 52.449 72.4098 52.514 72.6958C52.571 72.9478 52.542 73.2288 52.438 73.5488C52.619 73.8678 52.6979 74.1618 52.5959 74.4158C52.4829 74.6998 52.193 74.8128 51.956 74.8688C51.706 74.9278 51.402 74.9478 51.138 74.9708C50.859 74.9948 50.622 75.0208 50.452 75.0798L50.4059 75.0908C50.0509 75.1428 49.926 75.2678 49.869 75.3818C49.798 75.5228 49.791 75.7168 49.803 75.9838C49.814 76.2208 49.844 76.5368 49.77 76.8038C49.731 76.9458 49.66 77.0868 49.538 77.2038C49.423 77.3148 49.273 77.3908 49.094 77.4388C48.865 77.5268 48.68 77.6968 48.504 77.9238C48.321 78.1588 48.176 78.4148 47.992 78.6918C47.818 78.9548 47.613 79.2268 47.339 79.4098C47.063 79.5928 46.733 79.6748 46.327 79.6068C45.973 79.6798 45.664 79.5888 45.431 79.3968C45.194 79.2018 45.049 78.9128 44.999 78.6248C44.948 78.3378 44.9869 78.0198 45.1559 77.7658C45.3179 77.5228 45.583 77.3648 45.93 77.3408C46.125 77.1728 46.198 77.0078 46.224 76.8548C46.257 76.6688 46.227 76.4938 46.206 76.2788C46.188 76.1008 46.165 75.8158 46.37 75.6098C46.47 75.5098 46.603 75.4508 46.756 75.4168C46.906 75.3838 47.091 75.3708 47.314 75.3778H47.315C47.487 75.3798 47.586 75.3588 47.637 75.3378C47.66 75.3278 47.67 75.3198 47.673 75.3168C47.674 75.3158 47.675 75.3148 47.676 75.3118C47.679 75.3028 47.685 75.2678 47.664 75.1888C47.644 75.1128 47.604 75.0188 47.549 74.9068C47.493 74.7958 47.427 74.6768 47.355 74.5498C47.285 74.4248 47.21 74.2918 47.144 74.1608C47.025 73.9238 46.906 73.6368 46.927 73.3678C46.898 72.8028 46.616 72.3478 46.293 71.8228C45.985 71.3228 45.6409 70.7598 45.6219 70.0428C45.5199 69.7188 45.4 69.6458 45.318 69.6228C45.196 69.5888 45.032 69.6218 44.77 69.6928C44.538 69.7568 44.233 69.8478 43.928 69.8228C43.619 69.7978 43.329 69.6548 43.081 69.3318C42.727 69.2328 42.4679 69.1338 42.2859 69.0118C42.0719 68.8678 41.963 68.6918 41.926 68.4788C41.894 68.2998 41.915 68.0868 41.925 67.8988C41.934 67.7058 41.935 67.4848 41.894 67.2158C41.765 66.9808 41.604 66.8718 41.428 66.8218C41.23 66.7658 40.994 66.7778 40.729 66.8268C40.599 66.8508 40.467 66.8818 40.336 66.9148C40.207 66.9468 40.073 66.9828 39.95 67.0098C39.827 67.0358 39.7 67.0568 39.582 67.0608C39.465 67.0628 39.331 67.0498 39.212 66.9818L39.255 66.5268C39.426 66.4688 39.528 66.4088 39.585 66.3608C39.612 66.3378 39.626 66.3198 39.633 66.3088C39.638 66.2988 39.639 66.2928 39.639 66.2918C39.64 66.2908 39.64 66.2878 39.637 66.2808C39.635 66.2728 39.629 66.2588 39.615 66.2408C39.587 66.2038 39.5349 66.1598 39.4579 66.1158C39.3019 66.0288 39.082 65.9718 38.868 65.9808C38.656 65.9908 38.476 66.0638 38.358 66.2048L38.0959 66.2858C37.8369 66.2108 37.654 66.0018 37.516 65.7998C37.377 65.5948 37.247 65.3368 37.123 65.1118C36.993 64.8768 36.865 64.6638 36.715 64.5018C36.568 64.3428 36.413 64.2458 36.23 64.2188L36.179 64.2058C35.462 63.9358 34.693 63.8688 33.876 63.7408C33.074 63.6158 32.245 63.4328 31.507 62.9028L31.505 62.9018C29.659 61.5528 27.654 60.2798 25.844 58.8278C23.102 57.9528 21.293 55.5158 20.442 52.9108C19.554 51.0698 17.583 50.1538 15.584 49.7698L15.5359 49.7558C14.2889 49.2418 12.932 49.2738 11.937 50.1708L11.8979 50.1998C11.5969 50.3798 11.305 50.5778 11.006 50.7788C10.709 50.9788 10.405 51.1828 10.09 51.3628C9.45697 51.7248 8.76197 52.0048 7.93597 52.0088L7.711 51.6488C7.942 51.1748 7.90899 50.7878 7.76099 50.5958C7.62999 50.4278 7.307 50.2898 6.646 50.5598L6.51697 50.5758C6.03897 50.5088 5.40096 50.2968 4.90796 49.9558C4.41996 49.6178 4.00195 49.0948 4.16095 48.4168L4.28094 48.2568C4.57094 48.0928 4.736 47.9318 4.815 47.7998C4.889 47.6748 4.88898 47.5768 4.85498 47.4968C4.81698 47.4058 4.71994 47.2978 4.53094 47.2008C4.34394 47.1048 4.08495 47.0288 3.75995 46.9948L3.64795 46.9558C3.44695 46.8238 3.291 46.7028 3.177 46.5908C3.066 46.4818 2.976 46.3608 2.94 46.2268C2.9 46.0728 2.93998 45.9298 3.03198 45.8198C3.11298 45.7238 3.22499 45.6618 3.32599 45.6198C3.52899 45.5348 3.80297 45.4818 4.04297 45.4358C4.29497 45.3878 4.51597 45.3458 4.67297 45.2918C5.07297 45.1108 5.24696 44.9778 5.31396 44.8878C5.34196 44.8508 5.34497 44.8288 5.34497 44.8168C5.34597 44.8018 5.34098 44.7718 5.31598 44.7228C5.29098 44.6718 5.25095 44.6118 5.19495 44.5368C5.14695 44.4728 5.069 44.3718 5.008 44.2878C4.895 44.1338 4.77598 43.9448 4.69598 43.7188C4.29898 43.5928 4.01396 43.4318 3.86896 43.2218C3.78196 43.0958 3.74496 42.9518 3.76996 42.8048C3.79396 42.6638 3.86996 42.5468 3.95996 42.4538C4.13596 42.2718 4.40995 42.1378 4.69995 42.0578C4.72895 42.0488 4.75998 42.0418 4.78998 42.0348C4.69398 41.7998 4.62196 41.5028 4.55396 41.2238C4.47996 40.9158 4.40595 40.6198 4.30695 40.3758C4.20595 40.1258 4.09699 39.9838 3.98499 39.9268C3.89299 39.8798 3.73397 39.8578 3.43597 40.0248L3.34198 40.0568C3.12798 40.0808 2.92399 40.1888 2.70599 40.3568C2.47899 40.5328 2.28598 40.7328 2.04498 40.9448C1.81998 41.1428 1.56099 41.3438 1.26099 41.4338C0.944986 41.5278 0.607 41.4928 0.25 41.2738L0.255981 40.8438C0.457981 40.7278 0.541947 40.5768 0.582947 40.3918C0.627947 40.1838 0.614953 39.9568 0.613953 39.6778C0.613953 39.4218 0.624978 39.1128 0.776978 38.8498C0.930978 38.5828 1.19996 38.4068 1.60596 38.3218C1.95296 38.0278 2.15998 37.7348 2.42798 37.4148C2.70198 37.0888 3.01895 36.7678 3.56195 36.4948C4.22595 36.0118 4.36597 35.8258 4.42297 35.6808C4.45597 35.5948 4.465 35.5208 4.5 35.3548C4.533 35.1998 4.58396 35.0098 4.69696 34.7538L4.90796 34.6048C5.18096 34.5858 5.43997 34.6278 5.67297 34.6768C5.91697 34.7268 6.11296 34.7788 6.31696 34.8048C6.51196 34.8288 6.68198 34.8218 6.84198 34.7638C6.98998 34.7088 7.14797 34.6008 7.31897 34.3938C7.10497 33.9188 7.20396 33.4348 7.31696 33.0228C7.38496 32.7768 7.454 32.5658 7.5 32.3478C7.544 32.1358 7.55797 31.9478 7.52197 31.7768L7.63599 31.5138C8.04299 31.2598 8.14 30.8538 8.276 30.3308C8.404 29.8378 8.57195 29.2438 9.25195 28.9408C9.55195 28.7668 9.78196 28.5998 9.93396 28.4508C10.098 28.2918 10.134 28.1918 10.136 28.1558C10.136 28.1488 10.135 28.1438 10.128 28.1348C10.116 28.1198 10.084 28.0908 10.012 28.0598C9.86896 27.9968 9.621 27.9468 9.237 27.9338C8.572 28.1488 8.04699 27.9168 7.62299 27.7148C7.16499 27.4958 6.86299 27.3438 6.50299 27.4688L6.43097 27.4818C5.30797 27.5298 4.41599 27.6148 3.41699 26.7928C3.08399 26.6508 2.831 26.4798 2.659 26.2748C2.477 26.0588 2.39297 25.8168 2.38397 25.5668C2.36997 25.2048 2.51598 24.8368 2.70398 24.5018C2.32998 24.4008 1.87597 24.2108 1.52997 23.9578C1.29397 23.7848 1.07198 23.5578 0.987976 23.2768C0.896976 22.9718 0.984 22.6608 1.25 22.3808L1.315 22.3308C1.573 22.1958 1.69995 22.0188 1.75195 21.8338C1.80495 21.6418 1.783 21.4138 1.69 21.1778C1.5 20.6948 1.048 20.2638 0.591003 20.1518L0.434998 19.7808C0.553998 19.5818 0.559987 19.4338 0.536987 19.3118C0.523987 19.2458 0.501961 19.1798 0.472961 19.1088C0.448961 19.0478 0.406958 18.9548 0.381958 18.8808C0.353958 18.7998 0.325999 18.6958 0.335999 18.5828C0.345999 18.4608 0.397 18.3478 0.487 18.2508C0.607 18.1208 0.799984 18.0128 1.07098 17.9118C1.03598 17.7938 1.03497 17.6698 1.04797 17.5568C1.07097 17.3458 1.15598 17.0858 1.20398 16.8908C1.25798 16.6718 1.28296 16.4848 1.24896 16.3228C1.21796 16.1798 1.13499 16.0308 0.911987 15.8908C0.722987 15.8268 0.568947 15.7518 0.457947 15.6568C0.334947 15.5518 0.246949 15.4078 0.259949 15.2328C0.270949 15.0718 0.365961 14.9458 0.459961 14.8588C0.556961 14.7698 0.681988 14.6958 0.812988 14.6368C1.07599 14.5188 1.40798 14.4428 1.72198 14.4398C1.98698 14.4378 2.28297 14.4888 2.50397 14.6558C3.59697 14.5818 4.359 14.0308 4.854 13.2018L4.95496 13.1068C5.28696 12.9378 5.36395 12.8028 5.37695 12.7448C5.38495 12.7048 5.37497 12.6278 5.24097 12.5148C5.11097 12.4048 4.90799 12.3018 4.67499 12.2298C4.44299 12.1588 4.19995 12.1248 4.00195 12.1338L3.74396 11.9248C3.71096 11.7218 3.715 11.5398 3.771 11.3848C3.83 11.2218 3.93898 11.1078 4.07098 11.0358C4.19498 10.9678 4.33395 10.9398 4.45795 10.9258C4.58195 10.9108 4.71496 10.9098 4.82996 10.9068C4.94996 10.9038 5.05396 10.8998 5.14496 10.8868C5.23696 10.8728 5.29398 10.8528 5.32898 10.8298C5.35598 10.8118 5.37695 10.7878 5.38995 10.7368C5.40595 10.6778 5.41195 10.5728 5.37695 10.4018L5.49597 10.1358C5.88897 9.90782 6.04698 9.46982 5.98798 9.05882C5.92898 8.64482 5.666 8.32382 5.276 8.27382L5.06897 8.10182C4.96297 7.76782 4.98997 7.46182 5.12897 7.20282C5.26297 6.95082 5.48999 6.76582 5.73999 6.63582C6.23599 6.37682 6.897 6.29681 7.414 6.36781L7.41797 6.36882C7.61697 6.39882 7.85296 6.38082 8.12396 6.34482C8.38096 6.30982 8.68295 6.25581 8.95795 6.23681C9.23495 6.21781 9.532 6.22882 9.797 6.34482C10.074 6.46582 10.289 6.68982 10.42 7.03882L10.434 7.14981C10.418 7.31881 10.425 7.43481 10.44 7.50981C10.449 7.55281 10.459 7.57682 10.466 7.58882C10.48 7.58782 10.51 7.58082 10.565 7.54982C10.669 7.48982 10.782 7.37881 10.857 7.26281C10.894 7.20481 10.916 7.15681 10.926 7.12181C10.935 7.08481 10.925 7.08681 10.935 7.10881L11.291 6.79081C11.507 6.91881 11.6609 6.99481 11.7679 7.03581C11.7879 7.04381 11.807 7.04581 11.821 7.05081C11.821 7.02281 11.821 6.98881 11.819 6.94581C11.81 6.77381 11.779 6.48182 11.847 6.21782C11.884 6.07782 11.949 5.93582 12.063 5.81082C12.178 5.68682 12.332 5.59182 12.526 5.52882L12.707 5.53981C12.837 5.59981 13.107 5.64782 13.444 5.66882C13.639 5.68082 13.843 5.68182 14.032 5.67682C13.856 5.52782 13.744 5.37982 13.693 5.21782C13.638 5.03982 13.665 4.88182 13.683 4.77682C13.704 4.66182 13.714 4.60882 13.702 4.55182C13.692 4.50482 13.66 4.42381 13.526 4.30381L13.553 4.06682C13.51 4.06082 13.461 4.05482 13.405 4.04982C13.282 4.03782 13.147 4.02981 13.014 4.02081C12.886 4.01281 12.754 4.00482 12.651 3.98982C12.601 3.98282 12.5459 3.97281 12.4969 3.95681C12.4729 3.94881 12.44 3.93782 12.409 3.91882C12.38 3.90082 12.3269 3.86382 12.2939 3.79582C12.2539 3.71482 12.261 3.62882 12.292 3.56082C12.317 3.50482 12.356 3.46781 12.381 3.44781C12.43 3.40681 12.494 3.37482 12.553 3.34982C12.678 3.29582 12.8709 3.23281 13.1429 3.15681L13.196 3.14781C13.41 3.13681 13.566 3.11081 13.678 3.07881C13.79 3.04581 13.841 3.01081 13.86 2.99081C13.873 2.97781 13.874 2.97082 13.874 2.95782C13.873 2.93482 13.864 2.89081 13.827 2.82081C13.751 2.67881 13.6 2.50481 13.405 2.31581C13.213 2.13081 12.9979 1.94781 12.8069 1.78181L12.778 1.75282C12.641 1.58782 12.543 1.43181 12.492 1.28381C12.44 1.13181 12.434 0.970811 12.509 0.824811C12.58 0.685811 12.706 0.60081 12.824 0.54881C12.943 0.49581 13.081 0.464814 13.219 0.443814C13.492 0.403814 13.819 0.400817 14.106 0.396817C14.408 0.393817 14.656 0.389808 14.814 0.358808L14.83 0.356809ZM16.146 64.0228C16.611 64.4848 17.189 65.0098 17.64 65.5908C18.096 66.1758 18.451 66.8538 18.451 67.6418L18.374 67.8218C17.914 68.2618 17.792 68.7878 17.801 69.3808C17.805 69.6798 17.843 69.9898 17.887 70.3108C17.929 70.6258 17.977 70.9568 17.996 71.2758L17.989 71.3528C17.893 71.7338 17.737 72.4888 17.468 73.0318C17.335 73.2998 17.149 73.5708 16.883 73.6978C16.596 73.8348 16.288 73.7738 15.987 73.5518C15.717 73.4488 15.514 73.4308 15.352 73.4548C15.187 73.4798 15.0409 73.5528 14.8929 73.6658C14.7409 73.7828 14.599 73.9318 14.431 74.1058C14.268 74.2758 14.084 74.4648 13.866 74.6288L13.691 74.6788C13.081 74.6188 12.386 74.2838 11.935 73.7958C11.708 73.5488 11.532 73.2518 11.47 72.9188C11.411 72.5918 11.466 72.2478 11.662 71.9088C11.857 71.1768 12.011 70.3588 12.009 69.5728C12.006 68.7978 11.848 68.0728 11.45 67.4858C10.828 67.1878 10.479 66.6278 10.553 66.1208C10.592 65.8488 10.755 65.6128 11.03 65.4838C11.295 65.3608 11.6369 65.3488 12.0359 65.4498H12.037C12.742 65.6058 13.371 65.4448 13.988 65.1388C14.624 64.8228 15.192 64.3868 15.839 63.9878L16.146 64.0228ZM36.963 5.04681C36.998 5.07681 37.049 5.11181 37.119 5.14781C37.281 5.23181 37.504 5.30781 37.735 5.35081C37.754 5.35381 37.773 5.35482 37.792 5.35782C37.758 5.33882 37.723 5.31782 37.685 5.29982C37.574 5.24482 37.455 5.19781 37.325 5.14581C37.23 5.10881 37.128 5.06582 37.027 5.01982C37.001 5.03082 36.979 5.03781 36.963 5.04681Z" fill="#9FE2AF" stroke="white" stroke-width="0.5" stroke-linejoin="round"/>
</svg>
