<svg width="82" height="64" viewBox="0 0 82 64" fill="none" xmlns="http://www.w3.org/2000/svg">
<path d="M21.79 1.15514C24.025 0.660138 26.449 0.0171385 28.795 0.334138L28.852 0.349138C29.511 0.603138 30.142 0.847141 30.354 0.940141C30.38 0.951141 30.407 0.963138 30.427 0.974138C30.433 0.977138 30.456 0.990142 30.48 1.00914C30.487 1.01514 30.5 1.02514 30.514 1.04114C30.524 1.05314 30.554 1.09115 30.568 1.15015C30.585 1.22815 30.566 1.31915 30.497 1.38515C30.447 1.43415 30.391 1.44714 30.373 1.45014C30.333 1.45914 30.3 1.45515 30.294 1.45415C30.282 1.45315 30.271 1.45214 30.264 1.45014C30.25 1.44814 30.236 1.44415 30.224 1.44115C30.199 1.43415 30.166 1.42415 30.126 1.41115C29.968 1.36215 29.66 1.25915 29.159 1.08515C29.162 1.09715 29.165 1.11115 29.169 1.12415C29.201 1.21315 29.25 1.31715 29.313 1.43015C29.44 1.65615 29.616 1.89613 29.795 2.07713C29.885 2.16813 29.971 2.24015 30.047 2.28815C30.087 2.31315 30.12 2.32914 30.147 2.33914L30.206 2.35414L30.256 2.36214C31.083 2.58414 31.897 2.49514 32.719 2.27614C33.559 2.05214 34.343 1.71414 35.187 1.43814L35.405 1.88214C35.242 1.99214 34.951 2.10714 34.663 2.21514C34.359 2.32914 34.03 2.44615 33.747 2.56615C33.608 2.62515 33.485 2.68314 33.387 2.73714C34.039 2.54214 34.656 2.23415 35.344 1.96715C36.096 1.67515 36.901 1.45114 37.788 1.59914C41.922 1.94014 46.061 1.74914 50.221 1.58614L50.273 1.58914C51.459 1.79214 52.325 2.44515 52.724 3.60915C53.61 5.35315 54.47 7.21415 54.95 9.12015L54.951 9.23815C54.861 9.61815 54.647 9.86015 54.37 10.0141C54.109 10.1591 53.795 10.2211 53.508 10.2691C53.207 10.3191 52.931 10.3541 52.676 10.4311C52.428 10.5061 52.232 10.6131 52.093 10.7881L52.058 10.8241C51.714 11.1131 51.579 11.2921 51.541 11.3941C51.534 11.4151 51.532 11.4281 51.532 11.4341C51.531 11.4391 51.532 11.4411 51.533 11.4431C51.534 11.4461 51.543 11.4651 51.583 11.4961C51.678 11.5681 51.843 11.6351 52.087 11.7241C52.315 11.8061 52.596 11.9021 52.859 12.0331C53.248 12.2001 53.485 12.4371 53.58 12.7421C53.672 13.0361 53.613 13.3431 53.531 13.6111C53.488 13.7471 53.436 13.8831 53.385 14.0131C53.333 14.1451 53.284 14.2691 53.241 14.3901C53.158 14.6211 53.12 14.8001 53.133 14.9411C53.251 15.1471 53.355 15.3531 53.453 15.5521C53.561 15.7701 53.663 15.9781 53.781 16.1801C54.01 16.5761 54.295 16.9451 54.762 17.2761C54.974 17.3741 55.137 17.4641 55.256 17.5501C55.376 17.6371 55.479 17.7391 55.528 17.8651C55.583 18.0101 55.552 18.1411 55.497 18.2401C55.45 18.3261 55.379 18.3981 55.335 18.4441C55.282 18.4991 55.249 18.5341 55.227 18.5681C55.217 18.5821 55.213 18.5921 55.211 18.5971C55.21 18.6011 55.209 18.6021 55.209 18.6041C55.209 18.6051 55.211 18.6361 55.265 18.7011C55.321 18.7681 55.42 18.8591 55.59 18.9741L55.696 19.1361C55.772 19.5521 55.712 19.8781 55.509 20.1201C55.318 20.3491 55.034 20.4551 54.778 20.5261C54.646 20.5611 54.508 20.5921 54.377 20.6201C54.244 20.6501 54.117 20.6781 53.996 20.7131C53.753 20.7841 53.568 20.8741 53.443 21.0131L53.397 21.0531C51.893 22.0701 50.367 23.2101 49.147 24.4661C49 24.6251 48.968 24.8111 49.012 25.0351C49.058 25.2731 49.184 25.5281 49.323 25.7781C49.388 25.8951 49.461 26.0221 49.517 26.1271C49.572 26.2311 49.628 26.3471 49.653 26.4541C49.676 26.5591 49.686 26.7541 49.509 26.8731C49.438 26.9211 49.358 26.9381 49.291 26.9441C49.227 26.9491 49.158 26.9441 49.086 26.9341C48.95 26.9361 48.805 26.9271 48.683 26.9211C48.573 26.9161 48.477 26.9151 48.392 26.9211L48.378 26.9931C47.999 27.4441 47.675 27.9801 47.313 28.5231C47.077 28.8761 46.824 29.2271 46.538 29.5371C46.895 29.5721 47.256 29.6811 47.595 29.9541C48.559 30.3241 49.54 30.7081 50.441 31.2871L50.617 31.2241C51.152 31.3051 51.686 31.2841 52.253 31.2731C52.809 31.2611 53.393 31.2601 53.986 31.3951C55.276 31.6461 56.612 31.7741 57.9 31.6191L58.166 31.7881C58.245 32.0231 58.536 32.2851 58.942 32.4101C59.33 32.5301 59.76 32.5021 60.097 32.2541C60.517 31.7261 61.141 31.6241 61.713 31.5991C61.862 31.5921 62.012 31.5911 62.159 31.5901C62.306 31.5891 62.45 31.5891 62.59 31.5851C62.873 31.5771 63.129 31.5531 63.353 31.4871L63.482 31.4841C64.055 31.6211 64.464 31.4421 64.86 31.1621C65.071 31.0131 65.249 30.8581 65.469 30.6891C65.677 30.5291 65.907 30.3711 66.167 30.2721L66.198 30.2621C66.814 30.1131 67.532 30.0791 68.168 30.2611C68.803 30.4431 69.364 30.8461 69.632 31.5631C70.54 33.0251 71.673 34.4211 73.008 35.4481C73.65 35.6071 74.062 36.0591 74.325 36.5761C74.592 37.1051 74.717 37.7261 74.781 38.2411L74.783 38.2831C74.767 38.6291 74.685 38.9601 74.589 39.2731C74.541 39.4291 74.487 39.5841 74.436 39.7351C74.384 39.8861 74.334 40.0341 74.288 40.1801C74.107 40.7661 74.021 41.2961 74.272 41.8511L74.28 42.0371C74.198 42.2691 74.187 42.4211 74.203 42.5281C74.22 42.6311 74.266 42.7201 74.349 42.8191C74.44 42.9271 74.552 43.0251 74.704 43.1711C74.839 43.3011 74.989 43.4551 75.132 43.6541C75.64 43.9721 76.061 44.0121 76.464 43.9581C76.678 43.9301 76.89 43.8751 77.118 43.8141C77.332 43.7561 77.564 43.6921 77.805 43.6521C78.714 43.3591 79.715 42.9291 80.808 43.3041L81.029 43.3911L81.044 43.3991C81.374 43.5741 81.548 43.8371 81.566 44.1491C81.582 44.4361 81.464 44.7251 81.313 44.9741C81.009 45.4731 80.489 45.9391 80.156 46.1471L80.005 46.1841C78.787 46.0941 77.717 46.6781 77.09 47.7321L77.069 47.7621C76.679 48.2421 76.484 48.8151 76.359 49.4421C76.296 49.7551 76.252 50.0781 76.208 50.4061C76.165 50.7321 76.121 51.0671 76.06 51.3921L75.989 51.4401C76.01 51.4891 76.027 51.5391 76.037 51.5911C76.091 51.8661 75.998 52.1701 75.849 52.4151C75.698 52.6641 75.463 52.8961 75.176 53.0151C74.908 53.1261 74.6 53.1341 74.299 52.9791C73.916 53.0811 73.652 53.3791 73.468 53.7991C73.273 54.2451 73.186 54.7881 73.146 55.2491C73.183 55.6291 73.042 55.9071 72.819 56.1131C72.608 56.3081 72.319 56.4451 72.086 56.5631C71.834 56.6901 71.633 56.8021 71.503 56.9481C71.422 57.0411 71.363 57.1551 71.355 57.3181C71.847 57.3511 72.262 57.6781 72.567 58.0441C72.932 58.4831 73.198 59.0401 73.326 59.4631L73.096 59.7851C71.659 59.8381 70.225 59.7511 68.826 59.5761C68.262 59.5601 67.779 59.8331 67.282 60.2091C67.158 60.3031 67.035 60.4011 66.911 60.5011C66.789 60.6001 66.664 60.7021 66.538 60.7991C66.288 60.9921 66.024 61.1781 65.742 61.3091L65.569 61.3221C65.177 61.2111 65.021 61.2641 64.957 61.3101C64.886 61.3621 64.833 61.4721 64.792 61.6941C64.773 61.8021 64.76 61.9081 64.741 62.0341C64.722 62.1541 64.699 62.2851 64.661 62.4091C64.582 62.6641 64.426 62.9241 64.088 63.0351L64.08 63.0381C62.71 63.4351 61.124 63.9181 59.664 63.0821C58.832 62.8021 58.052 62.4551 57.238 62.2731C56.436 62.0931 55.657 62.0901 54.887 62.4941L54.855 62.5091C54.048 62.7951 53.208 62.8921 52.388 62.9611C51.559 63.0311 50.758 63.0731 49.983 63.2411L49.68 63.0131C49.663 62.7401 49.685 62.4621 49.713 62.1981C49.742 61.9281 49.775 61.6771 49.786 61.4251C49.809 60.9301 49.742 60.4921 49.403 60.1021L49.361 60.0331C49.176 59.5881 48.738 59.4011 48.193 59.1621C47.694 58.9441 47.068 58.6641 46.943 57.9351L46.941 57.8931L46.928 57.8761C46.868 57.3081 46.901 56.6851 47.133 56.1661C47.372 55.6331 47.818 55.2221 48.537 55.1001C49.071 55.0021 49.452 54.6651 49.559 54.3451C49.61 54.1921 49.6 54.0441 49.523 53.9081C49.443 53.7681 49.273 53.6141 48.955 53.4911L48.848 53.4101C48.722 53.2471 48.534 53.0921 48.305 52.9251C48.089 52.7681 47.819 52.5901 47.594 52.4121C47.141 52.0551 46.687 51.5691 46.865 50.8521L46.933 50.7331C47.066 50.6031 47.213 50.4071 47.385 50.1721C47.551 49.9451 47.738 49.6861 47.935 49.4641C48.072 49.3091 48.227 49.1591 48.396 49.0451C47.965 48.8171 47.571 48.4861 47.437 47.9121L47.595 47.6201C47.974 47.4841 48.236 47.3821 48.4 47.2981C48.406 47.2951 48.412 47.2901 48.417 47.2871C48.393 47.2741 48.363 47.2601 48.33 47.2441C48.157 47.1641 47.906 47.0701 47.569 46.9491C47.418 47.0501 47.275 47.1741 47.125 47.3081C46.953 47.4611 46.763 47.6361 46.564 47.7551C46.357 47.8791 46.112 47.9601 45.832 47.8951C45.581 47.8361 45.342 47.6661 45.102 47.3941C44.024 47.0991 43.432 46.8271 42.555 46.4531L42.492 46.0311C42.673 45.8791 42.818 45.7701 42.911 45.6971C42.837 45.6411 42.73 45.5601 42.617 45.4661L42.639 45.0651C42.795 44.9621 42.879 44.8831 42.919 44.8281C42.933 44.8091 42.938 44.7951 42.941 44.7881C42.934 44.7801 42.92 44.7651 42.892 44.7441C42.838 44.7051 42.757 44.6621 42.646 44.6181C42.424 44.5301 42.139 44.4571 41.852 44.3801C41.596 44.3121 41.321 44.2351 41.132 44.1431C40.501 43.9151 40.096 43.5591 39.85 43.1361C39.624 42.7471 39.543 42.3181 39.521 41.9171C39.429 41.8081 39.299 41.7181 39.128 41.6381C38.926 41.5431 38.718 41.4791 38.483 41.3881C38.266 41.3041 38.026 41.1981 37.851 41.0251C37.714 40.8891 37.625 40.7201 37.598 40.5161C37.189 40.5381 36.768 40.5211 36.331 40.4221C35.409 40.3301 34.522 40.4821 33.638 40.7361C32.738 40.9931 31.888 41.3391 30.975 41.6411C29.376 42.2311 27.4 42.5231 25.747 41.8241L25.7 41.7971C24.936 41.2511 24.101 40.8231 23.239 40.4211C22.384 40.0221 21.487 39.6421 20.64 39.2061L20.584 39.1681C20.283 38.8901 19.758 38.4531 19.393 37.9921C19.209 37.7601 19.049 37.5011 18.979 37.2311C18.907 36.9501 18.933 36.6541 19.127 36.3851L19.247 36.2961C19.562 36.1851 19.64 36.0541 19.664 35.9571C19.697 35.8291 19.664 35.6651 19.597 35.4361C19.567 35.3321 19.528 35.2111 19.5 35.0971C19.473 34.9821 19.452 34.8511 19.461 34.7211C19.472 34.5851 19.516 34.4451 19.621 34.3241C19.724 34.2071 19.867 34.1251 20.04 34.0701L20.059 34.0651C20.307 34.0061 20.463 33.9491 20.554 33.9041C20.507 33.8671 20.445 33.8251 20.366 33.7781C20.276 33.7251 20.15 33.6561 20.053 33.5961C19.955 33.5351 19.841 33.4601 19.762 33.3711C19.721 33.3261 19.677 33.2631 19.655 33.1831C19.63 33.0951 19.638 33.0001 19.683 32.9131C19.724 32.8341 19.789 32.7761 19.852 32.7341C19.916 32.6901 19.994 32.6521 20.08 32.6191L20.17 32.6041C20.403 32.6051 20.701 32.6671 20.978 32.7261C21.269 32.7871 21.556 32.8481 21.81 32.8661C22.073 32.8851 22.239 32.8521 22.328 32.7851C22.394 32.7361 22.476 32.6251 22.441 32.3081L22.596 32.0481C22.814 31.9601 23.033 31.8391 23.27 31.7071C23.329 31.6741 23.389 31.6421 23.451 31.6091C23.304 31.5361 23.164 31.4461 23.035 31.3451C22.568 30.9801 22.156 30.4491 21.907 30.1161L21.857 29.9691C21.855 29.8261 21.882 29.6841 21.911 29.5571C21.925 29.4931 21.941 29.4281 21.956 29.3671C21.972 29.3061 21.987 29.2481 21.999 29.1921C22.052 28.9541 22.053 28.8031 21.985 28.6901L21.977 28.6131H21.975C21.749 28.5831 21.484 28.4711 21.255 28.3801C21.008 28.2821 20.773 28.1951 20.551 28.1671C20.338 28.1411 20.157 28.1721 19.999 28.2921L19.91 28.3361C18.719 28.6411 17.558 28.4901 16.436 28.2241C15.876 28.0911 15.316 27.9271 14.769 27.7751C14.264 27.6341 13.766 27.5031 13.271 27.4081C12.866 27.8541 12.405 28.3981 11.878 28.7811C11.302 29.2011 10.615 29.4571 9.789 29.2241C9.492 29.1991 9.22 29.0911 8.992 29.0041C8.743 28.9101 8.539 28.8381 8.328 28.8361L8.11102 28.7051C7.86402 28.2481 7.53998 27.8301 7.17798 27.5351C6.81498 27.2401 6.43203 27.0821 6.05603 27.1041L5.92499 27.0751C5.47999 26.8401 5.02703 26.5171 4.60303 26.2141C4.19003 25.9191 3.80598 25.6471 3.45398 25.4621C2.92098 25.4771 2.46702 25.2161 2.10602 24.9041C1.72602 24.5751 1.414 24.1601 1.19 23.8731L1.16602 23.6021C1.36302 23.2321 1.43701 23.0021 1.45001 22.8491C1.46001 22.7181 1.42599 22.6371 1.35199 22.5511C1.25899 22.4421 1.12801 22.3501 0.924011 22.1821C0.732011 22.0241 0.508992 21.8221 0.291992 21.5301L0.25 21.3251C0.399 20.6891 0.960026 20.4931 1.43903 20.3801C1.56303 20.3511 1.69103 20.3251 1.81403 20.3001C1.93803 20.2741 2.05803 20.2491 2.17303 20.2191C2.40603 20.1591 2.60101 20.0871 2.75201 19.9811L2.89398 19.9351C3.85598 19.9251 4.459 19.4972 5.258 19.0082L5.37799 18.9721C5.79599 18.9541 6.17199 18.8501 6.58899 18.7271C6.97599 18.6121 7.39901 18.4841 7.89001 18.4201C7.96801 18.3511 8.06301 18.3031 8.14801 18.2701C8.27201 18.2201 8.418 18.1851 8.565 18.1551C8.85 18.0991 9.21001 18.0581 9.47601 18.0151C9.61701 17.9921 9.73803 17.9681 9.83203 17.9411C9.85403 17.9341 9.87198 17.9261 9.88898 17.9201C9.86298 17.8971 9.832 17.8671 9.789 17.8361L9.72504 17.5011C9.81004 17.3651 9.91402 17.2571 10.038 17.1871C10.166 17.1151 10.301 17.0921 10.433 17.1041C10.68 17.1251 10.916 17.2671 11.111 17.4051C11.213 17.4781 11.316 17.5591 11.413 17.6361C11.513 17.7141 11.607 17.7881 11.701 17.8571C11.88 17.9881 12.025 18.0691 12.142 18.0981C12.203 18.0921 12.258 18.0861 12.308 18.0761C12.303 18.0591 12.299 18.0411 12.297 18.0231C12.288 17.9391 12.306 17.8631 12.327 17.8041C12.348 17.7431 12.377 17.6841 12.409 17.6291C12.47 17.5211 12.556 17.4011 12.635 17.2871C12.806 17.0421 12.961 16.8141 13.013 16.6121C13.037 16.5181 13.034 16.4491 13.014 16.3971C12.995 16.3461 12.949 16.2811 12.831 16.2111L12.821 16.2051C12.274 15.8461 12 15.5411 11.783 15.1981C11.679 15.0351 11.588 14.8611 11.491 14.6851C11.392 14.5061 11.28 14.3111 11.128 14.0881L11.178 13.7531C11.475 13.5131 11.67 13.1091 11.673 12.7411C11.675 12.5621 11.631 12.4001 11.541 12.2691C11.453 12.1401 11.309 12.0241 11.081 11.9541L10.907 11.6831C10.977 11.1471 11.007 10.8161 10.898 10.5561C10.799 10.3211 10.558 10.0901 9.914 9.86214C9.677 9.81514 9.48799 9.76215 9.34399 9.69515C9.19999 9.62715 9.06401 9.52815 9.00201 9.37415C8.93701 9.21115 8.98303 9.05615 9.04303 8.94515C9.10303 8.83515 9.19403 8.73114 9.28503 8.64014C9.37603 8.54714 9.48504 8.44914 9.58704 8.35614C9.69304 8.25914 9.796 8.16414 9.888 8.06714C10.081 7.86314 10.189 7.69015 10.204 7.54015L10.207 7.51814C10.233 7.38414 10.193 7.17214 10.103 6.89514C10.06 6.76314 10.012 6.62915 9.96301 6.49515C9.91601 6.36515 9.86898 6.23214 9.83398 6.11214C9.80098 5.99514 9.77198 5.86515 9.77698 5.74715C9.78198 5.62315 9.833 5.45315 10.013 5.37415C10.158 5.31115 10.324 5.33915 10.465 5.38315C10.578 5.41815 10.709 5.47515 10.862 5.55115C10.861 5.54015 10.862 5.52814 10.86 5.51514C10.85 5.44414 10.828 5.35814 10.797 5.25414C10.77 5.16314 10.727 5.03215 10.697 4.92815C10.684 4.88615 10.672 4.84214 10.661 4.79814C10.484 4.90614 10.305 4.95114 10.132 4.93414C9.97002 4.91714 9.82901 4.84715 9.72601 4.74715C9.69401 4.80515 9.64799 4.86113 9.57599 4.89613C9.45799 4.95313 9.335 4.93214 9.242 4.89214C9.063 4.81614 8.87902 4.62615 8.69202 4.33315L8.87598 3.94914C9.18498 3.91714 9.44303 4.01115 9.60303 4.16515C9.66503 4.05015 9.77202 3.97615 9.89502 3.94515C10.02 3.91215 10.165 3.91915 10.322 3.95415C10.441 3.98115 10.577 4.02615 10.728 4.09215C10.792 4.00515 10.882 3.93814 10.994 3.89714C11.127 3.84714 11.286 3.83514 11.466 3.84714C12.442 3.71614 13.397 3.51415 14.375 3.33115C15.343 3.15115 16.326 2.99314 17.339 2.95914C18.079 2.75114 18.735 2.36114 19.451 1.97814C20.155 1.60014 20.908 1.23814 21.79 1.15514Z" fill="#9FE2AF"/>
<path d="M12.821 16.2051L12.831 16.2111C12.949 16.2811 12.995 16.3461 13.014 16.3971C13.034 16.4491 13.037 16.5181 13.013 16.6121C12.961 16.8141 12.806 17.0421 12.635 17.2871C12.556 17.4011 12.47 17.5211 12.409 17.6291C12.377 17.6841 12.348 17.7431 12.327 17.8041C12.306 17.8631 12.288 17.9391 12.297 18.0231C12.299 18.0411 12.303 18.0591 12.308 18.0761C12.258 18.0861 12.203 18.0921 12.142 18.0981C12.025 18.0691 11.88 17.9881 11.701 17.8571C11.607 17.7881 11.513 17.7141 11.413 17.6361C11.316 17.5591 11.213 17.4781 11.111 17.4051C10.916 17.2671 10.68 17.1251 10.433 17.1041C10.301 17.0921 10.166 17.1151 10.038 17.1871C9.91402 17.2571 9.81004 17.3651 9.72504 17.5011L9.789 17.8361C9.832 17.8671 9.86298 17.8971 9.88898 17.9201C9.87198 17.9261 9.85403 17.9341 9.83203 17.9411C9.73803 17.9681 9.61701 17.9921 9.47601 18.0151C9.21001 18.0581 8.85 18.0991 8.565 18.1551C8.418 18.1851 8.27201 18.2201 8.14801 18.2701C8.06301 18.3031 7.96801 18.3511 7.89001 18.4201C7.39901 18.4841 6.97599 18.6121 6.58899 18.7271C6.17199 18.8501 5.79599 18.9541 5.37799 18.9721L5.258 19.0082C4.459 19.4972 3.85598 19.9251 2.89398 19.9351L2.75201 19.9811C2.60101 20.0871 2.40603 20.1591 2.17303 20.2191C2.05803 20.2491 1.93803 20.2741 1.81403 20.3001C1.69103 20.3251 1.56303 20.3511 1.43903 20.3801C0.960026 20.4931 0.399 20.6891 0.25 21.3251L0.291992 21.5301C0.508992 21.8221 0.732011 22.0241 0.924011 22.1821C1.12801 22.3501 1.25899 22.4421 1.35199 22.5511C1.42599 22.6371 1.46001 22.7181 1.45001 22.8491C1.43701 23.0021 1.36302 23.2321 1.16602 23.6021L1.19 23.8731C1.414 24.1601 1.72602 24.5751 2.10602 24.9041C2.46702 25.2161 2.92098 25.4771 3.45398 25.4621C3.80598 25.6471 4.19003 25.9191 4.60303 26.2141C5.02703 26.5171 5.47999 26.8401 5.92499 27.0751L6.05603 27.1041C6.43203 27.0821 6.81498 27.2401 7.17798 27.5351C7.53998 27.8301 7.86402 28.2481 8.11102 28.7051L8.328 28.8361C8.539 28.8381 8.743 28.9101 8.992 29.0041C9.22 29.0911 9.492 29.1991 9.789 29.2241C10.615 29.4571 11.302 29.2011 11.878 28.7811C12.405 28.3981 12.866 27.8541 13.271 27.4081C13.766 27.5031 14.264 27.6341 14.769 27.7751C15.316 27.9271 15.876 28.0911 16.436 28.2241C17.558 28.4901 18.719 28.6411 19.91 28.3361L19.999 28.2921C20.157 28.1721 20.338 28.1411 20.551 28.1671C20.773 28.1951 21.008 28.2821 21.255 28.3801C21.484 28.4711 21.749 28.5831 21.975 28.6131H21.977L21.985 28.6901C22.053 28.8031 22.052 28.9541 21.999 29.1921C21.987 29.2481 21.972 29.3061 21.956 29.3671C21.941 29.4281 21.925 29.4931 21.911 29.5571C21.882 29.6841 21.855 29.8261 21.857 29.9691L21.907 30.1161C22.156 30.4491 22.568 30.9801 23.035 31.3451C23.164 31.4461 23.304 31.5361 23.451 31.6091C23.389 31.6421 23.329 31.6741 23.27 31.7071C23.033 31.8391 22.814 31.9601 22.596 32.0481L22.441 32.3081C22.476 32.6251 22.394 32.7361 22.328 32.7851C22.239 32.8521 22.073 32.8851 21.81 32.8661C21.556 32.8481 21.269 32.7871 20.978 32.7261C20.701 32.6671 20.403 32.6051 20.17 32.6041L20.08 32.6191C19.994 32.6521 19.916 32.6901 19.852 32.7341C19.789 32.7761 19.724 32.8341 19.683 32.9131C19.638 33.0001 19.63 33.0951 19.655 33.1831C19.677 33.2631 19.721 33.3261 19.762 33.3711C19.841 33.4601 19.955 33.5351 20.053 33.5961C20.15 33.6561 20.276 33.7251 20.366 33.7781C20.445 33.8251 20.507 33.8671 20.554 33.9041C20.463 33.9491 20.307 34.0061 20.059 34.0651L20.04 34.0701C19.867 34.1251 19.724 34.2071 19.621 34.3241C19.516 34.4451 19.472 34.5851 19.461 34.7211C19.452 34.8511 19.473 34.9821 19.5 35.0971C19.528 35.2111 19.567 35.3321 19.597 35.4361C19.664 35.6651 19.697 35.8291 19.664 35.9571C19.64 36.0541 19.562 36.1851 19.247 36.2961L19.127 36.3851C18.933 36.6541 18.907 36.9501 18.979 37.2311C19.049 37.5011 19.209 37.7601 19.393 37.9921C19.758 38.4531 20.283 38.8901 20.584 39.1681L20.64 39.2061C21.487 39.6421 22.384 40.0221 23.239 40.4211C24.101 40.8231 24.936 41.2511 25.7 41.7971L25.747 41.8241C27.4 42.5231 29.376 42.2311 30.975 41.6411C31.888 41.3391 32.738 40.9931 33.638 40.7361C34.522 40.4821 35.409 40.3301 36.331 40.4221C36.768 40.5211 37.189 40.5381 37.598 40.5161C37.625 40.7201 37.714 40.8891 37.851 41.0251C38.026 41.1981 38.266 41.3041 38.483 41.3881C38.718 41.4791 38.926 41.5431 39.128 41.6381C39.299 41.7181 39.429 41.8081 39.521 41.9171C39.543 42.3181 39.624 42.7471 39.85 43.1361C40.096 43.5591 40.501 43.9151 41.132 44.1431C41.321 44.2351 41.596 44.3121 41.852 44.3801C42.139 44.4571 42.424 44.5301 42.646 44.6181C42.757 44.6621 42.838 44.7051 42.892 44.7441C42.92 44.7651 42.934 44.7801 42.941 44.7881C42.938 44.7951 42.933 44.8091 42.919 44.8281C42.879 44.8831 42.795 44.9621 42.639 45.0651L42.617 45.4661C42.73 45.5601 42.837 45.6411 42.911 45.6971C42.818 45.7701 42.673 45.8791 42.492 46.0311L42.555 46.4531C43.432 46.8271 44.024 47.0991 45.102 47.3941C45.342 47.6661 45.581 47.8361 45.832 47.8951C46.112 47.9601 46.357 47.8791 46.564 47.7551C46.763 47.6361 46.953 47.4611 47.125 47.3081C47.275 47.1741 47.418 47.0501 47.569 46.9491C47.906 47.0701 48.157 47.1641 48.33 47.2441C48.363 47.2601 48.393 47.2741 48.417 47.2871C48.412 47.2901 48.406 47.2951 48.4 47.2981C48.236 47.3821 47.974 47.4841 47.595 47.6201L47.437 47.9121C47.571 48.4861 47.965 48.8171 48.396 49.0451C48.227 49.1591 48.072 49.3091 47.935 49.4641C47.738 49.6861 47.551 49.9451 47.385 50.1721C47.213 50.4071 47.066 50.6031 46.933 50.7331L46.865 50.8521C46.687 51.5691 47.141 52.0551 47.594 52.4121C47.819 52.5901 48.089 52.7681 48.305 52.9251C48.534 53.0921 48.722 53.2471 48.848 53.4101L48.955 53.4911C49.273 53.6141 49.443 53.7681 49.523 53.9081C49.6 54.0441 49.61 54.1921 49.559 54.3451C49.452 54.6651 49.071 55.0021 48.537 55.1001C47.818 55.2221 47.372 55.6331 47.133 56.1661C46.901 56.6851 46.868 57.3081 46.928 57.8761L46.941 57.8931L46.943 57.9351C47.068 58.6641 47.694 58.9441 48.193 59.1621C48.738 59.4011 49.176 59.5881 49.361 60.0331L49.403 60.1021C49.742 60.4921 49.809 60.9301 49.786 61.4251C49.775 61.6771 49.742 61.9281 49.713 62.1981C49.685 62.4621 49.663 62.7401 49.68 63.0131L49.983 63.2411C50.758 63.0731 51.559 63.0311 52.388 62.9611C53.208 62.8921 54.048 62.7951 54.855 62.5091L54.887 62.4941C55.657 62.0901 56.436 62.0931 57.238 62.2731C58.052 62.4551 58.832 62.8021 59.664 63.0821C61.124 63.9181 62.71 63.4351 64.08 63.0381L64.088 63.0351C64.426 62.9241 64.582 62.6641 64.661 62.4091C64.699 62.2851 64.722 62.1541 64.741 62.0341C64.76 61.9081 64.773 61.8021 64.792 61.6941C64.833 61.4721 64.886 61.3621 64.957 61.3101C65.021 61.2641 65.177 61.2111 65.569 61.3221L65.742 61.3091C66.024 61.1781 66.288 60.9921 66.538 60.7991C66.664 60.7021 66.789 60.6001 66.911 60.5011C67.035 60.4011 67.158 60.3031 67.282 60.2091C67.779 59.8331 68.262 59.5601 68.826 59.5761C70.225 59.7511 71.659 59.8381 73.096 59.7851L73.326 59.4631C73.198 59.0401 72.932 58.4831 72.567 58.0441C72.262 57.6781 71.847 57.3511 71.355 57.3181C71.363 57.1551 71.422 57.0411 71.503 56.9481C71.633 56.8021 71.834 56.6901 72.086 56.5631C72.319 56.4451 72.608 56.3081 72.819 56.1131C73.042 55.9071 73.183 55.6291 73.146 55.2491C73.186 54.7881 73.273 54.2451 73.468 53.7991C73.652 53.3791 73.916 53.0811 74.299 52.9791C74.6 53.1341 74.908 53.1261 75.176 53.0151C75.463 52.8961 75.698 52.6641 75.849 52.4151C75.998 52.1701 76.091 51.8661 76.037 51.5911C76.027 51.5391 76.01 51.4891 75.989 51.4401L76.06 51.3921C76.121 51.0671 76.165 50.7321 76.208 50.4061C76.252 50.0781 76.296 49.7551 76.359 49.4421C76.484 48.8151 76.679 48.2421 77.069 47.7621L77.09 47.7321C77.717 46.6781 78.787 46.0941 80.005 46.1841L80.156 46.1471C80.489 45.9391 81.009 45.4731 81.313 44.9741C81.464 44.7251 81.582 44.4361 81.566 44.1491C81.548 43.8371 81.374 43.5741 81.044 43.3991L81.029 43.3911L80.808 43.3041C79.715 42.9291 78.714 43.3591 77.805 43.6521C77.564 43.6921 77.332 43.7561 77.118 43.8141C76.89 43.8751 76.678 43.9301 76.464 43.9581C76.061 44.0121 75.64 43.9721 75.132 43.6541C74.989 43.4551 74.839 43.3011 74.704 43.1711C74.552 43.0251 74.44 42.9271 74.349 42.8191C74.266 42.7201 74.22 42.6311 74.203 42.5281C74.187 42.4211 74.198 42.2691 74.28 42.0371L74.272 41.8511C74.021 41.2961 74.107 40.7661 74.288 40.1801C74.334 40.0341 74.384 39.8861 74.436 39.7351C74.487 39.5841 74.541 39.4291 74.589 39.2731C74.685 38.9601 74.767 38.6291 74.783 38.2831L74.781 38.2411C74.717 37.7261 74.592 37.1051 74.325 36.5761C74.062 36.0591 73.65 35.6071 73.008 35.4481C71.673 34.4211 70.54 33.0251 69.632 31.5631C69.364 30.8461 68.803 30.4431 68.168 30.2611C67.532 30.0791 66.814 30.1131 66.198 30.2621L66.167 30.2721C65.907 30.3711 65.677 30.5291 65.469 30.6891C65.249 30.8581 65.071 31.0131 64.86 31.1621C64.464 31.4421 64.055 31.6211 63.482 31.4841L63.353 31.4871C63.129 31.5531 62.873 31.5771 62.59 31.5851C62.45 31.5891 62.306 31.5891 62.159 31.5901C62.012 31.5911 61.862 31.5921 61.713 31.5991C61.141 31.6241 60.517 31.7261 60.097 32.2541C59.76 32.5021 59.33 32.5301 58.942 32.4101C58.536 32.2851 58.245 32.0231 58.166 31.7881L57.9 31.6191C56.612 31.7741 55.276 31.6461 53.986 31.3951C53.393 31.2601 52.809 31.2611 52.253 31.2731C51.686 31.2841 51.152 31.3051 50.617 31.2241L50.441 31.2871C49.54 30.7081 48.559 30.3241 47.595 29.9541C47.256 29.6811 46.895 29.5721 46.538 29.5371C46.824 29.2271 47.077 28.8761 47.313 28.5231C47.675 27.9801 47.999 27.4441 48.378 26.9931L48.392 26.9211C48.477 26.9151 48.573 26.9161 48.683 26.9211C48.805 26.9271 48.95 26.9361 49.086 26.9341C49.158 26.9441 49.227 26.9491 49.291 26.9441C49.358 26.9381 49.438 26.9211 49.509 26.8731C49.686 26.7541 49.676 26.5591 49.653 26.4541C49.628 26.3471 49.572 26.2311 49.517 26.1271C49.461 26.0221 49.388 25.8951 49.323 25.7781C49.184 25.5281 49.058 25.2731 49.012 25.0351C48.968 24.8111 49 24.6251 49.147 24.4661C50.367 23.2101 51.893 22.0701 53.397 21.0531L53.443 21.0131C53.568 20.8741 53.753 20.7841 53.996 20.7131C54.117 20.6781 54.244 20.6501 54.377 20.6201C54.508 20.5921 54.646 20.5611 54.778 20.5261C55.034 20.4551 55.318 20.3491 55.509 20.1201C55.712 19.8781 55.772 19.5521 55.696 19.1361L55.59 18.9741C55.42 18.8591 55.321 18.7681 55.265 18.7011C55.211 18.6361 55.209 18.6051 55.209 18.6041C55.209 18.6021 55.21 18.6011 55.211 18.5971C55.213 18.5921 55.217 18.5821 55.227 18.5681C55.249 18.5341 55.282 18.4991 55.335 18.4441C55.379 18.3981 55.45 18.3261 55.497 18.2401C55.552 18.1411 55.583 18.0101 55.528 17.8651C55.479 17.7391 55.376 17.6371 55.256 17.5501C55.137 17.4641 54.974 17.3741 54.762 17.2761C54.295 16.9451 54.01 16.5761 53.781 16.1801C53.663 15.9781 53.561 15.7701 53.453 15.5521C53.355 15.3531 53.251 15.1471 53.133 14.9411C53.12 14.8001 53.158 14.6211 53.241 14.3901C53.284 14.2691 53.333 14.1451 53.385 14.0131C53.436 13.8831 53.488 13.7471 53.531 13.6111C53.613 13.3431 53.672 13.0361 53.58 12.7421C53.485 12.4371 53.248 12.2001 52.859 12.0331C52.596 11.9021 52.315 11.8061 52.087 11.7241C51.843 11.6351 51.678 11.5681 51.583 11.4961C51.543 11.4651 51.534 11.4461 51.533 11.4431C51.532 11.4411 51.531 11.4391 51.532 11.4341C51.532 11.4281 51.534 11.4151 51.541 11.3941C51.579 11.2921 51.714 11.1131 52.058 10.8241L52.093 10.7881C52.232 10.6131 52.428 10.5061 52.676 10.4311C52.931 10.3541 53.207 10.3191 53.508 10.2691C53.795 10.2211 54.109 10.1591 54.37 10.0141C54.647 9.86015 54.861 9.61815 54.951 9.23815L54.95 9.12015C54.47 7.21415 53.61 5.35315 52.724 3.60915C52.325 2.44515 51.459 1.79214 50.273 1.58914L50.221 1.58614C46.061 1.74914 41.922 1.94014 37.788 1.59914C36.901 1.45114 36.096 1.67515 35.344 1.96715C34.656 2.23415 34.039 2.54214 33.387 2.73714C33.485 2.68314 33.608 2.62515 33.747 2.56615C34.03 2.44615 34.359 2.32914 34.663 2.21514C34.951 2.10714 35.242 1.99214 35.405 1.88214L35.187 1.43814C34.343 1.71414 33.559 2.05214 32.719 2.27614C31.897 2.49514 31.083 2.58414 30.256 2.36214L30.206 2.35414L30.147 2.33914C30.12 2.32914 30.087 2.31315 30.047 2.28815C29.971 2.24015 29.885 2.16813 29.795 2.07713C29.616 1.89613 29.44 1.65615 29.313 1.43015C29.25 1.31715 29.201 1.21315 29.169 1.12415C29.165 1.11115 29.162 1.09715 29.159 1.08515C29.66 1.25915 29.968 1.36215 30.126 1.41115C30.166 1.42415 30.199 1.43415 30.224 1.44115C30.236 1.44415 30.25 1.44814 30.264 1.45014C30.271 1.45214 30.282 1.45315 30.294 1.45415C30.3 1.45515 30.333 1.45914 30.373 1.45014C30.391 1.44714 30.447 1.43415 30.497 1.38515C30.566 1.31915 30.585 1.22815 30.568 1.15015C30.554 1.09115 30.524 1.05314 30.514 1.04114C30.5 1.02514 30.487 1.01514 30.48 1.00914C30.456 0.990142 30.433 0.977138 30.427 0.974138C30.407 0.963138 30.38 0.951141 30.354 0.940141C30.142 0.847141 29.511 0.603138 28.852 0.349138L28.795 0.334138C26.449 0.0171385 24.025 0.660138 21.79 1.15514C20.908 1.23814 20.155 1.60014 19.451 1.97814C18.735 2.36114 18.079 2.75114 17.339 2.95914C16.326 2.99314 15.343 3.15115 14.375 3.33115C13.397 3.51415 12.442 3.71614 11.466 3.84714C11.286 3.83514 11.127 3.84714 10.994 3.89714C10.882 3.93814 10.792 4.00515 10.728 4.09215C10.577 4.02615 10.441 3.98115 10.322 3.95415C10.165 3.91915 10.02 3.91215 9.89502 3.94515C9.77202 3.97615 9.66503 4.05015 9.60303 4.16515C9.44303 4.01115 9.18498 3.91714 8.87598 3.94914L8.69202 4.33315C8.87902 4.62615 9.063 4.81614 9.242 4.89214C9.335 4.93214 9.45799 4.95313 9.57599 4.89613C9.64799 4.86113 9.69401 4.80515 9.72601 4.74715C9.82901 4.84715 9.97002 4.91714 10.132 4.93414C10.305 4.95114 10.484 4.90614 10.661 4.79814C10.672 4.84214 10.684 4.88615 10.697 4.92815C10.727 5.03215 10.77 5.16314 10.797 5.25414C10.828 5.35814 10.85 5.44414 10.86 5.51514C10.862 5.52814 10.861 5.54015 10.862 5.55115C10.709 5.47515 10.578 5.41815 10.465 5.38315C10.324 5.33915 10.158 5.31115 10.013 5.37415C9.833 5.45315 9.78198 5.62315 9.77698 5.74715C9.77198 5.86515 9.80098 5.99514 9.83398 6.11214C9.86898 6.23214 9.91601 6.36515 9.96301 6.49515C10.012 6.62915 10.06 6.76314 10.103 6.89514C10.193 7.17214 10.233 7.38414 10.207 7.51814L10.204 7.54015C10.189 7.69015 10.081 7.86314 9.888 8.06714C9.796 8.16414 9.69304 8.25914 9.58704 8.35614C9.48504 8.44914 9.37603 8.54714 9.28503 8.64014C9.19403 8.73114 9.10303 8.83515 9.04303 8.94515C8.98303 9.05615 8.93701 9.21115 9.00201 9.37415C9.06401 9.52815 9.19999 9.62715 9.34399 9.69515C9.48799 9.76215 9.677 9.81514 9.914 9.86214C10.558 10.0901 10.799 10.3211 10.898 10.5561C11.007 10.8161 10.977 11.1471 10.907 11.6831L11.081 11.9541C11.309 12.0241 11.453 12.1401 11.541 12.2691C11.631 12.4001 11.675 12.5621 11.673 12.7411C11.67 13.1091 11.475 13.5131 11.178 13.7531L11.128 14.0881C11.28 14.3111 11.392 14.5061 11.491 14.6851C11.588 14.8611 11.679 15.0351 11.783 15.1981C12 15.5411 12.274 15.8461 12.821 16.2051ZM12.821 16.2051L12.958 15.9951" stroke="white" stroke-width="0.5" stroke-linejoin="round"/>
</svg>
