<svg width="279" height="111" viewBox="0 0 279 111" fill="none" xmlns="http://www.w3.org/2000/svg">
<path d="M185.083 0.107046C188.172 -0.145178 191.262 0.076773 194.309 0.476186C196.912 0.338576 199.55 0.349993 202.134 0.689077C203.319 0.497418 204.511 0.574908 205.679 0.682241C206.869 0.791585 208.029 0.930771 209.184 0.872671H209.207C211.702 0.971082 214.349 0.870356 216.772 1.90196C219.406 2.83046 222.158 3.45065 224.913 3.0465L224.992 3.04845C226.903 3.38376 228.829 3.54406 230.769 3.71251L232.715 3.89024L232.804 3.91661C233.026 4.03063 233.204 4.1431 233.337 4.25646C233.468 4.36847 233.57 4.49409 233.621 4.63536C233.675 4.78632 233.662 4.93638 233.596 5.06896C233.533 5.1925 233.431 5.2886 233.325 5.36388C233.114 5.51371 232.817 5.62781 232.524 5.71446C232.226 5.80268 231.906 5.86978 231.632 5.91857L231.611 5.9215C227.682 6.27544 223.698 6.44936 219.782 6.76524H219.761C217.25 6.75059 214.737 6.6699 212.227 6.59239C209.724 6.51506 207.224 6.44084 204.728 6.44103C201.849 6.85802 198.927 6.81192 196.045 6.83653C193.149 6.86128 190.286 6.95764 187.487 7.65099L187.434 7.65782C186.992 7.66896 186.377 7.75469 185.91 7.94591C185.676 8.04176 185.502 8.15492 185.399 8.27794C185.329 8.36226 185.29 8.45345 185.291 8.56114C186.108 8.92232 186.975 8.92703 187.892 8.82091C188.376 8.76499 188.857 8.68092 189.355 8.60607C189.725 8.55053 190.1 8.50047 190.475 8.47521L190.851 8.4586C193.611 8.17935 196.378 8.21073 199.129 8.24376C201.891 8.27693 204.639 8.31096 207.375 8.03966L207.41 8.03868C208.968 8.10469 210.531 8.02614 212.116 7.99571C213.497 7.96922 214.887 7.98006 216.268 8.16271L216.86 8.25157L216.876 8.2545C217.974 8.51529 219.033 8.84303 220.118 9.02208C221.191 9.19918 222.249 9.2221 223.3 8.87755L223.351 8.86583C225.152 8.67883 226.931 8.3635 228.731 8.08165C230.527 7.80053 232.339 7.55406 234.181 7.51232L234.245 7.51915C234.587 7.60187 234.888 7.73291 235.122 7.90099C235.354 8.06778 235.535 8.28303 235.605 8.53575C235.679 8.79882 235.623 9.06872 235.443 9.30821C235.27 9.53995 234.985 9.7388 234.6 9.90099L234.578 9.9088C233.784 10.1586 232.976 10.379 232.171 10.5973C231.364 10.816 230.561 11.0329 229.771 11.2799C228.209 11.7684 226.711 12.3692 225.37 13.3072C225.316 13.405 225.297 13.4775 225.294 13.5279C225.291 13.5801 225.304 13.6203 225.331 13.6568C225.395 13.7443 225.553 13.8352 225.818 13.8941C226.072 13.9504 226.378 13.9672 226.672 13.9508C226.968 13.9342 227.233 13.8845 227.408 13.8199L227.466 13.8062C228.618 13.6751 229.727 13.3167 230.851 12.9176C231.967 12.5218 233.105 12.0826 234.281 11.8121C237.51 10.7356 240.892 10.1978 244.165 9.48888L244.173 9.4879C245.759 9.19875 247.345 9.22554 248.913 9.31505C250.482 9.40467 252.02 9.55533 253.561 9.52892C255.14 9.23897 256.676 8.97489 258.058 8.2545L258.114 8.23302C260.048 7.75589 262.013 7.68996 263.969 7.75353C264.947 7.78531 265.926 7.85026 266.898 7.91271C267.872 7.97524 268.839 8.03507 269.8 8.06017H269.799C271.17 8.07612 272.511 8.29993 273.831 8.5338C274.991 8.73946 276.134 8.95307 277.289 9.05138L277.785 9.08556L277.896 9.11876C278.105 9.23982 278.268 9.36338 278.38 9.49181C278.492 9.62119 278.567 9.77258 278.563 9.94005C278.56 10.1088 278.477 10.2454 278.377 10.3463C278.278 10.4454 278.15 10.5237 278.017 10.5865C277.75 10.7126 277.41 10.7997 277.089 10.8521C276.781 10.9023 276.472 10.9223 276.233 10.9107C274.983 11.1449 273.671 11.1901 272.444 11.3219C271.195 11.4561 269.998 11.6815 268.895 12.274C268.068 12.7627 267.184 13.0636 266.293 13.2965C265.848 13.4128 265.397 13.5127 264.951 13.6109C264.508 13.7085 264.068 13.8034 263.633 13.9117C261.528 14.7684 259.281 15.4081 256.939 15.1314C253.978 15.2009 250.993 15.1442 248.047 15.1676C247.58 15.2506 247.086 15.3012 246.603 15.3551C246.108 15.4104 245.621 15.4708 245.159 15.5748C244.274 15.7743 243.514 16.1296 243.001 16.8912C243.071 17.0874 243.173 17.1673 243.277 17.2057C243.422 17.2589 243.627 17.2522 243.901 17.1969C244.179 17.1408 244.452 17.0532 244.766 16.9742C245.044 16.9039 245.349 16.844 245.627 16.8697C247.788 16.487 249.983 16.5205 252.151 16.6295L254.319 16.7516L254.547 16.9342C254.657 17.3315 254.608 17.6683 254.411 17.9322C254.224 18.1824 253.933 18.3281 253.639 18.4205C253.341 18.5141 253.005 18.5632 252.696 18.5963C252.368 18.6314 252.11 18.6454 251.871 18.6744C251.003 18.794 250.067 18.7562 249.214 18.7848C248.362 18.8133 247.562 18.9079 246.846 19.2555C246.569 19.6387 246.41 20.1033 246.21 20.6197C246.007 21.1422 245.766 21.7047 245.3 22.1549L245.248 22.1939C244.362 22.6865 243.363 22.6358 242.44 22.5641C241.512 22.4919 240.664 22.4003 239.914 22.6685C239.269 23.4453 238.514 24.1652 237.828 24.8834C237.16 25.5824 236.548 26.2937 236.103 27.1031C236.392 27.3828 236.774 27.6043 237.145 27.6705C237.355 27.7077 237.553 27.6946 237.73 27.6246C237.906 27.5552 238.077 27.4229 238.224 27.1959L238.265 27.1471C239.191 26.2991 240.298 26.0014 241.426 25.9469C242.265 25.9063 243.132 26 243.956 26.107L244.764 26.2144L244.791 26.2193C245.068 26.2861 245.375 26.3139 245.706 26.3346C246.03 26.3548 246.383 26.3686 246.72 26.4107C247.397 26.4956 248.088 26.7047 248.536 27.3883L248.558 27.6217C248.421 27.9508 248.163 28.1198 247.868 28.1881C247.589 28.2526 247.268 28.2304 246.965 28.19C246.811 28.1695 246.653 28.1422 246.5 28.1168C246.345 28.091 246.195 28.0664 246.05 28.0475C245.754 28.009 245.508 27.9999 245.318 28.0445L245.213 28.0465C245.045 28.0141 244.769 27.9984 244.463 28.0123C244.158 28.0262 243.844 28.0681 243.602 28.1412C243.481 28.1778 243.389 28.2198 243.327 28.2613C243.265 28.3029 243.252 28.3312 243.25 28.3375C243.249 28.3395 243.248 28.3438 243.25 28.3531C243.252 28.3638 243.258 28.3844 243.276 28.4156C243.311 28.4749 243.383 28.5564 243.512 28.6598C244.299 28.817 245.125 28.902 245.968 28.9928C246.815 29.084 247.68 29.183 248.514 29.3736C248.881 29.3888 249.271 29.3522 249.682 29.3004C250.09 29.2488 250.527 29.1812 250.949 29.1471C251.745 29.0828 252.571 29.1284 253.28 29.6392L253.421 29.7476L253.441 29.7672C253.72 30.0561 253.858 30.3761 253.863 30.692C253.868 31.0066 253.741 31.2908 253.538 31.5055C253.142 31.9232 252.452 32.0879 251.796 31.7769C248.927 31.4558 246.024 31.3539 243.138 31.2965L243.118 31.2955C242.312 31.2173 241.542 31.3949 240.755 31.6412C239.983 31.8828 239.169 32.2022 238.35 32.3609L238.267 32.3629C237.872 32.3083 237.484 32.233 237.104 32.1558C236.722 32.0782 236.35 31.9994 235.977 31.9361C235.244 31.8117 234.527 31.7504 233.788 31.8775C233.61 31.9675 233.494 32.0465 233.423 32.1119C233.348 32.1807 233.34 32.2191 233.339 32.2242C233.339 32.2258 233.338 32.2278 233.34 32.232C233.342 32.2379 233.347 32.2507 233.361 32.2691C233.392 32.3091 233.45 32.3597 233.543 32.4185C233.73 32.5367 233.997 32.6494 234.287 32.7613C234.56 32.8664 234.859 32.9734 235.081 33.0758C236.636 33.6976 238.287 33.9326 239.978 34.0621C241.655 34.1904 243.406 34.2156 245.08 34.4264C245.91 34.5224 246.686 34.9907 247.224 35.6353C247.762 36.281 248.079 37.1268 247.949 37.9908L247.912 38.0885C247.484 38.7593 246.872 39.0518 246.22 39.1363C245.587 39.2182 244.91 39.1055 244.308 38.9693C244.006 38.9547 243.705 38.9093 243.413 38.857C243.107 38.8023 242.821 38.7429 242.528 38.6988C241.995 38.6186 241.503 38.6012 241.036 38.7642C240.96 39.2371 241.08 39.6325 241.318 39.9107C241.579 40.215 242.003 40.4053 242.539 40.3853L242.606 40.3922C243.549 40.6173 244.497 40.8197 245.449 41.0123L248.316 41.5748L248.386 41.5992C248.797 41.816 249.078 42.0601 249.148 42.3531C249.228 42.6836 249.018 42.934 248.804 43.0875C248.582 43.2459 248.281 43.3626 247.982 43.44C247.691 43.5155 247.382 43.5575 247.114 43.5611C245.302 43.9492 243.472 43.9445 241.655 43.8385C239.819 43.7313 238.025 43.5251 236.225 43.5006C236.009 43.505 235.769 43.5729 235.555 43.6803C235.337 43.7893 235.172 43.9259 235.09 44.0416C235.049 44.0986 235.04 44.1353 235.039 44.15C235.039 44.1549 235.038 44.158 235.049 44.1695C235.067 44.1885 235.118 44.2252 235.231 44.2574C235.343 44.289 235.502 44.3128 235.718 44.3189H235.719C237.933 44.3851 240.28 44.3966 242.422 45.2906L242.557 45.4254C242.81 46.0307 242.88 46.6965 242.627 47.1578C242.494 47.4004 242.275 47.576 241.977 47.6402C241.701 47.7 241.376 47.6582 241.01 47.524C239.312 47.503 237.595 47.4152 236.168 48.2242L236.058 48.2564C232.55 48.4507 228.867 47.9614 225.764 46.1588C224.903 46.0055 224.054 46.2142 223.17 46.5191C222.293 46.8216 221.356 47.2307 220.419 47.3853L220.373 47.3892C219.555 47.3722 218.772 47.5551 217.942 47.7184C217.13 47.8783 216.281 48.0153 215.385 47.8736C214.37 47.8353 213.405 47.7348 212.417 47.7359C211.457 47.737 210.525 47.8382 209.627 48.1891C209.481 48.3484 209.426 48.5159 209.427 48.6812C209.428 48.8658 209.499 49.0672 209.631 49.2633C209.866 49.6133 210.257 49.8908 210.621 49.984L210.775 50.0123L210.815 50.0201C211.637 50.249 212.498 50.2842 213.397 50.3248C214.285 50.3649 215.21 50.4108 216.106 50.6783H216.107C217.045 50.9432 218.023 50.8295 219.067 50.7877C220.081 50.7471 221.137 50.7804 222.11 51.4039C224.617 52.391 227.161 53.2211 229.765 53.9391C231.241 54.1162 232.228 55.1808 232.704 56.4762C232.788 56.6158 232.896 56.6693 233.046 56.6783C233.22 56.6888 233.441 56.6366 233.707 56.5455C233.837 56.5009 233.97 56.4497 234.106 56.3971C234.241 56.3451 234.381 56.2921 234.517 56.2457C234.746 56.1672 234.998 56.0975 235.232 56.1021L235.332 56.109L235.392 56.1236C236.38 56.5063 236.775 57.3241 236.975 58.1822C237.075 58.6089 237.131 59.0606 237.185 59.4859C237.241 59.9175 237.295 60.3218 237.39 60.6803L237.349 60.8941C237.042 61.3039 236.672 61.5127 236.267 61.5885C235.875 61.662 235.463 61.6072 235.072 61.524C234.875 61.4822 234.676 61.431 234.482 61.3824C234.287 61.3333 234.097 61.2859 233.91 61.2486C233.533 61.1736 233.19 61.1437 232.881 61.2096L232.84 61.2144C230.852 61.3028 228.849 61.3166 226.873 60.7877C226.176 60.6506 225.634 60.2739 225.185 59.8189C224.749 59.3766 224.386 58.8442 224.053 58.3736C221.556 56.6501 218.492 55.6697 215.462 55.7799C215.178 55.875 214.887 55.9436 214.595 55.9967C214.666 56.0042 214.738 56.0122 214.809 56.0201C215.479 56.094 216.154 56.1877 216.792 56.3687L217.062 56.4517L217.131 56.4869C217.318 56.6233 217.461 56.7531 217.548 56.8814C217.637 57.0137 217.692 57.1879 217.607 57.3619C217.535 57.5103 217.39 57.5892 217.276 57.6353C217.153 57.6853 217.005 57.7209 216.855 57.7486C216.563 57.8025 216.181 57.8407 215.876 57.8853C215.716 57.9087 215.569 57.9348 215.445 57.9664C215.318 57.9988 215.23 58.0333 215.176 58.067L215.094 58.0992C213.765 58.3725 212.388 58.3655 211.061 58.398C209.731 58.4307 208.442 58.5033 207.222 58.9098C206.858 59.103 206.514 59.5428 206.208 60.0387C206.057 60.2837 205.922 60.5307 205.803 60.7496C205.747 60.8512 205.693 60.9493 205.642 61.0387C208.597 62.3298 211.901 62.0684 215.154 62.1051C219.113 61.4732 223.31 61.1336 227.216 62.5133C229.429 62.5581 231.735 62.4742 233.988 62.6969L234.089 63.1627C232.512 64.076 230.82 64.6743 229.103 65.1666C228.245 65.4127 227.378 65.6327 226.517 65.8521C225.653 66.0719 224.795 66.2914 223.948 66.5357L223.917 66.5426C223.575 66.594 223.232 66.5647 222.91 66.5182C222.749 66.4949 222.587 66.4664 222.434 66.44C222.278 66.4133 222.128 66.3891 221.982 66.3717C221.69 66.3368 221.431 66.333 221.197 66.3941C220.97 66.4536 220.755 66.5776 220.555 66.8199L220.507 66.8648C217.857 68.7479 214.654 69.7033 211.559 70.3932L211.515 70.399C209.513 70.4751 207.559 70.3701 205.666 70.7818L205.598 70.7867C204.707 70.7335 203.824 70.9971 202.885 71.2457C201.964 71.4892 200.993 71.7167 200.01 71.5084L199.961 71.4928C199.846 71.4424 199.723 71.384 199.6 71.3248C199.475 71.2649 199.347 71.2038 199.218 71.1451C198.957 71.027 198.7 70.9252 198.46 70.8726C198.219 70.82 198.017 70.8216 197.855 70.8853C197.701 70.946 197.55 71.0763 197.428 71.3492L197.427 71.3502C197.131 72.0002 196.698 72.4365 196.161 72.7017C195.696 72.9313 195.167 73.0269 194.605 73.0367L194.362 73.0357C192.68 73.0667 191.02 72.553 189.743 71.4195C188.81 70.9547 187.931 70.4475 186.979 70.2506C187.009 70.3541 187.056 70.4592 187.116 70.567C187.235 70.7799 187.4 70.9882 187.578 71.2096C187.751 71.424 187.941 71.6556 188.082 71.8922C188.224 72.1306 188.332 72.4015 188.317 72.6998L188.234 72.8736C187.825 73.2381 187.274 73.4061 186.752 73.5396C186.209 73.6785 185.694 73.7824 185.253 73.9976L185.203 74.0152C183.748 74.3722 182.612 75.2715 181.517 76.3228C180.44 77.3559 179.383 78.5597 178.137 79.4283C176.664 80.8033 174.401 81.1164 172.543 80.732L172.464 80.7017C172.097 80.4811 171.863 80.4166 171.714 80.4205C171.585 80.424 171.489 80.4783 171.389 80.6021C171.278 80.7387 171.183 80.9333 171.061 81.1881C170.946 81.4304 170.81 81.7144 170.624 81.984C170.185 82.6605 169.5 83.0028 168.777 83.1451C168.06 83.2862 167.287 83.2347 166.625 83.1129V83.1139C165.941 83.0135 165.279 83.1294 164.611 83.3365C164.277 83.4402 163.944 83.5661 163.607 83.6969C163.273 83.8266 162.931 83.9624 162.59 84.0826L162.288 83.7271C162.87 82.6628 163.451 81.5981 164.033 80.5338C162.979 80.5776 161.936 80.4188 160.923 80.2408C161.377 81.1268 161.099 82.2137 160.176 82.7818L160.175 82.7808C158.815 83.6355 157.313 83.8763 155.809 83.9566C155.059 83.9967 154.296 83.9979 153.553 84.0123C153.015 84.0227 152.484 84.0405 151.963 84.0846C152.236 84.3274 152.507 84.622 152.695 84.9361C152.849 85.1929 152.961 85.4833 152.955 85.7818C152.949 86.0921 152.816 86.3833 152.535 86.6246L152.405 86.6832C150.749 86.9012 149.012 86.6859 147.346 86.5318C147.359 86.539 147.372 86.5471 147.385 86.5543C147.691 86.7224 148.037 86.8982 148.351 87.0807C148.987 87.4495 149.61 87.9095 149.89 88.6617L149.895 88.8199C149.79 89.1774 149.571 89.4073 149.288 89.5406C149.019 89.6675 148.704 89.7011 148.403 89.7057C148.104 89.7101 147.775 89.685 147.494 89.6734C147.2 89.6613 146.948 89.6635 146.75 89.7096L146.735 89.7125C146.495 89.7538 146.165 89.7813 145.852 89.8082C145.606 89.8295 145.37 89.8502 145.178 89.8775L145.18 89.8785L145.49 89.9889L145.526 90.0045C146.095 90.2987 146.699 90.4621 147.347 90.7135C147.974 90.9573 148.602 91.2733 149.091 91.859L149.074 92.1969C148.686 92.5808 148.233 92.9861 147.718 93.2271C147.203 93.4678 146.624 93.5439 145.995 93.2848C145.744 93.2561 145.572 93.2518 145.458 93.2623C145.423 93.2656 145.397 93.2718 145.378 93.276C145.392 93.3189 145.417 93.3779 145.459 93.4586C145.549 93.6329 145.712 93.9086 145.76 94.1842C145.785 94.3313 145.782 94.4938 145.716 94.6558C145.658 94.7979 145.556 94.9201 145.417 95.0269C145.343 95.1863 145.249 95.3171 145.131 95.4156C144.996 95.5278 144.842 95.5897 144.685 95.6187C144.384 95.6745 144.055 95.6085 143.772 95.5367C143.467 95.459 143.218 95.3769 142.992 95.3473C142.918 95.3375 142.858 95.3378 142.809 95.3414C143.098 95.7871 143.221 96.3293 143.1 96.7545C143.023 97.0207 142.846 97.2511 142.551 97.3492C142.275 97.4406 141.942 97.4007 141.566 97.2447C140.735 97.098 139.894 97.1652 139.017 97.2555C138.38 97.321 137.721 97.3976 137.056 97.4019C137.51 97.7156 138.021 97.9374 138.563 98.1432C139.227 98.3949 139.952 98.6302 140.612 99.0025L140.892 99.1705L141.006 99.3785C141.019 100.866 140.707 102.281 140.02 103.609L139.97 103.677C139.845 103.795 139.685 103.856 139.529 103.89C139.372 103.923 139.198 103.933 139.027 103.931C138.689 103.926 138.31 103.874 138.021 103.845C137.909 103.833 137.812 103.826 137.73 103.823C137.763 103.86 137.803 103.905 137.854 103.955L137.867 103.969C138.647 104.844 138.659 106.087 138.637 107.056L138.465 107.287C137.917 107.467 137.32 107.466 136.761 107.461C136.486 107.458 136.218 107.455 135.959 107.466C136.24 107.616 136.517 107.787 136.766 107.985C137.249 108.371 137.646 108.874 137.758 109.529L137.762 109.575C137.755 109.996 137.626 110.314 137.349 110.487C137.09 110.649 136.769 110.641 136.486 110.594C136.196 110.545 135.883 110.443 135.607 110.353C135.321 110.259 135.082 110.181 134.899 110.156L134.788 110.14C134.531 110.091 134.287 109.978 134.064 109.855C133.936 109.785 133.809 109.707 133.687 109.632C133.564 109.556 133.446 109.482 133.329 109.415C133.093 109.279 132.885 109.184 132.694 109.152C132.515 109.123 132.346 109.149 132.172 109.273L132.108 109.307C131.921 109.371 131.749 109.524 131.572 109.735C131.486 109.839 131.404 109.95 131.32 110.062C131.238 110.173 131.153 110.288 131.066 110.388C130.909 110.569 130.67 110.797 130.349 110.749C130.192 110.725 130.053 110.64 129.929 110.521C129.812 110.407 129.697 110.251 129.578 110.054C129.313 109.828 129.209 109.543 129.169 109.27C129.148 109.128 129.143 108.986 129.142 108.857C129.14 108.723 129.14 108.609 129.134 108.498C129.12 108.273 129.079 108.152 128.995 108.078C128.908 108.001 128.711 107.921 128.248 107.952L128.186 107.949C127.725 107.866 127.06 107.798 126.491 107.647C125.92 107.496 125.333 107.238 125.05 106.7L125.116 106.388C125.361 106.194 125.49 106.01 125.547 105.852C125.601 105.698 125.592 105.553 125.533 105.415C125.415 105.143 125.082 104.87 124.57 104.701C123.651 105.263 122.633 105.613 121.602 105.716L121.576 105.717C120.243 105.71 118.871 105.612 117.718 106.062C117.495 106.175 117.276 106.314 117.038 106.455C116.806 106.593 116.557 106.732 116.307 106.809C116.051 106.887 115.773 106.909 115.499 106.785C115.229 106.663 115.004 106.419 114.813 106.055L114.789 105.982C114.71 105.543 114.514 105.242 114.245 105.018C113.969 104.787 113.608 104.627 113.19 104.492C112.983 104.425 112.766 104.365 112.543 104.305C112.322 104.245 112.093 104.185 111.871 104.118C111.438 103.989 111.003 103.827 110.638 103.576C110.114 103.354 109.622 102.945 109.266 102.456C108.905 101.961 108.667 101.362 108.697 100.767L108.718 100.68C108.852 100.371 108.839 100.165 108.78 100.029C108.719 99.8888 108.586 99.7695 108.377 99.6803C107.951 99.4983 107.319 99.4922 106.861 99.6109L106.705 99.6002C106.519 99.5254 106.279 99.4743 105.999 99.4195C105.728 99.3666 105.423 99.3107 105.144 99.2262C104.866 99.1418 104.585 99.0208 104.372 98.8189C104.153 98.6109 104.02 98.3313 104.015 97.9693C103.957 97.63 104.131 97.3261 104.316 97.0943C104.511 96.85 104.78 96.6117 104.974 96.4225C105.076 96.323 105.158 96.2361 105.217 96.1598C105.271 96.0893 105.288 96.0467 105.293 96.0279C105.292 96.0273 105.291 96.0267 105.29 96.026C105.26 95.9995 105.185 95.9557 105.027 95.9117C104.769 95.8882 104.471 95.8824 104.13 95.8629C103.792 95.8435 103.428 95.8104 103.097 95.7262C102.767 95.6424 102.444 95.5019 102.213 95.2486C101.974 94.9877 101.859 94.6362 101.893 94.19C101.902 94.0378 101.881 93.9399 101.853 93.8775C101.827 93.8192 101.79 93.7794 101.737 93.7486C101.616 93.6771 101.416 93.6519 101.128 93.6568C100.873 93.6612 100.523 93.6912 100.242 93.6793C99.9722 93.6678 99.6663 93.6166 99.4433 93.4127C98.8083 93.0993 98.4523 92.5689 98.4803 92.0123C98.5103 91.4503 98.9243 90.9653 99.6143 90.7389C100.296 90.2952 101.092 90.1114 101.81 89.9176C102.557 89.716 103.234 89.5011 103.77 89.0113L103.966 88.9469C104.281 88.9802 104.424 88.8813 104.491 88.7857C104.568 88.6753 104.593 88.4992 104.54 88.3082C104.487 88.1188 104.371 87.9603 104.23 87.8844C104.104 87.8164 103.926 87.7957 103.685 87.942L103.588 87.9762C103.188 88.0287 102.776 88.0617 102.379 88.0992C101.978 88.1371 101.586 88.1805 101.207 88.2525C100.451 88.3964 99.7653 88.6538 99.1963 89.2027L98.9903 89.2701C98.7863 89.2435 98.5623 89.2988 98.3083 89.4078C98.0443 89.5216 97.8123 89.6621 97.5303 89.8014C97.2723 89.9291 96.9783 90.0513 96.6833 90.0475C96.3613 90.0431 96.0763 89.8916 95.8433 89.5631L95.8083 89.4957C95.6503 89.0047 95.6563 88.4365 95.6533 87.9137C95.6503 87.384 95.6383 86.8859 95.4933 86.44C95.3183 86.2055 95.2293 85.9078 95.1683 85.6334C95.1353 85.484 95.1073 85.3289 95.0803 85.1861C95.0533 85.0407 95.0263 84.9057 94.9943 84.7828C94.9273 84.5254 94.8483 84.3784 94.7503 84.3092C94.6703 84.2524 94.5133 84.2062 94.1693 84.3287L94.1172 84.3414C93.3422 84.4431 92.6583 84.1633 92.0583 83.7818C91.4703 83.4084 90.9043 82.895 90.4213 82.525L90.3323 82.3932C90.1383 81.6896 90.5783 81.1792 91.0703 80.857C91.3283 80.6885 91.6213 80.5535 91.9023 80.4508C91.7533 80.4289 91.5853 80.4119 91.4053 80.4019C90.8133 80.3692 90.1393 80.4035 89.6993 80.4732L89.5333 80.441C89.3653 80.3415 89.2293 80.2322 89.1453 80.106C89.0553 79.9694 89.0243 79.8097 89.0823 79.6529C89.1343 79.5125 89.2433 79.4105 89.3493 79.3385C89.4583 79.264 89.5903 79.2033 89.7283 79.1539C90.0053 79.0549 90.3403 78.9893 90.6503 78.9576C90.9353 78.9285 91.2233 78.9269 91.4383 78.9654C91.6983 78.9366 91.9853 78.9249 92.2443 78.9068C92.5253 78.8873 92.7873 78.86 93.0173 78.7984C93.2473 78.7373 93.4293 78.6465 93.5633 78.5123C93.6953 78.381 93.7983 78.1895 93.8383 77.8922L93.8483 77.8463C93.8693 77.7823 93.8553 77.771 93.8603 77.7808C93.8563 77.7765 93.8413 77.7619 93.7983 77.7447C93.6693 77.6936 93.4392 77.6742 93.1302 77.6793C92.8272 77.6843 92.5003 77.7104 92.1803 77.7271C91.9023 77.7417 91.6183 77.7468 91.4003 77.7135C90.9663 77.823 90.2643 77.8246 89.7213 77.6666C89.4393 77.5847 89.1533 77.4469 88.9843 77.2154C88.8973 77.0945 88.8443 76.9507 88.8423 76.7887C88.8403 76.6293 88.8873 76.4671 88.9743 76.3062L88.9753 76.3053C89.0503 76.1677 89.1683 76.0648 89.2893 75.9869C89.4113 75.9084 89.5512 75.8461 89.6902 75.7945C89.7482 75.7731 89.8083 75.7531 89.8683 75.734C89.7423 75.7447 89.6193 75.735 89.5013 75.7066C89.1893 75.6316 88.9263 75.4353 88.7653 75.2057C88.6093 74.9845 88.5103 74.6711 88.6562 74.3922C88.8002 74.1164 89.1203 73.9935 89.5223 73.9918C90.9493 73.4454 92.4403 73.0962 94.0133 73.4029L94.5413 73.4889C95.4223 73.6236 96.3083 73.7221 97.1943 73.8287L98.2603 73.9635L98.2983 73.9723C99.6283 74.3717 101.027 74.4514 102.451 74.5914C102.449 74.3754 102.493 74.168 102.548 73.982C102.59 73.8396 102.64 73.7008 102.685 73.5767C102.732 73.4492 102.772 73.3383 102.801 73.2369C102.861 73.021 102.839 72.939 102.803 72.8951C102.752 72.8342 102.591 72.7386 102.121 72.7076L102.067 72.6978C100.379 72.2029 98.6523 71.8598 96.9133 71.5201C95.1773 71.1811 93.4283 70.8455 91.7133 70.3668L91.5683 69.9937C92.0433 69.233 92.7943 69.0613 93.5312 69.1002C94.2483 69.1381 95.0373 69.3818 95.6153 69.5064L95.6263 69.5094L96.2292 69.6598C97.5892 69.981 99.0133 70.1714 100.284 69.7857C100.299 69.2282 100.396 68.6509 100.679 68.2437C100.842 68.009 101.068 67.8275 101.369 67.7476C101.665 67.6691 102.009 67.6948 102.399 67.8238L102.462 67.8551C102.735 68.0414 102.947 68.0626 103.086 68.0299C103.226 67.9968 103.33 67.901 103.383 67.7779C103.436 67.6539 103.435 67.5076 103.364 67.3805C103.296 67.2579 103.148 67.1248 102.859 67.0592C102.125 67.0175 101.535 66.7117 101.35 66.2027C101.153 65.6618 101.474 65.0916 102.149 64.6754C102.466 64.4396 102.436 64.3336 102.435 64.3326C102.431 64.3188 102.415 64.2842 102.351 64.2359C102.289 64.1882 102.198 64.1398 102.079 64.0934C101.594 63.9038 100.839 63.8213 100.456 63.817L100.435 63.815C99.5523 63.7321 98.7013 63.7429 97.7923 63.6891C96.9023 63.6363 96.0003 63.5223 95.1153 63.1851H95.1143C92.7483 62.4612 90.4173 61.7308 87.9673 61.7926L87.8672 61.775C86.7012 61.308 85.6083 60.7076 84.5523 60.0514L84.5813 59.6109C85.8743 59.0255 87.3483 59.0998 88.6973 59.2476L89.2673 59.3141L89.2843 59.316C90.5573 59.5573 91.8423 59.6599 93.1463 59.8141C94.4403 59.9669 95.7423 60.1701 97.0113 60.6168L98.0543 60.9488C99.0113 61.2554 99.9603 61.55 100.934 61.7545C100.956 61.5417 100.912 61.3665 100.827 61.2115C100.708 60.9935 100.499 60.7975 100.227 60.6021C99.9523 60.4036 99.6543 60.2323 99.3453 60.0328C99.0493 59.8422 98.7513 59.6281 98.5423 59.3678L98.4943 59.2711C98.2393 58.2273 97.0863 57.6528 95.9913 57.606L95.9813 57.6051C95.5133 57.568 95.1673 57.4751 94.9623 57.3101C94.8523 57.2215 94.7713 57.1022 94.7543 56.9566C94.7373 56.8152 94.7843 56.6868 94.8503 56.5846C94.9773 56.3871 95.2123 56.2232 95.4703 56.1041C95.7253 55.9859 96.0343 55.8983 96.3553 55.8648C96.3653 55.8619 96.3753 55.858 96.3843 55.8551C96.3143 55.8269 96.2313 55.7977 96.1363 55.7701C95.8733 55.6938 95.5493 55.6305 95.2583 55.5943C94.9553 55.5568 94.7252 55.5532 94.6302 55.5728L94.5953 55.5777C92.8553 55.6896 91.1852 55.2266 89.5912 54.7242C89.0832 55.1084 88.5383 55.4466 88.0173 55.776C87.4533 56.1315 86.9163 56.4817 86.4493 56.8922L86.3753 56.9371C84.6853 57.5928 82.8133 57.4531 81.1353 57.0924L81.0883 57.0777C80.8953 56.9942 80.6573 56.9257 80.3883 56.8473C80.1263 56.7711 79.8373 56.6864 79.5773 56.5709C79.3173 56.4555 79.0622 56.3006 78.8802 56.0719C78.6912 55.8355 78.5943 55.5382 78.6213 55.1725L78.7653 54.9644C79.9213 54.4225 80.3373 53.0355 79.9813 51.8082C79.7943 51.4172 79.7353 51.0707 79.8443 50.7848C79.9583 50.4825 80.2273 50.3287 80.5023 50.2603C80.7763 50.1921 81.0963 50.1963 81.4003 50.2389C81.7073 50.2819 82.0173 50.3664 82.2773 50.4713L82.3152 50.4908C82.6842 50.7174 83.1323 50.565 83.3613 50.2711C83.4723 50.1291 83.5063 49.984 83.4773 49.8678C83.4503 49.7577 83.3523 49.6094 83.0603 49.4889L83.0003 49.4537C82.5253 49.0754 81.9893 48.7769 81.4293 48.5006C80.8813 48.2305 80.2783 47.967 79.7363 47.6832L79.7053 47.6637C78.4403 46.7384 77.3653 45.6234 76.3403 44.484C75.3103 43.3397 74.3373 42.1793 73.2543 41.1295C72.6623 40.6089 71.9033 40.4179 71.0563 40.2808C70.2353 40.1482 69.3093 40.0651 68.5003 39.7291C67.8663 39.6121 67.3193 39.3397 66.9593 38.9029C66.6213 38.4923 66.4693 37.961 66.5423 37.3414C65.3473 36.6726 64.0243 36.46 62.6383 36.3316C61.2143 36.1998 59.7033 36.1549 58.2823 35.7525C52.8153 34.4145 47.1623 33.8561 41.5423 33.9342C40.6023 34.1982 39.6413 34.3182 38.7013 34.4322C37.7433 34.5484 36.8063 34.6599 35.8943 34.9088L35.8813 34.9117C33.2523 35.4763 30.6303 34.8604 28.1203 34.3375C28.1773 34.4526 28.2303 34.5666 28.2723 34.6783C28.3723 34.9425 28.4333 35.2208 28.3933 35.4654C28.3733 35.592 28.3243 35.7157 28.2343 35.8199C28.1433 35.9249 28.0223 35.996 27.8833 36.0357C27.6203 36.1104 27.2753 36.0786 26.8533 35.9596C23.3973 35.7959 20.0023 34.8554 16.6533 34.2867L16.6153 33.8033C17.3063 33.5693 17.9773 33.2962 18.6763 33.0357C19.2633 32.8167 19.8633 32.6132 20.4823 32.4586C20.2343 32.1507 19.8413 32.0417 19.3333 32.0172C19.0173 32.002 18.6843 32.0206 18.3413 32.0338C18.0153 32.0463 17.6783 32.0519 17.3743 32.0103C14.7973 31.9858 12.1393 32.0524 9.56827 31.6646L9.51929 31.6519C8.19729 31.1653 6.87927 30.7152 5.51227 30.4459L5.41828 29.9947C6.28028 29.4017 7.25427 29.2425 8.22327 29.2223C8.70627 29.2121 9.19627 29.2372 9.67227 29.2623C10.1513 29.2876 10.6173 29.3133 11.0673 29.3082H11.0803C16.6973 29.5286 22.3243 29.9759 27.8643 29.1695L27.8663 29.1685C28.2603 29.1143 28.9653 29.0187 29.4363 28.8258C29.5513 28.7788 29.6423 28.7301 29.7073 28.6812C29.7733 28.6316 29.7993 28.5922 29.8083 28.5689C29.8133 28.5553 29.8443 28.4634 29.6113 28.2516C28.1753 27.4463 26.5343 27.304 24.9323 27.69C22.3783 28.4019 19.7213 28.4446 17.1193 28.0748C14.4833 28.4304 11.4493 28.8045 9.01828 27.1432C7.46728 26.6191 5.83027 26.6724 4.17227 26.7154L4.13028 26.7125C3.48228 26.6195 2.86427 26.4254 2.26727 26.2144C1.66227 26.0009 1.08827 25.775 0.495271 25.6012L0.326265 25.4332C0.214265 25.0638 0.229292 24.7228 0.347292 24.4234C0.463292 24.1269 0.674264 23.8884 0.925264 23.7066C1.41326 23.3533 2.08628 23.1923 2.67728 23.2271C7.03028 22.8012 11.4373 22.5058 15.7703 22.1217C17.5293 21.2136 19.4063 20.8557 21.3023 20.7164C23.1993 20.577 25.1533 20.6556 27.0103 20.6275C28.1073 20.432 29.2173 20.4427 30.3003 20.4664C31.3743 20.4899 32.4183 20.5237 33.4383 20.3971C33.6483 20.2258 33.8963 20.1146 34.1393 20.0308C34.4013 19.9406 34.6973 19.8698 34.9373 19.8004C35.4493 19.6525 35.7593 19.4948 35.8583 19.15C35.8493 18.8398 35.9813 18.535 36.1233 18.2789C36.2013 18.1381 36.2893 18.0006 36.3713 17.8736C36.4553 17.7439 36.5323 17.6277 36.5973 17.5191C36.6623 17.4096 36.7063 17.3226 36.7283 17.2545C36.7413 17.2147 36.7433 17.1922 36.7433 17.1822C36.7363 17.1769 36.7203 17.1678 36.6913 17.1578C36.6183 17.1329 36.4923 17.1127 36.2883 17.1129L36.2283 17.106C34.4783 16.6774 32.5993 16.7883 30.7603 16.8756C28.5073 17.5441 26.2373 16.8016 24.1893 16.1178L24.0683 15.732C24.3843 15.308 24.7143 14.7782 25.1143 14.3844C25.5243 13.9811 26.0343 13.6864 26.7403 13.6988C28.5583 13.2756 30.4053 13.0294 32.2453 12.8033C34.0973 12.5757 35.9403 12.3696 37.7603 12.0269L37.7733 12.024C41.3183 11.567 44.9333 11.072 48.5433 11.3941C49.4143 11.2944 50.3163 11.2936 51.1813 11.2642C52.0523 11.2347 52.8943 11.1755 53.6883 10.9684C53.7903 10.913 53.8483 10.8599 53.8813 10.8141C53.9133 10.7677 53.9283 10.7176 53.9313 10.6578C53.9353 10.5217 53.8713 10.3414 53.7463 10.1002C53.6863 9.98374 53.6183 9.86513 53.5473 9.7379C53.4773 9.61302 53.4043 9.48088 53.3423 9.34825C53.2203 9.09 53.1153 8.78855 53.1593 8.48595L53.3383 8.28185C54.7183 7.88713 56.1783 7.87239 57.5923 7.9088L58.9853 7.94982L59.0083 7.95177C60.9733 8.17776 62.9303 8.53983 64.8713 8.91368C66.8003 9.28512 68.7123 9.66726 70.6163 9.94396C71.0413 9.85795 71.3163 9.77587 71.4753 9.70372C71.4233 9.67822 71.3583 9.65001 71.2773 9.62071C71.0513 9.53858 70.7353 9.45351 70.3473 9.36778C69.1163 9.10181 68.0353 8.53965 67.0933 7.71544L67.2333 7.27892C70.6793 6.95052 74.1203 6.84011 77.5323 6.33458L77.5473 6.33263C80.6333 6.06095 83.8113 5.57816 86.9583 6.14415C87.1313 6.15327 87.2863 6.19656 87.4193 6.27696C87.5583 6.36124 87.6603 6.47771 87.7333 6.609C87.8743 6.86182 87.9173 7.18294 87.9343 7.484C87.9433 7.63857 87.9453 7.79907 87.9473 7.95372C87.9493 8.11021 87.9513 8.26166 87.9573 8.40685C87.9703 8.70395 88.0033 8.93891 88.0803 9.10118L88.1013 9.24571C88.0523 9.57341 88.1343 9.6777 88.1883 9.71739C88.2683 9.77538 88.4293 9.80515 88.6933 9.76622C89.2093 9.69025 89.8543 9.39813 90.2523 9.22521L90.2903 9.21251C90.7263 9.10189 90.9213 8.7294 91.1113 8.20079C91.2003 7.95428 91.2903 7.66403 91.4083 7.41857C91.5283 7.16869 91.6943 6.9222 91.9603 6.77013L92.0843 6.73692C94.3453 6.73751 96.5533 7.12807 98.7333 7.5836C100.88 8.03213 102.994 8.54002 105.142 8.81993C105.212 8.74192 105.247 8.68354 105.262 8.64317C105.278 8.60033 105.271 8.58217 105.264 8.567C105.25 8.5404 105.215 8.49692 105.133 8.442C105.052 8.38828 104.945 8.33491 104.815 8.27892C104.686 8.22317 104.544 8.16927 104.392 8.11095C104.243 8.0535 104.085 7.99271 103.936 7.9254C103.654 7.79757 103.347 7.62462 103.181 7.36095C103.098 7.23723 102.918 7.11498 102.646 6.98985C102.38 6.86745 102.077 6.76458 101.776 6.65294C101.492 6.54725 101.191 6.42729 100.992 6.27403C100.89 6.19562 100.789 6.08935 100.743 5.94689C100.694 5.79356 100.72 5.63943 100.799 5.49962L100.85 5.43517C101.342 4.99616 101.978 4.98486 102.55 5.02989C102.695 5.04137 102.843 5.05762 102.985 5.07286C103.129 5.08825 103.27 5.10326 103.408 5.11388C103.685 5.13518 103.938 5.13757 104.166 5.0963L104.2 5.09239C105.709 5.03007 107.189 5.22714 108.647 5.46642C109.93 5.67681 111.19 5.91798 112.462 6.05626L113.009 6.109L113.026 6.11095C115.988 6.57246 118.875 7.19704 121.815 7.61583L123.08 7.78087L123.081 7.78185C125.395 8.06749 127.681 8.55981 129.938 8.49571H129.953C130.537 8.51375 130.911 8.28198 131.21 7.9215C131.526 7.54043 131.744 7.03763 132.015 6.5045L132.061 6.44005C132.564 5.94421 132.593 5.59429 132.494 5.39903C132.382 5.17791 132.026 4.96422 131.367 4.93028L131.336 4.92638C129.789 4.65264 128.39 3.96957 127.024 3.33067L127.028 2.8756C128.277 2.32181 129.596 2.27733 130.886 2.30528C132.192 2.3336 133.455 2.43402 134.68 2.21056L134.697 2.2086C138.752 1.76116 142.981 1.02531 147.083 2.1256H147.084C150.548 3.0649 154.14 3.24895 157.742 3.49376C158.068 3.16717 158.077 2.72854 158.003 2.26134C157.983 2.13898 157.959 2.02002 157.935 1.90392C157.912 1.7907 157.888 1.67551 157.874 1.57189C157.86 1.47105 157.852 1.35833 157.869 1.2545C157.887 1.14491 157.941 1.01667 158.072 0.937124L158.177 0.901968C163.77 0.350367 169.405 0.17716 175.017 0.682241H175.022C176.683 0.860431 178.346 0.755779 180.025 0.585562C181.693 0.416478 183.391 0.1815 185.083 0.107046ZM90.2963 75.6109C90.3503 75.5966 90.4003 75.5819 90.4473 75.5689C90.4333 75.5635 90.4173 75.558 90.4013 75.5523C90.3663 75.574 90.3313 75.5933 90.2963 75.6109ZM83.2422 62.1998C83.7752 61.6848 84.4513 61.7711 85.0312 61.9029C85.3453 61.9743 85.6083 62.0528 85.8993 62.11C86.1783 62.1646 86.4273 62.1865 86.6503 62.1461L86.6953 62.1422C88.0923 62.1398 89.4272 62.4363 90.7292 62.7916C92.0412 63.1496 93.3043 63.5614 94.6073 63.8131H94.6063C94.8173 63.8459 95.1033 63.9303 95.3853 64.0406C95.6723 64.153 95.9753 64.3002 96.2083 64.4615C96.3243 64.5417 96.4333 64.6329 96.5143 64.734C96.5923 64.8324 96.6663 64.9702 96.6503 65.1324C96.6343 65.3036 96.5263 65.4301 96.3953 65.5162C96.2683 65.6006 96.0953 65.664 95.8843 65.7135L95.8313 65.7203C93.4773 65.7607 91.2433 66.3658 88.8663 66.731L88.8233 66.734C88.8123 66.7337 88.7933 66.7372 88.7303 66.7564C88.6823 66.7714 88.5873 66.8021 88.4833 66.8014L88.4373 66.7965C87.6363 66.6391 86.8823 66.3446 86.1533 66.066C85.4173 65.7847 84.7043 65.5186 83.9503 65.3912L83.9043 65.3795C83.2823 65.1468 82.9473 64.5391 82.8453 63.9371C82.7433 63.3366 82.8553 62.6579 83.2253 62.2184L83.2422 62.1998ZM228.773 50.5689C230.751 50.5946 232.698 51.0875 234.546 51.732L235.332 52.0162L235.46 52.1246C235.65 52.4499 235.756 52.7442 235.768 53.0074C235.781 53.2817 235.691 53.5141 235.511 53.6881C235.339 53.8535 235.105 53.9489 234.855 54.0025C234.603 54.0567 234.315 54.0724 234.012 54.0621L233.924 54.0435C231.686 53.1112 229.318 52.6179 226.954 51.9957L226.852 51.942C226.657 51.7704 226.51 51.6181 226.415 51.482C226.325 51.3532 226.25 51.1969 226.275 51.0308C226.304 50.8442 226.44 50.739 226.559 50.6851C226.677 50.6324 226.818 50.6075 226.955 50.5943C227.23 50.5678 227.582 50.5814 227.9 50.5904C228.233 50.5998 228.528 50.6041 228.731 50.5719L228.773 50.5689Z" fill="#9FE2AF" stroke="white" stroke-width="0.5" stroke-linejoin="round"/>
</svg>
