<svg width="68" height="57" viewBox="0 0 68 57" fill="none" xmlns="http://www.w3.org/2000/svg">
<path d="M66.3005 48.5346C66.5625 49.0836 66.5954 49.6106 66.6194 50.0866C66.6404 50.5116 66.6544 50.8906 66.7784 51.2656L66.8384 51.4266L66.8564 51.4936C66.9354 52.1696 66.7354 52.7406 66.5324 53.2576C66.3234 53.7866 66.1194 54.2496 66.0984 54.7846V54.7956C66.0454 55.4616 65.7454 56.0136 65.3014 56.2546C65.0754 56.3776 64.8144 56.4156 64.5544 56.3386C64.3294 56.2726 64.1204 56.1256 63.9394 55.9086C63.7584 55.8956 63.6084 55.8696 63.4884 55.8276C63.3414 55.7766 63.2144 55.6946 63.1394 55.5666C63.0644 55.4376 63.0654 55.3036 63.0814 55.2006C63.0964 55.1036 63.1314 55.0056 63.1554 54.9376C63.1824 54.8586 63.1974 54.8106 63.2024 54.7746V54.7716C63.1884 54.7646 63.1614 54.7536 63.1154 54.7426C63.0214 54.7216 62.8724 54.7086 62.6454 54.7146L62.4624 54.2866C62.6064 54.1446 62.6844 54.0436 62.7214 53.9776C62.7264 53.9696 62.7284 53.9616 62.7314 53.9556C62.7004 53.9416 62.6594 53.9236 62.5984 53.9036C62.5364 53.8826 62.4424 53.8516 62.3644 53.8106C62.2874 53.7696 62.1684 53.6886 62.1274 53.5366C62.0874 53.3856 62.1454 53.2436 62.2164 53.1326C62.2494 53.0826 62.2904 53.0306 62.3384 52.9756C62.2154 52.8806 62.1224 52.7776 62.0664 52.6576C61.9704 52.4546 61.9974 52.2586 62.0334 52.1076C62.1114 51.7766 62.2024 51.6236 62.0754 51.3906L62.0994 51.1156C62.4664 50.6566 62.9794 50.4166 63.4544 50.2406C63.6754 50.1576 63.9474 50.0696 64.1414 49.9986C64.3564 49.9206 64.5414 49.8436 64.6914 49.7516L64.9314 49.7406C65.1114 49.8286 65.2314 49.8666 65.3074 49.8776C65.3334 49.8816 65.3514 49.8796 65.3614 49.8786C65.3644 49.8716 65.3695 49.8606 65.3735 49.8436C65.3835 49.7896 65.3875 49.7146 65.3865 49.6136C65.3855 49.5236 65.3794 49.3956 65.3804 49.2866C65.3814 49.1726 65.3894 49.0446 65.4194 48.9236C65.4504 48.8006 65.5094 48.6696 65.6224 48.5666C65.7374 48.4606 65.8864 48.4056 66.0574 48.3936L66.3005 48.5346ZM53.4864 0.252562C53.7534 0.234562 53.9974 0.313568 54.2124 0.421568C54.4254 0.528568 54.6304 0.674564 54.8144 0.804564C55.0054 0.938564 55.1774 1.05757 55.3494 1.13957C55.5184 1.21957 55.6694 1.25657 55.8154 1.24057L56.0434 1.33856C56.4704 1.91156 56.2884 2.56356 56.0074 3.05456C55.7234 3.55156 55.2934 3.96857 55.0484 4.16257L54.8164 4.20456C54.4724 4.09256 54.2964 4.14356 54.2244 4.19256C54.1594 4.23656 54.1254 4.31457 54.1424 4.41557C54.1604 4.51857 54.2314 4.62357 54.3494 4.67857C54.4634 4.73057 54.6555 4.75157 54.9385 4.61557L55.1964 4.64157C55.5284 4.88957 55.7324 5.15756 55.7064 5.46756C55.6934 5.61556 55.6294 5.74157 55.5544 5.84357C55.4804 5.94457 55.3854 6.03557 55.2924 6.11757C55.0924 6.29557 54.9104 6.42756 54.7524 6.59956C54.6064 6.76056 54.5315 6.90956 54.5375 7.07356L54.4324 7.28656C53.8894 7.67356 53.2884 7.79556 52.7174 7.83256C52.4334 7.85156 52.1504 7.84956 51.8854 7.84756C51.6204 7.84556 51.3754 7.84157 51.1454 7.85657C50.9334 7.89057 50.7894 7.92756 50.6944 7.96356C50.6654 7.97456 50.6434 7.98556 50.6274 7.99356C50.6444 8.01856 50.6694 8.05156 50.7084 8.09256L51.0744 8.45857C51.1204 8.50657 51.1684 8.55857 51.2134 8.61157C51.3914 8.81757 51.5714 9.08456 51.6004 9.40756L51.5884 9.50757C51.5164 9.73057 51.4854 9.93057 51.4634 10.1196C51.4424 10.2996 51.4274 10.5016 51.3834 10.6796C51.3364 10.8706 51.2524 11.0546 51.0854 11.2216C50.9874 11.3206 50.8644 11.4056 50.7144 11.4856C50.9064 11.7966 50.9214 12.2006 50.7514 12.5256C50.7444 12.5396 50.7354 12.5526 50.7274 12.5666C51.3634 12.7636 51.8604 13.3476 52.0314 13.9586C52.1184 14.2716 52.1264 14.6096 52.0064 14.9186C51.8854 15.2336 51.6414 15.4966 51.2694 15.6646L51.1604 15.6876H51.1474C51.2124 15.7646 51.2764 15.8456 51.3354 15.9256C51.4124 16.0276 51.4855 16.1266 51.5635 16.2226C51.7085 16.4016 51.8574 16.5466 52.0304 16.6386C52.2424 16.6446 52.4174 16.6616 52.5574 16.6936C52.7094 16.7276 52.8494 16.7846 52.9494 16.8876C53.0594 17.0016 53.0914 17.1406 53.0804 17.2696C53.0694 17.3856 53.0244 17.4986 52.9814 17.5906C52.9384 17.6836 52.8804 17.7886 52.8334 17.8786C52.7844 17.9746 52.7394 18.0656 52.7074 18.1556C52.6494 18.3116 52.6384 18.4396 52.6804 18.5586C52.9894 18.6916 53.2814 18.8896 53.5394 19.1926C54.3934 19.8696 55.0985 19.8326 56.2485 19.7776C56.8065 19.6396 57.3094 19.9026 57.7184 20.0806C58.1614 20.2736 58.5634 20.4136 59.0554 20.2406L59.1534 20.2276C59.6204 20.2556 59.9664 20.3256 60.1844 20.4566C60.2994 20.5266 60.3984 20.6256 60.4424 20.7606C60.4864 20.8956 60.4644 21.0276 60.4194 21.1376C60.3354 21.3436 60.1434 21.5436 59.9394 21.7206C59.7264 21.9046 59.4644 22.0946 59.1994 22.2786L59.1644 22.2986C58.7654 22.4876 58.6704 22.8336 58.5574 23.3266C58.4604 23.7526 58.3484 24.2976 57.8534 24.6506C57.8684 24.8566 57.8454 25.0586 57.8054 25.2486C57.7564 25.4856 57.6774 25.7376 57.6214 25.9516C57.5004 26.4076 57.4544 26.7736 57.6654 27.1136L57.6514 27.3976C57.4194 27.6996 57.1714 27.8926 56.9064 28.0006C56.6424 28.1076 56.3794 28.1226 56.1314 28.1026C55.8904 28.0826 55.6414 28.0266 55.4194 27.9856C55.2414 27.9516 55.0714 27.9256 54.9044 27.9186C54.8364 28.0686 54.8044 28.1836 54.7854 28.2776C54.7714 28.3406 54.7644 28.3946 54.7534 28.4586C54.7434 28.5196 54.7314 28.5886 54.7084 28.6606C54.6124 28.9706 54.3624 29.2326 53.6784 29.7066L53.6454 29.7266C53.1634 29.9606 52.8784 30.2226 52.6264 30.5116C52.4964 30.6616 52.3804 30.8136 52.2424 30.9846C52.1064 31.1516 51.9564 31.3296 51.7734 31.5116L51.6365 31.5806C51.2845 31.6386 51.1344 31.7566 51.0584 31.8696C50.9744 31.9966 50.9444 32.1696 50.9374 32.4116C50.9304 32.6306 50.9444 32.9326 50.9004 33.1966C50.8664 33.3966 50.7944 33.5976 50.6544 33.7766C50.6924 33.7906 50.7374 33.7976 50.7934 33.7906C50.9314 33.7736 51.1104 33.6866 51.3274 33.5326C51.5394 33.3836 51.7574 33.1936 51.9784 33.0026C52.1924 32.8186 52.4134 32.6266 52.6154 32.5006H52.6164C52.9834 32.2716 53.3144 32.1636 53.6154 32.1896C53.9264 32.2156 54.1604 32.3816 54.3324 32.5996C54.5004 32.8116 54.6204 33.0826 54.7154 33.3556C54.8114 33.6286 54.8904 33.9276 54.9664 34.1966C55.0414 34.3786 55.0664 34.5546 55.0394 34.7206C55.0104 34.8936 54.9304 35.0376 54.8344 35.1546C54.6554 35.3736 54.3814 35.5386 54.2274 35.6466C54.1694 35.6866 54.1304 35.7186 54.1034 35.7426C54.1244 35.7606 54.1554 35.7846 54.2034 35.8136C54.3204 35.8836 54.5024 35.9676 54.7724 36.0696L54.9284 36.2496C54.9704 36.4406 55.0724 36.6036 55.1994 36.7646C55.2644 36.8466 55.3284 36.9196 55.3964 37.0006C55.4604 37.0766 55.5294 37.1616 55.5824 37.2486C55.6354 37.3376 55.6834 37.4456 55.6904 37.5716C55.6974 37.7026 55.6584 37.8276 55.5794 37.9416C55.4344 38.1476 55.1474 38.3306 54.7214 38.5256L54.7204 38.5246C54.5134 38.6306 54.2354 38.6896 53.9964 38.7346C53.7294 38.7836 53.5014 38.8186 53.3354 38.8736C53.2904 38.8896 53.2584 38.9026 53.2384 38.9136C53.2514 38.9346 53.2734 38.9656 53.3114 39.0066C53.3814 39.0826 53.4914 39.1756 53.6504 39.2926C53.9624 39.3276 54.2524 39.4086 54.4964 39.5276C54.7564 39.6546 54.9814 39.8306 55.1124 40.0506C55.2494 40.2816 55.2754 40.5556 55.1354 40.8186C55.0164 41.0416 54.7904 41.2296 54.4764 41.3856C54.4274 41.5466 54.4414 41.6856 54.5004 41.8156C54.5754 41.9756 54.7215 42.1336 54.9255 42.2826C55.3145 42.5666 55.8514 42.7696 56.2514 42.8756C56.8814 42.6726 57.5094 42.6806 57.8924 43.0026C58.1024 43.1796 58.2134 43.4326 58.2084 43.7326C58.2044 44.0226 58.0924 44.3486 57.8784 44.6996L57.8224 44.7646C57.0544 45.3826 56.2244 45.9086 55.4114 46.4286C54.5934 46.9516 53.7894 47.4696 53.0514 48.0816L52.9284 48.1366C52.4684 48.2056 51.9944 48.3116 51.5004 48.4146C51.0124 48.5166 50.5074 48.6156 50.0054 48.6626C48.9984 48.7576 47.9734 48.6476 47.0544 47.9306L47.0514 47.9286C46.1894 47.2316 45.1144 46.9756 44.0914 47.3186L44.0115 47.3306C43.6255 47.3296 43.2575 47.2396 42.9125 47.1276C42.7395 47.0716 42.5674 47.0086 42.4024 46.9476C42.2354 46.8856 42.0734 46.8246 41.9134 46.7706C41.2714 46.5546 40.6984 46.4596 40.0954 46.7996L40.0724 46.8116C39.3774 47.1156 38.6184 47.5126 38.0084 48.0246C37.4144 48.5226 36.9814 49.1136 36.8664 49.8136C36.9934 50.1806 37.0824 50.4846 37.1144 50.7316C37.1474 50.9896 37.1264 51.2386 36.9654 51.4296C36.8094 51.6156 36.5704 51.6876 36.3214 51.7196C36.0824 51.7506 35.7814 51.7506 35.4264 51.7406C34.5124 52.2816 33.5254 52.0936 32.5964 51.7966C32.3134 51.9736 32.0434 52.0296 31.7804 52.0016C31.5004 51.9726 31.2454 51.8516 31.0304 51.7506C30.8024 51.6436 30.6084 51.5526 30.4024 51.5206C30.2084 51.4896 29.9934 51.5096 29.7324 51.6546L29.6114 51.6856C29.2674 51.6846 29.0354 51.5236 28.8684 51.3176C28.7174 51.1316 28.6004 50.8786 28.5014 50.7006C28.3924 50.5036 28.2904 50.3596 28.1544 50.2736C28.0294 50.1946 27.8414 50.1446 27.5164 50.2156L27.3554 50.1976C26.7264 49.8956 26.2974 49.8816 25.9614 49.9696C25.6084 50.0626 25.3324 50.2716 24.9924 50.5006L24.8814 50.5416C24.2774 50.6116 23.8104 50.5436 23.3674 50.4856C22.9264 50.4276 22.5004 50.3776 21.9344 50.4596L21.6784 50.3316C21.5544 50.1016 21.4114 50.0046 21.2644 49.9586C21.1024 49.9086 20.9124 49.9136 20.6794 49.9376C20.4654 49.9596 20.1954 50.0026 19.9524 49.9896C19.7004 49.9756 19.4394 49.9016 19.2254 49.6786C18.8734 49.3796 18.4284 49.2696 17.8964 49.1716C17.4134 49.0826 16.8524 49.0016 16.3284 48.7566C16.1754 48.8176 16.0425 48.8556 15.9255 48.8636C15.7725 48.8726 15.6164 48.8316 15.5124 48.6956C15.4254 48.5796 15.4124 48.4396 15.4114 48.3476C15.4094 48.2506 15.4204 48.1396 15.4264 48.0576C15.4334 47.9646 15.4354 47.8966 15.4274 47.8446C15.4204 47.7946 15.4094 47.7936 15.4184 47.8016C15.4284 47.8096 15.4144 47.7896 15.3224 47.7946C15.2284 47.8006 15.0824 47.8316 14.8654 47.9126L14.6634 47.9016C14.3384 47.7336 13.9994 47.5616 13.6794 47.3946L13.7574 46.9256C14.8374 46.7616 15.4714 45.8026 15.5294 44.7016L15.5354 44.6576C15.6684 44.0986 15.8024 43.5396 15.9354 42.9816C16.0684 42.4226 16.2024 41.8636 16.3354 41.3046L16.4734 41.1366C16.5154 41.1176 16.5534 41.0976 16.5894 41.0796C16.5094 41.0516 16.4234 41.0076 16.3514 40.9396C16.2434 40.8366 16.1854 40.6946 16.1994 40.5286C16.2104 40.3926 16.2674 40.2526 16.3554 40.1066C16.4034 39.6466 16.4694 38.9876 16.5814 38.3976C16.6384 38.0906 16.7105 37.7926 16.8005 37.5456C16.8865 37.3126 17.0064 37.0746 17.1904 36.9446L17.3694 36.9186C17.1484 36.7216 16.9214 36.5196 16.7104 36.3036L16.6534 36.0466C16.7504 35.7656 16.8784 35.4996 16.9844 35.2636C17.0934 35.0206 17.1805 34.8076 17.2225 34.6066C17.2635 34.4106 17.2594 34.2346 17.1914 34.0596C17.1224 33.8816 16.9764 33.6806 16.6944 33.4566L16.6734 33.4396C16.3184 33.0866 15.8414 33.0366 15.2624 32.9176C14.7304 32.8086 14.1454 32.6336 13.8104 31.9656C13.4504 31.7956 13.2094 31.6006 13.0614 31.3736C12.9004 31.1276 12.8674 30.8736 12.8654 30.6506C12.8644 30.5416 12.8704 30.4306 12.8744 30.3356C12.8794 30.2366 12.8814 30.1486 12.8754 30.0656C12.8654 29.9206 12.8274 29.7956 12.7344 29.6756C12.5594 29.5976 12.3194 29.5276 12.0444 29.4486C11.7574 29.3656 11.4344 29.2716 11.1764 29.1486C10.9334 29.0316 10.6544 28.8446 10.5994 28.5296C10.5564 28.2846 10.6614 28.0416 10.8614 27.8026C10.6134 27.6846 10.3334 27.7526 9.9354 27.8426C9.7014 27.8956 9.42142 27.9546 9.14042 27.9156C8.86442 27.8786 8.60243 27.7486 8.36643 27.4846C7.13143 27.0856 5.79345 26.6686 4.63145 26.4866L4.47245 26.3926C4.35145 26.2366 4.19943 26.1816 3.99943 26.1796C3.77943 26.1776 3.54045 26.2366 3.25645 26.2956C2.99845 26.3496 2.6844 26.4066 2.4044 26.3296C2.2564 26.2896 2.1174 26.2116 2.0004 26.0836C1.9174 25.9926 1.85044 25.8806 1.79844 25.7496C1.62844 25.7226 1.48542 25.6966 1.36942 25.6676C1.22542 25.6326 1.1024 25.5906 1.0134 25.5356C0.970405 25.5096 0.912451 25.4656 0.873451 25.3976C0.825451 25.3146 0.818413 25.2136 0.859413 25.1226C0.893413 25.0486 0.949441 25.0006 0.988441 24.9746C1.02944 24.9456 1.0764 24.9226 1.1204 24.9056C1.2884 24.8366 1.54545 24.7866 1.81345 24.7526C1.90445 24.7416 2.00045 24.7336 2.09745 24.7256C2.04445 24.6856 1.99742 24.6536 1.95542 24.6286C1.88942 24.5906 1.83343 24.5656 1.78843 24.5466C1.77643 24.5416 1.73244 24.5246 1.72044 24.5196C1.70244 24.5116 1.66843 24.4976 1.63743 24.4776C1.61143 24.4606 1.52941 24.4016 1.51041 24.2856C1.49241 24.1716 1.5524 24.0896 1.5734 24.0646C1.5984 24.0336 1.62841 24.0076 1.64841 23.9906C1.66741 23.9756 1.68944 23.9576 1.71244 23.9396C1.38844 23.9466 1.06245 23.9276 0.813453 23.8686C0.691453 23.8406 0.567445 23.7986 0.467445 23.7326C0.366445 23.6656 0.258404 23.5506 0.250404 23.3796C0.243404 23.2206 0.328401 23.0866 0.422401 22.9846C0.520401 22.8786 0.661408 22.7706 0.841408 22.6606L0.898414 22.6356C1.41541 22.4766 1.95842 22.3546 2.48942 22.2306C3.02442 22.1046 3.5504 21.9756 4.0554 21.7986L4.2924 21.8376C4.5614 22.0496 4.9164 22.0776 5.3104 21.9716C5.7044 21.8656 6.09845 21.6356 6.38645 21.3966L6.48942 21.3456C7.01942 21.2216 7.58742 21.1236 8.11442 21.2026C8.65742 21.2856 9.14941 21.5566 9.51041 22.1406L9.51243 22.1436C9.68043 22.4236 9.85244 22.5156 10.0144 22.5416C10.1974 22.5716 10.4124 22.5256 10.6774 22.4406C10.9224 22.3616 11.2285 22.2416 11.5115 22.1896C11.7745 22.1406 12.0604 22.1416 12.3324 22.2826C12.8564 22.1156 13.2614 22.0516 13.6464 22.0636C14.0444 22.0746 14.4084 22.1646 14.8294 22.2686C15.0444 22.2746 15.1954 22.2676 15.2974 22.2496C15.3574 22.2396 15.3924 22.2266 15.4104 22.2186C15.4054 22.1836 15.3894 22.1286 15.3534 22.0416C15.2194 21.7216 14.8424 21.0806 15.1564 20.3806C15.1554 20.2176 15.0964 20.0696 14.9834 19.9146C14.8564 19.7416 14.6794 19.5776 14.4714 19.3846C14.0764 19.0176 13.5734 18.5526 13.5074 17.8286L13.5164 17.7366C13.5614 17.5836 13.6585 17.4716 13.7875 17.4026C13.9065 17.3376 14.0424 17.3156 14.1684 17.3096C14.4184 17.2976 14.7294 17.3486 15.0214 17.3966C15.3264 17.4456 15.6304 17.4946 15.9094 17.4986C16.1904 17.5036 16.4094 17.4606 16.5624 17.3596L16.9494 17.5916C16.9184 17.9096 16.9964 18.3746 17.2004 18.6616C17.2974 18.7986 17.4124 18.8816 17.5474 18.9076C17.6864 18.9346 17.8874 18.9106 18.1714 18.7486L18.2944 18.7166C18.9284 18.7146 19.5544 18.7996 20.1594 18.8956C20.7614 18.9906 21.3364 19.0936 21.9024 19.1436C22.1804 19.1156 22.9434 18.9416 23.4454 18.7526C23.4474 18.7526 23.4484 18.7506 23.4504 18.7496L23.3674 18.7276C23.2094 18.6506 23.0744 18.5526 22.9944 18.4216C22.9054 18.2776 22.8994 18.1216 22.9504 17.9796C22.9964 17.8496 23.0874 17.7386 23.1834 17.6486C23.2814 17.5566 23.4014 17.4706 23.5274 17.3916C24.0254 17.0796 24.7354 16.8176 25.0354 16.7136L25.0424 16.7116C25.4644 16.5816 25.9024 16.4886 26.3324 16.4016C26.7644 16.3136 27.1874 16.2306 27.5944 16.1206C28.3754 15.9096 29.0684 15.6036 29.6004 14.9986C29.5844 14.7496 29.5584 14.4946 29.5384 14.1876C29.5164 13.8596 29.5064 13.5096 29.5484 13.1796C29.5904 12.8496 29.6854 12.5216 29.8874 12.2506C30.0864 11.9846 30.3754 11.7926 30.7694 11.7016C31.3444 11.3436 31.9844 11.2586 32.5744 11.1986C33.1964 11.1346 33.7535 11.0966 34.2485 10.8646L34.2514 10.8656C34.9174 10.5506 35.6525 10.1436 36.3995 9.89357C37.1445 9.64457 37.9404 9.53557 38.7784 9.80557C39.0324 9.78157 39.2754 9.74856 39.5174 9.71356C39.6054 9.70156 39.6944 9.68757 39.7834 9.67557C39.7054 9.62557 39.6284 9.57857 39.5594 9.52957C39.3554 9.38357 39.1554 9.21057 39.0614 9.00757C39.0104 8.89757 38.9884 8.77156 39.0194 8.63856C39.0504 8.50856 39.1264 8.39957 39.2244 8.30757C39.4094 8.13457 39.7154 7.98556 40.1384 7.84456C41.5744 6.98656 42.9104 5.99257 43.3914 4.41057C43.6264 3.10957 44.9524 2.49357 46.0804 2.77257L46.1254 2.78856C46.3554 2.89656 46.5374 3.00257 46.6734 3.10957C46.8094 3.21457 46.9144 3.33157 46.9714 3.46457C47.1014 3.76657 46.9444 4.01756 46.8014 4.17656C46.7284 4.25856 46.6415 4.33556 46.5635 4.40356C46.4805 4.47456 46.4074 4.53557 46.3414 4.59857C46.1964 4.73657 46.1764 4.80257 46.1784 4.82857L46.1434 4.98056C45.9624 5.27756 45.9994 5.37356 46.0054 5.38556C46.0114 5.39556 46.0284 5.41856 46.0844 5.44656C46.1424 5.47456 46.2234 5.49956 46.3324 5.52156C46.5574 5.56656 46.8274 5.58456 47.1404 5.62056C47.3974 5.65056 47.6764 5.69356 47.9304 5.77656C48.2604 5.58156 48.8054 5.25256 49.1154 4.95756C49.1994 4.87756 49.2534 4.81156 49.2824 4.76156C49.2834 4.75856 49.2844 4.75556 49.2864 4.75256C49.2804 4.74956 49.2734 4.74556 49.2644 4.74156C49.1924 4.71456 49.0664 4.68857 48.8634 4.67857L48.7334 4.63356C48.4474 4.43456 48.3174 4.21056 48.2764 3.98256C48.2574 3.87656 48.2584 3.77857 48.2624 3.69957C48.2674 3.60957 48.2734 3.56956 48.2724 3.52156C48.2724 3.51156 48.2734 3.50356 48.2724 3.49756C48.2674 3.49556 48.2594 3.49157 48.2494 3.48857C48.1464 3.45357 47.9134 3.43357 47.4164 3.47557L47.1484 3.26556C47.0674 2.75756 47.1084 2.19757 47.3644 1.74657C47.6224 1.29357 48.0824 0.984571 48.7594 0.945571C49.5354 0.554571 50.3454 0.487568 51.1244 0.464568C51.9334 0.440568 52.6935 0.460558 53.4385 0.260558L53.4864 0.252562Z" fill="#9FE2AF" stroke="white" stroke-width="0.5" stroke-linejoin="round"/>
</svg>
