<svg width="121" height="78" viewBox="0 0 121 78" fill="none" xmlns="http://www.w3.org/2000/svg">
<path d="M89.431 37.1485C89.701 36.9275 89.997 36.8885 90.284 36.9395C90.561 36.9895 90.843 37.1265 91.091 37.2495C91.354 37.3785 91.59 37.4975 91.824 37.5575C92.048 37.6155 92.248 37.6135 92.441 37.5175L92.525 37.4935C92.981 37.4425 93.446 37.3675 93.92 37.2915C94.392 37.2145 94.875 37.1365 95.356 37.0775C96.197 36.9745 97.053 36.9315 97.89 37.0755L98.248 37.1495L98.335 37.1885C98.501 37.3075 98.63 37.4385 98.703 37.5875C98.78 37.7455 98.785 37.9095 98.726 38.0615C98.671 38.2035 98.568 38.3195 98.457 38.4115C98.345 38.5055 98.21 38.5885 98.069 38.6635C97.787 38.8125 97.448 38.9425 97.151 39.0535C96.841 39.1695 96.59 39.2605 96.442 39.3385L96.437 39.3405C96.127 39.4945 95.784 39.6225 95.453 39.7455C95.117 39.8705 94.79 39.9915 94.49 40.1375C93.946 40.4035 93.522 40.7375 93.322 41.2765C93.756 41.5585 94.29 41.6155 94.897 41.5815C95.232 41.5625 95.573 41.5175 95.923 41.4765C96.268 41.4365 96.62 41.4005 96.956 41.4035H96.961C98.913 41.4575 100.803 41.6135 102.723 41.4255L102.842 41.4425C103.248 41.6085 103.53 41.8065 103.665 42.0625C103.81 42.3375 103.755 42.6145 103.645 42.8475C103.537 43.0745 103.359 43.3015 103.192 43.5115C103.039 43.7025 102.891 43.8855 102.769 44.0715C102.812 44.3455 102.734 44.5955 102.6 44.8135C102.452 45.0555 102.227 45.2745 102 45.4705C101.886 45.5705 101.764 45.6675 101.648 45.7625C101.53 45.8585 101.416 45.9525 101.309 46.0455C101.096 46.2305 100.927 46.4005 100.825 46.5665C100.712 46.8565 100.434 47.0365 100.172 47.1535C99.886 47.2805 99.548 47.3655 99.256 47.4295C99.184 47.4455 99.115 47.4595 99.051 47.4725C99.15 47.5065 99.246 47.5385 99.336 47.5715C99.571 47.6585 99.806 47.7585 99.947 47.8795C100.015 47.9375 100.114 48.0465 100.112 48.2035C100.109 48.3685 99.998 48.4765 99.91 48.5375C99.816 48.6015 99.69 48.6545 99.542 48.7005C99.392 48.7475 99.202 48.7935 98.972 48.8385L98.954 48.8415C98.399 48.9085 97.919 49.0815 97.354 49.2195C97.117 49.2765 96.873 49.3235 96.619 49.3485C96.627 49.3485 96.636 49.3495 96.644 49.3475L96.765 49.3605C97.396 49.5915 97.998 49.3655 98.72 49.1385C99.397 48.9265 100.166 48.7275 100.956 49.2245C101.606 49.2755 102.147 49.5185 102.632 49.8315C103.103 50.1345 103.553 50.5255 103.982 50.8545C104.351 50.9135 104.624 51.0455 104.817 51.2525C105.018 51.4675 105.106 51.7335 105.161 51.9855C105.188 52.1125 105.207 52.2445 105.226 52.3695C105.245 52.4965 105.264 52.6195 105.288 52.7405C105.337 52.9825 105.407 53.2015 105.538 53.3915L105.573 53.4635C105.91 54.5975 106.884 55.3105 108.048 55.3785L108.284 55.3835L108.365 55.3945C108.997 55.5995 109.499 56.0465 109.95 56.4925C110.414 56.9515 110.822 57.4025 111.306 57.7145L111.307 57.7155C111.648 57.9365 111.79 58.2345 111.819 58.5485C111.845 58.8405 111.773 59.1445 111.714 59.3885C111.649 59.6585 111.604 59.8465 111.619 59.9865C111.626 60.0455 111.643 60.0805 111.664 60.1055C111.687 60.1315 111.734 60.1675 111.836 60.1965L111.828 60.2255L111.855 60.1935C112.328 60.3875 112.937 60.6585 113.404 61.0475C113.876 61.4405 114.236 61.9855 114.115 62.7085L113.998 62.8795C113.666 63.0835 113.462 63.2745 113.356 63.4285C113.249 63.5845 113.261 63.6685 113.274 63.7005C113.289 63.7365 113.347 63.8085 113.532 63.8535C113.7 63.8955 113.943 63.9025 114.256 63.8555C114.962 63.2215 115.849 63.0335 116.729 63.0625C117.632 63.0925 118.551 63.3505 119.312 63.6115L119.345 63.6255C119.875 63.8965 120.307 64.4155 120.536 64.9855C120.766 65.5555 120.808 66.2215 120.49 66.7745L120.483 66.7865L120.273 66.6495L120.482 66.7865C119.983 67.5505 119.196 67.9125 118.456 68.2275C117.695 68.5525 116.987 68.8305 116.478 69.3955L116.477 69.3945C116.394 69.5085 116.274 69.5925 116.159 69.6535C116.024 69.7245 115.866 69.7835 115.703 69.8335C115.556 69.8785 115.398 69.9185 115.243 69.9545C116.32 70.1135 117.364 70.2695 118.342 70.0485L118.46 70.0495C118.877 70.1575 119.173 70.3635 119.261 70.6825C119.346 70.9905 119.205 71.2935 119.02 71.5205C118.829 71.7565 118.551 71.9635 118.25 72.1055C117.994 72.2265 117.704 72.3065 117.42 72.3055C117.066 72.7275 116.574 72.7585 116.15 72.7795C115.669 72.8035 115.217 72.8175 114.778 73.1385L114.774 73.1415C113.972 73.7025 113.11 73.5735 112.338 73.4285C111.538 73.2785 110.839 73.1165 110.168 73.4015C109.523 73.7505 108.916 73.6125 108.396 73.4715C107.848 73.3235 107.412 73.1845 106.952 73.3415L106.914 73.3505C105.764 73.5535 104.562 73.6025 103.423 73.7115C103.44 73.7635 103.453 73.8135 103.458 73.8605C103.467 73.9365 103.461 74.0265 103.415 74.1115C103.367 74.2015 103.29 74.2545 103.214 74.2825C103.084 74.3305 102.932 74.3135 102.82 74.2945C102.695 74.2725 102.551 74.2365 102.411 74.1995C102.115 74.1225 101.817 74.0445 101.563 74.0395C101.313 74.0345 101.183 74.0995 101.115 74.2275L100.784 74.3355C99.742 73.8255 98.843 73.6045 97.833 73.9935L97.682 74.0025C97.292 73.9035 97.076 73.9305 96.948 73.9905C96.823 74.0485 96.733 74.1595 96.644 74.3475C96.599 74.4425 96.558 74.5475 96.513 74.6665C96.469 74.7815 96.42 74.9105 96.363 75.0375C96.247 75.2935 96.086 75.5625 95.815 75.7785L95.816 75.7795C95.532 76.0095 95.247 76.0895 94.961 76.0535C94.693 76.0185 94.452 75.8835 94.245 75.7505C94.019 75.6055 93.843 75.4695 93.634 75.3555C93.453 75.2565 93.282 75.1975 93.107 75.1925C92.881 75.3135 92.636 75.3805 92.39 75.4185C92.12 75.4605 91.83 75.4745 91.559 75.4935C90.999 75.5325 90.489 75.5955 90.064 75.8975L90.016 75.9245C89.819 76.0075 89.627 76.1475 89.421 76.3145C89.226 76.4735 89.008 76.6675 88.793 76.8075C88.575 76.9505 88.318 77.0705 88.027 77.0515C87.755 77.0325 87.501 76.8965 87.256 76.6465C86.792 76.6145 86.469 76.5645 86.282 76.4845C86.194 76.4475 86.036 76.3615 86.01 76.1785C85.985 75.9995 86.11 75.8775 86.171 75.8255C86.315 75.7035 86.567 75.5885 86.829 75.4845C87.103 75.3755 87.43 75.2615 87.752 75.1505C88.213 74.9905 88.563 74.6665 88.988 74.3195C89.381 73.9985 89.832 73.6715 90.443 73.5975C90.913 73.2735 91.083 72.8855 91.334 72.4855C91.461 72.2845 91.613 72.0795 91.842 71.9225C92.028 71.7945 92.252 71.7085 92.533 71.6685C92.574 71.4275 92.697 71.2385 92.885 71.1055C93.112 70.9465 93.408 70.8845 93.692 70.8575C93.981 70.8305 94.296 70.8375 94.58 70.8455C94.874 70.8545 95.129 70.8625 95.328 70.8435L95.382 70.8445C95.905 70.9075 96.478 71.0165 97.051 71.0595C97.576 71.0995 98.024 71.0735 98.336 70.9365C98.367 70.8625 98.41 70.7905 98.45 70.7305C98.523 70.6205 98.619 70.4995 98.72 70.3795C98.822 70.2575 98.936 70.1315 99.045 70.0095C99.145 69.8975 99.241 69.7895 99.328 69.6895C97.634 70.7075 95.697 70.1055 94.117 69.4725L94.109 69.4695C93.283 69.1085 92.347 69.1765 91.339 69.1985C90.36 69.2205 89.317 69.1965 88.437 68.5415L88.34 68.3825C88.282 68.0355 88.422 67.7625 88.652 67.5675C88.868 67.3845 89.167 67.2625 89.467 67.1745C89.772 67.0845 90.107 67.0205 90.411 66.9675C90.723 66.9125 90.995 66.8695 91.201 66.8205L91.204 66.8195C91.755 66.6965 92.376 66.5025 92.827 66.1825C93.049 66.0255 93.222 65.8425 93.328 65.6335C93.432 65.4265 93.479 65.1795 93.432 64.8745L93.442 64.7565C93.566 64.3885 93.538 64.2085 93.494 64.1235C93.453 64.0465 93.362 63.9815 93.163 63.9445C92.966 63.9075 92.717 63.9095 92.439 63.9205C92.174 63.9305 91.876 63.9495 91.623 63.9315L91.503 63.8915C91.378 63.8095 91.283 63.6905 91.259 63.5345C91.237 63.3865 91.287 63.2515 91.35 63.1455C91.473 62.9395 91.706 62.7435 91.951 62.5795C92.203 62.4105 92.499 62.2545 92.781 62.1365C93.048 62.0235 93.32 61.9365 93.538 61.9095C94.469 61.6325 95.43 61.5725 96.371 61.5445C97.177 61.5195 97.962 61.5155 98.733 61.4275C98.463 61.0165 98.368 60.5645 98.395 60.1105C98.43 59.5265 98.663 58.9455 98.959 58.4375L98.962 58.4325C99.082 58.2355 99.146 58.0905 99.175 57.9875C99.204 57.8845 99.19 57.8455 99.188 57.8405C99.187 57.8375 99.18 57.8235 99.136 57.8055C99.084 57.7845 99.003 57.7685 98.888 57.7605C98.645 57.7425 98.379 57.7635 98.055 57.7605C97.772 57.7575 97.445 57.7355 97.19 57.6035C96.471 57.3875 96.087 56.8765 96.074 56.2955C96.06 55.7245 96.407 55.1535 96.999 54.8115L97.026 54.7985C97.241 54.7055 97.394 54.6255 97.498 54.5565C97.551 54.5225 97.585 54.4925 97.609 54.4705C97.6 54.4665 97.592 54.4595 97.58 54.4545C97.446 54.3885 97.22 54.3305 96.943 54.2845C96.696 54.2435 96.428 54.2145 96.188 54.1925C95.005 54.8005 93.618 55.1705 92.291 54.5925C91.989 55.0125 91.523 55.1815 91.039 55.2095C90.49 55.2405 89.887 55.0925 89.376 54.9025L89.365 54.8985C89.199 54.8275 89.061 54.7325 88.97 54.6025C88.875 54.4675 88.847 54.3165 88.865 54.1695C88.897 53.9005 89.084 53.6395 89.269 53.4235C89.462 53.1975 89.705 52.9655 89.907 52.7635C90.12 52.5505 90.277 52.3805 90.348 52.2535L90.438 52.1605C90.623 52.0495 90.728 51.9605 90.785 51.8935C90.835 51.8335 90.835 51.8045 90.834 51.8005C90.834 51.7905 90.827 51.7595 90.779 51.7015C90.73 51.6435 90.659 51.5785 90.564 51.5005C90.389 51.3555 90.126 51.1605 89.951 50.9225C89.76 50.6625 89.656 50.3325 89.8 49.9285L90.064 49.7645C90.594 49.8255 90.883 49.4595 90.92 49.1155C90.939 48.9405 90.887 48.8155 90.817 48.7545C90.76 48.7045 90.636 48.6505 90.386 48.7265C89.929 49.2245 89.387 49.4475 88.86 49.6115C88.299 49.7865 87.792 49.8945 87.319 50.1755L87.176 50.2105C86.997 50.1995 86.835 50.1525 86.705 50.0545C86.573 49.9545 86.498 49.8175 86.464 49.6715C86.402 49.3965 86.484 49.0745 86.601 48.7865C86.839 48.1965 87.309 47.5465 87.645 47.2275L87.685 47.1965C87.969 47.0215 88.004 46.8635 87.994 46.7675C87.98 46.6475 87.882 46.5005 87.703 46.3865C87.526 46.2735 87.32 46.2255 87.159 46.2555C87.018 46.2815 86.887 46.3695 86.824 46.6025L86.786 46.6825C86.353 47.2875 85.577 47.3895 85.079 47.1695C84.824 47.0565 84.598 46.8355 84.575 46.5135C84.552 46.2015 84.727 45.8845 85.056 45.5865C85.249 45.3845 85.472 45.1865 85.661 45.0075C85.862 44.8165 86.033 44.6395 86.15 44.4605C86.264 44.2845 86.318 44.1195 86.307 43.9485C86.295 43.7755 86.214 43.5595 85.988 43.2875L86.161 42.8785C86.581 42.8475 86.789 42.7635 86.876 42.6925C86.914 42.6625 86.923 42.6395 86.926 42.6265C86.93 42.6105 86.931 42.5795 86.912 42.5285C86.872 42.4195 86.759 42.2715 86.57 42.1095C86.386 41.9525 86.151 41.8005 85.899 41.6755L85.795 41.3235C86.007 40.9675 86.266 40.7535 86.563 40.6475C86.852 40.5445 87.151 40.5535 87.427 40.5865C87.566 40.6025 87.707 40.6275 87.84 40.6495C87.976 40.6725 88.107 40.6935 88.236 40.7085C88.452 40.7325 88.651 40.7335 88.837 40.6925C88.822 40.6665 88.801 40.6305 88.769 40.5885C88.627 40.3995 88.414 40.1965 88.202 39.9625C88.103 39.8535 88.005 39.7375 87.936 39.6255C87.875 39.5265 87.794 39.3655 87.837 39.1935C87.889 38.9895 88.071 38.9025 88.227 38.8675C88.388 38.8315 88.604 38.8285 88.875 38.8515C89.159 38.8685 89.346 38.8625 89.465 38.8445C89.473 38.8435 89.481 38.8405 89.488 38.8395C89.461 38.7985 89.426 38.7485 89.378 38.6865C89.311 38.5995 89.223 38.4915 89.149 38.3815C89.075 38.2705 89.001 38.1385 88.964 37.9955C88.926 37.8455 88.93 37.6755 89.021 37.5115C89.104 37.3605 89.246 37.2435 89.431 37.1485ZM75.377 52.4225C75.833 52.2945 76.321 52.2105 76.754 52.2805L76.937 52.3205L77.081 52.4285C77.19 52.6045 77.364 52.7375 77.573 52.8595C77.676 52.9205 77.781 52.9745 77.889 53.0305C77.993 53.0845 78.103 53.1425 78.198 53.2055C78.207 53.2115 78.215 53.2195 78.225 53.2255C78.431 53.0355 78.699 52.9285 78.965 52.8555C79.233 52.7825 79.532 52.7375 79.805 52.6915C80.086 52.6445 80.344 52.5975 80.565 52.5205L80.575 52.5165L80.831 52.4525C81.429 52.3295 82.009 52.4015 82.549 52.4835C83.181 52.5795 83.749 52.6865 84.318 52.5975L84.525 52.6595C84.883 52.9825 85.333 53.4135 85.669 53.9025C85.988 54.3665 86.229 54.9165 86.153 55.4975C86.35 55.9075 86.557 56.4035 86.547 56.8825C86.542 57.1445 86.472 57.4065 86.301 57.6435C86.135 57.8745 85.885 58.0655 85.544 58.2185C85.073 58.5225 84.456 58.6435 83.956 58.6685L83.942 58.6555L83.93 58.6685C83.705 58.6555 83.548 58.6645 83.444 58.6845C83.361 58.7005 83.327 58.7215 83.317 58.7285C83.317 58.7335 83.316 58.7405 83.318 58.7525C83.324 58.7955 83.347 58.8625 83.397 58.9595C83.499 59.1585 83.656 59.3785 83.828 59.6525C83.988 59.9065 84.155 60.2015 84.219 60.4955L84.328 60.8945C84.367 61.0305 84.411 61.1675 84.455 61.3075C84.543 61.5855 84.636 61.8755 84.712 62.1675C84.864 62.7495 84.959 63.3695 84.816 63.9905L84.698 64.1505C84.274 64.3975 84 64.8085 83.761 65.2835C83.64 65.5245 83.538 65.7585 83.421 66.0045C83.309 66.2415 83.187 66.4785 83.039 66.6835L82.788 66.7835C81.761 66.5825 80.846 66.8495 79.986 67.2265L79.876 67.2485C78.035 67.1795 76.302 67.7105 74.702 68.6225C73.755 69.2915 72.723 69.6345 71.577 69.6485C70.168 70.2645 68.645 70.2775 67.211 70.3585L66.96 70.0295C67.164 69.4235 67.081 69.0065 66.897 68.8075C66.728 68.6265 66.369 68.5255 65.752 68.8035L65.578 68.8135C65.33 68.7385 65.135 68.6465 64.998 68.5315C64.855 68.4105 64.768 68.2545 64.773 68.0725C64.777 67.9045 64.859 67.7615 64.946 67.6525C65.035 67.5405 65.151 67.4395 65.267 67.3515L65.269 67.3495C64.949 67.3275 64.627 67.2755 64.389 67.2055C64.272 67.1715 64.153 67.1275 64.066 67.0675C64.024 67.0395 63.962 66.9895 63.925 66.9125C63.879 66.8155 63.886 66.7045 63.945 66.6125C63.992 66.5385 64.062 66.4945 64.114 66.4695C64.17 66.4405 64.236 66.4175 64.307 66.3985C64.45 66.3605 64.646 66.3285 64.899 66.3025L64.913 66.3005C65.173 66.2875 65.474 66.3135 65.751 66.3325C66.038 66.3515 66.308 66.3635 66.542 66.3375C66.777 66.3105 66.943 66.2475 67.049 66.1445C67.149 66.0485 67.234 65.8815 67.231 65.5625L67.251 65.4625C67.409 65.0955 67.701 64.9175 68.016 64.8355C68.199 64.7875 68.398 64.7705 68.593 64.7635C68.53 64.7655 68.469 64.7645 68.413 64.7595C68.356 64.7535 68.289 64.7405 68.227 64.7135C68.163 64.6845 68.082 64.6305 68.039 64.5305C67.996 64.4295 68.012 64.3315 68.038 64.2605C68.064 64.1905 68.107 64.1255 68.154 64.0675C68.224 63.9795 68.328 63.8835 68.459 63.7705C68.411 63.5745 68.434 63.3695 68.501 63.1815C68.59 62.9325 68.761 62.6975 68.976 62.5055C69.386 62.1395 70.004 61.8955 70.65 62.0425C70.721 62.0135 70.782 61.9865 70.832 61.9625C70.676 61.9265 70.474 61.8985 70.26 61.8755C70.137 61.8625 70.013 61.8505 69.898 61.8405C69.791 61.8305 69.689 61.8205 69.603 61.8105C69.053 61.8105 68.504 61.6835 68.018 61.6035C67.513 61.5205 67.053 61.4835 66.606 61.6165L66.536 61.6265C66.168 61.6275 65.88 61.5505 65.711 61.3475C65.539 61.1405 65.561 60.8855 65.603 60.7075C65.646 60.5265 65.731 60.3435 65.775 60.2375C65.787 60.2095 65.796 60.1865 65.802 60.1685C65.807 60.1535 65.809 60.1465 65.809 60.1445C65.809 60.1465 65.808 60.1555 65.808 60.1685C65.808 60.1815 65.811 60.2055 65.823 60.2345C65.846 60.2935 65.891 60.3345 65.94 60.3545L65.988 60.3695L66.066 59.8755C66.325 59.9145 66.51 59.8705 66.647 59.7945C66.787 59.7165 66.896 59.5925 66.979 59.4435C67.097 59.2325 67.15 58.9935 67.17 58.8295C67.003 58.7865 66.81 58.7655 66.603 58.7515C66.343 58.7335 66.038 58.7255 65.813 58.6815C65.698 58.6595 65.57 58.6225 65.466 58.5485C65.35 58.4645 65.269 58.3395 65.26 58.1775C65.252 58.0325 65.303 57.8845 65.378 57.7405C65.456 57.5925 65.574 57.4235 65.732 57.2295C66.177 56.6615 66.725 56.5175 67.279 56.5465C67.548 56.5605 67.821 56.6145 68.081 56.6755C68.334 56.7335 68.565 56.7925 68.8 56.8425C69.496 56.6755 70.195 56.7075 70.87 56.7865C71.393 56.8475 71.883 56.9305 72.372 56.9835C72.37 56.9775 72.366 56.9725 72.364 56.9675C72.295 56.8085 72.281 56.6375 72.363 56.4805C72.437 56.3375 72.569 56.2505 72.686 56.1935C72.806 56.1355 72.947 56.0915 73.083 56.0535C73.374 55.9735 73.655 55.9145 73.896 55.8065C74.075 55.7265 74.189 55.6375 74.247 55.5285C74.212 55.5195 74.163 55.5095 74.097 55.5035C73.882 55.4835 73.586 55.4995 73.264 55.5215C72.954 55.5425 72.618 55.5695 72.356 55.5605C72.226 55.5565 72.093 55.5435 71.982 55.5075C71.878 55.4735 71.718 55.3925 71.677 55.2045L71.884 54.9045C72.445 54.8185 72.784 54.6265 73.044 54.3445C73.317 54.0505 73.519 53.6435 73.774 53.0865L73.907 52.9585C74.321 52.7895 74.85 52.5695 75.377 52.4225ZM64.943 66.7995C64.928 66.8005 64.914 66.8035 64.9 66.8045C65.032 66.8265 65.176 66.8435 65.322 66.8525C65.553 66.8685 65.773 66.8655 65.949 66.8425C65.87 66.8385 65.793 66.8365 65.717 66.8315C65.425 66.8115 65.165 66.7895 64.943 66.7995ZM69.703 64.6365C69.561 64.6515 69.409 64.6725 69.254 64.6945C69.102 64.7155 68.947 64.7375 68.806 64.7515C68.741 64.7575 68.675 64.7615 68.612 64.7635C68.729 64.7605 68.845 64.7575 68.954 64.7575C69.268 64.7555 69.53 64.7515 69.735 64.6895C69.795 64.6715 69.847 64.6465 69.894 64.6175C69.835 64.6215 69.772 64.6285 69.703 64.6365ZM86.385 50.4605C86.621 50.3145 86.962 50.2225 87.24 50.4065C87.525 50.5955 87.599 50.9785 87.526 51.4425L87.524 51.4415C87.507 51.5785 87.436 51.7035 87.362 51.7995C87.279 51.9045 87.171 52.0045 87.055 52.0875C86.939 52.1695 86.805 52.2425 86.667 52.2835C86.532 52.3245 86.369 52.3415 86.213 52.2855L86.118 52.2225C85.808 51.8975 85.737 51.5255 85.827 51.1925C85.912 50.8755 86.137 50.6135 86.385 50.4605ZM37.726 0.252208C38.01 0.263208 38.326 0.314506 38.65 0.382106C39.308 0.385606 39.809 0.771805 40.237 1.09111C40.638 1.39081 40.989 1.6424 41.411 1.6995L41.596 1.71221L41.732 1.75031C42.146 2.01331 42.642 2.02111 43.217 2.04231C43.76 2.06221 44.389 2.09601 44.87 2.54521L44.935 2.81281C44.743 3.34091 44.733 3.6615 44.854 3.8684C44.96 4.049 45.209 4.2188 45.752 4.3294L46.004 4.3733L46.009 4.3743C46.585 4.4701 47.196 4.48641 47.83 4.53051C48.375 4.56841 48.932 4.6266 49.449 4.7835L49.667 4.85671L49.781 4.94171C50.317 5.66051 50.348 6.6744 50.017 7.47C49.683 8.274 48.949 8.91791 47.918 8.79711L47.884 8.7913C47.543 8.7024 47.291 8.69401 47.1 8.73171C46.913 8.76861 46.768 8.852 46.642 8.9729C46.512 9.0978 46.4 9.2657 46.286 9.4729C46.17 9.6859 46.069 9.9065 45.938 10.1624L45.907 10.2093C44.93 11.3765 43.237 11.4304 41.98 10.8665C41.092 11.4971 40.107 11.897 39.106 12.2161C38.583 12.3828 38.051 12.5295 37.528 12.676C37.002 12.8232 36.483 12.9704 35.977 13.1399L35.964 13.1438C35.46 13.2817 34.933 13.3255 34.416 13.3411C34.158 13.3489 33.897 13.3495 33.642 13.3509C33.386 13.3522 33.134 13.3548 32.886 13.3645C31.892 13.4037 31.011 13.568 30.321 14.2708L30.295 14.2942C29.53 14.882 28.619 15.1015 27.705 15.18C26.803 15.2574 25.843 15.1983 25.018 15.2044H25C22.608 15.0508 20.27 14.5144 18.078 13.5188C16.893 13.3701 15.703 13.3971 14.489 13.4221C13.277 13.4471 12.041 13.4688 10.802 13.2981C10.608 13.317 10.315 13.3092 10.014 13.2805C9.68598 13.2493 9.322 13.1927 9.026 13.1126C8.879 13.0728 8.73802 13.0246 8.62402 12.9651C8.52602 12.9134 8.38203 12.8204 8.33203 12.6614C8.27003 12.4589 8.39001 12.2997 8.50201 12.2093C8.61601 12.1175 8.784 12.0373 8.995 11.9622C9.345 11.8367 9.70203 11.729 10.048 11.6214C10.397 11.5129 10.735 11.4037 11.06 11.2747C11.611 11.0555 12.111 10.7797 12.527 10.3626C12.338 10.3451 12.088 10.3465 11.792 10.3421C11.494 10.3376 11.159 10.326 10.855 10.2698C10.556 10.2145 10.246 10.1092 10.033 9.887L10 9.845C9.718 9.3851 9.355 9.2079 8.94 9.1575C8.502 9.1045 8.01199 9.1918 7.48499 9.2815L7.435 9.2854C6.8 9.2657 6.14299 9.3821 5.43799 9.4583C4.75099 9.5324 4.03202 9.56431 3.36102 9.33431L3.29401 9.30011C3.13901 9.18651 3.01399 9.06081 2.95099 8.91731C2.87899 8.75641 2.89398 8.5917 2.97998 8.4514C3.05598 8.3274 3.178 8.23881 3.297 8.17411C3.42 8.10711 3.566 8.05141 3.716 8.00511C4.311 7.82251 5.12998 7.7402 5.45898 7.7044L5.487 7.7024C7.312 7.7062 9.14303 7.3901 10.965 7.1448L11.065 7.1214C11.286 7.0582 11.43 6.9479 11.517 6.8294C11.617 6.6925 11.653 6.5267 11.629 6.3645C11.583 6.0464 11.302 5.72541 10.778 5.73561L10.734 5.73271C8.99201 5.45981 7.27804 5.1152 5.57404 5.4788C4.22104 6.0055 2.71099 6.1896 1.29199 5.5969C1.06599 5.5691 0.863035 5.51331 0.686035 5.39971C0.496035 5.27761 0.358 5.10381 0.25 4.88211L0.281006 4.6155C0.879006 3.8728 1.70999 3.78761 2.48999 3.79711C2.90299 3.80221 3.25799 3.8318 3.64899 3.8274C3.84399 3.8252 4.03098 3.8118 4.20898 3.7854C4.18598 3.7679 4.162 3.75011 4.138 3.73171C3.93 3.57281 3.68398 3.3744 3.50098 3.1643C3.33298 2.9702 3.14803 2.6851 3.23303 2.3762C3.31903 2.0609 3.64301 1.87161 4.08301 1.75221L4.17303 1.7444C4.56003 1.7815 4.93899 1.9071 5.29999 2.0501C5.48099 2.1217 5.66201 2.19971 5.83801 2.27471C6.01601 2.35031 6.19004 2.42351 6.36304 2.48851C7.01904 2.73601 7.609 2.84641 8.19 2.54521C8.187 2.53371 8.18502 2.52101 8.17902 2.50811C8.15502 2.45911 8.10302 2.3965 8.01202 2.3225C7.82402 2.16971 7.56698 2.0382 7.30798 1.8841C7.18698 1.8122 7.06303 1.73301 6.96503 1.64771C6.87603 1.56931 6.761 1.44391 6.745 1.27271C6.728 1.07871 6.844 0.932808 6.974 0.834308C7.104 0.735708 7.29301 0.647101 7.53601 0.561801L7.703 0.562808C8.618 0.888308 9.60803 0.945608 10.634 1.06281C11.64 1.17761 12.67 1.35051 13.576 1.93781L13.713 2.02471C14.019 2.23171 14.217 2.4757 14.317 2.7473C14.43 3.0563 14.404 3.36931 14.314 3.64971C14.178 4.07151 13.886 4.45171 13.62 4.71801C13.775 4.84981 13.926 4.9964 14.066 5.136C14.287 5.3561 14.488 5.5581 14.69 5.7044C14.891 5.8506 15.057 5.9145 15.204 5.9046C15.345 5.895 15.53 5.8146 15.759 5.5335L15.797 5.4954C16.081 5.27 16.417 5.14511 16.75 5.06281C17.079 4.98161 17.434 4.9358 17.746 4.8841C18.355 4.7833 18.808 4.6556 19.063 4.2913C18.844 3.7602 18.796 3.1066 18.977 2.6243C19.077 2.3576 19.258 2.11721 19.545 2.00811C19.796 1.91291 20.085 1.9342 20.396 2.0608L20.531 2.1223L20.583 2.1565C21.05 2.5574 21.534 3.02761 22.067 3.37721C22.512 3.66921 22.953 3.8473 23.396 3.8303C23.33 3.4736 23.315 3.0856 23.481 2.7669C23.705 2.3377 24.19 2.1377 24.939 2.1663C25.242 2.0131 25.533 1.9553 25.815 1.971C26.112 1.9875 26.383 2.0841 26.633 2.2083C26.88 2.3312 27.121 2.489 27.346 2.6341C27.519 2.7454 27.686 2.85071 27.853 2.93971L28.021 3.02371L28.073 3.055C28.208 3.1616 28.436 3.26661 28.698 3.34111C28.958 3.41521 29.222 3.45101 29.419 3.43781C29.518 3.43111 29.584 3.4132 29.621 3.3948C29.632 3.3894 29.638 3.38401 29.642 3.38111C29.642 3.36991 29.639 3.33631 29.608 3.27371C29.565 3.18851 29.482 3.07111 29.338 2.91921L29.322 2.89971C29.216 2.76191 29.127 2.6174 29.108 2.4759C29.097 2.3965 29.106 2.3046 29.159 2.221C29.21 2.1392 29.285 2.09321 29.35 2.06761C29.47 2.02101 29.614 2.0219 29.735 2.0315C29.865 2.0419 30.014 2.067 30.166 2.0969C30.319 2.127 30.484 2.1638 30.646 2.1995C30.809 2.2355 30.97 2.27111 31.121 2.29911C31.274 2.32731 31.412 2.3465 31.528 2.3538C31.648 2.3613 31.724 2.35361 31.764 2.34111L31.849 2.3303C32.705 2.3687 33.55 2.4656 34.389 2.4329C35.156 2.4029 35.878 2.25951 36.524 1.87921C36.436 1.54481 36.408 1.259 36.454 1.0198C36.513 0.719501 36.681 0.506705 36.927 0.384105C37.158 0.269205 37.44 0.241208 37.726 0.252208Z" fill="#9FE2AF"/>
<path d="M35.964 13.1438L35.977 13.1399C36.483 12.9704 37.002 12.8232 37.528 12.676C38.051 12.5295 38.583 12.3828 39.106 12.2161C40.107 11.897 41.092 11.4971 41.98 10.8665C43.237 11.4304 44.93 11.3765 45.907 10.2093L45.938 10.1624C46.069 9.9065 46.17 9.6859 46.286 9.4729C46.4 9.2657 46.512 9.0978 46.642 8.9729C46.768 8.852 46.913 8.76861 47.1 8.73171C47.291 8.69401 47.543 8.7024 47.884 8.7913L47.918 8.79711C48.949 8.91791 49.683 8.274 50.017 7.47C50.348 6.6744 50.317 5.66051 49.781 4.94171L49.667 4.85671L49.449 4.7835C48.932 4.6266 48.375 4.56841 47.83 4.53051C47.196 4.48641 46.585 4.4701 46.009 4.3743L46.004 4.3733L45.752 4.3294C45.209 4.2188 44.96 4.049 44.854 3.8684C44.733 3.6615 44.743 3.34091 44.935 2.81281L44.87 2.54521C44.389 2.09601 43.76 2.06221 43.217 2.04231C42.642 2.02111 42.146 2.01331 41.732 1.75031L41.596 1.71221L41.411 1.6995C40.989 1.6424 40.638 1.39081 40.237 1.09111C39.809 0.771805 39.308 0.385606 38.65 0.382106C38.326 0.314506 38.01 0.263208 37.726 0.252208C37.44 0.241208 37.158 0.269205 36.927 0.384105C36.681 0.506705 36.513 0.719501 36.454 1.0198C36.408 1.259 36.436 1.54481 36.524 1.87921C35.878 2.25951 35.156 2.4029 34.389 2.4329C33.55 2.4656 32.705 2.3687 31.849 2.3303L31.764 2.34111C31.724 2.35361 31.648 2.3613 31.528 2.3538C31.412 2.3465 31.274 2.32731 31.121 2.29911C30.97 2.27111 30.809 2.2355 30.646 2.1995C30.484 2.1638 30.319 2.127 30.166 2.0969C30.014 2.067 29.865 2.0419 29.735 2.0315C29.614 2.0219 29.47 2.02101 29.35 2.06761C29.285 2.09321 29.21 2.1392 29.159 2.221C29.106 2.3046 29.097 2.3965 29.108 2.4759C29.127 2.6174 29.216 2.76191 29.322 2.89971L29.338 2.91921C29.482 3.07111 29.565 3.18851 29.608 3.27371C29.639 3.33631 29.642 3.36991 29.642 3.38111C29.638 3.38401 29.632 3.3894 29.621 3.3948C29.584 3.4132 29.518 3.43111 29.419 3.43781C29.222 3.45101 28.958 3.41521 28.698 3.34111C28.436 3.26661 28.208 3.1616 28.073 3.055L28.021 3.02371L27.853 2.93971C27.686 2.85071 27.519 2.7454 27.346 2.6341C27.121 2.489 26.88 2.3312 26.633 2.2083C26.383 2.0841 26.112 1.9875 25.815 1.971C25.533 1.9553 25.242 2.0131 24.939 2.1663C24.19 2.1377 23.705 2.3377 23.481 2.7669C23.315 3.0856 23.33 3.4736 23.396 3.8303C22.953 3.8473 22.512 3.66921 22.067 3.37721C21.534 3.02761 21.05 2.5574 20.583 2.1565L20.531 2.1223L20.396 2.0608C20.085 1.9342 19.796 1.91291 19.545 2.00811C19.258 2.11721 19.077 2.3576 18.977 2.6243C18.796 3.1066 18.844 3.7602 19.063 4.2913C18.808 4.6556 18.355 4.7833 17.746 4.8841C17.434 4.9358 17.079 4.98161 16.75 5.06281C16.417 5.14511 16.081 5.27 15.797 5.4954L15.759 5.5335C15.53 5.8146 15.345 5.895 15.204 5.9046C15.057 5.9145 14.891 5.8506 14.69 5.7044C14.488 5.5581 14.287 5.3561 14.066 5.136C13.926 4.9964 13.775 4.84981 13.62 4.71801C13.886 4.45171 14.178 4.07151 14.314 3.64971C14.404 3.36931 14.43 3.0563 14.317 2.7473C14.217 2.4757 14.019 2.23171 13.713 2.02471L13.576 1.93781C12.67 1.35051 11.64 1.17761 10.634 1.06281C9.60803 0.945608 8.618 0.888308 7.703 0.562808L7.53601 0.561801C7.29301 0.647101 7.104 0.735708 6.974 0.834308C6.844 0.932808 6.728 1.07871 6.745 1.27271C6.761 1.44391 6.87603 1.56931 6.96503 1.64771C7.06303 1.73301 7.18698 1.8122 7.30798 1.8841C7.56698 2.0382 7.82402 2.16971 8.01202 2.3225C8.10302 2.3965 8.15502 2.45911 8.17902 2.50811C8.18502 2.52101 8.187 2.53371 8.19 2.54521C7.609 2.84641 7.01904 2.73601 6.36304 2.48851C6.19004 2.42351 6.01601 2.35031 5.83801 2.27471C5.66201 2.19971 5.48099 2.1217 5.29999 2.0501C4.93899 1.9071 4.56003 1.7815 4.17303 1.7444L4.08301 1.75221C3.64301 1.87161 3.31903 2.0609 3.23303 2.3762C3.14803 2.6851 3.33298 2.9702 3.50098 3.1643C3.68398 3.3744 3.93 3.57281 4.138 3.73171C4.162 3.75011 4.18598 3.7679 4.20898 3.7854C4.03098 3.8118 3.84399 3.8252 3.64899 3.8274C3.25799 3.8318 2.90299 3.80221 2.48999 3.79711C1.70999 3.78761 0.879006 3.8728 0.281006 4.6155L0.25 4.88211C0.358 5.10381 0.496035 5.27761 0.686035 5.39971C0.863035 5.51331 1.06599 5.5691 1.29199 5.5969C2.71099 6.1896 4.22104 6.0055 5.57404 5.4788C7.27804 5.1152 8.99201 5.45981 10.734 5.73271L10.778 5.73561C11.302 5.72541 11.583 6.0464 11.629 6.3645C11.653 6.5267 11.617 6.6925 11.517 6.8294C11.43 6.9479 11.286 7.0582 11.065 7.1214L10.965 7.1448C9.14303 7.3901 7.312 7.7062 5.487 7.7024L5.45898 7.7044C5.12998 7.7402 4.311 7.82251 3.716 8.00511C3.566 8.05141 3.42 8.10711 3.297 8.17411C3.178 8.23881 3.05598 8.3274 2.97998 8.4514C2.89398 8.5917 2.87899 8.75641 2.95099 8.91731C3.01399 9.06081 3.13901 9.18651 3.29401 9.30011L3.36102 9.33431C4.03202 9.56431 4.75099 9.5324 5.43799 9.4583C6.14299 9.3821 6.8 9.2657 7.435 9.2854L7.48499 9.2815C8.01199 9.1918 8.502 9.1045 8.94 9.1575C9.355 9.2079 9.718 9.3851 10 9.845L10.033 9.887C10.246 10.1092 10.556 10.2145 10.855 10.2698C11.159 10.326 11.494 10.3376 11.792 10.3421C12.088 10.3465 12.338 10.3451 12.527 10.3626C12.111 10.7797 11.611 11.0555 11.06 11.2747C10.735 11.4037 10.397 11.5129 10.048 11.6214C9.70203 11.729 9.345 11.8367 8.995 11.9622C8.784 12.0373 8.61601 12.1175 8.50201 12.2093C8.39001 12.2997 8.27003 12.4589 8.33203 12.6614C8.38203 12.8204 8.52602 12.9134 8.62402 12.9651C8.73802 13.0246 8.879 13.0728 9.026 13.1126C9.322 13.1927 9.68598 13.2493 10.014 13.2805C10.315 13.3092 10.608 13.317 10.802 13.2981C12.041 13.4688 13.277 13.4471 14.489 13.4221C15.703 13.3971 16.893 13.3701 18.078 13.5188C20.27 14.5144 22.608 15.0508 25 15.2044H25.018C25.843 15.1983 26.803 15.2574 27.705 15.18C28.619 15.1015 29.53 14.882 30.295 14.2942L30.321 14.2708C31.011 13.568 31.892 13.4037 32.886 13.3645C33.134 13.3548 33.386 13.3522 33.642 13.3509C33.897 13.3495 34.158 13.3489 34.416 13.3411C34.933 13.3255 35.46 13.2817 35.964 13.1438ZM35.964 13.1438L35.898 12.9026M89.431 37.1485C89.701 36.9275 89.997 36.8885 90.284 36.9395C90.561 36.9895 90.843 37.1265 91.091 37.2495C91.354 37.3785 91.59 37.4975 91.824 37.5575C92.048 37.6155 92.248 37.6135 92.441 37.5175L92.525 37.4935C92.981 37.4425 93.446 37.3675 93.92 37.2915C94.392 37.2145 94.875 37.1365 95.356 37.0775C96.197 36.9745 97.053 36.9315 97.89 37.0755L98.248 37.1495L98.335 37.1885C98.501 37.3075 98.63 37.4385 98.703 37.5875C98.78 37.7455 98.785 37.9095 98.726 38.0615C98.671 38.2035 98.568 38.3195 98.457 38.4115C98.345 38.5055 98.21 38.5885 98.069 38.6635C97.787 38.8125 97.448 38.9425 97.151 39.0535C96.841 39.1695 96.59 39.2605 96.442 39.3385L96.437 39.3405C96.127 39.4945 95.784 39.6225 95.453 39.7455C95.117 39.8705 94.79 39.9915 94.49 40.1375C93.946 40.4035 93.522 40.7375 93.322 41.2765C93.756 41.5585 94.29 41.6155 94.897 41.5815C95.232 41.5625 95.573 41.5175 95.923 41.4765C96.268 41.4365 96.62 41.4005 96.956 41.4035H96.961C98.913 41.4575 100.803 41.6135 102.723 41.4255L102.842 41.4425C103.248 41.6085 103.53 41.8065 103.665 42.0625C103.81 42.3375 103.755 42.6145 103.645 42.8475C103.537 43.0745 103.359 43.3015 103.192 43.5115C103.039 43.7025 102.891 43.8855 102.769 44.0715C102.812 44.3455 102.734 44.5955 102.6 44.8135C102.452 45.0555 102.227 45.2745 102 45.4705C101.886 45.5705 101.764 45.6675 101.648 45.7625C101.53 45.8585 101.416 45.9525 101.309 46.0455C101.096 46.2305 100.927 46.4005 100.825 46.5665C100.712 46.8565 100.434 47.0365 100.172 47.1535C99.886 47.2805 99.548 47.3655 99.256 47.4295C99.184 47.4455 99.115 47.4595 99.051 47.4725C99.15 47.5065 99.246 47.5385 99.336 47.5715C99.571 47.6585 99.806 47.7585 99.947 47.8795C100.015 47.9375 100.114 48.0465 100.112 48.2035C100.109 48.3685 99.998 48.4765 99.91 48.5375C99.816 48.6015 99.69 48.6545 99.542 48.7005C99.392 48.7475 99.202 48.7935 98.972 48.8385L98.954 48.8415C98.399 48.9085 97.919 49.0815 97.354 49.2195C97.117 49.2765 96.873 49.3235 96.619 49.3485C96.627 49.3485 96.636 49.3495 96.644 49.3475L96.765 49.3605C97.396 49.5915 97.998 49.3655 98.72 49.1385C99.397 48.9265 100.166 48.7275 100.956 49.2245C101.606 49.2755 102.147 49.5185 102.632 49.8315C103.103 50.1345 103.553 50.5255 103.982 50.8545C104.351 50.9135 104.624 51.0455 104.817 51.2525C105.018 51.4675 105.106 51.7335 105.161 51.9855C105.188 52.1125 105.207 52.2445 105.226 52.3695C105.245 52.4965 105.264 52.6195 105.288 52.7405C105.337 52.9825 105.407 53.2015 105.538 53.3915L105.573 53.4635C105.91 54.5975 106.884 55.3105 108.048 55.3785L108.284 55.3835L108.365 55.3945C108.997 55.5995 109.499 56.0465 109.95 56.4925C110.414 56.9515 110.822 57.4025 111.306 57.7145L111.307 57.7155C111.648 57.9365 111.79 58.2345 111.819 58.5485C111.845 58.8405 111.773 59.1445 111.714 59.3885C111.649 59.6585 111.604 59.8465 111.619 59.9865C111.626 60.0455 111.643 60.0805 111.664 60.1055C111.687 60.1315 111.734 60.1675 111.836 60.1965L111.828 60.2255L111.855 60.1935C112.328 60.3875 112.937 60.6585 113.404 61.0475C113.876 61.4405 114.236 61.9855 114.115 62.7085L113.998 62.8795C113.666 63.0835 113.462 63.2745 113.356 63.4285C113.249 63.5845 113.261 63.6685 113.274 63.7005C113.289 63.7365 113.347 63.8085 113.532 63.8535C113.7 63.8955 113.943 63.9025 114.256 63.8555C114.962 63.2215 115.849 63.0335 116.729 63.0625C117.632 63.0925 118.551 63.3505 119.312 63.6115L119.345 63.6255C119.875 63.8965 120.307 64.4155 120.536 64.9855C120.766 65.5555 120.808 66.2215 120.49 66.7745L120.483 66.7865L120.273 66.6495L120.482 66.7865C119.983 67.5505 119.196 67.9125 118.456 68.2275C117.695 68.5525 116.987 68.8305 116.478 69.3955L116.477 69.3945C116.394 69.5085 116.274 69.5925 116.159 69.6535C116.024 69.7245 115.866 69.7835 115.703 69.8335C115.556 69.8785 115.398 69.9185 115.243 69.9545C116.32 70.1135 117.364 70.2695 118.342 70.0485L118.46 70.0495C118.877 70.1575 119.173 70.3635 119.261 70.6825C119.346 70.9905 119.205 71.2935 119.02 71.5205C118.829 71.7565 118.551 71.9635 118.25 72.1055C117.994 72.2265 117.704 72.3065 117.42 72.3055C117.066 72.7275 116.574 72.7585 116.15 72.7795C115.669 72.8035 115.217 72.8175 114.778 73.1385L114.774 73.1415C113.972 73.7025 113.11 73.5735 112.338 73.4285C111.538 73.2785 110.839 73.1165 110.168 73.4015C109.523 73.7505 108.916 73.6125 108.396 73.4715C107.848 73.3235 107.412 73.1845 106.952 73.3415L106.914 73.3505C105.764 73.5535 104.562 73.6025 103.423 73.7115C103.44 73.7635 103.453 73.8135 103.458 73.8605C103.467 73.9365 103.461 74.0265 103.415 74.1115C103.367 74.2015 103.29 74.2545 103.214 74.2825C103.084 74.3305 102.932 74.3135 102.82 74.2945C102.695 74.2725 102.551 74.2365 102.411 74.1995C102.115 74.1225 101.817 74.0445 101.563 74.0395C101.313 74.0345 101.183 74.0995 101.115 74.2275L100.784 74.3355C99.742 73.8255 98.843 73.6045 97.833 73.9935L97.682 74.0025C97.292 73.9035 97.076 73.9305 96.948 73.9905C96.823 74.0485 96.733 74.1595 96.644 74.3475C96.599 74.4425 96.558 74.5475 96.513 74.6665C96.469 74.7815 96.42 74.9105 96.363 75.0375C96.247 75.2935 96.086 75.5625 95.815 75.7785L95.816 75.7795C95.532 76.0095 95.247 76.0895 94.961 76.0535C94.693 76.0185 94.452 75.8835 94.245 75.7505C94.019 75.6055 93.843 75.4695 93.634 75.3555C93.453 75.2565 93.282 75.1975 93.107 75.1925C92.881 75.3135 92.636 75.3805 92.39 75.4185C92.12 75.4605 91.83 75.4745 91.559 75.4935C90.999 75.5325 90.489 75.5955 90.064 75.8975L90.016 75.9245C89.819 76.0075 89.627 76.1475 89.421 76.3145C89.226 76.4735 89.008 76.6675 88.793 76.8075C88.575 76.9505 88.318 77.0705 88.027 77.0515C87.755 77.0325 87.501 76.8965 87.256 76.6465C86.792 76.6145 86.469 76.5645 86.282 76.4845C86.194 76.4475 86.036 76.3615 86.01 76.1785C85.985 75.9995 86.11 75.8775 86.171 75.8255C86.315 75.7035 86.567 75.5885 86.829 75.4845C87.103 75.3755 87.43 75.2615 87.752 75.1505C88.213 74.9905 88.563 74.6665 88.988 74.3195C89.381 73.9985 89.832 73.6715 90.443 73.5975C90.913 73.2735 91.083 72.8855 91.334 72.4855C91.461 72.2845 91.613 72.0795 91.842 71.9225C92.028 71.7945 92.252 71.7085 92.533 71.6685C92.574 71.4275 92.697 71.2385 92.885 71.1055C93.112 70.9465 93.408 70.8845 93.692 70.8575C93.981 70.8305 94.296 70.8375 94.58 70.8455C94.874 70.8545 95.129 70.8625 95.328 70.8435L95.382 70.8445C95.905 70.9075 96.478 71.0165 97.051 71.0595C97.576 71.0995 98.024 71.0735 98.336 70.9365C98.367 70.8625 98.41 70.7905 98.45 70.7305C98.523 70.6205 98.619 70.4995 98.72 70.3795C98.822 70.2575 98.936 70.1315 99.045 70.0095C99.145 69.8975 99.241 69.7895 99.328 69.6895C97.634 70.7075 95.697 70.1055 94.117 69.4725L94.109 69.4695C93.283 69.1085 92.347 69.1765 91.339 69.1985C90.36 69.2205 89.317 69.1965 88.437 68.5415L88.34 68.3825C88.282 68.0355 88.422 67.7625 88.652 67.5675C88.868 67.3845 89.167 67.2625 89.467 67.1745C89.772 67.0845 90.107 67.0205 90.411 66.9675C90.723 66.9125 90.995 66.8695 91.201 66.8205L91.204 66.8195C91.755 66.6965 92.376 66.5025 92.827 66.1825C93.049 66.0255 93.222 65.8425 93.328 65.6335C93.432 65.4265 93.479 65.1795 93.432 64.8745L93.442 64.7565C93.566 64.3885 93.538 64.2085 93.494 64.1235C93.453 64.0465 93.362 63.9815 93.163 63.9445C92.966 63.9075 92.717 63.9095 92.439 63.9205C92.174 63.9305 91.876 63.9495 91.623 63.9315L91.503 63.8915C91.378 63.8095 91.283 63.6905 91.259 63.5345C91.237 63.3865 91.287 63.2515 91.35 63.1455C91.473 62.9395 91.706 62.7435 91.951 62.5795C92.203 62.4105 92.499 62.2545 92.781 62.1365C93.048 62.0235 93.32 61.9365 93.538 61.9095C94.469 61.6325 95.43 61.5725 96.371 61.5445C97.177 61.5195 97.962 61.5155 98.733 61.4275C98.463 61.0165 98.368 60.5645 98.395 60.1105C98.43 59.5265 98.663 58.9455 98.959 58.4375L98.962 58.4325C99.082 58.2355 99.146 58.0905 99.175 57.9875C99.204 57.8845 99.19 57.8455 99.188 57.8405C99.187 57.8375 99.18 57.8235 99.136 57.8055C99.084 57.7845 99.003 57.7685 98.888 57.7605C98.645 57.7425 98.379 57.7635 98.055 57.7605C97.772 57.7575 97.445 57.7355 97.19 57.6035C96.471 57.3875 96.087 56.8765 96.074 56.2955C96.06 55.7245 96.407 55.1535 96.999 54.8115L97.026 54.7985C97.241 54.7055 97.394 54.6255 97.498 54.5565C97.551 54.5225 97.585 54.4925 97.609 54.4705C97.6 54.4665 97.592 54.4595 97.58 54.4545C97.446 54.3885 97.22 54.3305 96.943 54.2845C96.696 54.2435 96.428 54.2145 96.188 54.1925C95.005 54.8005 93.618 55.1705 92.291 54.5925C91.989 55.0125 91.523 55.1815 91.039 55.2095C90.49 55.2405 89.887 55.0925 89.376 54.9025L89.365 54.8985C89.199 54.8275 89.061 54.7325 88.97 54.6025C88.875 54.4675 88.847 54.3165 88.865 54.1695C88.897 53.9005 89.084 53.6395 89.269 53.4235C89.462 53.1975 89.705 52.9655 89.907 52.7635C90.12 52.5505 90.277 52.3805 90.348 52.2535L90.438 52.1605C90.623 52.0495 90.728 51.9605 90.785 51.8935C90.835 51.8335 90.835 51.8045 90.834 51.8005C90.834 51.7905 90.827 51.7595 90.779 51.7015C90.73 51.6435 90.659 51.5785 90.564 51.5005C90.389 51.3555 90.126 51.1605 89.951 50.9225C89.76 50.6625 89.656 50.3325 89.8 49.9285L90.064 49.7645C90.594 49.8255 90.883 49.4595 90.92 49.1155C90.939 48.9405 90.887 48.8155 90.817 48.7545C90.76 48.7045 90.636 48.6505 90.386 48.7265C89.929 49.2245 89.387 49.4475 88.86 49.6115C88.299 49.7865 87.792 49.8945 87.319 50.1755L87.176 50.2105C86.997 50.1995 86.835 50.1525 86.705 50.0545C86.573 49.9545 86.498 49.8175 86.464 49.6715C86.402 49.3965 86.484 49.0745 86.601 48.7865C86.839 48.1965 87.309 47.5465 87.645 47.2275L87.685 47.1965C87.969 47.0215 88.004 46.8635 87.994 46.7675C87.98 46.6475 87.882 46.5005 87.703 46.3865C87.526 46.2735 87.32 46.2255 87.159 46.2555C87.018 46.2815 86.887 46.3695 86.824 46.6025L86.786 46.6825C86.353 47.2875 85.577 47.3895 85.079 47.1695C84.824 47.0565 84.598 46.8355 84.575 46.5135C84.552 46.2015 84.727 45.8845 85.056 45.5865C85.249 45.3845 85.472 45.1865 85.661 45.0075C85.862 44.8165 86.033 44.6395 86.15 44.4605C86.264 44.2845 86.318 44.1195 86.307 43.9485C86.295 43.7755 86.214 43.5595 85.988 43.2875L86.161 42.8785C86.581 42.8475 86.789 42.7635 86.876 42.6925C86.914 42.6625 86.923 42.6395 86.926 42.6265C86.93 42.6105 86.931 42.5795 86.912 42.5285C86.872 42.4195 86.759 42.2715 86.57 42.1095C86.386 41.9525 86.151 41.8005 85.899 41.6755L85.795 41.3235C86.007 40.9675 86.266 40.7535 86.563 40.6475C86.852 40.5445 87.151 40.5535 87.427 40.5865C87.566 40.6025 87.707 40.6275 87.84 40.6495C87.976 40.6725 88.107 40.6935 88.236 40.7085C88.452 40.7325 88.651 40.7335 88.837 40.6925C88.822 40.6665 88.801 40.6305 88.769 40.5885C88.627 40.3995 88.414 40.1965 88.202 39.9625C88.103 39.8535 88.005 39.7375 87.936 39.6255C87.875 39.5265 87.794 39.3655 87.837 39.1935C87.889 38.9895 88.071 38.9025 88.227 38.8675C88.388 38.8315 88.604 38.8285 88.875 38.8515C89.159 38.8685 89.346 38.8625 89.465 38.8445C89.473 38.8435 89.481 38.8405 89.488 38.8395C89.461 38.7985 89.426 38.7485 89.378 38.6865C89.311 38.5995 89.223 38.4915 89.149 38.3815C89.075 38.2705 89.001 38.1385 88.964 37.9955C88.926 37.8455 88.93 37.6755 89.021 37.5115C89.104 37.3605 89.246 37.2435 89.431 37.1485ZM75.377 52.4225C75.833 52.2945 76.321 52.2105 76.754 52.2805L76.937 52.3205L77.081 52.4285C77.19 52.6045 77.364 52.7375 77.573 52.8595C77.676 52.9205 77.781 52.9745 77.889 53.0305C77.993 53.0845 78.103 53.1425 78.198 53.2055C78.207 53.2115 78.215 53.2195 78.225 53.2255C78.431 53.0355 78.699 52.9285 78.965 52.8555C79.233 52.7825 79.532 52.7375 79.805 52.6915C80.086 52.6445 80.344 52.5975 80.565 52.5205L80.575 52.5165L80.831 52.4525C81.429 52.3295 82.009 52.4015 82.549 52.4835C83.181 52.5795 83.749 52.6865 84.318 52.5975L84.525 52.6595C84.883 52.9825 85.333 53.4135 85.669 53.9025C85.988 54.3665 86.229 54.9165 86.153 55.4975C86.35 55.9075 86.557 56.4035 86.547 56.8825C86.542 57.1445 86.472 57.4065 86.301 57.6435C86.135 57.8745 85.885 58.0655 85.544 58.2185C85.073 58.5225 84.456 58.6435 83.956 58.6685L83.942 58.6555L83.93 58.6685C83.705 58.6555 83.548 58.6645 83.444 58.6845C83.361 58.7005 83.327 58.7215 83.317 58.7285C83.317 58.7335 83.316 58.7405 83.318 58.7525C83.324 58.7955 83.347 58.8625 83.397 58.9595C83.499 59.1585 83.656 59.3785 83.828 59.6525C83.988 59.9065 84.155 60.2015 84.219 60.4955L84.328 60.8945C84.367 61.0305 84.411 61.1675 84.455 61.3075C84.543 61.5855 84.636 61.8755 84.712 62.1675C84.864 62.7495 84.959 63.3695 84.816 63.9905L84.698 64.1505C84.274 64.3975 84 64.8085 83.761 65.2835C83.64 65.5245 83.538 65.7585 83.421 66.0045C83.309 66.2415 83.187 66.4785 83.039 66.6835L82.788 66.7835C81.761 66.5825 80.846 66.8495 79.986 67.2265L79.876 67.2485C78.035 67.1795 76.302 67.7105 74.702 68.6225C73.755 69.2915 72.723 69.6345 71.577 69.6485C70.168 70.2645 68.645 70.2775 67.211 70.3585L66.96 70.0295C67.164 69.4235 67.081 69.0065 66.897 68.8075C66.728 68.6265 66.369 68.5255 65.752 68.8035L65.578 68.8135C65.33 68.7385 65.135 68.6465 64.998 68.5315C64.855 68.4105 64.768 68.2545 64.773 68.0725C64.777 67.9045 64.859 67.7615 64.946 67.6525C65.035 67.5405 65.151 67.4395 65.267 67.3515L65.269 67.3495C64.949 67.3275 64.627 67.2755 64.389 67.2055C64.272 67.1715 64.153 67.1275 64.066 67.0675C64.024 67.0395 63.962 66.9895 63.925 66.9125C63.879 66.8155 63.886 66.7045 63.945 66.6125C63.992 66.5385 64.062 66.4945 64.114 66.4695C64.17 66.4405 64.236 66.4175 64.307 66.3985C64.45 66.3605 64.646 66.3285 64.899 66.3025L64.913 66.3005C65.173 66.2875 65.474 66.3135 65.751 66.3325C66.038 66.3515 66.308 66.3635 66.542 66.3375C66.777 66.3105 66.943 66.2475 67.049 66.1445C67.149 66.0485 67.234 65.8815 67.231 65.5625L67.251 65.4625C67.409 65.0955 67.701 64.9175 68.016 64.8355C68.199 64.7875 68.398 64.7705 68.593 64.7635C68.53 64.7655 68.469 64.7645 68.413 64.7595C68.356 64.7535 68.289 64.7405 68.227 64.7135C68.163 64.6845 68.082 64.6305 68.039 64.5305C67.996 64.4295 68.012 64.3315 68.038 64.2605C68.064 64.1905 68.107 64.1255 68.154 64.0675C68.224 63.9795 68.328 63.8835 68.459 63.7705C68.411 63.5745 68.434 63.3695 68.501 63.1815C68.59 62.9325 68.761 62.6975 68.976 62.5055C69.386 62.1395 70.004 61.8955 70.65 62.0425C70.721 62.0135 70.782 61.9865 70.832 61.9625C70.676 61.9265 70.474 61.8985 70.26 61.8755C70.137 61.8625 70.013 61.8505 69.898 61.8405C69.791 61.8305 69.689 61.8205 69.603 61.8105C69.053 61.8105 68.504 61.6835 68.018 61.6035C67.513 61.5205 67.053 61.4835 66.606 61.6165L66.536 61.6265C66.168 61.6275 65.88 61.5505 65.711 61.3475C65.539 61.1405 65.561 60.8855 65.603 60.7075C65.646 60.5265 65.731 60.3435 65.775 60.2375C65.787 60.2095 65.796 60.1865 65.802 60.1685C65.807 60.1535 65.809 60.1465 65.809 60.1445C65.809 60.1465 65.808 60.1555 65.808 60.1685C65.808 60.1815 65.811 60.2055 65.823 60.2345C65.846 60.2935 65.891 60.3345 65.94 60.3545L65.988 60.3695L66.066 59.8755C66.325 59.9145 66.51 59.8705 66.647 59.7945C66.787 59.7165 66.896 59.5925 66.979 59.4435C67.097 59.2325 67.15 58.9935 67.17 58.8295C67.003 58.7865 66.81 58.7655 66.603 58.7515C66.343 58.7335 66.038 58.7255 65.813 58.6815C65.698 58.6595 65.57 58.6225 65.466 58.5485C65.35 58.4645 65.269 58.3395 65.26 58.1775C65.252 58.0325 65.303 57.8845 65.378 57.7405C65.456 57.5925 65.574 57.4235 65.732 57.2295C66.177 56.6615 66.725 56.5175 67.279 56.5465C67.548 56.5605 67.821 56.6145 68.081 56.6755C68.334 56.7335 68.565 56.7925 68.8 56.8425C69.496 56.6755 70.195 56.7075 70.87 56.7865C71.393 56.8475 71.883 56.9305 72.372 56.9835C72.37 56.9775 72.366 56.9725 72.364 56.9675C72.295 56.8085 72.281 56.6375 72.363 56.4805C72.437 56.3375 72.569 56.2505 72.686 56.1935C72.806 56.1355 72.947 56.0915 73.083 56.0535C73.374 55.9735 73.655 55.9145 73.896 55.8065C74.075 55.7265 74.189 55.6375 74.247 55.5285C74.212 55.5195 74.163 55.5095 74.097 55.5035C73.882 55.4835 73.586 55.4995 73.264 55.5215C72.954 55.5425 72.618 55.5695 72.356 55.5605C72.226 55.5565 72.093 55.5435 71.982 55.5075C71.878 55.4735 71.718 55.3925 71.677 55.2045L71.884 54.9045C72.445 54.8185 72.784 54.6265 73.044 54.3445C73.317 54.0505 73.519 53.6435 73.774 53.0865L73.907 52.9585C74.321 52.7895 74.85 52.5695 75.377 52.4225ZM64.943 66.7995C64.928 66.8005 64.914 66.8035 64.9 66.8045C65.032 66.8265 65.176 66.8435 65.322 66.8525C65.553 66.8685 65.773 66.8655 65.949 66.8425C65.87 66.8385 65.793 66.8365 65.717 66.8315C65.425 66.8115 65.165 66.7895 64.943 66.7995ZM69.703 64.6365C69.561 64.6515 69.409 64.6725 69.254 64.6945C69.102 64.7155 68.947 64.7375 68.806 64.7515C68.741 64.7575 68.675 64.7615 68.612 64.7635C68.729 64.7605 68.845 64.7575 68.954 64.7575C69.268 64.7555 69.53 64.7515 69.735 64.6895C69.795 64.6715 69.847 64.6465 69.894 64.6175C69.835 64.6215 69.772 64.6285 69.703 64.6365ZM86.385 50.4605C86.621 50.3145 86.962 50.2225 87.24 50.4065C87.525 50.5955 87.599 50.9785 87.526 51.4425L87.524 51.4415C87.507 51.5785 87.436 51.7035 87.362 51.7995C87.279 51.9045 87.171 52.0045 87.055 52.0875C86.939 52.1695 86.805 52.2425 86.667 52.2835C86.532 52.3245 86.369 52.3415 86.213 52.2855L86.118 52.2225C85.808 51.8975 85.737 51.5255 85.827 51.1925C85.912 50.8755 86.137 50.6135 86.385 50.4605Z" stroke="white" stroke-width="0.5" stroke-linejoin="round"/>
</svg>
