<svg width="108" height="115" viewBox="0 0 108 115" fill="none" xmlns="http://www.w3.org/2000/svg">
<path d="M63.5555 1.32549C64.5865 0.440486 66.0615 -0.167499 67.4205 0.603501L67.5514 0.683487L67.6064 0.731492C68.8104 2.13349 70.2025 3.61252 71.1445 5.29952L71.3265 5.64049L71.3395 5.6725C71.6925 6.6915 71.3455 7.6975 71.0505 8.5995C70.7515 9.5185 70.5014 10.3415 70.7974 11.1575C70.9214 11.2765 71.0974 11.3325 71.3444 11.3455C71.6214 11.3595 71.9194 11.3195 72.2604 11.2955C72.5814 11.2735 72.9405 11.2665 73.2535 11.3875C73.5805 11.5155 73.8284 11.7725 73.9554 12.2035C74.3254 12.9905 75.0064 13.4395 75.8244 13.7895C76.2354 13.9645 76.6694 14.1105 77.1094 14.2635C77.5364 14.4125 77.9684 14.5695 78.3644 14.7625L78.5074 14.8255C78.8244 14.9815 79.0015 15.2085 79.0765 15.4865C79.1535 15.7725 79.1104 16.0895 79.0774 16.3465C79.0404 16.6275 79.0124 16.8555 79.0544 17.0545C79.0874 17.2075 79.1635 17.3505 79.3555 17.4735L79.4454 17.5255L79.5054 17.5695C80.0574 18.1135 80.7544 18.4955 81.4744 18.9175C82.1814 19.3325 82.9094 19.7845 83.4364 20.4625L83.4574 20.4935C83.6144 20.7715 83.6915 21.0795 83.7435 21.3745C83.7695 21.5215 83.7895 21.6715 83.8085 21.8155C83.8285 21.9605 83.8464 22.0995 83.8704 22.2355C83.9524 22.7075 84.0855 23.0855 84.4565 23.3355L84.6294 23.4355L84.6604 23.4535C85.0774 23.7345 85.5804 23.7955 86.1594 23.9285C86.7024 24.0535 87.2824 24.2425 87.6894 24.8195C88.1894 25.1625 88.3854 25.8165 88.3984 26.3875C88.4054 26.6895 88.3635 26.9905 88.2745 27.2495C88.2455 27.3325 88.2085 27.4115 88.1675 27.4895C88.1745 27.4925 88.1824 27.4945 88.1904 27.4985C88.4554 27.6065 88.6614 27.8255 88.8114 28.1535C89.5794 28.7315 90.1635 29.5645 90.7405 30.2635C91.3395 30.9905 91.9494 31.5945 92.8064 31.8345C93.0084 31.8405 93.2095 31.7625 93.4305 31.6165C93.6665 31.4605 93.8834 31.2615 94.1404 31.0515C94.3844 30.8535 94.6624 30.6515 94.9754 30.5585C95.2654 30.4735 95.5704 30.4865 95.8904 30.6445L96.0295 30.7205L96.0954 30.7815C96.2754 31.0165 96.4655 31.2245 96.6525 31.3805C96.8415 31.5385 97.0154 31.6335 97.1644 31.6655C97.3024 31.6945 97.4254 31.6735 97.5464 31.5825C97.6764 31.4835 97.8204 31.2885 97.9534 30.9375L97.9654 30.9085C98.1604 30.5415 98.4084 30.3105 98.7124 30.2365C99.0114 30.1635 99.3014 30.2575 99.5474 30.3945C99.7964 30.5325 100.033 30.7345 100.244 30.9295C100.35 31.0285 100.453 31.1285 100.547 31.2215C100.641 31.3135 100.726 31.3985 100.804 31.4715L101.341 31.9545C101.871 32.4445 102.378 32.9575 102.877 33.4715C103.377 33.9875 103.869 34.5015 104.369 34.9995L104.873 35.4895L104.95 35.6675C104.958 36.5245 104.813 37.3845 104.679 38.2105C104.548 39.0255 104.429 39.8085 104.453 40.5715C104.517 40.6845 104.623 40.7555 104.797 40.8045C105.004 40.8625 105.238 40.8745 105.521 40.9095C105.781 40.9405 106.085 40.9915 106.33 41.1545C106.595 41.3305 106.759 41.6145 106.787 42.0295L106.785 42.0785C106.668 42.9565 106.109 43.5835 105.501 44.1105C105.197 44.3725 104.864 44.6255 104.561 44.8685C104.252 45.1155 103.967 45.3575 103.732 45.6195L103.699 45.6505C102.806 46.3385 101.859 47.0235 101.105 47.8395C100.356 48.6505 99.8175 49.5705 99.7275 50.7135L99.7175 50.7645C99.4175 51.7765 99.3335 52.8225 99.3265 53.8905C99.3225 54.4245 99.3384 54.9605 99.3534 55.5005C99.3694 56.0375 99.3854 56.5795 99.3824 57.1165L99.3785 57.1605C99.2265 57.9765 98.6794 58.4915 98.1354 58.9175C97.8504 59.1405 97.5924 59.3195 97.3334 59.5335C97.0954 59.7295 96.8914 59.9285 96.7374 60.1525C96.6064 60.7885 96.3344 61.4205 96.0994 62.0085C95.8624 62.6035 95.6634 63.1575 95.6274 63.6915C95.8044 64.0175 96.0265 64.3385 96.2615 64.6675C96.5085 65.0125 96.7724 65.3715 96.9954 65.7425C97.4414 66.4845 97.7474 67.3165 97.4744 68.3135C97.4014 68.9385 97.5854 69.5175 97.7784 70.1645C97.9654 70.7895 98.1574 71.4735 98.0174 72.2285C98.0384 72.6115 98.0274 72.9935 98.0094 73.3655C97.9914 73.7505 97.9664 74.1205 97.9614 74.4905C97.9494 75.2225 98.0144 75.9135 98.3414 76.5735L98.4175 76.7195C98.7645 77.4565 98.7345 78.2115 98.6835 78.9145C98.6285 79.6775 98.5504 80.3705 98.7814 81.0465C99.2524 81.9705 100.028 82.6755 100.816 83.4555C101.593 84.2235 102.373 85.0575 102.735 86.2065L104.106 89.7945L103.907 90.1315C101.375 90.4875 98.8145 90.8545 96.3475 91.3995C95.7895 91.7335 95.4035 92.2555 95.0455 92.8585C94.7025 93.4345 94.3694 94.1165 93.9454 94.6795C93.8124 95.6245 93.9884 96.5715 94.1944 97.5555C94.4014 98.5435 94.6405 99.5775 94.5555 100.61L94.5494 100.649C94.3554 101.466 94.0154 102.293 93.7554 103.072C93.4984 103.842 93.3114 104.59 93.3454 105.343C93.8694 106.01 94.3904 106.706 94.9764 107.326C95.5044 107.883 96.0724 108.362 96.7184 108.679L97.0014 108.805L97.0065 108.808C97.2345 108.907 97.4144 108.886 97.5854 108.804C97.7724 108.715 97.9504 108.552 98.1514 108.351C98.3394 108.164 98.5555 107.933 98.7875 107.781C99.0015 107.64 99.2564 107.547 99.5464 107.601L99.6734 107.632L99.8354 107.798C100.074 108.588 100.113 109.432 100.114 110.262C100.114 111.098 100.075 111.907 100.14 112.687C100.243 113.104 100.238 113.448 100.087 113.704C99.9264 113.974 99.6475 114.075 99.3815 114.11C99.1175 114.144 98.8154 114.119 98.5354 114.089C98.2434 114.058 97.9764 114.021 97.7374 114.015C97.1284 114.059 96.4834 113.998 95.9294 113.751C95.3714 113.5 94.9135 113.062 94.6935 112.376C93.7195 110.64 92.1744 109.226 90.1974 108.923L90.1744 108.919C89.2284 108.686 88.7074 108.003 88.3234 107.269C88.1324 106.905 87.9665 106.509 87.8035 106.145C87.6955 105.903 87.5864 105.673 87.4684 105.459C87.3734 105.611 87.2744 105.777 87.1684 105.952C86.9844 106.252 86.7794 106.573 86.5464 106.843C86.3124 107.113 86.0354 107.353 85.6984 107.471C85.3604 107.59 84.9884 107.576 84.5854 107.395C84.1714 107.297 83.7414 107.217 83.3014 107.135C82.8584 107.053 82.4035 106.969 81.9565 106.868C81.0625 106.666 80.1754 106.389 79.4084 105.886L79.3514 105.835C79.1764 105.62 79.0394 105.343 78.9194 105.089C78.7934 104.824 78.6845 104.582 78.5585 104.386C78.4315 104.189 78.3174 104.087 78.2054 104.054C78.1044 104.024 77.9385 104.031 77.6625 104.215L77.5624 104.255C77.3604 104.287 77.1204 104.364 76.8444 104.449C76.5794 104.531 76.2844 104.618 76.0044 104.654C75.7274 104.69 75.4244 104.681 75.1664 104.523C74.9124 104.368 74.7514 104.101 74.6744 103.729C74.2764 103.165 73.6814 102.968 72.9634 102.88C72.5944 102.835 72.2134 102.822 71.8154 102.795C71.4324 102.77 71.0384 102.732 70.6684 102.64C69.7484 102.504 68.8604 102.726 67.9224 102.981C66.9994 103.232 66.0204 103.517 64.9964 103.43L64.8564 103.373C64.5354 103.101 64.3894 102.778 64.3534 102.433C64.3194 102.101 64.3884 101.757 64.4734 101.436C64.5634 101.096 64.6634 100.804 64.7324 100.489C64.7984 100.184 64.8214 99.9135 64.7624 99.6715L64.7565 99.6415C64.6605 98.8135 64.1314 98.1825 63.5224 97.5005C62.9334 96.8425 62.2584 96.1255 62.0754 95.1735L62.0845 95.0475C62.8135 92.8445 63.3065 90.3365 62.0165 88.3725L61.9775 88.2725C61.9365 88.0005 62.0034 87.7055 62.0834 87.4425C62.1244 87.3075 62.1725 87.1705 62.2175 87.0405C62.2645 86.9075 62.3084 86.7805 62.3444 86.6595C62.4204 86.4075 62.4524 86.2155 62.4264 86.0755C62.4154 86.0115 62.3924 85.9615 62.3574 85.9205C62.3244 85.8825 62.2724 85.8425 62.1864 85.8055C61.4414 85.7035 60.6534 85.7915 59.8274 85.8705C59.0054 85.9485 58.1455 86.0165 57.3295 85.8275L57.1655 85.7015C57.0485 85.4805 56.9874 85.2135 56.9364 84.9825C56.8824 84.7355 56.8385 84.5245 56.7645 84.3545C56.6945 84.1915 56.6124 84.1055 56.5044 84.0675C56.3844 84.0255 56.1734 84.0205 55.8024 84.1585L55.7244 84.1735C54.6854 84.2115 53.6314 84.2655 52.5834 84.2945C52.4744 84.7635 52.4784 85.2455 52.4534 85.7745C52.4264 86.3355 52.3634 86.9315 52.0514 87.5055C52.0264 87.8745 51.9355 88.1755 51.7745 88.4125C51.6045 88.6625 51.3704 88.8225 51.1094 88.9185C50.6044 89.1055 49.9704 89.0635 49.4004 89.0025L49.3874 89.0015C48.0734 88.7925 46.8344 88.6855 45.6264 89.1675L45.5754 89.1815C44.9784 89.2835 44.2595 89.3945 43.6055 89.2985C42.9435 89.2015 42.3284 88.8885 41.9654 88.1525C40.3794 86.2175 39.3195 83.8315 38.7615 81.4275L38.7554 81.3905C38.7184 80.8915 38.6745 80.3265 38.4905 79.9085C38.4005 79.7045 38.2854 79.5565 38.1404 79.4655C37.9994 79.3775 37.8015 79.3275 37.5115 79.3705L37.4734 79.3735C33.9074 79.3385 30.2955 79.4985 26.7045 79.2145C25.8695 79.1865 25.0434 79.2745 24.2104 79.3895C23.3964 79.5025 22.5614 79.6445 21.7294 79.7255C21.5474 79.7995 21.3284 79.9045 21.0704 80.0195C20.8074 80.1365 20.5134 80.2595 20.2244 80.3425C19.9394 80.4255 19.6334 80.4775 19.3534 80.4325C19.0634 80.3865 18.8064 80.2365 18.6404 79.9415C18.2344 79.2985 18.0604 78.6805 18.2774 78.1695C18.4774 77.6995 18.9644 77.4195 19.6304 77.2885C19.6394 77.1075 19.6435 76.9145 19.6495 76.7075C19.6565 76.4315 19.6714 76.1375 19.7244 75.8575C19.7774 75.5775 19.8714 75.2975 20.0464 75.0575C20.2154 74.8285 20.4494 74.6475 20.7654 74.5355C21.0764 74.2395 21.4265 73.8815 21.7535 73.5805C21.4065 73.2585 21.0474 72.9985 20.6984 72.8995C20.4984 72.8425 20.3084 72.8395 20.1264 72.9005C19.9424 72.9615 19.7434 73.0945 19.5414 73.3455L19.4354 73.4225C19.2904 73.4785 19.1034 73.6235 18.8744 73.8315C18.6614 74.0235 18.4144 74.2665 18.1874 74.4455C18.0714 74.5365 17.9494 74.6215 17.8254 74.6805C17.7024 74.7395 17.5574 74.7825 17.4054 74.7655C17.0664 74.7265 16.8784 74.4285 16.7754 74.0405L16.6664 73.7205C16.3814 72.9965 15.8964 72.3995 15.3284 71.8335C15.0024 71.5085 14.6554 71.1985 14.3044 70.8775C13.9564 70.5595 13.6054 70.2315 13.2864 69.8785L13.2714 69.8045C12.9574 69.8005 12.7154 69.5585 12.5044 69.1845C11.4804 68.4125 10.8004 67.3195 10.1004 66.3955C9.77145 66.0265 9.28043 65.6695 8.79643 65.2725C8.55943 65.0785 8.32743 64.8765 8.13743 64.6675C7.94943 64.4605 7.78642 64.2315 7.70842 63.9815L7.77446 63.7245C7.92246 63.5845 7.99142 63.4855 8.01842 63.4225C8.03042 63.3955 8.03245 63.3795 8.03245 63.3755C8.03245 63.3725 8.03242 63.3715 8.03142 63.3695C8.02542 63.3595 8.00046 63.3275 7.91746 63.2835C7.83646 63.2405 7.7284 63.2005 7.5944 63.1605C7.3484 63.0855 6.98743 63.0005 6.71043 62.8955C6.44043 62.7935 6.11244 62.6255 6.00944 62.2975L5.95341 62.1565C5.88341 62.0095 5.77745 61.8465 5.64445 61.6675C5.55745 61.5505 5.46441 61.4315 5.36741 61.3095C5.27141 61.1885 5.17245 61.0635 5.07945 60.9395C4.89645 60.6955 4.72142 60.4305 4.63042 60.1675C4.53742 59.8945 4.52742 59.5925 4.72142 59.3195L4.82542 59.2345C5.18542 59.0765 5.25943 58.9415 5.27043 58.8835C5.28143 58.8265 5.25643 58.7205 5.09843 58.5615C4.79143 58.2515 4.2074 57.9635 3.8444 57.8145L3.68944 57.5885C3.68644 57.4465 3.59944 57.2665 3.43144 57.0435C3.35144 56.9375 3.25945 56.8295 3.16545 56.7195C3.07245 56.6125 2.97346 56.4995 2.88646 56.3915C2.80046 56.2835 2.71742 56.1695 2.65642 56.0545C2.59642 55.9415 2.54646 55.8045 2.55546 55.6575C2.56646 55.4975 2.64341 55.3615 2.77141 55.2565C2.88641 55.1635 3.03946 55.0955 3.22246 55.0425C3.98246 54.6765 4.41241 54.0545 4.71641 53.3075C4.87041 52.9295 4.99143 52.5255 5.10643 52.1095C5.22043 51.6975 5.33145 51.2685 5.46245 50.8655L5.79246 50.7095C6.04046 50.8075 6.32443 50.8615 6.58543 50.8745C6.85143 50.8865 7.06345 50.8545 7.17845 50.8055C7.18345 50.8035 7.18745 50.7995 7.19145 50.7975C7.16645 50.7685 7.12444 50.7255 7.05144 50.6735C6.94544 50.5975 6.79046 50.5095 6.57646 50.4105L6.53245 50.3845C6.34345 50.2455 6.11643 50.1025 5.88243 49.9445C5.66143 49.7945 5.43046 49.6285 5.27946 49.4625C5.20446 49.3805 5.12844 49.2775 5.09544 49.1575C5.05844 49.0205 5.08143 48.8755 5.17943 48.7535C5.26643 48.6475 5.39642 48.5775 5.53642 48.5265C5.62942 48.4925 5.73842 48.4645 5.86442 48.4395C5.86042 48.1355 5.91542 47.8795 6.03142 47.6695C6.09542 47.5535 6.17644 47.4575 6.26744 47.3775L6.18846 47.2705C6.25346 47.1125 6.26442 47.0015 6.25542 46.9235C6.24742 46.8495 6.21843 46.7895 6.17143 46.7345C6.06343 46.6065 5.88143 46.5195 5.65043 46.4045C5.54643 46.3525 5.42743 46.2915 5.33043 46.2175C5.23243 46.1435 5.12446 46.0325 5.08946 45.8705C5.05446 45.7045 5.10742 45.5445 5.20042 45.3985C5.28942 45.2585 5.42845 45.1075 5.61845 44.9415C6.01245 44.4755 6.42341 44.0205 6.75041 43.5225C7.07641 43.0255 7.30442 42.5065 7.33842 41.9325L7.58446 41.6975C9.55546 41.6695 11.5284 41.6985 13.4944 41.7145C13.4714 41.4045 13.5295 41.1475 13.7045 40.9655C13.9255 40.7355 14.2554 40.7075 14.5354 40.7215C14.8244 40.7365 15.1604 40.8035 15.4524 40.8525C15.7614 40.9035 16.0264 40.9345 16.2314 40.9075L16.2814 40.9065C18.5914 41.0565 20.9874 41.0145 23.3174 41.4565L23.3334 41.5205C23.3444 41.5165 23.3565 41.5115 23.3685 41.5065L23.5104 41.5005C24.6714 41.7805 25.8564 41.7145 27.0864 41.6725C28.2974 41.6315 29.5494 41.6145 30.7814 42.0205C31.6544 42.2495 32.5104 42.6145 33.3384 42.9415C34.1474 43.2615 34.9374 43.5475 35.7374 43.6735C35.7764 43.6485 35.8024 43.6205 35.8204 43.5905C35.8484 43.5445 35.8684 43.4795 35.8764 43.3865C35.8924 43.1865 35.8514 42.9485 35.8144 42.6455C35.7804 42.3655 35.7505 42.0335 35.8425 41.7325C35.8695 41.6465 35.9055 41.5665 35.9515 41.4905C35.6665 40.8755 35.5065 40.2175 35.3265 39.6205C35.1175 38.9255 34.8764 38.2905 34.3924 37.7605L34.3664 37.7275C34.1414 37.3765 33.8394 37.0565 33.5024 36.7355C33.1744 36.4235 32.7935 36.0915 32.4645 35.7585C31.7995 35.0845 31.2295 34.2915 31.3215 33.1665C31.2715 32.4805 30.8864 31.9055 30.4264 31.2725C29.9794 30.6555 29.4544 29.9775 29.2884 29.1435V29.1425C29.0634 28.2735 28.7714 27.3415 28.5784 26.4185C28.3824 25.4825 28.2785 24.5175 28.4305 23.5475L28.4964 23.4145C28.7474 23.1505 29.0175 22.9005 29.2825 22.6565C29.5495 22.4105 29.8114 22.1695 30.0564 21.9175C30.5454 21.4125 30.9534 20.8755 31.1694 20.2045L31.1924 20.1535C31.3684 19.8555 31.5194 19.5285 31.6744 19.1865C31.8284 18.8485 31.9854 18.4935 32.1654 18.1585C32.5254 17.4845 32.9964 16.8485 33.7884 16.4935L34.0115 16.5025C34.4695 16.7565 34.9595 16.6445 35.5295 16.3655C35.8135 16.2265 36.0924 16.0575 36.3854 15.8915C36.6524 15.7405 36.9314 15.5935 37.2084 15.4935C37.5104 15.1865 37.8014 15.0195 38.1004 15.0265C38.4134 15.0335 38.6474 15.2285 38.8224 15.4175C38.9124 15.5155 38.9995 15.6255 39.0815 15.7305C39.1645 15.8375 39.2444 15.9415 39.3284 16.0395C39.4814 16.2185 39.6304 16.3495 39.7914 16.4215C40.4164 16.3475 40.9934 16.0325 41.6214 15.6685C42.2404 15.3095 42.9124 14.9025 43.6714 14.7515C44.0494 14.5395 44.4785 14.4775 44.8945 14.4635C45.3105 14.4505 45.7854 14.4885 46.1684 14.4945C46.5754 14.4995 46.9244 14.4715 47.2074 14.3505C47.4754 14.2355 47.7014 14.0295 47.8514 13.6315L47.8744 13.5855C48.5464 12.5275 49.0584 11.4585 49.0694 10.2345L49.1454 10.0565C49.7204 9.4985 50.4704 9.40351 51.1814 9.40151C51.5334 9.40051 51.9094 9.42351 52.2464 9.43251C52.5924 9.44151 52.9164 9.43649 53.2124 9.38649L53.2504 9.38249C53.9394 9.37349 54.6174 9.40749 55.2494 9.29649C55.8654 9.18949 56.4014 8.9485 56.7964 8.4095L56.8254 8.3755C57.6394 7.6025 58.5434 6.90251 59.3964 6.19551C60.2264 5.50751 61.0165 4.8045 61.6785 3.9955C61.5735 3.3275 61.7854 2.78249 62.1514 2.34749C62.5234 1.90649 63.0525 1.57849 63.5555 1.32549ZM1.96245 34.3495C2.24245 34.3365 2.55041 34.3915 2.77141 34.5465C2.88641 34.6275 2.98542 34.7415 3.03142 34.8925C3.07742 35.0445 3.06246 35.2065 2.99846 35.3655L2.92644 35.4625C2.66544 35.6825 2.48242 35.9835 2.30742 36.3335C2.14042 36.6675 1.97041 37.0725 1.75041 37.4125L1.57542 37.5235C1.13542 37.5865 0.785431 37.5495 0.546431 37.3765C0.290431 37.1915 0.231439 36.9045 0.254439 36.6475C0.276439 36.3935 0.376429 36.1255 0.494429 35.8915C0.592429 35.6945 0.710455 35.5085 0.821455 35.3565C0.807455 35.2255 0.822415 35.0995 0.867415 34.9835C0.924415 34.8335 1.02443 34.7135 1.14043 34.6235C1.36843 34.4455 1.67845 34.3625 1.96245 34.3495Z" fill="#F8CA6A" stroke="white" stroke-width="0.5" stroke-linejoin="round"/>
</svg>
