<svg width="61" height="77" viewBox="0 0 61 77" fill="none" xmlns="http://www.w3.org/2000/svg">
<path d="M32.8442 0.261212L32.8721 0.264233C35.2521 0.641233 37.8781 0.909221 39.9021 2.57722C40.6241 2.96222 41.3031 3.49123 41.9581 3.94423C42.6281 4.40823 43.2881 4.80322 44.0171 4.97722C45.3361 5.04022 46.6231 5.25023 47.8941 5.50023L49.1702 5.76121L49.2081 5.77122C49.5481 5.90122 49.8171 5.88821 50.0481 5.80021C50.2881 5.70821 50.5121 5.52623 50.7431 5.28523C50.9821 5.03523 51.1871 4.77123 51.4421 4.48323C51.6851 4.21023 51.9572 3.93923 52.2792 3.75523L52.2891 3.74922C52.8171 3.47922 53.4111 3.14221 53.9911 2.86421C54.5801 2.58321 55.1981 2.34023 55.8241 2.25023L55.9741 2.27623C56.2531 2.42223 56.5272 2.58723 56.7922 2.74623C57.0592 2.90723 57.3201 3.06223 57.5871 3.19523C58.1151 3.45923 58.6482 3.62821 59.2452 3.57521C59.4992 3.53821 59.7112 3.52623 59.8832 3.53923C60.0512 3.55223 60.2102 3.59122 60.3312 3.68522C60.4652 3.78922 60.5211 3.93523 60.5201 4.08223C60.5201 4.21623 60.4742 4.34923 60.4202 4.46623C60.3112 4.70023 60.1221 4.96622 59.9421 5.21022C59.7551 5.46522 59.5732 5.70422 59.4512 5.91322L59.4501 5.91523C59.0961 6.51123 58.6662 7.08922 58.2742 7.65022C57.8872 8.20522 57.5311 8.75223 57.2801 9.32423C57.1961 15.0782 57.2662 20.8332 57.4462 26.5862C58.2782 27.7962 59.1301 29.0122 59.9541 30.2272L59.8841 30.5762C59.4331 30.8742 58.8881 31.2682 58.3151 31.5072C57.8341 31.7072 57.3061 31.8102 56.7641 31.6582C56.7381 32.1422 56.6601 32.6872 56.4501 33.1382C56.3171 33.4242 56.1251 33.6852 55.8511 33.8642C55.5831 34.0402 55.2531 34.1232 54.8621 34.0952C54.3551 34.1532 54.0161 34.4632 53.8121 34.9022C53.6031 35.3532 53.5461 35.9232 53.6181 36.4252L53.5981 36.5632C53.2351 37.3662 52.6991 38.0942 52.1901 38.7872C51.6961 39.4612 51.2281 40.1042 50.9181 40.7862C51.1041 41.3742 50.9921 41.9842 50.7361 42.5102C50.4691 43.0562 50.0351 43.5342 49.5651 43.8422C49.3601 44.0362 49.1461 44.1492 48.9261 44.1862L48.9361 44.2352C47.9811 46.0762 47.3271 48.1882 47.3821 50.2402C47.5881 51.3712 48.3981 52.4212 49.2621 53.2342C49.9591 53.5182 50.3531 53.9662 50.4111 54.5262C50.4661 55.0652 50.1992 55.6232 49.7712 56.1172C49.6622 56.3862 49.5532 56.6372 49.4612 56.8862C49.3652 57.1432 49.2982 57.3712 49.2792 57.5702C49.2602 57.7662 49.2902 57.9132 49.3652 58.0282C49.4402 58.1432 49.5841 58.2612 49.8661 58.3512L50.0381 58.6232C49.9341 59.3742 49.7911 60.1342 49.7341 60.9112C49.6851 61.5852 49.7041 62.2492 49.8711 62.8822L49.9521 63.1512L49.9571 63.1672C50.0851 63.6532 50.1851 64.1742 50.2911 64.6802C50.3981 65.1902 50.5111 65.6912 50.6711 66.1602C50.9681 67.0352 51.4161 67.7762 52.2431 68.2332L52.4141 68.3212L52.4902 68.3782C52.5872 68.4852 52.7741 68.6082 53.0251 68.7542C53.2611 68.8912 53.5531 69.0482 53.7981 69.2052C54.0381 69.3602 54.2852 69.5462 54.4202 69.7682C54.4912 69.8852 54.5381 70.0232 54.5251 70.1772C54.5121 70.3312 54.4421 70.4712 54.3351 70.5952L54.2972 70.6302C52.6292 71.8882 50.8992 73.2262 48.7272 73.6682C48.4212 73.7402 48.1072 73.8802 47.7742 74.0482C47.4532 74.2102 47.0921 74.4112 46.7511 74.5712C46.0571 74.8982 45.2781 75.1412 44.4761 74.7632L44.4092 74.7162C43.9732 74.2952 43.5531 74.0822 43.2291 74.0902C43.0771 74.0932 42.9372 74.1452 42.8102 74.2622C42.6792 74.3832 42.5511 74.5842 42.4501 74.8992L42.4411 74.9232C41.9261 76.1062 40.7742 76.7912 39.4722 76.4022C38.7932 76.3282 38.0831 76.4172 37.3251 76.4572C36.5811 76.4962 35.8051 76.4842 35.0951 76.1592L35.0721 76.1472C34.8081 75.9922 34.5731 75.7822 34.3661 75.5922C34.1501 75.3942 33.9691 75.2242 33.7881 75.1062C33.6121 74.9922 33.4682 74.9512 33.3312 74.9742C33.1892 74.9972 32.9971 75.0982 32.7471 75.3902L32.6971 75.4352C31.7391 76.0782 30.6961 76.0522 29.6991 75.9232C29.4491 75.8902 29.1971 75.8512 28.9501 75.8122C28.7021 75.7742 28.4571 75.7372 28.2151 75.7082C27.7281 75.6502 27.2591 75.6272 26.8061 75.6922L26.5441 75.5512C25.9411 74.2532 25.8731 72.7862 25.7181 71.4412C25.5601 70.0752 25.3152 68.8132 24.4222 67.7852L24.4201 67.7832C23.6891 66.9202 22.6941 66.6722 21.5381 66.6722C20.8521 66.7732 20.3881 66.3792 20.0071 66.0302C19.5951 65.6542 19.2671 65.3262 18.7881 65.2682L18.7331 65.2552C16.4251 64.4122 14.1472 63.4912 11.9172 62.4522C10.5502 62.0572 9.40312 60.9712 8.66112 59.8772L8.63512 59.8292C8.16712 58.6502 7.79412 57.4532 7.26012 56.3262C6.73312 55.2132 6.06815 54.2172 5.05315 53.4862L5.04216 53.4772C3.71016 52.3882 2.87713 50.6952 3.33513 48.9212C3.42513 48.1152 3.14413 47.3402 2.87413 46.4772C2.60913 45.6352 2.36315 44.7192 2.66215 43.7422L2.68315 43.7122L2.66411 43.6972C2.67711 42.2212 2.71213 40.8132 2.15013 39.5212L2.13115 39.4362C2.11015 39.0982 2.12116 38.7512 2.13316 38.4182C2.14416 38.0812 2.15512 37.7572 2.13512 37.4442C2.09612 36.8262 1.94014 36.2832 1.45714 35.8422C1.09314 35.5212 0.861116 35.2342 0.786116 34.9772C0.761116 34.8932 0.754158 34.8052 0.766158 34.7202L0.636153 34.6602C0.377153 34.3782 0.263143 34.0702 0.251143 33.7542C0.239143 33.4472 0.323136 33.1442 0.431136 32.8642C0.538136 32.5892 0.682126 32.2982 0.796126 32.0442C0.914126 31.7782 1.00811 31.5352 1.04411 31.3082C1.20211 30.0792 2.00716 29.3062 2.95616 28.7402C3.12116 28.4532 3.33016 28.2852 3.57616 28.2222L3.56712 28.1622C4.02212 27.6002 4.07513 26.9382 4.03013 26.1832C4.01913 25.9942 4.00111 25.8042 3.98411 25.6082C3.96711 25.4142 3.95015 25.2162 3.93815 25.0182C3.91615 24.6322 3.91611 24.2362 3.98711 23.8462C3.90611 22.2642 4.34016 20.6582 4.82616 19.2242L4.83812 19.1952C5.41212 17.9982 6.35311 17.1392 7.33311 16.3642C8.32611 15.5792 9.34113 14.8932 10.1581 14.0092L10.2142 13.9632C10.6262 13.7182 11.0942 13.2332 11.2972 12.7492C11.3962 12.5102 11.4211 12.2952 11.3711 12.1192C11.3261 11.9612 11.2101 11.7982 10.9541 11.6602C10.4361 11.6632 9.84714 11.5752 9.44414 11.2872C9.22614 11.1312 9.05614 10.9122 8.99614 10.6222C8.93914 10.3472 8.98515 10.0372 9.13115 9.69523C9.17315 9.02923 9.32811 8.32522 9.43211 7.68022C9.53811 7.02322 9.5931 6.40721 9.4741 5.83921C9.3951 5.74021 9.33913 5.62623 9.33513 5.49623C9.33013 5.33323 9.40515 5.20222 9.49815 5.10722C9.67015 4.93122 9.96012 4.81521 10.2391 4.73521C10.7431 4.59221 11.3791 4.52323 11.7851 4.52723L11.9441 4.53322L11.9571 4.53422V4.53523C12.3801 4.59123 12.8072 4.67521 13.2272 4.75721C13.6502 4.83921 14.0671 4.91821 14.4801 4.96821C15.3061 5.06721 16.0971 5.04323 16.8541 4.69423L16.8761 4.68522C17.5261 4.45522 18.3141 4.15022 19.0901 4.04722C19.8461 3.94622 20.6282 4.03121 21.2922 4.57921C21.8562 4.59121 22.3731 4.39222 22.8591 4.07322C23.3701 3.73822 23.8322 3.28422 24.2662 2.84022L24.2712 2.84123L24.2792 2.8162C24.4642 2.6592 24.6381 2.45422 24.8151 2.22322C24.9031 2.10822 24.9911 1.98923 25.0801 1.86723C25.1691 1.74623 25.2601 1.62221 25.3531 1.50221C25.7181 1.03321 26.1621 0.556231 26.7891 0.449231H26.8741C27.8411 0.616231 28.8171 0.549216 29.8161 0.447216C30.6821 0.359216 31.5742 0.244225 32.4642 0.250225L32.8442 0.261212Z" fill="#F8CA6A" stroke="white" stroke-width="0.5" stroke-linejoin="round"/>
</svg>
