<svg width="86" height="94" viewBox="0 0 86 94" fill="none" xmlns="http://www.w3.org/2000/svg">
<path d="M26.121 0.336207C26.362 0.222207 26.663 0.19322 26.903 0.42422C27.106 0.61822 27.207 0.951217 27.239 1.38922C27.955 3.22722 28.471 5.14222 29.015 7.01922C29.497 8.67722 30.002 10.3102 30.689 11.8662L30.995 12.5282L31.004 12.5472C31.106 12.8142 31.263 13.0542 31.431 13.2372C31.605 13.4252 31.771 13.5312 31.881 13.5622C31.928 13.5762 31.948 13.5702 31.95 13.5692C31.953 13.5662 31.958 13.5582 31.964 13.5442C31.999 13.4552 32.013 13.2282 31.888 12.7842L31.889 12.6412C31.945 12.4642 32.02 12.3082 32.134 12.2042C32.264 12.0842 32.4249 12.0512 32.5829 12.0952C32.7189 12.1342 32.836 12.2252 32.929 12.3172C33.026 12.4132 33.12 12.5322 33.209 12.6582C33.386 12.9082 33.564 13.2152 33.72 13.4782C33.842 13.6862 33.945 13.8562 34.027 13.9702L34.103 14.0652L34.151 14.1422C34.257 14.4092 34.397 14.5182 34.546 14.5722C34.714 14.6332 34.922 14.6342 35.185 14.6182C35.43 14.6032 35.733 14.5732 36.012 14.6172C36.298 14.6622 36.575 14.7882 36.791 15.0762C38.304 16.4272 39.664 17.9382 41.037 19.3882C41.735 19.2882 42.274 19.4912 42.711 19.8602C43.16 20.2392 43.4979 20.7882 43.8069 21.3042L43.844 21.4342C43.842 21.9392 43.943 22.3212 44.147 22.6012C44.324 22.8442 44.596 23.0372 45.007 23.1622L45.191 23.2112L45.349 23.3262C45.44 23.4782 45.616 23.6382 45.848 23.8222C46.065 23.9932 46.339 24.1892 46.551 24.3822C46.754 24.5662 46.959 24.7972 47.015 25.0782C47.117 25.0702 47.223 25.0852 47.334 25.1292C47.597 25.2342 47.828 25.4902 48.05 25.8702C48.394 26.1752 48.833 26.7082 49.014 27.2342C49.108 27.5062 49.147 27.8162 49.019 28.0952C48.887 28.3842 48.608 28.5762 48.209 28.6712L48.207 28.6722C47.05 28.9332 45.997 29.5192 45.093 30.3112C45.452 30.4062 45.853 30.3742 46.316 30.3372C46.901 30.2892 47.583 30.2362 48.207 30.6072L48.2599 30.7652C48.4559 30.7502 48.65 30.8142 48.829 30.9542C49.044 31.1222 49.241 31.3992 49.431 31.7762C49.924 32.4002 50.455 33.0012 50.985 33.6052C51.505 34.1922 52.025 34.7822 52.515 35.3892C52.885 35.4912 53.335 35.4852 53.835 35.4572C54.335 35.4292 54.895 35.3802 55.415 35.4382C55.885 35.3582 56.355 35.1682 56.835 34.9292C57.085 34.8082 57.325 34.6772 57.575 34.5452C57.825 34.4132 58.075 34.2802 58.325 34.1582C59.275 33.7012 60.305 33.3782 61.425 33.8612L61.645 33.9682L61.655 33.9732C62.515 34.4722 63.335 34.3152 64.145 33.8872C64.565 33.6722 64.965 33.3912 65.365 33.0982C65.765 32.8092 66.165 32.5042 66.555 32.2572L66.595 32.2362C66.945 32.0922 67.305 32.0672 67.645 32.0892C67.985 32.1102 68.335 32.1772 68.655 32.2282C69.315 32.3342 69.8749 32.3742 70.3849 32.0082L70.425 31.9862C71.515 31.4442 72.785 30.9402 74.075 31.6012C75.955 31.8832 77.945 31.2012 79.685 30.3782C80.135 30.1092 80.555 29.7382 81.015 29.3662C81.465 29.0022 81.935 28.6372 82.455 28.4432L82.6149 28.4372C82.9949 28.5482 83.6249 28.6742 84.1149 28.8932C84.6149 29.1142 85.115 29.4892 85.085 30.1602L85.055 30.2792C84.415 31.3412 84.115 32.5042 84.445 33.6632L84.525 33.8952V33.9212C84.725 34.7252 84.275 35.3462 83.925 35.8572C83.575 36.3682 83.305 36.7882 83.415 37.3092L83.435 37.4152L83.445 37.4672C83.565 39.2972 82.995 41.0132 81.965 42.4942C81.105 44.0262 80.345 45.7762 78.785 46.8912C78.425 47.1812 78.425 47.5442 78.435 48.0612C78.445 48.5442 78.4449 49.1452 77.8749 49.6212C77.4349 50.5232 76.885 51.3642 76.345 52.1862C75.795 53.0202 75.2649 53.8342 74.8649 54.7002C74.6349 56.0922 74.025 57.3252 73.295 58.4772C72.925 59.0582 72.515 59.6232 72.115 60.1762C71.715 60.7322 71.315 61.2752 70.935 61.8242V61.8292C68.275 65.5332 65.185 68.9092 62.025 72.1662L62.0049 72.1822C60.2449 73.6782 58.535 75.4012 56.265 76.2992C53.975 77.2982 52.025 78.8052 50.205 80.5062C48.381 82.2142 46.719 84.0792 44.943 85.8442L44.944 85.8452C43.339 87.5822 41.949 89.5112 40.519 91.4232C40.587 91.6182 40.65 91.8162 40.666 92.0202C40.686 92.2822 40.633 92.5422 40.468 92.8212L40.04 92.8262C39.638 92.1832 39.1689 91.5642 38.7079 90.9212C38.2499 90.2832 37.8039 89.6242 37.4709 88.9232L37.447 88.8242C37.263 83.0222 37.203 77.2172 37.285 71.4122L37.332 71.2702C38.066 70.2472 38.725 69.1742 39.428 68.1042C39.794 67.5472 40.1699 66.9932 40.5699 66.4552C40.2499 66.4912 39.914 66.4782 39.586 66.4342C38.992 66.3562 38.391 66.1822 37.902 66.0142L37.856 65.9942C37.628 65.8602 37.391 65.6942 37.175 65.5522C36.951 65.4062 36.739 65.2782 36.529 65.1922C36.321 65.1072 36.127 65.0682 35.938 65.0902C35.752 65.1112 35.55 65.1932 35.326 65.3862L35.2419 65.4342C33.6109 65.9792 32.249 67.0152 31.181 68.3682L31.1039 68.4322C30.5659 68.7272 29.951 68.7022 29.382 68.5962C29.094 68.5432 28.807 68.4672 28.535 68.3922C28.26 68.3172 28.004 68.2432 27.764 68.1912L27.758 68.1902C27.331 68.0862 26.882 68.0352 26.418 67.9972C25.96 67.9592 25.4759 67.9322 25.0099 67.8762C24.0769 67.7632 23.143 67.5232 22.371 66.7802C21.188 66.0122 20.0439 65.1862 18.8199 64.5312C17.5979 63.8772 16.322 63.4092 14.91 63.3652C14.507 63.4052 14.1749 63.3842 13.9059 63.2902C13.6219 63.1902 13.42 63.0152 13.287 62.7802C13.159 62.5542 13.102 62.2852 13.076 62.0062C13.05 61.7252 13.054 61.4102 13.062 61.0832L13.065 61.0512C13.112 60.7532 13.076 60.5282 12.995 60.3502C12.913 60.1702 12.778 60.0192 12.597 59.8842C12.219 59.6052 11.709 59.4382 11.202 59.2292L11.165 59.2102C10.26 58.6422 9.73997 57.7702 9.31897 56.8782C8.88797 55.9642 8.57095 55.0612 8.05695 54.2942L8.04095 54.2662C7.60095 53.3792 6.92298 52.6572 6.18298 51.9342C5.45298 51.2202 4.65499 50.4982 4.03699 49.6372L4.03198 49.6312C3.67598 49.0982 3.08795 48.9742 2.36395 48.8792C2.01695 48.8332 1.63495 48.7932 1.28595 48.7002C0.93095 48.6062 0.583969 48.4512 0.305969 48.1612L0.25 47.9102C0.309 47.7292 0.338976 47.4832 0.362976 47.1902C0.386976 46.9092 0.405965 46.5852 0.451965 46.2912C0.497965 45.9982 0.575953 45.6962 0.738953 45.4602C0.912953 45.2082 1.17496 45.0452 1.53796 45.0342H1.54797C1.87697 45.0382 2.21296 45.0872 2.53296 45.1382C2.85896 45.1912 3.16799 45.2442 3.46899 45.2652C4.04199 45.3052 4.53397 45.2212 4.94897 44.7992C5.28297 43.5062 5.40398 42.2022 5.40698 40.8742L5.41095 40.8322C5.59395 39.7832 5.732 38.7262 5.875 37.6642C6.018 36.6032 6.16699 35.5372 6.37299 34.4772L6.42499 34.3672C6.67099 34.0662 6.98799 33.9622 7.29999 33.9412C7.59599 33.9212 7.91696 33.9762 8.17596 34.0092C8.45596 34.0462 8.667 34.0602 8.828 34.0092C8.956 33.9682 9.07696 33.8772 9.15796 33.6182C9.31796 32.5372 9.41295 31.3532 9.64795 30.2452C9.88595 29.1282 10.274 28.0402 11.043 27.0932C11.673 25.5112 13.248 24.9712 14.644 24.6162C14.803 23.4642 15.157 22.3632 15.485 21.2892C15.832 20.1532 16.149 19.0412 16.207 17.8772L16.358 17.7632C16.298 17.6642 16.257 17.5542 16.231 17.4432C16.17 17.1822 16.168 16.8662 16.177 16.5602C16.185 16.2412 16.205 15.9302 16.199 15.6312C16.194 15.3312 16.162 15.0842 16.087 14.9042L16.067 14.8002C16.102 13.6202 16.537 12.5442 16.981 11.5122C17.431 10.4672 17.888 9.4712 18.033 8.3952L18.047 8.34121C18.126 8.13021 18.172 7.88421 18.209 7.61221C18.227 7.47621 18.243 7.33722 18.259 7.19522C18.275 7.05422 18.291 6.9092 18.311 6.7662C18.39 6.2102 18.535 5.60122 19.03 5.23022L19.204 5.18121C19.725 5.23121 20.258 5.18721 20.676 5.00021C21.08 4.81821 21.381 4.50122 21.473 3.96722L21.5569 3.8182C21.8519 3.5692 22.2049 3.40922 22.5569 3.28222C22.7339 3.21822 22.916 3.16122 23.092 3.10522C23.269 3.04922 23.441 2.99521 23.608 2.93521C24.276 2.69721 24.788 2.39521 24.976 1.69821L24.989 1.6632C25.108 1.3912 25.279 1.1152 25.472 0.883205C25.661 0.653205 25.886 0.446207 26.121 0.336207Z" fill="#F8CA6A" stroke="white" stroke-width="0.5" stroke-linejoin="round"/>
</svg>
