<svg width="137" height="139" viewBox="0 0 137 139" fill="none" xmlns="http://www.w3.org/2000/svg">
<path d="M10.622 0.257049C10.879 0.288049 11.175 0.418038 11.451 0.555038C11.593 0.626038 11.74 0.704037 11.882 0.779037C12.025 0.855037 12.165 0.928041 12.299 0.995041C12.507 1.09704 12.684 1.17205 12.825 1.20905L12.955 1.23404L13.032 1.25404C14.644 1.97204 16.379 2.20905 18.078 1.74805L18.155 1.73904C19.518 1.80304 20.946 1.93604 22.284 2.24104L22.852 2.38205L22.97 2.45505C23.921 3.48305 25.374 3.71005 26.769 3.81705L26.847 3.83604C27.693 4.19404 27.983 4.95004 28.204 5.64204C28.436 6.36604 28.599 7.01404 29.104 7.43904L29.139 7.47504C30.084 8.66704 31.507 9.23104 33.037 9.30704C36.324 9.41904 39.594 10.357 42.285 12.317C43 12.741 43.698 13.243 44.441 13.534C45.166 13.818 45.882 13.877 46.612 13.435L46.624 13.428L47.19 13.121C47.763 12.8 48.348 12.437 48.838 12.006C49.47 11.451 49.92 10.803 50 10.014C49.503 9.17904 49.203 8.14404 49.256 7.15804C49.311 6.14104 49.742 5.16504 50.72 4.54904C52.644 2.97804 55.133 2.32004 57.402 1.63704L57.478 1.62604C59.598 1.65604 62.017 1.78505 63.814 3.22905L63.902 3.47304C63.843 3.76704 63.869 3.99504 63.94 4.17104C64.01 4.34704 64.134 4.48904 64.301 4.60104C64.643 4.83004 65.158 4.92304 65.678 4.88704L65.694 4.88605C66.495 4.88405 67.217 5.18405 67.878 5.42705C68.555 5.67605 69.181 5.87504 69.873 5.77104L69.933 5.76904C70.179 5.79104 70.477 5.78304 70.815 5.78104C71.142 5.77904 71.499 5.78405 71.824 5.84105C72.149 5.89805 72.474 6.01105 72.713 6.25005C72.933 6.47105 73.05 6.77304 73.058 7.15704C73.345 7.36004 73.531 7.58505 73.551 7.84705C73.579 7.84405 73.607 7.83904 73.635 7.83704C73.879 7.82504 74.159 7.87504 74.416 7.92204C74.686 7.97204 74.946 8.02005 75.194 8.02605C75.441 8.03205 75.654 7.99404 75.832 7.88904L75.924 7.85704C77.418 7.64504 78.882 7.85005 80.314 8.13805C81.748 8.42705 83.131 8.79204 84.539 8.94104C85.285 8.82104 85.739 9.26804 86.089 9.59804C86.278 9.77604 86.433 9.91804 86.605 10.004C86.762 10.083 86.938 10.116 87.175 10.049L87.232 10.041C88.79 9.97205 90.188 10.596 91.526 11.069L91.664 11.115C92.332 11.304 92.861 11.032 93.442 10.606C93.735 10.39 94.077 10.107 94.404 9.88304C94.736 9.65704 95.104 9.45704 95.521 9.36604C96.279 9.04204 97.07 8.82604 97.849 8.62404C98.639 8.42004 99.414 8.23104 100.16 7.95804L100.234 7.94405C101.338 7.88905 102.477 7.96204 103.586 8.15604L104.06 8.24605L104.252 8.43304C104.363 8.90504 104.694 9.37205 105.114 9.64705C105.529 9.91805 106.001 9.98804 106.435 9.74004L106.562 9.70705C106.84 9.70805 107.121 9.79404 107.378 9.88704C107.651 9.98604 107.883 10.087 108.133 10.165C108.375 10.239 108.585 10.274 108.771 10.246C108.946 10.219 109.121 10.133 109.293 9.92204L109.318 9.89604C109.834 9.42204 110.442 9.60505 110.932 9.79305C111.197 9.89505 111.433 10.001 111.685 10.079C111.93 10.154 112.157 10.191 112.374 10.163L112.408 10.161C113.36 10.166 114.297 9.65604 115.123 9.11404L115.492 9.22804C116.637 12.029 117.777 14.818 119.142 17.506L119.087 17.804C118.344 18.482 117.892 19.37 117.563 20.349C117.231 21.334 117.035 22.368 116.776 23.375C116.708 23.861 116.554 24.562 116.24 25.03C116.08 25.269 115.854 25.482 115.546 25.539C115.234 25.596 114.907 25.482 114.574 25.22L114.529 25.1741C114.237 24.7861 113.884 24.4331 113.506 24.0831C113.135 23.7411 112.723 23.3871 112.353 23.0271C111.604 22.2991 110.932 21.464 110.755 20.288C110.635 19.804 110.282 19.476 109.862 19.07C109.463 18.683 109.013 18.229 108.9 17.526C108.773 17.038 108.573 16.452 108.306 16.136C108.176 15.983 108.064 15.932 107.968 15.936C107.865 15.94 107.693 16.008 107.453 16.291L107.447 16.298L107.263 16.129L107.446 16.298C107.237 16.526 107.158 16.742 107.147 16.953C107.135 17.171 107.194 17.406 107.303 17.665C107.413 17.927 107.561 18.189 107.713 18.474C107.823 18.682 107.935 18.901 108.021 19.124L108.097 19.35V19.351C108.4 20.416 109.039 21.297 109.772 22.161C110.404 22.905 111.12 23.651 111.698 24.466L111.938 24.8201L111.966 24.883C112.267 25.891 112.751 26.82 113.239 27.778C113.716 28.712 114.194 29.673 114.477 30.726C115.347 31.779 116.001 32.9701 116.613 34.1651C117.159 35.2301 117.669 36.293 118.276 37.293L118.542 37.718L118.555 37.741C119.459 39.511 120.475 41.196 122.066 42.323L122.392 42.541L122.46 42.603C122.561 42.739 122.618 42.887 122.61 43.045C122.603 43.2 122.534 43.328 122.456 43.427C122.379 43.525 122.28 43.612 122.188 43.688C122.141 43.726 122.092 43.765 122.045 43.802C121.998 43.839 121.952 43.876 121.908 43.913C121.723 44.067 121.61 44.196 121.576 44.332C121.552 44.432 121.56 44.589 121.734 44.835L121.818 44.947L121.873 45.0741C122.059 46.5271 122.832 47.849 124.13 48.511C124.696 48.727 125.136 49.0621 125.526 49.4371C125.904 49.8021 126.266 50.2371 126.623 50.6181C126.86 50.8121 127.083 51.0451 127.256 51.2811C127.428 51.5161 127.569 51.776 127.609 52.017C127.617 52.065 127.619 52.116 127.618 52.166L127.766 52.253C128.715 53.923 129.588 55.737 129.494 57.775C129.753 60.662 129.795 63.584 130.657 66.278C131.241 66.802 131.923 67.212 132.629 67.647C133.326 68.076 134.043 68.529 134.651 69.133C135.01 69.212 135.311 69.321 135.541 69.463C135.787 69.616 135.973 69.818 136.039 70.075C136.106 70.335 136.036 70.598 135.88 70.839C135.737 71.06 135.513 71.2741 135.223 71.4841C134.979 72.2851 134.442 72.802 133.805 73.153C133.182 73.496 132.45 73.685 131.789 73.84C131.664 74.005 131.547 74.1911 131.419 74.3891C131.279 74.6071 131.126 74.84 130.946 75.041C130.766 75.243 130.548 75.423 130.275 75.53C129.998 75.637 129.682 75.663 129.317 75.584H129.316C129.048 75.526 128.896 75.577 128.796 75.657C128.684 75.746 128.594 75.9061 128.526 76.1391C128.458 76.3701 128.421 76.64 128.39 76.918C128.36 77.179 128.333 77.457 128.287 77.681C128.129 78.873 127.708 79.983 127.276 81.055C126.846 82.125 126.41 83.1551 126.18 84.2381C126.392 86.6811 126.437 89.2731 125.459 91.6481C125.078 92.6511 124.947 93.702 124.709 94.798L124.524 94.989C123.052 95.35 121.626 95.842 121.086 97.246L121.046 97.315C120.312 98.208 119.941 99.252 119.712 100.371C119.597 100.93 119.52 101.504 119.447 102.085C119.376 102.664 119.309 103.253 119.221 103.828L119.191 103.915C118.986 104.268 118.688 104.423 118.37 104.468C118.074 104.511 117.752 104.46 117.486 104.421C117.199 104.38 116.971 104.352 116.788 104.391C116.704 104.409 116.635 104.44 116.578 104.488C116.525 104.533 116.47 104.601 116.423 104.709C116.06 107.126 115.592 109.524 115.457 111.921V111.925C115.422 112.415 115.408 113.046 115.316 113.629C115.223 114.214 115.043 114.81 114.637 115.231L114.623 115.245C113.981 115.813 113.228 115.761 112.55 115.648C112.195 115.589 111.88 115.517 111.548 115.477C111.29 115.446 111.047 115.439 110.818 115.474C110.79 115.681 110.733 115.896 110.672 116.103C110.587 116.39 110.497 116.658 110.431 116.927C110.3 117.458 110.316 117.808 110.575 118.024C110.881 118.103 111.207 118.158 111.548 118.214C111.903 118.273 112.274 118.335 112.629 118.432C113.338 118.625 114.015 118.966 114.444 119.735C115.115 120.58 115.918 121.29 116.692 122.101C117.453 122.898 118.159 123.77 118.552 124.885C118.786 125.31 118.999 125.781 119.214 126.239C119.434 126.708 119.659 127.167 119.921 127.581C120.41 128.351 121.013 128.935 121.931 129.107L122.119 129.136L122.209 129.165C122.83 129.503 123.073 130.11 123.167 130.717C123.26 131.315 123.217 131.983 123.217 132.477L123.149 132.649C122.972 132.835 122.718 132.926 122.468 132.977C122.213 133.029 121.92 133.047 121.632 133.059C121.337 133.071 121.047 133.075 120.767 133.097C120.488 133.119 120.241 133.157 120.042 133.226L120.004 133.236C119.393 133.345 118.742 133.298 118.144 133.261C117.561 133.225 117.031 133.2 116.568 133.294C115.944 133.999 115.319 134.72 114.737 135.439L114.718 135.459C114.279 135.892 113.699 136.484 113.058 136.878C112.413 137.275 111.649 137.504 110.875 137.119L110.853 137.106C110.187 136.685 109.448 136.718 108.65 136.925C108.25 137.029 107.848 137.173 107.442 137.318C107.039 137.461 106.63 137.606 106.235 137.701C105.176 137.956 104.137 137.69 103.187 137.492C102.225 137.291 101.34 137.152 100.457 137.515C100.155 137.777 99.85 137.889 99.541 137.845C99.234 137.801 98.979 137.61 98.771 137.405C98.562 137.199 98.361 136.939 98.179 136.719C97.988 136.488 97.815 136.298 97.641 136.179L97.609 136.153C97.321 135.877 97.039 135.59 96.757 135.306C96.475 135.021 96.193 134.738 95.904 134.466C95.352 133.944 94.782 133.469 94.154 133.106C94.038 133.147 93.916 133.247 93.778 133.414C93.609 133.619 93.469 133.856 93.298 134.104C93.217 134.221 93.129 134.338 93.035 134.437C92.942 134.535 92.831 134.629 92.696 134.683C92.554 134.74 92.398 134.747 92.238 134.689C92.087 134.634 91.949 134.525 91.818 134.379L91.797 134.351C91.497 133.899 91.077 133.613 90.662 133.542C90.26 133.475 89.831 133.604 89.469 134.044C89.045 134.651 88.435 134.844 87.839 134.75C87.261 134.66 86.706 134.303 86.321 133.829L85.948 133.432C85.583 133.03 85.237 132.611 84.892 132.21C84.427 131.671 83.957 131.156 83.412 130.712L83.39 130.692C83.13 130.422 83.034 130.109 83.009 129.8C82.985 129.504 83.025 129.189 83.05 128.923C83.076 128.643 83.086 128.407 83.033 128.204C82.984 128.015 82.878 127.843 82.64 127.697L82.564 127.624C82.172 127.045 81.517 126.922 80.744 126.743C80.008 126.572 79.173 126.343 78.789 125.392V125.391C78.67 125.117 78.608 124.818 78.562 124.531C78.513 124.23 78.482 123.955 78.423 123.683C78.31 123.157 78.115 122.75 77.592 122.529L77.542 122.5C77.227 122.271 76.873 122.061 76.503 121.847C76.137 121.635 75.751 121.419 75.389 121.18C74.664 120.703 73.99 120.116 73.665 119.232L73.695 119.001C73.875 118.747 73.92 118.535 73.9 118.364C73.879 118.189 73.786 118.019 73.627 117.859C73.302 117.532 72.749 117.299 72.258 117.214L72.231 117.207C70.794 116.788 69.053 116.06 68.48 114.404C68.336 114.287 68.159 114.235 67.942 114.223C67.696 114.209 67.43 114.247 67.132 114.282C66.85 114.314 66.532 114.345 66.243 114.285C65.937 114.221 65.661 114.055 65.474 113.718L65.447 113.645C65.267 112.74 65.494 111.883 65.734 111.09C65.979 110.286 66.23 109.557 66.206 108.814C65.942 107.807 65.356 106.95 64.666 106.111C63.982 105.279 63.17 104.439 62.556 103.532L62.551 103.258C62.903 102.695 62.877 102.109 62.631 101.558C62.382 100.999 61.908 100.489 61.396 100.125L61.33 100.056C60.841 99.293 60.7 98.415 60.576 97.594C60.459 96.815 60.353 96.091 60.034 95.457C59.818 95.487 59.576 95.5131 59.333 95.5181C59.023 95.5241 58.695 95.501 58.422 95.416C58.153 95.333 57.88 95.168 57.79 94.852C57.707 94.556 57.812 94.2171 58.051 93.8461C58.16 93.5271 58.372 93.245 58.588 92.996C58.7 92.866 58.82 92.738 58.933 92.616C59.047 92.492 59.154 92.373 59.25 92.254C59.445 92.014 59.571 91.8 59.605 91.59C59.636 91.397 59.594 91.173 59.375 90.892C59.086 90.573 58.945 90.258 58.974 89.944C59.003 89.632 59.194 89.391 59.404 89.205C59.615 89.017 59.883 88.853 60.121 88.707C60.347 88.568 60.544 88.442 60.694 88.317C60.751 88.15 60.767 87.957 60.757 87.731C60.745 87.464 60.707 87.2291 60.684 86.9241C60.64 86.3621 60.667 85.717 61.248 85.216L61.431 85.029C61.832 84.574 62.073 84.014 62.288 83.408C62.527 82.732 62.739 81.971 63.123 81.338L63.252 81.233C63.969 80.974 64.741 80.921 65.499 80.918C66.25 80.916 66.954 80.96 67.65 80.931C67.735 80.861 67.797 80.756 67.832 80.594C67.874 80.4 67.874 80.1551 67.854 79.8721C67.844 79.7321 67.829 79.587 67.814 79.439C67.798 79.293 67.782 79.142 67.77 78.995C67.746 78.716 67.735 78.429 67.775 78.175C67.706 75.098 67.754 72.0531 67.609 68.9921V68.965C67.685 67.698 67.699 66.428 67.723 65.149C67.731 64.692 67.743 64.234 67.758 63.775C67.597 63.741 67.43 63.6881 67.264 63.6221C67.009 63.5201 66.738 63.3861 66.469 63.2471C65.919 62.9611 65.382 62.654 64.917 62.474L64.896 62.464C56.311 58.139 47.674 53.92 39.005 49.766L39.003 49.765C37.657 49.108 36.31 48.45 34.964 47.792C33.644 47.148 32.324 46.5031 31.004 45.8591C30.003 46.0601 29.057 46.471 28.108 46.943C27.143 47.422 26.159 47.9691 25.147 48.3811L25.089 48.397C24.89 48.426 24.672 48.53 24.425 48.681C24.303 48.755 24.181 48.837 24.054 48.92C23.929 49.003 23.799 49.0891 23.669 49.1651C23.415 49.3161 23.129 49.455 22.833 49.472C22.523 49.49 22.234 49.373 21.983 49.091C20.657 48.016 19.375 46.991 17.734 46.683L17.705 46.676C15.895 46.1 14.011 45.753 12.179 45.271L12.04 45.175C11.616 44.587 11.3 43.8711 10.974 43.2511C10.645 42.6281 10.294 42.081 9.78802 41.707C9.41902 41.611 9.047 41.476 8.685 41.34C8.3 41.197 7.92598 41.055 7.55298 40.952C6.81098 40.746 6.12103 40.707 5.46503 41.104L5.19299 41.095C3.82099 40.145 3.23999 38.438 2.90399 36.944C2.03099 35.775 1.15702 34.6061 0.28302 33.4371L0.25 33.1991C0.392 32.8241 0.662003 32.552 0.953003 32.334C1.236 32.123 1.57898 31.935 1.85498 31.762C2.14498 31.58 2.38203 31.403 2.53503 31.19C2.68003 30.989 2.75901 30.743 2.70801 30.394L2.711 30.306C2.774 30.004 2.732 29.7031 2.63 29.3851C2.526 29.0611 2.37099 28.748 2.21899 28.401C1.92799 27.736 1.65799 26.9681 2.16699 26.1561C2.45799 25.5211 2.43502 24.865 2.37402 24.142C2.31602 23.445 2.22104 22.674 2.43604 21.906C2.52204 20.031 2.118 18.165 1.039 16.636C0.614001 16.163 0.354024 15.59 0.387024 15.034C0.421024 14.458 0.765007 13.955 1.43201 13.646C1.72001 13.444 2.04699 13.244 2.35199 13.045C2.66899 12.839 2.97301 12.627 3.23401 12.394C3.74501 11.936 4.06698 11.413 3.99298 10.695C3.95898 10.579 3.91999 10.457 3.87799 10.328C3.83399 10.191 3.78698 10.047 3.74298 9.90105C3.65698 9.61005 3.57899 9.29604 3.55499 8.99104C3.53099 8.68404 3.56103 8.36905 3.70203 8.08205C3.84203 7.79805 4.08001 7.56304 4.43201 7.39404C6.04801 6.02104 7.819 4.88604 9.724 3.96304C9.855 3.50304 9.83698 3.01405 9.80798 2.47205C9.77698 1.90805 9.73701 1.28505 9.91101 0.67305L9.91699 0.657043C9.97199 0.505043 10.069 0.385048 10.21 0.315048C10.344 0.249048 10.49 0.241049 10.622 0.257049Z" fill="#F8CA6A" stroke="white" stroke-width="0.5" stroke-linejoin="round"/>
</svg>
