<svg width="192" height="93" viewBox="0 0 192 93" fill="none" xmlns="http://www.w3.org/2000/svg">
<path d="M39.648 0.25C45.61 3.361 51.4451 6.72102 57.1061 10.352L57.104 10.363C61.311 12.965 65.38 15.786 69.46 18.574C73.034 21.015 76.6171 23.432 80.3171 25.662L81.91 26.606L81.933 26.621C82.425 26.986 82.995 27.243 83.586 27.571C84.16 27.889 84.734 28.267 85.134 28.852L85.143 29.119C84.986 29.388 84.9711 29.581 85.0071 29.728C85.0451 29.884 85.153 30.035 85.328 30.198C85.505 30.362 85.719 30.512 85.952 30.686C86.165 30.845 86.39 31.023 86.563 31.232C86.784 31.391 86.999 31.616 87.199 31.829C87.415 32.059 87.618 32.279 87.826 32.449C88.035 32.619 88.216 32.709 88.38 32.718C88.529 32.726 88.715 32.67 88.946 32.424L88.999 32.381C89.147 32.292 89.301 32.249 89.457 32.252C89.611 32.256 89.75 32.305 89.872 32.373C90.106 32.504 90.318 32.73 90.505 32.928C90.703 33.139 90.885 33.334 91.081 33.47C91.27 33.602 91.45 33.662 91.647 33.631H91.648C92.293 33.535 93.0361 33.607 93.6271 33.911C94.2271 34.22 94.671 34.774 94.669 35.603C94.701 35.854 94.663 36.159 94.617 36.447C94.567 36.759 94.5061 37.063 94.4761 37.353C94.4461 37.646 94.455 37.871 94.514 38.022C94.542 38.092 94.578 38.14 94.623 38.174C94.664 38.205 94.724 38.232 94.815 38.246L98.949 37.472C101.425 36.942 103.933 36.626 106.299 35.943C109.988 32.889 113.501 29.454 117.765 27.08C123.267 23.616 129.048 20.598 134.717 17.471L134.852 17.44C136.74 17.557 138.635 18.12 140.469 18.706L142.278 19.285L142.347 19.319C143.337 20.012 144.29 20.779 145.242 21.497C145.782 21.154 146.352 20.87 146.921 20.606C147.548 20.314 148.165 20.047 148.761 19.734L148.778 19.742L148.786 19.73C149.551 19.433 150.269 19.022 151.044 18.637C151.807 18.258 152.609 17.916 153.49 17.803L153.633 17.827C164.731 23.286 175.943 28.546 186.972 34.163L190.603 35.929L190.744 36.161C190.636 39.787 190.582 43.402 190.761 47.018V47.053C190.66 48.134 190.711 49.222 190.761 50.33C190.81 51.433 190.858 52.555 190.747 53.674L190.501 53.899C189.007 53.913 187.508 53.808 186.116 54.065C185.727 54.44 185.567 54.993 185.386 55.647C185.206 56.295 185.003 57.04 184.433 57.565C183.622 58.357 183.442 59.489 183.843 60.553L183.841 60.734C183.716 61.046 183.452 61.265 183.195 61.433C183.064 61.519 182.925 61.598 182.793 61.671C182.658 61.746 182.533 61.815 182.418 61.886C182.178 62.035 182.041 62.16 181.991 62.284C181.953 62.378 181.944 62.534 182.145 62.819C182.411 63.104 182.554 63.405 182.588 63.716C182.622 64.032 182.542 64.332 182.409 64.603C182.148 65.135 181.655 65.615 181.273 65.98L181.27 65.983C180.913 66.315 180.764 66.85 180.844 67.204C180.883 67.373 180.964 67.472 181.068 67.516C181.178 67.562 181.377 67.574 181.7 67.429L181.735 67.416C182.158 67.298 182.51 67.335 182.782 67.534C183.041 67.722 183.178 68.023 183.262 68.319C183.348 68.617 183.391 68.956 183.429 69.26C183.469 69.576 183.503 69.849 183.566 70.056L183.576 70.098C183.722 71.285 184.111 72.401 185.095 73.025L185.139 73.06C185.502 73.425 185.745 74.039 185.8 74.598C185.852 75.137 185.735 75.78 185.184 76.022L184.948 76.002C184.346 75.612 183.727 75.59 183.118 75.773C182.499 75.958 181.895 76.353 181.356 76.786L181.285 76.827C180.266 77.193 179.817 78.092 179.808 79.138L179.743 79.304C178.859 80.27 177.87 81.136 176.868 81.976C175.863 82.819 174.85 83.631 173.899 84.503L173.792 84.562C172.716 84.835 171.585 84.813 170.508 84.805C169.441 84.797 168.425 84.804 167.481 85.085C167.219 85.399 167.163 85.824 167.089 86.359C167.017 86.876 166.924 87.487 166.464 87.954C166.256 88.37 166.017 88.906 165.679 89.301C165.501 89.51 165.286 89.692 165.02 89.805C164.753 89.918 164.449 89.956 164.104 89.897C161.98 89.59 160.042 90.685 158.18 91.786L158.168 91.792C157.974 91.892 157.786 91.938 157.603 91.928C157.42 91.918 157.261 91.854 157.126 91.762C156.868 91.588 156.674 91.299 156.519 91.067C156.437 90.943 156.363 90.832 156.289 90.734C156.214 90.636 156.149 90.566 156.089 90.522C156.032 90.481 155.989 90.468 155.951 90.469C155.91 90.47 155.842 90.486 155.738 90.562L155.68 90.593C155.386 90.708 155.092 90.859 154.79 91.026C154.493 91.189 154.178 91.372 153.866 91.533C153.238 91.856 152.551 92.125 151.788 92.063L151.662 92.017C150.963 91.513 150.676 90.752 150.438 90.039C150.193 89.303 149.997 88.623 149.528 88.108L149.491 88.054C148.996 87.097 148.223 86.363 147.372 85.644C146.543 84.944 145.627 84.247 144.896 83.392C144.275 83.046 143.924 82.585 143.913 82.045C143.903 81.517 144.223 81.009 144.721 80.571C145.263 79.897 146.001 79.893 146.677 80.015C147.014 80.075 147.371 80.174 147.687 80.247C147.933 80.305 148.162 80.35 148.375 80.366L148.582 80.37L148.627 80.373C148.949 80.423 149.642 80.511 150.175 80.465C150.453 80.441 150.624 80.385 150.696 80.324C150.721 80.302 150.725 80.288 150.726 80.273C150.728 80.25 150.722 80.197 150.672 80.103C149.158 78.419 148.643 75.969 148.904 73.815L148.906 73.804C149.263 71.624 148.502 69.351 147.027 67.691L146.99 67.635C146.505 66.651 145.675 66.119 144.578 66.134L144.532 66.131L144.502 66.125L144.355 65.999L144.336 66.014C144.151 65.742 143.91 65.494 143.644 65.243C143.385 64.998 143.089 64.738 142.832 64.473C142.527 64.159 142.249 63.808 142.086 63.388C141.871 63.481 141.595 63.467 141.284 63.389C140.394 63.294 139.648 63.652 138.928 64.182C138.566 64.449 138.218 64.754 137.864 65.06C137.514 65.363 137.156 65.668 136.787 65.921L136.633 65.965C135.9 65.929 135.175 65.719 134.474 65.5C133.763 65.278 133.079 65.047 132.388 64.937L132.371 64.933C130.21 64.43 127.708 64.65 125.873 65.876C124.803 66.861 123.44 67.461 121.928 67.22C120.907 67.216 120.001 66.878 119.159 66.441C118.735 66.221 118.324 65.973 117.922 65.729C117.527 65.489 117.142 65.255 116.754 65.042C115.942 64.845 115.177 65.191 114.316 65.599C113.481 65.995 112.545 66.458 111.53 66.221L111.452 66.188C111.08 65.95 110.767 65.642 110.482 65.321C110.339 65.16 110.202 64.993 110.067 64.829C109.932 64.665 109.8 64.504 109.666 64.348C109.126 63.723 108.577 63.233 107.776 63.135L107.739 63.128C105.319 62.455 102.696 62.818 100.253 63.422C99.155 63.769 98.781 64.748 98.367 65.884C98.18 66.61 97.759 67.219 97.417 67.781C97.062 68.363 96.779 68.91 96.774 69.571L96.7521 69.673C96.6821 69.825 96.652 70.08 96.637 70.409C96.624 70.712 96.625 71.081 96.595 71.37C96.58 71.517 96.556 71.665 96.511 71.791C96.466 71.915 96.3871 72.056 96.2391 72.135C96.0821 72.218 95.911 72.199 95.758 72.136C95.615 72.078 95.4621 71.974 95.2961 71.83C94.6091 71.554 94.024 71.075 93.488 70.623C92.948 70.169 92.458 69.752 91.923 69.509C91.677 69.552 91.439 69.648 91.194 69.774C91.06 69.843 90.928 69.918 90.792 69.995C90.657 70.07 90.517 70.148 90.375 70.219L90.061 70.143C89.886 69.903 89.741 69.62 89.607 69.358C89.47 69.088 89.344 68.838 89.197 68.627C89.052 68.418 88.9 68.269 88.725 68.188C88.557 68.109 88.3391 68.081 88.0331 68.162L88.025 68.164C87.115 68.376 86.313 68.074 85.62 67.62C84.937 67.172 84.315 66.543 83.788 66.076L83.7051 65.866C83.7271 65.628 83.82 65.377 83.905 65.155C83.995 64.919 84.081 64.704 84.124 64.496C84.166 64.293 84.159 64.126 84.092 63.983C84.024 63.841 83.877 63.684 83.556 63.537L83.519 63.516C82.183 62.6 80.9181 61.455 80.4211 59.779C80.3161 59.562 80.243 59.278 80.207 58.983C80.169 58.672 80.167 58.331 80.214 58.017C80.254 57.747 80.334 57.474 80.477 57.261C79.271 57.079 78.06 56.871 76.901 56.609C76.074 56.858 75.312 57.295 74.527 57.764C73.732 58.239 72.91 58.747 72.008 59.076L71.956 59.088C71.723 59.12 71.573 59.239 71.453 59.421C71.324 59.617 71.2401 59.868 71.1451 60.15C71.0571 60.41 70.954 60.717 70.777 60.935C70.683 61.05 70.563 61.149 70.406 61.204C70.25 61.26 70.0771 61.266 69.8901 61.228L69.812 61.198C69.359 60.928 68.857 60.631 68.389 60.536C68.161 60.489 67.9591 60.495 67.7831 60.562C67.6111 60.628 67.438 60.763 67.284 61.023L67.223 61.092C66.538 61.63 66.043 62.321 65.596 63.075C65.373 63.452 65.165 63.839 64.949 64.232C64.734 64.622 64.5141 65.016 64.2701 65.394L64.177 65.479C63.534 65.824 62.9481 65.672 62.4551 65.37C62.0231 65.106 61.616 64.699 61.284 64.395C60.6 64.547 60.251 65.043 60.009 65.718C59.88 66.078 59.787 66.472 59.691 66.874C59.599 67.261 59.502 67.658 59.366 68.009C59.128 69.311 58.6181 70.856 57.0331 71.273C56.7841 71.362 56.499 71.44 56.259 71.516C56.002 71.597 55.78 71.68 55.608 71.787C55.44 71.891 55.338 72.007 55.292 72.149C55.257 72.258 55.247 72.406 55.295 72.611L55.3641 72.835L55.379 72.918C55.407 74.817 54.964 76.948 53.946 78.535L53.832 78.63C53.677 78.695 53.4911 78.823 53.2701 78.987C53.0601 79.143 52.819 79.329 52.583 79.476C52.348 79.622 52.082 79.753 51.809 79.772C51.514 79.793 51.239 79.681 51.019 79.404L51.009 79.388C50.856 79.162 50.779 78.861 50.721 78.591C50.66 78.301 50.62 78.041 50.551 77.813C50.48 77.581 50.401 77.467 50.319 77.422C50.252 77.385 50.1051 77.354 49.7831 77.508L49.784 77.509C49.243 77.779 48.847 78.22 48.424 78.706C48.011 79.181 47.568 79.707 46.954 80.043L46.662 80.006C46.258 79.626 45.768 79.105 45.245 78.79C44.987 78.635 44.745 78.546 44.524 78.54C44.322 78.535 44.117 78.6 43.91 78.792C43.801 78.992 43.694 79.153 43.583 79.274C43.464 79.402 43.332 79.498 43.181 79.539C42.855 79.628 42.597 79.43 42.426 79.235C42.248 79.033 42.088 78.752 41.943 78.491C41.792 78.217 41.654 77.96 41.512 77.761L41.4681 77.644C41.2621 75.846 40.878 74.026 39.444 72.938L39.392 72.885C38.618 71.816 38.358 70.444 38.077 69.319C37.921 69.086 37.7541 68.993 37.5931 68.966C37.4121 68.936 37.198 68.981 36.956 69.096C36.474 69.324 35.985 69.774 35.634 70.12C35.188 70.744 34.585 70.927 33.975 70.882C33.38 70.838 32.772 70.577 32.269 70.326V70.327C32.058 70.227 31.894 70.248 31.736 70.329C31.56 70.42 31.39 70.587 31.199 70.793C31.021 70.985 30.816 71.223 30.595 71.377C30.36 71.542 30.068 71.642 29.732 71.509C29.061 71.248 28.5031 70.806 27.9891 70.368C27.4651 69.92 26.993 69.483 26.462 69.173L26.345 68.895C26.6 67.908 26.477 66.706 26.208 65.707C26.073 65.507 25.894 65.341 25.682 65.183C25.452 65.012 25.22 64.873 24.961 64.698C24.464 64.361 23.957 63.937 23.835 63.159V63.158C23.704 62.421 23.464 61.703 23.269 60.92C23.078 60.154 22.941 59.354 23.057 58.543L23.139 58.392C23.353 58.203 23.5981 58.028 23.8251 57.862C23.8621 57.835 23.897 57.806 23.933 57.779C21.65 56.368 19.181 54.738 18.228 51.98L18.2261 51.974C18.1201 51.645 17.944 51.448 17.727 51.315C17.5 51.176 17.216 51.099 16.884 51.037C16.568 50.979 16.183 50.931 15.839 50.846C15.487 50.759 15.1311 50.625 14.8301 50.368C13.6901 49.476 12.596 48.563 11.184 48.714L11.18 48.715C8.96403 48.91 6.68602 49.03 4.56602 49.455C4.42002 49.623 4.29304 49.755 4.17704 49.85C4.05304 49.952 3.91801 50.037 3.78001 50.058C3.70501 50.069 3.62201 50.063 3.54301 50.025C3.46401 49.986 3.41004 49.925 3.37504 49.864C3.31004 49.75 3.29701 49.612 3.29801 49.496C3.30001 49.253 3.368 48.941 3.465 48.643C3.561 48.347 3.69204 48.042 3.83604 47.798C5.25904 44.83 5.73304 41.16 4.17204 38.224C3.63104 37.763 3.27801 37.318 3.21201 36.812C3.14501 36.304 3.37704 35.811 3.80204 35.278C3.94804 34.471 4.07001 33.581 3.97501 32.763C3.87901 31.933 3.56403 31.201 2.84403 30.704L2.76102 30.608C2.47302 30.019 2.06601 29.825 1.70701 29.814C1.32701 29.803 0.971059 29.994 0.796059 30.234L0.344033 30.095C0.337033 29.9 0.306007 29.643 0.280007 29.336C0.255007 29.041 0.237001 28.711 0.262001 28.413C0.288001 28.125 0.358031 27.813 0.555031 27.6C0.768031 27.37 1.07401 27.307 1.43601 27.393C7.26301 27.462 13.1001 27.548 18.9161 27.534C18.9281 26.445 18.777 25.347 18.648 24.224C18.511 23.028 18.404 21.81 18.59 20.608L18.618 20.525C19.182 19.508 20.115 18.975 21.073 18.57C21.546 18.37 22.055 18.19 22.516 18.007C22.944 17.838 23.348 17.658 23.712 17.442C23.894 13.779 23.904 10.05 24.156 6.375L24.383 6.14301C26.278 5.97101 28.181 5.96202 30.078 5.98602C31.978 6.00902 33.8671 6.066 35.7521 6.026L35.759 6.02502C36.852 6.03002 37.9541 6.026 39.0541 6.052C39.2291 5.196 39.259 4.31302 39.255 3.40802C39.25 2.44102 39.2081 1.43701 39.2831 0.45401L39.648 0.25Z" fill="#F8CA6A" stroke="white" stroke-width="0.5" stroke-linejoin="round"/>
</svg>
