<svg width="100" height="91" viewBox="0 0 100 91" fill="none" xmlns="http://www.w3.org/2000/svg">
<path d="M84.081 0.3137C84.989 0.2587 85.998 0.160721 86.928 0.428721L87.105 0.710703C87.009 1.2847 87.0899 1.74671 87.2969 2.00971C87.4819 2.24571 87.825 2.38869 88.443 2.20069L88.485 2.1927C89.852 2.0207 91.085 2.4267 92.259 2.9087C93.374 3.3687 94.42 3.88772 95.537 4.13072L95.762 4.1757L95.778 4.1797C96.456 4.3517 97.192 4.6437 97.759 5.1067C98.327 5.5717 98.73 6.21671 98.715 7.07371C98.844 8.09771 98.8879 9.1377 98.9529 10.1547C99.0179 11.1827 99.105 12.1957 99.324 13.1877L99.3199 13.3117C99.2129 13.6797 99.01 14.0097 98.796 14.3097C98.688 14.4597 98.575 14.6077 98.467 14.7497C98.357 14.8937 98.252 15.0317 98.157 15.1707C97.966 15.4497 97.8269 15.7117 97.7729 15.9797C97.7219 16.2387 97.748 16.5187 97.918 16.8457L97.946 16.9627C97.942 17.9807 98.306 18.8577 98.918 19.6537L99.1949 19.9907L99.246 20.0817C99.434 20.6937 99.1769 21.2907 98.8279 21.7787C98.4749 22.2727 97.989 22.7147 97.616 23.0387L97.597 23.0547C96.998 23.4767 96.715 24.1107 96.598 24.8337C96.48 25.5617 96.534 26.3497 96.588 27.0457L96.5309 27.2247C94.9949 29.0807 93.188 30.7787 91.467 32.4507L91.434 32.4787C91.365 32.5257 91.294 32.5607 91.223 32.5877C91.542 32.9507 91.7489 33.4177 91.7629 34.0007C91.8879 34.4157 91.978 34.8387 92.059 35.2547C92.143 35.6857 92.218 36.1037 92.314 36.5147C92.483 37.2297 92.713 37.8917 93.147 38.4647L93.347 38.7047L93.389 38.7697C94.594 41.4157 94.667 44.3247 94.417 47.1227C94.416 47.4537 94.4359 47.7437 94.4449 48.0117C94.4499 48.1417 94.452 48.2677 94.444 48.3807C94.437 48.4847 94.42 48.5917 94.384 48.6897C94.387 48.6927 94.391 48.6957 94.394 48.6987C94.405 48.7087 94.41 48.7127 94.41 48.7127C94.409 48.7117 94.401 48.7067 94.389 48.7007C94.387 48.6997 94.384 48.6997 94.381 48.6977C94.379 48.7017 94.379 48.7057 94.378 48.7087C94.359 48.7537 94.334 48.7977 94.303 48.8387L94.571 48.8697C94.681 49.4377 94.66 50.0267 94.681 50.5437C94.702 51.0737 94.766 51.5667 95.019 52.0407C95.226 52.3507 95.318 52.6287 95.27 52.8857C95.568 52.8337 95.868 52.8147 96.165 52.8127C96.509 52.8097 96.864 52.8267 97.197 52.8367C97.535 52.8467 97.86 52.8497 98.171 52.8197L98.442 53.1067C98.321 53.8887 98.228 54.7647 98.024 55.5847C97.819 56.4127 97.494 57.2197 96.887 57.8827L96.702 57.9637C96.274 57.9637 96.136 58.0627 96.088 58.1277C96.033 58.2027 96.0139 58.3377 96.0569 58.5937C96.0779 58.7137 96.108 58.8427 96.141 58.9857C96.174 59.1247 96.209 59.2767 96.233 59.4277C96.28 59.7187 96.2929 60.0517 96.1509 60.3537L96.152 60.3547C95.713 61.4877 94.7479 62.1177 93.8359 62.6867C92.8999 63.2697 92.019 63.7897 91.538 64.6907L91.522 64.7177C88.811 68.5477 86.17 72.5947 82.438 75.6177C80.993 77.0717 79.534 78.5487 77.739 79.6537L77.245 80.0197C76.753 80.3897 76.2639 80.7747 75.7729 81.1617C75.1199 81.6777 74.4599 82.1997 73.7859 82.6947C72.4369 83.6877 71.012 84.5877 69.407 85.1567L69.379 85.1647C68.582 85.3437 67.778 85.3447 67.006 85.3417C66.291 85.3387 65.602 85.3327 64.926 85.4437C64.9 85.7337 64.829 85.9727 64.699 86.1567C64.534 86.3917 64.2989 86.5087 64.0469 86.5487C63.8019 86.5877 63.534 86.5577 63.275 86.5027C63.014 86.4477 62.739 86.3637 62.478 86.2807L62.446 86.2677C62.193 86.1457 61.994 86.1357 61.825 86.1777C61.648 86.2217 61.475 86.3287 61.291 86.4837C61.099 86.6447 60.934 86.8197 60.723 87.0147C60.524 87.1987 60.2969 87.3847 60.0339 87.5027L59.902 87.5237C59.153 87.4337 58.4929 87.0867 57.8799 86.7877C57.2519 86.4817 56.6619 86.2197 55.9919 86.2067L55.9089 86.1907C55.4389 86.0137 55.025 86.1417 54.567 86.3597C54.354 86.4607 54.094 86.6017 53.863 86.7017C53.621 86.8077 53.355 86.8947 53.072 86.9037L53.008 86.8977C52.729 86.8317 52.457 86.7517 52.199 86.6797C51.938 86.6067 51.69 86.5397 51.443 86.4917C50.954 86.3987 50.486 86.3867 49.994 86.5657L49.889 86.5787C49.227 86.5267 48.642 86.7527 48.063 87.0887C47.773 87.2567 47.491 87.4497 47.201 87.6437C46.915 87.8357 46.62 88.0297 46.318 88.1927L46.258 88.2157C45.68 88.3517 45.087 88.3707 44.504 88.3507C44.212 88.3407 43.919 88.3207 43.631 88.2997C43.341 88.2787 43.056 88.2567 42.774 88.2427C41.648 88.1877 40.621 88.2577 39.74 88.9397C39.649 89.0327 39.557 89.1337 39.464 89.2367C39.367 89.3427 39.267 89.4537 39.166 89.5597C38.966 89.7697 38.7479 89.9777 38.5099 90.1247C38.2669 90.2747 37.989 90.3697 37.679 90.3327C37.39 90.2987 37.105 90.1517 36.819 89.8937C36.475 89.8437 36.1999 89.7397 35.9739 89.5847C35.7319 89.4187 35.559 89.2077 35.42 88.9877C35.284 88.7747 35.1689 88.5337 35.0569 88.3227C34.9629 88.1447 34.864 87.9767 34.746 87.8217C34.136 87.8877 33.693 87.8197 33.304 87.6267C32.968 87.4597 32.686 87.2047 32.384 86.9167C32.277 87.0197 32.1569 87.1177 32.0309 87.2007C31.8249 87.3367 31.582 87.4537 31.355 87.4867C31.241 87.5027 31.112 87.5007 30.991 87.4517C30.863 87.4007 30.762 87.3047 30.702 87.1707C30.593 86.9267 30.631 86.5867 30.766 86.1737L30.813 86.0897C31.191 85.6457 31.233 85.2097 31.111 84.7747C30.983 84.3177 30.6719 83.8607 30.3229 83.4127L30.274 83.3007C30.242 83.1097 30.129 82.9167 29.954 82.7077C29.778 82.4977 29.566 82.3037 29.35 82.0907C29.146 81.8887 28.932 81.6627 28.809 81.4197C28.678 81.1587 28.644 80.8617 28.819 80.5577L29.0519 80.4327C29.5809 80.4647 30.008 80.3427 30.279 80.1027C30.541 79.8697 30.701 79.4897 30.624 78.9047L30.6219 78.8517C30.8219 76.4187 29.363 74.1737 27.977 72.1487C26.684 70.5017 25.891 68.5767 25.105 66.6957C24.318 64.8117 23.537 62.9727 22.274 61.4187C22.083 61.2947 21.9309 61.1797 21.8199 61.0697C21.7029 60.9527 21.611 60.8217 21.58 60.6747C21.564 60.5987 21.567 60.5267 21.582 60.4597C21.416 60.4267 21.254 60.3617 21.102 60.2587C20.868 60.0987 20.67 59.8577 20.509 59.5357C19.757 58.8237 18.9209 58.0917 18.2289 57.2727C17.5279 56.4407 16.953 55.4997 16.732 54.3497C16.633 54.0547 16.493 53.7567 16.342 53.4447C16.191 53.1327 16.0279 52.8037 15.9009 52.4727C15.6539 51.8257 15.527 51.1197 15.882 50.3857C15.831 49.9467 15.577 49.5437 15.28 49.0577C14.989 48.5817 14.668 48.0317 14.654 47.3707C14.563 46.9837 14.566 46.5927 14.602 46.2157C14.638 45.8407 14.7119 45.4427 14.7599 45.0887C14.8589 44.3547 14.869 43.7037 14.441 43.1107L14.4189 43.0727C13.9169 42.0407 13.615 40.9517 13.369 39.8617C13.12 38.7587 12.937 37.6857 12.665 36.6117L12.733 36.5407C12.727 36.5347 12.719 36.5297 12.713 36.5237C12.482 36.3047 12.3789 35.9917 12.4739 35.6247C12.4059 35.3707 12.425 35.1487 12.503 34.9477C12.583 34.7407 12.722 34.5687 12.84 34.4257C13.09 34.1227 13.2769 33.9067 13.2419 33.5397L13.305 33.4447C13.301 33.4397 13.296 33.4357 13.292 33.4317C13.102 33.2157 13.034 32.9187 13.092 32.5177C12.646 31.4317 11.906 30.5127 11.139 29.5537C10.37 28.5927 9.57696 27.5907 9.11896 26.3757C6.85696 22.0627 4.925 17.5827 1.758 13.9097L1.72894 13.8707C0.783943 12.2207 0.0139554 10.3647 0.316955 8.3527L0.365967 8.2367C0.605967 7.9247 0.873954 7.7237 1.16595 7.6237C1.45795 7.5237 1.75198 7.53269 2.03198 7.60169C2.51998 7.72269 2.99499 8.0397 3.40399 8.3397C3.68999 8.1607 3.98395 7.96171 4.29395 7.75471C4.64995 7.51771 5.02295 7.27671 5.41095 7.07771C6.18695 6.68071 7.04994 6.4347 7.97894 6.7277L8.10999 6.8227C9.10799 8.2657 10.85 8.89471 12.584 8.66471L12.616 8.6627C18.617 8.6507 24.62 8.70672 30.618 8.73472H30.629L30.775 8.74671C31.49 8.84171 31.9619 9.3657 32.3669 9.7797C32.7959 10.2187 33.169 10.5647 33.719 10.5877H33.831L33.8849 10.5917C34.8769 10.7707 35.906 10.7517 36.957 10.7187C37.999 10.6857 39.069 10.6387 40.103 10.7777L40.209 10.8177C40.93 11.2967 41.75 11.3127 42.663 11.2537C43.532 11.1977 44.506 11.0677 45.421 11.3197C49.439 10.5927 53.396 9.6857 57.416 8.9037L57.605 8.9437C57.872 9.1267 58.188 9.21971 58.546 9.27271C58.911 9.32571 59.286 9.3337 59.692 9.3617C60.479 9.4147 61.341 9.5437 61.917 10.3617L61.916 10.3727L61.944 10.3757C62.482 10.6667 62.917 10.9107 63.232 11.2377C63.307 11.3157 63.3719 11.3967 63.4319 11.4837C63.5859 11.4407 63.747 11.4437 63.894 11.4617C64.145 11.4937 64.44 11.5827 64.689 11.6437C65.235 11.7767 65.657 11.8067 65.962 11.4267L65.977 11.4087C66.271 11.1067 66.567 10.9517 66.876 10.9217C67.177 10.8927 67.4519 10.9867 67.6949 11.0997C67.8169 11.1567 67.939 11.2227 68.055 11.2847C68.172 11.3487 68.2859 11.4097 68.4009 11.4647C68.5729 11.5467 68.74 11.6097 68.91 11.6387L69.082 11.6547L69.183 11.6797C69.68 11.9157 70.092 11.8527 70.456 11.6367C70.837 11.4107 71.1719 11.0117 71.4659 10.5707L71.4869 10.5427C72.2049 9.7447 72.847 8.8627 73.527 7.9867C74.203 7.1157 74.911 6.25672 75.744 5.53572L75.774 5.51371C76.136 5.28571 76.533 5.18472 76.925 5.13572C77.311 5.08772 77.717 5.08771 78.081 5.07371C78.8 5.04771 79.3839 4.96671 79.7969 4.49671C79.7019 3.32771 80.246 2.3287 81.055 1.6067C81.886 0.864699 83.012 0.397707 84.077 0.314707L84.081 0.3137ZM94.082 48.9997L94.064 49.0137C94.072 49.0137 94.08 49.0157 94.088 49.0157C94.087 49.0097 94.086 49.0047 94.085 48.9987C94.084 48.9997 94.083 48.9997 94.082 48.9997ZM94.295 48.8507C94.268 48.8837 94.2359 48.9137 94.1979 48.9407L94.256 48.9297C94.272 48.9087 94.285 48.8897 94.29 48.8757C94.294 48.8667 94.294 48.8577 94.295 48.8507ZM13.739 33.7267C13.703 34.1947 13.4209 34.5057 13.2239 34.7437C13.1039 34.8897 13.016 35.0057 12.969 35.1277C12.926 35.2377 12.9119 35.3667 12.9709 35.5447V35.7017C12.8959 35.9257 12.954 36.0637 13.056 36.1607C13.176 36.2747 13.383 36.3537 13.618 36.3687C13.655 36.3717 13.692 36.3687 13.728 36.3677C13.958 36.3347 14.109 36.2447 14.205 36.1267C14.252 36.0697 14.29 35.9997 14.321 35.9177C14.319 35.9107 14.318 35.9027 14.316 35.8947L14.308 35.8467C14.293 35.6047 14.313 35.2977 14.325 35.0137C14.328 34.9537 14.327 34.8937 14.329 34.8347C14.325 34.8167 14.322 34.7977 14.318 34.7787L14.3199 34.6637C14.3259 34.6417 14.329 34.6197 14.334 34.5987C14.333 34.4557 14.327 34.3217 14.309 34.1987C14.296 34.1077 14.2759 34.0327 14.2549 33.9697C14.1849 33.9087 14.08 33.8597 13.921 33.7987C13.867 33.7777 13.805 33.7537 13.739 33.7267Z" fill="#F8CA6A" stroke="white" stroke-width="0.5" stroke-linejoin="round"/>
</svg>
