<svg width="117" height="92" viewBox="0 0 117 92" fill="none" xmlns="http://www.w3.org/2000/svg">
<path d="M21.409 0.287252C21.91 0.172252 22.423 0.326257 22.975 0.723257C25.159 1.48126 27.319 2.30325 29.402 3.35425L30.458 3.81925C32.761 4.81225 35.15 5.73926 37.362 6.94726L37.869 7.23125L37.965 7.32926C38.237 7.83126 38.52 8.27126 38.871 8.53626C39.201 8.78426 39.607 8.88825 40.179 8.68625L40.215 8.67626C40.647 8.59326 41.001 8.63926 41.223 8.88726C41.43 9.11726 41.451 9.44825 41.437 9.72725C41.424 10.0143 41.363 10.3513 41.328 10.6293C41.29 10.9293 41.279 11.1683 41.325 11.3333L41.328 11.4553C41.263 11.7473 41.289 11.9583 41.359 12.1193C41.43 12.2803 41.5551 12.4153 41.7321 12.5323C42.0071 12.7143 42.367 12.8323 42.747 12.9393L43.137 13.0443L43.1671 13.0553C43.5871 13.2293 43.9971 13.4283 44.4071 13.6223C44.8171 13.8163 45.217 14.0053 45.627 14.1643C46.437 14.4823 47.257 14.6743 48.127 14.5523L48.177 14.5503C50.307 14.6203 52.4671 14.6393 54.6071 14.8093C55.6971 13.6733 56.7071 12.4733 57.2871 11.0363L57.427 10.8933C58.067 10.6683 58.7171 10.5983 59.3571 10.5723C60.0071 10.5443 60.5971 10.5622 61.2271 10.5152L61.4771 10.6773C61.6071 11.0363 61.707 11.3443 61.747 11.6103C61.797 11.8773 61.797 12.1223 61.717 12.3453C61.557 12.7863 61.137 13.0433 60.547 13.2943C60.407 13.4103 60.337 13.4983 60.297 13.5593C60.287 13.5673 60.2871 13.5753 60.2871 13.5813C60.3271 13.6003 60.397 13.6182 60.507 13.6272C60.717 13.6472 60.987 13.6293 61.247 13.5833C61.517 13.5383 61.747 13.4703 61.867 13.4063L62.117 13.4173C62.607 13.7333 62.847 14.3323 63.027 14.8873C63.067 15.0303 63.1171 15.1763 63.1571 15.3193C63.1971 15.4623 63.2471 15.6033 63.2871 15.7403C63.3771 16.0133 63.467 16.2593 63.587 16.4643C63.717 16.6423 63.8071 16.8053 63.8571 16.9553C63.9071 17.1123 63.9171 17.2763 63.8471 17.4253V17.4373C63.8871 17.4653 63.9271 17.4973 63.9771 17.5343L64.047 17.6543C64.227 18.2973 64.597 18.8373 64.967 19.4403C65.307 19.9903 65.647 20.5863 65.747 21.3053C65.897 21.3573 66.0671 21.3912 66.2571 21.4192C66.4771 21.4542 66.737 21.4843 66.947 21.5393C67.147 21.5953 67.387 21.6943 67.517 21.9233C67.627 22.1203 67.627 22.3563 67.547 22.6173C68.157 23.3243 68.777 23.9393 69.667 24.0183C69.957 23.9673 70.267 24.0493 70.537 24.1773C70.827 24.3153 71.107 24.5233 71.317 24.7543C71.517 24.9763 71.687 25.2623 71.677 25.5543C71.677 25.7103 71.6171 25.8602 71.5071 25.9842C71.4071 26.0882 71.2771 26.1613 71.1171 26.2143C71.0671 26.2693 71.037 26.3162 71.027 26.3552C71.007 26.4012 71.007 26.4532 71.017 26.5192C71.047 26.6702 71.1271 26.8323 71.2471 27.0653C71.3471 27.2773 71.4771 27.5432 71.4771 27.8342C71.4871 28.1372 71.377 28.4362 71.087 28.7252C71.077 28.7362 71.067 28.7703 71.057 28.8433C71.047 28.9173 71.047 29.0142 71.067 29.1272C71.107 29.3542 71.187 29.6223 71.297 29.8663C71.417 30.1133 71.547 30.3123 71.667 30.4213C71.717 30.4723 71.757 30.4873 71.767 30.4923L72.0071 30.4502C72.3671 30.5772 72.607 30.7853 72.767 31.0413C72.927 31.2893 72.997 31.5713 73.057 31.8323C73.117 32.1073 73.1571 32.3493 73.2271 32.5863C73.2871 32.7583 73.357 32.9113 73.457 33.0433L73.567 33.1692L73.5971 33.2013C73.7871 33.4523 73.887 33.7373 73.957 34.0093C73.987 34.1453 74.017 34.2833 74.047 34.4133C74.067 34.5463 74.0971 34.6712 74.1271 34.7902C74.1871 35.0312 74.2571 35.2273 74.3771 35.3803C74.4871 35.5213 74.647 35.6383 74.917 35.7113C75.027 35.7003 75.127 35.6973 75.217 35.7023C75.157 35.5153 75.117 35.3122 75.087 35.1142C75.057 34.9742 75.047 34.8293 75.027 34.6883C75.007 34.5493 74.987 34.4123 74.967 34.2803C74.807 33.7233 74.6371 33.0022 74.6371 32.3202C74.6471 31.6832 74.8171 31.0353 75.3471 30.5983C75.2471 30.0863 75.387 29.4512 75.667 28.9882C75.837 28.7232 76.0571 28.4893 76.3471 28.3703C76.6071 28.2613 76.897 28.2553 77.197 28.3733L77.327 28.4322L77.457 28.5933C77.507 28.7663 77.6071 28.9363 77.7371 29.1243C77.8071 29.2183 77.877 29.3112 77.957 29.4112C78.037 29.5092 78.117 29.6132 78.187 29.7212C78.327 29.9372 78.4571 30.1863 78.5071 30.4773C78.5471 30.7643 78.497 31.0713 78.327 31.4043C78.267 31.6373 78.267 31.8782 78.307 32.1352C78.337 32.4082 78.407 32.6642 78.467 32.9582C78.577 33.5182 78.6371 34.1473 78.1371 34.7273V34.7283C77.7771 35.2233 77.4471 35.7443 77.1171 36.2713C77.1971 36.3683 77.2771 36.4693 77.3471 36.5553C77.4871 36.7353 77.6071 36.8642 77.7371 36.9332C77.8371 36.9902 77.977 37.0162 78.217 36.9162L78.547 37.2443C78.437 37.5063 78.4671 37.6182 78.4971 37.6662C78.5371 37.7292 78.6371 37.7962 78.8471 37.8462C79.0471 37.8952 79.297 37.9163 79.567 37.9353C79.817 37.9523 80.077 37.9682 80.307 38.0062C80.837 37.9402 81.1771 37.7433 81.6171 37.5723C81.9971 37.4183 82.4071 37.3123 82.9771 37.4253L83.2271 37.4882L83.2471 37.4932C83.7571 37.6812 84.217 37.6422 84.707 37.5802C85.197 37.5182 85.737 37.4302 86.337 37.5922C87.327 37.8302 88.2871 37.9012 89.2371 37.6522C89.2271 37.5872 89.2271 37.5242 89.2371 37.4632C89.2571 37.3842 89.2971 37.3103 89.3671 37.2533C89.4271 37.1993 89.497 37.1723 89.557 37.1603C89.677 37.1373 89.807 37.1523 89.907 37.1683C90.007 37.1853 90.1371 37.2142 90.2471 37.2352C90.4971 37.2812 90.6971 37.3032 90.8571 37.2562C90.9271 37.2352 90.987 37.2003 91.027 37.1463C91.077 37.0893 91.127 36.9972 91.157 36.8462L91.277 36.6792C91.687 36.4342 91.9771 36.0682 92.2471 35.6352C92.5071 35.2192 92.7771 34.7003 93.1071 34.2593L93.157 34.2172C94.207 33.3572 95.097 32.3342 96.027 31.3082L96.317 31.2463C96.457 31.3113 96.607 31.3023 96.767 31.2273C96.937 31.1483 97.127 31.0002 97.327 30.8082L97.947 30.1933C98.127 30.0123 98.337 29.8363 98.557 29.7153C98.767 29.3533 98.9571 29.1092 99.1371 28.9842C99.1671 28.9592 99.2071 28.9363 99.2571 28.9173L99.2271 28.8323C99.4371 28.4293 99.637 28.1362 99.807 27.9582C99.897 27.8702 99.9971 27.7932 100.117 27.7562C100.247 27.7162 100.377 27.7292 100.497 27.8072C100.597 27.8772 100.667 27.9823 100.707 28.0823C100.747 28.1863 100.787 28.3082 100.807 28.4412C100.847 28.7062 100.867 29.0493 100.847 29.4443L100.807 29.5803C100.737 29.6843 100.617 29.8922 100.477 30.1572C100.337 30.4102 100.167 30.7023 100.007 30.9383C99.9771 30.9743 99.947 31.0083 99.927 31.0423C100.017 31.0523 100.117 31.0642 100.217 31.0832C100.347 31.1112 100.497 31.1573 100.617 31.2463C100.747 31.3393 100.847 31.4743 100.897 31.6553C100.927 31.8103 100.917 31.9863 100.867 32.1803C100.997 32.7533 100.987 33.2983 100.747 33.6813L100.847 33.7602C100.997 34.6282 101.467 35.3922 102.087 36.0842C102.707 36.7732 103.457 37.3762 104.177 37.9332C104.657 38.1782 105.137 38.4643 105.607 38.7453C106.097 39.0323 106.577 39.3133 107.057 39.5503C108.037 40.0243 109.027 40.3063 110.097 40.0933L110.207 40.0953C110.987 40.2873 111.547 40.8093 112.017 41.3693C112.247 41.6473 112.477 41.9493 112.697 42.2273C112.857 42.4393 113.027 42.6413 113.197 42.8243L113.367 43.0003L113.397 43.0423C114.137 44.1673 115.257 44.9203 116.537 45.3563L116.707 45.5823C116.727 46.1923 116.437 46.7212 116.117 47.1822C115.957 47.4112 115.777 47.6462 115.627 47.8602C115.467 48.0802 115.317 48.2903 115.217 48.5003L115.197 48.5263C114.627 49.3863 113.807 50.0563 113.107 50.7193C112.397 51.3943 111.777 52.0772 111.477 52.9982L111.457 53.0473C111.337 53.2403 111.237 53.4813 111.117 53.7493C110.997 54.0103 110.867 54.2933 110.697 54.5343C110.537 54.7743 110.317 54.9982 110.037 55.1132C109.747 55.2312 109.407 55.2193 109.037 55.0643L109.007 55.0503C108.527 54.7773 108.107 54.8563 107.807 55.1043C107.537 55.3303 107.337 55.7122 107.317 56.1532V56.3693C107.247 57.9723 107.047 59.5203 107.487 61.0003L107.347 61.3032C106.527 61.6402 105.607 61.6622 104.807 61.7562C103.987 61.8532 103.247 62.0233 102.657 62.6023L102.617 62.6323C102.337 62.8133 102.157 63.0653 102.017 63.3703C101.867 63.6813 101.767 64.0232 101.647 64.3892C101.417 65.0912 101.107 65.8583 100.147 66.1363C99.767 66.3353 99.357 66.4003 98.957 66.4133C98.567 66.4273 98.147 66.3903 97.777 66.3773C97.027 66.3523 96.4271 66.4232 95.9971 67.0402L95.957 67.0832C95.747 67.2742 95.637 67.5202 95.567 67.8162C95.497 68.1222 95.487 68.4452 95.447 68.7992C95.417 69.1372 95.367 69.5033 95.207 69.8183C95.037 70.1363 94.767 70.3843 94.337 70.5263C93.607 71.0963 92.8271 70.9523 92.1271 70.7803C91.7671 70.6893 91.427 70.5923 91.087 70.5463C90.757 70.5023 90.447 70.5123 90.147 70.6273L90.1071 70.6392C89.2371 70.8112 88.397 71.0963 87.557 71.4103C86.717 71.7213 85.8671 72.0653 84.9971 72.3413V72.3382C84.0571 72.6632 83.0971 73.1793 82.3571 73.8743C81.6171 74.5703 81.117 75.4343 81.087 76.4643L81.027 76.6203C80.477 77.2513 79.7471 77.6743 78.9871 78.0163C78.6171 78.1873 78.2271 78.3413 77.8471 78.4913C77.4671 78.6413 77.0971 78.7873 76.7471 78.9463L76.717 78.9582C73.707 79.8492 70.647 80.5403 67.827 81.7973C67.567 82.0003 67.3371 82.2473 67.1071 82.5163C66.8671 82.7863 66.6271 83.0893 66.3671 83.3583C65.8571 83.9053 65.227 84.3813 64.297 84.3953L64.247 84.3923C62.917 84.1753 61.587 84.3623 60.487 85.1663L60.4771 85.1742C58.2071 86.6532 55.527 87.7372 52.717 87.4242L52.687 87.4163C51.987 87.2253 51.427 87.4322 50.897 87.8122C50.617 88.0042 50.3571 88.2373 50.0971 88.4823C49.8371 88.7233 49.5571 88.9803 49.2871 89.1993V89.1983C48.4071 89.9473 47.237 90.1913 46.237 90.2013C45.687 90.7443 44.947 91.0143 44.207 91.0683C43.417 91.1243 42.617 90.9492 41.957 90.5922L41.947 90.5863L42.077 90.3722L41.947 90.5853C41.344 90.2203 40.627 89.6963 40.164 89.0513C39.698 88.4023 39.476 87.6043 39.923 86.7413C40.127 86.0543 39.926 85.4502 39.614 84.7942C39.312 84.1592 38.8801 83.4433 38.7821 82.6473C38.5521 81.6453 38.192 80.6593 37.866 79.6363C37.542 78.6193 37.256 77.5762 37.205 76.5062L37.271 76.3252C37.624 75.9442 37.631 75.4762 37.583 74.9202C37.56 74.6562 37.5241 74.3583 37.5321 74.0843C37.5361 73.9523 37.55 73.8173 37.583 73.6853L37.44 73.6723C37.11 71.1343 35.307 69.0673 33.587 67.1533C31.742 66.0293 30.843 64.0583 30.099 62.2103V62.2092C29.997 61.9932 29.8971 61.7733 29.8001 61.5513L29.212 60.1863C29.112 59.9603 29.0101 59.7362 28.9041 59.5152C28.4821 58.6372 27.996 57.8293 27.324 57.1903C26.519 56.5623 25.574 56.1502 24.626 55.6312C23.692 55.1202 22.784 54.5132 22.181 53.5112V53.5102C21.994 53.2102 21.7791 52.9183 21.5581 52.6163C21.3401 52.3153 21.115 52.0043 20.921 51.6813C20.535 51.0403 20.255 50.3253 20.349 49.4703C20.177 48.4613 20.237 47.3833 20.197 46.4133C20.156 45.4093 20.011 44.4733 19.449 43.6373L19.44 43.6222C18.733 42.3882 18.1111 41.0823 17.3051 39.9223C16.5121 38.7823 15.565 37.8263 14.246 37.3003C13.554 37.2583 13.0291 36.9293 12.5941 36.5163C12.1621 36.1073 11.778 35.5713 11.428 35.1633L11.389 34.8993C11.928 33.6773 11.46 32.4392 10.659 31.3512L10.647 31.3332C9.72804 29.8352 8.59701 28.4883 7.47401 27.1023C6.35601 25.7223 5.249 24.3063 4.409 22.6943V22.6933C3.734 21.4403 2.77705 20.2192 1.67805 19.4192C1.27505 19.4672 0.957054 19.4593 0.722054 19.3743C0.589054 19.3263 0.474023 19.2523 0.390023 19.1453C0.306023 19.0383 0.266037 18.9143 0.254037 18.7893C0.231037 18.5543 0.308014 18.2893 0.406014 18.0383C0.504014 17.7873 0.640047 17.5103 0.777047 17.2323C1.04205 16.0973 1.33401 14.9952 1.50501 13.8642L1.76905 13.6523C2.58005 13.7083 3.41806 13.8753 4.21906 14.0093C5.00106 14.1403 5.75401 14.2383 6.46101 14.1983C7.51001 13.3773 8.53501 12.6332 9.19001 11.5302L9.34101 11.4153C10.195 11.1863 11.031 11.0293 11.819 10.7413C12.594 10.4573 13.28 10.0603 13.801 9.38126L13.888 9.31026C14.243 9.13326 14.4261 8.96326 14.5111 8.81626C14.5891 8.67926 14.599 8.53725 14.549 8.37125C14.496 8.19425 14.378 7.99725 14.207 7.77825C14.037 7.56025 13.829 7.33725 13.611 7.10425L13.601 7.09226C12.764 6.07626 11.886 5.10926 11.021 4.09826L11.121 3.70226C12.608 3.13126 14.1711 2.78926 15.7061 2.44726C17.2281 2.10726 18.7231 1.76525 20.1331 1.20325C20.5191 0.740252 20.929 0.396252 21.409 0.287252Z" fill="#FD9C9C" stroke="white" stroke-width="0.5" stroke-linejoin="round"/>
</svg>
