<svg width="95" height="155" viewBox="0 0 95 155" fill="none" xmlns="http://www.w3.org/2000/svg">
<path d="M22.882 143.03C23.035 142.972 23.202 142.988 23.367 143.041C23.521 143.091 23.6931 143.18 23.8851 143.306C24.0901 143.351 24.262 143.412 24.395 143.492C24.542 143.579 24.656 143.699 24.707 143.855C24.757 144.011 24.731 144.164 24.677 144.294C24.623 144.422 24.5381 144.543 24.4411 144.651C24.0951 145.041 23.487 145.414 23.103 145.618C23.204 145.698 23.319 145.743 23.448 145.767C23.676 145.81 23.935 145.79 24.241 145.77C24.529 145.752 24.863 145.734 25.171 145.821C25.487 145.911 25.764 146.108 25.961 146.477C26.645 147.295 27.4701 147.978 28.3461 148.626C29.2001 149.257 30.141 149.882 30.992 150.535C31.329 150.658 31.655 150.811 31.969 150.968C32.298 151.133 32.61 151.297 32.93 151.445C33.564 151.738 34.184 151.94 34.862 151.881L34.978 151.899C35.536 152.126 36.1361 152.194 36.7651 152.207C37.0801 152.213 37.3981 152.206 37.7211 152.197C38.0421 152.188 38.3691 152.179 38.6911 152.184L38.936 152.424C38.953 152.839 38.8261 153.152 38.5751 153.366C38.3381 153.567 38.022 153.651 37.72 153.691C37.415 153.732 37.078 153.733 36.783 153.739C36.476 153.745 36.2161 153.756 36.0191 153.804L35.956 153.811C35.573 153.806 35.1851 153.863 34.7861 153.942C34.4041 154.018 33.967 154.123 33.57 154.195C32.756 154.342 31.8981 154.391 31.0411 153.923C28.6021 153.146 25.962 153.302 23.369 153.391C22.984 153.513 22.639 153.506 22.421 153.244C22.321 153.124 22.274 152.975 22.251 152.834C22.228 152.691 22.2271 152.535 22.2351 152.381C22.2521 152.078 22.309 151.719 22.344 151.423C22.381 151.102 22.3911 150.854 22.3471 150.697L22.337 150.623C22.38 148.931 22.43 147.239 22.47 145.55L22.473 145.522C22.503 145.306 22.4891 145.016 22.4721 144.69C22.4551 144.379 22.434 144.034 22.462 143.753C22.476 143.611 22.5041 143.466 22.5621 143.341C22.6231 143.212 22.723 143.09 22.882 143.03ZM34.737 0.25C35.814 1.055 37.0551 1.54202 38.3771 1.28302L38.382 1.28201C39.207 1.13901 40.21 1.11302 41.083 1.37302C41.909 1.61902 42.6371 2.13 42.9591 3.048L43.018 3.23602L43.021 3.25L43.087 3.53101C43.153 3.79001 43.221 3.98701 43.289 4.12601C43.356 4.26301 43.404 4.30801 43.422 4.32101C43.437 4.31401 43.4901 4.286 43.5801 4.16C43.6971 3.995 43.8321 3.72602 43.9811 3.33902L44.035 3.255C44.181 3.103 44.3041 2.885 44.4291 2.621C44.5461 2.373 44.674 2.05999 44.809 1.80099C44.949 1.53599 45.122 1.27 45.367 1.09C45.618 0.906996 45.9251 0.829996 46.2951 0.895996C47.8711 0.943996 49.532 0.925014 51.121 1.32101L51.438 1.40701L51.57 1.49701C53.411 3.95401 55.515 6.26201 57.79 8.32101L58.0301 8.52402C59.1711 9.44302 60.533 9.95901 61.995 10.118L62.3091 10.147L62.3661 10.158C63.7091 10.58 64.858 11.363 65.972 12.133C67.025 12.862 68.0451 13.578 69.2021 14.029L69.435 14.116L69.464 14.128C70.159 14.473 70.89 14.712 71.641 14.99C72.383 15.265 73.135 15.576 73.826 16.06L73.93 16.299C73.731 17.694 72.825 18.958 72.131 20.062L72.091 20.111C71.684 20.495 71.4161 20.923 71.3221 21.362C71.2291 21.795 71.2991 22.26 71.6031 22.737L71.615 22.985C71.323 23.557 70.778 23.947 70.337 24.3C69.971 24.594 69.6641 24.869 69.4861 25.215C70.0241 25.213 70.5761 25.03 71.1941 24.85C71.8651 24.655 72.6071 24.473 73.3741 24.695L73.527 24.745L73.544 24.751C75.726 25.709 78.266 25.887 80.435 24.922L80.4421 24.919C80.7971 24.774 81.141 24.852 81.432 24.982C81.716 25.109 81.999 25.308 82.222 25.45C82.339 25.524 82.443 25.585 82.536 25.627C82.63 25.669 82.6991 25.685 82.7491 25.684C82.7901 25.684 82.826 25.673 82.865 25.638C82.911 25.599 82.971 25.519 83.032 25.368L83.0591 25.318C83.3881 24.85 83.8071 24.465 84.2441 24.117C84.4631 23.943 84.689 23.776 84.912 23.613C85.136 23.449 85.355 23.288 85.568 23.123C86.42 22.462 87.106 21.764 87.264 20.666L87.312 20.549C87.442 20.379 87.526 20.146 87.592 19.866C87.624 19.728 87.651 19.583 87.678 19.435C87.704 19.289 87.7311 19.137 87.7621 18.992C87.8221 18.707 87.907 18.405 88.078 18.175C88.258 17.934 88.521 17.788 88.881 17.782C89.12 17.751 89.3881 17.692 89.6921 17.635C89.9881 17.581 90.3091 17.532 90.6141 17.535C90.9181 17.538 91.232 17.593 91.495 17.77C91.758 17.947 91.941 18.226 92.031 18.614C92.551 19.657 93.1341 20.798 92.8091 22.111C92.7881 22.421 92.785 22.745 92.768 23.104C92.752 23.458 92.722 23.829 92.643 24.178C92.565 24.528 92.434 24.869 92.208 25.156C91.982 25.442 91.6711 25.663 91.2521 25.793C90.7351 26.032 90.204 26.251 89.682 26.468C89.152 26.689 88.6291 26.909 88.1241 27.154C87.1141 27.644 86.188 28.229 85.448 29.089L85.425 29.112C81.747 32.408 78.14 35.805 74.868 39.494C75.007 39.48 75.149 39.474 75.286 39.467C75.426 39.461 75.5611 39.454 75.6941 39.442C75.9611 39.418 76.2031 39.373 76.4181 39.271L76.472 39.253C76.702 39.202 76.935 39.129 77.187 39.056C77.433 38.985 77.6951 38.916 77.9551 38.888C78.2171 38.86 78.4891 38.871 78.7541 38.97C79.0131 39.067 79.2481 39.242 79.4551 39.509C80.6771 40.485 81.5201 41.838 82.3221 43.096C82.4731 43.102 82.6341 43.052 82.8171 42.955C82.9271 42.896 83.037 42.825 83.152 42.749C83.263 42.674 83.384 42.591 83.5 42.519C83.72 42.383 84.002 42.234 84.299 42.279C84.613 42.326 84.8461 42.57 85.0281 42.955C85.6241 43.818 86.1571 44.513 87.1501 44.583L87.206 44.593C89.428 45.273 91.348 46.707 92.664 48.61L92.919 48.998L92.9421 49.045C93.0151 49.245 93.148 49.412 93.324 49.572C93.507 49.738 93.705 49.872 93.924 50.042C94.13 50.202 94.3461 50.388 94.4911 50.63C94.6431 50.881 94.71 51.179 94.648 51.541L94.607 51.641C94.439 51.884 94.219 52.123 94.013 52.35C93.801 52.583 93.6001 52.807 93.4441 53.037C93.2891 53.265 93.192 53.482 93.17 53.696C93.149 53.901 93.1961 54.127 93.3711 54.386C93.6011 54.706 93.7231 55.018 93.7521 55.328C93.7811 55.637 93.716 55.924 93.6 56.19C93.378 56.704 92.9431 57.188 92.5981 57.629L92.597 57.628C91.152 59.65 88.6811 61.29 86.0801 61.09L85.9701 61.055C84.4241 60.117 82.527 60.5 80.933 61.345L80.821 61.375C79.982 61.39 79.378 60.895 78.85 60.446C78.3 59.977 77.8271 59.554 77.1921 59.466L77.122 59.446C76.023 58.943 74.8941 59.103 73.6941 59.395L73.6761 59.399C72.8861 59.527 72.373 59.05 71.962 58.62C71.746 58.394 71.56 58.182 71.35 58.005C71.206 57.883 71.061 57.788 70.907 57.727C70.814 57.929 70.675 58.124 70.474 58.306L70.466 58.313C70.202 58.535 70.1551 58.7 70.1631 58.816C70.1721 58.951 70.26 59.109 70.443 59.3C70.623 59.488 70.8591 59.671 71.1031 59.864C71.3261 60.039 71.562 60.231 71.729 60.425C72.019 60.667 72.379 60.848 72.781 61.007C73.199 61.173 73.608 61.298 74.053 61.463C74.9 61.776 75.763 62.197 76.141 63.154L76.157 63.259C76.139 63.567 76.028 63.845 75.898 64.092C75.833 64.217 75.7611 64.339 75.6921 64.455C75.6221 64.572 75.5551 64.682 75.4941 64.794C75.3711 65.017 75.2841 65.22 75.2591 65.422C75.2411 65.566 75.2531 65.719 75.3191 65.886L75.4051 66.058L75.4311 66.117C75.5811 66.643 75.961 66.945 76.459 67.199C76.712 67.328 76.9751 67.435 77.2521 67.558C77.4541 67.648 77.6591 67.746 77.8511 67.861L78.039 67.982L78.133 68.109C78.303 68.634 78.496 69.215 78.508 69.773C78.519 70.342 78.34 70.891 77.797 71.359C77.325 72.079 76.727 72.706 76.161 73.313C75.587 73.928 75.0461 74.526 74.6531 75.212C74.3861 76.266 73.6201 76.84 72.7651 77.223C72.3341 77.417 71.871 77.568 71.427 77.708C70.977 77.849 70.551 77.98 70.172 78.137L70.146 78.146C65.741 79.435 61.12 79.762 56.586 79.951L56.56 79.95C55.192 79.865 53.8311 79.688 52.4981 79.314C52.3561 79.655 52.29 80.074 52.336 80.469C52.389 80.928 52.589 81.32 52.952 81.541C53.317 81.659 53.563 81.86 53.639 82.162C53.709 82.447 53.6031 82.742 53.4761 82.988C53.3461 83.242 53.161 83.502 53 83.731C52.831 83.971 52.695 84.17 52.626 84.327L52.564 84.412C52.141 84.797 51.964 85.248 51.974 85.695C51.982 86.09 52.1371 86.501 52.4291 86.875L52.5621 87.032L52.5931 87.074C52.8071 87.437 52.854 87.776 52.723 88.078C52.599 88.362 52.341 88.557 52.078 88.699C51.811 88.843 51.497 88.954 51.215 89.049C50.922 89.148 50.67 89.227 50.488 89.313L50.474 89.319C48.148 90.238 45.452 90.153 43.175 89.113C42.564 89.018 41.944 88.774 41.387 88.6C40.821 88.424 40.296 88.313 39.781 88.401C39.588 88.579 39.488 88.773 39.449 88.974C39.406 89.198 39.434 89.448 39.516 89.715C39.683 90.257 40.0541 90.811 40.3731 91.258L40.401 91.31C40.538 91.648 40.514 91.989 40.443 92.299C40.375 92.6 40.249 92.916 40.164 93.173C40.072 93.45 40.0201 93.676 40.0411 93.871C40.0601 94.045 40.1411 94.217 40.3811 94.384L40.406 94.405C41.209 95.137 42.262 95.56 43.279 95.352C43.359 95.304 43.3951 95.264 43.4111 95.237C43.4271 95.209 43.435 95.177 43.432 95.132C43.428 95.083 43.411 95.024 43.383 94.947C43.362 94.89 43.314 94.773 43.289 94.7C43.261 94.616 43.228 94.499 43.244 94.377C43.262 94.235 43.3411 94.114 43.4711 94.032C43.5871 93.958 43.74 93.917 43.918 93.893C44.086 93.871 44.298 93.865 44.559 93.87C44.917 93.696 45.233 93.633 45.508 93.712C45.805 93.796 45.984 94.025 46.098 94.268C46.21 94.509 46.275 94.801 46.326 95.078C46.378 95.358 46.4161 95.618 46.4711 95.858C46.6301 96.177 46.672 96.474 46.582 96.74C46.49 97.011 46.28 97.198 46.052 97.325C45.602 97.574 44.9721 97.657 44.5401 97.684L44.331 97.593C43.972 97.159 43.663 96.853 43.307 96.693C42.963 96.538 42.542 96.505 41.932 96.691L41.862 96.702C41.705 96.703 41.426 96.74 41.113 96.805C40.803 96.871 40.4781 96.961 40.2311 97.064C40.1071 97.116 40.013 97.166 39.951 97.212C39.945 97.216 39.939 97.221 39.934 97.225C39.989 97.262 40.0841 97.31 40.2431 97.363C40.6411 97.419 41.281 97.505 41.845 97.622C42.131 97.681 42.408 97.751 42.628 97.832C42.737 97.872 42.8411 97.918 42.9281 97.972C43.0091 98.023 43.104 98.1 43.155 98.212L43.0541 98.532C42.6781 98.75 42.2771 98.918 41.8811 99.068C41.4761 99.221 41.094 99.35 40.712 99.506C39.959 99.811 39.3051 100.18 38.8601 100.855C38.7241 101.069 38.693 101.324 38.724 101.631C38.755 101.949 38.845 102.27 38.922 102.635C38.995 102.982 39.0551 103.363 38.9801 103.723C38.9031 104.097 38.6861 104.423 38.2651 104.674V104.675C37.7911 105.002 37.4321 105.399 37.3381 105.748C37.2941 105.91 37.3091 106.056 37.3901 106.192C37.4741 106.335 37.649 106.495 37.978 106.642L37.935 107.113C37.353 107.257 36.753 107.335 36.16 107.397C35.561 107.46 34.977 107.505 34.397 107.584C33.244 107.739 32.172 108.018 31.262 108.774L31.253 108.782L31.2521 108.781C30.0791 109.669 28.935 110.861 28.615 112.24C28.582 113.312 29.107 114.163 29.887 114.877C30.479 115.419 31.206 115.869 31.917 116.263L32.6181 116.639L32.6271 116.645C33.1651 116.959 33.812 117.038 34.512 117.122C35.103 117.193 35.7411 117.268 36.2911 117.543L36.521 117.673L36.616 117.786C36.837 118.307 36.802 118.886 36.677 119.423C36.55 119.962 36.324 120.491 36.13 120.926L36.116 120.953C35.571 121.863 34.715 122.371 33.841 122.781C32.946 123.2 32.063 123.507 31.32 124.022L31.285 124.043C29.809 124.745 28.281 125.709 27.746 127.198C27.698 127.405 27.695 127.625 27.711 127.864C27.719 127.986 27.731 128.108 27.744 128.236C27.756 128.362 27.769 128.493 27.776 128.624C27.805 129.153 27.747 129.726 27.214 130.216C26.579 130.879 25.758 131.24 24.93 131.511C24.514 131.647 24.0841 131.764 23.6741 131.882C23.2621 132.002 22.865 132.124 22.494 132.273C21.829 132.584 21.4071 133.191 21.1651 133.923C20.9231 134.657 20.87 135.494 20.93 136.211C21.086 137.264 21.6 138.152 22.245 139.004C22.569 139.431 22.921 139.843 23.275 140.264C23.54 140.578 23.8041 140.897 24.0541 141.224L24.298 141.554L24.337 141.637C24.346 141.675 24.3561 141.734 24.3431 141.798C24.3271 141.876 24.2791 141.949 24.2001 141.992C24.1351 142.027 24.071 142.025 24.0411 142.027C23.819 142.041 24.1786 142.027 23.833 142.027C22.514 141.798 21.207 141.4 19.934 141.089C18.65 140.776 17.376 140.546 16.06 140.625L16.02 140.624C14.764 140.494 13.503 140.498 12.229 140.517C10.96 140.536 9.67503 140.57 8.39103 140.493L8.27604 140.457C7.76304 140.142 7.22806 139.796 6.85606 139.342C6.48106 138.885 6.27403 138.323 6.38203 137.594C6.24303 136.955 6.25904 136.237 6.21904 135.622C6.17904 135.016 6.08206 134.479 5.78706 134.036C5.22006 134.078 4.66405 134.269 4.06605 134.459C3.43805 134.658 2.76303 134.852 2.06303 134.778L1.86503 134.639C0.960032 132.776 0.0900355 130.675 0.275035 128.499L0.333049 128.359C1.01705 127.549 1.97705 127.057 2.86705 126.589C3.75405 126.122 4.57304 125.676 5.13804 124.974C5.16304 124.723 5.22505 124.471 5.29805 124.228C5.37405 123.973 5.48003 123.671 5.55503 123.432C5.71203 122.928 5.78905 122.511 5.67005 122.163C5.16105 121.721 4.98504 121.127 5.03804 120.547C5.09204 119.952 5.38405 119.367 5.79805 118.942L5.86503 118.893C6.11603 118.768 6.38503 118.663 6.63203 118.562C6.88403 118.46 7.11804 118.36 7.32804 118.238C7.73704 118.001 8.04205 117.69 8.14805 117.128L8.16304 117.079C8.68404 115.81 8.63005 114.485 8.30705 113.132L8.30305 113.043C8.33605 112.786 8.33805 112.513 8.34105 112.222C8.34305 111.938 8.34404 111.635 8.37904 111.343C8.44904 110.75 8.66304 110.165 9.31904 109.778L9.32603 109.774L9.53303 109.646C9.71403 109.519 9.81903 109.394 9.87403 109.284C9.94303 109.145 9.94304 109.008 9.88804 108.866C9.76704 108.559 9.37403 108.232 8.83503 108.035C8.43903 107.903 8.12605 107.756 7.91105 107.602C7.80305 107.525 7.70905 107.438 7.64305 107.341C7.57705 107.244 7.53005 107.124 7.54405 106.99C7.57305 106.716 7.82304 106.566 8.05104 106.488C8.29904 106.403 8.64204 106.357 9.06804 106.351C9.55604 106.337 10.164 106.351 10.677 106.226C10.929 106.165 11.135 106.074 11.28 105.948C11.391 105.852 11.471 105.729 11.513 105.563C11.339 105.454 11.1281 105.383 10.8861 105.331C10.7371 105.299 10.583 105.274 10.422 105.25C10.263 105.226 10.0951 105.202 9.93306 105.172C9.61306 105.111 9.27704 105.02 9.00004 104.819C8.71804 104.614 8.52005 104.311 8.43605 103.874C8.12905 103.064 8.27805 102.218 8.41505 101.444C8.55205 100.669 8.67705 99.959 8.48005 99.28C8.34805 99.196 8.18706 99.117 8.00206 99.027C7.79306 98.925 7.55705 98.808 7.35405 98.653C7.14805 98.495 6.96303 98.288 6.86903 98.004C6.78103 97.736 6.78204 97.425 6.88304 97.062C6.73004 96.477 6.75605 95.866 6.98805 95.348C7.22705 94.815 7.67803 94.396 8.33503 94.215C8.51003 94.115 8.58904 93.988 8.62004 93.833C8.65504 93.658 8.63104 93.438 8.56504 93.174C8.50004 92.912 8.40203 92.641 8.30903 92.358C8.22003 92.086 8.13303 91.799 8.11103 91.54L8.11006 91.517C8.11306 91.052 8.06504 90.568 8.01304 90.067C7.96004 89.571 7.90303 89.057 7.89103 88.551C7.86503 87.555 8.01303 86.55 8.74003 85.678C8.95803 84.73 9.14404 83.765 9.34004 82.796C9.53904 81.809 9.74904 80.822 10.017 79.865L10.061 79.778C10.242 79.548 10.487 79.373 10.738 79.229C10.988 79.086 11.266 78.961 11.513 78.843C11.767 78.722 11.991 78.608 12.168 78.478C12.305 78.378 12.4 78.276 12.458 78.169C10.968 75.451 10.7611 72.131 11.5191 69.209L11.551 69.137C11.99 68.449 12.677 67.958 13.289 67.499C13.909 67.034 14.4551 66.598 14.7611 66.012C14.8121 65.703 14.785 65.376 14.719 65.027C14.648 64.65 14.546 64.305 14.458 63.906C14.292 63.155 14.2051 62.332 14.8121 61.599C15.2101 60.747 15.773 59.947 16.255 59.172C16.744 58.383 17.161 57.603 17.326 56.738C17.227 55.43 16.924 54.15 16.556 52.869C16.188 51.59 15.7461 50.277 15.4031 48.981L15.4 48.971C15.272 48.389 15.0051 47.827 14.7431 47.227C14.4871 46.641 14.237 46.019 14.195 45.366L14.199 45.302C14.355 44.486 14.488 43.575 14.727 42.718C14.968 41.856 15.3231 41.018 15.9421 40.331L16.074 40.254C16.643 40.127 16.9321 39.827 17.0661 39.453C17.2071 39.059 17.187 38.552 17.057 38.017L17.051 37.972C17.03 37.611 16.976 37.243 16.919 36.862C16.863 36.485 16.804 36.094 16.779 35.707C16.731 34.939 16.815 34.154 17.335 33.43C18.044 31.67 18.888 29.908 20.324 28.549C20.975 27.462 21.5281 26.332 21.9411 25.139L22.1051 24.982C22.3801 24.899 22.708 24.881 23.012 24.871C23.329 24.86 23.6261 24.858 23.8901 24.819C24.1551 24.78 24.3351 24.71 24.4411 24.603C24.5281 24.516 24.597 24.371 24.578 24.091C24.272 23.783 23.832 23.383 23.551 22.942C23.396 22.699 23.275 22.426 23.246 22.126C23.217 21.821 23.283 21.505 23.474 21.186L23.518 21.131C23.941 20.738 24.055 20.367 24.012 20.017C23.965 19.647 23.7371 19.252 23.3721 18.839L23.3291 18.768C22.8001 17.479 23.244 16.205 23.978 15.193C23.784 14.729 23.589 14.152 23.608 13.631C23.619 13.339 23.697 13.047 23.895 12.806C24.088 12.572 24.374 12.411 24.753 12.331C25.513 11.891 26.4041 11.629 27.2001 11.339C28.0101 11.045 28.738 10.715 29.279 10.148C29.393 9.81601 29.52 9.48801 29.646 9.16501C29.78 8.82101 29.914 8.48301 30.035 8.14301C30.259 7.51701 30.434 6.89401 30.491 6.24701C30.174 6.09501 29.9461 5.92702 29.8251 5.71802C29.6691 5.44702 29.722 5.17401 29.848 4.94601C29.967 4.72901 30.167 4.51902 30.367 4.32602C30.58 4.12002 30.792 3.936 30.995 3.728L30.996 3.72601C32.124 2.59401 33.222 1.36602 34.418 0.266022L34.737 0.25Z" fill="#718FD5" stroke="white" stroke-width="0.5" stroke-linejoin="round"/>
</svg>
