<svg width="137" height="82" viewBox="0 0 137 82" fill="none" xmlns="http://www.w3.org/2000/svg">
<path d="M43.289 0.282165C44.223 0.149165 45.244 0.424162 45.919 1.16116C46.283 1.45216 46.465 1.80218 46.424 2.17618C46.384 2.53818 46.142 2.85017 45.826 3.08917L45.571 3.11618C45.531 3.09818 45.49 3.08318 45.447 3.06918C45.386 3.11218 45.314 3.15317 45.238 3.18417C45.139 3.22417 45.018 3.26416 44.881 3.29916C44.614 3.36716 44.275 3.42018 43.895 3.43518C43.377 3.58318 42.835 3.79117 42.522 4.08517C42.37 4.22817 42.289 4.37815 42.274 4.53915C42.262 4.68115 42.3 4.86617 42.443 5.10217L42.512 5.20618L42.544 5.27017C42.721 5.80317 42.945 6.17316 43.16 6.60516C43.374 7.03516 43.559 7.49618 43.612 8.15518L43.604 8.24417C43.435 8.83417 43.075 9.30717 42.765 9.74017C42.445 10.1852 42.169 10.5982 42.069 11.1122L42.022 11.2162C41.725 11.6082 41.677 12.0282 41.794 12.4192C41.898 12.7672 42.137 13.1012 42.466 13.3592L42.612 13.4662L42.703 13.5752C42.799 13.7992 42.895 14.0922 42.993 14.3632C43.095 14.6452 43.205 14.9182 43.338 15.1442C43.472 15.3712 43.615 15.5242 43.77 15.5982C43.912 15.6652 44.1 15.6822 44.373 15.5622C44.792 15.3612 45.272 15.1642 45.649 14.8812C46.019 14.6042 46.235 14.2842 46.191 13.8492V13.8072C46.237 13.0922 45.99 12.4442 45.627 11.7952C45.445 11.4702 45.238 11.1532 45.029 10.8272C44.826 10.5102 44.62 10.1862 44.443 9.85416C44.071 9.31616 43.864 8.93517 43.816 8.56317C43.771 8.21017 43.876 7.89616 44.021 7.52316C44.001 7.42116 44.017 7.31816 44.065 7.22516C44.126 7.11016 44.228 7.02316 44.325 6.95816C44.522 6.82716 44.805 6.71716 45.092 6.62216C45.383 6.52516 45.709 6.43416 45.995 6.35016C46.289 6.26316 46.538 6.18318 46.702 6.10718L46.713 6.10318C47.326 5.85418 48.025 5.70518 48.662 5.54718C49.295 5.38918 49.872 5.21917 50.332 4.93817C50.406 4.83517 50.505 4.76018 50.605 4.70618C50.728 4.64018 50.869 4.59317 51.006 4.55817C51.144 4.52117 51.291 4.49418 51.427 4.46918C51.566 4.44318 51.693 4.42218 51.807 4.39618C51.919 4.37118 52.002 4.34516 52.056 4.32016C52.054 4.31816 52.053 4.31318 52.051 4.31018C52.004 4.24518 51.909 4.14817 51.74 4.01617L51.719 3.99716C51.622 3.90116 51.481 3.85116 51.271 3.82516C51.168 3.81316 51.057 3.80815 50.937 3.80215C50.819 3.79615 50.69 3.79018 50.563 3.77518C50.313 3.74718 50.032 3.68116 49.803 3.48016C49.569 3.27616 49.426 2.96417 49.379 2.52417V2.47717C49.406 2.16017 49.582 1.88415 49.802 1.67715C50.023 1.46915 50.308 1.31015 50.597 1.23315C50.881 1.15715 51.203 1.15418 51.471 1.30118C51.728 1.44218 51.888 1.69917 51.934 2.04617C52.321 2.43317 52.408 2.94518 52.495 3.34918C52.588 3.77818 52.683 4.11117 52.99 4.34717C53.806 4.38717 54.71 4.42417 55.576 4.58917C56.471 4.75917 57.347 5.07018 58.067 5.68118C58.602 6.11318 58.805 6.71417 58.973 7.23917C59.147 7.78317 59.284 8.23616 59.629 8.55716L59.727 8.63415C60.223 8.99215 60.818 8.99616 61.51 8.89316C61.692 8.86516 61.878 8.83117 62.067 8.79617C62.256 8.76117 62.45 8.72516 62.643 8.69516C63.02 8.63616 63.412 8.59717 63.794 8.63617C64.217 8.63417 64.655 8.59418 65.105 8.54318C65.554 8.49218 66.022 8.43116 66.482 8.39416C67.405 8.32216 68.352 8.34516 69.226 8.76816L69.321 8.84918C70 9.80718 71.011 10.3582 72.146 10.6302C73.271 10.8992 74.506 10.8902 75.621 10.7422C76.013 10.5562 76.386 10.2932 76.764 9.99716C77.142 9.70116 77.543 9.35715 77.941 9.06515C78.744 8.47815 79.652 8.01318 80.803 8.26718C81.336 8.25318 81.879 8.20816 82.431 8.15616C82.988 8.10416 83.559 8.04618 84.125 8.01218C85.259 7.94318 86.41 7.96917 87.516 8.33917L87.665 8.67715C87.481 9.09215 87.184 9.31917 86.833 9.42517C86.499 9.52517 86.125 9.51217 85.782 9.48117C85.42 9.45017 85.099 9.40118 84.792 9.40018C84.533 9.40018 84.33 9.43718 84.178 9.52518C84.167 9.59518 84.171 9.65017 84.181 9.69217C84.194 9.75017 84.224 9.80316 84.272 9.85416C84.38 9.96916 84.565 10.0642 84.822 10.1712C85.061 10.2702 85.364 10.3802 85.621 10.5232C85.866 10.6602 86.104 10.8482 86.244 11.1292C86.481 11.3252 86.641 11.5922 86.756 11.8332C86.818 11.9642 86.87 12.0942 86.914 12.2082C86.936 12.2642 86.958 12.3142 86.976 12.3592C87.027 12.2392 87.089 12.0742 87.161 11.8542L87.296 11.7052C87.552 11.5902 87.823 11.5792 88.084 11.6132C88.104 11.6162 88.125 11.6212 88.146 11.6242C88.111 11.5952 88.078 11.5602 88.055 11.5142C87.989 11.3852 88.019 11.2572 88.063 11.1702C88.106 11.0862 88.174 11.0102 88.246 10.9432C88.393 10.8082 88.62 10.6532 88.915 10.4792L89.115 10.4562C89.365 10.5342 89.445 10.4872 89.466 10.4702C89.499 10.4422 89.541 10.3642 89.552 10.1812C89.561 10.0072 89.54 9.79818 89.51 9.58118C89.49 9.43818 89.469 9.28318 89.453 9.14618C89.312 9.09018 89.195 9.03716 89.105 8.97916C88.997 8.91016 88.869 8.80416 88.838 8.64416C88.801 8.45316 88.922 8.32018 89.01 8.25418C89.1 8.18618 89.217 8.13817 89.331 8.10217C89.773 7.95917 90.495 7.89815 90.911 7.89715C91.335 7.78915 91.867 7.61515 92.396 7.69015L92.524 8.12717C92.157 8.44417 92.059 8.80416 92.063 9.22116C92.066 9.43516 92.096 9.66118 92.132 9.90518C92.167 10.1442 92.21 10.4042 92.23 10.6622V10.6962C92.211 11.0472 92.057 11.3082 91.816 11.4832C91.588 11.6502 91.297 11.7292 91.013 11.7662C90.46 11.8382 89.797 11.7632 89.409 11.7472C89.151 11.7702 88.928 11.7802 88.744 11.7762C88.786 11.7892 88.827 11.8012 88.868 11.8142C89.336 11.9692 89.771 12.1302 90.187 12.1562L90.364 12.1592L90.5851 12.2752C90.9221 12.8102 91.465 13.0932 92.105 13.3632C92.725 13.6252 93.458 13.8802 94.022 14.3792L93.9601 14.7952C92.9011 15.2732 92.341 16.0502 92.118 17.1412L92.104 17.1882C92.04 17.3372 91.922 17.4532 91.8 17.5432C91.675 17.6352 91.525 17.7162 91.37 17.7872C91.061 17.9292 90.695 18.0492 90.396 18.1482C90.363 18.1592 90.331 18.1702 90.301 18.1812C91.326 18.3592 92.296 18.4812 93.175 18.0482L93.271 18.0222C94.121 17.9722 95.0651 17.9482 95.9731 18.0602C96.8801 18.1712 97.769 18.4212 98.5 18.9322L98.507 18.9402C98.52 18.9412 98.532 18.9412 98.543 18.9422C98.648 18.9572 98.758 19.0032 98.857 19.0542C99.062 19.1572 99.313 19.3262 99.567 19.5032C99.828 19.6852 100.095 19.8772 100.35 20.0472C100.542 20.1752 100.715 20.2812 100.857 20.3522L100.989 20.4122L101.04 20.4382C101.816 20.9642 102.775 21.5972 103.475 22.3812C104.174 23.1642 104.638 24.1272 104.397 25.3092C104.417 25.6992 104.448 26.4922 104.541 26.9832C104.562 26.9262 104.588 26.8612 104.612 26.7842L104.618 26.7672C104.761 26.4112 104.994 26.1872 105.292 26.0942C105.576 26.0052 105.883 26.0472 106.161 26.1362C106.708 26.3092 107.261 26.6992 107.596 26.9602C109.016 27.7962 110.549 29.0342 111.16 30.6682C111.287 30.4842 111.452 30.3172 111.668 30.1772L111.75 30.1432C112.639 29.9482 113.463 30.2362 114.22 30.5242C114.917 30.7902 115.556 31.0522 116.222 31.0722C116.241 30.7592 116.343 30.5122 116.536 30.3362C116.77 30.1232 117.089 30.0642 117.384 30.0532C117.682 30.0422 118.014 30.0792 118.308 30.1062C118.614 30.1352 118.878 30.1522 119.086 30.1192L119.099 30.1172V30.1182C121.328 29.8852 123.571 30.2202 125.592 31.2062L125.993 31.4122L126.078 31.5162L126.169 31.4882C126.644 31.6552 127.13 31.8012 127.624 31.9502C128.116 32.0992 128.614 32.2522 129.101 32.4312C130.072 32.7872 131.014 33.2522 131.814 34.0192H131.815C132.188 34.3532 132.575 34.6772 132.966 35.0052C133.356 35.3322 133.749 35.6642 134.129 36.0102C134.86 36.6742 135.55 37.3972 136.09 38.2602L136.38 38.3032L136.589 38.5122C136.714 39.3382 136.355 40.0152 135.935 40.6062C135.728 40.8972 135.485 41.1952 135.279 41.4692C135.066 41.7512 134.878 42.0262 134.743 42.3092L134.712 42.3582C133.985 43.2542 133.549 44.3452 133.046 45.4542C132.549 46.5472 131.989 47.6492 131.009 48.4622L130.932 48.5062C130.245 48.7462 129.562 48.6202 128.932 48.4162C128.616 48.3142 128.302 48.1872 128.003 48.0712C127.734 47.9672 127.475 47.8712 127.224 47.7982C127.058 47.8912 126.881 48.0262 126.685 48.1852C126.465 48.3612 126.221 48.5662 125.974 48.7202C125.727 48.8732 125.441 49.0002 125.133 48.9842C124.831 48.9692 124.554 48.8202 124.303 48.5342C123.916 48.3902 123.65 48.1912 123.521 47.9182C123.479 47.8302 123.455 47.7392 123.443 47.6492C122.961 47.7702 122.423 47.5412 121.864 47.1012L121.855 47.0932L122.02 46.9042L121.855 47.0922C121.632 46.8962 121.437 46.8282 121.263 46.8202C121.082 46.8122 120.893 46.8672 120.682 46.9682C120.465 47.0712 120.257 47.2052 120.017 47.3462C119.787 47.4802 119.533 47.6162 119.264 47.6882L119.265 47.6892C118.936 47.7832 118.588 47.7282 118.274 47.6452C118.115 47.6032 117.954 47.5512 117.802 47.5012C117.647 47.4502 117.5 47.4002 117.357 47.3592C117.065 47.2752 116.832 47.2402 116.648 47.2822C116.487 47.3192 116.329 47.4232 116.198 47.7132L116.143 47.7922C116.094 47.8382 116.075 47.8832 116.071 47.9352C116.067 47.9942 116.081 48.0752 116.124 48.1812C116.213 48.3982 116.39 48.6442 116.586 48.9002C116.68 49.0232 116.779 49.1502 116.862 49.2672C116.944 49.3822 117.023 49.5032 117.073 49.6172C117.118 49.7202 117.171 49.8872 117.093 50.0482C117.009 50.2212 116.831 50.2802 116.686 50.2992L116.64 50.3012C115.947 50.2662 115.282 50.0842 114.648 49.9162C114.006 49.7452 113.393 49.5882 112.765 49.5712L112.685 49.4722C112.609 49.5092 112.531 49.5372 112.451 49.5552C112.176 49.6162 111.855 49.5902 111.569 49.5662C111.267 49.5412 110.988 49.5152 110.735 49.5452C110.491 49.5742 110.298 49.6532 110.154 49.8192L110.072 49.8812C109.173 50.3072 108.182 50.6212 107.298 50.9802C106.396 51.3472 105.556 51.7762 104.853 52.4582L104.831 52.4772C103.749 53.3172 102.32 52.9592 101.424 52.1182L101.417 52.1112C101.179 51.8702 100.875 51.6452 100.545 51.4052C100.221 51.1702 99.87 50.9212 99.565 50.6472C99.26 50.3732 98.984 50.0582 98.819 49.6802C98.652 49.2952 98.604 48.8592 98.729 48.3602L98.734 48.3472C98.814 48.0952 98.778 47.8612 98.672 47.6142C98.561 47.3582 98.382 47.1092 98.186 46.8252C97.819 46.2972 97.373 45.6342 97.703 44.8192C98.032 43.0202 98.775 41.3332 99.508 39.7072C99.399 39.4832 99.305 39.2452 99.216 39.0232C99.109 38.7592 99.007 38.5132 98.882 38.3032C98.758 38.0932 98.619 37.9312 98.45 37.8232C98.285 37.7182 98.073 37.6532 97.779 37.6652C97.594 37.6852 97.422 37.6782 97.282 37.6172C97.117 37.5452 97.021 37.4092 96.996 37.2472C96.975 37.1072 97.009 36.9612 97.051 36.8362C97.095 36.7062 97.159 36.5672 97.229 36.4312C97.375 36.1412 97.5341 35.8722 97.6581 35.5972C97.7181 35.4642 97.762 35.3452 97.786 35.2432C97.805 35.1622 97.806 35.1022 97.801 35.0592C97.611 34.7912 97.206 34.5772 96.729 34.5132C96.232 34.4462 95.747 34.5522 95.457 34.8282C95.398 34.8862 95.323 34.9302 95.272 34.9592C95.36 35.2142 95.348 35.4582 95.25 35.6842C95.133 35.9522 94.907 36.1672 94.67 36.3412C94.43 36.5172 94.15 36.6702 93.897 36.8052C93.637 36.9442 93.412 37.0592 93.249 37.1702L93.2231 37.1862C92.1651 37.7292 91.036 38.3892 89.868 38.8482C88.707 39.3042 87.474 39.5762 86.167 39.3592C86.046 39.3842 85.96 39.4302 85.897 39.4832C85.828 39.5432 85.772 39.6252 85.727 39.7332C85.631 39.9622 85.602 40.2572 85.563 40.6032C85.528 40.9252 85.484 41.3022 85.327 41.6002C85.245 41.7552 85.129 41.8962 84.964 41.9992C84.799 42.1012 84.6 42.1562 84.368 42.1652L84.181 42.0912C83.709 41.6122 83.269 41.1052 82.761 40.7562C82.269 40.4182 81.743 40.2512 81.105 40.4382L81.092 40.4422C80.192 40.6522 79.393 40.4612 78.652 40.1572C78.284 40.0062 77.923 39.8252 77.573 39.6492C77.257 39.4912 76.948 39.3372 76.636 39.2052C76.586 39.2382 76.562 39.2652 76.552 39.2822C76.542 39.2992 76.537 39.3162 76.545 39.3522C76.555 39.3962 76.586 39.4592 76.648 39.5452C76.71 39.6292 76.794 39.7212 76.893 39.8212C76.991 39.9222 77.099 40.0252 77.213 40.1352C77.325 40.2422 77.442 40.3562 77.548 40.4712C77.737 40.6752 77.928 40.9212 77.993 41.1882C78.564 42.0492 78.768 43.0432 78.92 44.0032C79.073 44.9692 79.176 45.8892 79.512 46.7092C79.672 46.8062 79.885 46.8572 80.152 46.8812C80.46 46.9082 80.769 46.8952 81.124 46.9072C81.459 46.9192 81.818 46.9532 82.133 47.0862C82.46 47.2242 82.733 47.4672 82.895 47.8692L82.866 48.1082C82.445 48.6962 81.845 48.9972 81.245 49.2032C80.946 49.3062 80.637 49.3882 80.347 49.4682C80.073 49.5432 79.815 49.6182 79.577 49.7082C79.442 49.8572 79.333 50.0492 79.229 50.2752C79.172 50.3972 79.119 50.5232 79.063 50.6542C79.008 50.7832 78.95 50.9162 78.886 51.0452C78.758 51.3012 78.595 51.5592 78.354 51.7502C78.114 51.9402 77.814 52.0492 77.432 52.0522C76.483 52.2712 75.681 52.7872 74.948 53.4412C74.208 54.1032 73.555 54.8892 72.896 55.6412L72.814 55.7022C72.623 55.7922 72.43 55.8272 72.248 55.7692C72.066 55.7102 71.948 55.5752 71.871 55.4362C71.795 55.3002 71.747 55.1382 71.713 54.9822C71.678 54.8252 71.653 54.6572 71.631 54.5042C71.608 54.3462 71.589 54.2062 71.563 54.0872C71.546 54.0072 71.528 53.9522 71.513 53.9152L71.504 53.9212C71.466 53.9482 71.416 53.9922 71.355 54.0582C70.989 54.4872 70.507 54.9402 69.961 55.1722C69.682 55.2902 69.38 55.3542 69.066 55.3222C68.751 55.2902 68.439 55.1612 68.142 54.9202L68.109 54.8902C67.758 54.4812 67.271 54.2402 66.751 53.9912C66.254 53.7532 65.699 53.4982 65.356 53.0442L65.323 52.9832C64.983 52.1032 64.871 51.1042 64.684 50.2332C64.573 49.7202 64.432 49.2372 64.211 48.7972C63.854 48.9772 63.504 49.1992 63.149 49.4362C62.75 49.7022 62.338 49.9902 61.916 50.2382C61.073 50.7352 60.142 51.1002 59.024 50.8792C56.904 50.8132 54.776 50.7642 52.651 50.6842C52.642 50.8762 52.623 51.0752 52.6 51.2692C52.565 51.5592 52.526 51.8412 52.509 52.1152C52.477 52.6352 52.534 53.0472 52.785 53.3352C53.295 53.3912 53.946 53.4262 54.489 53.6022C54.786 53.6992 55.07 53.8432 55.302 54.0692C55.535 54.2972 55.702 54.5982 55.781 54.9852C55.821 55.1702 55.83 55.3442 55.779 55.4942C55.722 55.6612 55.601 55.7682 55.453 55.8182C55.32 55.8642 55.173 55.8612 55.041 55.8462C54.905 55.8302 54.757 55.7972 54.612 55.7602C54.308 55.6822 54.017 55.5892 53.734 55.5382C53.446 55.4862 53.259 55.5002 53.154 55.5632L53.007 55.6002C52.412 55.5592 51.958 55.7392 51.694 56.0342C51.468 56.2882 51.354 56.6612 51.444 57.1402L51.496 57.3522L51.506 57.4092C51.519 57.6612 51.503 57.9382 51.492 58.1922C51.481 58.4542 51.475 58.6992 51.503 58.9202C51.53 59.1392 51.589 59.3152 51.69 59.4492C51.789 59.5792 51.944 59.6912 52.208 59.7572C52.602 59.8342 52.908 59.9812 53.14 60.1902C53.374 60.4022 53.518 60.6622 53.606 60.9382C53.694 61.2122 53.73 61.5062 53.749 61.7922C53.765 62.0332 53.769 62.3012 53.778 62.5372C54.271 62.9872 54.475 63.5232 54.503 64.0852C54.532 64.6612 54.378 65.2562 54.193 65.8032C53.758 67.6842 53.475 69.6062 53.188 71.5362C52.9 73.4662 52.609 75.4052 52.158 77.2982L52.043 77.4542C51.904 77.5372 51.756 77.5712 51.605 77.5492C51.461 77.5282 51.336 77.4582 51.232 77.3772C51.032 77.2202 50.85 76.9692 50.688 76.7382C50.517 76.4942 50.357 76.2542 50.181 76.0602C50.024 75.8892 49.878 75.7852 49.737 75.7422C49.549 75.8182 49.386 75.8762 49.244 75.9102C49.085 75.9482 48.938 75.9642 48.81 75.9442C48.674 75.9232 48.543 75.8572 48.466 75.7242C48.395 75.6022 48.394 75.4662 48.411 75.3572C48.444 75.1432 48.567 74.8912 48.704 74.6562C48.842 74.4202 49.014 74.1692 49.179 73.9402C49.425 73.4422 49.758 72.9672 50.039 72.5192C50.294 72.1132 50.514 71.7152 50.642 71.2942C50.011 70.9342 49.413 70.5062 48.827 70.1222C48.22 69.7232 47.614 69.3642 46.951 69.1252C46.506 69.5072 45.999 69.7962 45.472 69.8532C44.879 69.9172 44.307 69.6852 43.828 69.0802V69.0812C43.738 68.9762 43.667 68.9322 43.617 68.9152C43.572 68.8992 43.525 68.8982 43.468 68.9162C43.33 68.9592 43.171 69.0902 42.951 69.2942C42.751 69.4802 42.506 69.7182 42.233 69.8742C41.96 70.0302 41.637 70.1172 41.271 70.0072C40.972 69.9992 40.65 70.0112 40.312 70.0252C39.967 70.0402 39.605 70.0552 39.251 70.0462C38.547 70.0282 37.822 69.9172 37.254 69.4752L37.158 69.2882C37.135 68.7392 37.061 68.2512 36.86 67.9262C36.764 67.7702 36.64 67.6562 36.479 67.5872C36.314 67.5162 36.091 67.4832 35.783 67.5242L35.697 67.5212C35.286 67.4342 35.031 67.1952 34.866 66.8972C34.711 66.6162 34.633 66.2762 34.563 65.9762C34.49 65.6592 34.425 65.3792 34.307 65.1512C34.194 64.9362 34.04 64.7782 33.785 64.6982L33.694 64.6462C33.46 64.4392 33.179 64.2572 32.876 64.0742C32.579 63.8952 32.251 63.7092 31.955 63.5062C31.366 63.1012 30.832 62.5812 30.72 61.7352C29.917 60.0222 27.901 59.1762 25.999 59.0252C26.059 59.1392 26.118 59.2552 26.18 59.3712C26.331 59.6562 26.486 59.9492 26.628 60.2452C26.912 60.8372 27.155 61.4592 27.245 62.0992L27.217 62.2552C26.951 62.7342 26.61 63.1922 26.316 63.6322C26.017 64.0812 25.751 64.5312 25.594 65.0362L25.581 65.0692C24.435 67.4692 22.41 69.4902 20.09 70.7062L20.036 70.7272C18.475 71.1262 16.807 71.6092 15.379 72.3962C13.955 73.1822 12.786 74.2622 12.198 75.8502L12.19 75.8682C11.792 76.7252 11.495 77.6372 11.154 78.5602C10.817 79.4742 10.44 80.3892 9.88803 81.2062L9.85901 81.2402C9.57301 81.5352 9.24704 81.6782 8.91004 81.6872C8.58004 81.6972 8.26603 81.5762 7.99503 81.3952C7.52603 81.0832 7.13903 80.5612 6.94403 80.0472L6.87302 79.8272C6.77802 79.4712 6.61502 79.2842 6.42502 79.1752C6.22202 79.0592 5.95902 79.0132 5.63602 78.9992C5.47602 78.9922 5.31001 78.9942 5.13501 78.9952C4.96201 78.9962 4.78102 78.9972 4.60202 78.9902C4.24502 78.9762 3.86902 78.9282 3.53302 78.7592L3.45304 78.6942C3.20204 78.3912 3.08002 78.0882 3.04902 77.7832C3.01802 77.4842 3.07804 77.2012 3.15604 76.9402C3.19604 76.8102 3.24104 76.6812 3.28504 76.5572C3.33004 76.4312 3.37203 76.3092 3.40903 76.1872C3.48303 75.9442 3.53003 75.7122 3.51603 75.4752L3.51502 75.4502C3.52302 75.2412 3.52504 75.0272 3.52604 74.8102C3.52704 74.5952 3.52803 74.3752 3.53403 74.1612L3.63703 73.9662C4.66503 73.2212 5.26004 71.9172 5.72504 70.6882C5.69104 70.6112 5.66502 70.5272 5.64502 70.4442C5.61202 70.3112 5.58803 70.1602 5.56803 70.0062C5.53003 69.7012 5.50702 69.3532 5.48102 69.0742C5.47502 68.9992 5.46404 68.9292 5.45704 68.8642C5.15704 69.2222 4.79203 69.6922 4.40503 70.0702C3.97203 70.4942 3.44303 70.8722 2.83103 70.8692L2.74002 70.8522C2.37002 70.7052 1.68003 70.4212 1.14603 70.0732C0.88303 69.9022 0.632013 69.6982 0.484013 69.4682C0.409013 69.3502 0.353026 69.2132 0.348026 69.0632C0.342026 68.9092 0.39002 68.7622 0.48502 68.6292L0.583012 68.5482C0.893012 68.4042 1.00804 68.2352 1.05204 68.0612C1.10104 67.8662 1.07303 67.6252 1.00403 67.3212C0.940032 67.0392 0.836041 66.6862 0.794041 66.3572C0.751041 66.0172 0.763037 65.6502 0.953037 65.3052L0.972019 65.2762C1.10502 65.0952 1.11903 64.9232 1.06803 64.7322C1.01303 64.5252 0.883017 64.3082 0.726017 64.0642C0.579017 63.8382 0.400015 63.5752 0.312015 63.3202C0.265015 63.1882 0.237016 63.0412 0.256016 62.8892C0.275016 62.7322 0.341035 62.5872 0.457035 62.4572L0.494022 62.4242C0.692022 62.2762 0.97102 62.1432 1.24802 62.0202C1.53702 61.8932 1.83104 61.7732 2.10004 61.6412C2.37104 61.5072 2.58103 61.3772 2.70603 61.2472C2.80403 61.1462 2.82602 61.0692 2.81302 60.9922C2.51102 60.6952 2.36903 60.3712 2.37403 60.0312C2.37903 59.6822 2.53702 59.3582 2.73902 59.0772C2.94302 58.7942 3.20903 58.5292 3.46503 58.2952C3.59403 58.1772 3.72301 58.0642 3.84201 57.9602C3.93801 57.8762 4.02501 57.7962 4.10501 57.7232C4.31001 56.6892 4.50704 55.7352 4.00104 54.8872L3.99604 54.6382C4.33004 54.0322 4.99402 53.8992 5.56202 53.8102C5.86302 53.7622 6.14704 53.7262 6.41904 53.6582C6.68704 53.5912 6.91801 53.4982 7.10501 53.3512L7.16101 53.3172C8.05301 52.9362 8.96602 52.4242 9.45102 51.6622C9.36402 51.4462 9.27702 51.2162 9.21802 50.9892C9.14702 50.7202 9.10403 50.4352 9.14603 50.1782C9.19103 49.9082 9.33102 49.6632 9.61402 49.5222C9.84702 49.4072 10.15 49.3742 10.521 49.4142L10.686 49.4362L10.741 49.4502C11.128 49.6062 11.289 49.5732 11.339 49.5452C11.369 49.5272 11.421 49.4702 11.413 49.2722C11.405 49.0842 11.342 48.8442 11.246 48.6012C11.151 48.3602 11.033 48.1332 10.928 47.9762L10.886 47.8302C10.899 47.3922 11.05 47.0552 11.307 46.8122C11.556 46.5762 11.884 46.4492 12.219 46.3822C12.85 46.2552 13.596 46.3252 14.115 46.3722C14.973 45.9452 15.469 45.1752 15.905 44.2692C16.016 44.0382 16.122 43.8012 16.229 43.5602C16.336 43.3222 16.445 43.0782 16.559 42.8402C16.786 42.3632 17.042 41.8912 17.369 41.4752L17.404 41.4382C17.873 41.0392 17.942 40.6522 17.833 40.3352C17.715 39.9902 17.363 39.6512 16.845 39.4302L16.737 39.3432C16.327 38.7552 16.591 38.1262 16.825 37.6262C16.952 37.3562 17.077 37.1112 17.165 36.8602C17.251 36.6142 17.289 36.3892 17.252 36.1772L17.25 36.1592C17.13 34.9292 16.749 33.7712 16.191 32.6582L16.169 32.4982C16.232 32.1782 16.479 31.9582 16.7 31.8022C16.816 31.7202 16.939 31.6452 17.053 31.5782C17.17 31.5092 17.274 31.4472 17.364 31.3862C17.455 31.3232 17.517 31.2712 17.554 31.2262C17.588 31.1842 17.59 31.1622 17.59 31.1532C17.589 31.1412 17.583 31.0982 17.517 31.0192C17.452 30.9402 17.341 30.8422 17.163 30.7222C16.79 30.5612 16.536 30.3532 16.4 30.0902C16.261 29.8182 16.269 29.5312 16.335 29.2682C16.4 29.0082 16.526 28.7472 16.648 28.5112C16.759 28.2972 16.862 28.1042 16.945 27.9212C16.752 27.3912 16.352 26.9582 15.869 26.5132C15.375 26.0582 14.783 25.5802 14.375 25.0022L14.335 24.8072C14.457 24.2242 14.74 23.6932 14.979 23.2552C15.101 23.0312 15.209 22.8362 15.289 22.6582C15.371 22.4782 15.411 22.3432 15.415 22.2412L15.909 22.2002C15.964 22.4582 16.064 22.5272 16.127 22.5472C16.207 22.5732 16.342 22.5582 16.517 22.4552C16.685 22.3552 16.856 22.1922 16.984 21.9982C17.113 21.8032 17.19 21.5952 17.194 21.4062L17.399 21.1662C17.692 21.1122 17.734 21.0202 17.744 20.9832C17.766 20.9082 17.744 20.7692 17.635 20.5362C17.53 20.3132 17.38 20.0732 17.226 19.8082C17.093 19.5802 16.959 19.3312 16.879 19.0932C16.723 18.9672 16.598 18.8562 16.506 18.7572C16.406 18.6492 16.325 18.5392 16.286 18.4302C16.266 18.3732 16.252 18.3002 16.268 18.2222C16.284 18.1362 16.332 18.0642 16.4 18.0162C16.517 17.9332 16.659 17.9422 16.747 17.9552C16.946 17.9862 17.193 18.0992 17.423 18.2672C17.642 18.4262 17.864 18.6492 18.028 18.9292C18.259 19.0842 18.42 19.3312 18.543 19.5682C18.676 19.8242 18.798 20.1392 18.904 20.3722C19.022 20.6302 19.124 20.8022 19.229 20.8872C19.275 20.9232 19.314 20.9382 19.352 20.9402C19.39 20.9432 19.449 20.9332 19.537 20.8882C19.649 20.8022 19.711 20.7222 19.743 20.6502C19.777 20.5762 19.788 20.4962 19.779 20.4022C19.76 20.1982 19.653 19.9692 19.513 19.6812C19.383 19.4142 19.224 19.0942 19.184 18.7702C19.14 18.4202 19.236 18.0692 19.576 17.7612L19.581 17.7572C19.848 17.5262 20.125 17.3032 20.395 17.0842C20.666 16.8632 20.931 16.6452 21.181 16.4152C21.68 15.9552 22.113 15.4572 22.406 14.8362L22.478 14.7462C22.73 14.5472 23.04 14.4512 23.329 14.3892C23.475 14.3572 23.625 14.3322 23.765 14.3102C23.907 14.2862 24.04 14.2652 24.165 14.2372C24.42 14.1812 24.602 14.1102 24.719 14.0002C24.821 13.9042 24.901 13.7522 24.895 13.4602C24.706 12.8162 24.824 12.1802 24.962 11.5952C25.108 10.9762 25.269 10.4202 25.229 9.85718L25.242 9.76117C25.817 8.02517 27.636 6.95817 29.258 6.58517L29.438 6.61117C29.714 6.77017 29.957 6.99218 30.158 7.18518C30.373 7.39018 30.525 7.54516 30.654 7.63016C30.688 7.65216 30.711 7.66016 30.725 7.66516C30.747 7.63716 30.784 7.57318 30.822 7.44318C30.861 7.31318 30.896 7.13416 30.928 6.89416C30.915 6.17516 31.139 5.60916 31.594 5.31116C32.042 5.01816 32.634 5.03917 33.245 5.30517C34.784 5.47317 36.389 5.44917 37.344 4.26117L37.382 4.22317C37.707 3.96017 38.081 3.78317 38.453 3.64117C38.639 3.56917 38.828 3.50518 39.012 3.44318C39.197 3.38118 39.378 3.32016 39.553 3.25516C40.251 2.99416 40.806 2.67315 41.065 1.95315L41.067 1.94717L41.145 1.76916C41.559 0.907164 42.404 0.409165 43.289 0.282165ZM44.511 7.44318C44.511 7.44218 44.512 7.43916 44.512 7.43716L44.51 7.42117L44.511 7.44318Z" fill="#718FD5" stroke="white" stroke-width="0.5" stroke-linejoin="round"/>
</svg>
