<svg width="101" height="64" viewBox="0 0 101 64" fill="none" xmlns="http://www.w3.org/2000/svg">
<path d="M23.7674 0.263C24.3314 0.485 24.9274 0.604005 25.5474 0.699005C26.1584 0.793005 26.8094 0.866002 27.4344 0.996002L27.6124 1.34201C27.1204 2.44101 27.2464 3.599 27.8414 4.629L27.9664 4.83301L27.9944 4.89099C28.2454 5.66099 28.9075 6.129 29.6415 6.659C30.3455 7.167 31.1254 7.741 31.3374 8.724L31.2454 8.974C30.9834 9.178 30.8605 9.36301 30.8135 9.51801C30.7685 9.66901 30.7854 9.82 30.8614 9.979C31.0224 10.317 31.4325 10.654 31.9285 10.929L31.9905 10.978C32.7705 11.82 33.8904 12.015 35.0344 11.877L35.0524 11.876C35.7834 11.841 36.1934 12.368 36.4684 12.889C36.6084 13.154 36.7294 13.448 36.8434 13.707C36.8714 13.771 36.9014 13.832 36.9294 13.892C37.0954 13.689 37.3395 13.53 37.5925 13.421C37.8885 13.292 38.2304 13.218 38.5424 13.227C38.8344 13.236 39.1464 13.323 39.3464 13.564C40.3514 14.465 41.4295 15.226 42.6105 15.853C42.6335 15.671 42.6604 15.489 42.6904 15.309C42.8124 13.911 42.9234 12.329 43.9754 11.159C44.1464 10.867 44.2814 10.535 44.4104 10.179C44.5384 9.82399 44.6664 9.43299 44.8154 9.07199C45.1164 8.34199 45.5424 7.639 46.4094 7.31C48.1454 6.577 50.1635 6.50901 51.9775 6.44901L52.0074 6.45001C52.8464 6.52401 53.7934 6.59999 54.6534 6.86499C55.5114 7.12899 56.3054 7.589 56.8334 8.44C57.0094 8.639 57.2144 8.89599 57.3964 9.10599C57.5944 9.33499 57.7955 9.54701 58.0065 9.71201C58.2175 9.87601 58.4265 9.98399 58.6415 10.02C58.8515 10.055 59.0874 10.025 59.3624 9.879L59.4034 9.862C59.7784 9.74 60.1745 9.55899 60.5975 9.36899C61.0145 9.18199 61.4564 8.987 61.9004 8.854C62.7894 8.587 63.7334 8.55599 64.5744 9.33499C66.2904 10.642 68.6114 11.338 70.6604 10.7C72.0674 9.74701 73.5424 8.57899 75.4424 8.48599C76.7944 8.21599 78.1144 8.39399 79.3904 8.69699C80.0304 8.84899 80.6655 9.03499 81.2875 9.21399C81.8815 9.38399 82.4644 9.54699 83.0414 9.67599C83.3654 9.50799 83.6784 9.28 83.9944 9.017C84.1654 8.876 84.3344 8.729 84.5074 8.578C84.6794 8.428 84.8554 8.276 85.0354 8.13C85.7414 7.557 86.5464 7.047 87.5814 7.09C87.9654 6.955 88.2905 6.945 88.5765 7.048C88.8665 7.152 89.0784 7.361 89.2514 7.577C89.3394 7.685 89.4224 7.80201 89.5014 7.91501C89.5824 8.02901 89.6604 8.14001 89.7444 8.24701C89.9104 8.46101 90.0874 8.644 90.3094 8.771L90.3475 8.798C90.5455 8.966 90.7184 9.15601 90.8774 9.34201C91.0334 9.52501 91.1675 9.69199 91.3135 9.85699C91.5205 9.79999 91.7514 9.812 91.9614 9.853C92.2584 9.911 92.5664 10.037 92.8274 10.194C93.0724 10.342 93.3034 10.536 93.4294 10.755C94.7954 12.421 96.1504 14.379 96.0734 16.726C96.1344 17.341 96.0204 17.951 95.9524 18.499C95.8914 18.998 95.8624 19.464 95.9844 19.927L96.0455 20.127L96.0604 20.203C96.1104 21.759 96.9804 23.139 97.9144 24.382L97.8354 24.751C96.9884 25.219 96.0654 25.201 95.1794 25.068C94.7364 25.001 94.2884 24.904 93.8614 24.817C93.4294 24.73 93.0144 24.653 92.6164 24.623L92.6055 24.622V24.621C92.2455 24.579 91.8414 24.831 91.4994 25.252C91.3354 25.455 91.1995 25.682 91.1055 25.897C91.0295 26.07 90.9864 26.226 90.9714 26.348C91.7364 27.18 92.5874 27.936 93.4494 28.698C94.2224 29.383 95.0054 30.073 95.7234 30.82L96.0275 31.143L96.0484 31.172C96.9144 32.44 97.5404 33.82 97.9924 35.276C98.1014 35.361 98.1904 35.46 98.2364 35.582C98.2964 35.741 98.2694 35.893 98.2064 36.019C98.1484 36.138 98.0544 36.242 97.9604 36.333C97.8644 36.425 97.7525 36.517 97.6415 36.606C97.4115 36.79 97.1835 36.965 97.0165 37.159C96.8515 37.35 96.7765 37.523 96.7955 37.699L96.7704 37.839C96.3604 38.654 95.9665 39.572 95.4675 40.388C94.9745 41.195 94.3614 41.934 93.4824 42.445C93.0804 43.117 93.0904 43.882 93.2504 44.715C93.3324 45.141 93.4515 45.571 93.5665 46.009C93.6795 46.441 93.7894 46.879 93.8464 47.304L93.9045 47.596C94.0635 48.267 94.3844 48.881 94.7624 49.49C95.1844 50.17 95.7004 50.875 96.0734 51.593L96.1004 51.72C96.0444 52.853 96.3604 53.883 97.2084 54.567L97.3854 54.699L97.4114 54.719C98.8404 56.016 100.167 57.64 100.422 59.684C100.791 60.247 100.739 60.799 100.673 61.297C100.604 61.82 100.523 62.284 100.729 62.805L100.573 63.134C99.8844 63.355 99.2135 63.173 98.6055 62.931C98.3035 62.811 97.9924 62.666 97.7064 62.543C97.4144 62.417 97.1354 62.308 96.8644 62.243L96.8204 62.227C94.6934 61.272 92.3474 61.061 90.0364 61.301L90.0004 61.303C88.7804 61.255 87.5714 61.06 86.3834 60.89C85.1894 60.719 84.0094 60.572 82.8174 60.607L82.7984 60.606C81.3494 60.538 79.8855 60.479 78.4285 60.303C78.4055 60.563 78.3834 60.838 78.3534 61.086L78.1034 61.305C76.0354 61.29 73.9754 61.255 71.9144 61.285L71.6634 61.068C71.6294 60.815 71.5794 60.566 71.5314 60.306C71.4834 60.05 71.4384 59.785 71.4164 59.516C71.3754 58.989 71.4274 58.44 71.7344 57.871C71.9264 56.435 71.1734 54.946 70.3334 53.682L70.4564 53.309C70.7754 53.194 70.9224 53.038 70.9824 52.905C71.0404 52.774 71.0314 52.626 70.9554 52.484C70.8014 52.194 70.3784 51.96 69.8714 52.13L69.8454 52.136C68.4594 52.435 67.0824 51.243 67.2524 49.793C67.2544 49.696 67.2334 49.63 67.2004 49.578C67.1644 49.522 67.1084 49.47 67.0264 49.42C66.8494 49.312 66.6275 49.252 66.3785 49.165C66.2645 49.125 66.1404 49.077 66.0354 49.012C65.9964 48.988 65.9564 48.957 65.9174 48.921L65.7944 48.942C65.4734 48.708 65.2514 48.599 65.1044 48.563C64.9724 48.531 64.9304 48.562 64.9064 48.587C64.8594 48.632 64.8095 48.732 64.7665 48.921C64.7245 49.104 64.6994 49.327 64.6684 49.584L64.5434 49.771C63.9294 50.121 63.2445 50.2 62.5895 50.233C61.9165 50.267 61.2904 50.256 60.6974 50.393L60.4954 50.353C60.0534 50.037 59.6014 49.888 59.2204 49.924C58.8574 49.958 58.5174 50.165 58.2784 50.659L58.0904 50.797C57.5474 50.88 56.9624 50.845 56.3974 50.806C55.8224 50.767 55.2654 50.722 54.7384 50.769L54.6915 50.768C53.5295 50.651 52.5625 49.998 51.8655 49.127C51.1695 48.256 50.7284 47.152 50.6224 46.095L50.6824 45.908C50.9694 45.572 51.0344 45.373 51.0344 45.261C51.0334 45.172 50.9864 45.085 50.8364 44.973C50.6774 44.855 50.4764 44.759 50.2284 44.619C49.9984 44.489 49.7394 44.326 49.5544 44.091L49.5405 44.071C48.5215 42.486 46.8534 41.583 45.0484 41.02L44.9075 40.908C44.7495 40.637 44.5834 40.503 44.4274 40.44C44.2704 40.377 44.0934 40.375 43.8934 40.425C43.4774 40.531 43.0384 40.841 42.6404 41.132L42.5314 41.177C41.9314 41.27 41.3284 41.305 40.7324 41.329C40.1314 41.352 39.5464 41.363 38.9604 41.405L38.9584 41.403L38.9524 41.41C38.1844 41.443 37.4194 41.535 36.6434 41.628C35.8704 41.72 35.0854 41.815 34.2944 41.85L34.1594 41.763C34.0384 41.856 33.8885 41.893 33.7305 41.896L33.6674 41.889C33.4694 41.842 33.2634 41.876 33.0354 41.965C32.8004 42.056 32.5814 42.188 32.3304 42.318C32.1484 42.413 31.9434 42.509 31.7324 42.551L31.7414 42.593C31.4504 43.077 31.0965 43.605 30.6365 43.962C30.1705 44.324 29.5934 44.51 28.8854 44.323C26.9234 44.277 25.1574 45.164 23.4324 46.152L23.3754 46.175C21.0684 46.817 18.8334 47.688 16.8514 49.014L16.5644 49.008C16.0814 48.65 15.5024 48.413 14.8974 48.148C14.3064 47.889 13.6905 47.602 13.2095 47.144L13.1324 46.954C13.1724 45.826 12.7144 44.826 12.2064 43.766C11.7074 42.724 11.1574 41.62 11.1304 40.357L11.1315 40.332C11.2045 39.429 11.4794 38.553 11.7864 37.704C12.0984 36.845 12.4374 36.024 12.6684 35.188L12.6944 35.129C13.0934 34.45 13.5654 33.806 13.8634 33.107C14.1524 32.428 14.2474 31.755 13.9114 31.056L13.8984 31.027C13.6464 30.27 13.5324 29.462 13.4214 28.69C13.3164 27.961 13.2114 27.265 13.0054 26.63C12.9884 26.618 12.9734 26.609 12.9634 26.6C12.9304 26.569 12.9075 26.533 12.8945 26.511C12.8795 26.488 12.8664 26.463 12.8574 26.445C12.8464 26.425 12.8394 26.412 12.8324 26.4C12.8254 26.387 12.8254 26.387 12.8284 26.391C12.8314 26.394 12.8574 26.427 12.9114 26.446C12.9444 26.457 12.9834 26.462 13.0254 26.454C13.0654 26.446 13.0944 26.429 13.1144 26.414L12.9764 26.248C12.7434 26.284 12.4904 26.229 12.2524 26.116C11.9964 25.993 11.7395 25.794 11.5065 25.529C9.78945 24.9 7.87143 25.443 6.27043 26.32L6.20244 26.345C5.31644 26.539 4.44846 26.21 3.77446 25.658C3.10846 25.113 2.60146 24.329 2.42046 23.533C2.36546 23.398 2.24844 23.31 2.04344 23.254C1.93544 23.224 1.81544 23.206 1.68944 23.194L1.08842 23.156C1.02242 23.151 0.956454 23.143 0.894454 23.134C0.772454 23.117 0.640426 23.087 0.528426 23.025C0.406426 22.958 0.300412 22.849 0.263412 22.684C0.229412 22.533 0.263438 22.374 0.327438 22.218L0.331405 22.208C1.2034 20.35 1.69444 18.243 1.41344 16.214L1.43645 16.07C1.72445 15.474 2.33244 15.296 2.85344 15.166C3.41544 15.025 3.90746 14.929 4.24846 14.606L4.26646 14.591C4.88846 14.104 5.17444 13.396 5.38444 12.579C5.49144 12.164 5.57145 11.754 5.67345 11.319C5.77145 10.906 5.88444 10.489 6.05144 10.098C6.10044 9.61499 6.39545 9.009 6.78545 8.603C6.99045 8.391 7.24142 8.212 7.52342 8.146C7.78142 8.086 8.04743 8.12801 8.29143 8.29501L8.39543 8.37399L8.41142 8.38901C8.73942 8.72501 9.18342 9.09499 9.61742 9.26199C9.83142 9.34499 10.0264 9.37201 10.1974 9.33801C10.3594 9.30501 10.5225 9.21001 10.6785 9.00601C11.5465 7.24901 12.5985 5.26301 14.4255 4.21301L14.4714 4.19101C14.7684 4.09401 15.0615 4.154 15.3165 4.255C15.5675 4.353 15.8194 4.507 16.0364 4.633C16.2674 4.767 16.4614 4.871 16.6324 4.914C16.7604 4.946 16.8574 4.93801 16.9474 4.88901C17.2394 3.76401 17.9184 2.79701 19.1374 2.45001C19.8884 2.17601 20.5624 1.72601 21.2864 1.28101C22.0004 0.842006 22.7584 0.413 23.6294 0.25L23.7674 0.263Z" fill="#F8CA6A" stroke="white" stroke-width="0.5" stroke-linejoin="round"/>
</svg>
