<svg width="181" height="106" viewBox="0 0 181 106" fill="none" xmlns="http://www.w3.org/2000/svg">
<path d="M7.414 7.08099C9.282 6.68599 11.175 6.73 13.047 6.823C14.943 6.918 16.811 7.06402 18.661 6.88202H18.715C19.025 6.91802 19.357 6.915 19.707 6.901C20.049 6.888 20.4231 6.86202 20.7791 6.85602C21.4501 6.84602 22.1501 6.90201 22.7531 7.26901L22.872 7.34802L22.968 7.47702C23.197 8.20602 23.309 8.972 23.45 9.686C23.574 10.319 23.723 10.927 23.995 11.497L24.12 11.739L24.132 11.763C24.941 13.688 25.886 15.724 27.571 16.871C28.252 16.93 28.924 16.823 29.618 16.683C30.323 16.54 31.0611 16.363 31.8051 16.333L31.8651 16.337C32.9651 16.556 34.084 16.549 35.231 16.526C35.805 15.278 36.238 13.986 36.114 12.664L36.1151 12.607C36.1651 12.236 36.356 11.993 36.639 11.864C36.897 11.747 37.21 11.733 37.499 11.743C37.648 11.748 37.802 11.76 37.95 11.772C38.099 11.785 38.243 11.797 38.382 11.804C38.667 11.818 38.894 11.807 39.057 11.748L39.099 11.736C39.621 11.643 40.347 11.58 40.877 11.765C41.151 11.86 41.404 12.034 41.525 12.332C41.629 12.591 41.615 12.898 41.496 13.249C41.729 13.486 42.086 13.539 42.572 13.505C42.842 13.486 43.1131 13.444 43.4041 13.411C43.6781 13.38 43.963 13.357 44.228 13.384C44.41 13.386 44.667 13.354 44.979 13.318C45.281 13.284 45.622 13.249 45.931 13.262C46.229 13.274 46.557 13.332 46.781 13.535C47.03 13.762 47.0831 14.101 46.9771 14.505L46.972 14.521C46.646 15.479 46.463 16.365 46.993 17.114L47.11 17.263L47.158 17.349C47.49 18.378 47.482 19.422 47.338 20.438C47.199 21.423 46.929 22.407 46.713 23.325C46.852 23.709 47.083 24.067 47.364 24.427C47.669 24.817 47.991 25.163 48.324 25.568C48.96 26.341 49.535 27.223 49.364 28.398C49.35 28.652 49.272 28.944 49.195 29.218C49.114 29.503 49.032 29.778 48.987 30.037C48.941 30.299 48.941 30.505 48.997 30.654C49.044 30.779 49.14 30.889 49.358 30.961C50.321 30.98 51.2601 30.694 52.2661 30.441C53.2531 30.194 54.292 29.987 55.376 30.235C55.781 30.174 56.115 30.182 56.379 30.274C56.527 30.326 56.649 30.403 56.745 30.5L56.833 30.414C58.071 30.339 59.129 31.005 59.565 32.161C59.988 32.209 60.4341 32.131 60.9041 31.999C61.1631 31.926 61.422 31.839 61.687 31.752C61.949 31.665 62.217 31.579 62.482 31.512L62.7531 31.618C62.9261 31.884 63.076 32.177 63.219 32.453C63.365 32.734 63.505 33 63.666 33.236C63.943 33.642 64.267 33.94 64.752 34.041L64.971 34.072L65.0161 34.08C66.5471 34.488 68.147 34.908 69.646 35.027C69.807 35 69.966 34.902 70.13 34.732C70.301 34.556 70.457 34.325 70.611 34.078C70.758 33.841 70.911 33.577 71.059 33.378C71.134 33.277 71.216 33.179 71.307 33.103C71.398 33.026 71.512 32.957 71.65 32.94L71.895 33.061C72.109 33.418 72.293 33.819 72.473 34.207C72.656 34.6 72.836 34.982 73.046 35.325C73.437 35.963 73.914 36.438 74.666 36.566L74.821 36.588L74.838 36.59C77.275 37.017 78.727 39.167 79.783 41.074C80.337 41.433 80.986 41.541 81.7 41.572C82.069 41.588 82.437 41.585 82.821 41.59C83.108 41.593 83.399 41.601 83.687 41.628C83.779 39.795 83.795 37.897 83.541 36.14C83.5 36.122 83.465 36.115 83.435 36.114C83.384 36.113 83.3261 36.128 83.2531 36.168C83.0951 36.255 82.9331 36.424 82.7271 36.642C82.5361 36.843 82.308 37.084 82.047 37.235C81.775 37.392 81.455 37.458 81.096 37.31C80.297 37.114 79.647 36.62 79.083 36.058C78.527 35.502 78.005 34.823 77.533 34.299C77.189 33.976 77.01 33.612 76.95 33.227C76.889 32.842 76.948 32.45 77.049 32.075C77.149 31.702 77.298 31.322 77.428 30.971C77.561 30.611 77.676 30.278 77.729 29.97L77.749 29.905C78.269 28.806 78.334 27.68 77.972 26.518L77.963 26.478C77.907 26.08 77.817 25.665 77.731 25.227C77.646 24.796 77.565 24.347 77.533 23.902C77.471 23.019 77.604 22.123 78.302 21.37C78.639 20.774 79.025 20.079 79.533 19.549C80.052 19.008 80.717 18.621 81.608 18.664C83.706 18.339 85.828 17.913 87.959 17.666L88.165 17.738C89.156 18.74 90.18 19.624 91.483 20.007L91.747 20.077L91.815 20.103C92.967 20.767 94.223 21.222 95.498 21.688C96.608 22.094 97.733 22.507 98.786 23.075L99.233 23.329L99.289 23.375C99.474 23.578 99.654 23.789 99.83 24.006C100.435 24.012 101.121 23.997 101.757 24.112C102.419 24.232 103.06 24.499 103.546 25.096C104.653 26.126 104.972 27.469 105.144 28.811C105.187 29.15 105.222 29.492 105.256 29.83C105.291 30.169 105.326 30.504 105.37 30.835C105.449 31.414 105.555 31.972 105.738 32.494L105.821 32.716L105.824 32.725V32.726C105.858 32.822 105.891 32.915 105.923 33.008C106.785 32.932 107.65 33.096 108.451 33.21C109.321 33.333 110.13 33.398 110.908 33.122C111.133 32.97 111.374 32.808 111.614 32.674C111.862 32.534 112.127 32.415 112.393 32.368C112.665 32.32 112.947 32.347 113.207 32.51C113.448 32.66 113.645 32.911 113.806 33.261C114.428 33.735 115.157 33.824 115.971 33.801C116.392 33.789 116.809 33.748 117.251 33.722C117.685 33.696 118.129 33.684 118.564 33.735L118.613 33.747C119.148 33.924 119.63 33.853 120.035 33.623C120.444 33.391 120.786 32.99 121.018 32.491C121.132 32.12 121.298 31.84 121.518 31.656C121.748 31.464 122.017 31.396 122.289 31.416C122.794 31.452 123.319 31.789 123.754 32.177C124.385 32.397 125.005 32.207 125.691 31.876C125.864 31.792 126.038 31.702 126.215 31.609C126.392 31.517 126.573 31.422 126.754 31.334C127.116 31.157 127.496 30.997 127.891 30.917H127.893C128.922 30.716 129.833 30.259 130.709 29.693C131.597 29.12 132.409 28.463 133.295 27.838L133.612 27.861C134.257 28.476 134.385 29.226 134.233 29.943C134.085 30.639 133.673 31.306 133.223 31.831C133.022 32.129 133.099 32.499 133.285 33.034C133.372 33.283 133.481 33.567 133.552 33.847C133.623 34.127 133.663 34.428 133.609 34.733C133.568 35.114 133.607 35.521 133.672 35.953C133.736 36.372 133.831 36.845 133.883 37.282C133.983 38.12 133.951 38.993 133.291 39.727C134.221 41.141 134.48 42.78 134.312 44.422C134.329 44.673 134.31 44.964 134.295 45.233C134.28 45.52 134.269 45.792 134.297 46.031C134.325 46.271 134.389 46.447 134.494 46.562C134.581 46.657 134.719 46.739 134.961 46.763L135.073 46.769L135.279 46.887C135.628 47.448 135.456 48.075 135.161 48.587C134.896 49.049 134.497 49.472 134.15 49.787C134.411 50.714 134.136 51.818 133.248 52.592C132.782 53.102 132.334 53.637 131.875 54.176C131.417 54.714 130.95 55.256 130.457 55.768C129.475 56.787 128.376 57.7 126.991 58.262C125.631 59.074 124.159 59.631 122.709 60.172C121.249 60.717 119.813 61.247 118.491 62.013C117.152 62.925 116.081 64.143 114.975 65.381C113.876 66.61 112.742 67.858 111.297 68.773C109.939 69.716 108.599 70.86 107.096 71.675C107.115 72.199 107.054 72.73 107.001 73.228C106.946 73.748 106.902 74.233 106.95 74.688C107.375 74.983 107.97 75.363 108.358 75.815C108.571 76.064 108.742 76.355 108.786 76.69C108.83 77.023 108.745 77.367 108.512 77.719C108.344 78.15 108.442 78.616 108.638 79.157C108.687 79.292 108.74 79.427 108.795 79.566C108.85 79.704 108.906 79.846 108.958 79.988C109.062 80.271 109.156 80.568 109.195 80.869L109.197 80.885C109.213 81.13 109.242 81.406 109.293 81.662C109.345 81.923 109.417 82.145 109.508 82.294C109.598 82.441 109.677 82.477 109.746 82.476C109.84 82.474 110.02 82.408 110.303 82.125L110.73 82.282C110.887 84.397 110.535 86.545 110.207 88.582L110.154 88.702C109.891 89.019 109.825 89.226 109.824 89.364C109.824 89.498 109.883 89.62 110.005 89.773C110.067 89.851 110.136 89.926 110.214 90.015C110.29 90.1 110.372 90.196 110.445 90.302C110.594 90.518 110.709 90.785 110.681 91.128L110.654 91.224C109.253 93.888 106.315 95.149 103.625 95.863C102.515 96.296 101.392 96.649 100.333 97.144C99.282 97.637 98.335 98.256 97.616 99.188L97.567 99.237C97.084 99.592 96.927 99.99 96.973 100.305C97.019 100.616 97.2801 100.945 97.8521 101.131L97.856 101.132C98.247 101.265 98.489 101.509 98.61 101.824C98.724 102.123 98.7201 102.463 98.6801 102.783C98.6401 103.104 98.557 103.443 98.491 103.741C98.424 104.051 98.376 104.312 98.381 104.518L98.11 104.773C97.627 104.732 97.029 104.775 96.432 104.804C95.859 104.832 95.262 104.849 94.851 104.725L94.676 104.526C94.627 104.229 94.551 103.932 94.468 103.63C94.386 103.332 94.294 103.02 94.219 102.713C94.072 102.113 93.978 101.481 94.116 100.816C93.745 99.519 93.831 98.181 93.91 96.891C93.992 95.565 94.066 94.287 93.698 93.055L93.691 93.027C93.425 91.523 92.719 90.146 91.931 88.836L91.903 88.769C91.705 87.991 91.5901 87.12 91.4301 86.344C91.2661 85.546 91.049 84.802 90.645 84.169L90.689 83.848C92.543 82.195 94.2761 80.364 95.9641 78.539C96.0251 78.109 95.982 77.635 95.971 77.092C95.96 76.545 95.987 75.951 96.255 75.404L96.322 75.265C96.666 74.58 97.254 74.068 97.747 73.584C98.263 73.078 98.695 72.586 98.847 71.908C98.063 70.926 97.369 69.843 97.381 68.466C97.131 67.985 97.125 67.542 97.26 67.132C97.395 66.722 97.667 66.351 97.922 66.017C98.187 65.669 98.4361 65.358 98.5891 65.028C98.7361 64.711 98.785 64.394 98.659 64.036L98.652 64.01C98.387 62.864 98.386 61.653 98.336 60.508C98.287 59.366 98.19 58.28 97.774 57.291C96.99 56.56 96.003 56.201 94.936 55.885C93.871 55.569 92.71 55.294 91.703 54.703L91.447 54.574C90.841 54.297 90.197 54.185 89.525 54.144C88.739 54.095 87.972 54.142 87.15 54.129L86.961 54.037C86.572 53.563 86.543 52.953 86.527 52.424C86.526 52.39 86.524 52.356 86.523 52.322C85.373 52.085 84.08 52.121 82.95 52.501C81.826 52.879 80.874 53.592 80.364 54.708C80.357 55.214 80.281 55.804 80.017 56.257C79.877 56.497 79.681 56.706 79.412 56.836C79.149 56.964 78.835 57.006 78.47 56.955C77.026 56.926 75.572 57.229 74.886 58.48L74.851 58.529C74.113 59.334 73.458 60.245 72.762 61.146C72.071 62.041 71.345 62.921 70.484 63.626L70.3521 63.681C69.2641 63.798 68.045 63.555 67.169 62.804C66.944 62.898 66.715 63.011 66.475 63.128C66.19 63.266 65.89 63.408 65.583 63.511C64.969 63.716 64.304 63.768 63.616 63.338C62.973 63.163 62.442 62.831 61.953 62.474C61.453 62.107 61.02 61.737 60.52 61.427C60.026 61.305 59.503 61.31 58.932 61.272C58.401 61.238 57.842 61.161 57.348 60.859C56.099 61.109 54.827 61.349 53.606 61.603V61.604C50.778 62.226 47.89 62.908 45.008 63.235L44.918 63.229C44.527 63.129 44.114 63.109 43.681 63.124C43.236 63.139 42.8161 63.185 42.3521 63.212C41.4811 63.262 40.569 63.228 39.762 62.629C38.615 62.577 37.455 62.685 36.246 62.704C35.032 62.723 33.803 62.647 32.64 62.187L32.582 62.155C32.348 61.979 32.137 61.773 31.941 61.579C31.741 61.381 31.557 61.197 31.363 61.04C30.985 60.736 30.594 60.558 30.047 60.668L29.997 60.673C23.63 60.652 17.249 60.625 10.889 60.581H10.882C10.117 60.556 9.49804 60.229 8.96204 59.825C8.69504 59.624 8.44404 59.401 8.20404 59.184C7.97804 58.978 7.76403 58.78 7.54803 58.6C6.84203 58.457 6.16902 58.659 5.49402 59.017C5.14802 59.2 4.80903 59.42 4.47003 59.647C4.13403 59.872 3.794 60.108 3.461 60.309L3.18201 60.294C2.73501 59.958 2.28002 59.653 1.84802 59.549C1.63802 59.499 1.44305 59.498 1.26105 59.56C1.07905 59.621 0.888998 59.752 0.697998 59.996L0.25 59.835C0.316 57.563 0.405005 55.306 0.255005 53.055L0.362 52.833C1.494 52.043 1.99103 50.869 2.27203 49.54C2.41303 48.874 2.49701 48.18 2.58301 47.481C2.66901 46.787 2.75705 46.088 2.90405 45.433V45.43C3.31805 43.683 3.71401 41.697 5.21301 40.383C5.43401 39.125 6.26701 38.107 7.58801 37.889C10.094 35.071 10.292 30.798 8.89301 27.365C8.41201 26.639 7.81305 25.854 7.33405 25.061C6.84305 24.245 6.441 23.366 6.341 22.394L6.33905 22.362C6.35805 21.546 6.97204 21.083 7.41504 20.702C7.88804 20.296 8.217 19.959 8.125 19.361L8.12201 19.305C8.20701 18.147 7.60602 17.229 6.91602 16.236C6.24702 15.273 5.48905 14.232 5.47205 12.904C5.36305 12.045 4.93005 11.323 4.40405 10.595C3.88605 9.879 3.26004 9.13602 2.86304 8.29602L3.12201 7.94101C3.82601 8.04001 4.45905 7.799 5.16205 7.526C5.83505 7.265 6.575 6.97499 7.414 7.08099ZM173.362 36.357C173.592 36.251 173.852 36.216 174.102 36.332L174.212 36.392L174.232 36.409C174.482 36.618 174.692 36.86 174.872 37.101C175.072 37.352 175.222 37.575 175.412 37.803C175.722 38.184 176.042 38.486 176.502 38.624L176.712 38.673L176.872 38.769C177.412 39.501 177.642 40.382 177.782 41.259C177.862 41.697 177.912 42.146 177.972 42.577C178.012 42.903 178.062 43.22 178.122 43.526L178.192 43.829V43.857C178.422 45.87 178.812 47.847 179.882 49.542V49.548C180.362 50.351 180.202 51.11 179.872 51.78C179.702 52.112 179.492 52.43 179.282 52.727C179.072 53.031 178.862 53.309 178.692 53.581L178.342 53.657C177.852 53.324 177.512 52.829 177.222 52.355C176.952 51.917 176.712 51.499 176.402 51.154C176.222 51.235 176.132 51.344 176.072 51.465C176.002 51.629 175.992 51.848 176.022 52.122C176.062 52.393 176.132 52.686 176.212 52.985C176.282 53.242 176.352 53.511 176.382 53.752C176.782 54.152 177.122 54.652 177.262 55.192C177.412 55.765 177.332 56.375 176.862 56.922C176.692 57.258 176.472 57.57 176.252 57.864C176.012 58.173 175.782 58.457 175.582 58.755C175.202 59.305 174.972 59.848 175.092 60.508L175.122 60.642L175.132 60.682C175.252 62.359 174.862 63.948 174.352 65.487C173.832 67.044 173.212 68.515 172.812 70.045V70.061C170.572 76.955 168.262 83.812 166.312 90.786V90.799L166.072 90.72L166.302 90.799C166.002 91.698 165.742 92.695 165.392 93.604C165.022 94.528 164.542 95.413 163.762 96.143L163.752 96.153C163.092 96.694 162.272 96.735 161.512 96.751C160.732 96.768 160.022 96.76 159.422 97.086L159.302 97.116C158.772 97.109 158.412 97.413 157.982 97.793C157.582 98.142 157.112 98.57 156.422 98.563C156.072 98.722 155.752 98.731 155.472 98.614C155.202 98.499 154.992 98.275 154.812 98.07C154.632 97.851 154.482 97.65 154.292 97.487C154.122 97.333 153.942 97.236 153.712 97.224L153.642 97.211C153.442 97.143 153.212 97.119 152.962 97.108C152.732 97.098 152.452 97.099 152.192 97.076C151.932 97.053 151.662 97.001 151.402 96.871C151.162 96.748 150.942 96.561 150.752 96.284C150.112 95.982 149.802 95.496 149.642 94.962C149.552 94.691 149.502 94.407 149.462 94.134C149.422 93.886 149.392 93.652 149.342 93.423C148.437 92.733 147.727 91.743 148.046 90.418C148.09 90.083 148.192 89.748 148.297 89.431C148.408 89.097 148.522 88.786 148.592 88.477C148.672 88.172 148.702 87.89 148.662 87.627C148.612 87.369 148.499 87.114 148.253 86.862L148.218 86.817C147.996 86.45 147.737 86.084 147.474 85.697C147.214 85.315 146.954 84.915 146.745 84.5C146.325 83.663 146.1 82.736 146.501 81.7L146.504 81.692C146.622 81.417 146.701 81.095 146.78 80.742C146.856 80.398 146.933 80.023 147.046 79.677C147.16 79.329 147.317 78.988 147.568 78.713C147.809 78.448 148.127 78.256 148.542 78.167C148.982 77.787 149.302 77.255 149.612 76.654C149.932 76.049 150.232 75.364 150.642 74.797C151.552 73.479 152.192 72.049 152.212 70.458L152.222 70.389C152.302 70.146 152.282 69.95 152.222 69.778C152.162 69.601 152.052 69.435 151.892 69.264C151.732 69.091 151.542 68.93 151.342 68.752C151.152 68.579 150.942 68.39 150.782 68.18L150.772 67.886C151.102 67.399 151.242 66.967 151.222 66.567C151.202 66.17 151.012 65.762 150.602 65.327L150.552 65.261C150.222 64.553 150.112 63.776 150.002 63.043C149.882 62.297 149.772 61.59 149.462 60.949V60.723C149.692 60.305 149.972 59.899 150.242 59.503C150.522 59.103 150.802 58.712 151.042 58.31C151.532 57.507 151.832 56.692 151.672 55.756V55.751C151.632 55.492 151.612 55.274 151.632 55.098C151.652 54.916 151.712 54.746 151.862 54.627C151.992 54.517 152.172 54.484 152.332 54.475C152.422 54.47 152.512 54.469 152.612 54.473L152.932 54.489L152.972 54.493C153.422 54.582 153.802 54.4 154.242 54.148C154.662 53.913 155.162 53.591 155.742 53.63L155.872 53.673C156.102 53.833 156.282 53.856 156.432 53.829C156.602 53.799 156.762 53.703 156.952 53.558C157.132 53.427 157.352 53.227 157.572 53.086C157.772 52.949 158.022 52.83 158.302 52.808C158.612 52.59 158.922 52.543 159.222 52.589C159.532 52.635 159.812 52.777 160.042 52.891C160.292 53.014 160.472 53.098 160.622 53.111C160.692 53.117 160.742 53.107 160.802 53.081C160.822 53.068 160.852 53.049 160.882 53.022C160.732 52.768 160.682 52.517 160.752 52.27C160.822 51.985 161.032 51.766 161.252 51.595C161.482 51.421 161.752 51.268 162.012 51.131C162.262 50.989 162.492 50.864 162.672 50.737L162.742 50.7C162.972 50.629 163.272 50.639 163.532 50.653C163.812 50.669 164.072 50.693 164.262 50.678C164.362 50.67 164.422 50.654 164.452 50.64V50.637V50.611C164.452 50.586 164.442 50.549 164.422 50.499C164.372 50.397 164.292 50.257 164.152 50.072L164.122 50.01C164.072 49.87 164.082 49.72 164.112 49.588C164.142 49.453 164.202 49.315 164.272 49.184C164.422 48.921 164.632 48.655 164.872 48.454C165.112 48.261 165.402 48.091 165.702 48.102C165.862 48.107 166.012 48.164 166.142 48.283C166.232 48.364 166.292 48.468 166.352 48.589C166.472 48.587 166.622 48.548 166.762 48.471C166.962 48.367 167.142 48.205 167.262 48.022C167.382 47.839 167.432 47.652 167.402 47.492C167.382 47.342 167.302 47.177 167.052 47.031L166.972 46.954C166.752 46.604 166.632 46.27 166.802 45.992C166.882 45.865 167.002 45.787 167.112 45.734C167.222 45.682 167.352 45.644 167.462 45.611C167.712 45.541 167.922 45.491 168.092 45.392C168.162 45.346 168.222 45.294 168.262 45.235C168.292 45.185 168.312 45.118 168.322 45.023C168.262 44.846 168.172 44.607 168.062 44.321C167.952 44.025 167.842 43.69 167.782 43.382C167.732 43.09 167.712 42.748 167.872 42.495C168.032 42.239 168.322 42.159 168.672 42.195L168.822 42.219L169.002 42.369C169.132 42.679 169.272 42.894 169.402 43.027C169.522 43.16 169.642 43.202 169.722 43.204C169.812 43.206 169.922 43.17 170.052 43.051C170.182 42.93 170.322 42.733 170.452 42.45L170.572 42.33C171.972 41.657 172.372 40.148 172.682 38.61C172.252 38.096 172.412 37.404 172.712 36.947C172.872 36.695 173.102 36.477 173.362 36.357ZM4.89502 0.266022C5.24002 0.442022 5.53305 0.628003 5.75305 0.828003C5.97205 1.027 6.13705 1.25601 6.18805 1.51801C6.24005 1.78901 6.16301 2.05201 5.98401 2.29501C5.80901 2.53201 5.532 2.75702 5.164 2.97702L5.11401 3.00101C4.63701 3.15701 4.43202 3.50402 4.33502 3.97302C4.28602 4.21102 4.26803 4.47302 4.25903 4.74402C4.25003 5.00702 4.25105 5.296 4.23505 5.547L4.10901 5.74802C3.71501 5.97302 3.40301 6.12502 3.16101 6.19302C2.92701 6.26002 2.65999 6.271 2.48199 6.061C2.40399 5.969 2.36499 5.85802 2.34399 5.75302C2.32299 5.64702 2.31604 5.52802 2.31604 5.40302C2.31604 5.17202 2.33905 4.87999 2.36505 4.55099C2.22605 4.27099 2.05903 3.99902 1.87903 3.72302C1.68903 3.43102 1.48201 3.12801 1.29901 2.82001L1.37402 2.48502C1.90902 2.12602 2.38405 1.69502 2.92505 1.27002C3.45405 0.85602 4.02702 0.466 4.70502 0.25L4.89502 0.266022Z" fill="#F8CA6A" stroke="white" stroke-width="0.5" stroke-linejoin="round"/>
</svg>
