<svg width="63" height="57" viewBox="0 0 63 57" fill="none" xmlns="http://www.w3.org/2000/svg">
<path d="M48.4861 52.3213C48.5801 52.3383 48.6651 52.3863 48.7271 52.4613L48.7821 52.5453L48.7981 52.5893C48.8271 52.6953 48.8651 52.7503 48.8951 52.7783C48.9231 52.8053 48.9601 52.8233 49.0131 52.8313C49.1371 52.8503 49.3071 52.8133 49.5261 52.7473C49.6241 52.7173 49.7401 52.6793 49.8401 52.6513C49.9411 52.6233 50.0551 52.5973 50.1631 52.5953C50.2721 52.5923 50.4131 52.6133 50.5261 52.7193C50.6391 52.8253 50.6761 52.9713 50.6801 53.1113L50.6191 53.1983C50.6841 53.2573 50.8031 53.3393 50.9681 53.4153C51.1521 53.4993 51.3641 53.5673 51.5621 53.5923C51.7651 53.6173 51.9191 53.5943 52.0151 53.5383L52.0801 53.5123C53.2161 53.2253 54.2761 53.2973 55.1861 53.7523L55.2171 53.7703C55.3341 53.8523 55.5261 53.8903 55.7971 53.8883C56.0631 53.8853 56.3531 53.8453 56.6431 53.8113C56.9121 53.7803 57.2101 53.7513 57.4351 53.8023C57.5531 53.8293 57.6871 53.8853 57.7791 54.0103C57.8671 54.1293 57.8841 54.2723 57.8671 54.4113L57.8731 54.5583C57.8791 54.5933 57.8861 54.6143 57.8921 54.6263C57.8971 54.6363 57.8961 54.6343 57.9001 54.6353C57.9171 54.6393 57.9581 54.6433 58.0361 54.6273C58.1131 54.6113 58.2051 54.5813 58.3121 54.5413C58.5081 54.4673 58.7861 54.3433 59.0191 54.2703C59.1951 54.2163 59.4111 54.1663 59.6171 54.2033C59.7251 54.1033 59.8291 54.0293 59.9291 53.9863C59.9971 53.9573 60.0801 53.9373 60.1671 53.9473C60.2621 53.9593 60.3441 54.0043 60.4031 54.0733C60.5051 54.1933 60.5151 54.3553 60.5091 54.4663C60.5021 54.5913 60.4701 54.7293 60.4221 54.8633C60.3281 55.1253 60.1521 55.4243 59.9021 55.6053C59.7731 55.6983 59.6161 55.7673 59.4381 55.7713C59.2871 55.7753 59.1381 55.7303 58.9951 55.6443C57.0301 55.7563 54.9971 55.9103 53.0271 56.0843L52.7651 55.7653C52.8271 55.5513 52.7791 55.4263 52.6931 55.3333C52.5891 55.2213 52.4021 55.1253 52.1401 55.0533C51.6111 54.9063 50.9621 54.8913 50.5261 54.8413L50.5181 54.8403C50.0071 54.7653 49.4761 54.7443 48.9201 54.6963C48.3761 54.6493 47.8201 54.5773 47.3151 54.3943L47.1581 54.2223C47.0101 53.6523 47.3151 53.0893 47.6341 52.7483C47.7971 52.5743 47.9881 52.4293 48.1711 52.3593C48.2621 52.3253 48.3731 52.3013 48.4861 52.3213ZM12.8951 0.447314C13.2731 0.236314 13.6081 0.19031 13.9041 0.33031C14.1751 0.45931 14.3531 0.722314 14.4901 0.960314C14.6421 1.22531 14.7481 1.46132 14.9041 1.69532C14.9681 1.79232 15.0371 1.87731 15.1081 1.94831C15.2251 2.00831 15.3461 2.09032 15.4721 2.19332L15.4651 2.20432C15.4671 2.20532 15.4681 2.20732 15.4701 2.20832C16.1761 2.76232 17.0151 3.11631 17.8941 3.48731C18.7571 3.85131 19.6601 4.2323 20.4381 4.8403C21.8761 5.7873 23.8561 5.46331 25.5161 4.93231L25.5641 4.9223C25.6701 4.9103 25.7691 4.91031 25.8611 4.92031L25.8511 4.81131C27.7521 4.06531 29.7921 3.39331 31.9161 3.64131L32.3431 3.70432L32.4751 3.7713C32.7281 4.0203 33.0741 4.26231 33.4741 4.51731C33.6691 4.64231 33.8791 4.77131 34.0921 4.90431L34.7311 5.31531L34.8331 5.46631C34.9231 5.84931 34.9611 6.21031 35.1261 6.55431C35.2781 6.86931 35.5371 7.15531 36.0761 7.31731L36.1541 7.35631C36.1981 7.38931 36.2741 7.42831 36.3861 7.47031C36.4951 7.51031 36.6241 7.5493 36.7661 7.5883C37.0401 7.6633 37.3741 7.7433 37.6411 7.8383C37.7761 7.8863 37.9101 7.94231 38.0201 8.01331C38.1261 8.08131 38.2431 8.18131 38.2941 8.33031C38.3511 8.49431 38.3081 8.65531 38.2191 8.79131C38.1801 8.85031 38.1291 8.90631 38.0711 8.96331C38.1381 9.02231 38.1921 9.07431 38.2291 9.12331C38.2691 9.17631 38.3201 9.25931 38.3171 9.36731C38.3141 9.47531 38.2581 9.55232 38.2251 9.59232C38.1941 9.62932 38.1491 9.67031 38.1241 9.69431C38.0931 9.72531 38.0621 9.75831 38.0301 9.79831C38.0011 9.83231 37.9711 9.87632 37.9411 9.93032C38.3341 10.0183 38.6611 10.1263 38.9911 10.2503C39.3011 10.3663 39.6021 10.4903 39.9661 10.6223L40.3531 10.7563L40.4691 10.8373C40.7041 11.1293 40.8501 11.1743 40.9251 11.1743C41.0121 11.1733 41.1171 11.1183 41.2811 10.9683C41.3591 10.8953 41.4361 10.8173 41.5261 10.7283C41.6121 10.6433 41.7081 10.5513 41.8121 10.4703C41.9941 10.3273 42.2221 10.2013 42.4991 10.1983L42.6211 10.2053L42.6691 10.2153C43.1501 10.3713 43.4681 10.4893 43.6471 10.5933C43.7261 10.6383 43.8401 10.7153 43.8861 10.8433C43.9481 11.0143 43.8531 11.1473 43.7901 11.2103C43.7301 11.2703 43.6471 11.3223 43.5781 11.3623C43.4871 11.4163 43.4361 11.4423 43.3341 11.5033C43.1921 11.5873 43.0441 11.6883 42.9091 11.8163C42.9551 11.9663 43.0461 12.0543 43.1711 12.1263C43.2561 12.1753 43.3551 12.2153 43.4721 12.2593C43.5831 12.3003 43.7161 12.3473 43.8401 12.4013L43.9481 12.7693C43.7831 13.0143 43.5571 13.2343 43.3361 13.4343C43.1071 13.6423 42.8871 13.8253 42.6901 14.0253C42.3171 14.4033 42.1161 14.7523 42.2241 15.1943C42.6461 15.5963 43.1321 15.9593 43.6231 16.3533C44.1251 16.7563 44.6241 17.1893 44.9921 17.7043L45.0371 17.8833C44.9771 18.3343 44.7111 18.6323 44.3941 18.8473C44.0881 19.0533 43.7051 19.2023 43.3791 19.3413C43.0361 19.4873 42.7501 19.6263 42.5601 19.8143C42.3891 19.9833 42.2871 20.1993 42.3271 20.5443C42.4321 20.8763 42.4401 21.1643 42.3181 21.3993C42.3001 21.4333 42.2791 21.4633 42.2581 21.4923L42.2981 21.5233C42.3161 21.7423 42.4061 21.8863 42.5451 22.0053C42.6961 22.1333 42.9051 22.2303 43.1591 22.3373C43.4011 22.4383 43.6891 22.5503 43.9381 22.7053C44.1801 22.8563 44.4041 23.0593 44.5421 23.3583C45.0211 23.8563 45.1401 24.4443 45.1431 25.0123C45.1441 25.2983 45.1161 25.5883 45.0871 25.8593C45.0671 26.0473 45.0501 26.2253 45.0371 26.3963C45.7101 26.2693 46.3901 26.2103 47.0531 26.1503C48.2311 26.0433 49.3601 25.9283 50.4041 25.4463L50.4591 25.4293C51.4641 25.2243 52.4071 25.4613 53.2981 25.7823C53.7401 25.9423 54.1891 26.1303 54.6171 26.2963C55.0501 26.4633 55.4741 26.6133 55.9001 26.7133L56.0921 26.7433C56.5411 26.7933 57.0001 26.7143 57.4841 26.5893C57.9511 26.4683 58.4701 26.2943 58.9761 26.1893C58.9841 25.7143 59.0661 25.2393 59.3251 24.9023C59.4811 24.7003 59.6951 24.5553 59.9721 24.4913C60.2381 24.4293 60.5491 24.4463 60.9071 24.5373C61.3291 24.6053 61.6521 24.7383 61.8591 24.9443C62.0771 25.1633 62.1401 25.4383 62.0881 25.7093C62.0391 25.9683 61.8871 26.2183 61.6931 26.4353C61.5011 26.6493 61.2541 26.8443 60.9801 27.0053C60.8441 27.1143 60.6981 27.2923 60.5431 27.5163C60.3881 27.7433 60.2371 27.9993 60.0891 28.2503C59.9441 28.4963 59.7991 28.7413 59.6651 28.9303C59.5991 29.0243 59.5291 29.1123 59.4561 29.1823C59.3891 29.2483 59.2931 29.3243 59.1721 29.3483L58.8741 29.1043C58.8731 28.9733 58.8481 28.8843 58.8151 28.8233C58.7831 28.7643 58.7361 28.7173 58.6721 28.6803C58.5331 28.5993 58.3171 28.5633 58.0231 28.5583C57.7261 28.5543 57.4261 28.5813 57.0931 28.5903C56.8001 28.5973 56.4861 28.5893 56.2221 28.5093C55.5811 28.5443 55.0631 28.2863 54.6781 28.1573C54.4701 28.0883 54.2951 28.0513 54.1231 28.0673C53.9571 28.0833 53.7701 28.1523 53.5441 28.3373L53.5321 28.3463C53.1911 28.5923 52.8781 28.6443 52.5881 28.5783C52.3261 28.5183 52.0981 28.3603 51.9421 28.2643C51.7591 28.1523 51.6621 28.1163 51.5781 28.1293C51.5011 28.1413 51.3521 28.2133 51.1271 28.5593L51.1191 28.5713C50.6331 29.2333 49.9351 29.1993 49.3951 29.1283C49.1061 29.0903 48.8771 29.0453 48.6661 29.0443C48.5471 29.0433 48.4581 29.0593 48.3881 29.0883C48.5521 29.4823 48.8191 29.7243 49.1521 29.9393C49.3471 30.0663 49.5541 30.1763 49.7851 30.3083C50.0081 30.4363 50.2441 30.5793 50.4721 30.7593L50.7331 30.9503C50.8091 31.0083 50.8741 31.0613 50.9291 31.1093C51.0321 31.1993 51.1201 31.2883 51.1681 31.3723C51.1901 31.4093 51.2321 31.4933 51.2131 31.5963C51.1891 31.7313 51.0831 31.7953 51.0091 31.8173C50.9451 31.8363 50.8831 31.8333 50.8431 31.8283C50.7991 31.8233 50.7521 31.8113 50.7081 31.7993C50.5351 31.7493 50.3031 31.6423 50.0821 31.5103C49.8751 31.3863 49.6591 31.2283 49.4981 31.0553C49.0961 30.7823 48.6431 30.8643 48.4651 31.0103C48.4241 31.0433 48.4091 31.0703 48.4051 31.0843C48.4021 31.0923 48.4011 31.1023 48.4091 31.1203C48.4321 31.1673 48.5231 31.2693 48.7891 31.3723L48.9141 31.4163L48.9471 31.4303C49.1391 31.5223 49.2891 31.6173 49.3961 31.7143C49.4981 31.8073 49.5901 31.9283 49.6051 32.0773C49.6211 32.2473 49.5311 32.3763 49.4231 32.4503C49.3231 32.5193 49.2001 32.5503 49.0841 32.5603C48.6481 32.6003 47.9681 32.3613 47.7061 31.6613C47.5341 31.5423 47.3451 31.4603 47.1701 31.4193C46.9701 31.3713 46.8171 31.3793 46.7391 31.4063C46.7371 31.4073 46.7341 31.4073 46.7331 31.4083C46.7611 31.4713 46.8571 31.6023 47.1161 31.7923C47.4781 31.9183 47.7391 32.0393 47.8961 32.1583C47.9721 32.2163 48.0631 32.3023 48.0981 32.4203C48.1181 32.4863 48.1191 32.5623 48.0901 32.6363C48.0631 32.7063 48.0151 32.7563 47.9701 32.7903C47.8871 32.8523 47.7821 32.8823 47.6921 32.8973C47.5941 32.9143 47.4811 32.9193 47.3591 32.9173C47.1131 32.9123 46.8061 32.8713 46.4641 32.7913L46.2721 32.5473C46.2741 32.1763 46.0661 31.8503 45.7091 31.5533C45.3521 31.2553 44.8801 31.0143 44.4321 30.8143V30.8123C44.2941 30.7613 44.1891 30.6723 44.1231 30.5553C44.0581 30.4373 44.0381 30.3083 44.0351 30.1983C44.0321 30.0453 44.0631 29.8693 44.0871 29.7373C43.9991 29.7933 43.8851 29.8703 43.7431 29.9763L43.6431 30.0213C43.4461 30.0613 43.3601 30.1343 43.3131 30.2073C43.2571 30.2933 43.2271 30.4193 43.2151 30.6113C43.2091 30.7053 43.2081 30.8053 43.2061 30.9173C43.2051 31.0263 43.2041 31.1463 43.1981 31.2683C43.1871 31.4773 43.1591 31.7033 43.0891 31.9313C43.3151 32.3113 43.6101 32.6063 43.9151 32.9493C44.2171 33.2893 44.5141 33.6683 44.6561 34.1853C44.7921 34.2873 44.9741 34.4143 45.1931 34.5753C45.4341 34.7533 45.7011 34.9633 45.9141 35.1803C46.1161 35.3853 46.3181 35.6443 46.3461 35.9233C46.3611 36.0763 46.3241 36.2283 46.2231 36.3623C46.1261 36.4903 45.9831 36.5863 45.8101 36.6613L45.8091 36.6593C45.7601 36.6803 45.7081 36.6863 45.6611 36.6783C45.6051 36.6673 45.5671 36.6403 45.5531 36.6303C45.5231 36.6073 45.5021 36.5813 45.4951 36.5723C45.4781 36.5493 45.4601 36.5213 45.4471 36.4993C45.4091 36.4383 45.3831 36.3933 45.3291 36.3073C45.2341 36.1563 45.1081 35.9733 44.9611 35.8263C44.8111 35.6753 44.6651 35.5913 44.5341 35.5793C44.4571 35.5723 44.3551 35.5893 44.2311 35.6793C44.6551 36.0873 44.7951 36.5953 44.6031 37.0413C44.4781 37.3303 44.2311 37.5483 43.9041 37.6733C43.9311 37.6813 43.9591 37.6903 43.9881 37.6983C44.2541 37.7773 44.5531 37.8693 44.8121 37.9763C45.0231 38.0643 45.2461 38.1773 45.3961 38.3293C46.2431 38.5103 47.1941 39.1203 47.7781 39.6713C47.9351 39.6763 48.1381 39.7053 48.3451 39.7493C48.6101 39.8053 48.9061 39.8913 49.1581 40.0063C49.2841 40.0633 49.4071 40.1313 49.5091 40.2093C49.6091 40.2853 49.7071 40.3853 49.7631 40.5113C49.8231 40.6473 49.8261 40.7983 49.7591 40.9453C49.7221 41.0283 49.6641 41.1013 49.5941 41.1703C49.6451 41.3163 49.6971 41.4973 49.7381 41.6843C49.7991 41.9633 49.8451 42.2803 49.8441 42.5523C49.8431 42.6873 49.8311 42.8243 49.7961 42.9443C49.7621 43.0603 49.6951 43.1983 49.5561 43.2783C49.4071 43.3643 49.2431 43.3453 49.1031 43.2863C48.9661 43.2293 48.8211 43.1233 48.6671 42.9793V42.9783C48.4801 42.8193 48.3011 42.6173 48.1331 42.4303C47.9561 42.2323 47.7881 42.0473 47.6121 41.9003C47.4361 41.7543 47.2691 41.6613 47.0991 41.6303C46.9361 41.6003 46.7431 41.6233 46.5051 41.7593L46.4361 41.7863C46.0631 41.8673 45.7821 41.9233 45.5691 41.9803C45.3431 42.0413 45.2571 42.0883 45.2291 42.1163C45.2281 42.1233 45.2281 42.1473 45.2451 42.1953C45.2661 42.2533 45.3001 42.3253 45.3541 42.4153L45.5721 42.7463L45.6161 42.8663C45.6251 42.9623 45.6501 43.0243 45.6791 43.0653C45.7081 43.1073 45.7491 43.1423 45.8061 43.1723C45.9321 43.2383 46.1031 43.2653 46.3181 43.2953C46.4171 43.3093 46.5281 43.3233 46.6291 43.3473C46.7301 43.3703 46.8431 43.4053 46.9411 43.4713C47.0461 43.5403 47.1331 43.6443 47.1701 43.7873C47.2051 43.9223 47.1901 44.0683 47.1471 44.2173L46.9871 44.3833C46.7371 44.4673 46.5221 44.5543 46.2881 44.6383C46.0691 44.7163 45.8441 44.7863 45.6371 44.8063C45.4261 44.8263 45.1991 44.7963 45.0131 44.6383C44.8651 44.5123 44.7741 44.3283 44.7181 44.1043C44.4761 44.0313 44.2671 43.9843 44.0981 43.9653C43.8861 43.9413 43.7891 43.9693 43.7581 43.9893C43.7521 43.9933 43.7511 43.9953 43.7481 44.0033C43.7441 44.0163 43.7391 44.0513 43.7521 44.1213C43.7801 44.2633 43.8761 44.4843 44.0801 44.8033C44.7791 45.5843 45.0711 46.7243 45.2701 47.8353L45.1781 48.0753C45.0491 48.1763 44.8901 48.1643 44.7981 48.1493C44.6921 48.1333 44.5741 48.0953 44.4611 48.0563C44.2201 47.9703 43.9761 47.8683 43.7171 47.7983C43.4591 47.7283 43.2501 47.7123 43.1001 47.7653C42.9751 47.8103 42.8421 47.9213 42.7691 48.2413L42.6611 48.3963C42.5281 48.4833 42.3781 48.5093 42.2291 48.4673C42.0941 48.4283 41.9841 48.3393 41.8991 48.2503C41.7301 48.0743 41.5701 47.8033 41.4191 47.5533C41.2601 47.2883 41.1001 47.0253 40.9211 46.8143C40.7981 46.6693 40.6751 46.5663 40.5541 46.5013C40.4021 46.7543 40.2211 46.9403 40.0131 47.0543C39.7481 47.1983 39.4641 47.2133 39.2001 47.1303C38.6861 46.9673 38.2711 46.4453 38.0981 45.8193L38.1581 45.5813C38.3691 45.3583 38.4611 45.1493 38.4851 44.9593C38.5081 44.7673 38.4651 44.5703 38.3651 44.3703C38.1591 43.9613 37.7321 43.5753 37.2941 43.2843C36.9581 43.1043 36.7711 42.8333 36.7241 42.5203C36.6781 42.2143 36.7711 41.9023 36.9161 41.6353C37.0631 41.3653 37.2761 41.1193 37.5091 40.9383C37.7371 40.7623 38.0141 40.6263 38.2891 40.6303L38.3791 40.6483C38.8401 40.8343 39.2121 40.6323 39.7371 40.4193C39.9821 40.3193 40.2641 40.2193 40.5711 40.2273C40.8741 40.2363 41.1741 40.3493 41.4781 40.6083C41.7931 40.6923 42.1111 40.8323 42.4121 40.9743C42.7411 41.1303 43.0511 41.2853 43.3591 41.3973C43.6651 41.5083 43.9441 41.5673 44.2011 41.5423C44.4511 41.5173 44.7001 41.4133 44.9491 41.1613L45.0071 41.1163C45.0531 41.0913 45.0901 41.0663 45.1211 41.0463C45.0501 41.0233 44.9621 41.0003 44.8591 40.9773C44.6071 40.9213 44.2581 40.8603 43.9641 40.7803C43.8141 40.7393 43.6641 40.6903 43.5321 40.6293C43.4221 40.5783 43.3131 40.5113 43.2241 40.4243C41.3021 39.5053 38.9921 39.6873 36.9261 40.2243L36.7771 40.2173C36.2871 40.0373 35.9131 39.5733 35.5971 39.1333C35.2611 38.6653 34.9781 38.2083 34.6481 37.8953L34.8411 37.4653C35.0401 37.4823 35.2911 37.4483 35.5341 37.3773C35.7791 37.3053 35.9911 37.2023 36.1191 37.1013C36.1721 37.0603 36.1981 37.0263 36.2111 37.0063C36.1971 36.9933 36.1701 36.9733 36.1201 36.9493C36.0431 36.9123 35.9261 36.8743 35.7631 36.8403C35.0001 37.1433 34.3291 36.8953 33.7491 36.5313C33.4521 36.3443 33.1641 36.1193 32.8941 35.9113C32.6191 35.6993 32.3611 35.5063 32.1061 35.3633L32.0111 35.2703C31.9511 35.1663 31.8771 35.0523 31.8021 34.9313C31.7291 34.8153 31.6541 34.6903 31.5991 34.5813V34.5283L31.5781 34.5253C31.3321 33.4723 30.6141 32.6443 29.6051 32.1783L29.2981 32.0483C29.0191 31.9233 28.8161 31.8143 28.6741 31.7113C28.4751 31.5653 28.3601 31.4023 28.3521 31.1913C28.3481 31.1023 28.3651 31.0193 28.3811 30.9533C28.4001 30.8733 28.4141 30.8323 28.4301 30.7573C28.4521 30.6533 28.4641 30.5333 28.4421 30.3803C28.3141 30.2853 28.2131 30.1823 28.1461 30.0643C28.0601 29.9143 28.0341 29.7583 28.0511 29.6073C28.0821 29.3293 28.2591 29.0673 28.3951 28.8683C28.5501 28.6413 28.6711 28.4683 28.7151 28.3063C28.7341 28.2353 28.7341 28.1773 28.7191 28.1263C28.7041 28.0743 28.6651 28.0063 28.5751 27.9263L28.5481 27.5793C28.6911 27.4063 28.7221 27.2243 28.7001 27.0173C28.6751 26.7893 28.5941 26.5753 28.5211 26.3093C28.4561 26.0753 28.3901 25.7723 28.5181 25.4973C28.6381 25.2373 28.8941 25.0693 29.2701 24.9623C29.3321 24.7473 29.2891 24.6453 29.2431 24.5833C29.1661 24.4783 29.0221 24.4003 28.7961 24.2903C28.6651 24.2263 28.5021 24.1453 28.3551 24.0353L28.3001 24.0803C27.5801 24.0093 27.1861 23.5623 26.8591 23.1583C26.5211 22.7413 26.2561 22.3813 25.7811 22.2243C25.3661 22.1123 24.8861 21.9813 24.5171 21.7443C24.4131 21.6773 24.3161 21.5993 24.2291 21.5103C24.2021 21.5103 24.1771 21.5103 24.1521 21.5083C24.0401 21.4963 23.9271 21.4573 23.8221 21.4103C23.6101 21.3163 23.3741 21.1613 23.1451 20.9983C22.9201 20.8383 22.6681 20.6453 22.4561 20.4923C22.2891 20.3713 22.1371 20.2683 22.0081 20.1933L21.8871 20.1283C21.3421 19.8653 20.7851 19.6033 20.2411 19.3373L20.2371 19.3143L20.2091 19.3193C20.1181 19.2583 20.0521 19.1803 20.0111 19.0873C19.9841 19.0913 19.9561 19.0983 19.9271 19.1013L19.7601 19.0653C18.8541 18.4943 17.8561 17.8863 17.0471 17.2073C16.3831 17.2173 15.7981 16.8983 15.3081 16.6793C14.7691 16.4373 14.3151 16.2953 13.8031 16.5213L13.8011 16.5223C13.4401 16.6783 13.1241 16.6483 12.8491 16.4963C12.5951 16.3563 12.3881 16.1183 12.2071 15.9023C12.0161 15.6733 11.8461 15.4563 11.6461 15.2823C11.4521 15.1143 11.2481 15.0053 11.0031 14.9843L10.9431 14.9723C10.4791 14.8123 9.92312 14.3983 9.49612 13.9833C9.28012 13.7733 9.08709 13.5523 8.94809 13.3493C8.87809 13.2483 8.8191 13.1453 8.7781 13.0473C8.7381 12.9523 8.70508 12.8403 8.71408 12.7263L8.97812 12.4973C9.10012 12.5043 9.21513 12.5083 9.32113 12.5143C9.27213 12.4953 9.2221 12.4753 9.1691 12.4553L9.14212 12.4433C8.63112 12.1783 8.09313 11.7873 7.75613 11.2873C7.43613 10.8113 7.29912 10.2323 7.54312 9.59832C6.95212 8.87632 6.12811 8.33931 5.23611 8.03531C4.84711 8.97531 4.4501 9.63031 3.7001 10.2103C3.5921 10.3273 3.46908 10.4133 3.33108 10.4573C3.18208 10.5043 3.0341 10.4973 2.8981 10.4533C2.6381 10.3693 2.42008 10.1543 2.24808 9.93032C1.91408 9.49132 1.65613 8.87431 1.56613 8.48731C1.36513 8.16931 1.22911 7.91231 1.17111 7.70331C1.14011 7.59231 1.12612 7.4773 1.14712 7.3663C1.16912 7.2483 1.22809 7.15031 1.31509 7.07631C1.33909 7.05631 1.36512 7.0383 1.39212 7.0213L1.3931 7.0193C1.4151 6.9733 1.4461 6.94431 1.4581 6.93331C1.4851 6.91031 1.51212 6.89731 1.52212 6.89131C1.55912 6.87231 1.63809 6.84131 1.69009 6.81931C1.82309 6.76331 1.99609 6.68131 2.13809 6.55931C2.22509 6.48531 2.29111 6.39931 2.33511 6.30231C2.07311 6.21431 1.86813 6.10031 1.70413 5.96231C1.49313 5.78331 1.36611 5.57932 1.27511 5.38932C1.23011 5.29532 1.1941 5.20232 1.1611 5.12032C1.1281 5.03532 1.09912 4.96331 1.06912 4.89731C1.00812 4.76831 0.952127 4.69431 0.876127 4.64931L0.905119 4.20632C1.09012 4.12532 1.19509 4.05831 1.25009 4.01331C1.23709 4.00331 1.2211 3.98931 1.2001 3.97631C1.1221 3.93031 1.0211 3.88331 0.906096 3.83231C0.797096 3.78431 0.672097 3.73032 0.570097 3.67432C0.518097 3.64532 0.463129 3.61131 0.415129 3.57231C0.370129 3.53531 0.314119 3.47832 0.280119 3.40032C0.241119 3.31132 0.238133 3.20931 0.282133 3.11331C0.320133 3.02931 0.386111 2.96831 0.447111 2.92531C0.565111 2.84031 0.744131 2.76431 0.980131 2.68831C1.09513 2.62631 1.2051 2.5813 1.2861 2.5473C1.3191 2.5333 1.34509 2.51931 1.36709 2.50931C1.34509 2.47731 1.31312 2.43532 1.26712 2.38532L1.44211 1.96732C2.04111 1.94132 2.61112 2.01831 3.15512 2.10431C3.56712 2.17031 3.96109 2.24131 4.35409 2.28331L4.7471 2.31531L4.85312 2.34432C5.11512 2.48432 5.33012 2.52532 5.51712 2.51432C5.70712 2.50232 5.89013 2.43632 6.08713 2.33132C6.29013 2.22232 6.48512 2.08631 6.72012 1.93531C6.94812 1.78931 7.20112 1.63831 7.49112 1.52831C7.79712 1.39331 8.11011 1.36132 8.40811 1.37032C8.70511 1.37932 9.01208 1.42831 9.27908 1.46131C9.83708 1.53031 10.2641 1.5313 10.6161 1.1873L10.8671 1.12831C11.6431 1.37731 11.9681 1.34831 12.1591 1.24831C12.2591 1.19631 12.3471 1.11331 12.4521 0.985308C12.5051 0.921308 12.5591 0.850313 12.6201 0.768313C12.6811 0.688313 12.7481 0.599311 12.8241 0.507311L12.8951 0.447314Z" fill="#9FE2AF" stroke="white" stroke-width="0.5" stroke-linejoin="round"/>
</svg>
