<svg width="60" height="37" viewBox="0 0 60 37" fill="none" xmlns="http://www.w3.org/2000/svg">
<path d="M6.61326 0.774773C7.68426 0.0317732 8.78924 0.206779 9.82524 0.514779C10.0842 0.591779 10.3443 0.678772 10.5993 0.763772C10.8563 0.848772 11.1093 0.931777 11.3603 1.00378C11.8643 1.14878 12.3513 1.24377 12.8263 1.22277L12.8713 1.22477C13.6813 1.33677 14.4653 1.10478 15.3063 0.852776C16.1273 0.606776 17.0082 0.340772 17.9212 0.485772L17.9933 0.507775C19.6453 1.32977 21.4372 1.48777 23.2962 1.53577C25.1182 1.58377 27.0223 1.52577 28.8403 1.92677C29.0923 1.86077 29.3503 1.75677 29.6213 1.63877C29.9043 1.51577 30.2073 1.37777 30.5113 1.27677C31.0913 1.08277 31.7213 1.00978 32.3623 1.40478L32.4913 1.48977L32.5052 1.49976C33.1382 2.02476 33.8502 2.13478 34.6502 2.17178L35.4812 2.19778L35.6683 2.29076C35.7503 2.39276 35.9302 2.47577 36.2212 2.53477C36.5052 2.59177 36.8103 2.61277 37.1123 2.65177C37.2563 2.66977 37.4003 2.69278 37.5243 2.72778C37.6433 2.76078 37.7812 2.81477 37.8802 2.91677C37.9332 2.97177 37.9753 3.04177 37.9953 3.12577C38.0143 3.20877 38.0083 3.29178 37.9873 3.36778C37.9683 3.43778 37.9333 3.50777 37.8893 3.57777C37.9393 3.59977 38.0013 3.62377 38.0773 3.64277C38.2703 3.69177 38.5053 3.72178 38.7773 3.75578C39.2793 3.81978 39.9033 3.89778 40.4013 4.18278C40.6663 4.19078 40.8993 4.26377 41.1083 4.35677C41.3243 4.45277 41.5513 4.58777 41.7283 4.67977C41.9203 4.77877 42.0913 4.84977 42.2643 4.87077C42.4323 4.89177 42.6183 4.86977 42.8423 4.75477L43.1203 4.78877C43.4513 5.07877 43.8713 5.15677 44.3453 5.20577C44.5713 5.22977 44.8243 5.24777 45.0523 5.28777C45.2603 5.32477 45.4712 5.38577 45.6632 5.49577C46.3262 5.55977 46.6753 5.44077 46.9593 5.28777C47.0363 5.24677 47.1092 5.20177 47.1872 5.15377C47.2642 5.10577 47.3482 5.05378 47.4342 5.00378C47.6102 4.90278 47.8103 4.80378 48.0643 4.73878L48.2433 4.75877C48.4283 4.85477 48.6692 4.91176 48.9552 4.95676C49.2202 4.99976 49.5603 5.03577 49.8443 5.08877C50.1383 5.14477 50.4433 5.22877 50.6903 5.39677C50.9173 5.54977 51.0873 5.76777 51.1683 6.06777L51.1972 6.20178L51.2002 6.22877C51.2072 6.36277 51.2363 6.43078 51.2593 6.46278C51.2783 6.49078 51.3052 6.50977 51.3542 6.52277C51.4102 6.53677 51.4893 6.54077 51.5973 6.53077C51.7033 6.51977 51.8233 6.49777 51.9563 6.47077C52.2073 6.41977 52.5242 6.34778 52.8042 6.36378C52.9492 6.37178 53.1023 6.40378 53.2413 6.48678C53.3393 6.54478 53.4203 6.62376 53.4873 6.72176C54.2943 6.75076 55.3213 6.69077 56.3443 6.95577C56.6483 6.79777 57.2113 6.55977 57.7503 6.46577C58.0473 6.41377 58.3693 6.40078 58.6423 6.49278C58.9363 6.59178 59.1613 6.81178 59.2283 7.17378L59.2333 7.20977C59.2413 7.40277 59.2902 7.62077 59.3482 7.86977C59.4042 8.10777 59.4673 8.37778 59.4783 8.63078C59.4903 8.88878 59.4482 9.16377 59.2652 9.39777C59.0902 9.62177 58.8143 9.76878 58.4353 9.85078C57.7753 10.2818 56.9733 10.5198 56.2853 10.7828C55.5613 11.0588 54.9363 11.3698 54.5243 11.9518L54.3813 12.0508C53.4093 12.2898 52.3363 12.4138 51.3633 12.6008C50.3693 12.7918 49.4333 13.0518 48.6263 13.5648L48.6253 13.5658C48.3843 13.7158 48.3543 13.8368 48.3523 13.9148C48.3503 14.0338 48.4053 14.1488 48.4773 14.3318C48.5083 14.4098 48.5462 14.5138 48.5542 14.6208C48.5622 14.7428 48.5322 14.8778 48.4212 14.9888C48.3222 15.0858 48.1853 15.1408 48.0353 15.1748C47.8903 15.2078 47.7073 15.2258 47.4783 15.2348C47.0533 15.3778 46.7673 15.7438 46.4413 16.2178C46.1303 16.6708 45.7783 17.2278 45.2203 17.5388L45.2212 17.5398C44.6842 17.8718 44.3043 18.3308 43.9783 18.8588C43.6643 19.3688 43.4203 19.8988 43.1213 20.4578C43.3453 21.0198 43.5342 21.5708 43.8252 22.0338C44.0872 22.4488 44.4183 22.7678 44.9103 22.9118L45.1322 22.9628L45.2463 23.0148C45.3853 23.1268 45.4973 23.2538 45.5483 23.4018C45.6033 23.5628 45.5782 23.7168 45.5022 23.8478C45.4322 23.9678 45.3233 24.0628 45.2143 24.1388C45.1013 24.2168 44.9692 24.2858 44.8332 24.3498C44.5662 24.4748 44.2423 24.5938 43.9803 24.7018C43.6973 24.8168 43.4973 24.9158 43.4013 25.0028L43.3672 25.0298C42.5292 25.5638 41.9542 26.3828 41.3902 27.2428L41.3473 27.2918C40.9853 27.6128 41.0562 28.0208 41.0542 28.5118C41.0532 28.7218 41.0363 29.0138 40.8133 29.2068C40.5973 29.3948 40.2663 29.4208 39.8443 29.3608C39.0473 29.3088 38.1502 29.4558 37.4292 29.8288C36.7102 30.2008 36.1802 30.7888 36.0592 31.6278L36.0353 31.7058C35.7723 32.2248 35.3483 32.6768 34.8533 32.9088C34.3733 33.1338 33.8213 33.1498 33.3193 32.8138C32.8323 32.8448 32.4442 33.0518 31.9582 33.2268C31.4712 33.4018 30.9393 33.5078 30.3003 33.1868C29.2473 33.2328 28.1682 33.2118 27.1142 33.2118C26.0622 33.2118 25.0282 33.2348 24.0362 33.3648C23.0982 34.3398 21.8463 34.5598 20.6413 34.6968C20.2933 35.2168 20.0452 35.5268 19.8562 35.7418C19.6442 35.9838 19.5503 36.0648 19.4623 36.1968L19.3703 36.2798C18.6573 36.6528 17.9432 36.4968 17.3222 36.1928C16.7102 35.8928 16.1302 35.4188 15.6822 35.0958L15.5793 34.9048C15.5563 34.4188 15.2552 34.1388 14.9262 33.8068C14.7732 33.6528 14.5962 33.4688 14.5052 33.2458C14.4222 33.0438 14.4153 32.8268 14.5013 32.5918C13.6263 31.4958 12.0773 31.0238 10.6573 30.9668C10.4893 31.0088 10.3323 31.0238 10.1933 30.9918C10.1593 30.9838 10.1282 30.9708 10.0982 30.9568L10.0693 30.9908C9.80725 31.1078 9.54726 31.2468 9.26426 31.3888C8.98826 31.5278 8.69628 31.6658 8.39628 31.7658C7.80428 31.9638 7.16225 32.0178 6.49925 31.6458C6.24725 31.6308 5.99528 31.6018 5.75328 31.5718C5.48728 31.5378 5.23326 31.5058 4.98326 31.4938C4.48826 31.4688 4.03725 31.5258 3.62425 31.7928L3.56224 31.8218C3.38824 31.8758 3.21927 31.9028 3.07127 31.8688C2.90027 31.8308 2.78124 31.7158 2.73124 31.5608C2.68924 31.4278 2.70126 31.2828 2.72526 31.1578C2.75126 31.0268 2.79726 30.8848 2.85026 30.7438C2.95626 30.4648 3.10725 30.1488 3.22825 29.8798C3.35825 29.5928 3.44526 29.3788 3.46226 29.2588L3.46726 29.2358C3.60226 28.6788 3.43924 28.2488 3.30424 27.7518C3.23824 27.5118 3.17825 27.2478 3.19725 26.9698C3.21625 26.6998 3.30724 26.4308 3.50724 26.1548C3.56724 25.8638 3.59226 25.6368 3.58226 25.4648C3.57126 25.2828 3.52428 25.1998 3.48228 25.1598C3.44328 25.1238 3.36323 25.0838 3.18223 25.0958C3.00123 25.1078 2.75125 25.1708 2.41825 25.3008L2.26823 25.3108C2.06523 25.2618 1.89928 25.2058 1.77128 25.1368C1.64728 25.0698 1.53128 24.9758 1.47428 24.8388C1.41328 24.6898 1.44524 24.5458 1.50724 24.4358C1.56524 24.3318 1.65428 24.2428 1.74528 24.1688C1.74728 24.1668 1.74924 24.1648 1.75224 24.1628C1.55324 24.2478 1.32627 24.2828 1.07627 24.2078C0.884274 24.1988 0.717279 24.1658 0.581279 24.0928C0.429279 24.0118 0.327253 23.8878 0.280253 23.7348C0.236253 23.5918 0.246258 23.4418 0.272258 23.3078C0.299258 23.1718 0.348239 23.0308 0.403239 22.8938C0.458239 22.7568 0.523283 22.6128 0.586283 22.4758C0.649283 22.3358 0.710248 22.1998 0.762248 22.0698C0.869248 21.7948 0.911281 21.5958 0.883281 21.4618C0.795281 21.1488 0.853242 20.8808 0.994242 20.6528C1.12824 20.4358 1.33626 20.2578 1.52226 20.1038C1.72026 19.9398 1.90326 19.7958 2.05326 19.6278C2.19726 19.4658 2.29425 19.2968 2.32225 19.0948L2.35325 19.0028C2.96725 17.9558 2.93524 17.1198 3.17424 16.0138C3.24424 15.6668 3.37324 15.3248 3.50724 14.9988C3.64424 14.6648 3.78326 14.3538 3.88926 14.0388C4.09926 13.4198 4.15528 12.8678 3.79228 12.3248L3.75724 12.2438C3.70324 12.0208 3.62426 11.7758 3.54026 11.5078C3.45726 11.2448 3.37024 10.9628 3.30924 10.6848C3.19124 10.1428 3.15327 9.53078 3.53227 9.07078L3.55229 9.05277C3.37929 8.78177 3.35026 8.50377 3.41526 8.23277C3.48826 7.92677 3.67925 7.64077 3.84025 7.40377C4.01525 7.14577 4.15525 6.94377 4.21525 6.75777C4.24225 6.67277 4.24623 6.60477 4.23423 6.54777C4.22323 6.49277 4.19224 6.42578 4.11424 6.34878L4.06724 6.28477C3.80724 5.77577 3.49824 5.41378 3.13224 5.15478C2.76424 4.89478 2.32527 4.72877 1.78727 4.62977L1.59226 4.45377C1.46526 4.02177 1.51525 3.63477 1.69725 3.30877C1.87525 2.98977 2.16928 2.74676 2.49528 2.56876C3.06228 2.25876 3.78427 2.11277 4.37327 2.10877L4.61723 2.11477L4.64323 2.11877C5.20523 2.21777 5.64223 2.15078 5.94523 1.96278C6.24023 1.77978 6.44824 1.45778 6.50724 0.951775L6.61326 0.774773Z" fill="#9FE2AF" stroke="white" stroke-width="0.5" stroke-linejoin="round"/>
</svg>
