<svg width="128" height="128" viewBox="0 0 128 128" fill="none" xmlns="http://www.w3.org/2000/svg">
<g clip-path="url(#clip0_188_650)">
<path d="M78.3175 31.1661L49.6825 12.8461C48.5435 12.2772 47.2851 11.9883 46.0119 12.0035C44.7388 12.0187 43.4876 12.3376 42.3625 12.9336L14.1275 31.8786C13.4851 32.2189 12.9477 32.7279 12.5728 33.3507C12.198 33.9735 11.9999 34.6867 12 35.4136V109.364C11.9999 110.053 12.1783 110.732 12.5177 111.332C12.8571 111.933 13.3461 112.435 13.9371 112.791C14.5281 113.147 15.2011 113.344 15.8906 113.363C16.5802 113.381 17.2629 113.222 17.8725 112.899L42.3275 96.9511C43.4618 96.3502 44.7241 96.031 46.0077 96.0206C47.2913 96.0101 48.5586 96.3087 49.7025 96.8912L77.6675 115.141C78.8015 115.719 80.0569 116.018 81.3296 116.013C82.6023 116.008 83.8554 115.7 84.985 115.114L113.842 96.1286C114.493 95.7912 115.038 95.2817 115.418 94.6557C115.799 94.0297 116 93.3112 116 92.5787V18.6486C116 17.9588 115.822 17.2807 115.482 16.6802C115.143 16.0796 114.654 15.5771 114.063 15.2213C113.472 14.8655 112.799 14.6687 112.109 14.6498C111.42 14.6309 110.737 14.7907 110.128 15.1136L85.6275 31.0786C84.5037 31.673 83.2543 31.991 81.9831 32.0062C80.7118 32.0214 79.4552 31.7335 78.3175 31.1661Z" stroke="white" stroke-width="8" stroke-linecap="round" stroke-linejoin="round"/>
<path d="M82 32V116" stroke="white" stroke-width="8" stroke-linecap="round" stroke-linejoin="round"/>
<path d="M46 12V96" stroke="white" stroke-width="8" stroke-linecap="round" stroke-linejoin="round"/>
</g>
<defs>
<clipPath id="clip0_188_650">
<rect width="128" height="128" fill="white"/>
</clipPath>
</defs>
</svg>
