<svg width="121" height="97" viewBox="0 0 121 97" fill="none" xmlns="http://www.w3.org/2000/svg">
<path d="M90.343 73.8463C90.615 73.8443 90.908 73.8933 91.17 73.9363C91.442 73.9803 91.683 74.0193 91.891 74.0193C92.653 73.9623 93.32 74.2913 93.907 74.5463C94.519 74.8133 95.065 75.0123 95.687 74.8543L95.912 74.9063C96.557 75.4633 97.327 75.6073 98.17 75.6033C98.593 75.6003 99.026 75.5603 99.466 75.5203C99.902 75.4803 100.348 75.4383 100.778 75.4383L100.939 75.4973C101.101 75.6343 101.292 75.6983 101.512 75.7273C101.742 75.7563 101.978 75.7443 102.249 75.7433C102.505 75.7433 102.79 75.7523 103.055 75.8473C103.318 75.9413 103.549 76.1153 103.724 76.4083C104.162 76.7743 104.706 76.9193 105.324 77.0543C105.934 77.1873 106.625 77.3143 107.225 77.7013L107.255 78.0943C107.135 78.2013 107.085 78.2753 107.065 78.3173V78.3223C107.075 78.3293 107.095 78.3413 107.115 78.3523C107.175 78.3763 107.255 78.3983 107.365 78.4133C107.575 78.4443 107.845 78.4433 108.095 78.4213C108.315 78.4023 108.505 78.3683 108.625 78.3333C108.975 77.8883 109.505 77.6433 110.035 77.5953C110.515 77.5533 111.015 77.6653 111.425 77.9473C111.575 77.7773 111.755 77.6733 111.965 77.6333C112.235 77.5803 112.505 77.6443 112.755 77.7373C113.005 77.8303 113.255 77.9663 113.475 78.0863C113.645 78.1803 113.795 78.2633 113.935 78.3223L114.065 78.3743L114.165 78.4363C114.185 78.4643 114.245 78.4963 114.325 78.5243C114.415 78.5513 114.515 78.5713 114.645 78.5853C114.765 78.5993 114.905 78.6073 115.035 78.6143C115.175 78.6223 115.315 78.6303 115.445 78.6443C115.575 78.6583 115.705 78.6803 115.825 78.7213C115.945 78.7623 116.075 78.8333 116.155 78.9653C116.245 79.1053 116.245 79.2653 116.205 79.4183C116.165 79.5563 116.085 79.7053 115.965 79.8663C115.915 80.0163 115.935 80.1393 116.005 80.2583C116.085 80.3943 116.245 80.5313 116.455 80.6593C116.875 80.9063 117.425 81.0753 117.815 81.1633C118.155 81.1073 118.465 81.1223 118.705 81.2013C118.965 81.2853 119.175 81.4463 119.265 81.6833C119.365 81.9263 119.305 82.1863 119.145 82.4083C119.015 82.5903 118.805 82.7523 118.535 82.8933C118.615 83.2393 118.845 83.4753 119.165 83.6713C119.355 83.7853 119.565 83.8813 119.785 83.9743C119.895 84.0193 120.005 84.0653 120.115 84.1123L120.435 84.2543L120.565 84.3873C120.715 84.7773 120.715 85.1273 120.555 85.4033C120.395 85.6733 120.115 85.8123 119.825 85.8653C119.535 85.9193 119.215 85.8943 118.915 85.8103C118.655 85.7373 118.405 85.6163 118.195 85.4473C117.105 85.5993 116.045 85.1683 115.285 84.4383C114.555 84.0303 113.695 84.1713 112.995 84.6343C113.225 84.7213 113.445 84.8623 113.675 85.0743L113.695 85.4063C113.635 85.4953 113.605 85.5503 113.605 85.5773C113.625 85.5933 113.675 85.6163 113.765 85.6383C113.855 85.6633 113.975 85.6823 114.115 85.7053C114.375 85.7493 114.705 85.8023 114.975 85.9283C115.265 86.0623 115.515 86.2983 115.545 86.7063L115.355 86.9633C114.995 87.0553 114.805 87.3543 114.815 87.6753C114.815 87.9893 115.025 88.3653 115.585 88.5623L115.635 88.5843C115.815 88.6943 116.035 88.8053 116.275 88.9423C116.505 89.0713 116.755 89.2213 116.935 89.3873C117.105 89.5453 117.285 89.7813 117.235 90.0753C117.175 90.3563 116.935 90.5723 116.585 90.7513L116.425 90.7753C116.275 90.7463 116.155 90.7333 116.065 90.7273C116.075 90.7323 116.075 90.7373 116.085 90.7423C116.295 90.9653 116.685 91.2393 116.975 91.4253L117.235 91.5763L117.355 91.7033C117.415 91.8533 117.545 91.9613 117.765 92.0423C117.985 92.1253 118.255 92.1643 118.535 92.2023C118.805 92.2383 119.105 92.2743 119.315 92.3623C119.425 92.4073 119.555 92.4793 119.625 92.6043C119.715 92.7383 119.725 92.8913 119.685 93.0403L119.565 93.1943C119.475 93.2473 119.445 93.2883 119.435 93.3063C119.435 93.3183 119.425 93.3353 119.435 93.3683C119.445 93.4083 119.475 93.4603 119.515 93.5293C119.555 93.5963 119.615 93.6653 119.675 93.7413C119.735 93.8133 119.795 93.8973 119.845 93.9803C119.895 94.0573 119.955 94.1733 119.945 94.3073C119.935 94.4463 119.865 94.5483 119.765 94.6203C119.805 94.6913 119.825 94.7673 119.845 94.8453C119.885 95.0723 119.835 95.3253 119.695 95.5033C119.505 95.8423 119.255 96.0813 118.985 96.2103C118.705 96.3423 118.415 96.3513 118.145 96.2623C117.605 96.0863 117.195 95.5433 117.065 94.8653L117.055 94.7853C117.105 94.4223 116.885 94.2013 116.555 93.8963C116.405 93.7573 116.225 93.5903 116.105 93.3913C116.035 93.2603 115.985 93.1153 115.975 92.9553C115.835 92.9653 115.675 92.9843 115.505 93.0053C115.235 93.0403 114.945 93.0823 114.665 93.0883C114.375 93.0943 114.075 93.0643 113.805 92.9433C113.535 92.8213 113.305 92.6153 113.135 92.2993C113.015 92.1333 112.885 92.0593 112.725 92.0293C112.555 91.9953 112.355 92.0103 112.105 92.0473C111.865 92.0823 111.585 92.1373 111.315 92.1533C111.025 92.1683 110.725 92.1453 110.435 92.0103L110.335 91.9233C109.735 91.0463 108.795 90.9503 107.685 90.9363C106.965 91.0843 106.295 90.8113 105.93 90.3243C105.546 89.8153 105.515 89.0993 106.055 88.4723L106.069 88.4573C106.295 88.2273 106.405 88.0193 106.445 87.8383C106.485 87.6593 106.465 87.4833 106.385 87.3053C106.215 86.9353 105.822 86.5803 105.355 86.2703L105.332 86.2523C105.197 86.1393 105.085 86.0173 105.033 85.8853C105.03 85.8783 105.028 85.8713 105.026 85.8643L104.87 85.8343C104.545 85.6473 104.246 85.4103 103.962 85.1693C103.671 84.9213 103.41 84.6823 103.127 84.4523C102.589 84.0143 102.06 83.6933 101.43 83.6633C100.374 84.2483 99.196 84.7843 97.876 84.3903C97.644 84.3523 97.359 84.3473 97.061 84.3443C96.775 84.3413 96.463 84.3383 96.226 84.2933C96.108 84.2713 95.979 84.2333 95.874 84.1583C95.758 84.0753 95.676 83.9463 95.673 83.7803C95.671 83.6343 95.732 83.4893 95.817 83.3533C95.898 83.2223 96.017 83.0763 96.172 82.9123C96.482 82.2553 96.446 81.5363 96.263 80.7773C96.171 80.3923 96.043 80.0053 95.909 79.6173C95.779 79.2413 95.641 78.8583 95.534 78.4913C94.872 77.0183 93.156 76.4533 91.535 76.3373L91.468 76.3233C90.726 76.0583 89.807 75.7653 89.187 75.1903L89.109 74.9743C89.161 74.5703 89.306 74.2743 89.546 74.0843C89.782 73.8993 90.071 73.8483 90.343 73.8463ZM23.835 0.259276C25.602 0.187276 27.378 0.548273 29.024 0.862273C29.403 0.785273 29.8 0.794277 30.183 0.826277C30.384 0.843277 30.587 0.867273 30.783 0.890273C30.98 0.913273 31.172 0.93428 31.36 0.94728C32.114 1.00128 32.722 0.91728 33.154 0.33628L33.456 0.257277C33.649 0.342277 33.802 0.424279 33.916 0.504279C34.023 0.580279 34.126 0.678274 34.172 0.804274C34.228 0.957274 34.182 1.09728 34.1 1.19728C34.029 1.28228 33.93 1.34228 33.844 1.38528C33.67 1.47228 33.432 1.54528 33.238 1.60828C33.074 1.66128 32.943 1.70627 32.853 1.74927C32.666 2.35527 32.203 2.66128 31.782 2.89828C31.55 3.02828 31.343 3.13227 31.151 3.26227C30.999 3.36527 30.873 3.47528 30.777 3.60628C31.129 4.57328 31.219 5.43228 31.063 6.23928C31.301 6.46428 31.672 6.79528 31.926 7.08628C32.071 7.25228 32.213 7.44328 32.269 7.63028C32.298 7.72828 32.311 7.85027 32.262 7.97127C32.212 8.09627 32.113 8.17928 32.001 8.23128L31.899 8.25328C31.476 8.25628 31.123 8.47028 30.847 8.75328C30.714 8.89128 30.603 9.03928 30.517 9.17728C30.687 9.18728 30.836 9.23327 30.971 9.30527C31.165 9.40827 31.325 9.56128 31.461 9.69228C31.742 9.96028 31.996 10.2053 32.487 10.2543L32.701 10.5783C32.556 11.0373 32.432 11.2933 32.307 11.5423C32.207 11.7423 32.107 11.9363 31.991 12.2403C32.003 12.2453 32.016 12.2513 32.03 12.2563C32.151 12.3003 32.325 12.3583 32.498 12.4343C32.826 12.5783 33.234 12.8223 33.389 13.2863C33.494 13.4463 33.605 13.5873 33.719 13.7323C33.836 13.8793 33.959 14.0353 34.061 14.2043C34.275 14.5583 34.4 14.9673 34.323 15.5583L34.279 15.6693C34.245 15.7173 34.208 15.7603 34.169 15.8013C34.4 15.8353 34.625 15.8873 34.842 15.9443C35.117 15.7693 35.383 15.7253 35.639 15.7763C35.906 15.8283 36.138 15.9813 36.325 16.1093C36.528 16.2483 36.68 16.3593 36.836 16.4153C36.97 16.4633 37.099 16.4663 37.258 16.3703L37.314 16.3463C37.666 16.2393 38.352 16.2033 38.902 16.2703C39.174 16.3033 39.454 16.3643 39.649 16.4823C39.748 16.5413 39.852 16.6313 39.903 16.7643C39.958 16.9063 39.935 17.0523 39.869 17.1803L39.868 17.1823C39.72 17.4583 39.764 17.5473 39.769 17.5563C39.78 17.5733 39.838 17.6243 40.03 17.6333C40.206 17.6413 40.428 17.6093 40.648 17.5503C40.867 17.4923 41.065 17.4123 41.193 17.3393L41.227 17.3223C42.111 16.9793 42.955 16.9763 43.853 17.1163L44.242 17.1863L44.27 17.1933C44.73 17.3393 45.191 17.6163 45.6 17.8493C46.028 18.0923 46.398 18.2853 46.729 18.3323L46.893 18.7293C46.72 18.9613 46.659 19.1483 46.648 19.3043C46.637 19.4623 46.675 19.6173 46.746 19.7893C46.781 19.8763 46.824 19.9643 46.87 20.0593C46.915 20.1523 46.964 20.2533 47.008 20.3583C47.098 20.5683 47.177 20.8073 47.179 21.0823L47.025 21.3163C46.742 21.4333 46.597 21.5473 46.532 21.6363C46.477 21.7103 46.47 21.7753 46.496 21.8523C46.526 21.9443 46.607 22.0623 46.753 22.1973C46.883 22.3183 47.051 22.4393 47.244 22.5593C47.485 22.5483 47.696 22.5873 47.835 22.7483C47.91 22.8343 47.944 22.9313 47.961 23.0133C47.979 23.0923 47.985 23.1773 47.991 23.2443C48.003 23.3913 48.017 23.5083 48.074 23.6163C48.113 23.6923 48.182 23.7773 48.316 23.8613L48.473 23.9433L48.612 24.0993C48.75 24.5613 49.155 24.7113 49.743 24.8683C50.017 24.9423 50.333 25.0193 50.606 25.1493C50.888 25.2823 51.149 25.4813 51.303 25.8133L51.279 26.0663C51.162 26.2263 51.096 26.3433 51.065 26.4243C51.052 26.4573 51.048 26.4803 51.045 26.4943C51.08 26.5083 51.141 26.5213 51.237 26.5273C51.437 26.5383 51.674 26.5193 51.956 26.5143C52.195 26.5093 52.474 26.5163 52.702 26.5963C53.118 26.6123 53.407 26.6693 53.606 26.7833C53.836 26.9163 53.915 27.1033 53.958 27.2633C54.004 27.4283 54.01 27.5103 54.072 27.6123C54.124 27.6963 54.229 27.8063 54.496 27.9153C54.699 27.9763 54.862 28.0393 54.98 28.1133C55.095 28.1843 55.226 28.2993 55.242 28.4763C55.258 28.6523 55.15 28.7813 55.071 28.8543C54.985 28.9323 54.873 29.0023 54.76 29.0623C54.537 29.1813 54.234 29.3073 53.986 29.4203C53.717 29.5433 53.514 29.6523 53.416 29.7483L53.358 29.7903C52.175 30.4093 50.846 30.1783 49.759 29.7743C49.295 29.6043 48.964 29.8353 48.852 30.1233C48.795 30.2703 48.797 30.4283 48.862 30.5633C48.917 30.6783 49.03 30.7973 49.235 30.8803L49.33 30.9133L49.427 30.9713C49.795 31.3193 49.915 31.6833 49.974 32.0743C50.002 32.2603 50.018 32.4663 50.039 32.6653C50.059 32.8623 50.087 33.0703 50.137 33.2983C50.226 33.4733 50.342 33.6363 50.455 33.7943C50.512 33.8743 50.57 33.9573 50.618 34.0323C50.664 34.1063 50.713 34.1913 50.738 34.2803C50.74 34.2903 50.741 34.3003 50.744 34.3103C51.242 34.4413 51.801 34.5393 52.277 34.4703C52.528 34.4343 52.745 34.3523 52.916 34.2183C53.086 34.0853 53.228 33.8883 53.312 33.5913L53.341 33.5263C53.427 33.3893 53.541 33.2923 53.678 33.2373C53.812 33.1833 53.952 33.1733 54.082 33.1853C54.33 33.2073 54.611 33.3093 54.857 33.3943C55.119 33.4843 55.365 33.5623 55.595 33.5803C55.816 33.5973 56.009 33.5583 56.179 33.4213L56.205 33.4043C56.855 33.0003 57.537 33.0693 58.132 33.1343C58.75 33.2023 59.276 33.2643 59.781 33.0003L60.061 33.0343C60.476 33.3983 60.862 33.7793 61.242 34.1593C61.615 34.5333 61.982 34.9053 62.373 35.2683C62.602 35.3753 62.778 35.4723 62.904 35.5623C63.026 35.6493 63.15 35.7633 63.189 35.9143C63.238 36.1063 63.132 36.2483 63.04 36.3253C62.953 36.3983 62.84 36.4513 62.742 36.4913C62.643 36.5323 62.519 36.5773 62.421 36.6153C62.315 36.6573 62.222 36.6973 62.147 36.7393C62.069 36.7843 62.032 36.8203 62.018 36.8423C62.012 36.8523 62.007 36.8593 62.015 36.8863L62.023 36.9173C62.108 37.4433 62.337 37.8723 62.657 38.1293C62.969 38.3803 63.391 38.4883 63.921 38.3363L64.177 38.4113C64.25 38.4933 64.384 38.5393 64.625 38.5323C64.87 38.5263 65.124 38.4743 65.411 38.4383C65.545 38.4213 65.685 38.4073 65.816 38.4123C65.945 38.4183 66.088 38.4433 66.213 38.5173C66.348 38.5973 66.442 38.7223 66.484 38.8853C66.5 38.9483 66.507 39.0163 66.508 39.0863C66.699 39.0973 66.871 39.1663 67.019 39.2793C67.239 39.4463 67.391 39.7003 67.499 39.9583C67.705 40.4563 67.782 41.0683 67.803 41.4573C67.966 41.9043 68.242 42.1913 68.554 42.3133C68.869 42.4353 69.26 42.4083 69.68 42.1503L69.741 42.1233C70.388 41.9313 70.913 42.2413 71.323 42.4683C71.762 42.7113 72.084 42.8693 72.476 42.7203L72.732 42.7673C73.004 43.0103 73.341 42.9733 73.835 42.8133C74.061 42.7393 74.34 42.6333 74.595 42.5623C74.837 42.4943 75.098 42.4463 75.362 42.4673C75.828 42.2653 76.364 42.1653 76.837 42.2583C77.332 42.3553 77.75 42.6653 77.917 43.2433C78.458 43.8293 79.283 44.2713 80.039 44.3133C80.22 44.0483 80.436 43.8933 80.697 43.8583C80.975 43.8203 81.243 43.9323 81.466 44.0443C81.717 44.1703 81.913 44.2933 82.157 44.3973C82.385 44.4933 82.601 44.5443 82.82 44.5133L82.962 44.5343C83.392 44.7373 83.811 44.7603 84.28 44.8073C84.708 44.8503 85.168 44.9183 85.608 45.2203C86.278 45.1273 86.719 45.4413 87.086 45.7083C87.469 45.9863 87.769 46.2043 88.243 46.1533C88.396 46.0713 88.528 46.0113 88.643 45.9723C88.767 45.9303 88.892 45.9043 89.009 45.9203C89.142 45.9383 89.248 46.0063 89.318 46.1083C89.379 46.1963 89.404 46.2993 89.418 46.3793C89.433 46.4613 89.442 46.5553 89.451 46.6353C89.46 46.7203 89.47 46.8023 89.487 46.8823C89.512 47.0003 89.552 47.1073 89.621 47.1993L89.699 47.2873L89.778 47.4533C89.804 47.8393 89.586 48.1063 89.329 48.2823C89.079 48.4543 88.756 48.5693 88.478 48.6603C88.193 48.7543 87.967 48.8223 87.822 48.8973C88.035 48.9893 88.232 49.0803 88.393 49.1673C88.496 49.2233 88.59 49.2793 88.667 49.3353C88.739 49.3873 88.819 49.4553 88.869 49.5383C88.895 49.5833 88.922 49.6453 88.923 49.7203C88.924 49.8003 88.896 49.8733 88.85 49.9303C88.771 50.0283 88.648 50.0703 88.558 50.0923C88.378 50.1363 88.103 50.1493 87.728 50.1413C87.588 50.2853 87.59 50.3573 87.594 50.3843C87.605 50.4483 87.665 50.5353 87.821 50.6863C87.955 50.8163 88.159 50.9933 88.311 51.1953C88.466 51.4003 88.587 51.6563 88.582 51.9773C88.683 52.4273 88.595 53.0263 88.38 53.5343C88.162 54.0513 87.776 54.5653 87.225 54.6963L87.095 54.6923C85.964 54.3463 84.806 54.4063 83.587 54.4643C83.516 54.7163 83.381 54.9113 83.197 55.0573C82.974 55.2343 82.697 55.3293 82.429 55.3913C82.165 55.4523 81.869 55.4903 81.622 55.5313C81.412 55.5673 81.231 55.6073 81.082 55.6623C81.041 55.8523 81.021 56.0653 81.003 56.2953C80.983 56.5603 80.965 56.8563 80.902 57.1123C80.838 57.3693 80.719 57.6323 80.464 57.7963C80.219 57.9543 79.898 57.9863 79.504 57.9153C79.184 57.9643 78.857 57.9833 78.544 57.9983C78.212 58.0153 77.896 58.0283 77.594 58.0713C76.997 58.1543 76.487 58.3453 76.095 58.8553L75.979 58.9393C74.76 59.3623 73.419 59.3983 72.187 59.5273C70.935 59.6573 69.77 59.8803 68.781 60.6323L68.749 60.6533C68.395 60.8463 68.052 60.8283 67.756 60.7423C67.48 60.6623 67.204 60.5073 67.02 60.4213C66.798 60.3183 66.71 60.3143 66.663 60.3363C66.614 60.3593 66.498 60.4623 66.395 60.9093L66.364 60.9863C65.833 61.8323 64.995 61.9433 64.199 61.9093C63.812 61.8933 63.381 61.8393 63.013 61.8123C62.628 61.7833 62.277 61.7813 61.968 61.8493L61.916 61.8553C61.451 61.8603 61.164 61.9033 61.01 61.9583C61.002 61.9613 60.995 61.9653 60.989 61.9683C60.993 61.9723 60.997 61.9783 61.002 61.9833C61.054 62.0273 61.13 62.0803 61.234 62.1373C61.389 62.2233 61.594 62.3123 61.837 62.3993L62.094 62.4853L62.147 62.5083C62.75 62.8673 63.422 63.1623 64.1 63.4903C64.769 63.8143 65.438 64.1693 65.987 64.6343L66.054 64.9243C65.948 65.1693 65.967 65.3213 66.013 65.4143C66.062 65.5143 66.171 65.6053 66.351 65.6703C66.719 65.8023 67.261 65.7763 67.646 65.6243L67.667 65.6173C69.325 65.1313 71.145 64.9563 72.85 65.4443L72.995 65.8143C72.433 66.7323 71.706 67.5653 70.395 67.5263C70.064 67.5633 69.729 67.5303 69.412 67.4813C69.071 67.4273 68.777 67.3633 68.465 67.3253C67.87 67.2543 67.372 67.3083 66.95 67.7913L66.93 67.8123C66.251 68.4343 65.336 68.4303 64.57 68.4623C63.767 68.4963 63.093 68.5653 62.611 69.1393C62.058 69.9143 61.264 70.1043 60.475 70.0623C59.699 70.0203 58.875 69.7513 58.231 69.5733L58.084 69.2013C58.368 68.7433 58.637 68.2353 58.711 67.7603C58.748 67.5273 58.736 67.3113 58.664 67.1183C58.593 66.9323 58.459 66.7483 58.226 66.5803C57.069 66.0433 55.778 65.7273 54.56 66.0503L54.3 65.9643C54.195 65.8323 54.129 65.6843 54.126 65.5243C54.124 65.3633 54.187 65.2243 54.272 65.1113C54.434 64.8963 54.713 64.7283 54.989 64.5913C55.272 64.4503 55.599 64.3203 55.882 64.2033C56.176 64.0823 56.414 63.9773 56.558 63.8803C56.781 63.6963 57.103 63.6003 57.402 63.5343C57.563 63.4993 57.732 63.4703 57.894 63.4433C58.058 63.4153 58.215 63.3883 58.362 63.3583C58.508 63.3273 58.637 63.2943 58.743 63.2553C58.85 63.2163 58.919 63.1753 58.96 63.1373C58.996 63.1043 59.007 63.0773 59.01 63.0463C59.014 63.0073 59.004 62.9333 58.941 62.8133C58.727 62.4023 58.326 62.2993 57.749 62.3223C57.461 62.3333 57.163 62.3733 56.85 62.4073C56.557 62.4393 56.251 62.4633 55.971 62.4383C55.202 62.4833 54.293 62.5633 53.459 62.4303C52.61 62.2943 51.805 61.9333 51.276 61.0773L51.432 60.7023C51.783 60.6223 51.983 60.4893 52.087 60.3603C52.188 60.2353 52.218 60.0933 52.194 59.9473C52.148 59.6733 51.906 59.3813 51.565 59.2543C51.133 59.7643 50.541 59.8613 49.988 59.8843C49.837 59.8903 49.683 59.8923 49.535 59.8933C49.385 59.8943 49.239 59.8963 49.096 59.9033C48.809 59.9173 48.546 59.9523 48.311 60.0423L48.236 60.0583C47.135 60.1183 46.192 60.4743 45.606 61.3773L45.568 61.4223C44.96 61.9983 44.328 62.6593 43.628 63.1833C42.928 63.7073 42.135 64.1133 41.175 64.1923C40.844 64.2773 40.749 64.4163 40.713 64.5303C40.667 64.6773 40.694 64.8613 40.74 65.0733C40.76 65.1673 40.786 65.2803 40.796 65.3733C40.802 65.4223 40.805 65.4813 40.796 65.5403C40.787 65.6013 40.762 65.6803 40.698 65.7463C40.563 65.8853 40.375 65.8593 40.263 65.8323C40.137 65.8023 39.98 65.7363 39.787 65.6413C39.388 65.5163 39.015 65.6603 38.535 65.8563C38.132 66.0203 37.651 66.2203 37.115 66.1343C36.993 66.3163 36.797 66.4213 36.593 66.4683C36.32 66.5323 35.998 66.5083 35.696 66.4333C35.391 66.3573 35.082 66.2233 34.833 66.0443C34.627 65.8963 34.441 65.7003 34.351 65.4623C34.345 65.4593 34.338 65.4573 34.333 65.4543C34.33 65.4533 34.328 65.4523 34.326 65.4503C34.284 65.4453 34.243 65.4403 34.204 65.4303C33.979 65.3713 33.809 65.2353 33.698 65.0573C33.5 64.7393 33.498 64.3083 33.611 63.9193C33.244 63.0103 33.593 62.1153 33.847 61.3533C34.123 60.5283 34.303 59.8323 33.829 59.1383L33.787 59.0193C33.762 58.7423 33.663 58.5543 33.526 58.4053C33.382 58.2503 33.186 58.1293 32.949 58.0043C32.723 57.8853 32.445 57.7553 32.202 57.5953C31.961 57.4373 31.731 57.2353 31.565 56.9483C30.314 55.7643 29.368 54.3503 28.478 52.9233C28.353 52.8913 28.229 52.8543 28.114 52.8143C27.96 52.7603 27.824 52.7083 27.682 52.6643C27.402 52.5773 27.163 52.5403 26.933 52.6063L26.892 52.5103C26.751 52.5303 26.609 52.5533 26.468 52.5823C25.993 52.6813 25.663 52.8383 25.542 53.1333L25.491 53.2123C24.932 53.7873 24.179 53.9203 23.458 53.9643C23.106 53.9863 22.716 53.9873 22.378 54.0013C22.027 54.0163 21.698 54.0443 21.4 54.1183H21.277C21.109 54.0753 20.939 54.1123 20.741 54.2143C20.534 54.3213 20.34 54.4743 20.109 54.6353C19.895 54.7843 19.641 54.9463 19.365 54.9913C19.072 55.0393 18.788 54.9523 18.522 54.6983C18.09 54.4753 17.798 54.3173 17.461 54.2173C17.125 54.1183 16.733 54.0753 16.114 54.1193L16.113 54.1183C15.374 54.1893 14.636 54.0073 13.971 53.8713C13.284 53.7323 12.668 53.6403 12.085 53.8193L11.966 53.8253C11.682 53.7723 11.407 53.7453 11.133 53.7233C10.864 53.7013 10.587 53.6823 10.319 53.6423C9.78302 53.5623 9.256 53.3953 8.731 52.9463C8.299 52.7903 7.71999 52.5743 7.19499 52.3623C6.66499 52.1473 6.15703 51.9243 5.92803 51.7683L5.86601 51.4163L7.942 48.5003L8.18901 48.3993C8.44901 48.4443 8.64598 48.4723 8.79198 48.4833C8.85698 48.4873 8.90898 48.4873 8.94798 48.4873C8.92098 48.4293 8.885 48.3593 8.838 48.2723C8.784 48.1703 8.719 48.0503 8.661 47.9173C8.543 47.6523 8.43802 47.3223 8.45702 46.9473C8.44202 46.1423 8.94101 45.6263 9.47301 45.2223C9.73701 45.0223 10.04 44.8263 10.297 44.6453C10.564 44.4573 10.8 44.2733 10.977 44.0693L11.026 44.0263C11.293 43.8453 11.557 43.6333 11.834 43.4093C12.109 43.1893 12.395 42.9573 12.693 42.7523C13.273 42.3543 13.929 42.0343 14.699 42.0683C14.863 42.0003 14.955 41.9343 15.004 41.8793C15.052 41.8253 15.067 41.7753 15.067 41.7213C15.067 41.6593 15.046 41.5793 15 41.4803C14.955 41.3813 14.892 41.2773 14.822 41.1663C14.755 41.0613 14.677 40.9423 14.619 40.8333C14.563 40.7293 14.501 40.5903 14.503 40.4453C14.505 40.3653 14.527 40.2823 14.577 40.2063C14.623 40.1363 14.686 40.0843 14.755 40.0463C14.518 39.8493 14.27 39.6173 14.029 39.3773C13.639 38.9893 13.212 38.5323 12.873 38.1903L12.825 37.9073C12.916 37.7143 12.928 37.6253 12.918 37.5743C12.911 37.5353 12.879 37.4653 12.709 37.3443L12.648 37.1173C12.61 37.0953 12.572 37.0693 12.54 37.0313C12.457 36.9363 12.434 36.8213 12.435 36.7213C12.436 36.6243 12.461 36.5203 12.494 36.4153C12.56 36.2063 12.685 35.9273 12.853 35.5733L12.86 35.5593C12.978 35.3463 12.984 35.1663 12.932 35.0103C12.877 34.8453 12.749 34.6823 12.559 34.5333C12.174 34.2333 11.606 34.0503 11.192 34.0463L10.996 33.9473C10.797 33.6883 10.841 33.3873 10.963 33.1433C11.084 32.9023 11.298 32.6713 11.539 32.4733C11.782 32.2723 12.07 32.0913 12.356 31.9583C12.638 31.8273 12.937 31.7333 13.201 31.7223L13.249 31.7253C13.599 31.7783 13.817 31.7193 13.95 31.6283C14.081 31.5383 14.169 31.3893 14.206 31.1843C14.282 30.7593 14.124 30.1733 13.834 29.7473L13.811 29.7033C13.32 28.5433 12.892 27.3633 12.356 26.2783L12.396 26.2243C12.25 26.0923 12.14 25.9233 12.05 25.7593C11.934 25.5463 11.827 25.2893 11.731 25.0843C11.635 24.8803 11.541 24.7123 11.434 24.5903C10.596 24.1433 9.68901 23.9323 8.77501 24.1023L8.54002 24.0193C8.26502 23.6963 8.22198 23.3653 8.30998 23.0583C8.38998 22.7783 8.57697 22.5263 8.71397 22.3353C8.78797 22.2333 8.84998 22.1463 8.89598 22.0673C8.94298 21.9863 8.96097 21.9323 8.96397 21.8983C8.96697 21.8753 8.96403 21.8593 8.94603 21.8353C8.92003 21.8023 8.85802 21.7493 8.72002 21.6883L8.67998 21.6653C7.93798 21.1573 7.17902 21.0613 6.12102 21.1673L6.101 21.1683C5.164 21.1903 4.03 20.8103 3.114 20.5123L2.99303 20.4253C2.92203 20.3323 2.80603 20.2803 2.63103 20.2623C2.45203 20.2443 2.25899 20.2663 2.06499 20.2823C1.97599 20.2903 1.877 20.2963 1.791 20.2903C1.72 20.2853 1.57202 20.2683 1.47502 20.1483C1.36302 20.0083 1.40299 19.8433 1.43999 19.7493C1.46199 19.6933 1.49298 19.6333 1.53398 19.5693C0.740982 18.6513 0.515994 17.5493 0.582994 16.3793L0.595994 16.3313C0.379994 16.1693 0.295 15.9133 0.265 15.6713C0.231 15.3933 0.26002 15.0703 0.29802 14.7703C0.33902 14.4553 0.38802 14.1713 0.41002 13.9173L0.410997 13.9103C0.453997 13.5363 0.658996 13.2803 0.897996 13.0923C1.125 12.9143 1.41398 12.7753 1.63298 12.6553C1.87198 12.5253 2.042 12.4103 2.135 12.2723C2.214 12.1543 2.25903 11.9873 2.16203 11.6923L2.14903 11.6013C2.17703 11.0633 2.54703 10.6003 2.95403 10.2523C3.36803 9.89727 3.87199 9.61928 4.26299 9.45128L4.34001 9.43227C4.95301 9.38027 5.55903 9.24027 6.18303 9.09727C6.80103 8.95527 7.43702 8.81028 8.08202 8.76128L8.34703 8.97427C8.40903 9.38727 8.73499 9.62428 9.23699 9.85228C9.35899 9.90728 9.48501 9.96027 9.61601 10.0143C9.74501 10.0683 9.87803 10.1233 10.006 10.1833C10.196 10.2713 10.388 10.3733 10.555 10.5033L10.712 10.6443L10.777 10.7623C10.954 11.5293 11.514 11.9473 12.23 12.1223C12.956 12.3003 13.815 12.2183 14.492 11.9943L14.546 11.9833C15.004 11.9383 15.49 11.7583 15.796 11.4783C15.947 11.3403 16.048 11.1843 16.091 11.0133C16.134 10.8443 16.124 10.6393 16.021 10.3943L16.01 10.3643C15.881 9.89628 15.681 9.28228 15.689 8.74528C15.693 8.46928 15.752 8.18827 15.918 7.94627C16.002 7.82527 16.107 7.71928 16.236 7.63028C16.338 7.48728 16.431 7.30328 16.499 7.10428C16.581 6.85928 16.619 6.61728 16.606 6.43328C16.592 6.23828 16.531 6.19027 16.504 6.17927C16.462 6.16227 16.32 6.14928 16.008 6.33728C15.577 6.90728 14.889 6.86827 14.354 6.69627C13.797 6.51627 13.275 6.15727 13.066 5.92927L13.008 5.69828C13.135 5.19828 13.153 4.94228 13.127 4.81128C13.117 4.75628 13.101 4.73628 13.093 4.72928C13.083 4.71828 13.06 4.70328 13.005 4.68528C12.789 4.61428 12.193 4.60528 11.717 3.99128L11.666 3.82228C11.679 3.62828 11.677 3.44728 11.677 3.26828C11.677 3.09328 11.678 2.91428 11.701 2.74528C11.723 2.57328 11.769 2.40127 11.863 2.23827C11.958 2.07327 12.095 1.93128 12.283 1.80828L12.393 1.76928C12.681 1.73828 12.969 1.71828 13.245 1.69728C13.522 1.67528 13.788 1.65328 14.04 1.61928C14.547 1.55128 14.972 1.43928 15.299 1.21328L15.334 1.19327C16.268 0.752274 16.991 0.705276 17.914 0.732276C17.973 0.630276 18.046 0.543278 18.137 0.478278C18.274 0.380278 18.429 0.340275 18.58 0.330275C18.866 0.313275 19.193 0.406272 19.474 0.488272C19.777 0.575272 20.048 0.657273 20.291 0.668273C20.52 0.679273 20.687 0.625273 20.815 0.473273L20.92 0.400275C21.317 0.253275 21.807 0.255278 22.289 0.270278C22.788 0.285278 23.303 0.316276 23.819 0.260276L23.835 0.259276ZM30.2 9.64828C30.238 9.65828 30.269 9.65828 30.284 9.65628L30.242 9.61728L30.2 9.64828ZM33.422 0.795279C33.277 0.957279 33.118 1.08228 32.952 1.17728C32.997 1.16228 33.042 1.14628 33.084 1.13228C33.3 1.06228 33.49 1.00328 33.622 0.938277C33.629 0.934277 33.635 0.929277 33.642 0.925277C33.637 0.921277 33.632 0.916276 33.626 0.912276C33.578 0.878276 33.511 0.840279 33.422 0.795279Z" fill="#9FE2AF" stroke="white" stroke-width="0.5" stroke-linejoin="round"/>
</svg>
