<svg width="124" height="121" viewBox="0 0 124 121" fill="none" xmlns="http://www.w3.org/2000/svg">
<path d="M26.0122 106.291C26.0452 106.285 26.1052 106.279 26.1702 106.303C26.2452 106.331 26.2993 106.388 26.3263 106.454C26.3493 106.51 26.3483 106.562 26.3463 106.591C26.3423 106.648 26.3242 106.702 26.3112 106.737C26.2822 106.814 26.2343 106.913 26.1883 107.008C26.0893 107.213 25.9773 107.447 25.9253 107.662C25.8713 107.887 25.9043 108 25.9643 108.057L26.0413 108.25C26.0153 108.77 25.7502 109.326 25.3452 109.724C24.9452 110.116 24.3823 110.374 23.7493 110.26C23.6763 110.268 23.6042 110.274 23.5322 110.28C24.0162 110.316 24.4973 110.412 24.8433 110.669L24.9392 110.922C24.8722 111.24 24.8943 111.482 24.9643 111.663C25.0343 111.843 25.1582 111.983 25.3272 112.088C25.6742 112.304 26.2082 112.369 26.7642 112.284C27.2032 112.193 27.5702 112.259 27.7802 112.532C27.9792 112.791 27.9582 113.141 27.8682 113.428C27.7742 113.725 27.5852 114.028 27.3422 114.251C27.1012 114.472 26.7772 114.64 26.4182 114.602L26.3383 114.581C26.1603 114.498 25.6093 114.29 25.2003 114.266C25.1013 114.26 25.0233 114.266 24.9663 114.28C24.9113 114.294 24.8932 114.313 24.8872 114.319C24.8812 114.327 24.8253 114.42 24.9763 114.749L24.9782 114.954C24.7422 115.488 24.4252 115.936 24.0042 116.245C23.6502 116.504 23.2343 116.654 22.7553 116.688C22.7343 116.8 22.6803 116.893 22.6243 116.966C22.5113 117.11 22.3223 117.26 22.1803 117.386C21.8633 117.667 21.6233 117.944 21.6903 118.36C21.7583 118.567 21.6882 118.756 21.6132 118.889C21.5362 119.023 21.4163 119.163 21.3543 119.244C21.3443 119.257 21.3362 119.27 21.3292 119.28C21.3472 119.285 21.3682 119.293 21.3942 119.298L21.3552 119.793C20.6822 119.824 20.0092 119.887 19.3242 119.941C18.6432 119.995 17.9533 120.04 17.2633 120.028L17.0263 119.713C17.3113 118.674 16.9323 117.78 16.0833 117.443C15.5633 117.693 14.9632 117.577 14.6682 117.227C14.4972 117.024 14.4373 116.748 14.5623 116.468C14.6793 116.207 14.9403 115.975 15.3333 115.78C15.4843 115.698 15.5532 115.628 15.5842 115.58C15.6092 115.54 15.6143 115.506 15.6063 115.463C15.5963 115.41 15.5643 115.339 15.5023 115.245C15.4403 115.152 15.3603 115.054 15.2663 114.942C15.0903 114.732 14.8572 114.466 14.7382 114.176C14.6762 114.024 14.6402 113.856 14.6602 113.675C14.6782 113.516 14.7392 113.362 14.8422 113.214C14.8772 112.789 15.0162 112.48 15.3032 112.331C15.5812 112.187 15.9143 112.245 16.1823 112.317C16.3243 112.356 16.4712 112.404 16.6082 112.45C16.7482 112.497 16.8812 112.541 17.0062 112.574C17.2192 112.63 17.3682 112.639 17.4702 112.615C17.7572 111.989 18.1893 111.581 18.6923 111.506C19.2033 111.43 19.6743 111.712 20.0103 112.233C20.0853 112.237 20.1273 112.225 20.1513 112.213C20.1803 112.198 20.2113 112.17 20.2403 112.102C20.2703 112.031 20.2913 111.931 20.3053 111.802C20.3193 111.673 20.3252 111.535 20.3342 111.384C20.3422 111.238 20.3522 111.08 20.3792 110.934C20.4052 110.789 20.4513 110.632 20.5423 110.501C20.6243 110.383 20.7393 110.294 20.8863 110.246C20.5953 110.223 20.3062 110.199 20.0192 110.176L19.9713 110.167C19.4103 110.009 19.0173 110.101 18.7003 110.319C18.3663 110.549 18.0922 110.935 17.8162 111.415L17.7453 111.494C17.2053 111.878 16.7753 112.025 16.3303 111.907C16.1203 111.851 15.9273 111.741 15.7353 111.607C15.5443 111.474 15.3362 111.304 15.1052 111.12L15.0593 110.776C15.3363 110.398 15.6893 109.892 16.1143 109.548C16.5393 109.204 17.0723 108.995 17.6973 109.234C18.0763 109.192 18.4693 109.169 18.8483 109.142C19.2533 109.112 19.6472 109.076 20.0222 109.003C20.7682 108.858 21.4193 108.571 21.8963 107.928L21.9022 107.92C22.7672 106.847 24.2202 106.682 25.4022 106.681C25.5582 106.557 25.6802 106.465 25.7722 106.404C25.8232 106.37 25.8753 106.34 25.9223 106.319C25.9463 106.309 25.9772 106.298 26.0122 106.291ZM33.6312 114.492C34.0192 114.344 34.3663 114.321 34.6563 114.427C34.9503 114.534 35.1473 114.758 35.2583 115.022C35.4743 115.536 35.3873 116.236 35.0813 116.78L34.9473 116.893C34.7113 116.977 34.5423 117.055 34.4243 117.124C34.3053 117.194 34.2513 117.249 34.2293 117.28C34.2143 117.302 34.2172 117.309 34.2172 117.31C34.2192 117.32 34.2293 117.349 34.2683 117.398C34.3073 117.447 34.3602 117.5 34.4262 117.561C34.4882 117.619 34.5673 117.689 34.6333 117.757C34.7003 117.824 34.7733 117.909 34.8223 118.007C34.8743 118.111 34.9033 118.245 34.8543 118.389L34.7302 118.531C34.4382 118.678 34.1963 118.899 33.8993 119.141C33.6143 119.372 33.2863 119.614 32.8653 119.714L32.5842 119.583C32.3292 119.08 31.9912 118.87 31.5902 118.771C31.1592 118.666 30.6742 118.69 30.0922 118.675V118.673C29.9462 118.673 29.8123 118.613 29.7053 118.541C29.5913 118.464 29.4822 118.36 29.3812 118.244C29.1812 118.013 28.9942 117.709 28.8632 117.407C28.7352 117.114 28.6442 116.783 28.6762 116.509C28.6942 116.366 28.7483 116.216 28.8733 116.104C28.9793 116.01 29.1133 115.967 29.2553 115.959C29.5103 115.815 29.7342 115.669 29.9622 115.53C30.1922 115.389 30.4323 115.256 30.6723 115.197C30.9283 115.135 31.1892 115.156 31.4412 115.322C31.6662 115.471 31.8632 115.723 32.0512 116.077C32.3902 116.322 32.5393 116.311 32.5933 116.29C32.6643 116.263 32.7473 116.163 32.8383 115.914C32.8793 115.799 32.9163 115.673 32.9563 115.537C32.9953 115.405 33.0372 115.262 33.0872 115.131C33.1772 114.893 33.3262 114.593 33.6312 114.492ZM106.816 44.7764C107.439 44.7151 108.105 44.738 108.673 45.1534L108.619 45.5879C108.04 45.8173 107.751 46.1199 107.531 46.4746C107.416 46.6595 107.321 46.8588 107.211 47.083C107.136 47.2356 107.055 47.3975 106.961 47.5645C107.046 47.6016 107.146 47.6364 107.257 47.6641C107.472 47.7175 107.711 47.7423 107.935 47.7198C108.16 47.6972 108.357 47.6287 108.505 47.5118C108.647 47.3987 108.76 47.2262 108.802 46.9561L108.905 46.7911C109.136 46.6265 109.359 46.4447 109.611 46.2539C109.856 46.0687 110.118 45.8831 110.394 45.7412C110.953 45.4549 111.587 45.3403 112.286 45.7266C114.34 46.44 116.351 47.2028 118.485 47.0147H118.529C118.9 47.0487 119.239 47.1598 119.507 47.3135C119.77 47.464 119.991 47.67 120.091 47.9082C120.143 48.0311 120.165 48.1695 120.132 48.3096C120.1 48.451 120.018 48.5717 119.902 48.667C119.685 48.8452 119.339 48.9438 118.882 48.9707C117.582 49.4285 116.23 49.5066 114.891 49.4834C113.734 49.4634 112.615 49.3712 111.503 49.3702C111.517 49.377 111.532 49.3857 111.547 49.3926C111.814 49.5164 112.122 49.6428 112.399 49.7422C112.679 49.8426 112.903 49.9063 113.021 49.9209C113.696 49.9094 114.221 50.2745 114.653 50.5362C115.112 50.8144 115.484 50.9942 115.96 50.8477L116.002 50.8389C117.722 50.618 119.649 50.3103 121.368 51.1973L121.432 51.5928C120.639 52.4127 119.658 52.6174 118.695 52.7041C118.454 52.7258 118.212 52.7406 117.973 52.7549C117.733 52.7693 117.496 52.7829 117.262 52.8037C116.795 52.8454 116.35 52.9124 115.932 53.0557C114.967 53.4061 114.107 53.9544 113.221 54.5196C112.383 55.0545 111.52 55.6032 110.554 55.9766C110.523 56.1955 110.453 56.4183 110.378 56.6241C110.277 56.899 110.174 57.1437 110.104 57.3877C110.035 57.6294 110.015 57.8217 110.055 57.9727C110.091 58.1052 110.183 58.2405 110.419 58.3584C111.16 58.6248 111.902 58.7897 112.682 59.0235C113.441 59.2509 114.2 59.5364 114.893 60.0323C115.223 60.1607 115.498 60.3126 115.703 60.4854C115.912 60.6625 116.067 60.8788 116.1 61.1299C116.134 61.3896 116.031 61.6309 115.84 61.834C115.657 62.0288 115.384 62.1995 115.033 62.3477C114.517 62.6858 113.949 62.9832 113.439 63.2842C112.986 63.5514 112.56 63.8317 112.189 64.1748C113.674 65.6107 115.212 67.0633 116.271 68.9102L116.485 69.3008L116.512 69.3995C116.555 70.0199 116.15 70.5125 115.797 70.919C115.609 71.1347 115.429 71.3326 115.277 71.542C115.127 71.749 115.018 71.9502 114.97 72.1592L114.96 72.1953C114.734 72.7768 114.955 73.2648 115.387 73.7764C115.604 74.0331 115.86 74.2779 116.118 74.5342C116.307 74.7224 116.499 74.9182 116.665 75.1202L116.82 75.3243L116.827 75.334L116.923 75.4698C117.029 75.6055 117.163 75.7429 117.315 75.8877C117.51 76.0733 117.744 76.2797 117.941 76.4883C118.339 76.9091 118.698 77.4465 118.476 78.1475L118.423 78.2393C118.232 78.4516 117.951 78.6362 117.699 78.795C117.431 78.963 117.194 79.1031 117.026 79.2412C116.943 79.3093 116.896 79.3629 116.874 79.4014C116.864 79.4178 116.862 79.4274 116.861 79.4307C116.861 79.4319 116.86 79.433 116.861 79.4346C116.864 79.4425 116.881 79.4826 116.968 79.5469C117.012 79.5793 117.07 79.6139 117.142 79.6514L117.407 79.7715L117.423 79.7784C118.27 80.1888 119.198 80.4238 120.148 80.7569C121.022 81.0632 121.888 81.4465 122.589 82.1231L122.727 82.2618L122.755 82.2989C123.027 82.7213 123.104 83.1426 123.037 83.5489C122.97 83.9465 122.769 84.3115 122.521 84.6377C122.272 84.9648 121.964 85.2684 121.666 85.544C121.36 85.8269 121.077 86.0689 120.843 86.2998L120.79 86.3399C117.032 88.4331 113.38 90.7121 109.641 92.8821C109.326 93.4871 108.735 93.6981 108.165 93.8041C107.869 93.8581 107.552 93.8891 107.269 93.9251C106.978 93.9611 106.714 94.0041 106.487 94.0801L106.383 94.0921C105.835 94.0381 105.398 94.2611 104.872 94.4451C104.62 94.5331 104.347 94.6091 104.057 94.6001C103.792 94.5901 103.529 94.5091 103.262 94.3281C103.059 94.3771 102.869 94.4431 102.678 94.5131C102.461 94.5931 102.232 94.6821 102.003 94.7471C101.524 94.8821 101.016 94.9151 100.389 94.6181L100.251 94.4361C100.245 94.4071 100.239 94.3791 100.234 94.3521C100.047 94.6781 99.7243 95.0581 99.1493 95.1041L99.0532 95.0941C98.5292 94.9281 98.1512 95.1181 97.7412 95.3331C97.5462 95.4351 97.3203 95.5571 97.0843 95.6001C96.8343 95.6441 96.5813 95.6001 96.3283 95.4171C96.0183 95.2631 95.6683 95.3551 95.1753 95.5551C94.7233 95.7381 94.1583 96.0091 93.5583 96.0061C93.3743 96.0421 93.1502 96.0551 92.9262 96.0651C92.6852 96.0761 92.4322 96.0861 92.1762 96.1131C91.6592 96.1691 91.1933 96.2971 90.8863 96.6081L90.7733 96.6751C90.3563 96.7871 89.7953 96.7751 89.2833 96.7641C88.7453 96.7521 88.2523 96.7411 87.8933 96.8221L87.8922 96.8211C86.8342 97.1731 85.5452 97.3031 84.4652 97.0061C83.9662 96.9361 83.6483 96.7531 83.4943 96.4571C83.3493 96.1791 83.3873 95.8651 83.4173 95.6561C83.4333 95.5381 83.4482 95.4541 83.4522 95.3801C83.4532 95.3541 83.4513 95.3361 83.4503 95.3231H83.4453C83.3843 95.3191 83.2713 95.3311 83.0783 95.3851L83.0382 95.3931C82.7142 95.4281 82.4372 95.4731 82.1892 95.5101C81.9472 95.5461 81.7222 95.5761 81.5272 95.5731C81.3292 95.5701 81.1323 95.5321 80.9643 95.4071C80.8483 95.3201 80.7643 95.2031 80.7003 95.0641C80.1773 95.0991 79.6803 94.9431 79.2243 94.7681C78.6893 94.5631 78.2232 94.3431 77.7412 94.2661L77.6833 94.2491C76.8863 93.9151 76.5083 93.2151 76.4033 92.4751C76.2993 91.7401 76.4552 90.9381 76.7462 90.3181C76.9752 89.8031 76.9343 89.3491 76.7343 88.9411C76.5273 88.5211 76.1443 88.1371 75.6743 87.7991L75.6073 87.7261C75.4433 87.4561 75.5062 87.1411 75.5872 86.8941C75.6292 86.7641 75.6853 86.6291 75.7393 86.501C75.7953 86.3697 75.8493 86.245 75.8963 86.1211C75.9943 85.866 76.0413 85.6676 76.0153 85.5166C75.9963 85.4025 75.9283 85.2779 75.6833 85.1709C75.2903 85.1548 74.9833 85.0433 74.8003 84.8164C74.6053 84.573 74.6103 84.2693 74.6973 84.0098C74.7843 83.7494 74.9633 83.4948 75.1833 83.2891C75.4043 83.0828 75.6833 82.9116 75.9843 82.8311L76.0352 82.8223C76.3802 82.8035 76.5303 82.6898 76.6153 82.5694C76.7163 82.4253 76.7563 82.2346 76.8083 81.9883C76.8323 81.8748 76.8603 81.7461 76.9043 81.628C76.9483 81.5081 77.0163 81.3821 77.1283 81.2803C77.3363 81.0908 77.6252 81.0482 77.9932 81.1162L78.1563 81.1524L78.1702 81.1563C78.6582 81.3101 79.1863 81.4202 79.6513 81.3731C80.1023 81.3274 80.4843 81.1362 80.7313 80.6797L80.7343 80.6729C80.8523 80.4677 80.9533 80.2104 81.0583 79.9375C81.1593 79.6768 81.2693 79.3926 81.4043 79.1787C81.5363 78.9703 81.7452 78.7455 82.0662 78.7657C82.3202 78.7818 82.5642 78.9523 82.8112 79.2227C83.3152 79.0976 83.7853 78.8074 84.2713 78.4551C84.7863 78.0827 85.3343 77.6306 85.9193 77.3301C87.6053 76.3353 89.2722 75.2854 90.9362 74.2637L90.9533 74.2549C92.0693 73.682 93.2483 73.4106 94.5033 73.5616C94.5073 73.5258 94.5092 73.4938 94.5062 73.4659C94.5012 73.3987 94.4782 73.3377 94.4392 73.2764C94.3512 73.1374 94.2083 73.0293 94.0213 72.8682C93.8603 72.7288 93.6433 72.5301 93.5933 72.2412C93.5443 71.9515 93.6713 71.6548 93.9463 71.3311C94.0113 71.0942 93.9612 70.9731 93.8892 70.8955C93.7932 70.7908 93.6073 70.7068 93.3303 70.6495C93.0603 70.5937 92.7472 70.5716 92.4362 70.5557C92.1362 70.5404 91.8232 70.5302 91.5922 70.4961L91.5813 70.4942C90.9653 70.3718 90.4002 70.0195 89.9052 69.7754C89.3902 69.5215 88.9092 69.3561 88.3552 69.4746L88.3032 69.4483L88.2913 69.4776C87.7043 69.4229 87.1042 69.5733 86.4542 69.7217C85.8232 69.8656 85.1423 70.0083 84.4763 69.8653L84.4683 69.8633C84.1613 69.7867 83.8623 69.6438 83.5863 69.5C83.3003 69.3516 83.0422 69.2059 82.7802 69.0938C82.5212 68.9832 82.2863 68.9191 82.0653 68.9258C81.8523 68.9324 81.6332 69.005 81.4002 69.2032L81.3153 69.251C81.0013 69.353 80.7273 69.5446 80.4613 69.7871C80.1853 70.0383 79.9533 70.3068 79.6713 70.5899C79.1363 71.126 78.4973 71.6246 77.5153 71.4375C77.2253 71.4653 76.9823 71.5296 76.7993 71.6153C76.6083 71.7052 76.5053 71.8076 76.4633 71.8926C76.4283 71.963 76.4223 72.0471 76.4903 72.1621C76.5653 72.2892 76.7313 72.4506 77.0413 72.6221L77.1223 72.9873C76.9493 73.2245 76.6992 73.4029 76.4412 73.545C76.1822 73.6876 75.8922 73.8048 75.6312 73.9102C75.3612 74.0186 75.1253 74.1126 74.9433 74.2129C74.8583 74.2595 74.7983 74.3018 74.7553 74.3379C74.7743 74.3521 74.7933 74.3691 74.8153 74.3848C74.9093 74.4511 75.0263 74.5202 75.1583 74.5928C75.4093 74.731 75.7382 74.8927 75.9832 75.0411C76.1092 75.1173 76.2323 75.2008 76.3283 75.2901C76.4183 75.3739 76.5203 75.495 76.5423 75.6524C76.5673 75.8353 76.4763 75.984 76.3513 76.0879C76.2333 76.1862 76.0643 76.2659 75.8543 76.336L75.8422 76.3399C75.1222 76.5424 74.6703 77.0998 74.1463 77.7227C73.6443 78.3192 73.0742 78.9727 72.1372 79.1397C71.5342 79.3466 70.9343 79.647 70.3003 79.9307C69.6733 80.2115 69.0183 80.473 68.3543 80.5596L68.1613 80.502C67.9163 80.2958 67.7122 80.2345 67.5382 80.2383C67.3572 80.2424 67.1703 80.3181 66.9663 80.4532C66.7623 80.5891 66.5613 80.7701 66.3483 80.9639C66.1423 81.1512 65.9212 81.354 65.6942 81.501L65.5843 81.5391C64.2983 81.675 63.2023 82.3864 62.3433 83.333L62.1933 83.4121C61.9133 83.4519 61.5993 83.4445 61.3253 83.4375C61.0363 83.4302 60.7972 83.4246 60.6212 83.4551C60.4392 83.4866 60.4352 83.5343 60.4332 83.542C60.4282 83.565 60.4253 83.6213 60.4603 83.7286C60.4943 83.8345 60.5613 83.9745 60.6713 84.1553V84.4151C60.4703 84.7445 60.2312 84.9737 59.9592 85.1202C59.6872 85.266 59.3983 85.321 59.1093 85.3252C58.7123 85.331 58.2882 85.2362 57.8862 85.1377C57.9372 85.2402 57.9893 85.3419 58.0443 85.4434C58.1713 85.681 58.3112 85.9295 58.4132 86.1817C58.5162 86.4383 58.5873 86.7141 58.5763 87.0181C58.5653 87.3091 58.4762 87.6081 58.2932 87.9291C58.2482 88.2691 58.0243 88.4731 57.7873 88.6011C57.6633 88.6671 57.5282 88.7191 57.4022 88.7631C57.2682 88.8101 57.1573 88.8441 57.0423 88.8881C56.8023 88.9771 56.7003 89.0531 56.6663 89.1291C56.6393 89.1891 56.6182 89.3481 56.8552 89.7261L56.8933 89.8501C56.9113 90.3521 56.9982 90.8931 57.1312 91.3791C57.2662 91.8681 57.4442 92.2851 57.6342 92.5501L57.5893 92.7821C57.6003 92.7841 57.6132 92.7871 57.6262 92.7891C57.7372 92.8031 57.8723 92.8141 58.0233 92.8261C58.3193 92.8491 58.6793 92.8761 58.9893 92.9381C59.1453 92.9701 59.2992 93.0121 59.4332 93.0741C59.5062 93.1081 59.5792 93.1511 59.6442 93.2051C59.9622 93.1121 60.2543 93.1331 60.5233 93.2311C60.8263 93.3431 61.0863 93.5511 61.3153 93.7681C61.4313 93.8771 61.5443 93.9941 61.6533 94.1061C61.7633 94.2211 61.8703 94.3311 61.9793 94.4351C62.1923 94.6401 62.3992 94.8031 62.6182 94.9001C63.7752 95.1031 64.7412 95.4201 65.4182 96.4141C65.5652 96.5401 65.6793 96.6631 65.7483 96.7881C65.8253 96.9281 65.8542 97.0881 65.7902 97.2441C65.7312 97.3861 65.6122 97.4791 65.5062 97.5411C65.3972 97.6051 65.2672 97.6571 65.1372 97.7021C65.0062 97.7471 64.8603 97.7901 64.7193 97.8321C64.5773 97.8751 64.4362 97.9191 64.3032 97.9681C64.0282 98.0701 63.8342 98.1801 63.7352 98.3091L63.6023 98.3971C63.2773 98.4861 62.9393 98.6161 62.5833 98.7531C62.5213 98.7771 62.4583 98.7991 62.3953 98.8231C62.4463 98.8171 62.4972 98.8131 62.5452 98.8061C62.7462 98.7731 62.8942 98.7251 62.9982 98.6571L63.2873 98.6691C63.4353 98.7831 63.5622 98.9041 63.6182 99.0341C63.6502 99.1091 63.6663 99.2051 63.6303 99.3051C63.5943 99.4001 63.5253 99.4591 63.4683 99.4931C63.3653 99.5561 63.2283 99.5811 63.1223 99.5971C63.0073 99.6131 62.8722 99.6241 62.7542 99.6351C62.6292 99.6461 62.5163 99.6581 62.4223 99.6771C62.3793 99.6851 62.3473 99.6951 62.3233 99.7031C62.3473 99.7401 62.3902 99.7991 62.4702 99.8781L62.2793 100.306C61.7803 100.273 61.4283 100.566 61.0073 100.916C60.6213 101.238 60.1293 101.65 59.4553 101.421L59.2863 101.17C59.2983 100.962 59.2973 100.803 59.2913 100.687C59.2073 100.788 59.1103 100.926 58.9993 101.083C58.8543 101.287 58.6913 101.52 58.5333 101.696L58.4743 101.744C57.9013 102.086 57.4292 102.201 57.0042 102.281C56.5772 102.362 56.2372 102.405 55.8552 102.591L55.7493 102.616C55.5063 102.62 55.1663 102.607 54.8783 102.606C54.5693 102.606 54.2883 102.619 54.0833 102.665C53.9803 102.688 53.9153 102.715 53.8803 102.74C53.8633 102.751 53.8572 102.76 53.8552 102.763C53.8542 102.764 53.8532 102.765 53.8532 102.768C53.8522 102.775 53.8503 102.818 53.9013 102.911C53.9453 102.991 54.0232 103.093 54.1422 103.221C54.8462 103.32 55.2213 103.972 55.3093 104.567C55.3563 104.889 55.3282 105.229 55.2122 105.518C55.0942 105.811 54.8782 106.066 54.5482 106.175L54.4312 106.185C54.2082 106.15 54.0553 106.14 53.9563 106.145C53.9423 106.146 53.9313 106.149 53.9213 106.15C53.9323 106.177 53.9482 106.21 53.9702 106.251C54.0152 106.333 54.0653 106.414 54.1253 106.518C54.1813 106.616 54.2413 106.727 54.2873 106.84C54.3493 106.995 54.4002 107.198 54.3422 107.396C54.4222 107.47 54.4882 107.55 54.5322 107.64C54.6082 107.795 54.6142 107.955 54.5772 108.103C54.5412 108.245 54.4672 108.375 54.3862 108.49C54.3052 108.606 54.2072 108.722 54.1102 108.833C53.9092 109.064 53.7153 109.275 53.5893 109.501C53.4683 109.717 53.4283 109.915 53.5003 110.123L53.5122 110.224C53.4572 110.941 53.0822 111.529 52.6702 112.051C52.4652 112.31 52.2373 112.569 52.0343 112.812C51.8313 113.056 51.6442 113.294 51.4932 113.538C51.3412 113.963 51.1472 114.249 50.8872 114.403C50.6162 114.564 50.3272 114.552 50.0742 114.501C49.9472 114.475 49.8193 114.438 49.6983 114.401C49.5743 114.364 49.4562 114.328 49.3372 114.298C49.1022 114.239 48.8892 114.213 48.6832 114.26C48.0982 114.506 47.4962 114.509 46.9232 114.46C46.3862 114.414 45.9043 114.329 45.4193 114.318C45.3223 114.552 45.1463 114.703 44.9453 114.805C44.7103 114.923 44.4123 114.99 44.1723 115.056C43.9123 115.127 43.6912 115.202 43.5222 115.331C43.3842 115.436 43.2703 115.586 43.2143 115.831C43.5233 116.24 43.6232 116.826 43.4312 117.266C43.3222 117.516 43.1162 117.72 42.8112 117.798C42.5252 117.871 42.1832 117.824 41.7932 117.657C41.1682 117.566 40.5462 117.743 39.8422 117.913C39.1662 118.076 38.4243 118.225 37.6563 117.985C37.2873 118.02 36.9922 117.995 36.7902 117.873C36.6742 117.803 36.5893 117.702 36.5493 117.576C36.5113 117.457 36.5193 117.335 36.5443 117.227C36.5913 117.018 36.7182 116.797 36.8552 116.599C36.9462 116.467 37.0492 116.336 37.1522 116.21C36.2012 115.473 35.3802 114.605 34.6602 113.65L34.8073 113.255C35.1363 113.184 35.3433 113.105 35.4873 113.027C35.6283 112.951 35.7183 112.869 35.8133 112.772C35.9073 112.677 36.0212 112.55 36.1812 112.426C36.2652 112.361 36.3613 112.296 36.4763 112.233C35.9153 111.8 35.3043 111.388 34.5883 110.951C34.2483 110.852 34.0093 110.625 33.8283 110.372C33.6433 110.114 33.4993 109.801 33.3673 109.54C33.2283 109.265 33.1023 109.043 32.9483 108.898C32.8093 108.768 32.6473 108.698 32.4033 108.732L32.1422 108.377C32.2522 108.145 32.2403 107.962 32.1723 107.795C32.0993 107.613 31.9533 107.439 31.7703 107.247C31.6003 107.069 31.3803 106.862 31.2323 106.655C31.0773 106.439 30.9573 106.168 31.0443 105.851L31.1023 105.745C31.3223 105.51 31.4562 105.282 31.5192 105.088C31.5832 104.892 31.5712 104.749 31.5302 104.662C31.4932 104.585 31.4183 104.517 31.2653 104.492C31.1033 104.466 30.8593 104.492 30.5243 104.625L30.2222 104.53C30.1382 104.402 30.0173 104.306 29.8613 104.208C29.7193 104.119 29.5092 104.007 29.3422 103.878C29.1612 103.737 28.9912 103.552 28.8922 103.277C28.8022 103.026 28.7793 102.719 28.8283 102.334C28.7003 102.112 28.6063 101.858 28.5553 101.61C28.4993 101.335 28.4872 101.047 28.5482 100.808C28.5882 100.653 28.6682 100.495 28.8032 100.391C28.7342 100.344 28.6482 100.32 28.5402 100.312C28.3312 100.297 28.1013 100.34 27.8073 100.372C27.5393 100.401 27.2172 100.42 26.9282 100.298C26.6192 100.166 26.3942 99.8941 26.2722 99.4501L26.2713 99.3191C26.3193 99.1391 26.3123 98.9481 26.2683 98.7851C26.2233 98.6161 26.1473 98.5091 26.0893 98.4661C26.0633 98.4471 26.0483 98.4461 26.0443 98.4461C26.0403 98.4461 26.0222 98.4461 25.9882 98.4741C25.9152 98.5321 25.8072 98.6861 25.7042 99.0161C25.7862 99.2501 25.7552 99.4911 25.6682 99.7081C25.5692 99.9531 25.3943 100.183 25.1933 100.382C24.7973 100.774 24.2403 101.099 23.7973 101.177L23.7143 101.178C22.6803 101.005 21.7702 101.028 20.8792 101.596C20.8202 101.828 20.6763 102.015 20.5033 102.165C20.3003 102.34 20.0403 102.484 19.7793 102.609C19.5213 102.734 19.2293 102.855 18.9813 102.967C18.7233 103.083 18.5003 103.195 18.3363 103.314L18.3173 103.327C17.8203 103.625 17.2352 103.858 16.7152 104.094C16.1822 104.336 15.7053 104.585 15.3543 104.922C14.9593 105.301 14.3693 105.345 13.8563 105.353C13.5793 105.358 13.3302 105.351 13.0712 105.361C12.8192 105.371 12.5942 105.396 12.4022 105.456L12.2973 105.466C12.0813 105.439 11.8282 105.465 11.5432 105.516C11.2772 105.562 10.9452 105.638 10.6602 105.681C10.1052 105.763 9.47023 105.766 9.05123 105.226C8.86723 105.197 8.66628 105.193 8.46828 105.2C8.35428 105.204 8.24428 105.211 8.14028 105.218C8.03928 105.224 7.93927 105.231 7.85427 105.232C7.77627 105.234 7.68126 105.232 7.59926 105.208C7.55826 105.196 7.49128 105.171 7.43728 105.111C7.37328 105.041 7.35224 104.951 7.36324 104.868C7.37224 104.798 7.40428 104.741 7.42928 104.703C7.43528 104.694 7.44328 104.686 7.45028 104.677C6.79228 104.533 6.17625 104.274 5.58925 104.042C4.84225 103.746 4.13325 103.492 3.36525 103.499L3.24025 103.467C2.88625 103.266 2.65025 103.027 2.51125 102.76C2.37325 102.493 2.34124 102.218 2.35824 101.965C2.37524 101.714 2.44227 101.477 2.50527 101.278C2.57227 101.065 2.62723 100.922 2.65023 100.805L3.07229 100.677C3.24729 100.852 3.40025 100.935 3.54525 100.978C3.69625 101.024 3.85325 101.033 4.05825 101.038C4.16625 101.041 4.28123 101.042 4.40523 101.051C4.24923 100.947 4.14029 100.794 4.09829 100.616C4.04029 100.363 4.12429 100.094 4.33529 99.8931C4.45029 99.7841 4.59923 99.6981 4.78023 99.6381C4.77823 99.6371 4.77625 99.6361 4.77425 99.6361C4.71825 99.6121 4.63626 99.5681 4.58126 99.4841C4.54826 99.4351 4.53228 99.3811 4.52828 99.3291C4.40428 99.3521 4.22126 99.3561 4.08626 99.2141C3.98526 99.1091 3.95625 98.9701 3.95925 98.8331C3.95525 98.8301 3.95224 98.8271 3.94924 98.8241C3.94224 98.8371 3.93523 98.8531 3.92623 98.8711C3.91223 98.9041 3.89727 98.9411 3.88027 98.9841C3.86327 99.0261 3.84326 99.0731 3.82326 99.1211C3.74426 99.3071 3.61823 99.5611 3.36623 99.7121C3.10023 99.8711 2.75729 99.8831 2.32229 99.7291L2.16323 99.5571C2.14023 99.4701 2.11726 99.4421 2.11226 99.4371C2.11126 99.4361 2.11228 99.4371 2.11428 99.4371C2.11528 99.4381 2.11225 99.4371 2.10525 99.4361C2.08425 99.4341 2.04824 99.4371 1.98324 99.4501C1.93124 99.4601 1.83726 99.4831 1.75826 99.4951C1.58126 99.5221 1.34026 99.5261 1.12026 99.3411C0.91626 99.1701 0.773262 98.8721 0.672262 98.4231L0.71224 98.2231C0.98424 97.8401 1.25324 97.6201 1.52224 97.5241C1.79924 97.4271 2.04025 97.4731 2.22225 97.5461C2.31125 97.5811 2.38723 97.6231 2.44423 97.6561C2.45923 97.6651 2.47224 97.6711 2.48324 97.6781L2.64425 97.5591C2.97825 97.6621 3.16526 97.6841 3.27926 97.6761C3.37726 97.6691 3.43324 97.6391 3.50924 97.5861C3.55724 97.5531 3.62124 97.5041 3.70424 97.4521C3.56024 97.4321 3.44224 97.4061 3.35024 97.3661C3.24324 97.3201 3.12425 97.2401 3.07625 97.0971C3.02725 96.9531 3.07526 96.8221 3.12526 96.7341C3.21926 96.5691 3.41229 96.4031 3.59829 96.2591C3.77929 96.1191 4.00125 95.9621 4.20125 95.8151C4.26525 95.7051 4.28226 95.6401 4.28426 95.6081C4.28526 95.5901 4.28323 95.5931 4.28023 95.5911C4.26423 95.5771 4.21824 95.5541 4.12124 95.5371C4.02824 95.5211 3.90928 95.5161 3.77028 95.5191C3.49128 95.5271 3.16326 95.5711 2.84926 95.6181C2.54726 95.6631 2.24329 95.7131 2.04629 95.7241L1.98324 95.7191C1.75224 95.6721 1.56426 95.6191 1.41726 95.5591C1.27326 95.5001 1.14525 95.4251 1.05825 95.3221C0.961248 95.2061 0.926254 95.0631 0.964254 94.9191C0.996254 94.7931 1.07727 94.6901 1.15627 94.6121C1.31527 94.4551 1.56023 94.3051 1.80123 94.1701C1.92523 94.1001 2.05627 94.0311 2.18227 93.9641C2.29627 93.9041 2.40624 93.8441 2.50924 93.7871C2.54424 93.7491 2.57025 93.7171 2.58925 93.6911C2.58725 93.6911 2.58527 93.6911 2.58327 93.6901C2.49627 93.6801 2.38524 93.6771 2.25124 93.6791C1.99524 93.6811 1.65426 93.6991 1.36226 93.6801C1.21326 93.6701 1.06125 93.6491 0.925252 93.6071C0.799252 93.5691 0.668281 93.5051 0.567281 93.3971C0.420281 93.2601 0.318252 93.1091 0.274252 92.9411C0.229252 92.7711 0.250286 92.6081 0.309286 92.4621C0.421286 92.1851 0.676233 91.9561 0.918233 91.7791C1.13623 91.6201 1.37829 91.4791 1.57229 91.3671C1.08929 91.1831 0.785271 90.8921 0.656271 90.5071C0.505271 90.0551 0.621277 89.5491 0.825277 89.0901C0.692277 88.7311 0.67823 88.4181 0.82723 88.1651C0.98623 87.8961 1.28224 87.7801 1.55324 87.7211C1.83224 87.6601 2.15623 87.6441 2.44423 87.6291C2.74623 87.6131 3.00528 87.5991 3.20028 87.5521L3.29629 87.5481C3.41329 87.5651 3.51625 87.5781 3.60525 87.5871C3.51625 87.5381 3.41629 87.4851 3.30929 87.4351C3.06529 87.3191 2.80225 87.2151 2.58925 87.1491L2.42623 86.9891C2.37023 86.8181 2.35127 86.6531 2.38827 86.4981C2.42727 86.3387 2.51924 86.2178 2.63424 86.1299C2.84624 85.9688 3.15524 85.9035 3.42324 85.8575C3.71924 85.8069 3.99629 85.775 4.24929 85.7071C4.50129 85.6391 4.65725 85.5507 4.73525 85.4356L4.77028 85.3946C5.02628 85.151 5.35923 85.095 5.66323 85.0948C5.95923 85.0945 6.29823 85.15 6.56423 85.1768C6.85423 85.206 7.07424 85.205 7.23324 85.1407C7.36324 85.0877 7.48426 84.9789 7.54226 84.6885C7.57426 84.5057 7.63826 84.3476 7.73726 84.2198C7.83826 84.0894 7.96727 84.0025 8.10927 83.9493C8.38227 83.8471 8.70429 83.8698 8.99929 83.92C9.29729 83.9707 9.62426 84.0607 9.90426 84.128C10.1253 84.1811 10.3183 84.22 10.4773 84.2315L10.6262 84.2334L10.6652 84.2344C10.9972 84.267 11.2783 84.2383 11.4813 84.1827C11.5833 84.1548 11.6603 84.1216 11.7133 84.0899C11.7173 84.0873 11.7193 84.0825 11.7233 84.0801C11.5933 84.0193 11.3263 83.9615 10.8693 83.9571L10.8422 83.9551C10.4072 83.9057 10.0793 83.7702 9.87826 83.5645C9.66626 83.3484 9.61124 83.0653 9.72024 82.8106C9.92724 82.3314 10.6012 82.1241 11.3502 82.3741C12.0162 82.4646 12.6823 82.3419 13.4223 82.2871C14.0093 82.2438 14.6212 82.2494 15.2122 82.4991C15.2292 82.3288 15.2792 82.1757 15.3582 82.0371C15.4992 81.7896 15.7183 81.6117 15.9293 81.4659C16.0363 81.3926 16.1493 81.322 16.2553 81.2549C16.3623 81.1865 16.4643 81.1198 16.5593 81.0489C16.7513 80.9068 16.9043 80.7563 17.0023 80.5674L17.0883 80.4727C17.7063 80.0708 18.3583 80.1305 18.9093 80.2334C19.2023 80.2882 19.4322 80.3465 19.6762 80.3838C19.8672 80.4129 20.0272 80.4192 20.1632 80.3975C20.5162 79.8599 21.1193 79.6062 21.6103 79.3907C21.8833 79.2708 22.1263 79.1627 22.3283 79.0284C22.5233 78.8981 22.6633 78.7521 22.7443 78.5664C23.0003 77.6546 23.7123 77.1387 24.4663 76.7559C24.8473 76.5628 25.2573 76.3946 25.6363 76.2295C26.0173 76.0639 26.3712 75.8983 26.6732 75.7051C27.1942 75.2127 27.7502 75.0993 28.3012 75.128C28.5752 75.1422 28.8502 75.1911 29.1132 75.2422C29.3632 75.2907 29.6012 75.3384 29.8402 75.3711C30.0782 75.3 30.1482 75.2129 30.1782 75.1485C30.2252 75.0482 30.2213 74.9405 30.2363 74.7315C30.2493 74.5465 30.2833 74.2983 30.4893 74.0918C30.6843 73.8965 30.9933 73.7775 31.4513 73.7198C31.6403 73.6708 31.8173 73.5558 32.0003 73.3916C32.1883 73.2217 32.3563 73.0269 32.5503 72.8213C32.7353 72.6263 32.9443 72.423 33.1853 72.295C33.4073 72.1775 33.6563 72.1237 33.9343 72.1817L34.0553 72.2129L34.0833 72.2237C34.4023 72.3687 34.6372 72.3562 34.7932 72.292C34.9502 72.2269 35.0583 72.0965 35.1043 71.9444C35.1513 71.7911 35.1313 71.6257 35.0463 71.4952C34.9633 71.3693 34.7993 71.2477 34.5033 71.2168L34.3103 71.0899C34.2363 70.9569 34.2493 70.8172 34.2843 70.708C34.3183 70.6014 34.3812 70.498 34.4492 70.4043C34.5852 70.2164 34.7893 70.0074 34.9943 69.8028C35.2043 69.5922 35.4222 69.3805 35.6102 69.1709C35.8012 68.9586 35.9403 68.7698 36.0073 68.6123L36.3253 68.4766C36.6923 68.6124 36.9543 68.6506 37.1493 68.6358C37.3383 68.6214 37.4792 68.5568 37.6052 68.4571C37.7392 68.3517 37.8573 68.2069 37.9973 68.0235C38.1323 67.8467 38.2872 67.6345 38.4782 67.4366L38.6832 67.3623C39.0742 67.4035 39.3583 67.3814 39.5393 67.3311C39.7353 67.2764 39.7403 67.213 39.7363 67.2315C39.7313 67.2543 39.7573 67.2016 39.6063 67.084C39.4663 66.9749 39.2223 66.8535 38.8543 66.752L38.8363 66.7461C38.6533 66.6806 38.5013 66.5895 38.3963 66.4659C38.2873 66.3368 38.2393 66.1843 38.2493 66.0284C38.2673 65.7386 38.4773 65.4834 38.7013 65.3037C38.9353 65.1158 39.2393 64.9644 39.5473 64.8975C39.8233 64.8374 40.1353 64.8411 40.3983 64.9883C40.7253 64.9935 41.0182 64.9904 41.2542 64.9678C41.3782 64.9559 41.4823 64.9397 41.5623 64.919C41.6173 64.9048 41.6542 64.8879 41.6782 64.876C41.6742 64.8684 41.6702 64.8581 41.6632 64.8477C41.5792 64.7284 41.3743 64.5433 40.9763 64.2803L41.0122 63.8438C41.4032 63.6699 41.9562 63.5514 42.4912 63.4297C43.0432 63.3042 43.5922 63.1719 44.0322 62.9717L44.1162 62.9502C44.4402 62.9247 44.7203 62.8865 44.9353 62.836C45.1283 62.7907 45.2373 62.7407 45.2893 62.7051C45.2273 62.6282 45.0702 62.5066 44.7512 62.3467L44.7783 61.8877C45.0463 61.7916 45.3103 61.6664 45.5863 61.5352C45.8573 61.4059 46.1423 61.2703 46.4323 61.1651C47.0013 60.9589 47.6192 60.8606 48.2982 61.1348C48.5862 61.093 49.1712 60.9963 49.6082 60.8389C49.7252 60.7969 49.8252 60.7528 49.9022 60.708C49.9822 60.6617 50.0222 60.6236 50.0382 60.6006C50.0392 60.5993 50.0392 60.5978 50.0402 60.5967C50.0342 60.5839 50.0142 60.5514 49.9542 60.5C49.8072 60.4332 49.6803 60.3509 49.5983 60.2403C49.4953 60.1003 49.4783 59.9389 49.5373 59.7901C49.5873 59.6608 49.6883 59.5561 49.7863 59.4746C49.8883 59.3899 50.0113 59.3109 50.1403 59.2383C50.3983 59.0933 50.7062 58.9585 50.9702 58.8467C51.2472 58.7294 51.4572 58.6441 51.5562 58.5879L51.8502 58.6221C52.2292 58.974 52.6733 59.2093 53.0933 59.2481C53.4593 59.2817 53.8263 59.1676 54.1513 58.8067C54.0013 58.5231 53.8953 58.283 53.8463 58.0821C53.7893 57.8468 53.7953 57.5943 53.9863 57.4141C54.1523 57.2578 54.4023 57.2178 54.6413 57.209C54.8913 57.1999 55.2052 57.224 55.5712 57.2608C55.8602 57.2547 56.0572 57.2356 56.1862 57.211C56.1682 57.1948 56.1473 57.1763 56.1243 57.1573C56.0823 57.1238 56.0382 57.0885 55.9912 57.0518C55.9452 57.0158 55.8952 56.978 55.8472 56.9395C55.7562 56.8651 55.6552 56.7762 55.5822 56.6817C55.5152 56.5955 55.4212 56.4371 55.4832 56.252C55.5392 56.0842 55.6923 55.9943 55.8353 55.9405C56.0873 55.8103 56.3492 55.7157 56.5972 55.6329C56.8552 55.5472 57.0883 55.4765 57.3123 55.3887C57.7503 55.2171 58.0833 55.0028 58.2763 54.5811L58.3523 54.4864C58.8393 54.1142 59.3853 54.0815 59.8573 54.0723C60.3193 54.0633 60.6932 54.0704 61.0222 53.9248C61.3192 53.2674 61.6753 52.8708 62.1583 52.7295C62.6213 52.5941 63.1383 52.7164 63.6973 52.917C64.8513 52.5762 65.9502 52.7565 67.0092 53.1895C67.6892 53.4247 68.2303 53.19 68.7493 52.7383C69.0123 52.5091 69.2612 52.2309 69.5092 51.9414C69.7532 51.6576 70.0023 51.357 70.2533 51.1065L70.3773 50.9854C70.4983 50.8717 70.6112 50.7813 70.7172 50.7129C70.8572 50.6233 70.9993 50.5615 71.1403 50.5508C71.2923 50.5394 71.4323 50.5887 71.5373 50.6953C71.6333 50.7935 71.6813 50.9215 71.7053 51.0411C71.7513 51.2793 71.7182 51.5766 71.6392 51.8614C71.5922 52.0321 71.5242 52.207 71.4412 52.375C71.5732 52.3152 71.7342 52.2241 71.9072 52.1065C72.1512 51.9401 72.4012 51.7339 72.6032 51.5254C72.8102 51.3112 72.9432 51.1178 72.9882 50.9776L73.0662 50.8614C73.3052 50.6617 73.5843 50.555 73.8613 50.4873C74.1333 50.421 74.4313 50.3868 74.6963 50.3467C75.2473 50.2632 75.7092 50.1481 76.0322 49.7393L76.0763 49.6953C76.3643 49.4737 76.6753 49.431 76.9723 49.4834C77.2573 49.5336 77.5333 49.6714 77.7763 49.8067C78.0343 49.9504 78.2482 50.0855 78.4622 50.1827C78.6352 50.2617 78.7642 50.2902 78.8632 50.2832C79.0322 50.0999 79.2003 49.8943 79.3833 49.6758C79.5823 49.4391 79.7983 49.1938 80.0363 48.9903C80.2753 48.786 80.5483 48.6136 80.8653 48.5352C81.1693 48.4601 81.4962 48.4759 81.8502 48.6065C82.5102 48.5385 83.1003 48.8349 83.6013 49.1055C83.8703 49.2509 84.1133 49.3887 84.3543 49.4922C84.5543 49.578 84.7393 49.6294 84.9143 49.6426C85.3713 49.1562 85.8942 48.5223 86.4702 48.0401C87.0532 47.5522 87.7403 47.1757 88.5753 47.2041L88.7443 47.2149L88.8062 47.2295C89.0412 47.3166 89.2343 47.3029 89.4143 47.2354C89.6053 47.1636 89.7903 47.0282 89.9993 46.8536C90.1963 46.6879 90.4253 46.4764 90.6643 46.3096C90.9023 46.1432 91.1773 46.0014 91.5033 45.958C93.3003 45.3918 95.2032 45.2417 97.0642 45.337L97.2003 45.7871C96.9153 45.999 96.5972 46.1738 96.2802 46.334C95.9532 46.4992 95.6472 46.6402 95.3372 46.8037C94.7262 47.1254 94.2252 47.4768 93.9572 48.0235L93.9553 48.0284C93.7693 48.3882 93.7642 48.6067 93.8012 48.7198C93.8332 48.8154 93.9122 48.8851 94.0612 48.9092C94.3852 48.9612 94.9103 48.7595 95.1963 48.2901L95.2653 48.2149C96.8853 47.0769 98.5932 45.856 100.569 45.2696L100.872 45.417C100.978 45.6848 100.976 46.0327 100.959 46.3409C100.94 46.677 100.903 46.9731 100.903 47.2412C100.903 47.3704 100.912 47.4711 100.931 47.544C100.95 47.6171 100.972 47.637 100.977 47.6407C100.98 47.6423 100.985 47.6452 100.997 47.6475C101.011 47.6502 101.036 47.6525 101.077 47.6465C101.161 47.6339 101.288 47.5905 101.471 47.4922L101.564 47.4639C102.249 47.3924 102.766 46.9997 103.279 46.4961C103.407 46.3709 103.531 46.2406 103.659 46.1084C103.786 45.9771 103.915 45.843 104.047 45.7139C104.309 45.4562 104.592 45.2081 104.911 45.0186L105.039 44.9834C105.303 44.984 105.587 44.9487 105.888 44.9043C106.184 44.8608 106.505 44.807 106.816 44.7764ZM52.5512 3.2227C53.2322 3.002 53.9323 3.0684 54.5933 3.2032C54.9263 3.2711 55.2592 3.3585 55.5772 3.4395C55.8922 3.5199 56.1953 3.5936 56.4863 3.6426C57.0453 3.6567 57.6793 3.6344 58.2603 3.668C58.8673 3.7031 59.4843 3.7998 60.0803 4.0703L60.2143 4.375C60.1243 4.6519 60.0333 4.9104 59.9693 5.1534C59.9053 5.3978 59.8773 5.5944 59.8953 5.7432C59.9113 5.8769 59.9622 5.9607 60.0662 6.0205C60.1842 6.0882 60.3953 6.1374 60.7633 6.1211C61.0133 6.0134 61.2732 5.8821 61.5582 5.7461C61.8522 5.6061 62.1663 5.4668 62.4843 5.378C62.8023 5.2889 63.1383 5.2462 63.4733 5.3106C63.8033 5.3741 64.1152 5.5391 64.3972 5.8321C65.4902 6.6068 66.7463 6.8955 68.0763 7.1026C69.3903 7.3071 70.7983 7.433 72.0993 7.9092C72.4713 7.9828 73.2732 8.1977 73.7622 8.4161C73.8872 8.4716 74.0073 8.5339 74.0963 8.6026C74.1403 8.6365 74.1912 8.6828 74.2282 8.7422C74.2672 8.8049 74.3023 8.9021 74.2703 9.0127C74.2403 9.1167 74.1662 9.1808 74.1082 9.2168C74.0492 9.2538 73.9792 9.279 73.9102 9.2979C73.7752 9.3343 73.5922 9.358 73.3582 9.3731C72.1262 9.76 70.8243 9.8313 69.5893 9.9483C68.3533 10.0653 67.1713 10.2294 66.0913 10.7686C65.1493 12.3149 64.0783 14.032 62.4953 15.0362L62.3842 15.0743C61.7082 15.1377 61.0803 15.1419 60.4713 15.2618C59.8803 15.3783 59.3542 15.5989 58.9232 16.0694L58.8393 16.1299C58.4053 16.3202 58.1542 16.7168 57.9262 17.1875C57.8202 17.4083 57.7073 17.6696 57.5943 17.8829C57.4793 18.1014 57.3393 18.3199 57.1453 18.4746L57.0772 18.5137C55.8492 18.9731 54.6143 18.8795 53.4193 18.628C52.8223 18.5023 52.2263 18.3353 51.6453 18.1748C51.0613 18.0134 50.4903 17.8577 49.9273 17.75L49.9202 17.7491C47.9872 17.3183 46.1443 16.6364 44.3513 15.8282L44.2943 15.4082C45.1193 14.7224 46.0762 14.5637 47.0192 14.5313C47.4872 14.5153 47.9712 14.5301 48.4282 14.5313C48.8932 14.5324 49.3432 14.5197 49.7752 14.4522L49.8012 14.4493C51.3512 14.3724 52.8412 14.3014 54.1912 13.6807C53.4702 13.4216 52.7033 13.4068 51.8953 13.4737C51.4013 13.5146 50.9072 13.5842 50.3972 13.6436C49.8992 13.7016 49.3923 13.7473 48.8883 13.7403C46.8663 13.9357 44.8383 13.9792 42.8203 14.0196L42.6702 13.9727C42.2792 13.6944 42.0113 13.4554 41.8743 13.2452C41.8043 13.1387 41.7513 13.0135 41.7573 12.878C41.7653 12.7303 41.8402 12.6166 41.9392 12.5391C42.0312 12.4671 42.1452 12.4231 42.2562 12.3936C42.3712 12.3633 42.5033 12.3435 42.6433 12.3311C42.9173 12.3068 43.2473 12.3072 43.6013 12.3203C46.8833 11.7608 50.1623 11.5385 53.2963 10.5948C52.4393 10.4591 51.5782 10.3491 50.7022 10.2071C49.5212 10.0156 48.3403 9.7667 47.2013 9.3223C46.3573 9.428 45.6462 9.8656 44.8762 10.336C44.1112 10.8028 43.2882 11.3006 42.2822 11.3887C40.2952 11.9644 38.1612 11.5141 36.3662 10.7012L36.0783 10.5899C35.4033 10.341 34.7112 10.1605 33.9982 9.9287C33.1962 9.6683 32.3953 9.3496 31.6803 8.8057L31.7752 8.3633C32.3652 8.2257 32.9563 8.0878 33.5463 7.9502C33.9613 7.8533 34.3772 7.7552 34.7932 7.6582C34.7052 7.5918 34.6193 7.5279 34.5393 7.4688C34.3133 7.3033 34.0962 7.1592 33.8792 7.0557C33.6622 6.953 33.4513 6.894 33.2373 6.8936C33.0243 6.8933 32.7922 6.9497 32.5322 7.1016L32.4863 7.1231C31.8963 7.3224 31.2202 7.4847 30.5712 7.4463C29.9302 7.4084 29.3113 7.1726 28.8393 6.5909C28.4263 6.399 28.1403 6.1998 28.0053 5.9717C27.9293 5.8418 27.9002 5.6986 27.9312 5.5537C27.9612 5.4155 28.0412 5.3025 28.1312 5.2139C28.3062 5.0411 28.5763 4.9066 28.8513 4.7998C29.1333 4.6905 29.4533 4.5992 29.7533 4.5254L29.7923 4.5186C31.6533 4.3622 33.5303 4.1759 35.4243 4.2666C35.9793 4.1929 36.5373 4.1664 37.0863 4.1485C37.6463 4.1302 38.1922 4.1209 38.7332 4.084L38.9973 4.3789C38.8823 4.9992 39.0403 5.3957 39.3153 5.628C39.6033 5.8709 40.0763 5.9834 40.6773 5.9053L40.7033 5.9034C40.9863 5.8956 41.2972 5.9434 41.5822 5.9883C41.8772 6.0349 42.1493 6.0788 42.3933 6.0801C42.6373 6.0815 42.8153 6.0393 42.9403 5.9463C43.0443 5.8691 43.1433 5.7339 43.1983 5.4776L43.2183 5.3604C43.3153 4.6123 43.9462 4.2863 44.5612 4.1709C45.1062 4.0688 45.7173 4.111 46.1743 4.2032L46.3613 4.2452L46.3892 4.2539C47.4412 4.6606 48.3683 5.3187 49.2713 5.8946C50.1763 6.4715 51.0703 6.9752 52.1043 7.1602C52.5103 7.1179 52.6972 7.0296 52.7692 6.96C52.7992 6.9311 52.8073 6.9079 52.8093 6.8877C52.8123 6.8627 52.8092 6.8205 52.7822 6.7579C52.7262 6.6272 52.5932 6.4629 52.3972 6.2881C52.2052 6.1175 51.9713 5.9521 51.7343 5.8155L51.6962 5.7891C51.0752 5.2548 50.8192 4.673 51.0562 4.1446C51.2752 3.6593 51.8602 3.3584 52.5512 3.2227ZM69.7353 0.25C70.5083 0.6366 71.2053 1.0552 71.9613 1.3809C72.7023 1.7004 73.4533 1.9073 74.2743 1.8584H74.2813C75.2413 1.827 76.3223 1.7046 77.3413 1.7432C78.3403 1.7811 79.3363 1.9729 80.2403 2.5635C81.3283 2.2636 82.2653 1.6934 83.1223 0.9639L83.1682 0.9327C83.5422 0.7367 83.8642 0.597699 84.1262 0.528399C84.2562 0.493799 84.3833 0.4733 84.4993 0.4776C84.6153 0.4819 84.7402 0.5121 84.8422 0.5967C85.0582 0.7755 85.0393 1.0657 84.9793 1.2998C84.9163 1.5463 84.7752 1.8532 84.5692 2.2188C84.5292 2.4619 84.5973 2.5749 84.6753 2.6397C84.7803 2.7255 84.9683 2.7807 85.2373 2.7842C85.7693 2.791 86.4313 2.5936 86.7663 2.4092L86.7692 2.4073C88.3442 1.5671 90.3933 0.7553 92.2423 1.4668L92.4213 1.5411L92.5203 1.6202C92.9763 2.2344 93.6033 2.4318 94.3343 2.4678C94.7023 2.4859 95.0872 2.4623 95.4832 2.4327C95.8672 2.4039 96.2652 2.3692 96.6422 2.3672C98.4502 2.1789 100.317 2.2738 102.078 2.6621L102.428 2.7442L102.46 2.7539C102.694 2.8447 102.881 2.9336 103.023 3.0235C103.161 3.1107 103.279 3.2127 103.345 3.3379C103.421 3.4804 103.419 3.6333 103.348 3.7676C103.286 3.8847 103.181 3.9714 103.082 4.0352C102.881 4.1643 102.596 4.2695 102.319 4.3575C102.042 4.4454 101.73 4.5294 101.495 4.5996C98.4253 5.6002 95.2673 6.5409 91.9823 6.6319C90.9433 6.7057 89.9513 7.0234 88.9013 7.2911C87.8723 7.5534 86.8013 7.7609 85.6663 7.5772C81.9903 7.5203 78.3143 7.4641 74.6383 7.4073L74.4063 7.2364C74.2723 6.8361 74.3003 6.4954 74.5393 6.253C74.7493 6.0394 75.0743 5.9612 75.3673 5.9209C75.6643 5.8801 76.0213 5.8698 76.3083 5.8467C76.6183 5.8218 76.8603 5.7814 77.0163 5.7022L77.1283 5.6758C77.4733 5.6735 77.7472 5.4788 78.0452 5.1719C78.1982 5.0134 78.3302 4.8571 78.4932 4.6807C78.4992 4.6736 78.5062 4.6663 78.5122 4.6592C74.4072 4.6121 70.3043 4.5518 66.2273 4.833L66.1713 4.8301L62.2412 4.2012L62.1333 3.752C63.2383 2.9416 64.5192 2.6096 65.7542 2.3135C66.9542 1.5173 68.2542 0.894299 69.5092 0.250999L69.7353 0.25Z" fill="#9FE2AF" stroke="white" stroke-width="0.5" stroke-linejoin="round"/>
</svg>
