<svg width="70" height="59" viewBox="0 0 70 59" fill="none" xmlns="http://www.w3.org/2000/svg">
<path d="M10.499 0.386251C11.696 0.246251 12.913 0.169246 14.123 0.381246L14.135 0.38323L14.3 0.425222C15.113 0.658222 15.776 1.22125 16.392 1.67925C17.069 2.18325 17.71 2.58223 18.529 2.54723H18.542L18.725 2.55623C19.138 2.59423 19.465 2.74722 19.732 2.97722C20.028 3.23322 20.236 3.57623 20.408 3.92223C20.495 4.09723 20.575 4.27824 20.652 4.45424C20.731 4.63224 20.808 4.80525 20.89 4.97225C21.033 5.26625 21.186 5.52423 21.375 5.72823L21.458 5.81225L21.494 5.85525C22.042 6.67125 22.78 7.30423 23.597 7.87923C24.005 8.16723 24.431 8.43923 24.86 8.71123C25.288 8.98323 25.721 9.25722 26.138 9.54622L26.091 9.98324C25.555 10.2052 25.271 10.5692 25.161 10.9902C25.049 11.4212 25.115 11.9392 25.339 12.4562L25.353 12.4952C25.453 12.9022 25.535 13.3512 25.625 13.7792C25.716 14.2132 25.818 14.6372 25.962 15.0272C26.23 15.7542 26.635 16.3412 27.37 16.6422L27.522 16.6992L27.58 16.7272C28.276 17.1892 28.496 17.8992 28.564 18.6072C28.597 18.9602 28.595 19.3252 28.59 19.6692C28.585 20.0202 28.578 20.3472 28.601 20.6482L28.533 20.7972L28.614 20.8382C29.591 21.7362 30.55 22.6293 31.719 23.1493C31.864 23.0013 32.007 22.8492 32.181 22.6742C32.387 22.4682 32.614 22.2582 32.86 22.0972C33.108 21.9362 33.388 21.8152 33.698 21.8022C34.008 21.7902 34.322 21.8882 34.638 22.1122L34.807 22.2042C35.655 22.6202 36.57 22.3752 37.107 21.5532L37.156 21.4983C37.526 21.1903 38.07 20.7472 38.62 20.5572C38.9 20.4612 39.209 20.4212 39.506 20.5202C39.808 20.6212 40.059 20.8532 40.25 21.2172L40.278 21.3173C40.383 22.8913 41.125 24.3792 42.232 25.5042L42.457 25.7252L42.487 25.7582C43.069 26.5382 43.207 27.4662 43.353 28.3032C43.492 29.1092 43.639 29.8392 44.11 30.4402L44.209 30.5582L44.234 30.5922L44.543 31.0902C44.795 30.8102 45.087 30.5062 45.4 30.3012C45.647 30.1412 45.93 30.0232 46.239 30.0292C46.546 30.0342 46.845 30.1622 47.13 30.4212C47.37 30.5532 47.594 30.7382 47.791 30.9062C48.007 31.0892 48.19 31.2482 48.365 31.3512C48.537 31.4522 48.655 31.4712 48.753 31.4402C48.859 31.4062 49.016 31.2892 49.204 30.9482L49.235 30.9042C49.568 30.5262 49.985 29.9762 50.454 29.5712C50.901 29.1852 51.447 28.8812 52.094 28.9592L52.225 28.9792L52.352 29.0462C52.559 29.2512 52.653 29.5562 52.713 29.8292C52.744 29.9702 52.768 30.1192 52.791 30.2592C52.815 30.4032 52.837 30.5392 52.864 30.6672C52.921 30.9332 52.99 31.1062 53.081 31.1982C53.146 31.2632 53.257 31.3212 53.524 31.2452L53.527 31.2442C53.71 31.1942 53.893 31.0892 54.093 30.9522C54.276 30.8262 54.506 30.6482 54.708 30.5222C54.92 30.3902 55.164 30.2712 55.434 30.2562C55.678 30.2432 55.917 30.3152 56.15 30.4872C56.468 30.4102 56.751 30.4222 57.003 30.5102C57.286 30.6102 57.506 30.7982 57.683 31.0132C57.858 31.2272 58 31.4792 58.123 31.7192C58.25 31.9672 58.352 32.1872 58.466 32.3932C58.86 32.9672 59.473 33.4422 60.126 33.6422C60.774 33.8412 61.448 33.7672 62.009 33.2662L62.07 33.2262C63.927 32.3662 66.35 32.2532 68.008 33.7242L68.166 33.8722L68.17 33.8762C68.665 34.3812 68.781 35.0652 68.842 35.7022C68.898 36.2852 68.91 36.8252 69.048 37.3012L69.115 37.5022L69.126 37.5352C69.278 38.1772 69.516 38.9142 69.586 39.6182C69.658 40.3382 69.562 41.0722 69.038 41.7512L69.039 41.7522C68.4 42.6422 67.981 43.6462 67.624 44.6982C67.446 45.2242 67.284 45.7582 67.117 46.2962C66.956 46.8162 66.79 47.3402 66.603 47.8532C66.629 48.8432 66.954 49.7622 67.357 50.6882C67.709 51.4972 68.129 52.3292 68.424 53.1852L68.541 53.5542L68.544 53.5642C68.615 53.8492 68.661 54.0642 68.685 54.2222C68.696 54.3012 68.703 54.3722 68.703 54.4342C68.703 54.4902 68.698 54.5672 68.665 54.6372C68.624 54.7262 68.539 54.8032 68.418 54.8142C68.327 54.8222 68.252 54.7882 68.214 54.7692C68.134 54.7282 68.044 54.6562 67.974 54.6002C67.807 54.4682 67.648 54.3442 67.496 54.3012C67.429 54.2822 67.375 54.2842 67.328 54.3002C67.281 54.3172 67.213 54.3592 67.135 54.4662L67.1 54.5052C66.618 54.9422 65.994 54.8842 65.457 54.7612C65.186 54.7002 64.901 54.6122 64.651 54.5442C64.392 54.4732 64.16 54.4202 63.956 54.4102H63.942V54.4092C61.748 54.1772 59.484 54.2882 57.279 54.5292C53.826 55.1402 50.523 56.5502 47.445 58.2452C47.06 58.5672 46.494 58.7492 45.982 58.4592V58.4582C43.226 57.2912 40.366 56.1012 37.887 54.3692L37.847 54.3342C35.865 52.1872 33.712 50.1722 31.014 49.0792L30.987 49.0662C29.864 48.4512 28.794 47.7472 27.842 46.8672L27.833 46.7212C27.766 46.7042 27.7 46.6802 27.637 46.6512C27.415 46.5492 27.201 46.3792 27.003 46.2112C26.795 46.0342 26.603 45.8572 26.395 45.6992L26.35 45.6552C26.229 45.5032 26.028 45.3792 25.763 45.2602C25.633 45.2022 25.495 45.1482 25.352 45.0922C25.211 45.0382 25.063 44.9802 24.925 44.9192C24.656 44.7992 24.371 44.6442 24.197 44.3982C24.022 44.1492 23.986 43.8482 24.098 43.4982C23.998 43.1942 23.692 43.0172 23.204 42.8122C22.964 42.7112 22.685 42.6042 22.434 42.4692C22.189 42.3382 21.948 42.1702 21.767 41.9332C21.627 41.8122 21.427 41.6582 21.197 41.4742C20.965 41.2882 20.709 41.0762 20.488 40.8602C20.272 40.6482 20.068 40.4122 19.962 40.1742C19.908 40.0532 19.873 39.9172 19.887 39.7752C19.901 39.6272 19.967 39.4932 20.079 39.3832L20.189 39.3212C20.549 39.2242 20.742 39.1022 20.836 38.9972C20.918 38.9042 20.932 38.8172 20.905 38.7222C20.874 38.6122 20.783 38.4772 20.621 38.3382C20.462 38.2032 20.25 38.0762 20.008 37.9832L20.099 37.5012C20.076 37.5002 20.042 37.5042 20.006 37.5222C19.969 37.5412 19.94 37.5692 19.921 37.5972C19.904 37.6232 19.897 37.6482 19.894 37.6622C19.891 37.6752 19.89 37.6852 19.89 37.6892C19.889 37.6872 19.889 37.6822 19.888 37.6752C19.885 37.6602 19.882 37.6432 19.877 37.6192C19.87 37.5842 19.853 37.5062 19.855 37.4372C19.856 37.4032 19.861 37.3282 19.911 37.2582C19.915 37.2522 19.921 37.2472 19.926 37.2422C20.078 36.5782 19.784 36.0482 19.305 35.5052C19.052 35.2192 18.772 34.9562 18.489 34.6662C18.215 34.3842 17.946 34.0822 17.759 33.7532L17.729 33.5952C17.77 33.2882 17.723 33.0742 17.636 32.9142C17.547 32.7502 17.403 32.6162 17.206 32.4962C17.007 32.3742 16.77 32.2742 16.51 32.1682C16.256 32.0642 15.978 31.9542 15.727 31.8162L15.689 31.7913C15.502 31.6383 15.245 31.4932 14.951 31.3322C14.667 31.1752 14.349 31.0032 14.079 30.8062C13.81 30.6102 13.558 30.3692 13.429 30.0592C13.299 29.7472 13.306 29.3992 13.476 29.0142C13.491 28.8912 13.478 28.8212 13.46 28.7822C13.443 28.7442 13.415 28.7132 13.36 28.6852C13.301 28.6552 13.216 28.6312 13.102 28.6152C12.988 28.5982 12.86 28.5912 12.719 28.5842C12.456 28.5692 12.12 28.5572 11.856 28.4462C11.715 28.3872 11.581 28.2962 11.483 28.1532C11.389 28.0132 11.345 27.8432 11.343 27.6502L11.341 27.6512C11.325 27.4172 11.354 27.2032 11.415 27.0072C11.364 26.9972 11.314 26.9802 11.265 26.9572C10.612 27.0092 10.023 26.7272 9.72296 26.2652C9.56496 26.0222 9.48798 25.7312 9.53198 25.4252C9.57598 25.1202 9.73697 24.8192 10.017 24.5492L10.037 24.5322C10.274 24.3482 10.449 24.1642 10.557 24.0002C10.668 23.8302 10.693 23.7083 10.684 23.6363C10.677 23.5863 10.649 23.5232 10.523 23.4692C10.385 23.4112 10.15 23.3742 9.78699 23.4022C9.53599 23.4262 9.28596 23.4802 9.02496 23.5382C8.76996 23.5942 8.49999 23.6562 8.23199 23.6852C7.67999 23.7452 7.11201 23.6712 6.55701 23.1832C6.06301 22.8492 5.76201 22.4613 5.48901 22.1923C5.21301 21.9183 4.914 21.7022 4.341 21.6082L4.32697 21.5092C4.05097 21.4582 3.79997 21.3142 3.58997 21.0352L3.57898 21.0202C3.21998 20.4642 3.24902 19.8802 3.29102 19.3632C3.33402 18.8262 3.38797 18.3652 3.20197 17.9072L3.20099 17.7222C3.23099 17.6452 3.27102 17.5802 3.31702 17.5232C3.20902 17.3642 3.15601 17.1732 3.14801 16.9892C3.13401 16.6952 3.229 16.3762 3.435 16.1342C3.62 15.9162 3.89202 15.7672 4.23102 15.7542L4.38 15.7572L4.39899 15.7592C4.47499 15.7712 4.54697 15.7462 4.59497 15.7042C4.64097 15.6622 4.66 15.6103 4.651 15.5543L4.78796 15.3932C4.70296 15.3172 4.62298 15.2342 4.54498 15.1472C4.38898 14.9742 4.21699 14.7592 4.03699 14.5482L4.01697 14.5202C3.74097 14.0892 3.57699 13.5682 3.40399 13.1132C3.22499 12.6422 3.02899 12.2152 2.68799 11.8772L2.65802 11.8422C2.05802 10.9872 1.29696 10.2682 0.313965 10.0282L0.25 9.56823C2.581 8.25023 4.12497 5.72323 4.74097 3.13723C4.58997 1.83623 5.72499 0.783236 6.95099 0.789236L7.39099 0.760244C8.41499 0.681244 9.44096 0.511251 10.499 0.386251Z" fill="#F8CA6A" stroke="white" stroke-width="0.5" stroke-linejoin="round"/>
</svg>
