<svg width="128" height="128" viewBox="0 0 128 128" fill="none" xmlns="http://www.w3.org/2000/svg">
<g clip-path="url(#clip0_188_652)">
<path d="M91.5122 36.4997C89.4324 34.4192 88.2147 31.6303 88.1025 28.6907C87.9903 25.7512 88.992 22.8776 90.9072 20.6447C91.0656 20.459 91.1479 20.2203 91.1377 19.9764C91.1275 19.7325 91.0255 19.5015 90.8522 19.3297L79.8197 8.28468C79.6373 8.1024 79.39 8 79.1322 8C78.8743 8 78.627 8.1024 78.4447 8.28468L60.8597 25.8697C60.2109 26.5183 59.7221 27.3092 59.4322 28.1797C59.1433 29.0521 58.6552 29.8453 58.0064 30.4962C57.3577 31.1471 56.5662 31.6379 55.6947 31.9297C54.8237 32.2199 54.032 32.7086 53.3822 33.3572L8.28468 78.4447C8.1024 78.627 8 78.8743 8 79.1322C8 79.39 8.1024 79.6373 8.28468 79.8197L19.3172 90.8522C19.489 91.0255 19.72 91.1275 19.9639 91.1377C20.2078 91.1479 20.4465 91.0656 20.6322 90.9072C22.8646 88.9899 25.7388 87.9866 28.6794 88.0981C31.62 88.2097 34.41 89.4277 36.4908 91.5086C38.5716 93.5894 39.7897 96.3793 39.9012 99.3199C40.0127 102.261 39.0094 105.135 37.0922 107.367C36.9338 107.553 36.8514 107.792 36.8616 108.035C36.8718 108.279 36.9738 108.51 37.1472 108.682L48.1797 119.715C48.362 119.897 48.6093 119.999 48.8672 119.999C49.125 119.999 49.3723 119.897 49.5547 119.715L94.6547 74.6172C95.3033 73.9674 95.7919 73.1757 96.0822 72.3047C96.371 71.4322 96.8592 70.6391 97.5079 69.9882C98.1567 69.3372 98.9482 68.8464 99.8197 68.5547C100.69 68.2648 101.481 67.776 102.13 67.1272L119.715 49.5422C119.897 49.3598 119.999 49.1125 119.999 48.8547C119.999 48.5968 119.897 48.3495 119.715 48.1672L108.682 37.1347C108.51 36.9613 108.279 36.8593 108.035 36.8491C107.792 36.8389 107.553 36.9213 107.367 37.0797C105.137 38.9981 102.266 40.0041 99.326 39.8966C96.3865 39.7891 93.5959 38.5759 91.5122 36.4997Z" stroke="white" stroke-width="8" stroke-miterlimit="10"/>
<path d="M62.6246 35.1099L58.4971 30.9824" stroke="white" stroke-width="8" stroke-miterlimit="10" stroke-linecap="round"/>
<path d="M73.6304 46.1152L70.8779 43.3652" stroke="white" stroke-width="8" stroke-miterlimit="10" stroke-linecap="round"/>
<path d="M84.6348 57.1226L81.8848 54.3701" stroke="white" stroke-width="8" stroke-miterlimit="10" stroke-linecap="round"/>
<path d="M97.0172 69.5025L92.8896 65.375" stroke="white" stroke-width="8" stroke-miterlimit="10" stroke-linecap="round"/>
</g>
<defs>
<clipPath id="clip0_188_652">
<rect width="128" height="128" fill="white"/>
</clipPath>
</defs>
</svg>
