<svg width="128" height="128" viewBox="0 0 128 128" fill="none" xmlns="http://www.w3.org/2000/svg">
<g clip-path="url(#clip0_188_649)">
<path d="M36.4022 116H91.5972C96.5472 116 100.485 111.928 99.9522 107.235C96.5147 77 75.9997 77.5 75.9997 64C75.9997 50.5 96.7772 51.25 99.9497 20.765C100.45 16.07 96.5472 12 91.5972 12H36.4022C31.4522 12 27.5597 16.07 28.0497 20.765C31.2222 51.25 51.9997 50.25 51.9997 64C51.9997 77.75 31.4847 77 28.0497 107.235C27.5147 111.928 31.4522 116 36.4022 116Z" stroke="white" stroke-width="8" stroke-linecap="round" stroke-linejoin="round"/>
<path d="M85.825 108H42.2825C38.3825 108 37.2825 103.5 40.0175 100.71C46.6375 94 60 89.195 60 81.5V56C60 51.0375 50.5 47.25 44.6225 39.2C43.6525 37.8725 43.75 36 46.215 36H81.8975C84 36 84.455 37.8575 83.4975 39.1875C77.705 47.25 68 51.0125 68 56V81.5C68 89.1325 81.9275 93.25 88.1 100.717C90.5875 103.728 89.7175 108 85.825 108Z" fill="white"/>
</g>
<defs>
<clipPath id="clip0_188_649">
<rect width="128" height="128" fill="white"/>
</clipPath>
</defs>
</svg>
