<svg width="677" height="500" viewBox="0 0 677 500" fill="none" xmlns="http://www.w3.org/2000/svg">
<path d="M205.279 482.708C208.356 483.534 228.922 483.534 230.798 482.708C231.699 482.333 226.445 482.107 217.663 482.107C209.407 482.107 204.003 482.408 205.279 482.708Z" fill="#150600"/>
<path d="M323.118 481.207C315.837 481.582 317.639 481.657 332.725 481.807C344.659 481.882 351.264 481.657 351.264 481.207C351.264 480.381 339.105 480.381 323.118 481.207Z" fill="#150600"/>
<path d="M127.596 427.744C124.744 429.171 121.591 433.301 121.591 435.628C121.591 436.529 122.342 438.707 123.168 440.509C127.746 449.82 141.857 446.366 141.857 435.929C141.857 432.325 139.53 428.871 136.152 427.444C132.85 426.092 130.748 426.092 127.596 427.744ZM135.327 432.55C136.002 433.075 136.753 434.427 136.978 435.553C137.353 437.13 137.053 438.031 135.552 439.458C133.3 441.786 130.673 441.936 128.496 439.908C126.545 438.031 126.32 434.953 128.121 433C129.547 431.424 133.45 431.198 135.327 432.55Z" fill="#150600"/>
<path d="M247.236 431.574C243.933 433.601 242.432 436.004 242.432 439.383C242.432 443.663 244.309 446.591 248.136 448.243C252.415 450.195 256.318 449.294 259.62 445.54C261.496 443.362 261.947 442.236 261.947 439.308C261.947 436.154 261.572 435.328 259.395 433.226C256.017 429.997 250.838 429.246 247.236 431.574ZM255.492 436.229C257.819 438.106 257.969 439.758 255.867 442.461C253.991 444.864 250.613 445.089 248.437 442.912C246.41 440.884 246.56 438.707 248.812 436.529C251.064 434.277 252.865 434.202 255.492 436.229Z" fill="#150600"/>
<path d="M187.716 430.748C184.038 432.625 182.012 435.553 182.162 439.157C182.462 446.816 188.542 450.796 195.447 447.868C198.749 446.516 201.001 443.513 201.601 439.458C202.202 435.328 200.851 433.075 196.648 430.898C193.045 429.021 191.018 429.021 187.716 430.748ZM195.297 435.929C199.125 439.383 194.321 445.69 189.517 443.513C187.641 442.687 186.44 440.434 186.815 438.407C187.491 434.878 192.52 433.376 195.297 435.929Z" fill="#150600"/>
<path d="M144.108 431.574C142.307 432.099 142.307 432.099 144.709 432.625C148.912 433.451 180.586 434.127 179.46 433.301C178.859 432.85 172.104 432.325 164.448 432.099C156.793 431.799 149.512 431.499 148.236 431.348C147.035 431.198 145.159 431.273 144.108 431.574Z" fill="#150600"/>
<path d="M202.652 435.178C202.652 435.929 240.856 437.205 241.606 436.454C242.507 435.553 239.58 435.328 221.867 434.877C209.257 434.577 202.652 434.652 202.652 435.178Z" fill="#150600"/>
<path d="M367.851 428.72C366.875 429.096 365.074 430.222 363.873 431.273C361.847 433 360.946 433.151 354.791 433.226C350.964 433.226 341.807 433.676 334.376 434.127C320.941 435.103 320.866 435.103 319.59 433.451C315.912 428.946 309.607 428.495 304.579 432.475C301.952 434.577 301.426 434.652 294.446 434.652C280.335 434.652 263.523 435.628 263.973 436.379C264.273 436.83 271.179 436.98 282.962 436.755L301.576 436.379L301.877 440.059C302.477 446.216 307.731 450.045 313.51 448.543C314.636 448.318 316.813 446.816 318.389 445.24C320.716 442.837 321.241 441.786 321.241 439.383V436.379L339.48 435.854C349.462 435.553 358.394 435.103 359.37 434.878C360.721 434.577 361.021 434.802 361.021 436.379C361.021 441.185 364.849 446.366 369.127 447.117C375.057 448.243 380.235 444.489 381.061 438.407C381.962 431.649 374.456 426.092 367.851 428.72ZM373.706 433.526C378.284 435.854 376.408 442.311 371.154 442.311C366.5 442.311 364.624 436.83 368.226 433.976C370.628 432.099 371.004 432.099 373.706 433.526ZM315.237 436.154C317.188 438.106 317.113 439.383 315.011 441.861C312.985 444.188 309.908 444.489 307.731 442.536C304.579 439.683 307.056 434.652 311.484 434.652C312.76 434.652 314.411 435.328 315.237 436.154Z" fill="#150600"/>
<path fill-rule="evenodd" clip-rule="evenodd" d="M555.417 375.784C555.417 376.009 550.614 378.487 544.684 381.34C532.15 387.347 527.196 390.801 522.768 396.808C517.889 403.341 516.313 408.822 515.637 422.638C514.737 439.683 512.11 449.294 505.279 460.182C498.9 470.469 484.564 482.858 476.233 485.411C474.206 486.012 468.052 486.913 462.572 487.364C456.418 487.889 452.815 488.49 453.115 488.94C453.716 489.917 471.054 489.091 473.981 487.964C475.257 487.439 476.383 487.439 476.908 487.889C477.358 488.265 479.085 488.715 480.736 488.865L483.738 489.166L478.86 491.569C467.751 496.975 456.418 496.374 440.806 489.466C430.523 484.886 429.022 484.886 419.265 489.466C410.333 493.671 404.704 495.023 395.547 495.023C386.39 495.023 381.512 493.821 373.18 489.391C370.103 487.739 366.575 486.463 365.299 486.463C363.948 486.463 359.895 487.964 356.142 489.842C341.056 497.35 332.725 497.35 318.239 489.691C310.433 485.562 308.181 485.562 298.349 490.067C289.718 493.971 281.236 495.773 274.781 495.098C269.077 494.497 266.675 493.671 257.969 489.466C251.964 486.538 251.064 486.312 247.086 486.688C244.534 486.913 241.081 487.889 238.829 489.016C231.624 492.62 222.542 494.872 214.286 495.023C205.504 495.098 200.776 493.971 190.643 489.391C184.263 486.538 183.288 486.312 179.085 486.688C176.082 486.913 171.954 488.19 167.151 490.217C150.638 497.2 139.905 497.125 125.344 489.992C116.788 485.787 113.335 485.787 103.953 490.067C96.8978 493.22 87.9661 495.473 82.4119 495.473C75.4316 495.473 66.1247 492.244 62.0716 488.565C61.0208 487.589 58.4689 485.787 56.3673 484.585C52.1642 482.108 51.4887 480.906 54.566 481.507C58.6941 482.333 139.004 482.783 138.479 481.957C138.179 481.507 131.424 481.206 119.865 481.206C109.883 481.206 89.3921 480.681 74.3058 480.08L46.9102 478.879L43.0073 476.551C36.5525 472.646 29.6473 467.165 27.3956 464.237L25.294 461.458L31.2234 461.984C82.0366 466.339 163.323 468.216 284.088 467.841C375.357 467.541 427.446 465.588 469.403 460.858C476.758 460.032 482.913 459.506 483.138 459.656C483.663 460.182 474.356 468.216 468.727 472.121L463.473 475.8L454.466 476.626C444.934 477.452 429.698 478.353 403.053 479.705L402.242 479.745C379.107 480.906 379.073 480.908 395.397 481.056C410.108 481.206 455.217 479.329 456.493 478.503C456.793 478.278 457.093 478.428 457.093 478.804C457.093 479.254 453.641 481.282 449.438 483.309C442.382 486.763 441.932 487.138 444.409 487.138C445.835 487.213 447.336 486.913 447.786 486.613C448.162 486.312 450.488 485.261 452.965 484.285C484.564 472.421 500.101 452.148 503.628 418.058C504.454 410.099 507.231 402.665 511.809 396.433C514.211 393.054 516.988 390.651 522.317 387.047L522.448 386.959C531.4 380.964 531.532 380.875 543.483 377.961C554.291 375.333 555.417 375.108 555.417 375.784ZM230.798 482.708C228.922 483.534 208.356 483.534 205.279 482.708C204.003 482.408 209.407 482.107 217.663 482.107C226.445 482.107 231.699 482.333 230.798 482.708ZM332.725 481.807C317.639 481.657 315.837 481.582 323.118 481.207C339.105 480.381 351.264 480.381 351.264 481.207C351.264 481.657 344.659 481.882 332.725 481.807Z" fill="#AE965B"/>
<path fill-rule="evenodd" clip-rule="evenodd" d="M508.957 393.054C507.306 394.931 505.204 398.01 504.379 399.812C503.478 401.614 502.352 403.115 501.902 403.115C501.377 403.115 496.648 403.791 491.244 404.617C447.411 411.45 400.351 415.355 335.877 417.382C297.824 418.659 297.448 419.635 335.127 419.259C376.633 418.809 407.181 417.232 443.958 413.553C459.045 412.126 485.99 408.447 495.747 406.569C498.675 405.969 501.076 405.593 501.226 405.744C501.301 405.819 500.926 408.071 500.251 410.699C499.65 413.327 499.125 416.631 499.125 417.983C499.125 419.334 498.675 420.611 498.224 420.761C495.372 421.812 452.065 426.693 431.949 428.27C392.545 431.423 382.487 432.4 381.737 433.15C378.734 436.154 474.732 428.27 496.423 423.689C498.449 423.239 498.524 423.314 498.074 425.717C497.774 427.143 497.023 430.522 496.348 433.226L495.147 438.181L489.443 439.007C478.71 440.659 452.215 443.588 434.952 445.089C390.218 448.994 346.685 450.496 270.803 450.646C240.33 450.646 219.165 451.021 219.165 451.397C219.165 452.298 376.107 451.547 397.799 450.496C427.596 449.069 461.597 445.84 485.089 442.311C489.893 441.56 493.871 441.26 493.871 441.56C493.871 442.461 490.343 449.369 488.017 453.049C486.891 454.701 485.99 456.127 485.915 456.277C485.765 456.578 469.478 458.455 455.217 459.807C444.109 460.858 425.72 462.059 393.671 463.936C363.798 465.663 286.79 466.264 207.156 465.513C116.337 464.537 101.401 464.087 46.9102 460.557C37.4531 459.882 28.1461 459.356 26.2697 459.206C23.0423 459.056 22.8171 458.905 20.4153 454.926C17.7884 450.496 15.6117 444.339 16.4373 443.588C16.8877 443.062 43.1574 444.263 72.8047 446.216C94.3459 447.642 126.32 449.444 147.486 450.421C163.998 451.171 212.259 451.622 212.86 451.021C213.01 450.796 204.153 450.421 193.12 450.195C160.395 449.444 119.79 447.492 97.9486 445.54C75.8069 443.513 45.5592 441.485 30.623 440.96L15.912 440.434L15.4616 438.181C15.0113 436.004 16.1371 426.843 17.0378 425.416C17.6382 424.365 36.7026 425.191 79.935 427.894C82.2463 428.037 84.5184 428.178 86.7296 428.315C103.116 429.33 116.162 430.138 117.088 430.072L118.964 429.997L117.088 429.396C112.66 427.819 52.5395 422.939 31.2985 422.413C24.7686 422.188 19.2895 421.887 18.9893 421.662C18.7641 421.362 20.4904 417.833 22.8922 413.628C26.2697 407.771 27.5457 406.119 28.8216 406.119C29.6473 406.194 35.8019 406.494 42.4068 406.87C49.0118 407.245 63.873 408.071 75.4316 408.672C100.951 410.099 113.11 411 134.726 412.877C152.89 414.529 157.693 414.904 167.751 415.505C175.707 416.031 178.559 416.331 186.14 417.758C203.478 421.061 243.558 423.239 260.446 421.812C265.625 421.437 275.757 420.611 282.963 420.01C290.168 419.485 296.773 418.809 297.598 418.583C298.424 418.358 303.978 417.007 309.983 415.58C321.917 412.652 326.12 411.225 334.226 407.17C339.405 404.542 339.705 404.467 347.811 404.542C371.379 404.842 441.407 399.136 482.237 393.654C495.897 391.852 507.381 390.2 507.756 390.05C508.207 389.825 509.333 389.675 510.233 389.675C511.884 389.6 511.809 389.825 508.957 393.054ZM121.591 435.628C121.591 433.301 124.744 429.171 127.596 427.744C130.748 426.092 132.85 426.092 136.152 427.444C139.53 428.871 141.857 432.325 141.857 435.929C141.857 446.366 127.746 449.82 123.168 440.509C122.342 438.707 121.591 436.529 121.591 435.628ZM242.432 439.383C242.432 436.004 243.933 433.601 247.236 431.574C250.838 429.246 256.017 429.997 259.395 433.226C261.572 435.328 261.947 436.154 261.947 439.308C261.947 442.236 261.496 443.362 259.62 445.54C256.318 449.294 252.415 450.195 248.136 448.243C244.309 446.591 242.432 443.663 242.432 439.383ZM182.162 439.157C182.012 435.553 184.038 432.625 187.716 430.748C191.018 429.021 193.045 429.021 196.648 430.898C200.851 433.075 202.202 435.328 201.601 439.458C201.001 443.513 198.749 446.516 195.447 447.868C188.542 450.796 182.462 446.816 182.162 439.157ZM144.709 432.625C142.307 432.099 142.307 432.099 144.108 431.574C145.159 431.273 147.035 431.198 148.236 431.348C149.512 431.499 156.793 431.799 164.448 432.099C172.104 432.325 178.859 432.85 179.46 433.301C180.586 434.127 148.912 433.451 144.709 432.625ZM241.606 436.454C240.856 437.205 202.652 435.929 202.652 435.178C202.652 434.652 209.257 434.577 221.867 434.877C239.58 435.328 242.507 435.553 241.606 436.454ZM363.873 431.273C365.074 430.222 366.875 429.096 367.851 428.72C374.456 426.092 381.962 431.649 381.061 438.407C380.235 444.489 375.057 448.243 369.127 447.117C364.849 446.366 361.021 441.185 361.021 436.379C361.021 434.802 360.721 434.577 359.37 434.878C358.394 435.103 349.462 435.553 339.48 435.854L321.241 436.379V439.383C321.241 441.786 320.716 442.837 318.389 445.24C316.813 446.816 314.636 448.318 313.51 448.543C307.731 450.045 302.477 446.216 301.877 440.059L301.576 436.379L282.962 436.755C271.179 436.98 264.273 436.83 263.973 436.379C263.523 435.628 280.335 434.652 294.446 434.652C301.426 434.652 301.952 434.577 304.579 432.475C309.607 428.495 315.912 428.946 319.59 433.451C320.866 435.103 320.941 435.103 334.376 434.127C341.807 433.676 350.964 433.226 354.791 433.226C360.946 433.151 361.847 433 363.873 431.273Z" fill="#AE965B"/>
<path d="M71.3036 390.426C79.3346 390.801 95.3966 391.927 106.955 392.979C118.514 393.955 131.199 394.931 135.177 395.231L135.219 395.234C142.382 395.757 142.463 395.763 145.309 398.76C149.212 402.74 153.565 405.744 161.746 410.024C168.652 413.628 168.577 414.228 161.296 412.877C157.618 412.201 150.038 411.525 107.331 407.921C85.4142 406.119 46.7601 403.866 36.7026 403.866H27.1704L26.8702 399.511C26.7201 397.033 25.8194 393.73 24.9187 391.927L23.1924 388.699L39.93 389.224C49.1619 389.45 63.2725 389.975 71.3036 390.426Z" fill="#AE965B"/>
<path d="M106.655 375.633C126.245 377.736 129.097 378.862 135.777 386.972C139.905 392.003 140.205 392.603 138.629 392.603C137.653 392.603 129.472 391.927 120.39 391.101C111.384 390.275 101.927 389.45 99.4497 389.224C86.9903 388.098 58.2437 386.596 40.5304 386.146L20.6405 385.695L18.4639 383.668C16.2122 381.64 12.009 375.558 12.009 374.357C12.009 373.156 94.1207 374.282 106.655 375.633Z" fill="#AE965B"/>
<path d="M144.859 205.635C180.661 208.113 231.174 213.97 265.7 219.527C281.236 222.079 302.627 225.909 303.078 226.284C303.153 226.359 302.928 227.336 302.402 228.312C301.727 229.889 301.952 230.94 304.354 235.745C310.583 247.985 313.285 260.599 313.285 277.344C313.285 298.218 309.157 315.413 299.4 335.011C297.674 338.39 296.172 341.318 296.022 341.469C295.872 341.619 294.371 340.492 292.645 338.916C285.289 332.308 270.053 327.653 246.56 325.024C235.377 323.748 198.299 323.222 185.239 324.199C162.422 325.85 131.874 330.731 118.664 334.786C115.962 335.612 113.71 336.137 113.635 336.062C113.56 335.987 115.061 333.735 117.088 331.107C134.801 307.604 144.033 267.357 138.404 238.298C135.852 225.233 131.123 213.294 126.095 207.663C124.894 206.236 123.843 204.809 123.843 204.509C123.843 204.209 125.945 204.134 128.572 204.359C131.123 204.659 138.479 205.185 144.859 205.635Z" fill="#A2383A"/>
<path d="M335.502 197.376C369.653 200.079 401.026 203.908 436.453 209.84C449.963 212.093 487.866 219.677 488.392 220.202C488.542 220.277 488.242 221.404 487.791 222.605C487.041 224.557 487.341 225.383 490.794 231.015C500.101 246.483 505.054 267.057 504.154 286.73C503.253 306.778 498.374 323.147 488.392 339.441L485.314 344.472L482.763 341.469C479.835 338.09 472.18 334.11 463.998 331.857C444.409 326.451 411.609 326.902 378.434 332.909C352.39 337.714 331.074 344.172 310.508 353.483C307.656 354.759 305.254 355.81 305.104 355.81C304.954 355.81 306.38 353.558 308.257 350.704C319.065 334.561 327.996 309.181 331.899 283.351C333.175 274.641 333.175 245.732 331.824 237.548C329.422 222.004 323.793 207.287 317.564 200.229C315.837 198.352 314.486 196.55 314.486 196.324C314.486 195.724 313.886 195.649 335.502 197.376Z" fill="#A2383A"/>
<path d="M368.152 78.4372C396.072 81.3656 422.642 85.4203 454.091 91.5775C455.062 91.7658 455.964 91.94 456.802 92.1019C467.761 94.2184 467.761 94.2184 466.979 95.8654C466.915 96.0011 466.845 96.1479 466.776 96.308C466.025 97.8848 466.325 98.6357 468.952 102.465C472.93 108.472 477.809 118.234 480.736 126.418C484.864 137.681 486.515 147.292 486.891 161.709C487.341 175.3 486.59 181.457 483.288 192.645L481.637 198.052L478.634 195.499C470.678 188.666 453.115 182.583 433.451 179.805C404.479 175.751 379.485 176.426 337.378 182.433C331.599 183.259 326.045 184.16 324.994 184.386C323.193 184.761 323.268 184.611 325.82 181.908C331.449 175.901 338.729 163.511 343.008 152.774C345.86 145.49 349.462 130.998 350.513 122.288C351.489 114.104 351.489 97.7346 350.438 91.5024C349.763 87.4476 348.487 83.3929 345.484 76.635C345.184 75.8842 345.635 75.734 347.586 76.0344C349.012 76.2596 358.244 77.386 368.152 78.4372Z" fill="#A2383A"/>
<path d="M188.391 89.6252C204.754 91.5775 228.397 94.8813 245.434 97.5845C256.843 99.3866 288.216 104.943 289.492 105.394C290.243 105.619 290.243 106.144 289.643 107.496C288.967 108.998 289.267 109.974 291.594 113.954C300.751 129.497 305.555 147.443 305.555 165.989C305.555 178.078 303.753 189.116 301.727 189.116C300.225 189.116 297.974 190.993 297.974 192.195C297.974 192.645 298.799 193.696 299.7 194.522L301.501 196.099L299.625 200.905L297.749 205.635L295.422 203.758C280.035 191.219 231.699 183.635 182.312 186.038C164.524 186.863 140.506 189.191 138.929 190.242C137.053 191.369 138.329 189.416 142.157 185.362C158.819 167.266 169.252 140.985 170.228 114.704C170.603 102.765 169.702 95.4069 167.301 90.6764C166.55 89.0995 165.875 87.5978 165.875 87.3726C165.875 87.0722 167.301 87.0722 169.102 87.2975C170.828 87.5227 179.535 88.5739 188.391 89.6252Z" fill="#A2383A"/>
<path d="M518.64 384.794C515.712 386.521 512.71 387.122 496.873 389.299C474.957 392.303 463.548 393.73 448.462 395.231C428.122 397.259 370.778 401.614 350.138 402.74L342.632 403.115L347.436 400.713C352.089 398.46 352.615 398.385 366.575 397.784C420.541 395.381 471.879 390.726 505.129 385.17C522.242 382.316 522.993 382.316 518.64 384.794Z" fill="#AE965B"/>
<path d="M203.628 25.8759C216.237 28.0534 221.717 27.9784 229.147 25.5005C231.474 24.7496 233.425 24.3741 233.425 24.6745C233.425 24.9749 232.45 26.5517 231.174 28.2787C228.246 32.3334 222.017 36.9889 216.087 39.5418C211.734 41.3439 210.383 41.5692 202.277 41.5692C193.645 41.5692 192.82 41.4191 182.762 38.1903C172.48 34.8864 172.029 34.8113 162.347 34.8113C156.868 34.8113 152.364 34.7362 152.364 34.6611C152.364 34.0605 163.698 28.8794 168.426 27.3026C179.91 23.4731 187.566 23.0976 203.628 25.8759Z" fill="#A2383A"/>
<path d="M380.161 7.02899C395.547 10.7083 403.053 11.0837 411.909 8.45563C417.313 6.87878 407.481 17.0907 400.05 20.6949C388.567 26.2514 382.187 25.6506 358.094 16.8654C350.363 14.0121 342.107 12.8857 336.553 13.937C334.076 14.3875 332.049 14.6879 331.899 14.5377C331.299 14.0121 340.231 9.58191 345.409 7.85489C357.118 3.87524 365.975 3.72513 380.161 7.02899Z" fill="#A2383A"/>
<path d="M135.327 432.55C136.002 433.075 136.753 434.427 136.978 435.553C137.353 437.13 137.053 438.031 135.552 439.458C133.3 441.786 130.673 441.936 128.496 439.908C126.545 438.031 126.32 434.953 128.121 433C129.547 431.424 133.45 431.198 135.327 432.55Z" fill="#B7B29A"/>
<path d="M195.297 435.929C199.125 439.383 194.321 445.69 189.517 443.513C187.641 442.687 186.44 440.434 186.815 438.407C187.491 434.878 192.52 433.376 195.297 435.929Z" fill="#B7B29A"/>
<path d="M255.492 436.229C257.819 438.106 257.969 439.758 255.867 442.461C253.991 444.864 250.613 445.089 248.437 442.912C246.41 440.884 246.56 438.707 248.812 436.529C251.064 434.277 252.865 434.202 255.492 436.229Z" fill="#B7B29A"/>
<path d="M315.237 436.154C317.188 438.106 317.113 439.383 315.011 441.861C312.985 444.188 309.908 444.489 307.731 442.536C304.579 439.683 307.056 434.652 311.484 434.652C312.76 434.652 314.411 435.328 315.237 436.154Z" fill="#B7B29A"/>
<path d="M373.706 433.526C378.284 435.854 376.408 442.311 371.154 442.311C366.5 442.311 364.624 436.83 368.226 433.976C370.628 432.099 371.004 432.099 373.706 433.526Z" fill="#B7B29A"/>
<path fill-rule="evenodd" clip-rule="evenodd" d="M588.876 357.871C590.331 357.294 591.793 356.715 593.302 356.123C591.82 356.706 590.35 357.287 588.876 357.871Z" fill="#DDCFBB"/>
<path fill-rule="evenodd" clip-rule="evenodd" d="M353.14 1.02194C343.608 2.74896 333.776 7.17914 325.82 13.1861C320.04 17.4661 319.065 18.8928 320.19 20.6949C321.166 22.1967 321.917 22.1966 326.27 20.6198C331.299 18.7426 339.78 17.6914 345.184 18.2921C348.036 18.5925 353.44 20.0942 358.019 21.8212C371.304 26.8521 377.909 28.504 385.414 28.5791C395.097 28.7292 402.602 25.8759 411.159 18.9679L413.561 16.9405V28.1285C413.486 35.7874 413.185 39.692 412.585 40.4429C411.309 42.0948 398.399 51.5558 392.47 55.2351C386.165 59.1397 375.357 64.621 367.926 67.5494C364.774 68.8259 361.321 70.2526 360.271 70.7032C359.22 71.0786 357.869 71.5291 357.268 71.6793C355.392 72.0547 340.531 70.4778 337.529 69.5768C333.851 68.4505 330.999 69.6519 330.999 72.28C330.999 74.5326 332.875 75.734 336.478 75.734C339.555 75.734 340.756 77.0105 343.308 82.4919C345.935 88.3487 347.061 97.9599 346.535 111.025C345.86 128.671 342.332 143.838 335.502 157.955C331.599 166.064 324.469 177.327 323.493 176.952C322.892 176.727 314.786 166.815 311.709 162.535C310.583 161.033 309.983 159.156 309.983 157.129C309.983 146.091 303.603 125.292 296.548 113.428C295.272 111.25 294.221 109.148 294.221 108.772C294.221 108.322 295.347 108.022 296.698 108.022C299.4 108.022 300.976 106.895 300.976 104.943C300.976 102.991 299.4 102.165 294.146 101.038C290.768 100.288 287.766 99.0112 284.539 96.8336C272.079 88.3487 256.918 73.5565 242.957 56.0611L240.18 52.607V34.6611C240.18 24.8247 239.88 16.3398 239.505 15.8141C239.13 15.2135 237.929 14.9132 236.728 15.0633C235.077 15.2135 234.476 15.7391 234.326 17.0156C234.026 19.2682 229.823 21.2205 222.767 22.4969C217.513 23.4731 214.436 23.1728 199.275 20.4696C181.711 17.3159 160.771 22.4969 145.459 33.9102C140.731 37.2892 139.68 39.0913 141.181 40.8934C142.232 42.1699 143.358 42.0948 150.863 40.0674C158.219 38.1151 170.003 38.791 179.385 41.7944C191.394 45.6239 195.447 46.4499 202.727 46.4499C213.685 46.4499 223.218 42.6204 231.924 34.7362L234.626 32.3334L234.401 37.2892C234.365 38.2045 234.331 39.0676 234.298 39.8817C233.853 51.1732 233.779 53.045 232.82 54.1417C232.63 54.3596 232.404 54.5469 232.134 54.7715C232.044 54.846 231.949 54.9246 231.849 55.0098C216.087 68.075 206.105 74.1572 190.643 80.2393C187.116 81.5909 183.963 82.9424 183.513 83.2427C183.138 83.5431 177.508 83.1677 171.129 82.3417C165.713 81.6406 160.081 80.9395 157.401 80.6057C156.923 80.5463 156.54 80.4986 156.267 80.4645C152.815 80.0891 150.863 81.0652 150.863 83.2427C150.863 85.2701 152.59 86.2462 156.718 86.7719C160.245 87.1473 160.621 87.3726 162.347 90.6764C165.274 96.0076 166.175 102.165 165.649 113.878C164.824 133.026 159.42 151.197 149.662 167.566C144.033 176.952 133.525 188.666 128.572 190.993C127.221 191.669 126.095 192.645 126.095 193.246C126.095 193.772 124.519 195.123 122.642 196.249C119.34 198.202 119.039 198.277 114.386 197.376C108.907 196.325 106.13 196.775 105.454 198.802C104.403 202.106 105.98 203.157 112.66 203.908C116.487 204.284 117.313 204.734 120.015 207.437C123.993 211.567 128.046 218.475 129.848 224.182L131.274 228.762L127.521 239.575C110.708 287.781 85.1139 323.147 51.4136 344.697L46.1597 348.076L33.0248 348.602C25.8194 348.902 17.1879 349.428 13.8854 349.803C8.40631 350.329 7.80586 350.554 5.47912 353.107C3.22742 355.585 3.00225 356.186 3.00225 360.466C3.00225 365.121 4.87866 370.753 6.68002 371.879C7.13035 372.179 7.50564 373.456 7.50564 374.657C7.50564 377.961 9.9825 382.166 14.9362 387.497C20.4904 393.504 21.7663 396.057 21.7663 401.088C21.7663 404.617 21.1659 406.344 17.338 413.703C10.2827 427.219 9.00676 435.328 12.009 447.042C15.7618 461.609 26.7201 473.623 45.9345 484.135C49.1619 485.862 51.7889 487.514 51.7889 487.814C51.7138 488.79 40.4554 493.296 35.4266 494.347C25.9695 496.374 15.5367 495.248 6.98024 491.343C1.57618 488.94 0 488.865 0 491.343C0 492.845 0.750564 493.521 4.20316 495.098C18.3138 501.555 34.4509 501.405 48.6365 494.722C52.0891 493.07 55.3916 491.719 55.917 491.719C56.4424 491.719 59.7449 493.22 63.2725 495.023C76.6326 501.78 89.167 501.63 106.28 494.272C110.558 492.47 114.686 490.968 115.512 490.968C116.262 490.968 119.865 492.47 123.468 494.347C138.404 501.931 153.19 501.78 171.729 493.596C175.031 492.169 178.784 490.968 180.06 490.968C181.261 490.968 184.939 492.094 188.166 493.521C199.275 498.401 204.378 499.603 213.911 499.528C223.668 499.528 230.273 498.026 240.406 493.521C243.633 492.094 247.161 490.968 248.211 490.968C249.337 490.968 253.24 492.47 256.993 494.347C271.704 501.705 283.713 501.705 300.225 494.422C304.579 492.545 308.632 490.968 309.382 490.968C310.058 490.968 313.961 492.695 318.014 494.722C332.199 502.081 342.707 501.78 359.67 493.596L365.449 490.818L372.58 494.347C381.512 498.702 389.317 500.279 398.775 499.678C407.481 499.077 413.11 497.576 421.742 493.521C425.57 491.719 429.623 490.217 430.673 490.217C431.649 490.217 434.276 491.193 436.378 492.394C442.232 495.773 452.965 499.077 459.795 499.678C467.901 500.354 475.632 498.627 484.339 494.272C488.017 492.47 491.994 490.968 493.195 490.968C494.396 490.968 497.323 491.944 499.725 493.145C511.509 499.077 525.62 501.255 536.653 498.927C543.108 497.576 544.684 496.449 543.183 494.422C542.207 493.145 541.982 493.145 536.278 494.347C525.695 496.75 514.887 495.098 503.028 489.316C497.474 486.613 495.822 486.162 492.22 486.237C489.893 486.312 487.266 486.763 486.365 487.213C485.014 487.964 484.789 487.889 485.014 487.138C485.239 486.538 488.092 484.135 491.469 481.732C509.708 468.817 520.141 447.567 520.141 423.389C520.141 410.099 522.693 402.815 529.673 395.832C532.825 392.753 536.128 390.726 546.035 385.92C556.318 380.89 559.02 379.163 562.322 375.784C566.225 371.804 566.826 371.504 585.815 364.07C593.139 361.201 603.328 357.178 612.21 353.671C616.344 352.039 620.196 350.518 623.343 349.278C641.132 342.22 660.796 334.711 670.253 331.332C672.88 330.356 675.507 329.004 676.033 328.328C677.534 326.301 677.234 321.796 675.507 319.994C673.181 317.441 670.479 317.29 664.324 319.393C661.247 320.444 658.47 321.27 658.169 321.27C657.944 321.27 648.937 312.109 638.279 300.846C581.762 241.377 562.472 221.329 519.765 177.853C509.483 167.341 500.476 157.955 499.8 157.129C499.125 156.228 498.224 155.402 497.849 155.252C496.048 154.501 490.193 143.989 489.743 140.535C488.317 131.073 480.736 112.227 473.981 101.714C472.555 99.4617 471.354 97.4343 471.354 97.209C471.354 96.9838 472.78 96.7585 474.431 96.6083C476.458 96.4581 477.884 95.9326 478.409 95.0315C479.76 92.8539 478.034 91.202 473.155 90.1508C470.754 89.6252 467.376 88.649 465.725 88.0484C457.243 85.0449 440.731 68.826 424.969 48.0267L419.565 40.9685V22.0464C419.565 2.89911 419.34 1.3974 416.713 1.3974C416.113 1.3974 414.912 1.99808 413.936 2.82404C409.207 6.42825 398.024 6.72858 384.289 3.42471C368.977 -0.329651 362.747 -0.780121 353.14 1.02194ZM380.161 7.02899C395.547 10.7083 403.053 11.0837 411.909 8.45563C417.313 6.87878 407.481 17.0907 400.05 20.6949C388.567 26.2514 382.187 25.6506 358.094 16.8654C350.363 14.0121 342.107 12.8857 336.553 13.937C334.076 14.3875 332.049 14.6879 331.899 14.5377C331.299 14.0121 340.231 9.58191 345.409 7.85489C357.118 3.87524 365.975 3.72513 380.161 7.02899ZM203.628 25.8759C216.237 28.0534 221.717 27.9784 229.147 25.5005C231.474 24.7496 233.425 24.3741 233.425 24.6745C233.425 24.9749 232.45 26.5517 231.174 28.2787C228.246 32.3334 222.017 36.9889 216.087 39.5418C211.734 41.3439 210.383 41.5692 202.277 41.5692C193.645 41.5692 192.82 41.4191 182.762 38.1903C172.48 34.8864 172.029 34.8113 162.347 34.8113C156.868 34.8113 152.364 34.7362 152.364 34.6611C152.364 34.0605 163.698 28.8794 168.426 27.3026C179.91 23.4731 187.566 23.0976 203.628 25.8759ZM411.834 60.9418C410.859 63.9453 409.357 68.9761 408.682 72.1298C408.567 72.6102 408.466 73.0553 408.373 73.4671C407.949 75.3421 407.682 76.5257 406.946 77.1942C405.687 78.3386 403.057 77.9738 395.926 76.9843C394.98 76.8531 393.956 76.711 392.845 76.5599C387.141 75.734 378.434 74.6828 373.631 74.1571C368.752 73.6315 364.774 73.0309 364.774 72.8056C364.774 72.5803 367.026 71.5291 369.803 70.553C381.962 66.1979 405.454 52.3067 411.384 45.9993L413.185 44.0471L413.41 49.8288C413.561 54.259 413.26 56.7369 411.834 60.9418ZM423.018 51.1053C428.647 58.9895 440.731 72.7305 448.312 79.8638C452.515 83.9185 455.292 86.9971 454.466 86.7719C453.641 86.5466 446.36 85.1199 438.329 83.6182C430.298 82.1915 422.793 80.7649 421.667 80.5396L419.565 80.0891V63.6449C419.565 54.6344 419.715 47.2008 419.865 47.2008C420.015 47.2008 421.442 49.0029 423.018 51.1053ZM233.951 61.6175C233.575 65.1466 227.121 88.2736 226.295 89.1747C225.92 89.475 194.021 85.7957 190.643 84.9697C188.992 84.5943 189.217 84.4442 192.595 83.2427C203.328 79.4884 220.441 69.2014 231.549 59.6653C232.825 58.614 233.951 57.7881 234.101 57.713C234.251 57.713 234.176 59.5151 233.951 61.6175ZM251.889 71.9796C258.719 79.7887 269.678 90.1508 277.108 95.7823C278.684 96.9087 279.885 98.1101 279.96 98.3353C279.96 98.6357 276.658 98.1852 272.68 97.4343C268.627 96.6834 259.695 95.1065 252.79 93.9802L240.18 91.8778L240.255 74.9831V58.0884L242.282 60.7165C243.408 62.1432 247.686 67.174 251.889 71.9796ZM413.711 72.5803C413.41 79.2631 413.335 79.4884 411.759 79.0378C411.389 78.9031 411.018 78.7834 410.716 78.6857C410.344 78.5656 410.074 78.4785 410.033 78.4372C409.958 78.3621 412.585 68.1502 413.26 66.0477C413.936 64.0955 414.011 65.5972 413.711 72.5803ZM234.626 76.635C234.401 77.6112 234.176 81.1403 234.176 84.5192C234.176 89.9255 234.026 90.7515 232.9 90.7515C229.673 90.6764 229.522 89.8505 231.699 82.2666C232.825 78.287 234.026 74.9831 234.401 74.9831C234.776 74.9831 234.926 75.734 234.626 76.635ZM368.152 78.4372C396.072 81.3656 422.642 85.4203 454.091 91.5775C455.062 91.7658 455.964 91.94 456.802 92.1019C465.047 93.6941 467.089 94.0885 467.262 94.8875C467.319 95.1506 467.173 95.4575 466.979 95.8654C466.915 96.0011 466.845 96.1479 466.776 96.308C466.025 97.8848 466.325 98.6357 468.952 102.465C472.93 108.472 477.809 118.234 480.736 126.418C484.864 137.681 486.515 147.292 486.891 161.709C487.341 175.3 486.59 181.457 483.288 192.645L481.637 198.052L478.634 195.499C470.678 188.666 453.115 182.583 433.451 179.805C404.479 175.751 379.485 176.426 337.378 182.433C331.599 183.259 326.045 184.16 324.994 184.386C323.193 184.761 323.268 184.611 325.82 181.908C331.449 175.901 338.729 163.511 343.008 152.774C345.86 145.49 349.462 130.998 350.513 122.288C351.489 114.104 351.489 97.7346 350.438 91.5024C349.763 87.4476 348.487 83.3929 345.484 76.635C345.184 75.8842 345.635 75.734 347.586 76.0344C349.012 76.2596 358.244 77.386 368.152 78.4372ZM188.391 89.6252C204.754 91.5775 228.397 94.8813 245.434 97.5845C256.843 99.3866 288.216 104.943 289.492 105.394C290.243 105.619 290.243 106.144 289.643 107.496C288.967 108.998 289.267 109.974 291.594 113.954C300.751 129.497 305.555 147.443 305.555 165.989C305.555 178.078 303.753 189.116 301.727 189.116C300.225 189.116 297.974 190.993 297.974 192.195C297.974 192.645 298.799 193.696 299.7 194.522L301.501 196.099L299.625 200.905L297.749 205.635L295.422 203.758C280.035 191.219 231.699 183.635 182.312 186.038C164.524 186.863 140.506 189.191 138.929 190.242C137.053 191.369 138.329 189.416 142.157 185.362C158.819 167.266 169.252 140.985 170.228 114.704C170.603 102.765 169.702 95.4069 167.301 90.6764C166.55 89.0995 165.875 87.5978 165.875 87.3726C165.875 87.0722 167.301 87.0722 169.102 87.2975C170.828 87.5227 179.535 88.5739 188.391 89.6252ZM498.299 168.092C503.253 182.508 504.979 188.365 510.308 209.765C518.79 243.93 525.169 277.044 526.971 296.416C528.097 309.106 527.571 324.274 525.845 326.902C525.169 327.878 524.644 329.079 524.644 329.605C524.644 331.933 507.982 350.704 498.599 358.964C494.621 362.418 490.869 365.722 490.193 366.398C489.443 367.224 485.84 368.05 479.986 368.876C476.782 369.313 473.579 369.781 471.41 370.098C470.229 370.271 469.349 370.399 468.952 370.452C467.301 370.678 468.202 369.551 474.131 363.845C478.034 360.015 482.162 356.486 483.363 356.036C485.69 354.984 487.116 353.032 487.116 350.779C487.116 350.029 488.992 346.725 491.244 343.496C503.628 325.7 509.483 303.85 508.657 278.47C508.057 259.999 504.379 246.108 496.123 231.165C493.646 226.66 491.619 222.83 491.619 222.605C491.619 222.38 492.895 222.155 494.471 222.155C497.699 222.155 499.125 221.103 499.125 218.625C499.125 216.748 498.149 216.373 487.116 214.27C486.466 214.145 485.86 214.03 485.295 213.922C480.765 213.059 478.894 212.702 478.744 211.985C478.639 211.481 479.386 210.799 480.659 209.636C480.871 209.443 481.097 209.236 481.336 209.014C483.963 206.611 484.864 205.26 484.864 203.608C484.864 202.407 485.69 199.253 486.741 196.55C490.268 187.539 491.844 177.927 491.844 165.162C491.844 153.825 491.844 153.675 493.195 155.402C493.946 156.378 496.273 162.085 498.299 168.092ZM313.811 170.119C315.162 171.996 317.488 174.849 319.065 176.426L321.917 179.28L316.738 184.611C312.76 188.666 311.109 189.942 309.833 189.717C308.632 189.567 308.181 189.041 308.332 187.99C308.375 187.517 308.615 185.615 308.939 183.046L308.943 183.012C309.184 181.103 309.471 178.829 309.758 176.501C309.855 175.802 309.949 175.118 310.041 174.457C310.656 170.005 311.128 166.59 311.259 166.59C311.334 166.59 312.46 168.167 313.811 170.119ZM543.783 209.014C583.638 250.087 590.018 256.695 599.325 266.456C604.279 271.637 608.482 275.992 608.707 276.218C613.361 280.648 639.48 308.505 639.03 308.505C638.655 308.505 636.703 307.98 634.677 307.379C623.418 303.925 601.277 302.348 587.992 303.925C577.334 305.276 564.424 308.205 556.168 311.283C548.662 314.062 536.953 319.693 533.501 322.171L531.399 323.598L531.849 315.864C532.975 297.542 527.646 263.002 516.838 218.776C511.134 195.574 507.381 181.983 504.379 173.498C503.103 170.044 502.127 167.04 502.127 166.74C502.127 166.139 508.582 172.672 543.783 209.014ZM406.881 182.358H413.561V191.744C413.561 198.727 413.335 201.13 412.66 201.13C409.808 201.055 391.719 198.277 391.269 197.901C390.819 197.376 393.746 185.212 394.947 182.809C395.547 181.758 396.223 181.532 397.949 181.908C399.225 182.133 403.203 182.358 406.881 182.358ZM391.044 182.734C391.044 183.86 387.816 195.724 387.291 196.625C386.69 197.601 379.785 197.075 362.147 194.673L359.07 194.222L364.549 188.741C369.352 183.86 370.328 183.184 373.18 182.884C378.509 182.433 391.044 182.358 391.044 182.734ZM441.256 185.662C456.718 188.891 465.425 192.12 474.131 197.976C478.785 201.055 479.685 203.233 477.809 206.687C477.575 207.116 477.367 207.513 477.177 207.878C476.493 209.186 476.023 210.087 475.287 210.63C473.659 211.832 470.732 211.274 461.321 209.478C460.206 209.266 459 209.036 457.694 208.789C448.462 207.062 436.228 204.884 430.448 203.908L419.94 202.181L419.715 192.57L419.49 182.884L426.02 183.409C429.623 183.635 436.453 184.686 441.256 185.662ZM358.958 189.714C357.584 191.042 356.623 191.971 355.491 192.582C352.852 194.007 349.281 193.706 337.388 192.704C336.065 192.593 334.639 192.472 333.1 192.345C313.435 190.768 312.835 190.167 328.372 188.065C351.264 184.911 358.619 184.01 361.772 183.935H365.149L359.97 188.741C359.607 189.086 359.271 189.411 358.958 189.714ZM205.654 191.219C205.654 192.795 202.277 204.809 201.601 205.41C201.001 206.011 164.373 202.407 164.373 201.731C164.373 201.43 165.95 200.079 167.976 198.802C169.928 197.451 173.005 195.123 174.806 193.696C178.634 190.543 181.036 190.167 196.122 189.942C204.829 189.867 205.654 190.017 205.654 191.219ZM172.63 191.143C172.555 191.519 169.402 193.922 165.574 196.625L158.594 201.581L143.283 200.229C134.876 199.553 127.446 198.953 126.845 198.877C124.894 198.802 128.271 196.775 132.399 195.574C135.852 194.598 158.219 191.744 167.751 191.143C169.853 190.993 171.729 190.843 172.104 190.768C172.404 190.693 172.63 190.843 172.63 191.143ZM227.271 191.068L234.176 191.594V200.905V210.216L231.774 209.765C230.423 209.54 224.118 208.714 217.739 207.963C211.434 207.137 206.105 206.386 205.955 206.236C205.805 206.086 206.63 202.482 207.756 198.277L209.783 190.618H215.112C218.039 190.618 223.518 190.843 227.271 191.068ZM254.441 194.447C267.276 196.475 278.459 199.628 285.439 203.082C291.069 205.936 294.972 209.014 294.972 210.591C294.972 212.543 290.843 218.4 289.492 218.4C288.742 218.4 279.135 216.898 268.101 215.096C257.068 213.219 246.26 211.567 244.158 211.267L240.18 210.741V201.956C240.18 197.075 240.33 192.946 240.556 192.72C241.006 192.27 241.006 192.27 254.441 194.447ZM335.502 197.376C369.653 200.079 401.026 203.908 436.453 209.84C449.963 212.093 487.866 219.677 488.392 220.202C488.542 220.277 488.242 221.404 487.791 222.605C487.041 224.557 487.341 225.383 490.794 231.015C500.101 246.483 505.054 267.057 504.154 286.73C503.253 306.778 498.374 323.147 488.392 339.441L485.314 344.472L482.763 341.469C479.835 338.09 472.18 334.11 463.998 331.857C444.409 326.451 411.609 326.902 378.434 332.909C352.39 337.714 331.074 344.172 310.508 353.483C307.656 354.759 305.254 355.81 305.104 355.81C304.954 355.81 306.38 353.558 308.257 350.704C319.065 334.561 327.996 309.181 331.899 283.351C333.175 274.641 333.175 245.732 331.824 237.548C329.422 222.004 323.793 207.287 317.564 200.229C315.837 198.352 314.486 196.55 314.486 196.324C314.486 196.308 314.486 196.292 314.485 196.277C314.47 195.721 314.469 195.695 335.502 197.376ZM312.234 200.905C334.601 225.383 333.851 292.061 310.658 337.038C306.605 344.923 299.55 355.961 298.274 356.336C297.749 356.486 297.674 354.984 298.049 351.756C298.424 347.926 299.625 344.772 304.203 335.462C314.336 314.737 317.714 300.546 317.789 278.095C317.864 267.282 317.564 262.251 316.513 257.296C314.937 249.336 312.009 240.476 309.157 234.769C306.305 229.063 306.305 227.861 309.232 228.537C311.484 229.063 315.237 227.486 315.237 226.059C315.237 224.257 312.835 222.68 308.857 221.854C305.029 221.103 304.203 220.653 302.928 218.475C302.177 217.124 301.201 214.571 300.901 212.769C300.376 209.84 300.601 208.789 303.228 203.082C304.954 199.403 306.68 196.625 307.281 196.625C307.881 196.625 310.058 198.502 312.234 200.905ZM144.859 205.635C180.661 208.113 231.174 213.97 265.7 219.527C281.236 222.079 302.627 225.909 303.078 226.284C303.153 226.359 302.928 227.336 302.402 228.312C301.727 229.889 301.952 230.94 304.354 235.745C310.583 247.985 313.285 260.599 313.285 277.344C313.285 298.218 309.157 315.413 299.4 335.011C297.674 338.39 296.172 341.318 296.022 341.469C295.872 341.619 294.371 340.492 292.645 338.916C285.289 332.308 270.053 327.653 246.56 325.024C235.377 323.748 198.299 323.222 185.239 324.199C162.422 325.85 131.874 330.731 118.664 334.786C115.962 335.612 113.71 336.137 113.635 336.062C113.56 335.987 115.061 333.735 117.088 331.107C134.801 307.604 144.033 267.357 138.404 238.298C135.852 225.233 131.123 213.294 126.095 207.663C124.894 206.236 123.843 204.809 123.843 204.509C123.843 204.209 125.945 204.134 128.572 204.359C131.123 204.659 138.479 205.185 144.859 205.635ZM298.574 218.025C299.325 219.602 299.25 219.902 298.124 219.902C297.448 219.902 296.398 219.602 295.797 219.226C294.896 218.625 294.896 218.325 295.647 217.349C296.998 215.697 297.599 215.847 298.574 218.025ZM134.276 241.452C135.627 250.237 135.327 267.357 133.6 277.119C132.099 286.204 129.022 297.392 125.794 305.877C121.591 316.84 112.66 331.031 106.43 336.663C104.478 338.39 102.827 340.417 102.827 341.093C102.827 341.694 100.726 343.721 98.1737 345.523L93.4452 348.827L73.255 348.377L53.0649 347.926L57.1179 345.298C68.9768 337.639 85.9395 321.646 95.4717 309.181C102.977 299.345 111.083 285.904 117.463 272.839C123.393 260.825 130.823 242.278 131.874 237.172C132.474 233.793 133.375 235.295 134.276 241.452ZM623.118 309.256C627.771 310.007 634.902 311.809 638.88 313.236C644.734 315.263 646.836 316.389 649.913 319.243C652.015 321.195 653.741 322.922 653.741 323.147C653.741 323.523 637.604 328.779 610.959 337.038C576.658 347.776 549.338 356.486 546.11 357.763C544.534 358.363 539.505 359.565 534.852 360.316C514.962 363.845 495.973 367.073 495.147 367.073C494.622 367.073 495.447 366.172 496.873 365.046C501.452 361.517 514.061 348.902 519.615 342.295C522.542 338.765 527.046 333.885 529.523 331.407C539.58 321.57 561.797 312.485 584.314 308.956C594.672 307.304 612.91 307.454 623.118 309.256ZM671.604 322.922C672.13 323.448 672.505 324.199 672.505 324.724C672.505 324.745 672.505 324.764 672.506 324.784L672.507 324.829C672.536 325.689 672.536 325.694 652.24 333.209C643.383 336.438 631.75 340.943 626.345 343.045C621.016 345.223 613.361 348.302 609.458 349.803C606.939 350.773 601.198 353.025 594.66 355.59L594.625 355.604L593.302 356.123C591.787 356.717 590.326 357.296 588.865 357.875C587.252 358.514 585.639 359.154 583.952 359.814L561.947 369.702C557.744 372.78 505.88 382.166 468.727 386.521C444.634 389.374 407.931 392.153 377.534 393.429C355.842 394.33 350.213 395.156 344.509 398.235C325.67 408.447 317.714 411.751 304.654 414.679C285.289 419.034 273.806 419.785 241.231 418.884C194.771 417.607 179.385 415.43 164.373 408.071C153.565 402.665 148.837 398.535 142.307 388.699C138.179 382.391 133.75 377.736 129.848 375.709C126.62 374.057 119.34 372.405 109.132 371.053C101.476 370.077 90.2178 369.702 55.2415 369.401L11.0333 368.951L9.53216 366.923C7.50564 364.22 7.28047 357.913 9.15688 356.036C11.0333 354.234 16.8877 353.783 45.7844 353.182C81.3611 352.356 114.011 354.234 127.221 357.838C139.004 360.991 143.658 364.821 152.289 378.562C155.967 384.419 160.471 390.726 162.197 392.528C170.303 400.938 183.363 406.044 205.279 409.423C217.438 411.3 230.948 412.126 250.313 412.126C289.793 412.126 310.208 407.621 329.422 394.706C337.003 389.525 343.233 386.746 350.213 385.395C357.043 384.118 373.33 382.391 385.414 381.716C447.261 378.262 491.469 373.231 536.278 364.746L549.638 361.367C549.788 361.217 556.843 358.889 565.25 356.261C631.75 335.387 665.975 324.349 668.602 322.847C670.253 321.871 670.554 321.871 671.604 322.922ZM208.657 328.328C208.657 329.154 201.376 361.217 197.248 378.337C194.771 388.849 192.52 398.46 192.294 399.586C191.919 401.914 191.394 401.989 184.714 400.112C184.488 400.05 184.272 399.992 184.066 399.937C182.718 399.575 181.788 399.326 181.254 398.724C180.065 397.383 180.845 394.294 183.364 384.32C183.508 383.75 183.658 383.157 183.813 382.541C185.915 373.982 189.517 358.964 191.769 349.203L196.272 329.68C196.648 328.103 197.098 328.028 202.652 328.028C205.955 328.028 208.657 328.178 208.657 328.328ZM228.397 328.479L234.176 329.004V368.125V407.245L230.648 407.02C213.535 406.044 195.897 403.491 195.897 401.989C195.897 401.539 197.248 395.757 198.824 389.149C201.376 378.937 206.78 354.609 211.284 333.81L212.485 328.028H217.588C220.366 328.028 225.244 328.253 228.397 328.479ZM192.895 329.079C192.895 329.905 177.508 393.654 176.683 396.207C176.232 397.634 170.903 394.405 167.226 390.501C167.124 390.388 167.025 390.279 166.929 390.173C165.848 388.978 165.144 388.2 164.851 387.289C164.302 385.581 165.199 383.408 167.779 377.163L167.976 376.685C170.828 369.777 178.934 340.267 179.91 333.434C180.21 331.031 180.811 329.98 181.937 329.53C183.513 328.854 192.895 328.479 192.895 329.079ZM254.816 330.731C269.978 332.834 283.938 337.489 290.093 342.67C292.044 344.322 292.345 344.998 292.345 348.452C292.345 351.831 292.57 352.506 294.071 353.182C295.497 353.783 295.647 354.309 295.272 356.561C294.972 357.988 294.146 359.865 293.395 360.766C292.57 361.592 291.969 362.793 291.969 363.469C291.969 366.022 275.232 381.941 263.073 391.101C255.867 396.433 241.456 406.119 240.631 406.119C240.105 406.119 240.03 329.98 240.556 329.455C240.931 329.004 244.158 329.304 254.816 330.731ZM177.133 330.356C177.133 331.632 172.029 351.756 169.102 361.817C166.25 372.029 162.122 382.241 160.996 382.241C160.621 382.316 158.744 379.838 156.868 376.835L153.49 371.353L155.292 370.227C157.393 368.8 163.323 360.165 166.475 353.858C168.577 349.728 170.903 341.619 172.254 333.66C172.555 332.008 172.93 330.431 173.08 330.13C173.68 329.229 177.133 329.455 177.133 330.356ZM169.327 331.482C169.102 332.158 167.976 336.438 166.925 341.018C165.875 345.598 164.073 351.305 162.797 353.783C160.546 358.363 154.241 368.275 153.19 368.876C152.89 369.101 151.013 367.449 149.137 365.271C145.084 360.541 140.28 357.237 134.426 354.984C129.097 352.957 116.788 350.704 107.631 350.104C103.728 349.803 100.576 349.353 100.576 349.128C100.726 347.851 108.757 342.52 112.434 341.394C124.143 337.714 144.709 333.284 159.12 331.482L159.353 331.451C167.288 330.404 169.224 330.148 169.476 330.684C169.557 330.857 169.463 331.113 169.339 331.451L169.327 331.482ZM453.641 334.41C467.676 336.963 478.034 341.769 480.511 346.875C481.637 349.203 481.637 349.503 480.361 351.981C478.86 354.909 471.129 362.718 464.524 367.975C460.696 371.053 459.87 371.353 454.767 371.879C432.1 373.982 425.57 374.582 422.793 374.582H419.565V353.408V332.308L433.3 332.758C440.806 333.059 449.963 333.81 453.641 334.41ZM413.561 354.158V375.108L402.527 375.934C401.275 376.035 400.136 376.128 399.101 376.213C391.623 376.826 389.554 376.995 389.21 376.304C389.078 376.04 389.198 375.65 389.365 375.111C389.421 374.927 389.483 374.726 389.543 374.507C390.368 371.729 393.295 355.585 395.322 343.271L396.673 334.861L400.05 334.41C401.927 334.11 403.953 333.81 404.554 333.735C405.154 333.584 407.481 333.434 409.658 333.359L413.561 333.284V354.158ZM389.843 352.957C388.117 362.568 386.39 371.954 386.015 373.831L385.339 377.21L381.211 377.436L377.008 377.661L379.86 362.793C380.789 357.969 381.745 352.779 382.495 348.701C383.018 345.861 383.442 343.558 383.688 342.295C384.739 336.213 385.114 335.912 391.119 335.612L392.995 335.537L389.843 352.957ZM380.236 340.943C379.71 344.923 373.781 377.886 373.556 378.036C373.48 378.111 370.553 378.412 367.101 378.712C361.021 379.238 360.871 379.238 361.321 377.736C361.622 376.91 363.498 367.975 365.449 357.913L369.052 339.667L374.231 338.39C377.083 337.714 379.71 337.114 380.085 337.114C380.461 337.038 380.461 338.841 380.236 340.943ZM365.074 342.445C364.249 346.8 359.67 368.8 358.394 374.282L357.193 379.613L351.789 380.439C348.787 380.89 345.71 381.49 344.959 381.791C343.833 382.241 343.683 382.016 343.983 380.89C344.209 380.139 345.785 372.179 347.511 363.319C349.162 354.459 350.813 346.349 351.114 345.373C351.564 343.871 352.615 343.271 358.019 341.919C360.6 341.26 362.94 340.641 364.127 340.327C364.563 340.211 364.844 340.137 364.924 340.117C365.224 340.117 365.299 341.168 365.074 342.445ZM347.361 345.448C347.136 345.974 345.334 354.759 343.383 364.896L339.78 383.367L336.328 385.019C334.451 385.996 329.422 388.924 325.144 391.627C320.866 394.33 315.087 397.484 312.31 398.685C305.63 401.464 293.921 404.242 282.587 405.744C273.355 406.945 245.434 408.221 245.434 407.395C245.434 407.17 248.587 405.068 252.415 402.59C264.574 394.931 274.031 387.347 285.74 375.934C296.698 365.271 297.373 364.671 305.254 360.991C317.113 355.36 322.592 353.107 335.127 348.602C347.511 344.247 347.811 344.172 347.361 345.448ZM106.655 375.633C126.245 377.736 129.097 378.862 135.777 386.972C139.905 392.003 140.205 392.603 138.629 392.603C137.653 392.603 129.472 391.927 120.39 391.101C114.198 390.534 107.793 389.966 103.589 389.593C101.679 389.424 100.224 389.295 99.4497 389.224C86.9903 388.098 58.2437 386.596 40.5304 386.146L20.6405 385.695L18.4639 383.668C16.2122 381.64 12.009 375.558 12.009 374.357C12.009 373.156 94.1207 374.282 106.655 375.633ZM555.417 375.784C555.417 376.009 550.614 378.487 544.684 381.34C532.15 387.347 527.196 390.801 522.768 396.808C517.889 403.341 516.313 408.822 515.637 422.638C514.737 439.683 512.11 449.294 505.279 460.182C498.9 470.469 484.564 482.858 476.233 485.411C474.206 486.012 468.052 486.913 462.572 487.364C456.418 487.889 452.815 488.49 453.115 488.94C453.716 489.917 471.054 489.091 473.981 487.964C475.257 487.439 476.383 487.439 476.908 487.889C477.358 488.265 479.085 488.715 480.736 488.865L483.738 489.166L478.86 491.569C467.751 496.975 456.418 496.374 440.806 489.466C430.523 484.886 429.022 484.886 419.265 489.466C410.333 493.671 404.704 495.023 395.547 495.023C386.39 495.023 381.512 493.821 373.18 489.391C370.103 487.739 366.575 486.463 365.299 486.463C363.948 486.463 359.895 487.964 356.142 489.842C341.056 497.35 332.725 497.35 318.239 489.691C310.433 485.562 308.181 485.562 298.349 490.067C289.718 493.971 281.236 495.773 274.781 495.098C269.077 494.497 266.675 493.671 257.969 489.466C251.964 486.538 251.064 486.312 247.086 486.688C244.534 486.913 241.081 487.889 238.829 489.016C231.624 492.62 222.542 494.872 214.286 495.023C205.504 495.098 200.776 493.971 190.643 489.391C184.263 486.538 183.288 486.312 179.085 486.688C176.082 486.913 171.954 488.19 167.151 490.217C150.638 497.2 139.905 497.125 125.344 489.992C116.788 485.787 113.335 485.787 103.953 490.067C96.8978 493.22 87.9661 495.473 82.4119 495.473C75.4316 495.473 66.1247 492.244 62.0716 488.565C61.0208 487.589 58.4689 485.787 56.3673 484.585C52.1642 482.108 51.4887 480.906 54.566 481.507C58.6941 482.333 139.004 482.783 138.479 481.957C138.179 481.507 131.424 481.206 119.865 481.206C109.883 481.206 89.3921 480.681 74.3058 480.08L46.9102 478.879L43.0073 476.551C36.5525 472.646 29.6473 467.165 27.3956 464.237L25.294 461.458L31.2234 461.984C82.0366 466.339 163.323 468.216 284.088 467.841C375.357 467.541 427.446 465.588 469.403 460.858C476.758 460.032 482.913 459.506 483.138 459.656C483.663 460.182 474.356 468.216 468.727 472.121L463.473 475.8L454.466 476.626C444.934 477.452 429.698 478.353 403.053 479.705L402.242 479.745C379.107 480.906 379.073 480.908 395.397 481.056C410.108 481.206 455.217 479.329 456.493 478.503C456.793 478.278 457.093 478.428 457.093 478.804C457.093 479.254 453.641 481.282 449.438 483.309C442.382 486.763 441.932 487.138 444.409 487.138C445.835 487.213 447.336 486.913 447.786 486.613C448.162 486.312 450.488 485.261 452.965 484.285C484.564 472.421 500.101 452.148 503.628 418.058C504.454 410.099 507.231 402.665 511.809 396.433C514.211 393.054 516.988 390.651 522.317 387.047L522.448 386.959C531.4 380.964 531.532 380.875 543.483 377.961C554.291 375.333 555.417 375.108 555.417 375.784ZM518.64 384.794C515.712 386.521 512.71 387.122 496.873 389.299C474.957 392.303 463.548 393.73 448.462 395.231C428.122 397.259 370.778 401.614 350.138 402.74L342.632 403.115L347.436 400.713C352.089 398.46 352.615 398.385 366.575 397.784C420.541 395.381 471.879 390.726 505.129 385.17C522.242 382.316 522.993 382.316 518.64 384.794ZM71.3036 390.426C79.3346 390.801 95.3966 391.927 106.955 392.979C118.514 393.955 131.199 394.931 135.177 395.231L135.219 395.234C142.382 395.757 142.463 395.763 145.309 398.76C149.212 402.74 153.565 405.744 161.746 410.024C168.652 413.628 168.577 414.228 161.296 412.877C157.618 412.201 150.038 411.525 107.331 407.921C85.4142 406.119 46.7601 403.866 36.7026 403.866H27.1704L26.8702 399.511C26.7201 397.033 25.8194 393.73 24.9187 391.927L23.1924 388.699L39.93 389.224C49.1619 389.45 63.2725 389.975 71.3036 390.426ZM508.957 393.054C507.306 394.931 505.204 398.01 504.379 399.812C503.478 401.614 502.352 403.115 501.902 403.115C501.377 403.115 496.648 403.791 491.244 404.617C447.411 411.45 400.351 415.355 335.877 417.382C297.824 418.659 297.448 419.635 335.127 419.259C376.633 418.809 407.181 417.232 443.958 413.553C459.045 412.126 485.99 408.447 495.747 406.569C498.675 405.969 501.076 405.593 501.226 405.744C501.301 405.819 500.926 408.071 500.251 410.699C499.65 413.327 499.125 416.631 499.125 417.983C499.125 419.334 498.675 420.611 498.224 420.761C495.372 421.812 452.065 426.693 431.949 428.27C392.545 431.423 382.487 432.4 381.737 433.15C378.734 436.154 474.732 428.27 496.423 423.689C498.449 423.239 498.524 423.314 498.074 425.717C497.774 427.143 497.023 430.522 496.348 433.226L495.147 438.181L489.443 439.007C478.71 440.659 452.215 443.588 434.952 445.089C390.218 448.994 346.685 450.496 270.803 450.646C240.33 450.646 219.165 451.021 219.165 451.397C219.165 452.298 376.107 451.547 397.799 450.496C427.596 449.069 461.597 445.84 485.089 442.311C489.893 441.56 493.871 441.26 493.871 441.56C493.871 442.461 490.343 449.369 488.017 453.049C486.891 454.701 485.99 456.127 485.915 456.277C485.765 456.578 469.478 458.455 455.217 459.807C444.109 460.858 425.72 462.059 393.671 463.936C363.798 465.663 286.79 466.264 207.156 465.513C116.337 464.537 101.401 464.087 46.9102 460.557C41.0697 460.14 35.2864 459.78 31.2752 459.53C28.7915 459.376 26.9873 459.263 26.2697 459.206C23.0423 459.056 22.8171 458.905 20.4153 454.926C17.7884 450.496 15.6117 444.339 16.4373 443.588C16.8877 443.062 43.1574 444.263 72.8047 446.216C94.3459 447.642 126.32 449.444 147.486 450.421C163.998 451.171 212.259 451.622 212.86 451.021C213.01 450.796 204.153 450.421 193.12 450.195C160.395 449.444 119.79 447.492 97.9486 445.54C75.8069 443.513 45.5592 441.485 30.623 440.96L15.912 440.434L15.4616 438.181C15.0113 436.004 16.1371 426.843 17.0378 425.416C17.6382 424.365 36.7026 425.191 79.935 427.894C82.2463 428.037 84.5184 428.178 86.7296 428.315L86.8154 428.32C103.162 429.333 116.164 430.138 117.088 430.072L118.964 429.997L117.088 429.396C112.66 427.819 52.5395 422.939 31.2985 422.413C24.7686 422.188 19.2895 421.887 18.9893 421.662C18.7641 421.362 20.4904 417.833 22.8922 413.628C26.2697 407.771 27.5457 406.119 28.8216 406.119C29.2619 406.159 31.2177 406.263 33.9491 406.409C36.3396 406.536 39.3242 406.695 42.4068 406.87C49.0118 407.245 63.873 408.071 75.4316 408.672C100.951 410.099 113.11 411 134.726 412.877C152.89 414.529 157.693 414.904 167.751 415.505C175.707 416.031 178.559 416.331 186.14 417.758C203.478 421.061 243.558 423.239 260.446 421.812C265.625 421.437 275.757 420.611 282.963 420.01C290.168 419.485 296.773 418.809 297.598 418.583C298.424 418.358 303.978 417.007 309.983 415.58C321.917 412.652 326.12 411.225 334.226 407.17C339.405 404.542 339.705 404.467 347.811 404.542C371.379 404.842 441.407 399.136 482.237 393.654C495.897 391.852 507.381 390.2 507.756 390.05C508.207 389.825 509.333 389.675 510.233 389.675C511.884 389.6 511.809 389.825 508.957 393.054Z" fill="#150600"/>
<path fill-rule="evenodd" clip-rule="evenodd" d="M671.604 322.922C672.13 323.448 672.505 324.199 672.505 324.724C672.505 324.745 672.505 324.764 672.506 324.784L672.507 324.829C672.536 325.689 672.536 325.694 652.24 333.209C643.383 336.438 631.75 340.943 626.345 343.045C621.016 345.223 613.361 348.302 609.458 349.803C606.939 350.773 601.198 353.025 594.66 355.59L594.625 355.604L593.302 356.123C591.793 356.715 590.331 357.294 588.876 357.871L588.865 357.875C587.252 358.514 585.639 359.154 583.952 359.814L561.947 369.702C557.744 372.78 505.88 382.166 468.727 386.521C444.634 389.374 407.931 392.153 377.534 393.429C355.842 394.33 350.213 395.156 344.509 398.235C325.67 408.447 317.714 411.751 304.654 414.679C285.289 419.034 273.806 419.785 241.231 418.884C194.771 417.607 179.385 415.43 164.373 408.071C153.565 402.665 148.837 398.535 142.307 388.699C138.179 382.391 133.75 377.736 129.848 375.709C126.62 374.057 119.34 372.405 109.132 371.053C101.476 370.077 90.2178 369.702 55.2415 369.401L11.0333 368.951L9.53216 366.923C7.50564 364.22 7.28047 357.913 9.15688 356.036C11.0333 354.234 16.8877 353.783 45.7844 353.182C81.3611 352.356 114.011 354.234 127.221 357.838C139.004 360.991 143.658 364.821 152.289 378.562C155.967 384.419 160.471 390.726 162.197 392.528C170.303 400.938 183.363 406.044 205.279 409.423C217.438 411.3 230.948 412.126 250.313 412.126C289.793 412.126 310.208 407.621 329.422 394.706C337.003 389.525 343.233 386.746 350.213 385.395C357.043 384.118 373.33 382.391 385.414 381.716C447.261 378.262 491.469 373.231 536.278 364.746L549.638 361.367C549.788 361.217 556.843 358.889 565.25 356.261C631.75 335.387 665.975 324.349 668.602 322.847C670.253 321.871 670.554 321.871 671.604 322.922Z" fill="#DDCFBB"/>
</svg>
